<svg width="100%" height="100%" viewBox="-156.62624243200125 -161.09292143521046 309.7524848640025 225.08201379794133" xmlns="http://www.w3.org/2000/svg">
	<g stroke="black" stroke-width="0.3">

<!-- Arrow -->
		<path opacity="0.5" stroke="black" d="M92.66471820493493 -28.75961894323342 L135.96598839415685 -41.25961894323342" stroke-linecap="square"/>
		<circle opacity="0.5" cx="135.96598839415685" cy="-41.25961894323342" r="1" fill="black" />
		<path opacity="0.75" fill="darkturquoise" d="M142.12624243200125 -132.52722283113837 L147.12624243200125 -128.19709581221622 L147.12624243200125 45.00798494467155 L142.12624243200125 40.677857925749365 L142.12624243200125 -132.52722283113837" stroke-linecap="square"/>
		<path opacity="0.75" fill="darkturquoise" d="M133.46598839415685 -130.02722283113837 L138.46598839415685 -125.6970958122162 L138.46598839415685 47.50798494467155 L133.46598839415685 43.177857925749365 L133.46598839415685 -130.02722283113837" stroke-linecap="square"/>
		<path opacity="0.75" fill="darkturquoise" d="M142.12624243200125 -132.52722283113837 L133.46598839415685 -130.02722283113837 L133.46598839415685 43.177857925749365 L142.12624243200125 40.677857925749365 L142.12624243200125 -132.52722283113837" stroke-linecap="square"/>
		<path opacity="0.75" fill="darkturquoise" d="M147.12624243200125 -128.19709581221622 L138.46598839415685 -125.6970958122162 L138.46598839415685 47.50798494467155 L147.12624243200125 45.00798494467155 L147.12624243200125 -128.19709581221622" stroke-linecap="square"/>
		<path opacity="0.75" fill="darkturquoise" d="M142.12624243200125 -132.52722283113837 L147.12624243200125 -128.19709581221622 L138.46598839415685 -125.6970958122162 L133.46598839415685 -130.02722283113837 L142.12624243200125 -132.52722283113837" stroke-linecap="square"/>
		<path opacity="0.75" fill="darkturquoise" d="M142.12624243200125 40.677857925749365 L147.12624243200125 45.00798494467155 L138.46598839415685 47.50798494467155 L133.46598839415685 43.177857925749365 L142.12624243200125 40.677857925749365" stroke-linecap="square"/>
		<text style="fill:black;font-family:calibri;font-size:6" x="133.46598839415685" y="-43.424682452694505" >200</text>
		<text style="fill:black;font-family:calibri;font-size:6" x="135.96598839415685" y="45.34292143521046" >10</text>
		<text style="fill:black;font-family:calibri;font-size:6" x="137.79611541307906" y="-131.27722283113837" >10</text>

		<path opacity="0.75" fill="darkturquoise" d="M90.16471820493493 -74.22595264191645 L95.16471820493493 -69.89582562299427 L95.16471820493493 16.706714755449617 L90.16471820493493 12.37658773652742 L90.16471820493493 -74.22595264191645" stroke-linecap="square"/>
		<path opacity="0.75" fill="darkturquoise" d="M81.50446416709055 -71.72595264191645 L86.50446416709055 -67.39582562299427 L86.50446416709055 19.206714755449617 L81.50446416709055 14.87658773652742 L81.50446416709055 -71.72595264191645" stroke-linecap="square"/>
		<path opacity="0.75" fill="darkturquoise" d="M90.16471820493493 -74.22595264191645 L81.50446416709055 -71.72595264191645 L81.50446416709055 14.87658773652742 L90.16471820493493 12.37658773652742 L90.16471820493493 -74.22595264191645" stroke-linecap="square"/>
		<path opacity="0.75" fill="darkturquoise" d="M95.16471820493493 -69.89582562299427 L86.50446416709055 -67.39582562299427 L86.50446416709055 19.206714755449617 L95.16471820493493 16.706714755449617 L95.16471820493493 -69.89582562299427" stroke-linecap="square"/>
		<path opacity="0.75" fill="darkturquoise" d="M90.16471820493493 -74.22595264191645 L95.16471820493493 -69.89582562299427 L86.50446416709055 -67.39582562299427 L81.50446416709055 -71.72595264191645 L90.16471820493493 -74.22595264191645" stroke-linecap="square"/>
		<path opacity="0.75" fill="darkturquoise" d="M90.16471820493493 12.37658773652742 L95.16471820493493 16.706714755449617 L86.50446416709055 19.206714755449617 L81.50446416709055 14.87658773652742 L90.16471820493493 12.37658773652742" stroke-linecap="square"/>
		<text style="fill:black;font-family:calibri;font-size:6" x="81.50446416709055" y="-28.424682452694515" >100</text>
		<text style="fill:black;font-family:calibri;font-size:6" x="84.00446416709055" y="17.04165124598852" >10</text>
		<text style="fill:black;font-family:calibri;font-size:6" x="85.83459118601274" y="-72.97595264191645" >10</text>

<!-- Arrow -->
		<path opacity="0.5" stroke="black" d="M40.703193977868615 -13.759618943233416 L84.00446416709055 -26.25961894323342" stroke-linecap="square"/>
		<circle opacity="0.5" cx="84.00446416709055" cy="-26.25961894323342" r="1" fill="black" />
		<path opacity="0.5" fill="orange" d="M34.703193977868615 -25.88397459621556 L46.703193977868615 -15.491669750802298 L46.703193977868615 -1.6352632902512774 L34.703193977868615 -12.027568135664541 L34.703193977868615 -25.88397459621556" stroke-linecap="square"/>
		<path opacity="0.5" fill="orange" d="M-27.65063509461097 -7.88397459621556 L-15.650635094610964 2.5083302491977015 L-15.650635094610964 16.364736709748723 L-27.65063509461097 5.972431864335459 L-27.65063509461097 -7.88397459621556" stroke-linecap="square"/>
		<path opacity="0.5" fill="orange" d="M34.703193977868615 -25.88397459621556 L-27.65063509461097 -7.88397459621556 L-27.65063509461097 5.972431864335459 L34.703193977868615 -12.027568135664541 L34.703193977868615 -25.88397459621556" stroke-linecap="square"/>
		<path opacity="0.5" fill="orange" d="M46.703193977868615 -15.491669750802298 L-15.650635094610964 2.5083302491977015 L-15.650635094610964 16.364736709748723 L46.703193977868615 -1.6352632902512774 L46.703193977868615 -15.491669750802298" stroke-linecap="square"/>
		<path opacity="0.5" fill="orange" d="M34.703193977868615 -25.88397459621556 L46.703193977868615 -15.491669750802298 L-15.650635094610964 2.5083302491977015 L-27.65063509461097 -7.88397459621556 L34.703193977868615 -25.88397459621556" stroke-linecap="square"/>
		<path opacity="0.5" fill="orange" d="M34.703193977868615 -12.027568135664541 L46.703193977868615 -1.6352632902512774 L-15.650635094610964 16.364736709748723 L-27.65063509461097 5.972431864335459 L34.703193977868615 -12.027568135664541" stroke-linecap="square"/>
		<text style="fill:black;font-family:calibri;font-size:6" x="-27.65063509461097" y="-0.9557713659400506" >16</text>
		<text style="fill:black;font-family:calibri;font-size:6" x="-21.650635094610966" y="11.16858428704209" >24</text>
		<text style="fill:black;font-family:calibri;font-size:6" x="3.526279441628823" y="-16.88397459621556" >72</text>

		<path opacity="0.75" fill="pink" d="M-61.98068061004678 21.103874405098345 L-56.98068061004678 25.434001424020536 L-24.356902589348643 4.23990739655806 L-61.98068061004678 21.103874405098345"/>
		<path opacity="0.75" fill="pink" d="M-61.98068061004678 21.103874405098345 L-61.98068061004678 29.764128442942734 L-24.356902589348643 4.23990739655806 L-61.98068061004678 21.103874405098345"/>
		<path opacity="0.75" fill="pink" d="M-56.98068061004678 25.434001424020536 L-56.98068061004678 34.094255461864925 L-24.356902589348643 4.23990739655806 L-56.98068061004678 25.434001424020536"/>
		<path opacity="0.75" fill="pink" d="M-61.98068061004678 29.764128442942734 L-56.98068061004678 34.094255461864925 L-24.356902589348643 4.23990739655806 L-61.98068061004678 29.764128442942734"/>

		<text style="fill:black;font-family:calibri;font-size:6" x="-47.772754603147405" y="8.171890900828203" >[10,10]</text>
		<path opacity="0.75" fill="darkturquoise" d="M-61.98068061004678 21.103874405098345 L-56.98068061004678 25.434001424020536 L-56.98068061004678 34.094255461864925 L-61.98068061004678 29.764128442942734 L-61.98068061004678 21.103874405098345" stroke-linecap="square"/>
		<path opacity="0.75" fill="darkturquoise" d="M-89.69349353114882 29.103874405098345 L-84.69349353114882 33.434001424020536 L-84.69349353114882 42.094255461864925 L-89.69349353114882 37.764128442942734 L-89.69349353114882 29.103874405098345" stroke-linecap="square"/>
		<path opacity="0.75" fill="darkturquoise" d="M-61.98068061004678 21.103874405098345 L-89.69349353114882 29.103874405098345 L-89.69349353114882 37.764128442942734 L-61.98068061004678 29.764128442942734 L-61.98068061004678 21.103874405098345" stroke-linecap="square"/>
		<path opacity="0.75" fill="darkturquoise" d="M-56.98068061004678 25.434001424020536 L-84.69349353114882 33.434001424020536 L-84.69349353114882 42.094255461864925 L-56.98068061004678 34.094255461864925 L-56.98068061004678 25.434001424020536" stroke-linecap="square"/>
		<path opacity="0.75" fill="darkturquoise" d="M-61.98068061004678 21.103874405098345 L-56.98068061004678 25.434001424020536 L-84.69349353114882 33.434001424020536 L-89.69349353114882 29.103874405098345 L-61.98068061004678 21.103874405098345" stroke-linecap="square"/>
		<path opacity="0.75" fill="darkturquoise" d="M-61.98068061004678 29.764128442942734 L-56.98068061004678 34.094255461864925 L-84.69349353114882 42.094255461864925 L-89.69349353114882 37.764128442942734 L-61.98068061004678 29.764128442942734" stroke-linecap="square"/>
		<path opacity="0.5" fill="orange" d="M-76.9519052838329 -7.5083302491977015 L-52.9519052838329 13.276279441628823 L-52.9519052838329 40.989092362730865 L-76.9519052838329 20.204482671904337 L-76.9519052838329 -7.5083302491977015" stroke-linecap="square"/>
		<path opacity="0.5" fill="orange" d="M-104.66471820493493 0.49166975080229847 L-80.66471820493493 21.276279441628823 L-80.66471820493493 48.989092362730865 L-104.66471820493493 28.204482671904337 L-104.66471820493493 0.49166975080229847" stroke-linecap="square"/>
		<path opacity="0.5" fill="orange" d="M-76.9519052838329 -7.5083302491977015 L-104.66471820493493 0.49166975080229847 L-104.66471820493493 28.204482671904337 L-76.9519052838329 20.204482671904337 L-76.9519052838329 -7.5083302491977015" stroke-linecap="square"/>
		<path opacity="0.5" fill="orange" d="M-52.9519052838329 13.276279441628823 L-80.66471820493493 21.276279441628823 L-80.66471820493493 48.989092362730865 L-52.9519052838329 40.989092362730865 L-52.9519052838329 13.276279441628823" stroke-linecap="square"/>
		<path opacity="0.5" fill="orange" d="M-76.9519052838329 -7.5083302491977015 L-52.9519052838329 13.276279441628823 L-80.66471820493493 21.276279441628823 L-104.66471820493493 0.49166975080229847 L-76.9519052838329 -7.5083302491977015" stroke-linecap="square"/>
		<path opacity="0.5" fill="orange" d="M-76.9519052838329 20.204482671904337 L-52.9519052838329 40.989092362730865 L-80.66471820493493 48.989092362730865 L-104.66471820493493 28.204482671904337 L-76.9519052838329 20.204482671904337" stroke-linecap="square"/>
		<text style="fill:black;font-family:calibri;font-size:6" x="-104.66471820493493" y="14.348076211353318" >32</text>
		<text style="fill:black;font-family:calibri;font-size:6" x="-92.66471820493493" y="38.5967875173176" >48</text>
		<text style="fill:black;font-family:calibri;font-size:6" x="-90.80831174438391" y="-3.5083302491977015" >32</text>

		<path opacity="0.75" fill="darkturquoise" d="M-130.45127687170537 32.24615041917313 L-125.45127687170536 36.57627743809532 L-125.45127687170536 45.2365314759397 L-130.45127687170537 40.906404457017516 L-130.45127687170537 32.24615041917313" stroke-linecap="square"/>
		<path opacity="0.75" fill="darkturquoise" d="M-139.11153090954977 34.74615041917313 L-134.11153090954977 39.07627743809532 L-134.11153090954977 47.7365314759397 L-139.11153090954977 43.406404457017516 L-139.11153090954977 34.74615041917313" stroke-linecap="square"/>
		<path opacity="0.75" fill="darkturquoise" d="M-130.45127687170537 32.24615041917313 L-139.11153090954977 34.74615041917313 L-139.11153090954977 43.406404457017516 L-130.45127687170537 40.906404457017516 L-130.45127687170537 32.24615041917313" stroke-linecap="square"/>
		<path opacity="0.75" fill="darkturquoise" d="M-125.45127687170536 36.57627743809532 L-134.11153090954977 39.07627743809532 L-134.11153090954977 47.7365314759397 L-125.45127687170536 45.2365314759397 L-125.45127687170536 36.57627743809532" stroke-linecap="square"/>
		<path opacity="0.75" fill="darkturquoise" d="M-130.45127687170537 32.24615041917313 L-125.45127687170536 36.57627743809532 L-134.11153090954977 39.07627743809532 L-139.11153090954977 34.74615041917313 L-130.45127687170537 32.24615041917313" stroke-linecap="square"/>
		<path opacity="0.75" fill="darkturquoise" d="M-130.45127687170537 40.906404457017516 L-125.45127687170536 45.2365314759397 L-134.11153090954977 47.7365314759397 L-139.11153090954977 43.406404457017516 L-130.45127687170537 40.906404457017516" stroke-linecap="square"/>
		<path opacity="0.5" fill="lavender" d="M-147.96598839415685 12.991669750802298 L-123.96598839415685 33.77627944162882 L-123.96598839415685 61.48909236273087 L-147.96598839415685 40.70448267190434 L-147.96598839415685 12.991669750802298" stroke-linecap="square"/>
		<path opacity="0.5" fill="lavender" d="M-156.62624243200125 15.491669750802298 L-132.62624243200125 36.27627944162882 L-132.62624243200125 63.98909236273087 L-156.62624243200125 43.20448267190434 L-156.62624243200125 15.491669750802298" stroke-linecap="square"/>
		<path opacity="0.5" fill="lavender" d="M-147.96598839415685 12.991669750802298 L-156.62624243200125 15.491669750802298 L-156.62624243200125 43.20448267190434 L-147.96598839415685 40.70448267190434 L-147.96598839415685 12.991669750802298" stroke-linecap="square"/>
		<path opacity="0.5" fill="lavender" d="M-123.96598839415685 33.77627944162882 L-132.62624243200125 36.27627944162882 L-132.62624243200125 63.98909236273087 L-123.96598839415685 61.48909236273087 L-123.96598839415685 33.77627944162882" stroke-linecap="square"/>
		<path opacity="0.5" fill="lavender" d="M-147.96598839415685 12.991669750802298 L-123.96598839415685 33.77627944162882 L-132.62624243200125 36.27627944162882 L-156.62624243200125 15.491669750802298 L-147.96598839415685 12.991669750802298" stroke-linecap="square"/>
		<path opacity="0.5" fill="lavender" d="M-147.96598839415685 40.70448267190434 L-123.96598839415685 61.48909236273087 L-132.62624243200125 63.98909236273087 L-156.62624243200125 43.20448267190434 L-147.96598839415685 40.70448267190434" stroke-linecap="square"/>
		<text style="fill:black;font-family:calibri;font-size:6" x="-156.62624243200125" y="29.348076211353316" >32</text>
		<text style="fill:black;font-family:calibri;font-size:6" x="-144.62624243200125" y="53.59678751731761" >48</text>
		<text style="fill:black;font-family:calibri;font-size:6" x="-152.29611541307906" y="14.241669750802298" >10</text>

		<path opacity="0.75" fill="pink" d="M-130.45127687170537 32.24615041917313 L-125.45127687170536 36.57627743809532 L-90.25050514502863 38.11012961070301 L-130.45127687170537 32.24615041917313"/>
		<path opacity="0.75" fill="pink" d="M-130.45127687170537 32.24615041917313 L-130.45127687170537 40.906404457017516 L-90.25050514502863 38.11012961070301 L-130.45127687170537 32.24615041917313"/>
		<path opacity="0.75" fill="pink" d="M-125.45127687170536 36.57627743809532 L-125.45127687170536 45.2365314759397 L-90.25050514502863 38.11012961070301 L-125.45127687170536 36.57627743809532"/>
		<path opacity="0.75" fill="pink" d="M-130.45127687170537 40.906404457017516 L-125.45127687170536 45.2365314759397 L-90.25050514502863 38.11012961070301 L-130.45127687170537 40.906404457017516"/>

		<text style="fill:black;font-family:calibri;font-size:6" x="-115.38435296281313" y="30.67814001493807" >[10,10]</text>
	 </g>
</svg>