<svg width="100%" height="100%" viewBox="-156.62624243200125 -161.09292143521046 309.7524848640025 225.08201379794133" xmlns="http://www.w3.org/2000/svg">
	<g stroke="black" stroke-width="0.3">

		<path opacity="0.75" fill="darkturquoise" d="M142.12624243200125 -132.52722283113837 L147.12624243200125 -128.19709581221622 L147.12624243200125 45.00798494467155 L142.12624243200125 40.677857925749365 L142.12624243200125 -132.52722283113837" stroke-linecap="square"/>
		<path opacity="0.75" fill="darkturquoise" d="M133.46598839415685 -130.02722283113837 L138.46598839415685 -125.6970958122162 L138.46598839415685 47.50798494467155 L133.46598839415685 43.177857925749365 L133.46598839415685 -130.02722283113837" stroke-linecap="square"/>
		<path opacity="0.75" fill="darkturquoise" d="M142.12624243200125 -132.52722283113837 L133.46598839415685 -130.02722283113837 L133.46598839415685 43.177857925749365 L142.12624243200125 40.677857925749365 L142.12624243200125 -132.52722283113837" stroke-linecap="square"/>
		<path opacity="0.75" fill="darkturquoise" d="M147.12624243200125 -128.19709581221622 L138.46598839415685 -125.6970958122162 L138.46598839415685 47.50798494467155 L147.12624243200125 45.00798494467155 L147.12624243200125 -128.19709581221622" stroke-linecap="square"/>
		<path opacity="0.75" fill="darkturquoise" d="M142.12624243200125 -132.52722283113837 L147.12624243200125 -128.19709581221622 L138.46598839415685 -125.6970958122162 L133.46598839415685 -130.02722283113837 L142.12624243200125 -132.52722283113837" stroke-linecap="square"/>
		<path opacity="0.75" fill="darkturquoise" d="M142.12624243200125 40.677857925749365 L147.12624243200125 45.00798494467155 L138.46598839415685 47.50798494467155 L133.46598839415685 43.177857925749365 L142.12624243200125 40.677857925749365" stroke-linecap="square"/>
		<text style="fill:black;font-family:calibri;font-size:6" x="133.46598839415685" y="-43.424682452694505" >200</text>
		<text style="fill:black;font-family:calibri;font-size:6" x="135.96598839415685" y="45.34292143521046" >10</text>
		<text style="fill:black;font-family:calibri;font-size:6" x="137.79611541307906" y="-131.27722283113837" >10</text>

<!-- Arrow -->
		<path opacity="0.5" stroke="black" d="M92.66471820493493 -28.75961894323342 L135.96598839415685 -41.25961894323342" stroke-linecap="square"/>
		<circle opacity="0.5" cx="135.96598839415685" cy="-41.25961894323342" r="1" fill="black" />
		<path opacity="0.75" fill="darkturquoise" d="M90.16471820493493 -74.22595264191645 L95.16471820493493 -69.89582562299427 L95.16471820493493 16.706714755449617 L90.16471820493493 12.37658773652742 L90.16471820493493 -74.22595264191645" stroke-linecap="square"/>
		<path opacity="0.75" fill="darkturquoise" d="M81.50446416709055 -71.72595264191645 L86.50446416709055 -67.39582562299427 L86.50446416709055 19.206714755449617 L81.50446416709055 14.87658773652742 L81.50446416709055 -71.72595264191645" stroke-linecap="square"/>
		<path opacity="0.75" fill="darkturquoise" d="M90.16471820493493 -74.22595264191645 L81.50446416709055 -71.72595264191645 L81.50446416709055 14.87658773652742 L90.16471820493493 12.37658773652742 L90.16471820493493 -74.22595264191645" stroke-linecap="square"/>
		<path opacity="0.75" fill="darkturquoise" d="M95.16471820493493 -69.89582562299427 L86.50446416709055 -67.39582562299427 L86.50446416709055 19.206714755449617 L95.16471820493493 16.706714755449617 L95.16471820493493 -69.89582562299427" stroke-linecap="square"/>
		<path opacity="0.75" fill="darkturquoise" d="M90.16471820493493 -74.22595264191645 L95.16471820493493 -69.89582562299427 L86.50446416709055 -67.39582562299427 L81.50446416709055 -71.72595264191645 L90.16471820493493 -74.22595264191645" stroke-linecap="square"/>
		<path opacity="0.75" fill="darkturquoise" d="M90.16471820493493 12.37658773652742 L95.16471820493493 16.706714755449617 L86.50446416709055 19.206714755449617 L81.50446416709055 14.87658773652742 L90.16471820493493 12.37658773652742" stroke-linecap="square"/>
		<text style="fill:black;font-family:calibri;font-size:6" x="81.50446416709055" y="-28.424682452694515" >100</text>
		<text style="fill:black;font-family:calibri;font-size:6" x="84.00446416709055" y="17.04165124598852" >10</text>
		<text style="fill:black;font-family:calibri;font-size:6" x="85.83459118601274" y="-72.97595264191645" >10</text>

<!-- Arrow -->
		<path opacity="0.5" stroke="black" d="M40.703193977868615 -13.759618943233416 L84.00446416709055 -26.25961894323342" stroke-linecap="square"/>
		<circle opacity="0.5" cx="84.00446416709055" cy="-26.25961894323342" r="1" fill="black" />
<!-- Arrow -->
		<path opacity="0.5" stroke="black" d="M140.29611541307906 -129.1121593216773 L140.29611541307906 -155.09292143521046" stroke-linecap="square"/>
		<circle opacity="0.5" cx="140.29611541307906" cy="-155.09292143521046" r="1" fill="black" />
		<path opacity="0.5" fill="orange" d="M34.703193977868615 -25.88397459621556 L46.703193977868615 -15.491669750802298 L46.703193977868615 -1.6352632902512774 L34.703193977868615 -12.027568135664541 L34.703193977868615 -25.88397459621556" stroke-linecap="square"/>
		<path opacity="0.5" fill="orange" d="M-27.65063509461097 -7.88397459621556 L-15.650635094610964 2.5083302491977015 L-15.650635094610964 16.364736709748723 L-27.65063509461097 5.972431864335459 L-27.65063509461097 -7.88397459621556" stroke-linecap="square"/>
		<path opacity="0.5" fill="orange" d="M34.703193977868615 -25.88397459621556 L-27.65063509461097 -7.88397459621556 L-27.65063509461097 5.972431864335459 L34.703193977868615 -12.027568135664541 L34.703193977868615 -25.88397459621556" stroke-linecap="square"/>
		<path opacity="0.5" fill="orange" d="M46.703193977868615 -15.491669750802298 L-15.650635094610964 2.5083302491977015 L-15.650635094610964 16.364736709748723 L46.703193977868615 -1.6352632902512774 L46.703193977868615 -15.491669750802298" stroke-linecap="square"/>
		<path opacity="0.5" fill="orange" d="M34.703193977868615 -25.88397459621556 L46.703193977868615 -15.491669750802298 L-15.650635094610964 2.5083302491977015 L-27.65063509461097 -7.88397459621556 L34.703193977868615 -25.88397459621556" stroke-linecap="square"/>
		<path opacity="0.5" fill="orange" d="M34.703193977868615 -12.027568135664541 L46.703193977868615 -1.6352632902512774 L-15.650635094610964 16.364736709748723 L-27.65063509461097 5.972431864335459 L34.703193977868615 -12.027568135664541" stroke-linecap="square"/>
		<text style="fill:black;font-family:calibri;font-size:6" x="-27.65063509461097" y="-0.9557713659400506" >16</text>
		<text style="fill:black;font-family:calibri;font-size:6" x="-21.650635094610966" y="11.16858428704209" >24</text>
		<text style="fill:black;font-family:calibri;font-size:6" x="3.526279441628823" y="-16.88397459621556" >72</text>

		<path opacity="0.75" fill="pink" d="M-72.98785168803812 8.922855605652238 L-67.98785168803812 13.252982624574429 L-26.210554477929485 0.032699709021322576 L-72.98785168803812 8.922855605652238"/>
		<path opacity="0.75" fill="pink" d="M-72.98785168803812 8.922855605652238 L-72.98785168803812 17.58310964349662 L-26.210554477929485 0.032699709021322576 L-72.98785168803812 8.922855605652238"/>
		<path opacity="0.75" fill="pink" d="M-67.98785168803812 13.252982624574429 L-67.98785168803812 21.91323666241881 L-26.210554477929485 0.032699709021322576 L-67.98785168803812 13.252982624574429"/>
		<path opacity="0.75" fill="pink" d="M-72.98785168803812 17.58310964349662 L-67.98785168803812 21.91323666241881 L-26.210554477929485 0.032699709021322576 L-72.98785168803812 17.58310964349662"/>

		<text style="fill:black;font-family:calibri;font-size:6" x="-55.72875261800191" y="-0.022222342663219763" >[10,10]</text>
		<path opacity="0.75" fill="darkturquoise" d="M-72.98785168803812 8.922855605652238 L-67.98785168803812 13.252982624574429 L-67.98785168803812 21.91323666241881 L-72.98785168803812 17.58310964349662 L-72.98785168803812 8.922855605652238" stroke-linecap="square"/>
		<path opacity="0.75" fill="darkturquoise" d="M-100.70066460914015 16.922855605652238 L-95.70066460914015 21.25298262457443 L-95.70066460914015 29.91323666241881 L-100.70066460914015 25.58310964349662 L-100.70066460914015 16.922855605652238" stroke-linecap="square"/>
		<path opacity="0.75" fill="darkturquoise" d="M-72.98785168803812 8.922855605652238 L-100.70066460914015 16.922855605652238 L-100.70066460914015 25.58310964349662 L-72.98785168803812 17.58310964349662 L-72.98785168803812 8.922855605652238" stroke-linecap="square"/>
		<path opacity="0.75" fill="darkturquoise" d="M-67.98785168803812 13.252982624574429 L-95.70066460914015 21.25298262457443 L-95.70066460914015 29.91323666241881 L-67.98785168803812 21.91323666241881 L-67.98785168803812 13.252982624574429" stroke-linecap="square"/>
		<path opacity="0.75" fill="darkturquoise" d="M-72.98785168803812 8.922855605652238 L-67.98785168803812 13.252982624574429 L-95.70066460914015 21.25298262457443 L-100.70066460914015 16.922855605652238 L-72.98785168803812 8.922855605652238" stroke-linecap="square"/>
		<path opacity="0.75" fill="darkturquoise" d="M-72.98785168803812 17.58310964349662 L-67.98785168803812 21.91323666241881 L-95.70066460914015 29.91323666241881 L-100.70066460914015 25.58310964349662 L-72.98785168803812 17.58310964349662" stroke-linecap="square"/>
		<path opacity="0.5" fill="orange" d="M-76.9519052838329 -7.5083302491977015 L-52.9519052838329 13.276279441628823 L-52.9519052838329 40.989092362730865 L-76.9519052838329 20.204482671904337 L-76.9519052838329 -7.5083302491977015" stroke-linecap="square"/>
		<path opacity="0.5" fill="orange" d="M-104.66471820493493 0.49166975080229847 L-80.66471820493493 21.276279441628823 L-80.66471820493493 48.989092362730865 L-104.66471820493493 28.204482671904337 L-104.66471820493493 0.49166975080229847" stroke-linecap="square"/>
		<path opacity="0.5" fill="orange" d="M-76.9519052838329 -7.5083302491977015 L-104.66471820493493 0.49166975080229847 L-104.66471820493493 28.204482671904337 L-76.9519052838329 20.204482671904337 L-76.9519052838329 -7.5083302491977015" stroke-linecap="square"/>
		<path opacity="0.5" fill="orange" d="M-52.9519052838329 13.276279441628823 L-80.66471820493493 21.276279441628823 L-80.66471820493493 48.989092362730865 L-52.9519052838329 40.989092362730865 L-52.9519052838329 13.276279441628823" stroke-linecap="square"/>
		<path opacity="0.5" fill="orange" d="M-76.9519052838329 -7.5083302491977015 L-52.9519052838329 13.276279441628823 L-80.66471820493493 21.276279441628823 L-104.66471820493493 0.49166975080229847 L-76.9519052838329 -7.5083302491977015" stroke-linecap="square"/>
		<path opacity="0.5" fill="orange" d="M-76.9519052838329 20.204482671904337 L-52.9519052838329 40.989092362730865 L-80.66471820493493 48.989092362730865 L-104.66471820493493 28.204482671904337 L-76.9519052838329 20.204482671904337" stroke-linecap="square"/>
		<text style="fill:black;font-family:calibri;font-size:6" x="-104.66471820493493" y="14.348076211353318" >32</text>
		<text style="fill:black;font-family:calibri;font-size:6" x="-92.66471820493493" y="38.5967875173176" >48</text>
		<text style="fill:black;font-family:calibri;font-size:6" x="-90.80831174438391" y="-3.5083302491977015" >32</text>

<!-- Arrow -->
		<path opacity="0.5" stroke="black" d="M-140.29611541307906 -1.3467875173176012 L140.29611541307906 -155.09292143521046" stroke-linecap="square"/>
		<circle opacity="0.5" cx="140.29611541307906" cy="-155.09292143521046" r="1" fill="black" />
		<path opacity="0.75" fill="pink" d="M-129.47531950928996 43.32537282470773 L-124.47531950928996 47.65549984362992 L-84.3085421053774 42.074792259734075 L-129.47531950928996 43.32537282470773"/>
		<path opacity="0.75" fill="pink" d="M-129.47531950928996 43.32537282470773 L-129.47531950928996 51.98562686255211 L-84.3085421053774 42.074792259734075 L-129.47531950928996 43.32537282470773"/>
		<path opacity="0.75" fill="pink" d="M-124.47531950928996 47.65549984362992 L-124.47531950928996 56.31575388147431 L-84.3085421053774 42.074792259734075 L-124.47531950928996 47.65549984362992"/>
		<path opacity="0.75" fill="pink" d="M-129.47531950928996 51.98562686255211 L-124.47531950928996 56.31575388147431 L-84.3085421053774 42.074792259734075 L-129.47531950928996 51.98562686255211"/>

		<text style="fill:black;font-family:calibri;font-size:6" x="-112.75306037465243" y="38.2000825422209" >[10,10]</text>
		<path opacity="0.75" fill="darkturquoise" d="M-129.47531950928996 43.32537282470773 L-124.47531950928996 47.65549984362992 L-124.47531950928996 56.31575388147431 L-129.47531950928996 51.98562686255211 L-129.47531950928996 43.32537282470773" stroke-linecap="square"/>
		<path opacity="0.75" fill="darkturquoise" d="M-138.13557354713436 45.82537282470773 L-133.13557354713436 50.15549984362991 L-133.13557354713436 58.81575388147431 L-138.13557354713436 54.48562686255211 L-138.13557354713436 45.82537282470773" stroke-linecap="square"/>
		<path opacity="0.75" fill="darkturquoise" d="M-129.47531950928996 43.32537282470773 L-138.13557354713436 45.82537282470773 L-138.13557354713436 54.48562686255211 L-129.47531950928996 51.98562686255211 L-129.47531950928996 43.32537282470773" stroke-linecap="square"/>
		<path opacity="0.75" fill="darkturquoise" d="M-124.47531950928996 47.65549984362992 L-133.13557354713436 50.15549984362991 L-133.13557354713436 58.81575388147431 L-124.47531950928996 56.31575388147431 L-124.47531950928996 47.65549984362992" stroke-linecap="square"/>
		<path opacity="0.75" fill="darkturquoise" d="M-129.47531950928996 43.32537282470773 L-124.47531950928996 47.65549984362992 L-133.13557354713436 50.15549984362991 L-138.13557354713436 45.82537282470773 L-129.47531950928996 43.32537282470773" stroke-linecap="square"/>
		<path opacity="0.75" fill="darkturquoise" d="M-129.47531950928996 51.98562686255211 L-124.47531950928996 56.31575388147431 L-133.13557354713436 58.81575388147431 L-138.13557354713436 54.48562686255211 L-129.47531950928996 51.98562686255211" stroke-linecap="square"/>
		<path opacity="0.5" fill="lavender" d="M-147.96598839415685 12.991669750802298 L-123.96598839415685 33.77627944162882 L-123.96598839415685 61.48909236273087 L-147.96598839415685 40.70448267190434 L-147.96598839415685 12.991669750802298" stroke-linecap="square"/>
		<path opacity="0.5" fill="lavender" d="M-156.62624243200125 15.491669750802298 L-132.62624243200125 36.27627944162882 L-132.62624243200125 63.98909236273087 L-156.62624243200125 43.20448267190434 L-156.62624243200125 15.491669750802298" stroke-linecap="square"/>
		<path opacity="0.5" fill="lavender" d="M-147.96598839415685 12.991669750802298 L-156.62624243200125 15.491669750802298 L-156.62624243200125 43.20448267190434 L-147.96598839415685 40.70448267190434 L-147.96598839415685 12.991669750802298" stroke-linecap="square"/>
		<path opacity="0.5" fill="lavender" d="M-123.96598839415685 33.77627944162882 L-132.62624243200125 36.27627944162882 L-132.62624243200125 63.98909236273087 L-123.96598839415685 61.48909236273087 L-123.96598839415685 33.77627944162882" stroke-linecap="square"/>
		<path opacity="0.5" fill="lavender" d="M-147.96598839415685 12.991669750802298 L-123.96598839415685 33.77627944162882 L-132.62624243200125 36.27627944162882 L-156.62624243200125 15.491669750802298 L-147.96598839415685 12.991669750802298" stroke-linecap="square"/>
		<path opacity="0.5" fill="lavender" d="M-147.96598839415685 40.70448267190434 L-123.96598839415685 61.48909236273087 L-132.62624243200125 63.98909236273087 L-156.62624243200125 43.20448267190434 L-147.96598839415685 40.70448267190434" stroke-linecap="square"/>
		<text style="fill:black;font-family:calibri;font-size:6" x="-156.62624243200125" y="29.348076211353316" >32</text>
		<text style="fill:black;font-family:calibri;font-size:6" x="-144.62624243200125" y="53.59678751731761" >48</text>
		<text style="fill:black;font-family:calibri;font-size:6" x="-152.29611541307906" y="14.241669750802298" >10</text>

<!-- Arrow -->
		<path opacity="0.5" stroke="black" d="M-140.29611541307906 24.63397459621556 L-140.29611541307906 -1.3467875173176012" stroke-linecap="square"/>
		<circle opacity="0.5" cx="-140.29611541307906" cy="-1.3467875173176012" r="1" fill="black" />
	 </g>
</svg>