<svg width="100%" height="100%" viewBox="-108.45894683899488 -68.84678751731761 222.91789367798975 116.62177826491072" xmlns="http://www.w3.org/2000/svg">
	<g stroke="black" stroke-width="0.3">

		<path opacity="0.5" fill="orange" d="M92.45894683899488 -51.79422863405995 L108.45894683899488 -37.937822173508934 L108.45894683899488 -10.225009252406892 L92.45894683899488 -24.081415712957906 L92.45894683899488 -51.79422863405995" stroke-linecap="square"/>
		<path opacity="0.5" fill="orange" d="M37.033320996790806 -35.79422863405995 L53.033320996790806 -21.93782217350893 L53.033320996790806 5.774990747593108 L37.033320996790806 -8.081415712957906 L37.033320996790806 -35.79422863405995" stroke-linecap="square"/>
		<path opacity="0.5" fill="orange" d="M92.45894683899488 -51.79422863405995 L37.033320996790806 -35.79422863405995 L37.033320996790806 -8.081415712957906 L92.45894683899488 -24.081415712957906 L92.45894683899488 -51.79422863405995" stroke-linecap="square"/>
		<path opacity="0.5" fill="orange" d="M108.45894683899488 -37.937822173508934 L53.033320996790806 -21.93782217350893 L53.033320996790806 5.774990747593108 L108.45894683899488 -10.225009252406892 L108.45894683899488 -37.937822173508934" stroke-linecap="square"/>
		<path opacity="0.5" fill="orange" d="M92.45894683899488 -51.79422863405995 L108.45894683899488 -37.937822173508934 L53.033320996790806 -21.93782217350893 L37.033320996790806 -35.79422863405995 L92.45894683899488 -51.79422863405995" stroke-linecap="square"/>
		<path opacity="0.5" fill="orange" d="M92.45894683899488 -24.081415712957906 L108.45894683899488 -10.225009252406892 L53.033320996790806 5.774990747593108 L37.033320996790806 -8.081415712957906 L92.45894683899488 -24.081415712957906" stroke-linecap="square"/>
		<text style="fill:black;font-family:calibri;font-size:6" x="37.033320996790806" y="-21.937822173508927" >32</text>
		<text style="fill:black;font-family:calibri;font-size:6" x="45.033320996790806" y="-1.1532124826823988" >32</text>
		<text style="fill:black;font-family:calibri;font-size:6" x="64.74613391789285" y="-43.79422863405995" >64</text>

<!-- Arrow -->
		<path opacity="0.5" stroke="black" d="M72.74613391789285 -36.866025403784434 L72.74613391789285 -62.8467875173176" stroke-linecap="square"/>
		<circle opacity="0.5" cx="72.74613391789285" cy="-62.8467875173176" r="1" fill="black" />
		<path opacity="0.75" fill="pink" d="M-0.6639033967070915 -16.294771826673042 L1.836096603292909 -14.129708317211945 L44.58500685991482 -2.8200568740293974 L-0.6639033967070915 -16.294771826673042"/>
		<path opacity="0.75" fill="pink" d="M-0.6639033967070915 -16.294771826673042 L-0.6639033967070915 -11.964644807750847 L44.58500685991482 -2.8200568740293974 L-0.6639033967070915 -16.294771826673042"/>
		<path opacity="0.75" fill="pink" d="M1.836096603292909 -14.129708317211945 L1.836096603292909 -9.799581298289752 L44.58500685991482 -2.8200568740293974 L1.836096603292909 -14.129708317211945"/>
		<path opacity="0.75" fill="pink" d="M-0.6639033967070915 -11.964644807750847 L1.836096603292909 -9.799581298289752 L44.58500685991482 -2.8200568740293974 L-0.6639033967070915 -11.964644807750847"/>

		<text style="fill:black;font-family:calibri;font-size:6" x="15.25240002216688" y="-14.05741435035122" >[5,5]</text>
		<path opacity="0.75" fill="darkturquoise" d="M-0.6639033967070915 -16.294771826673042 L1.836096603292909 -14.129708317211945 L1.836096603292909 -9.799581298289752 L-0.6639033967070915 -11.964644807750847 L-0.6639033967070915 -16.294771826673042" stroke-linecap="square"/>
		<path opacity="0.75" fill="darkturquoise" d="M-42.23312277836014 -4.294771826673042 L-39.73312277836014 -2.1297083172119446 L-39.73312277836014 2.200418701710248 L-42.23312277836014 0.03535519224915262 L-42.23312277836014 -4.294771826673042" stroke-linecap="square"/>
		<path opacity="0.75" fill="darkturquoise" d="M-0.6639033967070915 -16.294771826673042 L-42.23312277836014 -4.294771826673042 L-42.23312277836014 0.03535519224915262 L-0.6639033967070915 -11.964644807750847 L-0.6639033967070915 -16.294771826673042" stroke-linecap="square"/>
		<path opacity="0.75" fill="darkturquoise" d="M1.836096603292909 -14.129708317211945 L-39.73312277836014 -2.1297083172119446 L-39.73312277836014 2.200418701710248 L1.836096603292909 -9.799581298289752 L1.836096603292909 -14.129708317211945" stroke-linecap="square"/>
		<path opacity="0.75" fill="darkturquoise" d="M-0.6639033967070915 -16.294771826673042 L1.836096603292909 -14.129708317211945 L-39.73312277836014 -2.1297083172119446 L-42.23312277836014 -4.294771826673042 L-0.6639033967070915 -16.294771826673042" stroke-linecap="square"/>
		<path opacity="0.75" fill="darkturquoise" d="M-0.6639033967070915 -11.964644807750847 L1.836096603292909 -9.799581298289752 L-39.73312277836014 2.200418701710248 L-42.23312277836014 0.03535519224915262 L-0.6639033967070915 -11.964644807750847" stroke-linecap="square"/>
		<path opacity="0.5" fill="orange" d="M-6.267949192431125 -23.294228634059948 L9.732050807568879 -9.43782217350893 L9.732050807568879 18.274990747593108 L-6.267949192431125 4.418584287042094 L-6.267949192431125 -23.294228634059948" stroke-linecap="square"/>
		<path opacity="0.5" fill="orange" d="M-47.837168574084174 -11.294228634059946 L-31.837168574084174 2.5621778264910695 L-31.837168574084174 30.274990747593108 L-47.837168574084174 16.418584287042094 L-47.837168574084174 -11.294228634059946" stroke-linecap="square"/>
		<path opacity="0.5" fill="orange" d="M-6.267949192431125 -23.294228634059948 L-47.837168574084174 -11.294228634059946 L-47.837168574084174 16.418584287042094 L-6.267949192431125 4.418584287042094 L-6.267949192431125 -23.294228634059948" stroke-linecap="square"/>
		<path opacity="0.5" fill="orange" d="M9.732050807568879 -9.43782217350893 L-31.837168574084174 2.5621778264910695 L-31.837168574084174 30.274990747593108 L9.732050807568879 18.274990747593108 L9.732050807568879 -9.43782217350893" stroke-linecap="square"/>
		<path opacity="0.5" fill="orange" d="M-6.267949192431125 -23.294228634059948 L9.732050807568879 -9.43782217350893 L-31.837168574084174 2.5621778264910695 L-47.837168574084174 -11.294228634059946 L-6.267949192431125 -23.294228634059948" stroke-linecap="square"/>
		<path opacity="0.5" fill="orange" d="M-6.267949192431125 4.418584287042094 L9.732050807568879 18.274990747593108 L-31.837168574084174 30.274990747593108 L-47.837168574084174 16.418584287042094 L-6.267949192431125 4.418584287042094" stroke-linecap="square"/>
		<text style="fill:black;font-family:calibri;font-size:6" x="-47.837168574084174" y="2.562177826491074" >32</text>
		<text style="fill:black;font-family:calibri;font-size:6" x="-39.837168574084174" y="23.3467875173176" >32</text>
		<text style="fill:black;font-family:calibri;font-size:6" x="-27.05255888325765" y="-17.294228634059948" >48</text>

<!-- Arrow -->
		<path opacity="0.5" stroke="black" d="M-91.7986928011505 -15.346787517317601 L72.74613391789285 -62.8467875173176" stroke-linecap="square"/>
		<circle opacity="0.5" cx="72.74613391789285" cy="-62.8467875173176" r="1" fill="black" />
		<path opacity="0.75" fill="pink" d="M-82.94243073314252 20.060036193761903 L-77.94243073314252 24.390163212684087 L-45.765094520282645 1.1404952851191723 L-82.94243073314252 20.060036193761903"/>
		<path opacity="0.75" fill="pink" d="M-82.94243073314252 20.060036193761903 L-82.94243073314252 28.720290231606285 L-45.765094520282645 1.1404952851191723 L-82.94243073314252 20.060036193761903"/>
		<path opacity="0.75" fill="pink" d="M-77.94243073314252 24.390163212684087 L-77.94243073314252 33.05041725052848 L-45.765094520282645 1.1404952851191723 L-77.94243073314252 24.390163212684087"/>
		<path opacity="0.75" fill="pink" d="M-82.94243073314252 28.720290231606285 L-77.94243073314252 33.05041725052848 L-45.765094520282645 1.1404952851191723 L-82.94243073314252 28.720290231606285"/>

		<text style="fill:black;font-family:calibri;font-size:6" x="-68.88331866218923" y="6.1002657394405375" >[10,10]</text>
		<path opacity="0.75" fill="darkturquoise" d="M-82.94243073314252 20.060036193761903 L-77.94243073314252 24.390163212684087 L-77.94243073314252 33.05041725052848 L-82.94243073314252 28.720290231606285 L-82.94243073314252 20.060036193761903" stroke-linecap="square"/>
		<path opacity="0.75" fill="darkturquoise" d="M-100.26293880883128 25.060036193761903 L-95.26293880883128 29.390163212684087 L-95.26293880883128 38.05041725052848 L-100.26293880883128 33.720290231606285 L-100.26293880883128 25.060036193761903" stroke-linecap="square"/>
		<path opacity="0.75" fill="darkturquoise" d="M-82.94243073314252 20.060036193761903 L-100.26293880883128 25.060036193761903 L-100.26293880883128 33.720290231606285 L-82.94243073314252 28.720290231606285 L-82.94243073314252 20.060036193761903" stroke-linecap="square"/>
		<path opacity="0.75" fill="darkturquoise" d="M-77.94243073314252 24.390163212684087 L-95.26293880883128 29.390163212684087 L-95.26293880883128 38.05041725052848 L-77.94243073314252 33.05041725052848 L-77.94243073314252 24.390163212684087" stroke-linecap="square"/>
		<path opacity="0.75" fill="darkturquoise" d="M-82.94243073314252 20.060036193761903 L-77.94243073314252 24.390163212684087 L-95.26293880883128 29.390163212684087 L-100.26293880883128 25.060036193761903 L-82.94243073314252 20.060036193761903" stroke-linecap="square"/>
		<path opacity="0.75" fill="darkturquoise" d="M-82.94243073314252 28.720290231606285 L-77.94243073314252 33.05041725052848 L-95.26293880883128 38.05041725052848 L-100.26293880883128 33.720290231606285 L-82.94243073314252 28.720290231606285" stroke-linecap="square"/>
		<path opacity="0.5" fill="lavender" d="M-91.13843876330611 1.205771365940052 L-75.13843876330611 15.06217782649107 L-75.13843876330611 42.77499074759311 L-91.13843876330611 28.918584287042094 L-91.13843876330611 1.205771365940052" stroke-linecap="square"/>
		<path opacity="0.5" fill="lavender" d="M-108.45894683899488 6.205771365940052 L-92.45894683899488 20.062177826491066 L-92.45894683899488 47.77499074759311 L-108.45894683899488 33.918584287042094 L-108.45894683899488 6.205771365940052" stroke-linecap="square"/>
		<path opacity="0.5" fill="lavender" d="M-91.13843876330611 1.205771365940052 L-108.45894683899488 6.205771365940052 L-108.45894683899488 33.918584287042094 L-91.13843876330611 28.918584287042094 L-91.13843876330611 1.205771365940052" stroke-linecap="square"/>
		<path opacity="0.5" fill="lavender" d="M-75.13843876330611 15.06217782649107 L-92.45894683899488 20.062177826491066 L-92.45894683899488 47.77499074759311 L-75.13843876330611 42.77499074759311 L-75.13843876330611 15.06217782649107" stroke-linecap="square"/>
		<path opacity="0.5" fill="lavender" d="M-91.13843876330611 1.205771365940052 L-75.13843876330611 15.06217782649107 L-92.45894683899488 20.062177826491066 L-108.45894683899488 6.205771365940052 L-91.13843876330611 1.205771365940052" stroke-linecap="square"/>
		<path opacity="0.5" fill="lavender" d="M-91.13843876330611 28.918584287042094 L-75.13843876330611 42.77499074759311 L-92.45894683899488 47.77499074759311 L-108.45894683899488 33.918584287042094 L-91.13843876330611 28.918584287042094" stroke-linecap="square"/>
		<text style="fill:black;font-family:calibri;font-size:6" x="-108.45894683899488" y="20.062177826491073" >32</text>
		<text style="fill:black;font-family:calibri;font-size:6" x="-100.45894683899488" y="40.8467875173176" >32</text>
		<text style="fill:black;font-family:calibri;font-size:6" x="-99.7986928011505" y="3.705771365940052" >20</text>

<!-- Arrow -->
		<path opacity="0.5" stroke="black" d="M-91.7986928011505 10.633974596215563 L-91.7986928011505 -15.346787517317601" stroke-linecap="square"/>
		<circle opacity="0.5" cx="-91.7986928011505" cy="-15.346787517317601" r="1" fill="black" />
	 </g>
</svg>