<svg width="100%" height="100%" viewBox="-320.8409421321224 -226.0688740771269 634.1818842642448 355.63809345877996" xmlns="http://www.w3.org/2000/svg">
	<g stroke="black" stroke-width="0.3">

		<path opacity="0.75" fill="darkturquoise" d="M302.3409421321224 -220.0688740771269 L307.3409421321224 -215.7387470582047 L307.3409421321224 44.06887407712691 L302.3409421321224 39.73874705820471 L302.3409421321224 -220.0688740771269"/>
		<path opacity="0.75" fill="darkturquoise" d="M293.680688094278 -217.5688740771269 L298.680688094278 -213.2387470582047 L298.680688094278 46.56887407712691 L293.680688094278 42.23874705820471 L293.680688094278 -217.5688740771269"/>
		<path opacity="0.75" fill="darkturquoise" d="M302.3409421321224 -220.0688740771269 L293.680688094278 -217.5688740771269 L293.680688094278 42.23874705820471 L302.3409421321224 39.73874705820471 L302.3409421321224 -220.0688740771269"/>
		<path opacity="0.75" fill="darkturquoise" d="M307.3409421321224 -215.7387470582047 L298.680688094278 -213.2387470582047 L298.680688094278 46.56887407712691 L307.3409421321224 44.06887407712691 L307.3409421321224 -215.7387470582047"/>
		<path opacity="0.75" fill="darkturquoise" d="M302.3409421321224 -220.0688740771269 L307.3409421321224 -215.7387470582047 L298.680688094278 -213.2387470582047 L293.680688094278 -217.5688740771269 L302.3409421321224 -220.0688740771269"/>
		<path opacity="0.75" fill="darkturquoise" d="M302.3409421321224 39.73874705820471 L307.3409421321224 44.06887407712691 L298.680688094278 46.56887407712691 L293.680688094278 42.23874705820471 L302.3409421321224 39.73874705820471"/>
		<text style="fill:black;font-family:calibri;font-size:6" x="293.680688094278" y="-87.6650635094611" >300</text>
		<text style="fill:black;font-family:calibri;font-size:6" x="296.180688094278" y="44.40381056766581" >10</text>
		<text style="fill:black;font-family:calibri;font-size:6" x="298.01081511320024" y="-218.8188740771269" >10</text>

<!-- Arrow -->
		<path opacity="0.5" stroke="black" d="M252.87941790505607 -73.0 L296.180688094278 -85.5"/>
		<circle opacity="0.5" cx="296.180688094278" cy="-85.5" r="1" fill="black" />
		<path opacity="0.75" fill="darkturquoise" d="M250.37941790505607 -161.76760388790495 L255.37941790505607 -157.4374768689828 L255.37941790505607 15.767603887904968 L250.37941790505607 11.437476868982785 L250.37941790505607 -161.76760388790495"/>
		<path opacity="0.75" fill="darkturquoise" d="M241.71916386721168 -159.26760388790495 L246.71916386721168 -154.9374768689828 L246.71916386721168 18.26760388790497 L241.71916386721168 13.937476868982785 L241.71916386721168 -159.26760388790495"/>
		<path opacity="0.75" fill="darkturquoise" d="M250.37941790505607 -161.76760388790495 L241.71916386721168 -159.26760388790495 L241.71916386721168 13.937476868982785 L250.37941790505607 11.437476868982785 L250.37941790505607 -161.76760388790495"/>
		<path opacity="0.75" fill="darkturquoise" d="M255.37941790505607 -157.4374768689828 L246.71916386721168 -154.9374768689828 L246.71916386721168 18.26760388790497 L255.37941790505607 15.767603887904968 L255.37941790505607 -157.4374768689828"/>
		<path opacity="0.75" fill="darkturquoise" d="M250.37941790505607 -161.76760388790495 L255.37941790505607 -157.4374768689828 L246.71916386721168 -154.9374768689828 L241.71916386721168 -159.26760388790495 L250.37941790505607 -161.76760388790495"/>
		<path opacity="0.75" fill="darkturquoise" d="M250.37941790505607 11.437476868982785 L255.37941790505607 15.767603887904968 L246.71916386721168 18.26760388790497 L241.71916386721168 13.937476868982785 L250.37941790505607 11.437476868982785"/>
		<text style="fill:black;font-family:calibri;font-size:6" x="241.71916386721168" y="-72.66506350946108" >200</text>
		<text style="fill:black;font-family:calibri;font-size:6" x="244.21916386721168" y="16.102540378443877" >10</text>
		<text style="fill:black;font-family:calibri;font-size:6" x="246.04929088613386" y="-160.51760388790495" >10</text>

		<path opacity="0.75" fill="darkturquoise" d="M250.37941790505607 -161.76760388790495 L255.37941790505607 -157.4374768689828 L255.37941790505607 15.767603887904968 L250.37941790505607 11.437476868982785 L250.37941790505607 -161.76760388790495"/>
		<path opacity="0.75" fill="darkturquoise" d="M241.71916386721168 -159.26760388790495 L246.71916386721168 -154.9374768689828 L246.71916386721168 18.26760388790497 L241.71916386721168 13.937476868982785 L241.71916386721168 -159.26760388790495"/>
		<path opacity="0.75" fill="darkturquoise" d="M250.37941790505607 -161.76760388790495 L241.71916386721168 -159.26760388790495 L241.71916386721168 13.937476868982785 L250.37941790505607 11.437476868982785 L250.37941790505607 -161.76760388790495"/>
		<path opacity="0.75" fill="darkturquoise" d="M255.37941790505607 -157.4374768689828 L246.71916386721168 -154.9374768689828 L246.71916386721168 18.26760388790497 L255.37941790505607 15.767603887904968 L255.37941790505607 -157.4374768689828"/>
		<path opacity="0.75" fill="darkturquoise" d="M250.37941790505607 -161.76760388790495 L255.37941790505607 -157.4374768689828 L246.71916386721168 -154.9374768689828 L241.71916386721168 -159.26760388790495 L250.37941790505607 -161.76760388790495"/>
		<path opacity="0.75" fill="darkturquoise" d="M250.37941790505607 11.437476868982785 L255.37941790505607 15.767603887904968 L246.71916386721168 18.26760388790497 L241.71916386721168 13.937476868982785 L250.37941790505607 11.437476868982785"/>
		<text style="fill:black;font-family:calibri;font-size:6" x="241.71916386721168" y="-72.66506350946108" >200</text>
		<text style="fill:black;font-family:calibri;font-size:6" x="244.21916386721168" y="16.102540378443877" >10</text>
		<text style="fill:black;font-family:calibri;font-size:6" x="246.04929088613386" y="-160.51760388790495" >10</text>

<!-- Arrow -->
		<path opacity="0.5" stroke="black" d="M200.91789367798975 -58.0 L244.21916386721168 -70.5"/>
		<circle opacity="0.5" cx="244.21916386721168" cy="-70.5" r="1" fill="black" />
		<path opacity="0.5" fill="orange" d="M184.91789367798975 -99.56921938165306 L216.91789367798975 -71.85640646055103 L216.91789367798975 -16.430780618346944 L184.91789367798975 -44.14359353944898 L184.91789367798975 -99.56921938165306"/>
		<path opacity="0.5" fill="orange" d="M127.7602170282168 -83.06921938165306 L159.7602170282168 -55.35640646055102 L159.7602170282168 0.06921938165305619 L127.7602170282168 -27.64359353944898 L127.7602170282168 -83.06921938165306"/>
		<path opacity="0.5" fill="orange" d="M184.91789367798975 -99.56921938165306 L127.7602170282168 -83.06921938165306 L127.7602170282168 -27.64359353944898 L184.91789367798975 -44.14359353944898 L184.91789367798975 -99.56921938165306"/>
		<path opacity="0.5" fill="orange" d="M216.91789367798975 -71.85640646055103 L159.7602170282168 -55.35640646055102 L159.7602170282168 0.06921938165305619 L216.91789367798975 -16.430780618346944 L216.91789367798975 -71.85640646055103"/>
		<path opacity="0.5" fill="orange" d="M184.91789367798975 -99.56921938165306 L216.91789367798975 -71.85640646055103 L159.7602170282168 -55.35640646055102 L127.7602170282168 -83.06921938165306 L184.91789367798975 -99.56921938165306"/>
		<path opacity="0.5" fill="orange" d="M184.91789367798975 -44.14359353944898 L216.91789367798975 -16.430780618346944 L159.7602170282168 0.06921938165305619 L127.7602170282168 -27.64359353944898 L184.91789367798975 -44.14359353944898"/>
		<text style="fill:black;font-family:calibri;font-size:6" x="127.7602170282168" y="-55.356406460551014" >64</text>
		<text style="fill:black;font-family:calibri;font-size:6" x="143.7602170282168" y="-13.787187078897961" >64</text>
		<text style="fill:black;font-family:calibri;font-size:6" x="156.33905535310328" y="-91.31921938165306" >66</text>

		<path opacity="0.75" fill="pink" d="M93.67894303728522 -41.23807112931298 L96.17894303728522 -39.07300761985188 L131.4673403723315 -50.22357296321263 L93.67894303728522 -41.23807112931298"/>
		<path opacity="0.75" fill="pink" d="M93.67894303728522 -41.23807112931298 L93.67894303728522 -36.90794411039079 L131.4673403723315 -50.22357296321263 L93.67894303728522 -41.23807112931298"/>
		<path opacity="0.75" fill="pink" d="M96.17894303728522 -39.07300761985188 L96.17894303728522 -34.74288060092969 L131.4673403723315 -50.22357296321263 L96.17894303728522 -39.07300761985188"/>
		<path opacity="0.75" fill="pink" d="M93.67894303728522 -36.90794411039079 L96.17894303728522 -34.74288060092969 L131.4673403723315 -50.22357296321263 L93.67894303728522 -36.90794411039079"/>

		<text style="fill:black;font-family:calibri;font-size:6" x="107.108408815634" y="-50.2308220462628" >[5,5]</text>
		<path opacity="0.75" fill="darkturquoise" d="M93.67894303728522 -41.23807112931298 L96.17894303728522 -39.07300761985188 L96.17894303728522 -34.74288060092969 L93.67894303728522 -36.90794411039079 L93.67894303728522 -41.23807112931298"/>
		<path opacity="0.75" fill="darkturquoise" d="M45.18152042535665 -27.238071129312978 L47.68152042535665 -25.073007619851882 L47.68152042535665 -20.742880600929688 L45.18152042535665 -22.907944110390787 L45.18152042535665 -27.238071129312978"/>
		<path opacity="0.75" fill="darkturquoise" d="M93.67894303728522 -41.23807112931298 L45.18152042535665 -27.238071129312978 L45.18152042535665 -22.907944110390787 L93.67894303728522 -36.90794411039079 L93.67894303728522 -41.23807112931298"/>
		<path opacity="0.75" fill="darkturquoise" d="M96.17894303728522 -39.07300761985188 L47.68152042535665 -25.073007619851882 L47.68152042535665 -20.742880600929688 L96.17894303728522 -34.74288060092969 L96.17894303728522 -39.07300761985188"/>
		<path opacity="0.75" fill="darkturquoise" d="M93.67894303728522 -41.23807112931298 L96.17894303728522 -39.07300761985188 L47.68152042535665 -25.073007619851882 L45.18152042535665 -27.238071129312978 L93.67894303728522 -41.23807112931298"/>
		<path opacity="0.75" fill="darkturquoise" d="M93.67894303728522 -36.90794411039079 L96.17894303728522 -34.74288060092969 L47.68152042535665 -20.742880600929688 L45.18152042535665 -22.907944110390787 L93.67894303728522 -36.90794411039079"/>
		<path opacity="0.5" fill="orange" d="M92.45894683899488 -49.78460969082653 L108.45894683899488 -35.928203230275514 L108.45894683899488 -8.215390309173472 L92.45894683899488 -22.07179676972449 L92.45894683899488 -49.78460969082653"/>
		<path opacity="0.5" fill="orange" d="M43.96152422706631 -35.78460969082653 L59.96152422706631 -21.92820323027551 L59.96152422706631 5.784609690826528 L43.96152422706631 -8.07179676972449 L43.96152422706631 -35.78460969082653"/>
		<path opacity="0.5" fill="orange" d="M92.45894683899488 -49.78460969082653 L43.96152422706631 -35.78460969082653 L43.96152422706631 -8.07179676972449 L92.45894683899488 -22.07179676972449 L92.45894683899488 -49.78460969082653"/>
		<path opacity="0.5" fill="orange" d="M108.45894683899488 -35.928203230275514 L59.96152422706631 -21.92820323027551 L59.96152422706631 5.784609690826528 L108.45894683899488 -8.215390309173472 L108.45894683899488 -35.928203230275514"/>
		<path opacity="0.5" fill="orange" d="M92.45894683899488 -49.78460969082653 L108.45894683899488 -35.928203230275514 L59.96152422706631 -21.92820323027551 L43.96152422706631 -35.78460969082653 L92.45894683899488 -49.78460969082653"/>
		<path opacity="0.5" fill="orange" d="M92.45894683899488 -22.07179676972449 L108.45894683899488 -8.215390309173472 L59.96152422706631 5.784609690826528 L43.96152422706631 -8.07179676972449 L92.45894683899488 -22.07179676972449"/>
		<text style="fill:black;font-family:calibri;font-size:6" x="43.96152422706631" y="-21.928203230275507" >32</text>
		<text style="fill:black;font-family:calibri;font-size:6" x="51.96152422706631" y="-1.1435935394489807" >32</text>
		<text style="fill:black;font-family:calibri;font-size:6" x="68.2102355330306" y="-42.78460969082653" >56</text>

		<path opacity="0.75" fill="pink" d="M8.288773469830566 -5.393540150796312 L10.788773469830566 -3.2284766413352157 L51.95032280446662 -6.95832064663464 L8.288773469830566 -5.393540150796312"/>
		<path opacity="0.75" fill="pink" d="M8.288773469830566 -5.393540150796312 L8.288773469830566 -1.0634131318741185 L51.95032280446662 -6.95832064663464 L8.288773469830566 -5.393540150796312"/>
		<path opacity="0.75" fill="pink" d="M10.788773469830566 -3.2284766413352157 L10.788773469830566 1.101650377586978 L51.95032280446662 -6.95832064663464 L10.788773469830566 -3.2284766413352157"/>
		<path opacity="0.75" fill="pink" d="M8.288773469830566 -1.0634131318741185 L10.788773469830566 1.101650377586978 L51.95032280446662 -6.95832064663464 L8.288773469830566 -1.0634131318741185"/>

		<text style="fill:black;font-family:calibri;font-size:6" x="23.675956581375917" y="-10.675930398715476" >[5,5]</text>
		<path opacity="0.75" fill="darkturquoise" d="M8.288773469830566 -5.393540150796312 L10.788773469830566 -3.2284766413352157 L10.788773469830566 1.101650377586978 L8.288773469830566 -1.0634131318741185 L8.288773469830566 -5.393540150796312"/>
		<path opacity="0.75" fill="darkturquoise" d="M-33.28044591182248 6.606459849203688 L-30.780445911822486 8.771523358664783 L-30.780445911822486 13.101650377586978 L-33.28044591182248 10.936586868125882 L-33.28044591182248 6.606459849203688"/>
		<path opacity="0.75" fill="darkturquoise" d="M8.288773469830566 -5.393540150796312 L-33.28044591182248 6.606459849203688 L-33.28044591182248 10.936586868125882 L8.288773469830566 -1.0634131318741185 L8.288773469830566 -5.393540150796312"/>
		<path opacity="0.75" fill="darkturquoise" d="M10.788773469830566 -3.2284766413352157 L-30.780445911822486 8.771523358664783 L-30.780445911822486 13.101650377586978 L10.788773469830566 1.101650377586978 L10.788773469830566 -3.2284766413352157"/>
		<path opacity="0.75" fill="darkturquoise" d="M8.288773469830566 -5.393540150796312 L10.788773469830566 -3.2284766413352157 L-30.780445911822486 8.771523358664783 L-33.28044591182248 6.606459849203688 L8.288773469830566 -5.393540150796312"/>
		<path opacity="0.75" fill="darkturquoise" d="M8.288773469830566 -1.0634131318741185 L10.788773469830566 1.101650377586978 L-30.780445911822486 13.101650377586978 L-33.28044591182248 10.936586868125882 L8.288773469830566 -1.0634131318741185"/>
		<path opacity="0.5" fill="orange" d="M4.660254037844385 -12.892304845413264 L12.660254037844386 -5.964101615137755 L12.660254037844386 7.892304845413264 L4.660254037844385 0.9641016151377557 L4.660254037844385 -12.892304845413264"/>
		<path opacity="0.5" fill="orange" d="M-36.90896534380867 -0.892304845413264 L-28.908965343808667 6.035898384862245 L-28.908965343808667 19.892304845413264 L-36.90896534380867 12.964101615137755 L-36.90896534380867 -0.892304845413264"/>
		<path opacity="0.5" fill="orange" d="M4.660254037844385 -12.892304845413264 L-36.90896534380867 -0.892304845413264 L-36.90896534380867 12.964101615137755 L4.660254037844385 0.9641016151377557 L4.660254037844385 -12.892304845413264"/>
		<path opacity="0.5" fill="orange" d="M12.660254037844386 -5.964101615137755 L-28.908965343808667 6.035898384862245 L-28.908965343808667 19.892304845413264 L12.660254037844386 7.892304845413264 L12.660254037844386 -5.964101615137755"/>
		<path opacity="0.5" fill="orange" d="M4.660254037844385 -12.892304845413264 L12.660254037844386 -5.964101615137755 L-28.908965343808667 6.035898384862245 L-36.90896534380867 -0.892304845413264 L4.660254037844385 -12.892304845413264"/>
		<path opacity="0.5" fill="orange" d="M4.660254037844385 0.9641016151377557 L12.660254037844386 7.892304845413264 L-28.908965343808667 19.892304845413264 L-36.90896534380867 12.964101615137755 L4.660254037844385 0.9641016151377557"/>
		<text style="fill:black;font-family:calibri;font-size:6" x="-36.90896534380867" y="6.035898384862246" >16</text>
		<text style="fill:black;font-family:calibri;font-size:6" x="-32.90896534380867" y="16.42820323027551" >16</text>
		<text style="fill:black;font-family:calibri;font-size:6" x="-16.124355652982143" y="-6.892304845413264" >48</text>

		<path opacity="0.75" fill="pink" d="M-78.0836127769069 19.080446032540564 L-75.5836127769069 21.24550954200166 L-35.864064749127806 0.04144638836866221 L-78.0836127769069 19.080446032540564"/>
		<path opacity="0.75" fill="pink" d="M-78.0836127769069 19.080446032540564 L-78.0836127769069 23.410573051462755 L-35.864064749127806 0.04144638836866221 L-78.0836127769069 19.080446032540564"/>
		<path opacity="0.75" fill="pink" d="M-75.5836127769069 21.24550954200166 L-75.5836127769069 25.575636560923854 L-35.864064749127806 0.04144638836866221 L-75.5836127769069 21.24550954200166"/>
		<path opacity="0.75" fill="pink" d="M-78.0836127769069 23.410573051462755 L-75.5836127769069 25.575636560923854 L-35.864064749127806 0.04144638836866221 L-78.0836127769069 23.410573051462755"/>

		<text style="fill:black;font-family:calibri;font-size:6" x="-63.17709676764721" y="5.060946210454613" >[5,5]</text>
		<path opacity="0.75" fill="darkturquoise" d="M-78.0836127769069 19.080446032540564 L-75.5836127769069 21.24550954200166 L-75.5836127769069 25.575636560923854 L-78.0836127769069 23.410573051462755 L-78.0836127769069 19.080446032540564"/>
		<path opacity="0.75" fill="darkturquoise" d="M-119.65283215855996 31.080446032540564 L-117.15283215855996 33.245509542001656 L-117.15283215855996 37.575636560923854 L-119.65283215855996 35.410573051462755 L-119.65283215855996 31.080446032540564"/>
		<path opacity="0.75" fill="darkturquoise" d="M-78.0836127769069 19.080446032540564 L-119.65283215855996 31.080446032540564 L-119.65283215855996 35.410573051462755 L-78.0836127769069 23.410573051462755 L-78.0836127769069 19.080446032540564"/>
		<path opacity="0.75" fill="darkturquoise" d="M-75.5836127769069 21.24550954200166 L-117.15283215855996 33.245509542001656 L-117.15283215855996 37.575636560923854 L-75.5836127769069 25.575636560923854 L-75.5836127769069 21.24550954200166"/>
		<path opacity="0.75" fill="darkturquoise" d="M-78.0836127769069 19.080446032540564 L-75.5836127769069 21.24550954200166 L-117.15283215855996 33.245509542001656 L-119.65283215855996 31.080446032540564 L-78.0836127769069 19.080446032540564"/>
		<path opacity="0.75" fill="darkturquoise" d="M-78.0836127769069 23.410573051462755 L-75.5836127769069 25.575636560923854 L-117.15283215855996 37.575636560923854 L-119.65283215855996 35.410573051462755 L-78.0836127769069 23.410573051462755"/>
		<path opacity="0.5" fill="orange" d="M-78.2102355330306 16.803847577293368 L-74.2102355330306 20.26794919243112 L-74.2102355330306 27.196152422706632 L-78.2102355330306 23.73205080756888 L-78.2102355330306 16.803847577293368"/>
		<path opacity="0.5" fill="orange" d="M-119.77945491468365 28.803847577293368 L-115.77945491468365 32.267949192431125 L-115.77945491468365 39.19615242270663 L-119.77945491468365 35.732050807568875 L-119.77945491468365 28.803847577293368"/>
		<path opacity="0.5" fill="orange" d="M-78.2102355330306 16.803847577293368 L-119.77945491468365 28.803847577293368 L-119.77945491468365 35.732050807568875 L-78.2102355330306 23.73205080756888 L-78.2102355330306 16.803847577293368"/>
		<path opacity="0.5" fill="orange" d="M-74.2102355330306 20.26794919243112 L-115.77945491468365 32.267949192431125 L-115.77945491468365 39.19615242270663 L-74.2102355330306 27.196152422706632 L-74.2102355330306 20.26794919243112"/>
		<path opacity="0.5" fill="orange" d="M-78.2102355330306 16.803847577293368 L-74.2102355330306 20.26794919243112 L-115.77945491468365 32.267949192431125 L-119.77945491468365 28.803847577293368 L-78.2102355330306 16.803847577293368"/>
		<path opacity="0.5" fill="orange" d="M-78.2102355330306 23.73205080756888 L-74.2102355330306 27.196152422706632 L-115.77945491468365 39.19615242270663 L-119.77945491468365 35.732050807568875 L-78.2102355330306 23.73205080756888"/>
		<text style="fill:black;font-family:calibri;font-size:6" x="-119.77945491468365" y="32.26794919243112" >8</text>
		<text style="fill:black;font-family:calibri;font-size:6" x="-117.77945491468365" y="37.46410161513775" >8</text>
		<text style="fill:black;font-family:calibri;font-size:6" x="-98.99484522385713" y="22.803847577293368" >48</text>

		<path opacity="0.75" fill="pink" d="M-163.9194657646783 43.987232419404464 L-161.4194657646783 46.15229592886556 L-116.12633934279155 33.09568460229533 L-163.9194657646783 43.987232419404464"/>
		<path opacity="0.75" fill="pink" d="M-163.9194657646783 43.987232419404464 L-163.9194657646783 48.31735943832666 L-116.12633934279155 33.09568460229533 L-163.9194657646783 43.987232419404464"/>
		<path opacity="0.75" fill="pink" d="M-161.4194657646783 46.15229592886556 L-161.4194657646783 50.482422947787754 L-116.12633934279155 33.09568460229533 L-161.4194657646783 46.15229592886556"/>
		<path opacity="0.75" fill="pink" d="M-163.9194657646783 48.31735943832666 L-161.4194657646783 50.482422947787754 L-116.12633934279155 33.09568460229533 L-163.9194657646783 48.31735943832666"/>

		<text style="fill:black;font-family:calibri;font-size:6" x="-147.15509029071606" y="34.04145851084989" >[5,5]</text>
		<path opacity="0.75" fill="darkturquoise" d="M-163.9194657646783 43.987232419404464 L-161.4194657646783 46.15229592886556 L-161.4194657646783 50.482422947787754 L-163.9194657646783 48.31735943832666 L-163.9194657646783 43.987232419404464"/>
		<path opacity="0.75" fill="darkturquoise" d="M-191.63227868578034 51.987232419404464 L-189.13227868578034 54.15229592886556 L-189.13227868578034 58.482422947787754 L-191.63227868578034 56.31735943832666 L-191.63227868578034 51.987232419404464"/>
		<path opacity="0.75" fill="darkturquoise" d="M-163.9194657646783 43.987232419404464 L-191.63227868578034 51.987232419404464 L-191.63227868578034 56.31735943832666 L-163.9194657646783 48.31735943832666 L-163.9194657646783 43.987232419404464"/>
		<path opacity="0.75" fill="darkturquoise" d="M-161.4194657646783 46.15229592886556 L-189.13227868578034 54.15229592886556 L-189.13227868578034 58.482422947787754 L-161.4194657646783 50.482422947787754 L-161.4194657646783 46.15229592886556"/>
		<path opacity="0.75" fill="darkturquoise" d="M-163.9194657646783 43.987232419404464 L-161.4194657646783 46.15229592886556 L-189.13227868578034 54.15229592886556 L-191.63227868578034 51.987232419404464 L-163.9194657646783 43.987232419404464"/>
		<path opacity="0.75" fill="darkturquoise" d="M-163.9194657646783 48.31735943832666 L-161.4194657646783 50.482422947787754 L-189.13227868578034 58.482422947787754 L-191.63227868578034 56.31735943832666 L-163.9194657646783 48.31735943832666"/>
		<path opacity="0.5" fill="orange" d="M-165.0807251039056 36.107695154586736 L-157.0807251039056 43.03589838486224 L-157.0807251039056 56.892304845413264 L-165.0807251039056 49.96410161513776 L-165.0807251039056 36.107695154586736"/>
		<path opacity="0.5" fill="orange" d="M-192.79353802500762 44.107695154586736 L-184.79353802500762 51.03589838486224 L-184.79353802500762 64.89230484541326 L-192.79353802500762 57.96410161513776 L-192.79353802500762 44.107695154586736"/>
		<path opacity="0.5" fill="orange" d="M-165.0807251039056 36.107695154586736 L-192.79353802500762 44.107695154586736 L-192.79353802500762 57.96410161513776 L-165.0807251039056 49.96410161513776 L-165.0807251039056 36.107695154586736"/>
		<path opacity="0.5" fill="orange" d="M-157.0807251039056 43.03589838486224 L-184.79353802500762 51.03589838486224 L-184.79353802500762 64.89230484541326 L-157.0807251039056 56.892304845413264 L-157.0807251039056 43.03589838486224"/>
		<path opacity="0.5" fill="orange" d="M-165.0807251039056 36.107695154586736 L-157.0807251039056 43.03589838486224 L-184.79353802500762 51.03589838486224 L-192.79353802500762 44.107695154586736 L-165.0807251039056 36.107695154586736"/>
		<path opacity="0.5" fill="orange" d="M-165.0807251039056 49.96410161513776 L-157.0807251039056 56.892304845413264 L-184.79353802500762 64.89230484541326 L-192.79353802500762 57.96410161513776 L-165.0807251039056 49.96410161513776"/>
		<text style="fill:black;font-family:calibri;font-size:6" x="-192.79353802500762" y="51.03589838486225" >16</text>
		<text style="fill:black;font-family:calibri;font-size:6" x="-188.79353802500762" y="61.428203230275514" >16</text>
		<text style="fill:black;font-family:calibri;font-size:6" x="-178.9371315644566" y="40.107695154586736" >32</text>

		<path opacity="0.75" fill="pink" d="M-235.48342824125572 51.43684030942686 L-232.98342824125572 53.60190381888796 L-188.99588352586798 54.38977913227848 L-235.48342824125572 51.43684030942686"/>
		<path opacity="0.75" fill="pink" d="M-235.48342824125572 51.43684030942686 L-235.48342824125572 55.766967328349054 L-188.99588352586798 54.38977913227848 L-235.48342824125572 51.43684030942686"/>
		<path opacity="0.75" fill="pink" d="M-232.98342824125572 53.60190381888796 L-232.98342824125572 57.93203083781015 L-188.99588352586798 54.38977913227848 L-232.98342824125572 53.60190381888796"/>
		<path opacity="0.75" fill="pink" d="M-235.48342824125572 55.766967328349054 L-232.98342824125572 57.93203083781015 L-188.99588352586798 54.38977913227848 L-235.48342824125572 55.766967328349054"/>

		<text style="fill:black;font-family:calibri;font-size:6" x="-219.1542466694598" y="48.413309720852666" >[5,5]</text>
		<path opacity="0.75" fill="darkturquoise" d="M-235.48342824125572 51.43684030942686 L-232.98342824125572 53.60190381888796 L-232.98342824125572 57.93203083781015 L-235.48342824125572 55.766967328349054 L-235.48342824125572 51.43684030942686"/>
		<path opacity="0.75" fill="darkturquoise" d="M-256.2680379320823 57.43684030942686 L-253.76803793208225 59.60190381888796 L-253.76803793208225 63.93203083781015 L-256.2680379320823 61.766967328349054 L-256.2680379320823 57.43684030942686"/>
		<path opacity="0.75" fill="darkturquoise" d="M-235.48342824125572 51.43684030942686 L-256.2680379320823 57.43684030942686 L-256.2680379320823 61.766967328349054 L-235.48342824125572 55.766967328349054 L-235.48342824125572 51.43684030942686"/>
		<path opacity="0.75" fill="darkturquoise" d="M-232.98342824125572 53.60190381888796 L-253.76803793208225 59.60190381888796 L-253.76803793208225 63.93203083781015 L-232.98342824125572 57.93203083781015 L-232.98342824125572 53.60190381888796"/>
		<path opacity="0.75" fill="darkturquoise" d="M-235.48342824125572 51.43684030942686 L-232.98342824125572 53.60190381888796 L-253.76803793208225 59.60190381888796 L-256.2680379320823 57.43684030942686 L-235.48342824125572 51.43684030942686"/>
		<path opacity="0.75" fill="darkturquoise" d="M-235.48342824125572 55.766967328349054 L-232.98342824125572 57.93203083781015 L-253.76803793208225 63.93203083781015 L-256.2680379320823 61.766967328349054 L-235.48342824125572 55.766967328349054"/>
		<path opacity="0.5" fill="orange" d="M-240.09480821422954 46.21539030917347 L-224.09480821422954 60.071796769724486 L-224.09480821422954 87.78460969082653 L-240.09480821422954 73.92820323027551 L-240.09480821422954 46.21539030917347"/>
		<path opacity="0.5" fill="orange" d="M-260.8794179050561 52.21539030917347 L-244.87941790505607 66.07179676972449 L-244.87941790505607 93.78460969082653 L-260.8794179050561 79.92820323027551 L-260.8794179050561 52.21539030917347"/>
		<path opacity="0.5" fill="orange" d="M-240.09480821422954 46.21539030917347 L-260.8794179050561 52.21539030917347 L-260.8794179050561 79.92820323027551 L-240.09480821422954 73.92820323027551 L-240.09480821422954 46.21539030917347"/>
		<path opacity="0.5" fill="orange" d="M-224.09480821422954 60.071796769724486 L-244.87941790505607 66.07179676972449 L-244.87941790505607 93.78460969082653 L-224.09480821422954 87.78460969082653 L-224.09480821422954 60.071796769724486"/>
		<path opacity="0.5" fill="orange" d="M-240.09480821422954 46.21539030917347 L-224.09480821422954 60.071796769724486 L-244.87941790505607 66.07179676972449 L-260.8794179050561 52.21539030917347 L-240.09480821422954 46.21539030917347"/>
		<path opacity="0.5" fill="orange" d="M-240.09480821422954 73.92820323027551 L-224.09480821422954 87.78460969082653 L-244.87941790505607 93.78460969082653 L-260.8794179050561 79.92820323027551 L-240.09480821422954 73.92820323027551"/>
		<text style="fill:black;font-family:calibri;font-size:6" x="-260.8794179050561" y="66.0717967697245" >32</text>
		<text style="fill:black;font-family:calibri;font-size:6" x="-252.87941790505607" y="86.85640646055103" >32</text>
		<text style="fill:black;font-family:calibri;font-size:6" x="-250.4871130596428" y="49.21539030917347" >24</text>

		<path opacity="0.75" fill="pink" d="M-310.34966882161456 69.36157522252824 L-307.84966882161456 71.52663873198934 L-256.3864161570457 61.72446869046841 L-310.34966882161456 69.36157522252824"/>
		<path opacity="0.75" fill="pink" d="M-310.34966882161456 69.36157522252824 L-310.34966882161456 73.69170224145043 L-256.3864161570457 61.72446869046841 L-310.34966882161456 69.36157522252824"/>
		<path opacity="0.75" fill="pink" d="M-307.84966882161456 71.52663873198934 L-307.84966882161456 75.85676575091153 L-256.3864161570457 61.72446869046841 L-307.84966882161456 71.52663873198934"/>
		<path opacity="0.75" fill="pink" d="M-310.34966882161456 73.69170224145043 L-307.84966882161456 75.85676575091153 L-256.3864161570457 61.72446869046841 L-310.34966882161456 73.69170224145043"/>

		<text style="fill:black;font-family:calibri;font-size:6" x="-291.5285846000916" y="61.04302195649833" >[5,5]</text>
		<path opacity="0.75" fill="darkturquoise" d="M-310.34966882161456 69.36157522252824 L-307.84966882161456 71.52663873198934 L-307.84966882161456 75.85676575091153 L-310.34966882161456 73.69170224145043 L-310.34966882161456 69.36157522252824"/>
		<path opacity="0.75" fill="darkturquoise" d="M-319.0099228594589 71.86157522252824 L-316.5099228594589 74.02663873198934 L-316.5099228594589 78.35676575091153 L-319.0099228594589 76.19170224145043 L-319.0099228594589 71.86157522252824"/>
		<path opacity="0.75" fill="darkturquoise" d="M-310.34966882161456 69.36157522252824 L-319.0099228594589 71.86157522252824 L-319.0099228594589 76.19170224145043 L-310.34966882161456 73.69170224145043 L-310.34966882161456 69.36157522252824"/>
		<path opacity="0.75" fill="darkturquoise" d="M-307.84966882161456 71.52663873198934 L-316.5099228594589 74.02663873198934 L-316.5099228594589 78.35676575091153 L-307.84966882161456 75.85676575091153 L-307.84966882161456 71.52663873198934"/>
		<path opacity="0.75" fill="darkturquoise" d="M-310.34966882161456 69.36157522252824 L-307.84966882161456 71.52663873198934 L-316.5099228594589 74.02663873198934 L-319.0099228594589 71.86157522252824 L-310.34966882161456 69.36157522252824"/>
		<path opacity="0.75" fill="darkturquoise" d="M-310.34966882161456 73.69170224145043 L-307.84966882161456 75.85676575091153 L-316.5099228594589 78.35676575091153 L-319.0099228594589 76.19170224145043 L-310.34966882161456 73.69170224145043"/>
		<path opacity="0.5" fill="lavender" d="M-312.180688094278 43.930780618346944 L-280.180688094278 71.64359353944897 L-280.180688094278 127.06921938165306 L-312.180688094278 99.35640646055103 L-312.180688094278 43.930780618346944"/>
		<path opacity="0.5" fill="lavender" d="M-320.8409421321224 46.430780618346944 L-288.8409421321224 74.14359353944897 L-288.8409421321224 129.56921938165306 L-320.8409421321224 101.85640646055103 L-320.8409421321224 46.430780618346944"/>
		<path opacity="0.5" fill="lavender" d="M-312.180688094278 43.930780618346944 L-320.8409421321224 46.430780618346944 L-320.8409421321224 101.85640646055103 L-312.180688094278 99.35640646055103 L-312.180688094278 43.930780618346944"/>
		<path opacity="0.5" fill="lavender" d="M-280.180688094278 71.64359353944897 L-288.8409421321224 74.14359353944897 L-288.8409421321224 129.56921938165306 L-280.180688094278 127.06921938165306 L-280.180688094278 71.64359353944897"/>
		<path opacity="0.5" fill="lavender" d="M-312.180688094278 43.930780618346944 L-280.180688094278 71.64359353944897 L-288.8409421321224 74.14359353944897 L-320.8409421321224 46.430780618346944 L-312.180688094278 43.930780618346944"/>
		<path opacity="0.5" fill="lavender" d="M-312.180688094278 99.35640646055103 L-280.180688094278 127.06921938165306 L-288.8409421321224 129.56921938165306 L-320.8409421321224 101.85640646055103 L-312.180688094278 99.35640646055103"/>
		<text style="fill:black;font-family:calibri;font-size:6" x="-320.8409421321224" y="74.14359353944899" >64</text>
		<text style="fill:black;font-family:calibri;font-size:6" x="-304.8409421321224" y="115.71281292110204" >64</text>
		<text style="fill:black;font-family:calibri;font-size:6" x="-316.51081511320024" y="45.180780618346944" >10</text>

	 </g>
</svg>