<svg width="100%" height="100%" viewBox="-304.3374213545414 -220.9438740771269 599.9248427090828 340.8414600889117" xmlns="http://www.w3.org/2000/svg">
	<g stroke="black" stroke-width="0.3">

		<path opacity="0.75" fill="darkturquoise" d="M284.5874213545414 -214.9438740771269 L289.5874213545414 -210.6137470582047 L289.5874213545414 49.19387407712691 L284.5874213545414 44.86374705820471 L284.5874213545414 -214.9438740771269"/>
		<path opacity="0.75" fill="darkturquoise" d="M275.927167316697 -212.4438740771269 L280.927167316697 -208.1137470582047 L280.927167316697 51.69387407712691 L275.927167316697 47.36374705820471 L275.927167316697 -212.4438740771269"/>
		<path opacity="0.75" fill="darkturquoise" d="M284.5874213545414 -214.9438740771269 L275.927167316697 -212.4438740771269 L275.927167316697 47.36374705820471 L284.5874213545414 44.86374705820471 L284.5874213545414 -214.9438740771269"/>
		<path opacity="0.75" fill="darkturquoise" d="M289.5874213545414 -210.6137470582047 L280.927167316697 -208.1137470582047 L280.927167316697 51.69387407712691 L289.5874213545414 49.19387407712691 L289.5874213545414 -210.6137470582047"/>
		<path opacity="0.75" fill="darkturquoise" d="M284.5874213545414 -214.9438740771269 L289.5874213545414 -210.6137470582047 L280.927167316697 -208.1137470582047 L275.927167316697 -212.4438740771269 L284.5874213545414 -214.9438740771269"/>
		<path opacity="0.75" fill="darkturquoise" d="M284.5874213545414 44.86374705820471 L289.5874213545414 49.19387407712691 L280.927167316697 51.69387407712691 L275.927167316697 47.36374705820471 L284.5874213545414 44.86374705820471"/>
		<text style="fill:black;font-family:calibri;font-size:6" x="275.927167316697" y="-82.5400635094611" >300</text>
		<text style="fill:black;font-family:calibri;font-size:6" x="278.427167316697" y="49.52881056766581" >10</text>
		<text style="fill:black;font-family:calibri;font-size:6" x="280.25729433561924" y="-213.6938740771269" >10</text>

<!-- Arrow -->
		<path opacity="0.5" stroke="black" d="M235.12589712747507 -67.875 L278.427167316697 -80.375"/>
		<circle opacity="0.5" cx="278.427167316697" cy="-80.375" r="1" fill="black" />
		<path opacity="0.75" fill="darkturquoise" d="M232.62589712747507 -156.64260388790495 L237.62589712747507 -152.3124768689828 L237.62589712747507 20.89260388790497 L232.62589712747507 16.562476868982785 L232.62589712747507 -156.64260388790495"/>
		<path opacity="0.75" fill="darkturquoise" d="M223.9656430896307 -154.14260388790495 L228.9656430896307 -149.8124768689828 L228.9656430896307 23.39260388790497 L223.9656430896307 19.062476868982785 L223.9656430896307 -154.14260388790495"/>
		<path opacity="0.75" fill="darkturquoise" d="M232.62589712747507 -156.64260388790495 L223.9656430896307 -154.14260388790495 L223.9656430896307 19.062476868982785 L232.62589712747507 16.562476868982785 L232.62589712747507 -156.64260388790495"/>
		<path opacity="0.75" fill="darkturquoise" d="M237.62589712747507 -152.3124768689828 L228.9656430896307 -149.8124768689828 L228.9656430896307 23.39260388790497 L237.62589712747507 20.89260388790497 L237.62589712747507 -152.3124768689828"/>
		<path opacity="0.75" fill="darkturquoise" d="M232.62589712747507 -156.64260388790495 L237.62589712747507 -152.3124768689828 L228.9656430896307 -149.8124768689828 L223.9656430896307 -154.14260388790495 L232.62589712747507 -156.64260388790495"/>
		<path opacity="0.75" fill="darkturquoise" d="M232.62589712747507 16.562476868982785 L237.62589712747507 20.89260388790497 L228.9656430896307 23.39260388790497 L223.9656430896307 19.062476868982785 L232.62589712747507 16.562476868982785"/>
		<text style="fill:black;font-family:calibri;font-size:6" x="223.9656430896307" y="-67.54006350946108" >200</text>
		<text style="fill:black;font-family:calibri;font-size:6" x="226.4656430896307" y="21.227540378443877" >10</text>
		<text style="fill:black;font-family:calibri;font-size:6" x="228.2957701085529" y="-155.39260388790495" >10</text>

		<path opacity="0.75" fill="darkturquoise" d="M232.62589712747507 -156.64260388790495 L237.62589712747507 -152.3124768689828 L237.62589712747507 20.89260388790497 L232.62589712747507 16.562476868982785 L232.62589712747507 -156.64260388790495"/>
		<path opacity="0.75" fill="darkturquoise" d="M223.9656430896307 -154.14260388790495 L228.9656430896307 -149.8124768689828 L228.9656430896307 23.39260388790497 L223.9656430896307 19.062476868982785 L223.9656430896307 -154.14260388790495"/>
		<path opacity="0.75" fill="darkturquoise" d="M232.62589712747507 -156.64260388790495 L223.9656430896307 -154.14260388790495 L223.9656430896307 19.062476868982785 L232.62589712747507 16.562476868982785 L232.62589712747507 -156.64260388790495"/>
		<path opacity="0.75" fill="darkturquoise" d="M237.62589712747507 -152.3124768689828 L228.9656430896307 -149.8124768689828 L228.9656430896307 23.39260388790497 L237.62589712747507 20.89260388790497 L237.62589712747507 -152.3124768689828"/>
		<path opacity="0.75" fill="darkturquoise" d="M232.62589712747507 -156.64260388790495 L237.62589712747507 -152.3124768689828 L228.9656430896307 -149.8124768689828 L223.9656430896307 -154.14260388790495 L232.62589712747507 -156.64260388790495"/>
		<path opacity="0.75" fill="darkturquoise" d="M232.62589712747507 16.562476868982785 L237.62589712747507 20.89260388790497 L228.9656430896307 23.39260388790497 L223.9656430896307 19.062476868982785 L232.62589712747507 16.562476868982785"/>
		<text style="fill:black;font-family:calibri;font-size:6" x="223.9656430896307" y="-67.54006350946108" >200</text>
		<text style="fill:black;font-family:calibri;font-size:6" x="226.4656430896307" y="21.227540378443877" >10</text>
		<text style="fill:black;font-family:calibri;font-size:6" x="228.2957701085529" y="-155.39260388790495" >10</text>

<!-- Arrow -->
		<path opacity="0.5" stroke="black" d="M183.16437290040875 -52.875 L226.4656430896307 -65.375"/>
		<circle opacity="0.5" cx="226.4656430896307" cy="-65.375" r="1" fill="black" />
		<path opacity="0.5" fill="orange" d="M178.85187290040875 -62.13064650294619 L187.47687290040875 -54.66117739530541 L187.47687290040875 -43.61935349705381 L178.85187290040875 -51.08882260469459 L178.85187290040875 -62.13064650294619"/>
		<path opacity="0.5" fill="orange" d="M116.49804382792918 -44.13064650294619 L125.12304382792918 -36.66117739530541 L125.12304382792918 -25.61935349705381 L116.49804382792918 -33.08882260469459 L116.49804382792918 -44.13064650294619"/>
		<path opacity="0.5" fill="orange" d="M178.85187290040875 -62.13064650294619 L116.49804382792918 -44.13064650294619 L116.49804382792918 -33.08882260469459 L178.85187290040875 -51.08882260469459 L178.85187290040875 -62.13064650294619"/>
		<path opacity="0.5" fill="orange" d="M187.47687290040875 -54.66117739530541 L125.12304382792918 -36.66117739530541 L125.12304382792918 -25.61935349705381 L187.47687290040875 -43.61935349705381 L187.47687290040875 -54.66117739530541"/>
		<path opacity="0.5" fill="orange" d="M178.85187290040875 -62.13064650294619 L187.47687290040875 -54.66117739530541 L125.12304382792918 -36.66117739530541 L116.49804382792918 -44.13064650294619 L178.85187290040875 -62.13064650294619"/>
		<path opacity="0.5" fill="orange" d="M178.85187290040875 -51.08882260469459 L187.47687290040875 -43.61935349705381 L125.12304382792918 -25.61935349705381 L116.49804382792918 -33.08882260469459 L178.85187290040875 -51.08882260469459"/>
		<text style="fill:black;font-family:calibri;font-size:6" x="116.49804382792918" y="-38.60973455382039" >12</text>
		<text style="fill:black;font-family:calibri;font-size:6" x="120.81054382792918" y="-29.354088050874203" >17</text>
		<text style="fill:black;font-family:calibri;font-size:6" x="147.67495836416896" y="-53.13064650294619" >72</text>

		<path opacity="0.75" fill="pink" d="M76.65240814674614 -27.098204821343323 L81.65240814674614 -22.76807780242113 L120.41475231241535 -34.95573274394064 L76.65240814674614 -27.098204821343323"/>
		<path opacity="0.75" fill="pink" d="M76.65240814674614 -27.098204821343323 L76.65240814674614 -18.437950783498934 L120.41475231241535 -34.95573274394064 L76.65240814674614 -27.098204821343323"/>
		<path opacity="0.75" fill="pink" d="M81.65240814674614 -22.76807780242113 L81.65240814674614 -14.107823764576743 L120.41475231241535 -34.95573274394064 L81.65240814674614 -22.76807780242113"/>
		<path opacity="0.75" fill="pink" d="M76.65240814674614 -18.437950783498934 L81.65240814674614 -14.107823764576743 L120.41475231241535 -34.95573274394064 L76.65240814674614 -18.437950783498934"/>

		<text style="fill:black;font-family:calibri;font-size:6" x="92.90652286863588" y="-35.52696878264198" >[10,10]</text>
		<path opacity="0.75" fill="darkturquoise" d="M76.65240814674614 -27.098204821343323 L81.65240814674614 -22.76807780242113 L81.65240814674614 -14.107823764576743 L76.65240814674614 -18.437950783498934 L76.65240814674614 -27.098204821343323"/>
		<path opacity="0.75" fill="darkturquoise" d="M21.22678230454206 -11.098204821343323 L26.226782304542063 -6.768077802421129 L26.226782304542063 1.892176235423257 L21.22678230454206 -2.4379507834989345 L21.22678230454206 -11.098204821343323"/>
		<path opacity="0.75" fill="darkturquoise" d="M76.65240814674614 -27.098204821343323 L21.22678230454206 -11.098204821343323 L21.22678230454206 -2.4379507834989345 L76.65240814674614 -18.437950783498934 L76.65240814674614 -27.098204821343323"/>
		<path opacity="0.75" fill="darkturquoise" d="M81.65240814674614 -22.76807780242113 L26.226782304542063 -6.768077802421129 L26.226782304542063 1.892176235423257 L81.65240814674614 -14.107823764576743 L81.65240814674614 -22.76807780242113"/>
		<path opacity="0.75" fill="darkturquoise" d="M76.65240814674614 -27.098204821343323 L81.65240814674614 -22.76807780242113 L26.226782304542063 -6.768077802421129 L21.22678230454206 -11.098204821343323 L76.65240814674614 -27.098204821343323"/>
		<path opacity="0.75" fill="darkturquoise" d="M76.65240814674614 -18.437950783498934 L81.65240814674614 -14.107823764576743 L26.226782304542063 1.892176235423257 L21.22678230454206 -2.4379507834989345 L76.65240814674614 -18.437950783498934"/>
		<path opacity="0.5" fill="orange" d="M68.88427363870726 -40.88629300589238 L86.13427363870726 -25.94735479061081 L86.13427363870726 -3.8637069941076234 L68.88427363870726 -18.80264520938919 L68.88427363870726 -40.88629300589238"/>
		<path opacity="0.5" fill="orange" d="M13.45864779650318 -24.886293005892377 L30.708647796503186 -9.947354790610811 L30.708647796503186 12.136293005892377 L13.45864779650318 -2.8026452093891887 L13.45864779650318 -24.886293005892377"/>
		<path opacity="0.5" fill="orange" d="M68.88427363870726 -40.88629300589238 L13.45864779650318 -24.886293005892377 L13.45864779650318 -2.8026452093891887 L68.88427363870726 -18.80264520938919 L68.88427363870726 -40.88629300589238"/>
		<path opacity="0.5" fill="orange" d="M86.13427363870726 -25.94735479061081 L30.708647796503186 -9.947354790610811 L30.708647796503186 12.136293005892377 L86.13427363870726 -3.8637069941076234 L86.13427363870726 -25.94735479061081"/>
		<path opacity="0.5" fill="orange" d="M68.88427363870726 -40.88629300589238 L86.13427363870726 -25.94735479061081 L30.708647796503186 -9.947354790610811 L13.45864779650318 -24.886293005892377 L68.88427363870726 -40.88629300589238"/>
		<path opacity="0.5" fill="orange" d="M68.88427363870726 -18.80264520938919 L86.13427363870726 -3.8637069941076234 L30.708647796503186 12.136293005892377 L13.45864779650318 -2.8026452093891887 L68.88427363870726 -18.80264520938919"/>
		<text style="fill:black;font-family:calibri;font-size:6" x="13.45864779650318" y="-13.844469107640784" >25</text>
		<text style="fill:black;font-family:calibri;font-size:6" x="22.083647796503183" y="4.666823898251594" >34</text>
		<text style="fill:black;font-family:calibri;font-size:6" x="41.17146071760522" y="-32.88629300589238" >64</text>

		<path opacity="0.75" fill="pink" d="M-32.51718457690205 -4.58151129851864 L-30.017184576902054 -2.4164477890575426 L14.276283770624534 -17.120957887233594 L-32.51718457690205 -4.58151129851864"/>
		<path opacity="0.75" fill="pink" d="M-32.51718457690205 -4.58151129851864 L-32.51718457690205 -0.25138427959644627 L14.276283770624534 -17.120957887233594 L-32.51718457690205 -4.58151129851864"/>
		<path opacity="0.75" fill="pink" d="M-30.017184576902054 -2.4164477890575426 L-30.017184576902054 1.913679229864651 L14.276283770624534 -17.120957887233594 L-30.017184576902054 -2.4164477890575426"/>
		<path opacity="0.75" fill="pink" d="M-32.51718457690205 -0.25138427959644627 L-30.017184576902054 1.913679229864651 L14.276283770624534 -17.120957887233594 L-32.51718457690205 -0.25138427959644627"/>

		<text style="fill:black;font-family:calibri;font-size:6" x="-16.086028461059858" y="-15.351234592876118" >[5,5]</text>
		<path opacity="0.75" fill="darkturquoise" d="M-32.51718457690205 -4.58151129851864 L-30.017184576902054 -2.4164477890575426 L-30.017184576902054 1.913679229864651 L-32.51718457690205 -0.25138427959644627 L-32.51718457690205 -4.58151129851864"/>
		<path opacity="0.75" fill="darkturquoise" d="M-60.22999749800409 3.41848870148136 L-57.72999749800409 5.583552210942457 L-57.72999749800409 9.913679229864652 L-60.22999749800409 7.748615720403554 L-60.22999749800409 3.41848870148136"/>
		<path opacity="0.75" fill="darkturquoise" d="M-32.51718457690205 -4.58151129851864 L-60.22999749800409 3.41848870148136 L-60.22999749800409 7.748615720403554 L-32.51718457690205 -0.25138427959644627 L-32.51718457690205 -4.58151129851864"/>
		<path opacity="0.75" fill="darkturquoise" d="M-30.017184576902054 -2.4164477890575426 L-57.72999749800409 5.583552210942457 L-57.72999749800409 9.913679229864652 L-30.017184576902054 1.913679229864651 L-30.017184576902054 -2.4164477890575426"/>
		<path opacity="0.75" fill="darkturquoise" d="M-32.51718457690205 -4.58151129851864 L-30.017184576902054 -2.4164477890575426 L-57.72999749800409 5.583552210942457 L-60.22999749800409 3.41848870148136 L-32.51718457690205 -4.58151129851864"/>
		<path opacity="0.75" fill="darkturquoise" d="M-32.51718457690205 -0.25138427959644627 L-30.017184576902054 1.913679229864651 L-57.72999749800409 9.913679229864652 L-60.22999749800409 7.748615720403554 L-32.51718457690205 -0.25138427959644627"/>
		<path opacity="0.5" fill="orange" d="M-38.46762239271875 -30.897586011784753 L-3.9676223927187415 -1.0197095812216226 L-3.9676223927187415 43.14758601178475 L-38.46762239271875 13.269709581221623 L-38.46762239271875 -30.897586011784753"/>
		<path opacity="0.5" fill="orange" d="M-66.18043531382078 -22.897586011784753 L-31.680435313820777 6.980290418778377 L-31.680435313820777 51.14758601178475 L-66.18043531382078 21.269709581221623 L-66.18043531382078 -22.897586011784753"/>
		<path opacity="0.5" fill="orange" d="M-38.46762239271875 -30.897586011784753 L-66.18043531382078 -22.897586011784753 L-66.18043531382078 21.269709581221623 L-38.46762239271875 13.269709581221623 L-38.46762239271875 -30.897586011784753"/>
		<path opacity="0.5" fill="orange" d="M-3.9676223927187415 -1.0197095812216226 L-31.680435313820777 6.980290418778377 L-31.680435313820777 51.14758601178475 L-3.9676223927187415 43.14758601178475 L-3.9676223927187415 -1.0197095812216226"/>
		<path opacity="0.5" fill="orange" d="M-38.46762239271875 -30.897586011784753 L-3.9676223927187415 -1.0197095812216226 L-31.680435313820777 6.980290418778377 L-66.18043531382078 -22.897586011784753 L-38.46762239271875 -30.897586011784753"/>
		<path opacity="0.5" fill="orange" d="M-38.46762239271875 13.269709581221623 L-3.9676223927187415 43.14758601178475 L-31.680435313820777 51.14758601178475 L-66.18043531382078 21.269709581221623 L-38.46762239271875 13.269709581221623"/>
		<text style="fill:black;font-family:calibri;font-size:6" x="-66.18043531382078" y="-0.8139382152815653" >51</text>
		<text style="fill:black;font-family:calibri;font-size:6" x="-48.93043531382078" y="36.208647796503186" >69</text>
		<text style="fill:black;font-family:calibri;font-size:6" x="-52.324028853269766" y="-26.897586011784753" >32</text>

		<path opacity="0.75" fill="pink" d="M-97.33536113221783 29.839908695242862 L-92.33536113221783 34.17003571416505 L-55.7709373870648 -2.919315866963533 L-97.33536113221783 29.839908695242862"/>
		<path opacity="0.75" fill="pink" d="M-97.33536113221783 29.839908695242862 L-97.33536113221783 38.50016273308725 L-55.7709373870648 -2.919315866963533 L-97.33536113221783 29.839908695242862"/>
		<path opacity="0.75" fill="pink" d="M-92.33536113221783 34.17003571416505 L-92.33536113221783 42.83028975200944 L-55.7709373870648 -2.919315866963533 L-92.33536113221783 34.17003571416505"/>
		<path opacity="0.75" fill="pink" d="M-97.33536113221783 38.50016273308725 L-92.33536113221783 42.83028975200944 L-55.7709373870648 -2.919315866963533 L-97.33536113221783 38.50016273308725"/>

		<text style="fill:black;font-family:calibri;font-size:6" x="-81.81388655050016" y="8.960296414139664" >[10,10]</text>
		<path opacity="0.75" fill="darkturquoise" d="M-97.33536113221783 29.839908695242862 L-92.33536113221783 34.17003571416505 L-92.33536113221783 42.83028975200944 L-97.33536113221783 38.50016273308725 L-97.33536113221783 29.839908695242862"/>
		<path opacity="0.75" fill="darkturquoise" d="M-292.1910769837165 86.08990869524287 L-287.1910769837165 90.42003571416505 L-287.1910769837165 99.08028975200943 L-292.1910769837165 94.75016273308725 L-292.1910769837165 86.08990869524287"/>
		<path opacity="0.75" fill="darkturquoise" d="M-97.33536113221783 29.839908695242862 L-292.1910769837165 86.08990869524287 L-292.1910769837165 94.75016273308725 L-97.33536113221783 38.50016273308725 L-97.33536113221783 29.839908695242862"/>
		<path opacity="0.75" fill="darkturquoise" d="M-92.33536113221783 34.17003571416505 L-287.1910769837165 90.42003571416505 L-287.1910769837165 99.08028975200943 L-92.33536113221783 42.83028975200944 L-92.33536113221783 34.17003571416505"/>
		<path opacity="0.75" fill="darkturquoise" d="M-97.33536113221783 29.839908695242862 L-92.33536113221783 34.17003571416505 L-287.1910769837165 90.42003571416505 L-292.1910769837165 86.08990869524287 L-97.33536113221783 29.839908695242862"/>
		<path opacity="0.75" fill="darkturquoise" d="M-97.33536113221783 38.50016273308725 L-92.33536113221783 42.83028975200944 L-287.1910769837165 99.08028975200943 L-292.1910769837165 94.75016273308725 L-97.33536113221783 38.50016273308725"/>
		<path opacity="0.5" fill="lavender" d="M-109.4817055030427 -10.397586011784753 L-74.9817055030427 19.480290418778377 L-74.9817055030427 63.64758601178475 L-109.4817055030427 33.76970958122162 L-109.4817055030427 -10.397586011784753"/>
		<path opacity="0.5" fill="lavender" d="M-304.3374213545414 45.85241398821525 L-269.8374213545414 75.73029041877838 L-269.8374213545414 119.89758601178475 L-304.3374213545414 90.01970958122162 L-304.3374213545414 45.85241398821525"/>
		<path opacity="0.5" fill="lavender" d="M-109.4817055030427 -10.397586011784753 L-304.3374213545414 45.85241398821525 L-304.3374213545414 90.01970958122162 L-109.4817055030427 33.76970958122162 L-109.4817055030427 -10.397586011784753"/>
		<path opacity="0.5" fill="lavender" d="M-74.9817055030427 19.480290418778377 L-269.8374213545414 75.73029041877838 L-269.8374213545414 119.89758601178475 L-74.9817055030427 63.64758601178475 L-74.9817055030427 19.480290418778377"/>
		<path opacity="0.5" fill="lavender" d="M-109.4817055030427 -10.397586011784753 L-74.9817055030427 19.480290418778377 L-269.8374213545414 75.73029041877838 L-304.3374213545414 45.85241398821525 L-109.4817055030427 -10.397586011784753"/>
		<path opacity="0.5" fill="lavender" d="M-109.4817055030427 33.76970958122162 L-74.9817055030427 63.64758601178475 L-269.8374213545414 119.89758601178475 L-304.3374213545414 90.01970958122162 L-109.4817055030427 33.76970958122162"/>
		<text style="fill:black;font-family:calibri;font-size:6" x="-304.3374213545414" y="67.93606178471843" >51</text>
		<text style="fill:black;font-family:calibri;font-size:6" x="-287.0874213545414" y="104.95864779650319" >69</text>
		<text style="fill:black;font-family:calibri;font-size:6" x="-206.90956342879204" y="17.727413988215247" >225</text>

	 </g>
</svg>