<svg width="100%" height="100%" viewBox="-300.352447854375 -239.06904672938998 1021.95489570875 493.31964481437336" xmlns="http://www.w3.org/2000/svg">
	<g stroke="black" stroke-width="0.3">

		<path opacity="0.5" fill="orange" d="M476.96787517317597 -139.30607966083863 L488.96787517317597 -128.91377481542537 L488.96787517317597 -108.12916512459884 L476.96787517317597 -118.5214699700121 L476.96787517317597 -139.30607966083863"/>
		<path opacity="0.5" fill="orange" d="M421.54224933097186 -123.30607966083863 L433.5422493309719 -112.91377481542537 L433.5422493309719 -92.12916512459884 L421.54224933097186 -102.5214699700121 L421.54224933097186 -123.30607966083863"/>
		<path opacity="0.5" fill="orange" d="M476.96787517317597 -139.30607966083863 L421.54224933097186 -123.30607966083863 L421.54224933097186 -102.5214699700121 L476.96787517317597 -118.5214699700121 L476.96787517317597 -139.30607966083863"/>
		<path opacity="0.5" fill="orange" d="M488.96787517317597 -128.91377481542537 L433.5422493309719 -112.91377481542537 L433.5422493309719 -92.12916512459884 L488.96787517317597 -108.12916512459884 L488.96787517317597 -128.91377481542537"/>
		<path opacity="0.5" fill="orange" d="M476.96787517317597 -139.30607966083863 L488.96787517317597 -128.91377481542537 L433.5422493309719 -112.91377481542537 L421.54224933097186 -123.30607966083863 L476.96787517317597 -139.30607966083863"/>
		<path opacity="0.5" fill="orange" d="M476.96787517317597 -118.5214699700121 L488.96787517317597 -108.12916512459884 L433.5422493309719 -92.12916512459884 L421.54224933097186 -102.5214699700121 L476.96787517317597 -118.5214699700121"/>
		<text style="fill:black;font-family:calibri;font-size:6" x="421.54224933097186" y="-112.91377481542537" >24</text>
		<text style="fill:black;font-family:calibri;font-size:6" x="427.5422493309719" y="-97.32531754730547" >24</text>
		<text style="fill:black;font-family:calibri;font-size:6" x="449.2550622520739" y="-131.30607966083863" >64</text>

<!-- Arrow -->
		<path opacity="0.5" stroke="black" d="M482.96787517317597 -123.71762239271874 L600.5191453623979 -71.91523616172418"/>
		<circle opacity="0.5" cx="600.5191453623979" cy="-71.91523616172418" r="1" fill="black" />
		<path opacity="0.75" fill="pink" d="M385.44639935245965 -92.25977282098425 L387.9463993524597 -90.09470931152315 L427.59357918139716 -102.30584946386617 L385.44639935245965 -92.25977282098425"/>
		<path opacity="0.75" fill="pink" d="M385.44639935245965 -92.25977282098425 L385.44639935245965 -87.92964580206205 L427.59357918139716 -102.30584946386617 L385.44639935245965 -92.25977282098425"/>
		<path opacity="0.75" fill="pink" d="M387.9463993524597 -90.09470931152315 L387.9463993524597 -85.76458229260095 L427.59357918139716 -102.30584946386617 L387.9463993524597 -90.09470931152315"/>
		<path opacity="0.75" fill="pink" d="M385.44639935245965 -87.92964580206205 L387.9463993524597 -85.76458229260095 L427.59357918139716 -102.30584946386617 L385.44639935245965 -87.92964580206205"/>

		<text style="fill:black;font-family:calibri;font-size:6" x="400.3287926287722" y="-101.7828111424252" >[5,5]</text>
		<path opacity="0.75" fill="darkturquoise" d="M710.602447854375 -193.18284004962914 L715.602447854375 -188.85271303070695 L715.602447854375 -15.647632273819227 L710.602447854375 -19.97775929274141 L710.602447854375 -193.18284004962914"/>
		<path opacity="0.75" fill="darkturquoise" d="M701.9421938165306 -190.68284004962914 L706.9421938165306 -186.35271303070695 L706.9421938165306 -13.147632273819227 L701.9421938165306 -17.47775929274141 L701.9421938165306 -190.68284004962914"/>
		<path opacity="0.75" fill="darkturquoise" d="M710.602447854375 -193.18284004962914 L701.9421938165306 -190.68284004962914 L701.9421938165306 -17.47775929274141 L710.602447854375 -19.97775929274141 L710.602447854375 -193.18284004962914"/>
		<path opacity="0.75" fill="darkturquoise" d="M715.602447854375 -188.85271303070695 L706.9421938165306 -186.35271303070695 L706.9421938165306 -13.147632273819227 L715.602447854375 -15.647632273819227 L715.602447854375 -188.85271303070695"/>
		<path opacity="0.75" fill="darkturquoise" d="M710.602447854375 -193.18284004962914 L715.602447854375 -188.85271303070695 L706.9421938165306 -186.35271303070695 L701.9421938165306 -190.68284004962914 L710.602447854375 -193.18284004962914"/>
		<path opacity="0.75" fill="darkturquoise" d="M710.602447854375 -19.97775929274141 L715.602447854375 -15.647632273819227 L706.9421938165306 -13.147632273819227 L701.9421938165306 -17.47775929274141 L710.602447854375 -19.97775929274141"/>
		<text style="fill:black;font-family:calibri;font-size:6" x="701.9421938165306" y="-104.08029967118527" >200</text>
		<text style="fill:black;font-family:calibri;font-size:6" x="704.4421938165306" y="-15.312695783280319" >10</text>
		<text style="fill:black;font-family:calibri;font-size:6" x="706.2723208354528" y="-191.93284004962914" >10</text>

<!-- Arrow -->
		<path opacity="0.5" stroke="black" d="M661.1409236273087 -89.41523616172418 L704.4421938165306 -101.91523616172418"/>
		<circle opacity="0.5" cx="704.4421938165306" cy="-101.91523616172418" r="1" fill="black" />
		<path opacity="0.5" fill="orange" d="M176.58845726811987 -103.9781847254617 L184.5884572681199 -97.04998149518619 L184.5884572681199 -83.19357503463517 L176.58845726811987 -90.12177826491069 L176.58845726811987 -103.9781847254617"/>
		<path opacity="0.5" fill="orange" d="M121.16283142591578 -87.9781847254617 L129.1628314259158 -81.04998149518619 L129.1628314259158 -67.19357503463517 L121.16283142591578 -74.12177826491069 L121.16283142591578 -87.9781847254617"/>
		<path opacity="0.5" fill="orange" d="M176.58845726811987 -103.9781847254617 L121.16283142591578 -87.9781847254617 L121.16283142591578 -74.12177826491069 L176.58845726811987 -90.12177826491069 L176.58845726811987 -103.9781847254617"/>
		<path opacity="0.5" fill="orange" d="M184.5884572681199 -97.04998149518619 L129.1628314259158 -81.04998149518619 L129.1628314259158 -67.19357503463517 L184.5884572681199 -83.19357503463517 L184.5884572681199 -97.04998149518619"/>
		<path opacity="0.5" fill="orange" d="M176.58845726811987 -103.9781847254617 L184.5884572681199 -97.04998149518619 L129.1628314259158 -81.04998149518619 L121.16283142591578 -87.9781847254617 L176.58845726811987 -103.9781847254617"/>
		<path opacity="0.5" fill="orange" d="M176.58845726811987 -90.12177826491069 L184.5884572681199 -83.19357503463517 L129.1628314259158 -67.19357503463517 L121.16283142591578 -74.12177826491069 L176.58845726811987 -90.12177826491069"/>
		<text style="fill:black;font-family:calibri;font-size:6" x="121.16283142591578" y="-81.04998149518619" >16</text>
		<text style="fill:black;font-family:calibri;font-size:6" x="125.1628314259158" y="-70.65767664977292" >16</text>
		<text style="fill:black;font-family:calibri;font-size:6" x="148.87564434701784" y="-95.9781847254617" >64</text>

		<path opacity="0.75" fill="darkturquoise" d="M658.6409236273087 -178.18284004962914 L663.6409236273087 -173.85271303070695 L663.6409236273087 -0.6476322738192266 L658.6409236273087 -4.9777592927414105 L658.6409236273087 -178.18284004962914"/>
		<path opacity="0.75" fill="darkturquoise" d="M649.9806695894642 -175.68284004962914 L654.9806695894642 -171.35271303070695 L654.9806695894642 1.8523677261807734 L649.9806695894642 -2.4777592927414105 L649.9806695894642 -175.68284004962914"/>
		<path opacity="0.75" fill="darkturquoise" d="M658.6409236273087 -178.18284004962914 L649.9806695894642 -175.68284004962914 L649.9806695894642 -2.4777592927414105 L658.6409236273087 -4.9777592927414105 L658.6409236273087 -178.18284004962914"/>
		<path opacity="0.75" fill="darkturquoise" d="M663.6409236273087 -173.85271303070695 L654.9806695894642 -171.35271303070695 L654.9806695894642 1.8523677261807734 L663.6409236273087 -0.6476322738192266 L663.6409236273087 -173.85271303070695"/>
		<path opacity="0.75" fill="darkturquoise" d="M658.6409236273087 -178.18284004962914 L663.6409236273087 -173.85271303070695 L654.9806695894642 -171.35271303070695 L649.9806695894642 -175.68284004962914 L658.6409236273087 -178.18284004962914"/>
		<path opacity="0.75" fill="darkturquoise" d="M658.6409236273087 -4.9777592927414105 L663.6409236273087 -0.6476322738192266 L654.9806695894642 1.8523677261807734 L649.9806695894642 -2.4777592927414105 L658.6409236273087 -4.9777592927414105"/>
		<text style="fill:black;font-family:calibri;font-size:6" x="649.9806695894642" y="-89.08029967118527" >200</text>
		<text style="fill:black;font-family:calibri;font-size:6" x="652.4806695894642" y="-0.31269578328031855" >10</text>
		<text style="fill:black;font-family:calibri;font-size:6" x="654.3107966083865" y="-176.93284004962914" >10</text>

		<path opacity="0.75" fill="darkturquoise" d="M658.6409236273087 -178.18284004962914 L663.6409236273087 -173.85271303070695 L663.6409236273087 -0.6476322738192266 L658.6409236273087 -4.9777592927414105 L658.6409236273087 -178.18284004962914"/>
		<path opacity="0.75" fill="darkturquoise" d="M649.9806695894642 -175.68284004962914 L654.9806695894642 -171.35271303070695 L654.9806695894642 1.8523677261807734 L649.9806695894642 -2.4777592927414105 L649.9806695894642 -175.68284004962914"/>
		<path opacity="0.75" fill="darkturquoise" d="M658.6409236273087 -178.18284004962914 L649.9806695894642 -175.68284004962914 L649.9806695894642 -2.4777592927414105 L658.6409236273087 -4.9777592927414105 L658.6409236273087 -178.18284004962914"/>
		<path opacity="0.75" fill="darkturquoise" d="M663.6409236273087 -173.85271303070695 L654.9806695894642 -171.35271303070695 L654.9806695894642 1.8523677261807734 L663.6409236273087 -0.6476322738192266 L663.6409236273087 -173.85271303070695"/>
		<path opacity="0.75" fill="darkturquoise" d="M658.6409236273087 -178.18284004962914 L663.6409236273087 -173.85271303070695 L654.9806695894642 -171.35271303070695 L649.9806695894642 -175.68284004962914 L658.6409236273087 -178.18284004962914"/>
		<path opacity="0.75" fill="darkturquoise" d="M658.6409236273087 -4.9777592927414105 L663.6409236273087 -0.6476322738192266 L654.9806695894642 1.8523677261807734 L649.9806695894642 -2.4777592927414105 L658.6409236273087 -4.9777592927414105"/>
		<text style="fill:black;font-family:calibri;font-size:6" x="649.9806695894642" y="-89.08029967118527" >200</text>
		<text style="fill:black;font-family:calibri;font-size:6" x="652.4806695894642" y="-0.31269578328031855" >10</text>
		<text style="fill:black;font-family:calibri;font-size:6" x="654.3107966083865" y="-176.93284004962914" >10</text>

<!-- Arrow -->
		<path opacity="0.5" stroke="black" d="M609.1793994002423 -74.41523616172418 L652.4806695894642 -86.91523616172418"/>
		<circle opacity="0.5" cx="652.4806695894642" cy="-86.91523616172418" r="1" fill="black" />
<!-- Arrow -->
		<path opacity="0.5" stroke="black" d="M180.5884572681199 -93.58587988004844 L273.3897274573418 -63.21762239271874"/>
		<circle opacity="0.5" cx="273.3897274573418" cy="-63.21762239271874" r="1" fill="black" />
		<path opacity="0.75" fill="darkturquoise" d="M385.44639935245965 -92.25977282098425 L387.9463993524597 -90.09470931152315 L387.9463993524597 -85.76458229260095 L385.44639935245965 -87.92964580206205 L385.44639935245965 -92.25977282098425"/>
		<path opacity="0.75" fill="darkturquoise" d="M274.59514766805154 -60.25977282098425 L277.09514766805154 -58.09470931152315 L277.09514766805154 -53.764582292600956 L274.59514766805154 -55.929645802062055 L274.59514766805154 -60.25977282098425"/>
		<path opacity="0.75" fill="darkturquoise" d="M385.44639935245965 -92.25977282098425 L274.59514766805154 -60.25977282098425 L274.59514766805154 -55.929645802062055 L385.44639935245965 -87.92964580206205 L385.44639935245965 -92.25977282098425"/>
		<path opacity="0.75" fill="darkturquoise" d="M387.9463993524597 -90.09470931152315 L277.09514766805154 -58.09470931152315 L277.09514766805154 -53.764582292600956 L387.9463993524597 -85.76458229260095 L387.9463993524597 -90.09470931152315"/>
		<path opacity="0.75" fill="darkturquoise" d="M385.44639935245965 -92.25977282098425 L387.9463993524597 -90.09470931152315 L277.09514766805154 -58.09470931152315 L274.59514766805154 -60.25977282098425 L385.44639935245965 -92.25977282098425"/>
		<path opacity="0.75" fill="darkturquoise" d="M385.44639935245965 -87.92964580206205 L387.9463993524597 -85.76458229260095 L277.09514766805154 -53.764582292600956 L274.59514766805154 -55.929645802062055 L385.44639935245965 -87.92964580206205"/>
		<path opacity="0.5" fill="orange" d="M378.24097914174996 -110.80607966083863 L390.24097914174996 -100.41377481542537 L390.24097914174996 -79.62916512459884 L378.24097914174996 -90.0214699700121 L378.24097914174996 -110.80607966083863"/>
		<path opacity="0.5" fill="orange" d="M267.3897274573418 -78.80607966083863 L279.3897274573418 -68.41377481542537 L279.3897274573418 -47.62916512459884 L267.3897274573418 -58.021469970012106 L267.3897274573418 -78.80607966083863"/>
		<path opacity="0.5" fill="orange" d="M378.24097914174996 -110.80607966083863 L267.3897274573418 -78.80607966083863 L267.3897274573418 -58.021469970012106 L378.24097914174996 -90.0214699700121 L378.24097914174996 -110.80607966083863"/>
		<path opacity="0.5" fill="orange" d="M390.24097914174996 -100.41377481542537 L279.3897274573418 -68.41377481542537 L279.3897274573418 -47.62916512459884 L390.24097914174996 -79.62916512459884 L390.24097914174996 -100.41377481542537"/>
		<path opacity="0.5" fill="orange" d="M378.24097914174996 -110.80607966083863 L390.24097914174996 -100.41377481542537 L279.3897274573418 -68.41377481542537 L267.3897274573418 -78.80607966083863 L378.24097914174996 -110.80607966083863"/>
		<path opacity="0.5" fill="orange" d="M378.24097914174996 -90.0214699700121 L390.24097914174996 -79.62916512459884 L279.3897274573418 -47.62916512459884 L267.3897274573418 -58.021469970012106 L378.24097914174996 -90.0214699700121"/>
		<text style="fill:black;font-family:calibri;font-size:6" x="267.3897274573418" y="-68.41377481542537" >24</text>
		<text style="fill:black;font-family:calibri;font-size:6" x="273.3897274573418" y="-52.825317547305474" >24</text>
		<text style="fill:black;font-family:calibri;font-size:6" x="322.8153532995459" y="-94.80607966083863" >128</text>

<!-- Arrow -->
		<path opacity="0.5" stroke="black" d="M328.8153532995459 -89.609927238132 L328.8153532995459 -132.91119742735395"/>
		<circle opacity="0.5" cx="328.8153532995459" cy="-132.91119742735395" r="1" fill="black" />
		<path opacity="0.75" fill="darkturquoise" d="M606.6793994002423 -163.18284004962914 L611.6793994002423 -158.85271303070695 L611.6793994002423 14.352367726180773 L606.6793994002423 10.02224070725859 L606.6793994002423 -163.18284004962914"/>
		<path opacity="0.75" fill="darkturquoise" d="M598.0191453623979 -160.68284004962914 L603.0191453623979 -156.35271303070695 L603.0191453623979 16.852367726180773 L598.0191453623979 12.52224070725859 L598.0191453623979 -160.68284004962914"/>
		<path opacity="0.75" fill="darkturquoise" d="M606.6793994002423 -163.18284004962914 L598.0191453623979 -160.68284004962914 L598.0191453623979 12.52224070725859 L606.6793994002423 10.02224070725859 L606.6793994002423 -163.18284004962914"/>
		<path opacity="0.75" fill="darkturquoise" d="M611.6793994002423 -158.85271303070695 L603.0191453623979 -156.35271303070695 L603.0191453623979 16.852367726180773 L611.6793994002423 14.352367726180773 L611.6793994002423 -158.85271303070695"/>
		<path opacity="0.75" fill="darkturquoise" d="M606.6793994002423 -163.18284004962914 L611.6793994002423 -158.85271303070695 L603.0191453623979 -156.35271303070695 L598.0191453623979 -160.68284004962914 L606.6793994002423 -163.18284004962914"/>
		<path opacity="0.75" fill="darkturquoise" d="M606.6793994002423 10.02224070725859 L611.6793994002423 14.352367726180773 L603.0191453623979 16.852367726180773 L598.0191453623979 12.52224070725859 L606.6793994002423 10.02224070725859"/>
		<text style="fill:black;font-family:calibri;font-size:6" x="598.0191453623979" y="-74.08029967118527" >200</text>
		<text style="fill:black;font-family:calibri;font-size:6" x="600.5191453623979" y="14.687304216719681" >10</text>
		<text style="fill:black;font-family:calibri;font-size:6" x="602.3492723813201" y="-161.93284004962914" >10</text>

		<path opacity="0.75" fill="darkturquoise" d="M606.6793994002423 -163.18284004962914 L611.6793994002423 -158.85271303070695 L611.6793994002423 14.352367726180773 L606.6793994002423 10.02224070725859 L606.6793994002423 -163.18284004962914"/>
		<path opacity="0.75" fill="darkturquoise" d="M598.0191453623979 -160.68284004962914 L603.0191453623979 -156.35271303070695 L603.0191453623979 16.852367726180773 L598.0191453623979 12.52224070725859 L598.0191453623979 -160.68284004962914"/>
		<path opacity="0.75" fill="darkturquoise" d="M606.6793994002423 -163.18284004962914 L598.0191453623979 -160.68284004962914 L598.0191453623979 12.52224070725859 L606.6793994002423 10.02224070725859 L606.6793994002423 -163.18284004962914"/>
		<path opacity="0.75" fill="darkturquoise" d="M611.6793994002423 -158.85271303070695 L603.0191453623979 -156.35271303070695 L603.0191453623979 16.852367726180773 L611.6793994002423 14.352367726180773 L611.6793994002423 -158.85271303070695"/>
		<path opacity="0.75" fill="darkturquoise" d="M606.6793994002423 -163.18284004962914 L611.6793994002423 -158.85271303070695 L603.0191453623979 -156.35271303070695 L598.0191453623979 -160.68284004962914 L606.6793994002423 -163.18284004962914"/>
		<path opacity="0.75" fill="darkturquoise" d="M606.6793994002423 10.02224070725859 L611.6793994002423 14.352367726180773 L603.0191453623979 16.852367726180773 L598.0191453623979 12.52224070725859 L606.6793994002423 10.02224070725859"/>
		<text style="fill:black;font-family:calibri;font-size:6" x="598.0191453623979" y="-74.08029967118527" >200</text>
		<text style="fill:black;font-family:calibri;font-size:6" x="600.5191453623979" y="14.687304216719681" >10</text>
		<text style="fill:black;font-family:calibri;font-size:6" x="602.3492723813201" y="-161.93284004962914" >10</text>

		<path opacity="0.75" fill="pink" d="M85.89872706922932 -63.7084469332859 L88.39872706922932 -61.54338342382481 L129.16268160978007 -74.82964415214269 L85.89872706922932 -63.7084469332859"/>
		<path opacity="0.75" fill="pink" d="M85.89872706922932 -63.7084469332859 L85.89872706922932 -59.3783199143637 L129.16268160978007 -74.82964415214269 L85.89872706922932 -63.7084469332859"/>
		<path opacity="0.75" fill="pink" d="M88.39872706922932 -61.54338342382481 L88.39872706922932 -57.21325640490261 L129.16268160978007 -74.82964415214269 L88.39872706922932 -61.54338342382481"/>
		<path opacity="0.75" fill="pink" d="M85.89872706922932 -59.3783199143637 L88.39872706922932 -57.21325640490261 L129.16268160978007 -74.82964415214269 L85.89872706922932 -59.3783199143637"/>

		<text style="fill:black;font-family:calibri;font-size:6" x="101.15337858274624" y="-73.7690455427143" >[5,5]</text>
<!-- Arrow -->
		<path opacity="0.5" stroke="black" d="M26.435935394489803 -106.2435565298214 L328.8153532995459 -132.91119742735395"/>
		<circle opacity="0.5" cx="328.8153532995459" cy="-132.91119742735395" r="1" fill="black" />
		<path opacity="0.75" fill="darkturquoise" d="M85.89872706922932 -63.7084469332859 L88.39872706922932 -61.54338342382481 L88.39872706922932 -57.21325640490261 L85.89872706922932 -59.3783199143637 L85.89872706922932 -63.7084469332859"/>
		<path opacity="0.75" fill="darkturquoise" d="M-24.95252461517879 -31.7084469332859 L-22.45252461517879 -29.543383423824807 L-22.45252461517879 -25.21325640490261 L-24.95252461517879 -27.3783199143637 L-24.95252461517879 -31.7084469332859"/>
		<path opacity="0.75" fill="darkturquoise" d="M85.89872706922932 -63.7084469332859 L-24.95252461517879 -31.7084469332859 L-24.95252461517879 -27.3783199143637 L85.89872706922932 -59.3783199143637 L85.89872706922932 -63.7084469332859"/>
		<path opacity="0.75" fill="darkturquoise" d="M88.39872706922932 -61.54338342382481 L-22.45252461517879 -29.543383423824807 L-22.45252461517879 -25.21325640490261 L88.39872706922932 -57.21325640490261 L88.39872706922932 -61.54338342382481"/>
		<path opacity="0.75" fill="darkturquoise" d="M85.89872706922932 -63.7084469332859 L88.39872706922932 -61.54338342382481 L-22.45252461517879 -29.543383423824807 L-24.95252461517879 -31.7084469332859 L85.89872706922932 -63.7084469332859"/>
		<path opacity="0.75" fill="darkturquoise" d="M85.89872706922932 -59.3783199143637 L88.39872706922932 -57.21325640490261 L-22.45252461517879 -25.21325640490261 L-24.95252461517879 -27.3783199143637 L85.89872706922932 -59.3783199143637"/>
		<path opacity="0.5" fill="orange" d="M73.86156123669386 -85.87048957087497 L89.86156123669389 -72.01408311032395 L89.86156123669389 -44.30127018922191 L73.86156123669386 -58.157676649772924 L73.86156123669386 -85.87048957087497"/>
		<path opacity="0.5" fill="orange" d="M-36.98969044771428 -53.870489570874966 L-20.98969044771428 -40.01408311032395 L-20.98969044771428 -12.30127018922191 L-36.98969044771428 -26.157676649772924 L-36.98969044771428 -53.870489570874966"/>
		<path opacity="0.5" fill="orange" d="M73.86156123669386 -85.87048957087497 L-36.98969044771428 -53.870489570874966 L-36.98969044771428 -26.157676649772924 L73.86156123669386 -58.157676649772924 L73.86156123669386 -85.87048957087497"/>
		<path opacity="0.5" fill="orange" d="M89.86156123669389 -72.01408311032395 L-20.98969044771428 -40.01408311032395 L-20.98969044771428 -12.30127018922191 L89.86156123669389 -44.30127018922191 L89.86156123669389 -72.01408311032395"/>
		<path opacity="0.5" fill="orange" d="M73.86156123669386 -85.87048957087497 L89.86156123669389 -72.01408311032395 L-20.98969044771428 -40.01408311032395 L-36.98969044771428 -53.870489570874966 L73.86156123669386 -85.87048957087497"/>
		<path opacity="0.5" fill="orange" d="M73.86156123669386 -58.157676649772924 L89.86156123669389 -44.30127018922191 L-20.98969044771428 -12.30127018922191 L-36.98969044771428 -26.157676649772924 L73.86156123669386 -58.157676649772924"/>
		<text style="fill:black;font-family:calibri;font-size:6" x="-36.98969044771428" y="-40.014083110323945" >32</text>
		<text style="fill:black;font-family:calibri;font-size:6" x="-28.98969044771428" y="-19.229473419497417" >32</text>
		<text style="fill:black;font-family:calibri;font-size:6" x="18.43593539448979" y="-69.87048957087497" >128</text>

<!-- Arrow -->
		<path opacity="0.5" stroke="black" d="M-105.29096063693623 -49.164718204934914 L-28.98969044771428 -33.08587988004844"/>
		<circle opacity="0.5" cx="-28.98969044771428" cy="-33.08587988004844" r="1" fill="black" />
		<path opacity="0.5" fill="orange" d="M-109.29096063693623 -59.55702305034818 L-101.29096063693623 -52.628819820072664 L-101.29096063693623 -38.77241335952165 L-109.29096063693623 -45.700616589797164 L-109.29096063693623 -59.55702305034818"/>
		<path opacity="0.5" fill="orange" d="M-164.71658647914023 -43.55702305034818 L-156.71658647914023 -36.628819820072664 L-156.71658647914023 -22.77241335952165 L-164.71658647914023 -29.700616589797164 L-164.71658647914023 -43.55702305034818"/>
		<path opacity="0.5" fill="orange" d="M-109.29096063693623 -59.55702305034818 L-164.71658647914023 -43.55702305034818 L-164.71658647914023 -29.700616589797164 L-109.29096063693623 -45.700616589797164 L-109.29096063693623 -59.55702305034818"/>
		<path opacity="0.5" fill="orange" d="M-101.29096063693623 -52.628819820072664 L-156.71658647914023 -36.628819820072664 L-156.71658647914023 -22.77241335952165 L-101.29096063693623 -38.77241335952165 L-101.29096063693623 -52.628819820072664"/>
		<path opacity="0.5" fill="orange" d="M-109.29096063693623 -59.55702305034818 L-101.29096063693623 -52.628819820072664 L-156.71658647914023 -36.628819820072664 L-164.71658647914023 -43.55702305034818 L-109.29096063693623 -59.55702305034818"/>
		<path opacity="0.5" fill="orange" d="M-109.29096063693623 -45.700616589797164 L-101.29096063693623 -38.77241335952165 L-156.71658647914023 -22.77241335952165 L-164.71658647914023 -29.700616589797164 L-109.29096063693623 -45.700616589797164"/>
		<text style="fill:black;font-family:calibri;font-size:6" x="-164.71658647914023" y="-36.62881982007267" >16</text>
		<text style="fill:black;font-family:calibri;font-size:6" x="-160.71658647914023" y="-26.236514974659407" >16</text>
		<text style="fill:black;font-family:calibri;font-size:6" x="-137.00377355803823" y="-51.55702305034818" >64</text>

<!-- Arrow -->
		<path opacity="0.5" stroke="black" d="M26.435935394489803 -62.942286340599466 L26.435935394489803 -106.2435565298214"/>
		<circle opacity="0.5" cx="26.435935394489803" cy="-106.2435565298214" r="1" fill="black" />
<!-- Arrow -->
		<path opacity="0.5" stroke="black" d="M-39.29096063693618 7.992958444838026 L600.5191453623979 -71.91523616172418"/>
		<circle opacity="0.5" cx="600.5191453623979" cy="-71.91523616172418" r="1" fill="black" />
<!-- Arrow -->
		<path opacity="0.5" stroke="black" d="M-39.29096063693618 7.992958444838026 L273.3897274573418 -63.21762239271874"/>
		<circle opacity="0.5" cx="273.3897274573418" cy="-63.21762239271874" r="1" fill="black" />
		<path opacity="0.75" fill="pink" d="M-202.64163080648416 -22.89821847090637 L-200.14163080648416 -20.73315496144528 L-163.892828453366 -40.53985113201331 L-202.64163080648416 -22.89821847090637"/>
		<path opacity="0.75" fill="pink" d="M-202.64163080648416 -22.89821847090637 L-202.64163080648416 -18.568091451984174 L-163.892828453366 -40.53985113201331 L-202.64163080648416 -22.89821847090637"/>
		<path opacity="0.75" fill="pink" d="M-200.14163080648416 -20.73315496144528 L-200.14163080648416 -16.40302794252308 L-163.892828453366 -40.53985113201331 L-200.14163080648416 -20.73315496144528"/>
		<path opacity="0.75" fill="pink" d="M-202.64163080648416 -18.568091451984174 L-200.14163080648416 -16.40302794252308 L-163.892828453366 -40.53985113201331 L-202.64163080648416 -18.568091451984174"/>

		<text style="fill:black;font-family:calibri;font-size:6" x="-188.89203002211147" y="-36.21903480145984" >[5,5]</text>
<!-- Arrow -->
		<path opacity="0.5" stroke="black" d="M125.43593539448983 36.65063509461097 L600.5191453623979 -71.91523616172418"/>
		<circle opacity="0.5" cx="600.5191453623979" cy="-71.91523616172418" r="1" fill="black" />
		<path opacity="0.75" fill="darkturquoise" d="M-202.64163080648416 -22.89821847090637 L-200.14163080648416 -20.73315496144528 L-200.14163080648416 -16.40302794252308 L-202.64163080648416 -18.568091451984174 L-202.64163080648416 -22.89821847090637"/>
		<path opacity="0.75" fill="darkturquoise" d="M-230.35444372758616 -14.898218470906372 L-227.85444372758616 -12.73315496144528 L-227.85444372758616 -8.403027942523082 L-230.35444372758616 -10.568091451984174 L-230.35444372758616 -14.898218470906372"/>
		<path opacity="0.75" fill="darkturquoise" d="M-202.64163080648416 -22.89821847090637 L-230.35444372758616 -14.898218470906372 L-230.35444372758616 -10.568091451984174 L-202.64163080648416 -18.568091451984174 L-202.64163080648416 -22.89821847090637"/>
		<path opacity="0.75" fill="darkturquoise" d="M-200.14163080648416 -20.73315496144528 L-227.85444372758616 -12.73315496144528 L-227.85444372758616 -8.403027942523082 L-200.14163080648416 -16.40302794252308 L-200.14163080648416 -20.73315496144528"/>
		<path opacity="0.75" fill="darkturquoise" d="M-202.64163080648416 -22.89821847090637 L-200.14163080648416 -20.73315496144528 L-227.85444372758616 -12.73315496144528 L-230.35444372758616 -14.898218470906372 L-202.64163080648416 -22.89821847090637"/>
		<path opacity="0.75" fill="darkturquoise" d="M-202.64163080648416 -18.568091451984174 L-200.14163080648416 -16.40302794252308 L-227.85444372758616 -8.403027942523082 L-230.35444372758616 -10.568091451984174 L-202.64163080648416 -18.568091451984174"/>
		<path opacity="0.5" fill="orange" d="M-212.01785666836224 -41.44932789576144 L-196.01785666836224 -27.592921435210428 L-196.01785666836224 0.11989148589161402 L-212.01785666836224 -13.7365149746594 L-212.01785666836224 -41.44932789576144"/>
		<path opacity="0.5" fill="orange" d="M-239.73066958946424 -33.44932789576144 L-223.73066958946424 -19.592921435210428 L-223.73066958946424 8.119891485891614 L-239.73066958946424 -5.7365149746594 L-239.73066958946424 -33.44932789576144"/>
		<path opacity="0.5" fill="orange" d="M-212.01785666836224 -41.44932789576144 L-239.73066958946424 -33.44932789576144 L-239.73066958946424 -5.7365149746594 L-212.01785666836224 -13.7365149746594 L-212.01785666836224 -41.44932789576144"/>
		<path opacity="0.5" fill="orange" d="M-196.01785666836224 -27.592921435210428 L-223.73066958946424 -19.592921435210428 L-223.73066958946424 8.119891485891614 L-196.01785666836224 0.11989148589161402 L-196.01785666836224 -27.592921435210428"/>
		<path opacity="0.5" fill="orange" d="M-212.01785666836224 -41.44932789576144 L-196.01785666836224 -27.592921435210428 L-223.73066958946424 -19.592921435210428 L-239.73066958946424 -33.44932789576144 L-212.01785666836224 -41.44932789576144"/>
		<path opacity="0.5" fill="orange" d="M-212.01785666836224 -13.7365149746594 L-196.01785666836224 0.11989148589161402 L-223.73066958946424 8.119891485891614 L-239.73066958946424 -5.7365149746594 L-212.01785666836224 -13.7365149746594"/>
		<text style="fill:black;font-family:calibri;font-size:6" x="-239.73066958946424" y="-19.59292143521042" >32</text>
		<text style="fill:black;font-family:calibri;font-size:6" x="-231.73066958946424" y="1.191688255616107" >32</text>
		<text style="fill:black;font-family:calibri;font-size:6" x="-225.87426312891324" y="-37.44932789576144" >32</text>

<!-- Arrow -->
		<path opacity="0.5" stroke="black" d="M125.43593539448983 36.65063509461097 L273.3897274573418 -63.21762239271874"/>
		<circle opacity="0.5" cx="273.3897274573418" cy="-63.21762239271874" r="1" fill="black" />
<!-- Arrow -->
		<path opacity="0.5" stroke="black" d="M-39.29096063693618 7.992958444838026 L-28.98969044771428 -33.08587988004844"/>
		<circle opacity="0.5" cx="-28.98969044771428" cy="-33.08587988004844" r="1" fill="black" />
<!-- Arrow -->
		<path opacity="0.5" stroke="black" d="M477.3153532995459 49.387150069270376 L600.5191453623979 -71.91523616172418"/>
		<circle opacity="0.5" cx="600.5191453623979" cy="-71.91523616172418" r="1" fill="black" />
		<path opacity="0.75" fill="pink" d="M-278.3921895975951 1.5874306616448735 L-273.3921895975951 5.917557680567057 L-236.87629109547237 -6.258130343835219 L-278.3921895975951 1.5874306616448735"/>
		<path opacity="0.75" fill="pink" d="M-278.3921895975951 1.5874306616448735 L-278.3921895975951 10.24768469948927 L-236.87629109547237 -6.258130343835219 L-278.3921895975951 1.5874306616448735"/>
		<path opacity="0.75" fill="pink" d="M-273.3921895975951 5.917557680567057 L-273.3921895975951 14.577811718411454 L-236.87629109547237 -6.258130343835219 L-273.3921895975951 5.917557680567057"/>
		<path opacity="0.75" fill="pink" d="M-278.3921895975951 10.24768469948927 L-273.3921895975951 14.577811718411454 L-236.87629109547237 -6.258130343835219 L-278.3921895975951 10.24768469948927"/>

		<text style="fill:black;font-family:calibri;font-size:6" x="-262.88689009688756" y="-6.835349841095173" >[10,10]</text>
		<path opacity="0.75" fill="darkturquoise" d="M-278.3921895975951 1.5874306616448735 L-273.3921895975951 5.917557680567057 L-273.3921895975951 14.577811718411454 L-278.3921895975951 10.24768469948927 L-278.3921895975951 1.5874306616448735"/>
		<path opacity="0.75" fill="darkturquoise" d="M-295.71269767328386 6.5874306616448735 L-290.71269767328386 10.917557680567057 L-290.71269767328386 19.577811718411454 L-295.71269767328386 15.24768469948927 L-295.71269767328386 6.5874306616448735"/>
		<path opacity="0.75" fill="darkturquoise" d="M-278.3921895975951 1.5874306616448735 L-295.71269767328386 6.5874306616448735 L-295.71269767328386 15.24768469948927 L-278.3921895975951 10.24768469948927 L-278.3921895975951 1.5874306616448735"/>
		<path opacity="0.75" fill="darkturquoise" d="M-273.3921895975951 5.917557680567057 L-290.71269767328386 10.917557680567057 L-290.71269767328386 19.577811718411454 L-273.3921895975951 14.577811718411454 L-273.3921895975951 5.917557680567057"/>
		<path opacity="0.75" fill="darkturquoise" d="M-278.3921895975951 1.5874306616448735 L-273.3921895975951 5.917557680567057 L-290.71269767328386 10.917557680567057 L-295.71269767328386 6.5874306616448735 L-278.3921895975951 1.5874306616448735"/>
		<path opacity="0.75" fill="darkturquoise" d="M-278.3921895975951 10.24768469948927 L-273.3921895975951 14.577811718411454 L-290.71269767328386 19.577811718411454 L-295.71269767328386 15.24768469948927 L-278.3921895975951 10.24768469948927"/>
		<path opacity="0.5" fill="lavender" d="M-283.03193977868614 -20.949327895761442 L-267.03193977868614 -7.092921435210428 L-267.03193977868614 20.619891485891614 L-283.03193977868614 6.7634850253406 L-283.03193977868614 -20.949327895761442"/>
		<path opacity="0.5" fill="lavender" d="M-300.352447854375 -15.949327895761442 L-284.352447854375 -2.092921435210428 L-284.352447854375 25.619891485891614 L-300.352447854375 11.7634850253406 L-300.352447854375 -15.949327895761442"/>
		<path opacity="0.5" fill="lavender" d="M-283.03193977868614 -20.949327895761442 L-300.352447854375 -15.949327895761442 L-300.352447854375 11.7634850253406 L-283.03193977868614 6.7634850253406 L-283.03193977868614 -20.949327895761442"/>
		<path opacity="0.5" fill="lavender" d="M-267.03193977868614 -7.092921435210428 L-284.352447854375 -2.092921435210428 L-284.352447854375 25.619891485891614 L-267.03193977868614 20.619891485891614 L-267.03193977868614 -7.092921435210428"/>
		<path opacity="0.5" fill="lavender" d="M-283.03193977868614 -20.949327895761442 L-267.03193977868614 -7.092921435210428 L-284.352447854375 -2.092921435210428 L-300.352447854375 -15.949327895761442 L-283.03193977868614 -20.949327895761442"/>
		<path opacity="0.5" fill="lavender" d="M-283.03193977868614 6.7634850253406 L-267.03193977868614 20.619891485891614 L-284.352447854375 25.619891485891614 L-300.352447854375 11.7634850253406 L-283.03193977868614 6.7634850253406"/>
		<text style="fill:black;font-family:calibri;font-size:6" x="-300.352447854375" y="-2.092921435210421" >32</text>
		<text style="fill:black;font-family:calibri;font-size:6" x="-292.352447854375" y="18.691688255616107" >32</text>
		<text style="fill:black;font-family:calibri;font-size:6" x="-291.69219381653056" y="-18.449327895761442" >20</text>

		<path opacity="0.5" fill="orange" d="M-43.29096063693618 -2.39934640057524 L-35.29096063693618 4.528856829700274 L-35.29096063693618 18.385263290251288 L-43.29096063693618 11.457060059975781 L-43.29096063693618 -2.39934640057524"/>
		<path opacity="0.5" fill="orange" d="M-98.71658647914023 13.60065359942476 L-90.71658647914023 20.528856829700274 L-90.71658647914023 34.38526329025129 L-98.71658647914023 27.45706005997578 L-98.71658647914023 13.60065359942476"/>
		<path opacity="0.5" fill="orange" d="M-43.29096063693618 -2.39934640057524 L-98.71658647914023 13.60065359942476 L-98.71658647914023 27.45706005997578 L-43.29096063693618 11.457060059975781 L-43.29096063693618 -2.39934640057524"/>
		<path opacity="0.5" fill="orange" d="M-35.29096063693618 4.528856829700274 L-90.71658647914023 20.528856829700274 L-90.71658647914023 34.38526329025129 L-35.29096063693618 18.385263290251288 L-35.29096063693618 4.528856829700274"/>
		<path opacity="0.5" fill="orange" d="M-43.29096063693618 -2.39934640057524 L-35.29096063693618 4.528856829700274 L-90.71658647914023 20.528856829700274 L-98.71658647914023 13.60065359942476 L-43.29096063693618 -2.39934640057524"/>
		<path opacity="0.5" fill="orange" d="M-43.29096063693618 11.457060059975781 L-35.29096063693618 18.385263290251288 L-90.71658647914023 34.38526329025129 L-98.71658647914023 27.45706005997578 L-43.29096063693618 11.457060059975781"/>
		<text style="fill:black;font-family:calibri;font-size:6" x="-98.71658647914023" y="20.52885682970027" >16</text>
		<text style="fill:black;font-family:calibri;font-size:6" x="-94.71658647914023" y="30.921161675113535" >16</text>
		<text style="fill:black;font-family:calibri;font-size:6" x="-71.0037735580382" y="5.60065359942476" >64</text>

		<path opacity="0.75" fill="pink" d="M-142.99550355635773 33.95952640968528 L-140.49550355635773 36.12458991914638 L-96.44842415851178 19.61154589137921 L-142.99550355635773 33.95952640968528"/>
		<path opacity="0.75" fill="pink" d="M-142.99550355635773 33.95952640968528 L-142.99550355635773 38.28965342860748 L-96.44842415851178 19.61154589137921 L-142.99550355635773 33.95952640968528"/>
		<path opacity="0.75" fill="pink" d="M-140.49550355635773 36.12458991914638 L-140.49550355635773 40.45471693806857 L-96.44842415851178 19.61154589137921 L-140.49550355635773 36.12458991914638"/>
		<path opacity="0.75" fill="pink" d="M-142.99550355635773 38.28965342860748 L-140.49550355635773 40.45471693806857 L-96.44842415851178 19.61154589137921 L-142.99550355635773 38.28965342860748"/>

		<text style="fill:black;font-family:calibri;font-size:6" x="-126.64647709040908" y="22.285536150532245" >[5,5]</text>
		<path opacity="0.75" fill="darkturquoise" d="M-142.99550355635773 33.95952640968528 L-140.49550355635773 36.12458991914638 L-140.49550355635773 40.45471693806857 L-142.99550355635773 38.28965342860748 L-142.99550355635773 33.95952640968528"/>
		<path opacity="0.75" fill="darkturquoise" d="M-170.70831647745973 41.95952640968528 L-168.20831647745973 44.12458991914639 L-168.20831647745973 48.45471693806857 L-170.70831647745973 46.28965342860748 L-170.70831647745973 41.95952640968528"/>
		<path opacity="0.75" fill="darkturquoise" d="M-142.99550355635773 33.95952640968528 L-170.70831647745973 41.95952640968528 L-170.70831647745973 46.28965342860748 L-142.99550355635773 38.28965342860748 L-142.99550355635773 33.95952640968528"/>
		<path opacity="0.75" fill="darkturquoise" d="M-140.49550355635773 36.12458991914638 L-168.20831647745973 44.12458991914639 L-168.20831647745973 48.45471693806857 L-140.49550355635773 40.45471693806857 L-140.49550355635773 36.12458991914638"/>
		<path opacity="0.75" fill="darkturquoise" d="M-142.99550355635773 33.95952640968528 L-140.49550355635773 36.12458991914638 L-168.20831647745973 44.12458991914639 L-170.70831647745973 41.95952640968528 L-142.99550355635773 33.95952640968528"/>
		<path opacity="0.75" fill="darkturquoise" d="M-142.99550355635773 38.28965342860748 L-140.49550355635773 40.45471693806857 L-168.20831647745973 48.45471693806857 L-170.70831647745973 46.28965342860748 L-142.99550355635773 38.28965342860748"/>
		<path opacity="0.5" fill="orange" d="M-146.01785666836219 15.708348754011496 L-130.01785666836219 29.564755214562517 L-130.01785666836219 57.27756813566455 L-146.01785666836219 43.42116167511354 L-146.01785666836219 15.708348754011496"/>
		<path opacity="0.5" fill="orange" d="M-173.73066958946418 23.708348754011496 L-157.73066958946418 37.56475521456252 L-157.73066958946418 65.27756813566455 L-173.73066958946418 51.42116167511354 L-173.73066958946418 23.708348754011496"/>
		<path opacity="0.5" fill="orange" d="M-146.01785666836219 15.708348754011496 L-173.73066958946418 23.708348754011496 L-173.73066958946418 51.42116167511354 L-146.01785666836219 43.42116167511354 L-146.01785666836219 15.708348754011496"/>
		<path opacity="0.5" fill="orange" d="M-130.01785666836219 29.564755214562517 L-157.73066958946418 37.56475521456252 L-157.73066958946418 65.27756813566455 L-130.01785666836219 57.27756813566455 L-130.01785666836219 29.564755214562517"/>
		<path opacity="0.5" fill="orange" d="M-146.01785666836219 15.708348754011496 L-130.01785666836219 29.564755214562517 L-157.73066958946418 37.56475521456252 L-173.73066958946418 23.708348754011496 L-146.01785666836219 15.708348754011496"/>
		<path opacity="0.5" fill="orange" d="M-146.01785666836219 43.42116167511354 L-130.01785666836219 57.27756813566455 L-157.73066958946418 65.27756813566455 L-173.73066958946418 51.42116167511354 L-146.01785666836219 43.42116167511354"/>
		<text style="fill:black;font-family:calibri;font-size:6" x="-173.73066958946418" y="37.56475521456252" >32</text>
		<text style="fill:black;font-family:calibri;font-size:6" x="-165.73066958946418" y="58.349364905389045" >32</text>
		<text style="fill:black;font-family:calibri;font-size:6" x="-159.87426312891319" y="19.708348754011496" >32</text>

		<path opacity="0.5" fill="orange" d="M123.43593539448983 31.45448267190433 L127.43593539448983 34.918584287042094 L127.43593539448983 41.84678751731761 L123.43593539448983 38.382685902179844 L123.43593539448983 31.45448267190433"/>
		<path opacity="0.5" fill="orange" d="M68.01030955228575 47.45448267190433 L72.01030955228575 50.918584287042094 L72.01030955228575 57.84678751731761 L68.01030955228575 54.382685902179844 L68.01030955228575 47.45448267190433"/>
		<path opacity="0.5" fill="orange" d="M123.43593539448983 31.45448267190433 L68.01030955228575 47.45448267190433 L68.01030955228575 54.382685902179844 L123.43593539448983 38.382685902179844 L123.43593539448983 31.45448267190433"/>
		<path opacity="0.5" fill="orange" d="M127.43593539448983 34.918584287042094 L72.01030955228575 50.918584287042094 L72.01030955228575 57.84678751731761 L127.43593539448983 41.84678751731761 L127.43593539448983 34.918584287042094"/>
		<path opacity="0.5" fill="orange" d="M123.43593539448983 31.45448267190433 L127.43593539448983 34.918584287042094 L72.01030955228575 50.918584287042094 L68.01030955228575 47.45448267190433 L123.43593539448983 31.45448267190433"/>
		<path opacity="0.5" fill="orange" d="M123.43593539448983 38.382685902179844 L127.43593539448983 41.84678751731761 L72.01030955228575 57.84678751731761 L68.01030955228575 54.382685902179844 L123.43593539448983 38.382685902179844"/>
		<text style="fill:black;font-family:calibri;font-size:6" x="68.01030955228575" y="50.91858428704209" >8</text>
		<text style="fill:black;font-family:calibri;font-size:6" x="70.01030955228575" y="56.114736709748726" >8</text>
		<text style="fill:black;font-family:calibri;font-size:6" x="95.72312247338779" y="39.45448267190433" >64</text>

		<path opacity="0.75" fill="pink" d="M-216.49376938412126 39.26663149169181 L-211.49376938412126 43.59675851061401 L-160.9393755767161 37.3600466922963 L-216.49376938412126 39.26663149169181"/>
		<path opacity="0.75" fill="pink" d="M-216.49376938412126 39.26663149169181 L-216.49376938412126 47.92688552953621 L-160.9393755767161 37.3600466922963 L-216.49376938412126 39.26663149169181"/>
		<path opacity="0.75" fill="pink" d="M-211.49376938412126 43.59675851061401 L-211.49376938412126 52.25701254845839 L-160.9393755767161 37.3600466922963 L-211.49376938412126 43.59675851061401"/>
		<path opacity="0.75" fill="pink" d="M-216.49376938412126 47.92688552953621 L-211.49376938412126 52.25701254845839 L-160.9393755767161 37.3600466922963 L-216.49376938412126 47.92688552953621"/>

		<text style="fill:black;font-family:calibri;font-size:6" x="-196.30897144831954" y="33.81333909199405" >[10,10]</text>
		<path opacity="0.5" fill="orange" d="M473.3153532995459 38.99484522385711 L481.3153532995459 45.923048454132626 L481.3153532995459 59.77945491468364 L473.3153532995459 52.851251684408126 L473.3153532995459 38.99484522385711"/>
		<path opacity="0.5" fill="orange" d="M417.88972745734185 54.99484522385711 L425.88972745734185 61.923048454132626 L425.88972745734185 75.77945491468364 L417.88972745734185 68.85125168440813 L417.88972745734185 54.99484522385711"/>
		<path opacity="0.5" fill="orange" d="M473.3153532995459 38.99484522385711 L417.88972745734185 54.99484522385711 L417.88972745734185 68.85125168440813 L473.3153532995459 52.851251684408126 L473.3153532995459 38.99484522385711"/>
		<path opacity="0.5" fill="orange" d="M481.3153532995459 45.923048454132626 L425.88972745734185 61.923048454132626 L425.88972745734185 75.77945491468364 L481.3153532995459 59.77945491468364 L481.3153532995459 45.923048454132626"/>
		<path opacity="0.5" fill="orange" d="M473.3153532995459 38.99484522385711 L481.3153532995459 45.923048454132626 L425.88972745734185 61.923048454132626 L417.88972745734185 54.99484522385711 L473.3153532995459 38.99484522385711"/>
		<path opacity="0.5" fill="orange" d="M473.3153532995459 52.851251684408126 L481.3153532995459 59.77945491468364 L425.88972745734185 75.77945491468364 L417.88972745734185 68.85125168440813 L473.3153532995459 52.851251684408126"/>
		<text style="fill:black;font-family:calibri;font-size:6" x="417.88972745734185" y="61.92304845413262" >16</text>
		<text style="fill:black;font-family:calibri;font-size:6" x="421.88972745734185" y="72.31535329954588" >16</text>
		<text style="fill:black;font-family:calibri;font-size:6" x="445.6025403784439" y="46.99484522385711" >64</text>

		<path opacity="0.75" fill="darkturquoise" d="M-216.49376938412126 39.26663149169181 L-211.49376938412126 43.59675851061401 L-211.49376938412126 52.25701254845839 L-216.49376938412126 47.92688552953621 L-216.49376938412126 39.26663149169181"/>
		<path opacity="0.75" fill="darkturquoise" d="M-233.8142774598101 44.26663149169181 L-228.8142774598101 48.59675851061401 L-228.8142774598101 57.25701254845839 L-233.8142774598101 52.92688552953621 L-233.8142774598101 44.26663149169181"/>
		<path opacity="0.75" fill="darkturquoise" d="M-216.49376938412126 39.26663149169181 L-233.8142774598101 44.26663149169181 L-233.8142774598101 52.92688552953621 L-216.49376938412126 47.92688552953621 L-216.49376938412126 39.26663149169181"/>
		<path opacity="0.75" fill="darkturquoise" d="M-211.49376938412126 43.59675851061401 L-228.8142774598101 48.59675851061401 L-228.8142774598101 57.25701254845839 L-211.49376938412126 52.25701254845839 L-211.49376938412126 43.59675851061401"/>
		<path opacity="0.75" fill="darkturquoise" d="M-216.49376938412126 39.26663149169181 L-211.49376938412126 43.59675851061401 L-228.8142774598101 48.59675851061401 L-233.8142774598101 44.26663149169181 L-216.49376938412126 39.26663149169181"/>
		<path opacity="0.75" fill="darkturquoise" d="M-216.49376938412126 47.92688552953621 L-211.49376938412126 52.25701254845839 L-228.8142774598101 57.25701254845839 L-233.8142774598101 52.92688552953621 L-216.49376938412126 47.92688552953621"/>
		<path opacity="0.5" fill="lavender" d="M-217.03193977868614 36.208348754011496 L-201.03193977868614 50.064755214562524 L-201.03193977868614 77.77756813566455 L-217.03193977868614 63.92116167511354 L-217.03193977868614 36.208348754011496"/>
		<path opacity="0.5" fill="lavender" d="M-234.35244785437493 41.208348754011496 L-218.35244785437493 55.064755214562524 L-218.35244785437493 82.77756813566455 L-234.35244785437493 68.92116167511354 L-234.35244785437493 41.208348754011496"/>
		<path opacity="0.5" fill="lavender" d="M-217.03193977868614 36.208348754011496 L-234.35244785437493 41.208348754011496 L-234.35244785437493 68.92116167511354 L-217.03193977868614 63.92116167511354 L-217.03193977868614 36.208348754011496"/>
		<path opacity="0.5" fill="lavender" d="M-201.03193977868614 50.064755214562524 L-218.35244785437493 55.064755214562524 L-218.35244785437493 82.77756813566455 L-201.03193977868614 77.77756813566455 L-201.03193977868614 50.064755214562524"/>
		<path opacity="0.5" fill="lavender" d="M-217.03193977868614 36.208348754011496 L-201.03193977868614 50.064755214562524 L-218.35244785437493 55.064755214562524 L-234.35244785437493 41.208348754011496 L-217.03193977868614 36.208348754011496"/>
		<path opacity="0.5" fill="lavender" d="M-217.03193977868614 63.92116167511354 L-201.03193977868614 77.77756813566455 L-218.35244785437493 82.77756813566455 L-234.35244785437493 68.92116167511354 L-217.03193977868614 63.92116167511354"/>
		<text style="fill:black;font-family:calibri;font-size:6" x="-234.35244785437493" y="55.06475521456252" >32</text>
		<text style="fill:black;font-family:calibri;font-size:6" x="-226.35244785437493" y="75.84936490538905" >32</text>
		<text style="fill:black;font-family:calibri;font-size:6" x="-225.69219381653053" y="38.708348754011496" >20</text>

		<path opacity="0.75" fill="pink" d="M27.141210220792857 61.40615313408513 L29.641210220792857 63.57121664354622 L71.76095184989435 53.77780512736865 L27.141210220792857 61.40615313408513"/>
		<path opacity="0.75" fill="pink" d="M27.141210220792857 61.40615313408513 L27.141210220792857 65.73628015300731 L71.76095184989435 53.77780512736865 L27.141210220792857 61.40615313408513"/>
		<path opacity="0.75" fill="pink" d="M29.641210220792857 63.57121664354622 L29.641210220792857 67.9013436624684 L71.76095184989435 53.77780512736865 L29.641210220792857 63.57121664354622"/>
		<path opacity="0.75" fill="pink" d="M27.141210220792857 65.73628015300731 L29.641210220792857 67.9013436624684 L71.76095184989435 53.77780512736865 L27.141210220792857 65.73628015300731"/>

		<text style="fill:black;font-family:calibri;font-size:6" x="42.84779076382669" y="53.09197913072689" >[5,5]</text>
		<path opacity="0.75" fill="darkturquoise" d="M27.141210220792857 61.40615313408513 L29.641210220792857 63.57121664354622 L29.641210220792857 67.9013436624684 L27.141210220792857 65.73628015300731 L27.141210220792857 61.40615313408513"/>
		<path opacity="0.75" fill="darkturquoise" d="M-28.2844156214112 77.40615313408513 L-25.7844156214112 79.57121664354622 L-25.7844156214112 83.9013436624684 L-28.2844156214112 81.73628015300731 L-28.2844156214112 77.40615313408513"/>
		<path opacity="0.75" fill="darkturquoise" d="M27.141210220792857 61.40615313408513 L-28.2844156214112 77.40615313408513 L-28.2844156214112 81.73628015300731 L27.141210220792857 65.73628015300731 L27.141210220792857 61.40615313408513"/>
		<path opacity="0.75" fill="darkturquoise" d="M29.641210220792857 63.57121664354622 L-25.7844156214112 79.57121664354622 L-25.7844156214112 83.9013436624684 L29.641210220792857 67.9013436624684 L29.641210220792857 63.57121664354622"/>
		<path opacity="0.75" fill="darkturquoise" d="M27.141210220792857 61.40615313408513 L29.641210220792857 63.57121664354622 L-25.7844156214112 79.57121664354622 L-28.2844156214112 77.40615313408513 L27.141210220792857 61.40615313408513"/>
		<path opacity="0.75" fill="darkturquoise" d="M27.141210220792857 65.73628015300731 L29.641210220792857 67.9013436624684 L-25.7844156214112 83.9013436624684 L-28.2844156214112 81.73628015300731 L27.141210220792857 65.73628015300731"/>
		<path opacity="0.5" fill="orange" d="M22.709039363063823 54.75833024919771 L30.709039363063823 61.68653347947321 L30.709039363063823 75.54293994002424 L22.709039363063823 68.61473670974873 L22.709039363063823 54.75833024919771"/>
		<path opacity="0.5" fill="orange" d="M-32.71658647914023 70.75833024919771 L-24.716586479140233 77.68653347947321 L-24.716586479140233 91.54293994002424 L-32.71658647914023 84.61473670974873 L-32.71658647914023 70.75833024919771"/>
		<path opacity="0.5" fill="orange" d="M22.709039363063823 54.75833024919771 L-32.71658647914023 70.75833024919771 L-32.71658647914023 84.61473670974873 L22.709039363063823 68.61473670974873 L22.709039363063823 54.75833024919771"/>
		<path opacity="0.5" fill="orange" d="M30.709039363063823 61.68653347947321 L-24.716586479140233 77.68653347947321 L-24.716586479140233 91.54293994002424 L30.709039363063823 75.54293994002424 L30.709039363063823 61.68653347947321"/>
		<path opacity="0.5" fill="orange" d="M22.709039363063823 54.75833024919771 L30.709039363063823 61.68653347947321 L-24.716586479140233 77.68653347947321 L-32.71658647914023 70.75833024919771 L22.709039363063823 54.75833024919771"/>
		<path opacity="0.5" fill="orange" d="M22.709039363063823 68.61473670974873 L30.709039363063823 75.54293994002424 L-24.716586479140233 91.54293994002424 L-32.71658647914023 84.61473670974873 L22.709039363063823 68.61473670974873"/>
		<text style="fill:black;font-family:calibri;font-size:6" x="-32.71658647914023" y="77.68653347947321" >16</text>
		<text style="fill:black;font-family:calibri;font-size:6" x="-28.716586479140233" y="88.07883832488648" >16</text>
		<text style="fill:black;font-family:calibri;font-size:6" x="-5.003773558038205" y="62.75833024919771" >64</text>

		<path opacity="0.75" fill="pink" d="M377.1691889920019 72.48980528788799 L379.6691889920019 74.65486879734908 L425.81874845203464 63.000957052916235 L377.1691889920019 72.48980528788799"/>
		<path opacity="0.75" fill="pink" d="M377.1691889920019 72.48980528788799 L377.1691889920019 76.81993230681019 L425.81874845203464 63.000957052916235 L377.1691889920019 72.48980528788799"/>
		<path opacity="0.75" fill="pink" d="M379.6691889920019 74.65486879734908 L379.6691889920019 78.98499581627127 L425.81874845203464 63.000957052916235 L379.6691889920019 74.65486879734908"/>
		<path opacity="0.75" fill="pink" d="M377.1691889920019 76.81993230681019 L379.6691889920019 78.98499581627127 L425.81874845203464 63.000957052916235 L377.1691889920019 76.81993230681019"/>

		<text style="fill:black;font-family:calibri;font-size:6" x="394.2190421453461" y="63.24538117040211" >[5,5]</text>
		<path opacity="0.75" fill="pink" d="M-71.61708265742186 99.11096792993413 L-69.11708265742186 101.27603143939523 L-26.12287151418252 80.46271381449118 L-71.61708265742186 99.11096792993413"/>
		<path opacity="0.75" fill="pink" d="M-71.61708265742186 99.11096792993413 L-71.61708265742186 103.44109494885632 L-26.12287151418252 80.46271381449118 L-71.61708265742186 99.11096792993413"/>
		<path opacity="0.75" fill="pink" d="M-69.11708265742186 101.27603143939523 L-69.11708265742186 105.60615845831742 L-26.12287151418252 80.46271381449118 L-69.11708265742186 101.27603143939523"/>
		<path opacity="0.75" fill="pink" d="M-71.61708265742186 103.44109494885632 L-69.11708265742186 105.60615845831742 L-26.12287151418252 80.46271381449118 L-71.61708265742186 103.44109494885632"/>

		<text style="fill:black;font-family:calibri;font-size:6" x="-55.61901227634208" y="85.28684087221265" >[5,5]</text>
		<path opacity="0.75" fill="darkturquoise" d="M377.1691889920019 72.48980528788799 L379.6691889920019 74.65486879734908 L379.6691889920019 78.98499581627127 L377.1691889920019 76.81993230681019 L377.1691889920019 72.48980528788799"/>
		<path opacity="0.75" fill="darkturquoise" d="M266.31793730759375 104.48980528788798 L268.81793730759375 106.65486879734908 L268.81793730759375 110.98499581627127 L266.31793730759375 108.81993230681019 L266.31793730759375 104.48980528788798"/>
		<path opacity="0.75" fill="darkturquoise" d="M377.1691889920019 72.48980528788799 L266.31793730759375 104.48980528788798 L266.31793730759375 108.81993230681019 L377.1691889920019 76.81993230681019 L377.1691889920019 72.48980528788799"/>
		<path opacity="0.75" fill="darkturquoise" d="M379.6691889920019 74.65486879734908 L268.81793730759375 106.65486879734908 L268.81793730759375 110.98499581627127 L379.6691889920019 78.98499581627127 L379.6691889920019 74.65486879734908"/>
		<path opacity="0.75" fill="darkturquoise" d="M377.1691889920019 72.48980528788799 L379.6691889920019 74.65486879734908 L268.81793730759375 106.65486879734908 L266.31793730759375 104.48980528788798 L377.1691889920019 72.48980528788799"/>
		<path opacity="0.75" fill="darkturquoise" d="M377.1691889920019 76.81993230681019 L379.6691889920019 78.98499581627127 L268.81793730759375 110.98499581627127 L266.31793730759375 108.81993230681019 L377.1691889920019 76.81993230681019"/>
		<path opacity="0.5" fill="orange" d="M374.5884572681199 67.49484522385711 L382.5884572681199 74.42304845413263 L382.5884572681199 88.27945491468364 L374.5884572681199 81.35125168440813 L374.5884572681199 67.49484522385711"/>
		<path opacity="0.5" fill="orange" d="M263.7372055837118 99.49484522385711 L271.7372055837118 106.42304845413264 L271.7372055837118 120.27945491468364 L263.7372055837118 113.35125168440811 L263.7372055837118 99.49484522385711"/>
		<path opacity="0.5" fill="orange" d="M374.5884572681199 67.49484522385711 L263.7372055837118 99.49484522385711 L263.7372055837118 113.35125168440811 L374.5884572681199 81.35125168440813 L374.5884572681199 67.49484522385711"/>
		<path opacity="0.5" fill="orange" d="M382.5884572681199 74.42304845413263 L271.7372055837118 106.42304845413264 L271.7372055837118 120.27945491468364 L382.5884572681199 88.27945491468364 L382.5884572681199 74.42304845413263"/>
		<path opacity="0.5" fill="orange" d="M374.5884572681199 67.49484522385711 L382.5884572681199 74.42304845413263 L271.7372055837118 106.42304845413264 L263.7372055837118 99.49484522385711 L374.5884572681199 67.49484522385711"/>
		<path opacity="0.5" fill="orange" d="M374.5884572681199 81.35125168440813 L382.5884572681199 88.27945491468364 L271.7372055837118 120.27945491468364 L263.7372055837118 113.35125168440811 L374.5884572681199 81.35125168440813"/>
		<text style="fill:black;font-family:calibri;font-size:6" x="263.7372055837118" y="106.42304845413261" >16</text>
		<text style="fill:black;font-family:calibri;font-size:6" x="267.7372055837118" y="116.81535329954588" >16</text>
		<text style="fill:black;font-family:calibri;font-size:6" x="319.16283142591584" y="83.49484522385711" >128</text>

		<path opacity="0.75" fill="darkturquoise" d="M-71.61708265742186 99.11096792993413 L-69.11708265742186 101.27603143939523 L-69.11708265742186 105.60615845831742 L-71.61708265742186 103.44109494885632 L-71.61708265742186 99.11096792993413"/>
		<path opacity="0.75" fill="darkturquoise" d="M-99.32989557852386 107.11096792993413 L-96.82989557852386 109.27603143939524 L-96.82989557852386 113.60615845831742 L-99.32989557852386 111.44109494885632 L-99.32989557852386 107.11096792993413"/>
		<path opacity="0.75" fill="darkturquoise" d="M-71.61708265742186 99.11096792993413 L-99.32989557852386 107.11096792993413 L-99.32989557852386 111.44109494885632 L-71.61708265742186 103.44109494885632 L-71.61708265742186 99.11096792993413"/>
		<path opacity="0.75" fill="darkturquoise" d="M-69.11708265742186 101.27603143939523 L-96.82989557852386 109.27603143939524 L-96.82989557852386 113.60615845831742 L-69.11708265742186 105.60615845831742 L-69.11708265742186 101.27603143939523"/>
		<path opacity="0.75" fill="darkturquoise" d="M-71.61708265742186 99.11096792993413 L-69.11708265742186 101.27603143939523 L-96.82989557852386 109.27603143939524 L-99.32989557852386 107.11096792993413 L-71.61708265742186 99.11096792993413"/>
		<path opacity="0.75" fill="darkturquoise" d="M-71.61708265742186 103.44109494885632 L-69.11708265742186 105.60615845831742 L-96.82989557852386 113.60615845831742 L-99.32989557852386 111.44109494885632 L-71.61708265742186 103.44109494885632"/>
		<path opacity="0.5" fill="orange" d="M-80.01785666836219 72.86602540378443 L-64.01785666836219 86.72243186433545 L-64.01785666836219 114.4352447854375 L-80.01785666836219 100.57883832488648 L-80.01785666836219 72.86602540378443"/>
		<path opacity="0.5" fill="orange" d="M-107.73066958946418 80.86602540378443 L-91.73066958946418 94.72243186433545 L-91.73066958946418 122.4352447854375 L-107.73066958946418 108.57883832488648 L-107.73066958946418 80.86602540378443"/>
		<path opacity="0.5" fill="orange" d="M-80.01785666836219 72.86602540378443 L-107.73066958946418 80.86602540378443 L-107.73066958946418 108.57883832488648 L-80.01785666836219 100.57883832488648 L-80.01785666836219 72.86602540378443"/>
		<path opacity="0.5" fill="orange" d="M-64.01785666836219 86.72243186433545 L-91.73066958946418 94.72243186433545 L-91.73066958946418 122.4352447854375 L-64.01785666836219 114.4352447854375 L-64.01785666836219 86.72243186433545"/>
		<path opacity="0.5" fill="orange" d="M-80.01785666836219 72.86602540378443 L-64.01785666836219 86.72243186433545 L-91.73066958946418 94.72243186433545 L-107.73066958946418 80.86602540378443 L-80.01785666836219 72.86602540378443"/>
		<path opacity="0.5" fill="orange" d="M-80.01785666836219 100.57883832488648 L-64.01785666836219 114.4352447854375 L-91.73066958946418 122.4352447854375 L-107.73066958946418 108.57883832488648 L-80.01785666836219 100.57883832488648"/>
		<text style="fill:black;font-family:calibri;font-size:6" x="-107.73066958946418" y="94.72243186433545" >32</text>
		<text style="fill:black;font-family:calibri;font-size:6" x="-99.73066958946418" y="115.50704155516199" >32</text>
		<text style="fill:black;font-family:calibri;font-size:6" x="-93.87426312891319" y="76.86602540378443" >32</text>

<!-- Arrow -->
		<path opacity="0.5" stroke="black" d="M191.43593539448983 93.8083117443839 L267.7372055837118 109.88715006927038"/>
		<circle opacity="0.5" cx="267.7372055837118" cy="109.88715006927038" r="1" fill="black" />
<!-- Arrow -->
		<path opacity="0.5" stroke="black" d="M323.16283142591584 86.95894683899488 L323.16283142591584 43.65767664977294"/>
		<circle opacity="0.5" cx="323.16283142591584" cy="43.65767664977294" r="1" fill="black" />
		<path opacity="0.5" fill="orange" d="M189.43593539448983 88.61215932167727 L193.43593539448983 92.07626093681503 L193.43593539448983 99.00446416709055 L189.43593539448983 95.54036255195278 L189.43593539448983 88.61215932167727"/>
		<path opacity="0.5" fill="orange" d="M134.01030955228578 104.61215932167727 L138.01030955228578 108.07626093681503 L138.01030955228578 115.00446416709053 L134.01030955228578 111.5403625519528 L134.01030955228578 104.61215932167727"/>
		<path opacity="0.5" fill="orange" d="M189.43593539448983 88.61215932167727 L134.01030955228578 104.61215932167727 L134.01030955228578 111.5403625519528 L189.43593539448983 95.54036255195278 L189.43593539448983 88.61215932167727"/>
		<path opacity="0.5" fill="orange" d="M193.43593539448983 92.07626093681503 L138.01030955228578 108.07626093681503 L138.01030955228578 115.00446416709053 L193.43593539448983 99.00446416709055 L193.43593539448983 92.07626093681503"/>
		<path opacity="0.5" fill="orange" d="M189.43593539448983 88.61215932167727 L193.43593539448983 92.07626093681503 L138.01030955228578 108.07626093681503 L134.01030955228578 104.61215932167727 L189.43593539448983 88.61215932167727"/>
		<path opacity="0.5" fill="orange" d="M189.43593539448983 95.54036255195278 L193.43593539448983 99.00446416709055 L138.01030955228578 115.00446416709053 L134.01030955228578 111.5403625519528 L189.43593539448983 95.54036255195278"/>
		<text style="fill:black;font-family:calibri;font-size:6" x="134.01030955228578" y="108.07626093681503" >8</text>
		<text style="fill:black;font-family:calibri;font-size:6" x="136.01030955228578" y="113.27241335952166" >8</text>
		<text style="fill:black;font-family:calibri;font-size:6" x="161.7231224733878" y="96.61215932167727" >64</text>

<!-- Arrow -->
		<path opacity="0.5" stroke="black" d="M163.72312247338778 98.34421012924615 L163.72312247338778 55.04293994002421"/>
		<circle opacity="0.5" cx="163.72312247338778" cy="55.04293994002421" r="1" fill="black" />
		<path opacity="0.75" fill="pink" d="M-143.03191948190647 116.00702614264821 L-138.03191948190647 120.3371531615704 L-98.99135190029557 110.71993574974829 L-143.03191948190647 116.00702614264821"/>
		<path opacity="0.75" fill="pink" d="M-143.03191948190647 116.00702614264821 L-143.03191948190647 124.66728018049258 L-98.99135190029557 110.71993574974829 L-143.03191948190647 116.00702614264821"/>
		<path opacity="0.75" fill="pink" d="M-138.03191948190647 120.3371531615704 L-138.03191948190647 128.9974071994148 L-98.99135190029557 110.71993574974829 L-138.03191948190647 120.3371531615704"/>
		<path opacity="0.75" fill="pink" d="M-143.03191948190647 124.66728018049258 L-138.03191948190647 128.9974071994148 L-98.99135190029557 110.71993574974829 L-143.03191948190647 124.66728018049258"/>

		<text style="fill:black;font-family:calibri;font-size:6" x="-126.68506362136951" y="108.86348094619825" >[10,10]</text>
<!-- Arrow -->
		<path opacity="0.5" stroke="black" d="M323.16283142591584 43.65767664977294 L163.72312247338778 55.04293994002421"/>
		<circle opacity="0.5" cx="163.72312247338778" cy="55.04293994002421" r="1" fill="black" />
		<path opacity="0.75" fill="darkturquoise" d="M-143.03191948190647 116.00702614264821 L-138.03191948190647 120.3371531615704 L-138.03191948190647 128.9974071994148 L-143.03191948190647 124.66728018049258 L-143.03191948190647 116.00702614264821"/>
		<path opacity="0.75" fill="darkturquoise" d="M-160.35242755759526 121.00702614264821 L-155.35242755759526 125.3371531615704 L-155.35242755759526 133.9974071994148 L-160.35242755759526 129.66728018049258 L-160.35242755759526 121.00702614264821"/>
		<path opacity="0.75" fill="darkturquoise" d="M-143.03191948190647 116.00702614264821 L-160.35242755759526 121.00702614264821 L-160.35242755759526 129.66728018049258 L-143.03191948190647 124.66728018049258 L-143.03191948190647 116.00702614264821"/>
		<path opacity="0.75" fill="darkturquoise" d="M-138.03191948190647 120.3371531615704 L-155.35242755759526 125.3371531615704 L-155.35242755759526 133.9974071994148 L-138.03191948190647 128.9974071994148 L-138.03191948190647 120.3371531615704"/>
		<path opacity="0.75" fill="darkturquoise" d="M-143.03191948190647 116.00702614264821 L-138.03191948190647 120.3371531615704 L-155.35242755759526 125.3371531615704 L-160.35242755759526 121.00702614264821 L-143.03191948190647 116.00702614264821"/>
		<path opacity="0.75" fill="darkturquoise" d="M-143.03191948190647 124.66728018049258 L-138.03191948190647 128.9974071994148 L-155.35242755759526 133.9974071994148 L-160.35242755759526 129.66728018049258 L-143.03191948190647 124.66728018049258"/>
		<path opacity="0.5" fill="lavender" d="M-151.03193977868614 93.36602540378443 L-135.03193977868614 107.22243186433545 L-135.03193977868614 134.9352447854375 L-151.03193977868614 121.07883832488648 L-151.03193977868614 93.36602540378443"/>
		<path opacity="0.5" fill="lavender" d="M-168.35244785437493 98.36602540378443 L-152.35244785437493 112.22243186433545 L-152.35244785437493 139.9352447854375 L-168.35244785437493 126.07883832488648 L-168.35244785437493 98.36602540378443"/>
		<path opacity="0.5" fill="lavender" d="M-151.03193977868614 93.36602540378443 L-168.35244785437493 98.36602540378443 L-168.35244785437493 126.07883832488648 L-151.03193977868614 121.07883832488648 L-151.03193977868614 93.36602540378443"/>
		<path opacity="0.5" fill="lavender" d="M-135.03193977868614 107.22243186433545 L-152.35244785437493 112.22243186433545 L-152.35244785437493 139.9352447854375 L-135.03193977868614 134.9352447854375 L-135.03193977868614 107.22243186433545"/>
		<path opacity="0.5" fill="lavender" d="M-151.03193977868614 93.36602540378443 L-135.03193977868614 107.22243186433545 L-152.35244785437493 112.22243186433545 L-168.35244785437493 98.36602540378443 L-151.03193977868614 93.36602540378443"/>
		<path opacity="0.5" fill="lavender" d="M-151.03193977868614 121.07883832488648 L-135.03193977868614 134.9352447854375 L-152.35244785437493 139.9352447854375 L-168.35244785437493 126.07883832488648 L-151.03193977868614 121.07883832488648"/>
		<text style="fill:black;font-family:calibri;font-size:6" x="-168.35244785437493" y="112.22243186433545" >32</text>
		<text style="fill:black;font-family:calibri;font-size:6" x="-160.35244785437493" y="133.007041555162" >32</text>
		<text style="fill:black;font-family:calibri;font-size:6" x="-159.69219381653053" y="95.86602540378443" >20</text>

		<path opacity="0.75" fill="pink" d="M91.99051054487416 115.36247539334164 L94.49051054487416 117.52753890280275 L137.3352800602612 107.7648783578179 L91.99051054487416 115.36247539334164"/>
		<path opacity="0.75" fill="pink" d="M91.99051054487416 115.36247539334164 L91.99051054487416 119.69260241226385 L137.3352800602612 107.7648783578179 L91.99051054487416 115.36247539334164"/>
		<path opacity="0.75" fill="pink" d="M94.49051054487416 117.52753890280275 L94.49051054487416 121.85766592172496 L137.3352800602612 107.7648783578179 L94.49051054487416 117.52753890280275"/>
		<path opacity="0.75" fill="pink" d="M91.99051054487416 119.69260241226385 L94.49051054487416 121.85766592172496 L137.3352800602612 107.7648783578179 L91.99051054487416 119.69260241226385"/>

		<text style="fill:black;font-family:calibri;font-size:6" x="107.93876705000316" y="107.06367687557977" >[5,5]</text>
<!-- Arrow -->
		<path opacity="0.5" stroke="black" d="M257.4359353944899 150.96598839415685 L267.7372055837118 109.88715006927038"/>
		<circle opacity="0.5" cx="267.7372055837118" cy="109.88715006927038" r="1" fill="black" />
		<path opacity="0.75" fill="darkturquoise" d="M91.99051054487416 115.36247539334164 L94.49051054487416 117.52753890280275 L94.49051054487416 121.85766592172496 L91.99051054487416 119.69260241226385 L91.99051054487416 115.36247539334164"/>
		<path opacity="0.75" fill="darkturquoise" d="M36.5648847026701 131.36247539334164 L39.0648847026701 133.52753890280275 L39.0648847026701 137.85766592172496 L36.5648847026701 135.69260241226385 L36.5648847026701 131.36247539334164"/>
		<path opacity="0.75" fill="darkturquoise" d="M91.99051054487416 115.36247539334164 L36.5648847026701 131.36247539334164 L36.5648847026701 135.69260241226385 L91.99051054487416 119.69260241226385 L91.99051054487416 115.36247539334164"/>
		<path opacity="0.75" fill="darkturquoise" d="M94.49051054487416 117.52753890280275 L39.0648847026701 133.52753890280275 L39.0648847026701 137.85766592172496 L94.49051054487416 121.85766592172496 L94.49051054487416 117.52753890280275"/>
		<path opacity="0.75" fill="darkturquoise" d="M91.99051054487416 115.36247539334164 L94.49051054487416 117.52753890280275 L39.0648847026701 133.52753890280275 L36.5648847026701 131.36247539334164 L91.99051054487416 115.36247539334164"/>
		<path opacity="0.75" fill="darkturquoise" d="M91.99051054487416 119.69260241226385 L94.49051054487416 121.85766592172496 L39.0648847026701 137.85766592172496 L36.5648847026701 135.69260241226385 L91.99051054487416 119.69260241226385"/>
		<path opacity="0.5" fill="orange" d="M88.70903936306382 111.91600689897064 L96.70903936306382 118.84421012924616 L96.70903936306382 132.70061658979716 L88.70903936306382 125.77241335952166 L88.70903936306382 111.91600689897064"/>
		<path opacity="0.5" fill="orange" d="M33.28341352085977 127.91600689897064 L41.28341352085977 134.84421012924616 L41.28341352085977 148.70061658979716 L33.28341352085977 141.77241335952166 L33.28341352085977 127.91600689897064"/>
		<path opacity="0.5" fill="orange" d="M88.70903936306382 111.91600689897064 L33.28341352085977 127.91600689897064 L33.28341352085977 141.77241335952166 L88.70903936306382 125.77241335952166 L88.70903936306382 111.91600689897064"/>
		<path opacity="0.5" fill="orange" d="M96.70903936306382 118.84421012924616 L41.28341352085977 134.84421012924616 L41.28341352085977 148.70061658979716 L96.70903936306382 132.70061658979716 L96.70903936306382 118.84421012924616"/>
		<path opacity="0.5" fill="orange" d="M88.70903936306382 111.91600689897064 L96.70903936306382 118.84421012924616 L41.28341352085977 134.84421012924616 L33.28341352085977 127.91600689897064 L88.70903936306382 111.91600689897064"/>
		<path opacity="0.5" fill="orange" d="M88.70903936306382 125.77241335952166 L96.70903936306382 132.70061658979716 L41.28341352085977 148.70061658979716 L33.28341352085977 141.77241335952166 L88.70903936306382 125.77241335952166"/>
		<text style="fill:black;font-family:calibri;font-size:6" x="33.28341352085977" y="134.84421012924616" >16</text>
		<text style="fill:black;font-family:calibri;font-size:6" x="37.28341352085977" y="145.23651497465943" >16</text>
		<text style="fill:black;font-family:calibri;font-size:6" x="60.996226441961795" y="119.91600689897064" >64</text>

		<path opacity="0.75" fill="pink" d="M-14.007053091549892 141.92329913031165 L-11.507053091549892 144.08836263977275 L36.561423892378286 135.3452126201016 L-14.007053091549892 141.92329913031165"/>
		<path opacity="0.75" fill="pink" d="M-14.007053091549892 141.92329913031165 L-14.007053091549892 146.25342614923386 L36.561423892378286 135.3452126201016 L-14.007053091549892 141.92329913031165"/>
		<path opacity="0.75" fill="pink" d="M-11.507053091549892 144.08836263977275 L-11.507053091549892 148.41848965869497 L36.561423892378286 135.3452126201016 L-11.507053091549892 144.08836263977275"/>
		<path opacity="0.75" fill="pink" d="M-14.007053091549892 146.25342614923386 L-11.507053091549892 148.41848965869497 L36.561423892378286 135.3452126201016 L-14.007053091549892 146.25342614923386"/>

		<text style="fill:black;font-family:calibri;font-size:6" x="3.6824392364261676" y="134.13425587520663" >[5,5]</text>
		<path opacity="0.75" fill="darkturquoise" d="M-14.007053091549892 141.92329913031165 L-11.507053091549892 144.08836263977275 L-11.507053091549892 148.41848965869497 L-14.007053091549892 146.25342614923386 L-14.007053091549892 141.92329913031165"/>
		<path opacity="0.75" fill="darkturquoise" d="M-41.71986601265189 149.92329913031165 L-39.21986601265189 152.08836263977275 L-39.21986601265189 156.41848965869497 L-41.71986601265189 154.25342614923386 L-41.71986601265189 149.92329913031165"/>
		<path opacity="0.75" fill="darkturquoise" d="M-14.007053091549892 141.92329913031165 L-41.71986601265189 149.92329913031165 L-41.71986601265189 154.25342614923386 L-14.007053091549892 146.25342614923386 L-14.007053091549892 141.92329913031165"/>
		<path opacity="0.75" fill="darkturquoise" d="M-11.507053091549892 144.08836263977275 L-39.21986601265189 152.08836263977275 L-39.21986601265189 156.41848965869497 L-11.507053091549892 148.41848965869497 L-11.507053091549892 144.08836263977275"/>
		<path opacity="0.75" fill="darkturquoise" d="M-14.007053091549892 141.92329913031165 L-11.507053091549892 144.08836263977275 L-39.21986601265189 152.08836263977275 L-41.71986601265189 149.92329913031165 L-14.007053091549892 141.92329913031165"/>
		<path opacity="0.75" fill="darkturquoise" d="M-14.007053091549892 146.25342614923386 L-11.507053091549892 148.41848965869497 L-39.21986601265189 156.41848965869497 L-41.71986601265189 154.25342614923386 L-14.007053091549892 146.25342614923386"/>
		<path opacity="0.5" fill="orange" d="M-14.017856668362185 130.02370205355737 L1.9821433316378148 143.8801085141084 L1.9821433316378148 171.59292143521043 L-14.017856668362185 157.73651497465943 L-14.017856668362185 130.02370205355737"/>
		<path opacity="0.5" fill="orange" d="M-41.730669589464185 138.02370205355737 L-25.730669589464185 151.8801085141084 L-25.730669589464185 179.59292143521043 L-41.730669589464185 165.73651497465943 L-41.730669589464185 138.02370205355737"/>
		<path opacity="0.5" fill="orange" d="M-14.017856668362185 130.02370205355737 L-41.730669589464185 138.02370205355737 L-41.730669589464185 165.73651497465943 L-14.017856668362185 157.73651497465943 L-14.017856668362185 130.02370205355737"/>
		<path opacity="0.5" fill="orange" d="M1.9821433316378148 143.8801085141084 L-25.730669589464185 151.8801085141084 L-25.730669589464185 179.59292143521043 L1.9821433316378148 171.59292143521043 L1.9821433316378148 143.8801085141084"/>
		<path opacity="0.5" fill="orange" d="M-14.017856668362185 130.02370205355737 L1.9821433316378148 143.8801085141084 L-25.730669589464185 151.8801085141084 L-41.730669589464185 138.02370205355737 L-14.017856668362185 130.02370205355737"/>
		<path opacity="0.5" fill="orange" d="M-14.017856668362185 157.73651497465943 L1.9821433316378148 171.59292143521043 L-25.730669589464185 179.59292143521043 L-41.730669589464185 165.73651497465943 L-14.017856668362185 157.73651497465943"/>
		<text style="fill:black;font-family:calibri;font-size:6" x="-41.730669589464185" y="151.8801085141084" >32</text>
		<text style="fill:black;font-family:calibri;font-size:6" x="-33.730669589464185" y="172.66471820493493" >32</text>
		<text style="fill:black;font-family:calibri;font-size:6" x="-27.874263128913185" y="134.02370205355737" >32</text>

		<path opacity="0.5" fill="orange" d="M255.43593539448986 145.76983597145022 L259.4359353944899 149.23393758658796 L259.4359353944899 156.16214081686348 L255.43593539448986 152.69803920172572 L255.43593539448986 145.76983597145022"/>
		<path opacity="0.5" fill="orange" d="M200.01030955228578 161.76983597145022 L204.01030955228578 165.23393758658796 L204.01030955228578 172.16214081686348 L200.01030955228578 168.69803920172572 L200.01030955228578 161.76983597145022"/>
		<path opacity="0.5" fill="orange" d="M255.43593539448986 145.76983597145022 L200.01030955228578 161.76983597145022 L200.01030955228578 168.69803920172572 L255.43593539448986 152.69803920172572 L255.43593539448986 145.76983597145022"/>
		<path opacity="0.5" fill="orange" d="M259.4359353944899 149.23393758658796 L204.01030955228578 165.23393758658796 L204.01030955228578 172.16214081686348 L259.4359353944899 156.16214081686348 L259.4359353944899 149.23393758658796"/>
		<path opacity="0.5" fill="orange" d="M255.43593539448986 145.76983597145022 L259.4359353944899 149.23393758658796 L204.01030955228578 165.23393758658796 L200.01030955228578 161.76983597145022 L255.43593539448986 145.76983597145022"/>
		<path opacity="0.5" fill="orange" d="M255.43593539448986 152.69803920172572 L259.4359353944899 156.16214081686348 L204.01030955228578 172.16214081686348 L200.01030955228578 168.69803920172572 L255.43593539448986 152.69803920172572"/>
		<text style="fill:black;font-family:calibri;font-size:6" x="200.01030955228578" y="165.23393758658796" >8</text>
		<text style="fill:black;font-family:calibri;font-size:6" x="202.01030955228578" y="170.4300900092946" >8</text>
		<text style="fill:black;font-family:calibri;font-size:6" x="227.72312247338783" y="153.76983597145022" >64</text>

		<path opacity="0.75" fill="pink" d="M-74.3805116870476 161.58866779582513 L-69.3805116870476 165.91879481474732 L-31.4810739249927 153.5108710652991 L-74.3805116870476 161.58866779582513"/>
		<path opacity="0.75" fill="pink" d="M-74.3805116870476 161.58866779582513 L-74.3805116870476 170.2489218336695 L-31.4810739249927 153.5108710652991 L-74.3805116870476 161.58866779582513"/>
		<path opacity="0.75" fill="pink" d="M-69.3805116870476 165.91879481474732 L-69.3805116870476 174.5790488525917 L-31.4810739249927 153.5108710652991 L-69.3805116870476 165.91879481474732"/>
		<path opacity="0.75" fill="pink" d="M-74.3805116870476 170.2489218336695 L-69.3805116870476 174.5790488525917 L-31.4810739249927 153.5108710652991 L-74.3805116870476 170.2489218336695"/>

		<text style="fill:black;font-family:calibri;font-size:6" x="-58.4140324330293" y="153.04976943056212" >[10,10]</text>
		<path opacity="0.75" fill="darkturquoise" d="M-74.3805116870476 161.58866779582513 L-69.3805116870476 165.91879481474732 L-69.3805116870476 174.5790488525917 L-74.3805116870476 170.2489218336695 L-74.3805116870476 161.58866779582513"/>
		<path opacity="0.75" fill="darkturquoise" d="M-91.7010197627364 166.58866779582513 L-86.7010197627364 170.91879481474732 L-86.7010197627364 179.5790488525917 L-91.7010197627364 175.2489218336695 L-91.7010197627364 166.58866779582513"/>
		<path opacity="0.75" fill="darkturquoise" d="M-74.3805116870476 161.58866779582513 L-91.7010197627364 166.58866779582513 L-91.7010197627364 175.2489218336695 L-74.3805116870476 170.2489218336695 L-74.3805116870476 161.58866779582513"/>
		<path opacity="0.75" fill="darkturquoise" d="M-69.3805116870476 165.91879481474732 L-86.7010197627364 170.91879481474732 L-86.7010197627364 179.5790488525917 L-69.3805116870476 174.5790488525917 L-69.3805116870476 165.91879481474732"/>
		<path opacity="0.75" fill="darkturquoise" d="M-74.3805116870476 161.58866779582513 L-69.3805116870476 165.91879481474732 L-86.7010197627364 170.91879481474732 L-91.7010197627364 166.58866779582513 L-74.3805116870476 161.58866779582513"/>
		<path opacity="0.75" fill="darkturquoise" d="M-74.3805116870476 170.2489218336695 L-69.3805116870476 174.5790488525917 L-86.7010197627364 179.5790488525917 L-91.7010197627364 175.2489218336695 L-74.3805116870476 170.2489218336695"/>
		<path opacity="0.5" fill="lavender" d="M-85.03193977868614 150.52370205355737 L-69.03193977868614 164.3801085141084 L-69.03193977868614 192.09292143521043 L-85.03193977868614 178.23651497465943 L-85.03193977868614 150.52370205355737"/>
		<path opacity="0.5" fill="lavender" d="M-102.35244785437493 155.52370205355737 L-86.35244785437493 169.3801085141084 L-86.35244785437493 197.09292143521043 L-102.35244785437493 183.23651497465943 L-102.35244785437493 155.52370205355737"/>
		<path opacity="0.5" fill="lavender" d="M-85.03193977868614 150.52370205355737 L-102.35244785437493 155.52370205355737 L-102.35244785437493 183.23651497465943 L-85.03193977868614 178.23651497465943 L-85.03193977868614 150.52370205355737"/>
		<path opacity="0.5" fill="lavender" d="M-69.03193977868614 164.3801085141084 L-86.35244785437493 169.3801085141084 L-86.35244785437493 197.09292143521043 L-69.03193977868614 192.09292143521043 L-69.03193977868614 164.3801085141084"/>
		<path opacity="0.5" fill="lavender" d="M-85.03193977868614 150.52370205355737 L-69.03193977868614 164.3801085141084 L-86.35244785437493 169.3801085141084 L-102.35244785437493 155.52370205355737 L-85.03193977868614 150.52370205355737"/>
		<path opacity="0.5" fill="lavender" d="M-85.03193977868614 178.23651497465943 L-69.03193977868614 192.09292143521043 L-86.35244785437493 197.09292143521043 L-102.35244785437493 183.23651497465943 L-85.03193977868614 178.23651497465943"/>
		<text style="fill:black;font-family:calibri;font-size:6" x="-102.35244785437493" y="169.3801085141084" >32</text>
		<text style="fill:black;font-family:calibri;font-size:6" x="-94.35244785437493" y="190.16471820493493" >32</text>
		<text style="fill:black;font-family:calibri;font-size:6" x="-93.69219381653053" y="153.02370205355737" >20</text>

		<path opacity="0.75" fill="pink" d="M158.0680962125543 173.9465519088913 L160.5680962125543 176.11161541835241 L203.6798113286448 170.06732822055827 L158.0680962125543 173.9465519088913"/>
		<path opacity="0.75" fill="pink" d="M158.0680962125543 173.9465519088913 L158.0680962125543 178.2766789278135 L203.6798113286448 170.06732822055827 L158.0680962125543 173.9465519088913"/>
		<path opacity="0.75" fill="pink" d="M160.5680962125543 176.11161541835241 L160.5680962125543 180.4417424372746 L203.6798113286448 170.06732822055827 L160.5680962125543 176.11161541835241"/>
		<path opacity="0.75" fill="pink" d="M158.0680962125543 178.2766789278135 L160.5680962125543 180.4417424372746 L203.6798113286448 170.06732822055827 L158.0680962125543 178.2766789278135"/>

		<text style="fill:black;font-family:calibri;font-size:6" x="174.10533458458448" y="167.5069400647248" >[5,5]</text>
		<path opacity="0.75" fill="darkturquoise" d="M158.0680962125543 173.9465519088913 L160.5680962125543 176.11161541835241 L160.5680962125543 180.4417424372746 L158.0680962125543 178.2766789278135 L158.0680962125543 173.9465519088913"/>
		<path opacity="0.75" fill="darkturquoise" d="M102.64247037035025 189.9465519088913 L105.14247037035025 192.11161541835241 L105.14247037035025 196.4417424372746 L102.64247037035025 194.2766789278135 L102.64247037035025 189.9465519088913"/>
		<path opacity="0.75" fill="darkturquoise" d="M158.0680962125543 173.9465519088913 L102.64247037035025 189.9465519088913 L102.64247037035025 194.2766789278135 L158.0680962125543 178.2766789278135 L158.0680962125543 173.9465519088913"/>
		<path opacity="0.75" fill="darkturquoise" d="M160.5680962125543 176.11161541835241 L105.14247037035025 192.11161541835241 L105.14247037035025 196.4417424372746 L160.5680962125543 180.4417424372746 L160.5680962125543 176.11161541835241"/>
		<path opacity="0.75" fill="darkturquoise" d="M158.0680962125543 173.9465519088913 L160.5680962125543 176.11161541835241 L105.14247037035025 192.11161541835241 L102.64247037035025 189.9465519088913 L158.0680962125543 173.9465519088913"/>
		<path opacity="0.75" fill="darkturquoise" d="M158.0680962125543 178.2766789278135 L160.5680962125543 180.4417424372746 L105.14247037035025 196.4417424372746 L102.64247037035025 194.2766789278135 L158.0680962125543 178.2766789278135"/>
		<path opacity="0.5" fill="orange" d="M154.70903936306385 169.0736835487436 L162.70903936306385 176.0018867790191 L162.70903936306385 189.85829323957012 L154.70903936306385 182.9300900092946 L154.70903936306385 169.0736835487436"/>
		<path opacity="0.5" fill="orange" d="M99.2834135208598 185.0736835487436 L107.2834135208598 192.0018867790191 L107.2834135208598 205.85829323957012 L99.2834135208598 198.9300900092946 L99.2834135208598 185.0736835487436"/>
		<path opacity="0.5" fill="orange" d="M154.70903936306385 169.0736835487436 L99.2834135208598 185.0736835487436 L99.2834135208598 198.9300900092946 L154.70903936306385 182.9300900092946 L154.70903936306385 169.0736835487436"/>
		<path opacity="0.5" fill="orange" d="M162.70903936306385 176.0018867790191 L107.2834135208598 192.0018867790191 L107.2834135208598 205.85829323957012 L162.70903936306385 189.85829323957012 L162.70903936306385 176.0018867790191"/>
		<path opacity="0.5" fill="orange" d="M154.70903936306385 169.0736835487436 L162.70903936306385 176.0018867790191 L107.2834135208598 192.0018867790191 L99.2834135208598 185.0736835487436 L154.70903936306385 169.0736835487436"/>
		<path opacity="0.5" fill="orange" d="M154.70903936306385 182.9300900092946 L162.70903936306385 189.85829323957012 L107.2834135208598 205.85829323957012 L99.2834135208598 198.9300900092946 L154.70903936306385 182.9300900092946"/>
		<text style="fill:black;font-family:calibri;font-size:6" x="99.2834135208598" y="192.0018867790191" >16</text>
		<text style="fill:black;font-family:calibri;font-size:6" x="103.2834135208598" y="202.39419162443235" >16</text>
		<text style="fill:black;font-family:calibri;font-size:6" x="126.99622644196182" y="177.0736835487436" >64</text>

		<path opacity="0.75" fill="pink" d="M52.256174092378984 192.89007396161236 L54.756174092378984 195.05513747107346 L101.59121074670375 188.49586963146493 L52.256174092378984 192.89007396161236"/>
		<path opacity="0.75" fill="pink" d="M52.256174092378984 192.89007396161236 L52.256174092378984 197.22020098053457 L101.59121074670375 188.49586963146493 L52.256174092378984 192.89007396161236"/>
		<path opacity="0.75" fill="pink" d="M54.756174092378984 195.05513747107346 L54.756174092378984 199.38526448999568 L101.59121074670375 188.49586963146493 L54.756174092378984 195.05513747107346"/>
		<path opacity="0.75" fill="pink" d="M52.256174092378984 197.22020098053457 L54.756174092378984 199.38526448999568 L101.59121074670375 188.49586963146493 L52.256174092378984 197.22020098053457"/>

		<text style="fill:black;font-family:calibri;font-size:6" x="69.53451964382057" y="186.19297179653864" >[5,5]</text>
		<path opacity="0.75" fill="darkturquoise" d="M52.256174092378984 192.89007396161236 L54.756174092378984 195.05513747107346 L54.756174092378984 199.38526448999568 L52.256174092378984 197.22020098053457 L52.256174092378984 192.89007396161236"/>
		<path opacity="0.75" fill="darkturquoise" d="M24.543361171276985 200.89007396161236 L27.043361171276985 203.05513747107346 L27.043361171276985 207.38526448999568 L24.543361171276985 205.22020098053457 L24.543361171276985 200.89007396161236"/>
		<path opacity="0.75" fill="darkturquoise" d="M52.256174092378984 192.89007396161236 L24.543361171276985 200.89007396161236 L24.543361171276985 205.22020098053457 L52.256174092378984 197.22020098053457 L52.256174092378984 192.89007396161236"/>
		<path opacity="0.75" fill="darkturquoise" d="M54.756174092378984 195.05513747107346 L27.043361171276985 203.05513747107346 L27.043361171276985 207.38526448999568 L54.756174092378984 199.38526448999568 L54.756174092378984 195.05513747107346"/>
		<path opacity="0.75" fill="darkturquoise" d="M52.256174092378984 192.89007396161236 L54.756174092378984 195.05513747107346 L27.043361171276985 203.05513747107346 L24.543361171276985 200.89007396161236 L52.256174092378984 192.89007396161236"/>
		<path opacity="0.75" fill="darkturquoise" d="M52.256174092378984 197.22020098053457 L54.756174092378984 199.38526448999568 L27.043361171276985 207.38526448999568 L24.543361171276985 205.22020098053457 L52.256174092378984 197.22020098053457"/>
		<path opacity="0.5" fill="orange" d="M51.98214333163784 187.18137870333032 L67.98214333163784 201.03778516388132 L67.98214333163784 228.75059808498338 L51.98214333163784 214.89419162443238 L51.98214333163784 187.18137870333032"/>
		<path opacity="0.5" fill="orange" d="M24.269330410535844 195.18137870333032 L40.269330410535844 209.03778516388132 L40.269330410535844 236.75059808498338 L24.269330410535844 222.89419162443238 L24.269330410535844 195.18137870333032"/>
		<path opacity="0.5" fill="orange" d="M51.98214333163784 187.18137870333032 L24.269330410535844 195.18137870333032 L24.269330410535844 222.89419162443238 L51.98214333163784 214.89419162443238 L51.98214333163784 187.18137870333032"/>
		<path opacity="0.5" fill="orange" d="M67.98214333163784 201.03778516388132 L40.269330410535844 209.03778516388132 L40.269330410535844 236.75059808498338 L67.98214333163784 228.75059808498338 L67.98214333163784 201.03778516388132"/>
		<path opacity="0.5" fill="orange" d="M51.98214333163784 187.18137870333032 L67.98214333163784 201.03778516388132 L40.269330410535844 209.03778516388132 L24.269330410535844 195.18137870333032 L51.98214333163784 187.18137870333032"/>
		<path opacity="0.5" fill="orange" d="M51.98214333163784 214.89419162443238 L67.98214333163784 228.75059808498338 L40.269330410535844 236.75059808498338 L24.269330410535844 222.89419162443238 L51.98214333163784 214.89419162443238"/>
		<text style="fill:black;font-family:calibri;font-size:6" x="24.269330410535844" y="209.03778516388135" >32</text>
		<text style="fill:black;font-family:calibri;font-size:6" x="32.269330410535844" y="229.82239485470788" >32</text>
		<text style="fill:black;font-family:calibri;font-size:6" x="38.12573687108684" y="191.18137870333032" >32</text>

		<path opacity="0.75" fill="pink" d="M-15.394448869438406 215.99958249863107 L-10.394448869438406 220.32970951755325 L35.14695061540678 209.08984691043997 L-15.394448869438406 215.99958249863107"/>
		<path opacity="0.75" fill="pink" d="M-15.394448869438406 215.99958249863107 L-15.394448869438406 224.65983653647547 L35.14695061540678 209.08984691043997 L-15.394448869438406 215.99958249863107"/>
		<path opacity="0.75" fill="pink" d="M-10.394448869438406 220.32970951755325 L-10.394448869438406 228.98996355539765 L35.14695061540678 209.08984691043997 L-10.394448869438406 220.32970951755325"/>
		<path opacity="0.75" fill="pink" d="M-15.394448869438406 224.65983653647547 L-10.394448869438406 228.98996355539765 L35.14695061540678 209.08984691043997 L-15.394448869438406 224.65983653647547"/>

		<text style="fill:black;font-family:calibri;font-size:6" x="3.1193509588433224" y="208.04471470453552" >[10,10]</text>
		<path opacity="0.75" fill="darkturquoise" d="M-15.394448869438406 215.99958249863107 L-10.394448869438406 220.32970951755325 L-10.394448869438406 228.98996355539765 L-15.394448869438406 224.65983653647547 L-15.394448869438406 215.99958249863107"/>
		<path opacity="0.75" fill="darkturquoise" d="M-32.714956945127255 220.99958249863107 L-27.714956945127255 225.32970951755325 L-27.714956945127255 233.98996355539765 L-32.714956945127255 229.65983653647547 L-32.714956945127255 220.99958249863107"/>
		<path opacity="0.75" fill="darkturquoise" d="M-15.394448869438406 215.99958249863107 L-32.714956945127255 220.99958249863107 L-32.714956945127255 229.65983653647547 L-15.394448869438406 224.65983653647547 L-15.394448869438406 215.99958249863107"/>
		<path opacity="0.75" fill="darkturquoise" d="M-10.394448869438406 220.32970951755325 L-27.714956945127255 225.32970951755325 L-27.714956945127255 233.98996355539765 L-10.394448869438406 228.98996355539765 L-10.394448869438406 220.32970951755325"/>
		<path opacity="0.75" fill="darkturquoise" d="M-15.394448869438406 215.99958249863107 L-10.394448869438406 220.32970951755325 L-27.714956945127255 225.32970951755325 L-32.714956945127255 220.99958249863107 L-15.394448869438406 215.99958249863107"/>
		<path opacity="0.75" fill="darkturquoise" d="M-15.394448869438406 224.65983653647547 L-10.394448869438406 228.98996355539765 L-27.714956945127255 233.98996355539765 L-32.714956945127255 229.65983653647547 L-15.394448869438406 224.65983653647547"/>
		<path opacity="0.5" fill="lavender" d="M-19.031939778686137 207.68137870333032 L-3.0319397786861373 221.53778516388132 L-3.0319397786861373 249.25059808498338 L-19.031939778686137 235.39419162443238 L-19.031939778686137 207.68137870333032"/>
		<path opacity="0.5" fill="lavender" d="M-36.35244785437487 212.68137870333032 L-20.352447854374873 226.53778516388132 L-20.352447854374873 254.25059808498338 L-36.35244785437487 240.39419162443238 L-36.35244785437487 212.68137870333032"/>
		<path opacity="0.5" fill="lavender" d="M-19.031939778686137 207.68137870333032 L-36.35244785437487 212.68137870333032 L-36.35244785437487 240.39419162443238 L-19.031939778686137 235.39419162443238 L-19.031939778686137 207.68137870333032"/>
		<path opacity="0.5" fill="lavender" d="M-3.0319397786861373 221.53778516388132 L-20.352447854374873 226.53778516388132 L-20.352447854374873 254.25059808498338 L-3.0319397786861373 249.25059808498338 L-3.0319397786861373 221.53778516388132"/>
		<path opacity="0.5" fill="lavender" d="M-19.031939778686137 207.68137870333032 L-3.0319397786861373 221.53778516388132 L-20.352447854374873 226.53778516388132 L-36.35244785437487 212.68137870333032 L-19.031939778686137 207.68137870333032"/>
		<path opacity="0.5" fill="lavender" d="M-19.031939778686137 235.39419162443238 L-3.0319397786861373 249.25059808498338 L-20.352447854374873 254.25059808498338 L-36.35244785437487 240.39419162443238 L-19.031939778686137 235.39419162443238"/>
		<text style="fill:black;font-family:calibri;font-size:6" x="-36.35244785437487" y="226.53778516388135" >32</text>
		<text style="fill:black;font-family:calibri;font-size:6" x="-28.352447854374873" y="247.32239485470788" >32</text>
		<text style="fill:black;font-family:calibri;font-size:6" x="-27.692193816530505" y="210.18137870333032" >20</text>

	 </g>
</svg>