<svg width="1000.0px" height="1000.0px" viewBox="-100.0 -400.0 1000.0 1000.0" xmlns="http://www.w3.org/2000/svg">
	<g stroke="black" stroke-width="0.3">
		<path opacity="0.75" fill="darkturquoise" d="M6.534045164111899 -4.948044575921356 L1.5340451641119017 -0.6179175569991622 L1.5340451641119017 8.042336480845226 L6.534045164111899 3.712209461923032 L6.534045164111899 -4.948044575921356"/>
		<path opacity="0.75" fill="darkturquoise" d="M-10.786462911576876 -9.948044575921353 L-15.786462911576873 -5.61791755699916 L-15.786462911576873 3.042336480845228 L-10.786462911576876 -1.2877905380769656 L-10.786462911576876 -9.948044575921353"/>
		<path opacity="0.75" fill="darkturquoise" d="M6.534045164111899 -4.948044575921356 L-10.786462911576876 -9.948044575921353 L-10.786462911576876 -1.2877905380769656 L6.534045164111899 3.712209461923032 L6.534045164111899 -4.948044575921356"/>
		<path opacity="0.75" fill="darkturquoise" d="M1.5340451641119017 -0.6179175569991622 L-15.786462911576873 -5.61791755699916 L-15.786462911576873 3.042336480845228 L1.5340451641119017 8.042336480845226 L1.5340451641119017 -0.6179175569991622"/>
		<path opacity="0.75" fill="darkturquoise" d="M6.534045164111899 -4.948044575921356 L1.5340451641119017 -0.6179175569991622 L-15.786462911576873 -5.61791755699916 L-10.786462911576876 -9.948044575921353 L6.534045164111899 -4.948044575921356"/>
		<path opacity="0.75" fill="darkturquoise" d="M6.534045164111899 3.712209461923032 L1.5340451641119017 8.042336480845226 L-15.786462911576873 3.042336480845228 L-10.786462911576876 -1.2877905380769656 L6.534045164111899 3.712209461923032"/>
		<text x="-10.786462911576876" y="-5.617917556999159" font-family="calibri" font-size="4">10</text>
		<text x="-13.286462911576875" y="0.8772729713841311" font-family="calibri" font-size="4">10</text>
		<text x="-2.1262088737324887" y="-7.4480445759213545" font-family="calibri" font-size="4">20</text>

		<path opacity="0.5" fill="orange" d="M16.660254037844382 -18.284609690826528 L0.6602540378443909 -4.428203230275512 L0.6602540378443909 23.284609690826528 L16.660254037844382 9.428203230275509 L16.660254037844382 -18.284609690826528"/>
		<path opacity="0.5" fill="orange" d="M-0.6602540378443909 -23.284609690826528 L-16.660254037844382 -9.428203230275509 L-16.660254037844382 18.284609690826528 L-0.6602540378443909 4.428203230275512 L-0.6602540378443909 -23.284609690826528"/>
		<path opacity="0.5" fill="orange" d="M16.660254037844382 -18.284609690826528 L-0.6602540378443909 -23.284609690826528 L-0.6602540378443909 4.428203230275512 L16.660254037844382 9.428203230275509 L16.660254037844382 -18.284609690826528"/>
		<path opacity="0.5" fill="orange" d="M0.6602540378443909 -4.428203230275512 L-16.660254037844382 -9.428203230275509 L-16.660254037844382 18.284609690826528 L0.6602540378443909 23.284609690826528 L0.6602540378443909 -4.428203230275512"/>
		<path opacity="0.5" fill="orange" d="M16.660254037844382 -18.284609690826528 L0.6602540378443909 -4.428203230275512 L-16.660254037844382 -9.428203230275509 L-0.6602540378443909 -23.284609690826528 L16.660254037844382 -18.284609690826528"/>
		<path opacity="0.5" fill="orange" d="M16.660254037844382 9.428203230275509 L0.6602540378443909 23.284609690826528 L-16.660254037844382 18.284609690826528 L-0.6602540378443909 4.428203230275512 L16.660254037844382 9.428203230275509"/>
		<text x="-0.6602540378443909" y="-9.428203230275507" font-family="calibri" font-size="4">32</text>
		<text x="-8.660254037844386" y="11.356406460551021" font-family="calibri" font-size="4">32</text>
		<text x="7.999999999999996" y="-20.784609690826528" font-family="calibri" font-size="4">20</text>

		<path opacity="0.75" fill="pink" d="M6.534045164111899 -4.948044575921356 L1.5340451641119017 -0.6179175569991622 L53.3651578038631 21.660743911703722 L6.534045164111899 -4.948044575921356"/>
		<path opacity="0.75" fill="pink" d="M6.534045164111899 -4.948044575921356 L6.534045164111899 3.712209461923032 L53.3651578038631 21.660743911703722 L6.534045164111899 -4.948044575921356"/>
		<path opacity="0.75" fill="pink" d="M1.5340451641119017 -0.6179175569991622 L1.5340451641119017 8.042336480845226 L53.3651578038631 21.660743911703722 L1.5340451641119017 -0.6179175569991622"/>
		<path opacity="0.75" fill="pink" d="M6.534045164111899 3.712209461923032 L1.5340451641119017 8.042336480845226 L53.3651578038631 21.660743911703722 L6.534045164111899 3.712209461923032"/>

		<path opacity="0.75" fill="darkturquoise" d="M87.23232526777043 3.991762843851589 L84.73232526777043 6.156826353312688 L84.73232526777043 10.486953372234879 L87.23232526777043 8.321889862773784 L87.23232526777043 3.991762843851589"/>
		<path opacity="0.75" fill="darkturquoise" d="M59.519512346668385 -4.008237156148406 L57.01951234666839 -1.8431736466873065 L57.01951234666839 2.4869533722348844 L59.519512346668385 0.32188986277378895 L59.519512346668385 -4.008237156148406"/>
		<path opacity="0.75" fill="darkturquoise" d="M87.23232526777043 3.991762843851589 L59.519512346668385 -4.008237156148406 L59.519512346668385 0.32188986277378895 L87.23232526777043 8.321889862773784 L87.23232526777043 3.991762843851589"/>
		<path opacity="0.75" fill="darkturquoise" d="M84.73232526777043 6.156826353312688 L57.01951234666839 -1.8431736466873065 L57.01951234666839 2.4869533722348844 L84.73232526777043 10.486953372234879 L84.73232526777043 6.156826353312688"/>
		<path opacity="0.75" fill="darkturquoise" d="M87.23232526777043 3.991762843851589 L84.73232526777043 6.156826353312688 L57.01951234666839 -1.8431736466873065 L59.519512346668385 -4.008237156148406 L87.23232526777043 3.991762843851589"/>
		<path opacity="0.75" fill="darkturquoise" d="M87.23232526777043 8.321889862773784 L84.73232526777043 10.486953372234879 L57.01951234666839 2.4869533722348844 L59.519512346668385 0.32188986277378895 L87.23232526777043 8.321889862773784"/>
		<text x="59.519512346668385" y="-1.8431736466873083" font-family="calibri" font-size="4">5</text>
		<text x="58.26951234666839" y="1.4044216175043367" font-family="calibri" font-size="4">5</text>
		<text x="73.3759188072194" y="-0.008237156148408253" font-family="calibri" font-size="4">32</text>

		<path opacity="0.5" fill="orange" d="M87.67433714816836 2.2153903091734577 L71.67433714816836 16.071796769724475 L71.67433714816836 43.784609690826514 L87.67433714816836 29.928203230275496 L87.67433714816836 2.2153903091734577"/>
		<path opacity="0.5" fill="orange" d="M59.96152422706632 -5.784609690826537 L43.96152422706632 8.07179676972448 L43.96152422706632 35.78460969082652 L59.96152422706632 21.9282032302755 L59.96152422706632 -5.784609690826537"/>
		<path opacity="0.5" fill="orange" d="M87.67433714816836 2.2153903091734577 L59.96152422706632 -5.784609690826537 L59.96152422706632 21.9282032302755 L87.67433714816836 29.928203230275496 L87.67433714816836 2.2153903091734577"/>
		<path opacity="0.5" fill="orange" d="M71.67433714816836 16.071796769724475 L43.96152422706632 8.07179676972448 L43.96152422706632 35.78460969082652 L71.67433714816836 43.784609690826514 L71.67433714816836 16.071796769724475"/>
		<path opacity="0.5" fill="orange" d="M87.67433714816836 2.2153903091734577 L71.67433714816836 16.071796769724475 L43.96152422706632 8.07179676972448 L59.96152422706632 -5.784609690826537 L87.67433714816836 2.2153903091734577"/>
		<path opacity="0.5" fill="orange" d="M87.67433714816836 29.928203230275496 L71.67433714816836 43.784609690826514 L43.96152422706632 35.78460969082652 L59.96152422706632 21.9282032302755 L87.67433714816836 29.928203230275496"/>
		<text x="59.96152422706632" y="8.071796769724482" font-family="calibri" font-size="4">32</text>
		<text x="51.96152422706632" y="28.85640646055101" font-family="calibri" font-size="4">32</text>
		<text x="73.81793068761735" y="-1.7846096908265396" font-family="calibri" font-size="4">32</text>

		<path opacity="0.75" fill="pink" d="M87.23232526777043 3.991762843851589 L84.73232526777043 6.156826353312688 L121.0195190859539 36.04623769516704 L87.23232526777043 3.991762843851589"/>
		<path opacity="0.75" fill="pink" d="M87.23232526777043 3.991762843851589 L87.23232526777043 8.321889862773784 L121.0195190859539 36.04623769516704 L87.23232526777043 3.991762843851589"/>
		<path opacity="0.75" fill="pink" d="M84.73232526777043 6.156826353312688 L84.73232526777043 10.486953372234879 L121.0195190859539 36.04623769516704 L84.73232526777043 6.156826353312688"/>
		<path opacity="0.75" fill="pink" d="M87.23232526777043 8.321889862773784 L84.73232526777043 10.486953372234879 L121.0195190859539 36.04623769516704 L87.23232526777043 8.321889862773784"/>

		<path opacity="0.75" fill="darkturquoise" d="M-12.987903634224049 16.839649373294712 L-17.987903634224047 21.169776392216903 L-17.987903634224047 29.830030430061292 L-12.987903634224049 25.4999034111391 L-12.987903634224049 16.839649373294712"/>
		<path opacity="0.75" fill="darkturquoise" d="M-30.308411709912825 11.839649373294714 L-35.308411709912825 16.169776392216903 L-35.308411709912825 24.830030430061292 L-30.308411709912825 20.4999034111391 L-30.308411709912825 11.839649373294714"/>
		<path opacity="0.75" fill="darkturquoise" d="M-12.987903634224049 16.839649373294712 L-30.308411709912825 11.839649373294714 L-30.308411709912825 20.4999034111391 L-12.987903634224049 25.4999034111391 L-12.987903634224049 16.839649373294712"/>
		<path opacity="0.75" fill="darkturquoise" d="M-17.987903634224047 21.169776392216903 L-35.308411709912825 16.169776392216903 L-35.308411709912825 24.830030430061292 L-17.987903634224047 29.830030430061292 L-17.987903634224047 21.169776392216903"/>
		<path opacity="0.75" fill="darkturquoise" d="M-12.987903634224049 16.839649373294712 L-17.987903634224047 21.169776392216903 L-35.308411709912825 16.169776392216903 L-30.308411709912825 11.839649373294714 L-12.987903634224049 16.839649373294712"/>
		<path opacity="0.75" fill="darkturquoise" d="M-12.987903634224049 25.4999034111391 L-17.987903634224047 29.830030430061292 L-35.308411709912825 24.830030430061292 L-30.308411709912825 20.4999034111391 L-12.987903634224049 25.4999034111391"/>
		<text x="-30.308411709912825" y="16.169776392216907" font-family="calibri" font-size="4">10</text>
		<text x="-32.808411709912825" y="22.664966920600197" font-family="calibri" font-size="4">10</text>
		<text x="-21.648157672068436" y="14.339649373294712" font-family="calibri" font-size="4">20</text>

		<path opacity="0.5" fill="orange" d="M-11.839745962155602 6.3971143170299705 L-27.839745962155597 20.253520777580988 L-27.839745962155597 47.96633369868303 L-11.839745962155602 34.10992723813201 L-11.839745962155602 6.3971143170299705"/>
		<path opacity="0.5" fill="orange" d="M-29.160254037844375 1.3971143170299736 L-45.160254037844375 15.25352077758099 L-45.160254037844375 42.96633369868303 L-29.160254037844375 29.10992723813201 L-29.160254037844375 1.3971143170299736"/>
		<path opacity="0.5" fill="orange" d="M-11.839745962155602 6.3971143170299705 L-29.160254037844375 1.3971143170299736 L-29.160254037844375 29.10992723813201 L-11.839745962155602 34.10992723813201 L-11.839745962155602 6.3971143170299705"/>
		<path opacity="0.5" fill="orange" d="M-27.839745962155597 20.253520777580988 L-45.160254037844375 15.25352077758099 L-45.160254037844375 42.96633369868303 L-27.839745962155597 47.96633369868303 L-27.839745962155597 20.253520777580988"/>
		<path opacity="0.5" fill="orange" d="M-11.839745962155602 6.3971143170299705 L-27.839745962155597 20.253520777580988 L-45.160254037844375 15.25352077758099 L-29.160254037844375 1.3971143170299736 L-11.839745962155602 6.3971143170299705"/>
		<path opacity="0.5" fill="orange" d="M-11.839745962155602 34.10992723813201 L-27.839745962155597 47.96633369868303 L-45.160254037844375 42.96633369868303 L-29.160254037844375 29.10992723813201 L-11.839745962155602 34.10992723813201"/>
		<text x="-29.160254037844375" y="15.253520777580992" font-family="calibri" font-size="4">32</text>
		<text x="-37.160254037844375" y="36.038130468407516" font-family="calibri" font-size="4">32</text>
		<text x="-20.49999999999999" y="3.8971143170299722" font-family="calibri" font-size="4">20</text>

		<path opacity="0.75" fill="pink" d="M-12.987903634224049 16.839649373294712 L-17.987903634224047 21.169776392216903 L16.13083719738244 33.69312185781436 L-12.987903634224049 16.839649373294712"/>
		<path opacity="0.75" fill="pink" d="M-12.987903634224049 16.839649373294712 L-12.987903634224049 25.4999034111391 L16.13083719738244 33.69312185781436 L-12.987903634224049 16.839649373294712"/>
		<path opacity="0.75" fill="pink" d="M-17.987903634224047 21.169776392216903 L-17.987903634224047 29.830030430061292 L16.13083719738244 33.69312185781436 L-17.987903634224047 21.169776392216903"/>
		<path opacity="0.75" fill="pink" d="M-12.987903634224049 25.4999034111391 L-17.987903634224047 29.830030430061292 L16.13083719738244 33.69312185781436 L-12.987903634224049 25.4999034111391"/>

		<path opacity="0.5" fill="orange" d="M182.40123317959439 41.10769515458671 L174.40123317959439 48.035898384862215 L174.40123317959439 61.892304845413236 L182.40123317959439 54.96410161513773 L182.40123317959439 41.10769515458671"/>
		<path opacity="0.5" fill="orange" d="M126.9756073373903 25.107695154586715 L118.9756073373903 32.03589838486222 L118.9756073373903 45.89230484541324 L126.9756073373903 38.964101615137736 L126.9756073373903 25.107695154586715"/>
		<path opacity="0.5" fill="orange" d="M182.40123317959439 41.10769515458671 L126.9756073373903 25.107695154586715 L126.9756073373903 38.964101615137736 L182.40123317959439 54.96410161513773 L182.40123317959439 41.10769515458671"/>
		<path opacity="0.5" fill="orange" d="M174.40123317959439 48.035898384862215 L118.9756073373903 32.03589838486222 L118.9756073373903 45.89230484541324 L174.40123317959439 61.892304845413236 L174.40123317959439 48.035898384862215"/>
		<path opacity="0.5" fill="orange" d="M182.40123317959439 41.10769515458671 L174.40123317959439 48.035898384862215 L118.9756073373903 32.03589838486222 L126.9756073373903 25.107695154586715 L182.40123317959439 41.10769515458671"/>
		<path opacity="0.5" fill="orange" d="M182.40123317959439 54.96410161513773 L174.40123317959439 61.892304845413236 L118.9756073373903 45.89230484541324 L126.9756073373903 38.964101615137736 L182.40123317959439 54.96410161513773"/>
		<text x="126.9756073373903" y="32.03589838486222" font-family="calibri" font-size="4">16</text>
		<text x="122.9756073373903" y="42.428203230275486" font-family="calibri" font-size="4">16</text>
		<text x="154.68842025849233" y="33.10769515458671" font-family="calibri" font-size="4">64</text>

		<path opacity="0.75" fill="darkturquoise" d="M51.054028369347535 50.64744525616043 L48.554028369347535 52.81250876562153 L48.554028369347535 57.14263578454372 L51.054028369347535 54.97757227508262 L51.054028369347535 50.64744525616043"/>
		<path opacity="0.75" fill="darkturquoise" d="M23.341215448245492 42.64744525616044 L20.841215448245492 44.81250876562153 L20.841215448245492 49.14263578454373 L23.341215448245492 46.97757227508263 L23.341215448245492 42.64744525616044"/>
		<path opacity="0.75" fill="darkturquoise" d="M51.054028369347535 50.64744525616043 L23.341215448245492 42.64744525616044 L23.341215448245492 46.97757227508263 L51.054028369347535 54.97757227508262 L51.054028369347535 50.64744525616043"/>
		<path opacity="0.75" fill="darkturquoise" d="M48.554028369347535 52.81250876562153 L20.841215448245492 44.81250876562153 L20.841215448245492 49.14263578454373 L48.554028369347535 57.14263578454372 L48.554028369347535 52.81250876562153"/>
		<path opacity="0.75" fill="darkturquoise" d="M51.054028369347535 50.64744525616043 L48.554028369347535 52.81250876562153 L20.841215448245492 44.81250876562153 L23.341215448245492 42.64744525616044 L51.054028369347535 50.64744525616043"/>
		<path opacity="0.75" fill="darkturquoise" d="M51.054028369347535 54.97757227508262 L48.554028369347535 57.14263578454372 L20.841215448245492 49.14263578454373 L23.341215448245492 46.97757227508263 L51.054028369347535 54.97757227508262"/>
		<text x="23.341215448245492" y="44.81250876562153" font-family="calibri" font-size="4">5</text>
		<text x="22.091215448245492" y="48.060104029813175" font-family="calibri" font-size="4">5</text>
		<text x="37.19762190879651" y="46.64744525616044" font-family="calibri" font-size="4">32</text>

		<path opacity="0.5" fill="orange" d="M59.17433714816838 26.89711431702996 L43.17433714816838 40.753520777580974 L43.17433714816838 68.46633369868302 L59.17433714816838 54.609927238131995 L59.17433714816838 26.89711431702996"/>
		<path opacity="0.5" fill="orange" d="M31.46152422706633 18.897114317029963 L15.461524227066334 32.75352077758098 L15.461524227066334 60.46633369868302 L31.46152422706633 46.609927238132 L31.46152422706633 18.897114317029963"/>
		<path opacity="0.5" fill="orange" d="M59.17433714816838 26.89711431702996 L31.46152422706633 18.897114317029963 L31.46152422706633 46.609927238132 L59.17433714816838 54.609927238131995 L59.17433714816838 26.89711431702996"/>
		<path opacity="0.5" fill="orange" d="M43.17433714816838 40.753520777580974 L15.461524227066334 32.75352077758098 L15.461524227066334 60.46633369868302 L43.17433714816838 68.46633369868302 L43.17433714816838 40.753520777580974"/>
		<path opacity="0.5" fill="orange" d="M59.17433714816838 26.89711431702996 L43.17433714816838 40.753520777580974 L15.461524227066334 32.75352077758098 L31.46152422706633 18.897114317029963 L59.17433714816838 26.89711431702996"/>
		<path opacity="0.5" fill="orange" d="M59.17433714816838 54.609927238131995 L43.17433714816838 68.46633369868302 L15.461524227066334 60.46633369868302 L31.46152422706633 46.609927238132 L59.17433714816838 54.609927238131995"/>
		<text x="31.46152422706633" y="32.75352077758098" font-family="calibri" font-size="4">32</text>
		<text x="23.461524227066334" y="53.538130468407516" font-family="calibri" font-size="4">32</text>
		<text x="45.317930687617356" y="22.89711431702996" font-family="calibri" font-size="4">32</text>

		<path opacity="0.75" fill="darkturquoise" d="M-45.86010125988888 45.510231301421676 L-50.86010125988887 49.84035832034387 L-50.86010125988887 58.500612358188256 L-45.86010125988888 54.170485339266065 L-45.86010125988888 45.510231301421676"/>
		<path opacity="0.75" fill="darkturquoise" d="M-63.18060933557766 40.510231301421676 L-68.18060933557764 44.84035832034387 L-68.18060933557764 53.500612358188256 L-63.18060933557766 49.170485339266065 L-63.18060933557766 40.510231301421676"/>
		<path opacity="0.75" fill="darkturquoise" d="M-45.86010125988888 45.510231301421676 L-63.18060933557766 40.510231301421676 L-63.18060933557766 49.170485339266065 L-45.86010125988888 54.170485339266065 L-45.86010125988888 45.510231301421676"/>
		<path opacity="0.75" fill="darkturquoise" d="M-50.86010125988887 49.84035832034387 L-68.18060933557764 44.84035832034387 L-68.18060933557764 53.500612358188256 L-50.86010125988887 58.500612358188256 L-50.86010125988887 49.84035832034387"/>
		<path opacity="0.75" fill="darkturquoise" d="M-45.86010125988888 45.510231301421676 L-50.86010125988887 49.84035832034387 L-68.18060933557764 44.84035832034387 L-63.18060933557766 40.510231301421676 L-45.86010125988888 45.510231301421676"/>
		<path opacity="0.75" fill="darkturquoise" d="M-45.86010125988888 54.170485339266065 L-50.86010125988887 58.500612358188256 L-68.18060933557764 53.500612358188256 L-63.18060933557766 49.170485339266065 L-45.86010125988888 54.170485339266065"/>
		<text x="-63.18060933557766" y="44.84035832034387" font-family="calibri" font-size="4">10</text>
		<text x="-65.68060933557766" y="51.33554884872716" font-family="calibri" font-size="4">10</text>
		<text x="-54.52035529773327" y="43.010231301421676" font-family="calibri" font-size="4">20</text>

		<path opacity="0.5" fill="orange" d="M-40.33974596215559 31.07883832488647 L-56.33974596215558 44.93524478543749 L-56.33974596215558 72.64805770653953 L-40.33974596215559 58.79165124598851 L-40.33974596215559 31.07883832488647"/>
		<path opacity="0.5" fill="orange" d="M-57.66025403784437 26.07883832488647 L-73.66025403784435 39.93524478543749 L-73.66025403784435 67.64805770653953 L-57.66025403784437 53.79165124598851 L-57.66025403784437 26.07883832488647"/>
		<path opacity="0.5" fill="orange" d="M-40.33974596215559 31.07883832488647 L-57.66025403784437 26.07883832488647 L-57.66025403784437 53.79165124598851 L-40.33974596215559 58.79165124598851 L-40.33974596215559 31.07883832488647"/>
		<path opacity="0.5" fill="orange" d="M-56.33974596215558 44.93524478543749 L-73.66025403784435 39.93524478543749 L-73.66025403784435 67.64805770653953 L-56.33974596215558 72.64805770653953 L-56.33974596215558 44.93524478543749"/>
		<path opacity="0.5" fill="orange" d="M-40.33974596215559 31.07883832488647 L-56.33974596215558 44.93524478543749 L-73.66025403784435 39.93524478543749 L-57.66025403784437 26.07883832488647 L-40.33974596215559 31.07883832488647"/>
		<path opacity="0.5" fill="orange" d="M-40.33974596215559 58.79165124598851 L-56.33974596215558 72.64805770653953 L-73.66025403784435 67.64805770653953 L-57.66025403784437 53.79165124598851 L-40.33974596215559 58.79165124598851"/>
		<text x="-57.66025403784437" y="39.93524478543749" font-family="calibri" font-size="4">32</text>
		<text x="-65.66025403784437" y="60.71985447626402" font-family="calibri" font-size="4">32</text>
		<text x="-48.99999999999998" y="28.57883832488647" font-family="calibri" font-size="4">20</text>

		<path opacity="0.75" fill="pink" d="M51.054028369347535 50.64744525616043 L48.554028369347535 52.81250876562153 L91.8641413253936 67.71913741506577 L51.054028369347535 50.64744525616043"/>
		<path opacity="0.75" fill="pink" d="M51.054028369347535 50.64744525616043 L51.054028369347535 54.97757227508262 L91.8641413253936 67.71913741506577 L51.054028369347535 50.64744525616043"/>
		<path opacity="0.75" fill="pink" d="M48.554028369347535 52.81250876562153 L48.554028369347535 57.14263578454372 L91.8641413253936 67.71913741506577 L48.554028369347535 52.81250876562153"/>
		<path opacity="0.75" fill="pink" d="M51.054028369347535 54.97757227508262 L48.554028369347535 57.14263578454372 L91.8641413253936 67.71913741506577 L51.054028369347535 54.97757227508262"/>

		<path opacity="0.75" fill="pink" d="M-45.86010125988888 45.510231301421676 L-50.86010125988887 49.84035832034387 L-9.58857326187831 62.757130187790274 L-45.86010125988888 45.510231301421676"/>
		<path opacity="0.75" fill="pink" d="M-45.86010125988888 45.510231301421676 L-45.86010125988888 54.170485339266065 L-9.58857326187831 62.757130187790274 L-45.86010125988888 45.510231301421676"/>
		<path opacity="0.75" fill="pink" d="M-50.86010125988887 49.84035832034387 L-50.86010125988887 58.500612358188256 L-9.58857326187831 62.757130187790274 L-50.86010125988887 49.84035832034387"/>
		<path opacity="0.75" fill="pink" d="M-45.86010125988888 54.170485339266065 L-50.86010125988887 58.500612358188256 L-9.58857326187831 62.757130187790274 L-45.86010125988888 54.170485339266065"/>

<!-- Arrow -->
		<path opacity="0.5" stroke="black" d="M178.40123317959439 51.49999999999997 L194.46212231204973 72.59086200392821"/>
		<circle opacity="0.5" cx="194.46212231204973" cy="72.59086200392821" r="1" fill="black" />
		<path opacity="0.5" fill="orange" d="M153.90123317959439 65.78941916244321 L145.90123317959439 72.71762239271871 L145.90123317959439 86.57402885326974 L153.90123317959439 79.64582562299422 L153.90123317959439 65.78941916244321"/>
		<path opacity="0.5" fill="orange" d="M98.47560733739031 49.78941916244321 L90.47560733739031 56.717622392718724 L90.47560733739031 70.57402885326974 L98.47560733739031 63.64582562299424 L98.47560733739031 49.78941916244321"/>
		<path opacity="0.5" fill="orange" d="M153.90123317959439 65.78941916244321 L98.47560733739031 49.78941916244321 L98.47560733739031 63.64582562299424 L153.90123317959439 79.64582562299422 L153.90123317959439 65.78941916244321"/>
		<path opacity="0.5" fill="orange" d="M145.90123317959439 72.71762239271871 L90.47560733739031 56.717622392718724 L90.47560733739031 70.57402885326974 L145.90123317959439 86.57402885326974 L145.90123317959439 72.71762239271871"/>
		<path opacity="0.5" fill="orange" d="M153.90123317959439 65.78941916244321 L145.90123317959439 72.71762239271871 L90.47560733739031 56.717622392718724 L98.47560733739031 49.78941916244321 L153.90123317959439 65.78941916244321"/>
		<path opacity="0.5" fill="orange" d="M153.90123317959439 79.64582562299422 L145.90123317959439 86.57402885326974 L90.47560733739031 70.57402885326974 L98.47560733739031 63.64582562299424 L153.90123317959439 79.64582562299422"/>
		<text x="98.47560733739031" y="56.717622392718724" font-family="calibri" font-size="4">16</text>
		<text x="94.47560733739031" y="67.10992723813199" font-family="calibri" font-size="4">16</text>
		<text x="126.18842025849236" y="57.78941916244321" font-family="calibri" font-size="4">64</text>

		<path opacity="0.75" fill="darkturquoise" d="M26.797830711678806 73.87056698551348 L24.297830711678806 76.03563049497458 L24.297830711678806 80.36575751389677 L26.797830711678806 78.20069400443566 L26.797830711678806 73.87056698551348"/>
		<path opacity="0.75" fill="darkturquoise" d="M-0.9149822094232363 65.87056698551348 L-3.4149822094232363 68.03563049497458 L-3.4149822094232363 72.36575751389677 L-0.9149822094232363 70.20069400443568 L-0.9149822094232363 65.87056698551348"/>
		<path opacity="0.75" fill="darkturquoise" d="M26.797830711678806 73.87056698551348 L-0.9149822094232363 65.87056698551348 L-0.9149822094232363 70.20069400443568 L26.797830711678806 78.20069400443566 L26.797830711678806 73.87056698551348"/>
		<path opacity="0.75" fill="darkturquoise" d="M24.297830711678806 76.03563049497458 L-3.4149822094232363 68.03563049497458 L-3.4149822094232363 72.36575751389677 L24.297830711678806 80.36575751389677 L24.297830711678806 76.03563049497458"/>
		<path opacity="0.75" fill="darkturquoise" d="M26.797830711678806 73.87056698551348 L24.297830711678806 76.03563049497458 L-3.4149822094232363 68.03563049497458 L-0.9149822094232363 65.87056698551348 L26.797830711678806 73.87056698551348"/>
		<path opacity="0.75" fill="darkturquoise" d="M26.797830711678806 78.20069400443566 L24.297830711678806 80.36575751389677 L-3.4149822094232363 72.36575751389677 L-0.9149822094232363 70.20069400443568 L26.797830711678806 78.20069400443566"/>
		<text x="-0.9149822094232363" y="68.03563049497458" font-family="calibri" font-size="4">5</text>
		<text x="-2.1649822094232363" y="71.28322575916621" font-family="calibri" font-size="4">5</text>
		<text x="12.941424251127785" y="69.87056698551348" font-family="calibri" font-size="4">32</text>

		<path opacity="0.5" fill="orange" d="M30.674337148168384 51.578838324886455 L14.67433714816839 65.43524478543748 L14.67433714816839 93.14805770653952 L30.674337148168384 79.2916512459885 L30.674337148168384 51.578838324886455"/>
		<path opacity="0.5" fill="orange" d="M2.9615242270663416 43.57883832488646 L-13.038475772933651 57.43524478543748 L-13.038475772933651 85.14805770653952 L2.9615242270663416 71.2916512459885 L2.9615242270663416 43.57883832488646"/>
		<path opacity="0.5" fill="orange" d="M30.674337148168384 51.578838324886455 L2.9615242270663416 43.57883832488646 L2.9615242270663416 71.2916512459885 L30.674337148168384 79.2916512459885 L30.674337148168384 51.578838324886455"/>
		<path opacity="0.5" fill="orange" d="M14.67433714816839 65.43524478543748 L-13.038475772933651 57.43524478543748 L-13.038475772933651 85.14805770653952 L14.67433714816839 93.14805770653952 L14.67433714816839 65.43524478543748"/>
		<path opacity="0.5" fill="orange" d="M30.674337148168384 51.578838324886455 L14.67433714816839 65.43524478543748 L-13.038475772933651 57.43524478543748 L2.9615242270663416 43.57883832488646 L30.674337148168384 51.578838324886455"/>
		<path opacity="0.5" fill="orange" d="M30.674337148168384 79.2916512459885 L14.67433714816839 93.14805770653952 L-13.038475772933651 85.14805770653952 L2.9615242270663416 71.2916512459885 L30.674337148168384 79.2916512459885"/>
		<text x="2.9615242270663416" y="57.43524478543748" font-family="calibri" font-size="4">32</text>
		<text x="-5.038475772933655" y="78.219854476264" font-family="calibri" font-size="4">32</text>
		<text x="16.817930687617363" y="47.57883832488646" font-family="calibri" font-size="4">32</text>

		<path opacity="0.75" fill="pink" d="M26.797830711678806 73.87056698551348 L24.297830711678806 76.03563049497458 L63.794947424498076 80.19455508725781 L26.797830711678806 73.87056698551348"/>
		<path opacity="0.75" fill="pink" d="M26.797830711678806 73.87056698551348 L26.797830711678806 78.20069400443566 L63.794947424498076 80.19455508725781 L26.797830711678806 73.87056698551348"/>
		<path opacity="0.75" fill="pink" d="M24.297830711678806 76.03563049497458 L24.297830711678806 80.36575751389677 L63.794947424498076 80.19455508725781 L24.297830711678806 76.03563049497458"/>
		<path opacity="0.75" fill="pink" d="M26.797830711678806 78.20069400443566 L24.297830711678806 80.36575751389677 L63.794947424498076 80.19455508725781 L26.797830711678806 78.20069400443566"/>

		<path opacity="0.75" fill="darkturquoise" d="M-69.3098110250418 66.4018362908918 L-74.30981102504178 70.73196330981399 L-74.30981102504178 79.39221734765837 L-69.3098110250418 75.06209032873618 L-69.3098110250418 66.4018362908918"/>
		<path opacity="0.75" fill="darkturquoise" d="M-86.63031910073056 61.401836290891794 L-91.63031910073055 65.73196330981399 L-91.63031910073055 74.39221734765837 L-86.63031910073056 70.06209032873618 L-86.63031910073056 61.401836290891794"/>
		<path opacity="0.75" fill="darkturquoise" d="M-69.3098110250418 66.4018362908918 L-86.63031910073056 61.401836290891794 L-86.63031910073056 70.06209032873618 L-69.3098110250418 75.06209032873618 L-69.3098110250418 66.4018362908918"/>
		<path opacity="0.75" fill="darkturquoise" d="M-74.30981102504178 70.73196330981399 L-91.63031910073055 65.73196330981399 L-91.63031910073055 74.39221734765837 L-74.30981102504178 79.39221734765837 L-74.30981102504178 70.73196330981399"/>
		<path opacity="0.75" fill="darkturquoise" d="M-69.3098110250418 66.4018362908918 L-74.30981102504178 70.73196330981399 L-91.63031910073055 65.73196330981399 L-86.63031910073056 61.401836290891794 L-69.3098110250418 66.4018362908918"/>
		<path opacity="0.75" fill="darkturquoise" d="M-69.3098110250418 75.06209032873618 L-74.30981102504178 79.39221734765837 L-91.63031910073055 74.39221734765837 L-86.63031910073056 70.06209032873618 L-69.3098110250418 75.06209032873618"/>
		<text x="-86.63031910073056" y="65.73196330981398" font-family="calibri" font-size="4">10</text>
		<text x="-89.13031910073056" y="72.22715383819727" font-family="calibri" font-size="4">10</text>
		<text x="-77.97006506288618" y="63.901836290891794" font-family="calibri" font-size="4">20</text>

		<path opacity="0.5" fill="orange" d="M-68.83974596215559 55.76056233274297 L-84.83974596215558 69.61696879329399 L-84.83974596215558 97.32978171439602 L-68.83974596215559 83.473375253845 L-68.83974596215559 55.76056233274297"/>
		<path opacity="0.5" fill="orange" d="M-86.16025403784435 50.76056233274297 L-102.16025403784434 64.61696879329399 L-102.16025403784434 92.32978171439602 L-86.16025403784435 78.473375253845 L-86.16025403784435 50.76056233274297"/>
		<path opacity="0.5" fill="orange" d="M-68.83974596215559 55.76056233274297 L-86.16025403784435 50.76056233274297 L-86.16025403784435 78.473375253845 L-68.83974596215559 83.473375253845 L-68.83974596215559 55.76056233274297"/>
		<path opacity="0.5" fill="orange" d="M-84.83974596215558 69.61696879329399 L-102.16025403784434 64.61696879329399 L-102.16025403784434 92.32978171439602 L-84.83974596215558 97.32978171439602 L-84.83974596215558 69.61696879329399"/>
		<path opacity="0.5" fill="orange" d="M-68.83974596215559 55.76056233274297 L-84.83974596215558 69.61696879329399 L-102.16025403784434 64.61696879329399 L-86.16025403784435 50.76056233274297 L-68.83974596215559 55.76056233274297"/>
		<path opacity="0.5" fill="orange" d="M-68.83974596215559 83.473375253845 L-84.83974596215558 97.32978171439602 L-102.16025403784434 92.32978171439602 L-86.16025403784435 78.473375253845 L-68.83974596215559 83.473375253845"/>
		<text x="-86.16025403784435" y="64.61696879329399" font-family="calibri" font-size="4">32</text>
		<text x="-94.16025403784434" y="85.4015784841205" font-family="calibri" font-size="4">32</text>
		<text x="-77.49999999999997" y="53.26056233274297" font-family="calibri" font-size="4">20</text>

<!-- Arrow -->
		<path opacity="0.5" stroke="black" d="M149.90123317959439 76.18172400785647 L194.46212231204973 72.59086200392821"/>
		<circle opacity="0.5" cx="194.46212231204973" cy="72.59086200392821" r="1" fill="black" />
		<path opacity="0.75" fill="pink" d="M-69.3098110250418 66.4018362908918 L-74.30981102504178 70.73196330981399 L-27.32525944168738 79.25118364118458 L-69.3098110250418 66.4018362908918"/>
		<path opacity="0.75" fill="pink" d="M-69.3098110250418 66.4018362908918 L-69.3098110250418 75.06209032873618 L-27.32525944168738 79.25118364118458 L-69.3098110250418 66.4018362908918"/>
		<path opacity="0.75" fill="pink" d="M-74.30981102504178 70.73196330981399 L-74.30981102504178 79.39221734765837 L-27.32525944168738 79.25118364118458 L-74.30981102504178 70.73196330981399"/>
		<path opacity="0.75" fill="pink" d="M-69.3098110250418 75.06209032873618 L-74.30981102504178 79.39221734765837 L-27.32525944168738 79.25118364118458 L-69.3098110250418 75.06209032873618"/>

		<path opacity="0.75" fill="darkturquoise" d="M250.69013187151842 83.36282598334024 L248.19013187151842 85.52788949280135 L248.19013187151842 89.85801651172353 L250.69013187151842 87.69295300226244 L250.69013187151842 83.36282598334024"/>
		<path opacity="0.75" fill="darkturquoise" d="M195.26450602931433 67.36282598334026 L192.76450602931433 69.52788949280135 L192.76450602931433 73.85801651172355 L195.26450602931433 71.69295300226244 L195.26450602931433 67.36282598334026"/>
		<path opacity="0.75" fill="darkturquoise" d="M250.69013187151842 83.36282598334024 L195.26450602931433 67.36282598334026 L195.26450602931433 71.69295300226244 L250.69013187151842 87.69295300226244 L250.69013187151842 83.36282598334024"/>
		<path opacity="0.75" fill="darkturquoise" d="M248.19013187151842 85.52788949280135 L192.76450602931433 69.52788949280135 L192.76450602931433 73.85801651172355 L248.19013187151842 89.85801651172353 L248.19013187151842 85.52788949280135"/>
		<path opacity="0.75" fill="darkturquoise" d="M250.69013187151842 83.36282598334024 L248.19013187151842 85.52788949280135 L192.76450602931433 69.52788949280135 L195.26450602931433 67.36282598334026 L250.69013187151842 83.36282598334024"/>
		<path opacity="0.75" fill="darkturquoise" d="M250.69013187151842 87.69295300226244 L248.19013187151842 89.85801651172353 L192.76450602931433 73.85801651172355 L195.26450602931433 71.69295300226244 L250.69013187151842 87.69295300226244"/>
		<text x="195.26450602931433" y="69.52788949280135" font-family="calibri" font-size="4">5</text>
		<text x="194.01450602931433" y="72.775484756993" font-family="calibri" font-size="4">5</text>
		<text x="222.97731895041636" y="75.36282598334026" font-family="calibri" font-size="4">64</text>

		<path opacity="0.5" fill="orange" d="M253.8877481542538 78.19855715851494 L245.8877481542538 85.12676038879044 L245.8877481542538 98.98316684934147 L253.8877481542538 92.05496361906596 L253.8877481542538 78.19855715851494"/>
		<path opacity="0.5" fill="orange" d="M198.46212231204973 62.19855715851495 L190.46212231204973 69.12676038879046 L190.46212231204973 82.98316684934147 L198.46212231204973 76.05496361906597 L198.46212231204973 62.19855715851495"/>
		<path opacity="0.5" fill="orange" d="M253.8877481542538 78.19855715851494 L198.46212231204973 62.19855715851495 L198.46212231204973 76.05496361906597 L253.8877481542538 92.05496361906596 L253.8877481542538 78.19855715851494"/>
		<path opacity="0.5" fill="orange" d="M245.8877481542538 85.12676038879044 L190.46212231204973 69.12676038879046 L190.46212231204973 82.98316684934147 L245.8877481542538 98.98316684934147 L245.8877481542538 85.12676038879044"/>
		<path opacity="0.5" fill="orange" d="M253.8877481542538 78.19855715851494 L245.8877481542538 85.12676038879044 L190.46212231204973 69.12676038879046 L198.46212231204973 62.19855715851495 L253.8877481542538 78.19855715851494"/>
		<path opacity="0.5" fill="orange" d="M253.8877481542538 92.05496361906596 L245.8877481542538 98.98316684934147 L190.46212231204973 82.98316684934147 L198.46212231204973 76.05496361906597 L253.8877481542538 92.05496361906596"/>
		<text x="198.46212231204973" y="69.12676038879046" font-family="calibri" font-size="4">16</text>
		<text x="194.46212231204973" y="79.51906523420372" font-family="calibri" font-size="4">16</text>
		<text x="226.17493523315176" y="70.19855715851494" font-family="calibri" font-size="4">64</text>

		<path opacity="0.75" fill="pink" d="M250.69013187151842 83.36282598334024 L248.19013187151842 85.52788949280135 L294.57471774213144 96.85474607532345 L250.69013187151842 83.36282598334024"/>
		<path opacity="0.75" fill="pink" d="M250.69013187151842 83.36282598334024 L250.69013187151842 87.69295300226244 L294.57471774213144 96.85474607532345 L250.69013187151842 83.36282598334024"/>
		<path opacity="0.75" fill="pink" d="M248.19013187151842 85.52788949280135 L248.19013187151842 89.85801651172353 L294.57471774213144 96.85474607532345 L248.19013187151842 85.52788949280135"/>
		<path opacity="0.75" fill="pink" d="M250.69013187151842 87.69295300226244 L248.19013187151842 89.85801651172353 L294.57471774213144 96.85474607532345 L250.69013187151842 87.69295300226244"/>

		<path opacity="0.75" fill="darkturquoise" d="M-4.753403838712558 97.63038273266123 L-7.253403838712558 99.79544624212232 L-7.253403838712558 104.12557326104451 L-4.753403838712558 101.96050975158342 L-4.753403838712558 97.63038273266123"/>
		<path opacity="0.75" fill="darkturquoise" d="M-32.4662167598146 89.63038273266123 L-34.9662167598146 91.79544624212232 L-34.9662167598146 96.12557326104451 L-32.4662167598146 93.96050975158342 L-32.4662167598146 89.63038273266123"/>
		<path opacity="0.75" fill="darkturquoise" d="M-4.753403838712558 97.63038273266123 L-32.4662167598146 89.63038273266123 L-32.4662167598146 93.96050975158342 L-4.753403838712558 101.96050975158342 L-4.753403838712558 97.63038273266123"/>
		<path opacity="0.75" fill="darkturquoise" d="M-7.253403838712558 99.79544624212232 L-34.9662167598146 91.79544624212232 L-34.9662167598146 96.12557326104451 L-7.253403838712558 104.12557326104451 L-7.253403838712558 99.79544624212232"/>
		<path opacity="0.75" fill="darkturquoise" d="M-4.753403838712558 97.63038273266123 L-7.253403838712558 99.79544624212232 L-34.9662167598146 91.79544624212232 L-32.4662167598146 89.63038273266123 L-4.753403838712558 97.63038273266123"/>
		<path opacity="0.75" fill="darkturquoise" d="M-4.753403838712558 101.96050975158342 L-7.253403838712558 104.12557326104451 L-34.9662167598146 96.12557326104451 L-32.4662167598146 93.96050975158342 L-4.753403838712558 101.96050975158342"/>
		<text x="-32.4662167598146" y="91.79544624212232" font-family="calibri" font-size="4">5</text>
		<text x="-33.7162167598146" y="95.04304150631395" font-family="calibri" font-size="4">5</text>
		<text x="-18.60981029926358" y="93.63038273266123" font-family="calibri" font-size="4">32</text>

		<path opacity="0.5" fill="orange" d="M2.174337148168391 76.26056233274295 L-13.825662851831595 90.11696879329398 L-13.825662851831595 117.829781714396 L2.174337148168391 103.97337525384499 L2.174337148168391 76.26056233274295"/>
		<path opacity="0.5" fill="orange" d="M-25.53847577293365 68.26056233274296 L-41.53847577293364 82.11696879329398 L-41.53847577293364 109.829781714396 L-25.53847577293365 95.97337525384499 L-25.53847577293365 68.26056233274296"/>
		<path opacity="0.5" fill="orange" d="M2.174337148168391 76.26056233274295 L-25.53847577293365 68.26056233274296 L-25.53847577293365 95.97337525384499 L2.174337148168391 103.97337525384499 L2.174337148168391 76.26056233274295"/>
		<path opacity="0.5" fill="orange" d="M-13.825662851831595 90.11696879329398 L-41.53847577293364 82.11696879329398 L-41.53847577293364 109.829781714396 L-13.825662851831595 117.829781714396 L-13.825662851831595 90.11696879329398"/>
		<path opacity="0.5" fill="orange" d="M2.174337148168391 76.26056233274295 L-13.825662851831595 90.11696879329398 L-41.53847577293364 82.11696879329398 L-25.53847577293365 68.26056233274296 L2.174337148168391 76.26056233274295"/>
		<path opacity="0.5" fill="orange" d="M2.174337148168391 103.97337525384499 L-13.825662851831595 117.829781714396 L-41.53847577293364 109.829781714396 L-25.53847577293365 95.97337525384499 L2.174337148168391 103.97337525384499"/>
		<text x="-25.53847577293365" y="82.11696879329398" font-family="calibri" font-size="4">32</text>
		<text x="-33.538475772933644" y="102.9015784841205" font-family="calibri" font-size="4">32</text>
		<text x="-11.68206931238263" y="72.26056233274295" font-family="calibri" font-size="4">32</text>

		<path opacity="0.75" fill="darkturquoise" d="M120.28251798261323 101.03291573015309 L117.78251798261323 103.1979792396142 L117.78251798261323 107.52810625853638 L120.28251798261323 105.36304274907529 L120.28251798261323 101.03291573015309"/>
		<path opacity="0.75" fill="darkturquoise" d="M64.85689214040914 85.03291573015309 L62.356892140409144 87.1979792396142 L62.356892140409144 91.5281062585364 L64.85689214040914 89.3630427490753 L64.85689214040914 85.03291573015309"/>
		<path opacity="0.75" fill="darkturquoise" d="M120.28251798261323 101.03291573015309 L64.85689214040914 85.03291573015309 L64.85689214040914 89.3630427490753 L120.28251798261323 105.36304274907529 L120.28251798261323 101.03291573015309"/>
		<path opacity="0.75" fill="darkturquoise" d="M117.78251798261323 103.1979792396142 L62.356892140409144 87.1979792396142 L62.356892140409144 91.5281062585364 L117.78251798261323 107.52810625853638 L117.78251798261323 103.1979792396142"/>
		<path opacity="0.75" fill="darkturquoise" d="M120.28251798261323 101.03291573015309 L117.78251798261323 103.1979792396142 L62.356892140409144 87.1979792396142 L64.85689214040914 85.03291573015309 L120.28251798261323 101.03291573015309"/>
		<path opacity="0.75" fill="darkturquoise" d="M120.28251798261323 105.36304274907529 L117.78251798261323 107.52810625853638 L62.356892140409144 91.5281062585364 L64.85689214040914 89.3630427490753 L120.28251798261323 105.36304274907529"/>
		<text x="64.85689214040914" y="87.1979792396142" font-family="calibri" font-size="4">5</text>
		<text x="63.606892140409144" y="90.44557450380586" font-family="calibri" font-size="4">5</text>
		<text x="92.56970506151119" y="93.03291573015309" font-family="calibri" font-size="4">64</text>

		<path opacity="0.5" fill="orange" d="M125.40123317959441 90.47114317029971 L117.40123317959441 97.39934640057521 L117.40123317959441 111.25575286112624 L125.40123317959441 104.32754963085073 L125.40123317959441 90.47114317029971"/>
		<path opacity="0.5" fill="orange" d="M69.97560733739033 74.47114317029971 L61.97560733739033 81.39934640057523 L61.97560733739033 95.25575286112624 L69.97560733739033 88.32754963085074 L69.97560733739033 74.47114317029971"/>
		<path opacity="0.5" fill="orange" d="M125.40123317959441 90.47114317029971 L69.97560733739033 74.47114317029971 L69.97560733739033 88.32754963085074 L125.40123317959441 104.32754963085073 L125.40123317959441 90.47114317029971"/>
		<path opacity="0.5" fill="orange" d="M117.40123317959441 97.39934640057521 L61.97560733739033 81.39934640057523 L61.97560733739033 95.25575286112624 L117.40123317959441 111.25575286112624 L117.40123317959441 97.39934640057521"/>
		<path opacity="0.5" fill="orange" d="M125.40123317959441 90.47114317029971 L117.40123317959441 97.39934640057521 L61.97560733739033 81.39934640057523 L69.97560733739033 74.47114317029971 L125.40123317959441 90.47114317029971"/>
		<path opacity="0.5" fill="orange" d="M125.40123317959441 104.32754963085073 L117.40123317959441 111.25575286112624 L61.97560733739033 95.25575286112624 L69.97560733739033 88.32754963085074 L125.40123317959441 104.32754963085073"/>
		<text x="69.97560733739033" y="81.39934640057523" font-family="calibri" font-size="4">16</text>
		<text x="65.97560733739033" y="91.79165124598849" font-family="calibri" font-size="4">16</text>
		<text x="97.68842025849237" y="82.47114317029971" font-family="calibri" font-size="4">64</text>

		<path opacity="0.75" fill="pink" d="M-98.27914155395939 95.31346959058538 L-103.27914155395939 99.64359660950758 L-55.12083400419732 112.18446212892839 L-98.27914155395939 95.31346959058538"/>
		<path opacity="0.75" fill="pink" d="M-98.27914155395939 95.31346959058538 L-98.27914155395939 103.97372362842978 L-55.12083400419732 112.18446212892839 L-98.27914155395939 95.31346959058538"/>
		<path opacity="0.75" fill="pink" d="M-103.27914155395939 99.64359660950758 L-103.27914155395939 108.30385064735198 L-55.12083400419732 112.18446212892839 L-103.27914155395939 99.64359660950758"/>
		<path opacity="0.75" fill="pink" d="M-98.27914155395939 103.97372362842978 L-103.27914155395939 108.30385064735198 L-55.12083400419732 112.18446212892839 L-98.27914155395939 103.97372362842978"/>

		<path opacity="0.75" fill="darkturquoise" d="M-98.27914155395939 95.31346959058538 L-103.27914155395939 99.64359660950758 L-103.27914155395939 108.30385064735198 L-98.27914155395939 103.97372362842978 L-98.27914155395939 95.31346959058538"/>
		<path opacity="0.75" fill="darkturquoise" d="M-115.59964962964816 90.31346959058538 L-120.59964962964816 94.64359660950758 L-120.59964962964816 103.30385064735198 L-115.59964962964816 98.97372362842978 L-115.59964962964816 90.31346959058538"/>
		<path opacity="0.75" fill="darkturquoise" d="M-98.27914155395939 95.31346959058538 L-115.59964962964816 90.31346959058538 L-115.59964962964816 98.97372362842978 L-98.27914155395939 103.97372362842978 L-98.27914155395939 95.31346959058538"/>
		<path opacity="0.75" fill="darkturquoise" d="M-103.27914155395939 99.64359660950758 L-120.59964962964816 94.64359660950758 L-120.59964962964816 103.30385064735198 L-103.27914155395939 108.30385064735198 L-103.27914155395939 99.64359660950758"/>
		<path opacity="0.75" fill="darkturquoise" d="M-98.27914155395939 95.31346959058538 L-103.27914155395939 99.64359660950758 L-120.59964962964816 94.64359660950758 L-115.59964962964816 90.31346959058538 L-98.27914155395939 95.31346959058538"/>
		<path opacity="0.75" fill="darkturquoise" d="M-98.27914155395939 103.97372362842978 L-103.27914155395939 108.30385064735198 L-120.59964962964816 103.30385064735198 L-115.59964962964816 98.97372362842978 L-98.27914155395939 103.97372362842978"/>
		<text x="-115.59964962964816" y="94.64359660950758" font-family="calibri" font-size="4">10</text>
		<text x="-118.09964962964816" y="101.13878713789089" font-family="calibri" font-size="4">10</text>
		<text x="-106.93939559180377" y="92.81346959058538" font-family="calibri" font-size="4">20</text>

		<path opacity="0.5" fill="orange" d="M-97.33974596215558 80.44228634059948 L-113.33974596215556 94.2986928011505 L-113.33974596215556 122.01150572225252 L-97.33974596215558 108.15509926170151 L-97.33974596215558 80.44228634059948"/>
		<path opacity="0.5" fill="orange" d="M-114.66025403784434 75.44228634059948 L-130.66025403784434 89.2986928011505 L-130.66025403784434 117.01150572225252 L-114.66025403784434 103.15509926170151 L-114.66025403784434 75.44228634059948"/>
		<path opacity="0.5" fill="orange" d="M-97.33974596215558 80.44228634059948 L-114.66025403784434 75.44228634059948 L-114.66025403784434 103.15509926170151 L-97.33974596215558 108.15509926170151 L-97.33974596215558 80.44228634059948"/>
		<path opacity="0.5" fill="orange" d="M-113.33974596215556 94.2986928011505 L-130.66025403784434 89.2986928011505 L-130.66025403784434 117.01150572225252 L-113.33974596215556 122.01150572225252 L-113.33974596215556 94.2986928011505"/>
		<path opacity="0.5" fill="orange" d="M-97.33974596215558 80.44228634059948 L-113.33974596215556 94.2986928011505 L-130.66025403784434 89.2986928011505 L-114.66025403784434 75.44228634059948 L-97.33974596215558 80.44228634059948"/>
		<path opacity="0.5" fill="orange" d="M-97.33974596215558 108.15509926170151 L-113.33974596215556 122.01150572225252 L-130.66025403784434 117.01150572225252 L-114.66025403784434 103.15509926170151 L-97.33974596215558 108.15509926170151"/>
		<text x="-114.66025403784434" y="89.2986928011505" font-family="calibri" font-size="4">32</text>
		<text x="-122.66025403784434" y="110.08330249197701" font-family="calibri" font-size="4">32</text>
		<text x="-105.99999999999996" y="77.94228634059948" font-family="calibri" font-size="4">20</text>

		<path opacity="0.75" fill="pink" d="M-4.753403838712558 97.63038273266123 L-7.253403838712558 99.79544624212232 L35.5322547271939 112.985839971596 L-4.753403838712558 97.63038273266123"/>
		<path opacity="0.75" fill="pink" d="M-4.753403838712558 97.63038273266123 L-4.753403838712558 101.96050975158342 L35.5322547271939 112.985839971596 L-4.753403838712558 97.63038273266123"/>
		<path opacity="0.75" fill="pink" d="M-7.253403838712558 99.79544624212232 L-7.253403838712558 104.12557326104451 L35.5322547271939 112.985839971596 L-7.253403838712558 99.79544624212232"/>
		<path opacity="0.75" fill="pink" d="M-4.753403838712558 101.96050975158342 L-7.253403838712558 104.12557326104451 L35.5322547271939 112.985839971596 L-4.753403838712558 101.96050975158342"/>

		<path opacity="0.75" fill="pink" d="M120.28251798261323 101.03291573015309 L117.78251798261323 103.1979792396142 L162.88714194697332 114.17188024515863 L120.28251798261323 101.03291573015309"/>
		<path opacity="0.75" fill="pink" d="M120.28251798261323 101.03291573015309 L120.28251798261323 105.36304274907529 L162.88714194697332 114.17188024515863 L120.28251798261323 101.03291573015309"/>
		<path opacity="0.75" fill="pink" d="M117.78251798261323 103.1979792396142 L117.78251798261323 107.52810625853638 L162.88714194697332 114.17188024515863 L117.78251798261323 103.1979792396142"/>
		<path opacity="0.75" fill="pink" d="M120.28251798261323 105.36304274907529 L117.78251798261323 107.52810625853638 L162.88714194697332 114.17188024515863 L120.28251798261323 105.36304274907529"/>

		<path opacity="0.5" fill="orange" d="M350.6146441856798 111.89470958122156 L346.6146441856798 115.35881119635931 L346.6146441856798 122.28701442663483 L350.6146441856798 118.82291281149708 L350.6146441856798 111.89470958122156"/>
		<path opacity="0.5" fill="orange" d="M295.18901834347577 95.89470958122158 L291.18901834347577 99.35881119635933 L291.18901834347577 106.28701442663484 L295.18901834347577 102.82291281149709 L295.18901834347577 95.89470958122158"/>
		<path opacity="0.5" fill="orange" d="M350.6146441856798 111.89470958122156 L295.18901834347577 95.89470958122158 L295.18901834347577 102.82291281149709 L350.6146441856798 118.82291281149708 L350.6146441856798 111.89470958122156"/>
		<path opacity="0.5" fill="orange" d="M346.6146441856798 115.35881119635931 L291.18901834347577 99.35881119635933 L291.18901834347577 106.28701442663484 L346.6146441856798 122.28701442663483 L346.6146441856798 115.35881119635931"/>
		<path opacity="0.5" fill="orange" d="M350.6146441856798 111.89470958122156 L346.6146441856798 115.35881119635931 L291.18901834347577 99.35881119635933 L295.18901834347577 95.89470958122158 L350.6146441856798 111.89470958122156"/>
		<path opacity="0.5" fill="orange" d="M350.6146441856798 118.82291281149708 L346.6146441856798 122.28701442663483 L291.18901834347577 106.28701442663484 L295.18901834347577 102.82291281149709 L350.6146441856798 118.82291281149708"/>
		<text x="295.18901834347577" y="99.35881119635934" font-family="calibri" font-size="4">8</text>
		<text x="293.18901834347577" y="104.55496361906597" font-family="calibri" font-size="4">8</text>
		<text x="322.9018312645778" y="103.89470958122158" font-family="calibri" font-size="4">64</text>

		<path opacity="0.75" fill="darkturquoise" d="M-31.179130076096826 113.16055587514815 L-33.67913007609681 115.32561938460924 L-33.67913007609681 119.65574640353144 L-31.179130076096826 117.49068289407035 L-31.179130076096826 113.16055587514815"/>
		<path opacity="0.75" fill="darkturquoise" d="M-58.89194299719887 105.16055587514815 L-61.39194299719885 107.32561938460924 L-61.39194299719885 111.65574640353144 L-58.89194299719887 109.49068289407035 L-58.89194299719887 105.16055587514815"/>
		<path opacity="0.75" fill="darkturquoise" d="M-31.179130076096826 113.16055587514815 L-58.89194299719887 105.16055587514815 L-58.89194299719887 109.49068289407035 L-31.179130076096826 117.49068289407035 L-31.179130076096826 113.16055587514815"/>
		<path opacity="0.75" fill="darkturquoise" d="M-33.67913007609681 115.32561938460924 L-61.39194299719885 107.32561938460924 L-61.39194299719885 111.65574640353144 L-33.67913007609681 119.65574640353144 L-33.67913007609681 115.32561938460924"/>
		<path opacity="0.75" fill="darkturquoise" d="M-31.179130076096826 113.16055587514815 L-33.67913007609681 115.32561938460924 L-61.39194299719885 107.32561938460924 L-58.89194299719887 105.16055587514815 L-31.179130076096826 113.16055587514815"/>
		<path opacity="0.75" fill="darkturquoise" d="M-31.179130076096826 117.49068289407035 L-33.67913007609681 119.65574640353144 L-61.39194299719885 111.65574640353144 L-58.89194299719887 109.49068289407035 L-31.179130076096826 117.49068289407035"/>
		<text x="-58.89194299719887" y="107.32561938460924" font-family="calibri" font-size="4">5</text>
		<text x="-60.14194299719886" y="110.5732146488009" font-family="calibri" font-size="4">5</text>
		<text x="-45.03553653664785" y="109.16055587514815" font-family="calibri" font-size="4">32</text>

		<path opacity="0.5" fill="orange" d="M-26.325662851831595 100.94228634059947 L-42.32566285183158 114.79869280115048 L-42.32566285183158 142.5115057222525 L-26.325662851831595 128.65509926170148 L-26.325662851831595 100.94228634059947"/>
		<path opacity="0.5" fill="orange" d="M-54.03847577293364 92.94228634059947 L-70.03847577293362 106.79869280115048 L-70.03847577293362 134.5115057222525 L-54.03847577293364 120.6550992617015 L-54.03847577293364 92.94228634059947"/>
		<path opacity="0.5" fill="orange" d="M-26.325662851831595 100.94228634059947 L-54.03847577293364 92.94228634059947 L-54.03847577293364 120.6550992617015 L-26.325662851831595 128.65509926170148 L-26.325662851831595 100.94228634059947"/>
		<path opacity="0.5" fill="orange" d="M-42.32566285183158 114.79869280115048 L-70.03847577293362 106.79869280115048 L-70.03847577293362 134.5115057222525 L-42.32566285183158 142.5115057222525 L-42.32566285183158 114.79869280115048"/>
		<path opacity="0.5" fill="orange" d="M-26.325662851831595 100.94228634059947 L-42.32566285183158 114.79869280115048 L-70.03847577293362 106.79869280115048 L-54.03847577293364 92.94228634059947 L-26.325662851831595 100.94228634059947"/>
		<path opacity="0.5" fill="orange" d="M-26.325662851831595 128.65509926170148 L-42.32566285183158 142.5115057222525 L-70.03847577293362 134.5115057222525 L-54.03847577293364 120.6550992617015 L-26.325662851831595 128.65509926170148"/>
		<text x="-54.03847577293364" y="106.79869280115048" font-family="calibri" font-size="4">32</text>
		<text x="-62.03847577293363" y="127.58330249197701" font-family="calibri" font-size="4">32</text>
		<text x="-40.182069312382616" y="96.94228634059947" font-family="calibri" font-size="4">32</text>

		<path opacity="0.75" fill="darkturquoise" d="M91.81233480994561 121.9024821177805 L89.31233480994561 124.0675456272416 L89.31233480994561 128.39767264616378 L91.81233480994561 126.23260913670268 L91.81233480994561 121.9024821177805"/>
		<path opacity="0.75" fill="darkturquoise" d="M36.38670896774153 105.9024821177805 L33.88670896774153 108.0675456272416 L33.88670896774153 112.39767264616378 L36.38670896774153 110.23260913670268 L36.38670896774153 105.9024821177805"/>
		<path opacity="0.75" fill="darkturquoise" d="M91.81233480994561 121.9024821177805 L36.38670896774153 105.9024821177805 L36.38670896774153 110.23260913670268 L91.81233480994561 126.23260913670268 L91.81233480994561 121.9024821177805"/>
		<path opacity="0.75" fill="darkturquoise" d="M89.31233480994561 124.0675456272416 L33.88670896774153 108.0675456272416 L33.88670896774153 112.39767264616378 L89.31233480994561 128.39767264616378 L89.31233480994561 124.0675456272416"/>
		<path opacity="0.75" fill="darkturquoise" d="M91.81233480994561 121.9024821177805 L89.31233480994561 124.0675456272416 L33.88670896774153 108.0675456272416 L36.38670896774153 105.9024821177805 L91.81233480994561 121.9024821177805"/>
		<path opacity="0.75" fill="darkturquoise" d="M91.81233480994561 126.23260913670268 L89.31233480994561 128.39767264616378 L33.88670896774153 112.39767264616378 L36.38670896774153 110.23260913670268 L91.81233480994561 126.23260913670268"/>
		<text x="36.38670896774153" y="108.06754562724159" font-family="calibri" font-size="4">5</text>
		<text x="35.13670896774153" y="111.31514089143323" font-family="calibri" font-size="4">5</text>
		<text x="64.09952188884357" y="113.9024821177805" font-family="calibri" font-size="4">64</text>

		<path opacity="0.5" fill="orange" d="M96.90123317959443 115.15286717815621 L88.90123317959443 122.08107040843171 L88.90123317959443 135.93747686898274 L96.90123317959443 129.0092736387072 L96.90123317959443 115.15286717815621"/>
		<path opacity="0.5" fill="orange" d="M41.47560733739034 99.15286717815621 L33.47560733739034 106.08107040843171 L33.47560733739034 119.93747686898274 L41.47560733739034 113.00927363870724 L41.47560733739034 99.15286717815621"/>
		<path opacity="0.5" fill="orange" d="M96.90123317959443 115.15286717815621 L41.47560733739034 99.15286717815621 L41.47560733739034 113.00927363870724 L96.90123317959443 129.0092736387072 L96.90123317959443 115.15286717815621"/>
		<path opacity="0.5" fill="orange" d="M88.90123317959443 122.08107040843171 L33.47560733739034 106.08107040843171 L33.47560733739034 119.93747686898274 L88.90123317959443 135.93747686898274 L88.90123317959443 122.08107040843171"/>
		<path opacity="0.5" fill="orange" d="M96.90123317959443 115.15286717815621 L88.90123317959443 122.08107040843171 L33.47560733739034 106.08107040843171 L41.47560733739034 99.15286717815621 L96.90123317959443 115.15286717815621"/>
		<path opacity="0.5" fill="orange" d="M96.90123317959443 129.0092736387072 L88.90123317959443 135.93747686898274 L33.47560733739034 119.93747686898274 L41.47560733739034 113.00927363870724 L96.90123317959443 129.0092736387072"/>
		<text x="41.47560733739034" y="106.08107040843173" font-family="calibri" font-size="4">16</text>
		<text x="37.47560733739034" y="116.47337525384499" font-family="calibri" font-size="4">16</text>
		<text x="69.18842025849239" y="107.15286717815621" font-family="calibri" font-size="4">64</text>

		<path opacity="0.5" fill="orange" d="M222.12812921102042 124.16729559300632 L218.12812921102042 127.63139720814408 L218.12812921102042 134.55960043841958 L222.12812921102042 131.09549882328184 L222.12812921102042 124.16729559300632"/>
		<path opacity="0.5" fill="orange" d="M166.70250336881634 108.16729559300633 L162.70250336881634 111.63139720814408 L162.70250336881634 118.55960043841961 L166.70250336881634 115.09549882328184 L166.70250336881634 108.16729559300633"/>
		<path opacity="0.5" fill="orange" d="M222.12812921102042 124.16729559300632 L166.70250336881634 108.16729559300633 L166.70250336881634 115.09549882328184 L222.12812921102042 131.09549882328184 L222.12812921102042 124.16729559300632"/>
		<path opacity="0.5" fill="orange" d="M218.12812921102042 127.63139720814408 L162.70250336881634 111.63139720814408 L162.70250336881634 118.55960043841961 L218.12812921102042 134.55960043841958 L218.12812921102042 127.63139720814408"/>
		<path opacity="0.5" fill="orange" d="M222.12812921102042 124.16729559300632 L218.12812921102042 127.63139720814408 L162.70250336881634 111.63139720814408 L166.70250336881634 108.16729559300633 L222.12812921102042 124.16729559300632"/>
		<path opacity="0.5" fill="orange" d="M222.12812921102042 131.09549882328184 L218.12812921102042 134.55960043841958 L162.70250336881634 118.55960043841961 L166.70250336881634 115.09549882328184 L222.12812921102042 131.09549882328184"/>
		<text x="166.70250336881634" y="111.63139720814408" font-family="calibri" font-size="4">8</text>
		<text x="164.70250336881634" y="116.82754963085073" font-family="calibri" font-size="4">8</text>
		<text x="194.4153162899184" y="116.16729559300632" font-family="calibri" font-size="4">64</text>

		<path opacity="0.75" fill="pink" d="M-31.179130076096826 113.16055587514815 L-33.67913007609681 115.32561938460924 L7.62295729836228 140.07097579154984 L-31.179130076096826 113.16055587514815"/>
		<path opacity="0.75" fill="pink" d="M-31.179130076096826 113.16055587514815 L-31.179130076096826 117.49068289407035 L7.62295729836228 140.07097579154984 L-31.179130076096826 113.16055587514815"/>
		<path opacity="0.75" fill="pink" d="M-33.67913007609681 115.32561938460924 L-33.67913007609681 119.65574640353144 L7.62295729836228 140.07097579154984 L-33.67913007609681 115.32561938460924"/>
		<path opacity="0.75" fill="pink" d="M-31.179130076096826 117.49068289407035 L-33.67913007609681 119.65574640353144 L7.62295729836228 140.07097579154984 L-31.179130076096826 117.49068289407035"/>

		<path opacity="0.75" fill="pink" d="M91.81233480994561 121.9024821177805 L89.31233480994561 124.0675456272416 L136.02988905212533 139.4861129643577 L91.81233480994561 121.9024821177805"/>
		<path opacity="0.75" fill="pink" d="M91.81233480994561 121.9024821177805 L91.81233480994561 126.23260913670268 L136.02988905212533 139.4861129643577 L91.81233480994561 121.9024821177805"/>
		<path opacity="0.75" fill="pink" d="M89.31233480994561 124.0675456272416 L89.31233480994561 128.39767264616378 L136.02988905212533 139.4861129643577 L89.31233480994561 124.0675456272416"/>
		<path opacity="0.75" fill="pink" d="M91.81233480994561 126.23260913670268 L89.31233480994561 128.39767264616378 L136.02988905212533 139.4861129643577 L91.81233480994561 126.23260913670268"/>

<!-- Arrow -->
		<path opacity="0.5" stroke="black" d="M348.6146441856798 117.0908620039282 L357.5505333181352 144.35215500982056"/>
		<circle opacity="0.5" cx="357.5505333181352" cy="144.35215500982056" r="1" fill="black" />
<!-- Arrow -->
		<path opacity="0.5" stroke="black" d="M220.12812921102042 129.36344801571295 L357.5505333181352 144.35215500982056"/>
		<circle opacity="0.5" cx="357.5505333181352" cy="144.35215500982056" r="1" fill="black" />
		<path opacity="0.75" fill="darkturquoise" d="M66.82165275958911 150.64893793323597 L64.32165275958913 152.81400144269708 L64.32165275958913 157.14412846161926 L66.82165275958911 154.97906495215818 L66.82165275958911 150.64893793323597"/>
		<path opacity="0.75" fill="darkturquoise" d="M11.39602691738503 134.64893793323597 L8.896026917385043 136.81400144269708 L8.896026917385043 141.14412846161926 L11.39602691738503 138.97906495215818 L11.39602691738503 134.64893793323597"/>
		<path opacity="0.75" fill="darkturquoise" d="M66.82165275958911 150.64893793323597 L11.39602691738503 134.64893793323597 L11.39602691738503 138.97906495215818 L66.82165275958911 154.97906495215818 L66.82165275958911 150.64893793323597"/>
		<path opacity="0.75" fill="darkturquoise" d="M64.32165275958913 152.81400144269708 L8.896026917385043 136.81400144269708 L8.896026917385043 141.14412846161926 L64.32165275958913 157.14412846161926 L64.32165275958913 152.81400144269708"/>
		<path opacity="0.75" fill="darkturquoise" d="M66.82165275958911 150.64893793323597 L64.32165275958913 152.81400144269708 L8.896026917385043 136.81400144269708 L11.39602691738503 134.64893793323597 L66.82165275958911 150.64893793323597"/>
		<path opacity="0.75" fill="darkturquoise" d="M66.82165275958911 154.97906495215818 L64.32165275958913 157.14412846161926 L8.896026917385043 141.14412846161926 L11.39602691738503 138.97906495215818 L66.82165275958911 154.97906495215818"/>
		<text x="11.39602691738503" y="136.81400144269708" font-family="calibri" font-size="4">5</text>
		<text x="10.146026917385036" y="140.06159670688874" font-family="calibri" font-size="4">5</text>
		<text x="39.10883983848707" y="142.64893793323597" font-family="calibri" font-size="4">64</text>

		<path opacity="0.5" fill="orange" d="M68.40123317959443 139.8345911860127 L60.40123317959444 146.76279441628822 L60.40123317959444 160.61920087683924 L68.40123317959443 153.69099764656374 L68.40123317959443 139.8345911860127"/>
		<path opacity="0.5" fill="orange" d="M12.975607337390343 123.83459118601272 L4.9756073373903575 130.76279441628822 L4.9756073373903575 144.61920087683924 L12.975607337390343 137.69099764656374 L12.975607337390343 123.83459118601272"/>
		<path opacity="0.5" fill="orange" d="M68.40123317959443 139.8345911860127 L12.975607337390343 123.83459118601272 L12.975607337390343 137.69099764656374 L68.40123317959443 153.69099764656374 L68.40123317959443 139.8345911860127"/>
		<path opacity="0.5" fill="orange" d="M60.40123317959444 146.76279441628822 L4.9756073373903575 130.76279441628822 L4.9756073373903575 144.61920087683924 L60.40123317959444 160.61920087683924 L60.40123317959444 146.76279441628822"/>
		<path opacity="0.5" fill="orange" d="M68.40123317959443 139.8345911860127 L60.40123317959444 146.76279441628822 L4.9756073373903575 130.76279441628822 L12.975607337390343 123.83459118601272 L68.40123317959443 139.8345911860127"/>
		<path opacity="0.5" fill="orange" d="M68.40123317959443 153.69099764656374 L60.40123317959444 160.61920087683924 L4.9756073373903575 144.61920087683924 L12.975607337390343 137.69099764656374 L68.40123317959443 153.69099764656374"/>
		<text x="12.975607337390343" y="130.76279441628822" font-family="calibri" font-size="4">16</text>
		<text x="8.97560733739035" y="141.15509926170148" font-family="calibri" font-size="4">16</text>
		<text x="40.688420258492386" y="131.8345911860127" font-family="calibri" font-size="4">64</text>

		<path opacity="0.5" fill="orange" d="M193.62812921102045 148.84901960086285 L189.62812921102045 152.31312121600058 L189.62812921102045 159.24132444627608 L193.62812921102045 155.77722283113832 L193.62812921102045 148.84901960086285"/>
		<path opacity="0.5" fill="orange" d="M138.20250336881634 132.84901960086285 L134.20250336881634 136.31312121600058 L134.20250336881634 143.24132444627608 L138.20250336881634 139.77722283113835 L138.20250336881634 132.84901960086285"/>
		<path opacity="0.5" fill="orange" d="M193.62812921102045 148.84901960086285 L138.20250336881634 132.84901960086285 L138.20250336881634 139.77722283113835 L193.62812921102045 155.77722283113832 L193.62812921102045 148.84901960086285"/>
		<path opacity="0.5" fill="orange" d="M189.62812921102045 152.31312121600058 L134.20250336881634 136.31312121600058 L134.20250336881634 143.24132444627608 L189.62812921102045 159.24132444627608 L189.62812921102045 152.31312121600058"/>
		<path opacity="0.5" fill="orange" d="M193.62812921102045 148.84901960086285 L189.62812921102045 152.31312121600058 L134.20250336881634 136.31312121600058 L138.20250336881634 132.84901960086285 L193.62812921102045 148.84901960086285"/>
		<path opacity="0.5" fill="orange" d="M193.62812921102045 155.77722283113832 L189.62812921102045 159.24132444627608 L134.20250336881634 143.24132444627608 L138.20250336881634 139.77722283113835 L193.62812921102045 155.77722283113832"/>
		<text x="138.20250336881634" y="136.31312121600058" font-family="calibri" font-size="4">8</text>
		<text x="136.20250336881634" y="141.5092736387072" font-family="calibri" font-size="4">8</text>
		<text x="165.9153162899184" y="140.84901960086285" font-family="calibri" font-size="4">64</text>

		<path opacity="0.75" fill="pink" d="M66.82165275958911 150.64893793323597 L64.32165275958913 152.81400144269708 L108.2018141498543 160.84978862778874 L66.82165275958911 150.64893793323597"/>
		<path opacity="0.75" fill="pink" d="M66.82165275958911 150.64893793323597 L66.82165275958911 154.97906495215818 L108.2018141498543 160.84978862778874 L66.82165275958911 150.64893793323597"/>
		<path opacity="0.75" fill="pink" d="M64.32165275958913 152.81400144269708 L64.32165275958913 157.14412846161926 L108.2018141498543 160.84978862778874 L64.32165275958913 152.81400144269708"/>
		<path opacity="0.75" fill="pink" d="M66.82165275958911 154.97906495215818 L64.32165275958913 157.14412846161926 L108.2018141498543 160.84978862778874 L66.82165275958911 154.97906495215818"/>

		<path opacity="0.75" fill="darkturquoise" d="M414.8967621171698 155.60019530390343 L412.3967621171698 157.76525881336454 L412.3967621171698 162.09538583228672 L414.8967621171698 159.93032232282562 L414.8967621171698 155.60019530390343"/>
		<path opacity="0.75" fill="darkturquoise" d="M359.4711362749658 139.60019530390346 L356.9711362749658 141.76525881336454 L356.9711362749658 146.09538583228675 L359.4711362749658 143.93032232282565 L359.4711362749658 139.60019530390346"/>
		<path opacity="0.75" fill="darkturquoise" d="M414.8967621171698 155.60019530390343 L359.4711362749658 139.60019530390346 L359.4711362749658 143.93032232282565 L414.8967621171698 159.93032232282562 L414.8967621171698 155.60019530390343"/>
		<path opacity="0.75" fill="darkturquoise" d="M412.3967621171698 157.76525881336454 L356.9711362749658 141.76525881336454 L356.9711362749658 146.09538583228675 L412.3967621171698 162.09538583228672 L412.3967621171698 157.76525881336454"/>
		<path opacity="0.75" fill="darkturquoise" d="M414.8967621171698 155.60019530390343 L412.3967621171698 157.76525881336454 L356.9711362749658 141.76525881336454 L359.4711362749658 139.60019530390346 L414.8967621171698 155.60019530390343"/>
		<path opacity="0.75" fill="darkturquoise" d="M414.8967621171698 159.93032232282562 L412.3967621171698 162.09538583228672 L356.9711362749658 146.09538583228675 L359.4711362749658 143.93032232282565 L414.8967621171698 159.93032232282562"/>
		<text x="359.4711362749658" y="141.76525881336454" font-family="calibri" font-size="4">5</text>
		<text x="358.2211362749658" y="145.0128540775562" font-family="calibri" font-size="4">5</text>
		<text x="387.18394919606783" y="147.60019530390343" font-family="calibri" font-size="4">64</text>

		<path opacity="0.5" fill="orange" d="M414.97615916033925 155.1560025871139 L410.97615916033925 158.62010420225167 L410.97615916033925 165.54830743252717 L414.97615916033925 162.08420581738943 L414.97615916033925 155.1560025871139"/>
		<path opacity="0.5" fill="orange" d="M359.5505333181352 139.15600258711393 L355.5505333181352 142.6201042022517 L355.5505333181352 149.5483074325272 L359.5505333181352 146.08420581738943 L359.5505333181352 139.15600258711393"/>
		<path opacity="0.5" fill="orange" d="M414.97615916033925 155.1560025871139 L359.5505333181352 139.15600258711393 L359.5505333181352 146.08420581738943 L414.97615916033925 162.08420581738943 L414.97615916033925 155.1560025871139"/>
		<path opacity="0.5" fill="orange" d="M410.97615916033925 158.62010420225167 L355.5505333181352 142.6201042022517 L355.5505333181352 149.5483074325272 L410.97615916033925 165.54830743252717 L410.97615916033925 158.62010420225167"/>
		<path opacity="0.5" fill="orange" d="M414.97615916033925 155.1560025871139 L410.97615916033925 158.62010420225167 L355.5505333181352 142.6201042022517 L359.5505333181352 139.15600258711393 L414.97615916033925 155.1560025871139"/>
		<path opacity="0.5" fill="orange" d="M414.97615916033925 162.08420581738943 L410.97615916033925 165.54830743252717 L355.5505333181352 149.5483074325272 L359.5505333181352 146.08420581738943 L414.97615916033925 162.08420581738943"/>
		<text x="359.5505333181352" y="142.6201042022517" font-family="calibri" font-size="4">8</text>
		<text x="357.5505333181352" y="147.81625662495833" font-family="calibri" font-size="4">8</text>
		<text x="387.2633462392372" y="147.1560025871139" font-family="calibri" font-size="4">64</text>

		<path opacity="0.75" fill="pink" d="M414.8967621171698 155.60019530390343 L412.3967621171698 157.76525881336454 L456.72699026801956 169.09068738924 L414.8967621171698 155.60019530390343"/>
		<path opacity="0.75" fill="pink" d="M414.8967621171698 155.60019530390343 L414.8967621171698 159.93032232282562 L456.72699026801956 169.09068738924 L414.8967621171698 155.60019530390343"/>
		<path opacity="0.75" fill="pink" d="M412.3967621171698 157.76525881336454 L412.3967621171698 162.09538583228672 L456.72699026801956 169.09068738924 L412.3967621171698 157.76525881336454"/>
		<path opacity="0.75" fill="pink" d="M414.8967621171698 159.93032232282562 L412.3967621171698 162.09538583228672 L456.72699026801956 169.09068738924 L414.8967621171698 159.93032232282562"/>

<!-- Arrow -->
		<path opacity="0.5" stroke="black" d="M191.62812921102045 154.04517202356945 L207.68901834347582 175.13603402749771"/>
		<circle opacity="0.5" cx="207.68901834347582" cy="175.13603402749771" r="1" fill="black" />
		<path opacity="0.5" fill="orange" d="M165.12812921102045 173.53074360871932 L161.12812921102045 176.99484522385708 L161.12812921102045 183.92304845413258 L165.12812921102045 180.45894683899485 L165.12812921102045 173.53074360871932"/>
		<path opacity="0.5" fill="orange" d="M109.70250336881637 157.53074360871935 L105.70250336881637 160.99484522385708 L105.70250336881637 167.92304845413258 L109.70250336881637 164.45894683899485 L109.70250336881637 157.53074360871935"/>
		<path opacity="0.5" fill="orange" d="M165.12812921102045 173.53074360871932 L109.70250336881637 157.53074360871935 L109.70250336881637 164.45894683899485 L165.12812921102045 180.45894683899485 L165.12812921102045 173.53074360871932"/>
		<path opacity="0.5" fill="orange" d="M161.12812921102045 176.99484522385708 L105.70250336881637 160.99484522385708 L105.70250336881637 167.92304845413258 L161.12812921102045 183.92304845413258 L161.12812921102045 176.99484522385708"/>
		<path opacity="0.5" fill="orange" d="M165.12812921102045 173.53074360871932 L161.12812921102045 176.99484522385708 L105.70250336881637 160.99484522385708 L109.70250336881637 157.53074360871935 L165.12812921102045 173.53074360871932"/>
		<path opacity="0.5" fill="orange" d="M165.12812921102045 180.45894683899485 L161.12812921102045 183.92304845413258 L105.70250336881637 167.92304845413258 L109.70250336881637 164.45894683899485 L165.12812921102045 180.45894683899485"/>
		<text x="109.70250336881637" y="160.9948452238571" font-family="calibri" font-size="4">8</text>
		<text x="107.70250336881637" y="166.19099764656372" font-family="calibri" font-size="4">8</text>
		<text x="137.4153162899184" y="165.53074360871932" font-family="calibri" font-size="4">64</text>

<!-- Arrow -->
		<path opacity="0.5" stroke="black" d="M163.12812921102045 178.72689603142595 L207.68901834347582 175.13603402749771"/>
		<circle opacity="0.5" cx="207.68901834347582" cy="175.13603402749771" r="1" fill="black" />
		<path opacity="0.5" fill="orange" d="M513.7030551917653 183.6560025871139 L509.7030551917653 187.12010420225167 L509.7030551917653 194.04830743252717 L513.7030551917653 190.58420581738943 L513.7030551917653 183.6560025871139"/>
		<path opacity="0.5" fill="orange" d="M458.2774293495612 167.6560025871139 L454.2774293495612 171.12010420225167 L454.2774293495612 178.04830743252717 L458.2774293495612 174.58420581738943 L458.2774293495612 167.6560025871139"/>
		<path opacity="0.5" fill="orange" d="M513.7030551917653 183.6560025871139 L458.2774293495612 167.6560025871139 L458.2774293495612 174.58420581738943 L513.7030551917653 190.58420581738943 L513.7030551917653 183.6560025871139"/>
		<path opacity="0.5" fill="orange" d="M509.7030551917653 187.12010420225167 L454.2774293495612 171.12010420225167 L454.2774293495612 178.04830743252717 L509.7030551917653 194.04830743252717 L509.7030551917653 187.12010420225167"/>
		<path opacity="0.5" fill="orange" d="M513.7030551917653 183.6560025871139 L509.7030551917653 187.12010420225167 L454.2774293495612 171.12010420225167 L458.2774293495612 167.6560025871139 L513.7030551917653 183.6560025871139"/>
		<path opacity="0.5" fill="orange" d="M513.7030551917653 190.58420581738943 L509.7030551917653 194.04830743252717 L454.2774293495612 178.04830743252717 L458.2774293495612 174.58420581738943 L513.7030551917653 190.58420581738943"/>
		<text x="458.2774293495612" y="171.12010420225167" font-family="calibri" font-size="4">8</text>
		<text x="456.2774293495612" y="176.3162566249583" font-family="calibri" font-size="4">8</text>
		<text x="485.99024227066326" y="175.6560025871139" font-family="calibri" font-size="4">64</text>

		<path opacity="0.75" fill="darkturquoise" d="M263.71944385934586 187.6679098188901 L261.21944385934586 189.8329733283512 L261.21944385934586 194.16310034727337 L263.71944385934586 191.99803683781226 L263.71944385934586 187.6679098188901"/>
		<path opacity="0.75" fill="darkturquoise" d="M208.2938180171418 171.6679098188901 L205.7938180171418 173.83297332835122 L205.7938180171418 178.16310034727337 L208.2938180171418 175.9980368378123 L208.2938180171418 171.6679098188901"/>
		<path opacity="0.75" fill="darkturquoise" d="M263.71944385934586 187.6679098188901 L208.2938180171418 171.6679098188901 L208.2938180171418 175.9980368378123 L263.71944385934586 191.99803683781226 L263.71944385934586 187.6679098188901"/>
		<path opacity="0.75" fill="darkturquoise" d="M261.21944385934586 189.8329733283512 L205.7938180171418 173.83297332835122 L205.7938180171418 178.16310034727337 L261.21944385934586 194.16310034727337 L261.21944385934586 189.8329733283512"/>
		<path opacity="0.75" fill="darkturquoise" d="M263.71944385934586 187.6679098188901 L261.21944385934586 189.8329733283512 L205.7938180171418 173.83297332835122 L208.2938180171418 171.6679098188901 L263.71944385934586 187.6679098188901"/>
		<path opacity="0.75" fill="darkturquoise" d="M263.71944385934586 191.99803683781226 L261.21944385934586 194.16310034727337 L205.7938180171418 178.16310034727337 L208.2938180171418 175.9980368378123 L263.71944385934586 191.99803683781226"/>
		<text x="208.2938180171418" y="173.83297332835122" font-family="calibri" font-size="4">5</text>
		<text x="207.0438180171418" y="177.08056859254282" font-family="calibri" font-size="4">5</text>
		<text x="236.00663093824383" y="179.6679098188901" font-family="calibri" font-size="4">64</text>

		<path opacity="0.5" fill="orange" d="M265.1146441856799 185.93988160479108 L261.1146441856799 189.40398321992882 L261.1146441856799 196.33218645020432 L265.1146441856799 192.86808483506655 L265.1146441856799 185.93988160479108"/>
		<path opacity="0.5" fill="orange" d="M209.68901834347582 169.93988160479108 L205.68901834347582 173.40398321992882 L205.68901834347582 180.33218645020435 L209.68901834347582 176.86808483506658 L209.68901834347582 169.93988160479108"/>
		<path opacity="0.5" fill="orange" d="M265.1146441856799 185.93988160479108 L209.68901834347582 169.93988160479108 L209.68901834347582 176.86808483506658 L265.1146441856799 192.86808483506655 L265.1146441856799 185.93988160479108"/>
		<path opacity="0.5" fill="orange" d="M261.1146441856799 189.40398321992882 L205.68901834347582 173.40398321992882 L205.68901834347582 180.33218645020435 L261.1146441856799 196.33218645020432 L261.1146441856799 189.40398321992882"/>
		<path opacity="0.5" fill="orange" d="M265.1146441856799 185.93988160479108 L261.1146441856799 189.40398321992882 L205.68901834347582 173.40398321992882 L209.68901834347582 169.93988160479108 L265.1146441856799 185.93988160479108"/>
		<path opacity="0.5" fill="orange" d="M265.1146441856799 192.86808483506655 L261.1146441856799 196.33218645020432 L205.68901834347582 180.33218645020435 L209.68901834347582 176.86808483506658 L265.1146441856799 192.86808483506655"/>
		<text x="209.68901834347582" y="173.40398321992882" font-family="calibri" font-size="4">8</text>
		<text x="207.68901834347582" y="178.60013564263545" font-family="calibri" font-size="4">8</text>
		<text x="237.40183126457785" y="177.93988160479108" font-family="calibri" font-size="4">64</text>

		<path opacity="0.75" fill="pink" d="M263.71944385934586 187.6679098188901 L261.21944385934586 189.8329733283512 L304.76701187276626 202.5244627936525 L263.71944385934586 187.6679098188901"/>
		<path opacity="0.75" fill="pink" d="M263.71944385934586 187.6679098188901 L263.71944385934586 191.99803683781226 L304.76701187276626 202.5244627936525 L263.71944385934586 187.6679098188901"/>
		<path opacity="0.75" fill="pink" d="M261.21944385934586 189.8329733283512 L261.21944385934586 194.16310034727337 L304.76701187276626 202.5244627936525 L261.21944385934586 189.8329733283512"/>
		<path opacity="0.75" fill="pink" d="M263.71944385934586 191.99803683781226 L261.21944385934586 194.16310034727337 L304.76701187276626 202.5244627936525 L263.71944385934586 191.99803683781226"/>

<!-- Arrow -->
		<path opacity="0.5" stroke="black" d="M511.7030551917653 188.85215500982056 L509.9514443242206 225.3690945186591"/>
		<circle opacity="0.5" cx="509.9514443242206" cy="225.3690945186591" r="1" fill="black" />
		<path opacity="0.5" fill="orange" d="M363.8415402171059 214.43988160479103 L359.8415402171059 217.9039832199288 L359.8415402171059 224.8321864502043 L363.8415402171059 221.36808483506655 L363.8415402171059 214.43988160479103"/>
		<path opacity="0.5" fill="orange" d="M308.41591437490183 198.43988160479105 L304.41591437490183 201.90398321992882 L304.41591437490183 208.8321864502043 L308.41591437490183 205.36808483506655 L308.41591437490183 198.43988160479105"/>
		<path opacity="0.5" fill="orange" d="M363.8415402171059 214.43988160479103 L308.41591437490183 198.43988160479105 L308.41591437490183 205.36808483506655 L363.8415402171059 221.36808483506655 L363.8415402171059 214.43988160479103"/>
		<path opacity="0.5" fill="orange" d="M359.8415402171059 217.9039832199288 L304.41591437490183 201.90398321992882 L304.41591437490183 208.8321864502043 L359.8415402171059 224.8321864502043 L359.8415402171059 217.9039832199288"/>
		<path opacity="0.5" fill="orange" d="M363.8415402171059 214.43988160479103 L359.8415402171059 217.9039832199288 L304.41591437490183 201.90398321992882 L308.41591437490183 198.43988160479105 L363.8415402171059 214.43988160479103"/>
		<path opacity="0.5" fill="orange" d="M363.8415402171059 221.36808483506655 L359.8415402171059 224.8321864502043 L304.41591437490183 208.8321864502043 L308.41591437490183 205.36808483506655 L363.8415402171059 221.36808483506655"/>
		<text x="308.41591437490183" y="201.90398321992882" font-family="calibri" font-size="4">8</text>
		<text x="306.41591437490183" y="207.10013564263542" font-family="calibri" font-size="4">8</text>
		<text x="336.12872729600383" y="206.43988160479103" font-family="calibri" font-size="4">64</text>

<!-- Arrow -->
		<path opacity="0.5" stroke="black" d="M361.8415402171059 219.63603402749766 L509.9514443242206 225.3690945186591"/>
		<circle opacity="0.5" cx="509.9514443242206" cy="225.3690945186591" r="1" fill="black" />
		<path opacity="0.75" fill="darkturquoise" d="M521.111698362065 139.10149063075414 L516.111698362065 143.43161764967633 L516.111698362065 316.63669840656405 L521.111698362065 312.30657138764184 L521.111698362065 139.10149063075414"/>
		<path opacity="0.75" fill="darkturquoise" d="M512.4514443242206 136.60149063075414 L507.4514443242206 140.93161764967633 L507.4514443242206 314.13669840656405 L512.4514443242206 309.80657138764184 L512.4514443242206 136.60149063075414"/>
		<path opacity="0.75" fill="darkturquoise" d="M521.111698362065 139.10149063075414 L512.4514443242206 136.60149063075414 L512.4514443242206 309.80657138764184 L521.111698362065 312.30657138764184 L521.111698362065 139.10149063075414"/>
		<path opacity="0.75" fill="darkturquoise" d="M516.111698362065 143.43161764967633 L507.4514443242206 140.93161764967633 L507.4514443242206 314.13669840656405 L516.111698362065 316.63669840656405 L516.111698362065 143.43161764967633"/>
		<path opacity="0.75" fill="darkturquoise" d="M521.111698362065 139.10149063075414 L516.111698362065 143.43161764967633 L507.4514443242206 140.93161764967633 L512.4514443242206 136.60149063075414 L521.111698362065 139.10149063075414"/>
		<path opacity="0.75" fill="darkturquoise" d="M521.111698362065 312.30657138764184 L516.111698362065 316.63669840656405 L507.4514443242206 314.13669840656405 L512.4514443242206 309.80657138764184 L521.111698362065 312.30657138764184"/>
		<text x="512.4514443242206" y="223.204031009198" font-family="calibri" font-size="4">200</text>
		<text x="509.9514443242206" y="311.97163489710294" font-family="calibri" font-size="4">10</text>
		<text x="516.7815713431428" y="137.85149063075414" font-family="calibri" font-size="4">10</text>

<!-- Arrow -->
		<path opacity="0.5" stroke="black" d="M518.611698362065 227.8690945186591 L561.9129685512869 240.36909451865907"/>
		<circle opacity="0.5" cx="561.9129685512869" cy="240.36909451865907" r="1" fill="black" />
		<path opacity="0.75" fill="darkturquoise" d="M573.0732225891313 154.10149063075409 L568.0732225891313 158.4316176496763 L568.0732225891313 331.63669840656405 L573.0732225891313 327.30657138764184 L573.0732225891313 154.10149063075409"/>
		<path opacity="0.75" fill="darkturquoise" d="M564.4129685512869 151.60149063075409 L559.4129685512869 155.9316176496763 L559.4129685512869 329.13669840656405 L564.4129685512869 324.80657138764184 L564.4129685512869 151.60149063075409"/>
		<path opacity="0.75" fill="darkturquoise" d="M573.0732225891313 154.10149063075409 L564.4129685512869 151.60149063075409 L564.4129685512869 324.80657138764184 L573.0732225891313 327.30657138764184 L573.0732225891313 154.10149063075409"/>
		<path opacity="0.75" fill="darkturquoise" d="M568.0732225891313 158.4316176496763 L559.4129685512869 155.9316176496763 L559.4129685512869 329.13669840656405 L568.0732225891313 331.63669840656405 L568.0732225891313 158.4316176496763"/>
		<path opacity="0.75" fill="darkturquoise" d="M573.0732225891313 154.10149063075409 L568.0732225891313 158.4316176496763 L559.4129685512869 155.9316176496763 L564.4129685512869 151.60149063075409 L573.0732225891313 154.10149063075409"/>
		<path opacity="0.75" fill="darkturquoise" d="M573.0732225891313 327.30657138764184 L568.0732225891313 331.63669840656405 L559.4129685512869 329.13669840656405 L564.4129685512869 324.80657138764184 L573.0732225891313 327.30657138764184"/>
		<text x="564.4129685512869" y="238.20403100919796" font-family="calibri" font-size="4">200</text>
		<text x="561.9129685512869" y="326.97163489710294" font-family="calibri" font-size="4">10</text>
		<text x="568.7430955702091" y="152.85149063075409" font-family="calibri" font-size="4">10</text>

<!-- Arrow -->
		<path opacity="0.5" stroke="black" d="M570.5732225891313 242.86909451865907 L613.8744927783532 255.36909451865907"/>
		<circle opacity="0.5" cx="613.8744927783532" cy="255.36909451865907" r="1" fill="black" />
		<path opacity="0.75" fill="darkturquoise" d="M625.0347468161976 169.10149063075409 L620.0347468161976 173.4316176496763 L620.0347468161976 346.63669840656405 L625.0347468161976 342.30657138764184 L625.0347468161976 169.10149063075409"/>
		<path opacity="0.75" fill="darkturquoise" d="M616.3744927783532 166.60149063075409 L611.3744927783532 170.9316176496763 L611.3744927783532 344.13669840656405 L616.3744927783532 339.80657138764184 L616.3744927783532 166.60149063075409"/>
		<path opacity="0.75" fill="darkturquoise" d="M625.0347468161976 169.10149063075409 L616.3744927783532 166.60149063075409 L616.3744927783532 339.80657138764184 L625.0347468161976 342.30657138764184 L625.0347468161976 169.10149063075409"/>
		<path opacity="0.75" fill="darkturquoise" d="M620.0347468161976 173.4316176496763 L611.3744927783532 170.9316176496763 L611.3744927783532 344.13669840656405 L620.0347468161976 346.63669840656405 L620.0347468161976 173.4316176496763"/>
		<path opacity="0.75" fill="darkturquoise" d="M625.0347468161976 169.10149063075409 L620.0347468161976 173.4316176496763 L611.3744927783532 170.9316176496763 L616.3744927783532 166.60149063075409 L625.0347468161976 169.10149063075409"/>
		<path opacity="0.75" fill="darkturquoise" d="M625.0347468161976 342.30657138764184 L620.0347468161976 346.63669840656405 L611.3744927783532 344.13669840656405 L616.3744927783532 339.80657138764184 L625.0347468161976 342.30657138764184"/>
		<text x="616.3744927783532" y="253.20403100919796" font-family="calibri" font-size="4">200</text>
		<text x="613.8744927783532" y="341.97163489710294" font-family="calibri" font-size="4">10</text>
		<text x="620.7046197972754" y="167.85149063075409" font-family="calibri" font-size="4">10</text>

	 </g>
</svg>