<svg width="1000.0px" height="1000.0px" viewBox="-500.0 -500.0 1000.0 1000.0" xmlns="http://www.w3.org/2000/svg">
	<g stroke="black" stroke-width="0.3">
		<path opacity="0.75" fill="darkturquoise" d="M471.628750427021 -180.3869573849588 L476.628750427021 -176.0568303660366 L476.628750427021 -2.8517496091488397 L471.628750427021 -7.181876628071038 L471.628750427021 -180.3869573849588"/>
		<path opacity="0.75" fill="darkturquoise" d="M462.9684963891766 -177.8869573849588 L467.9684963891766 -173.5568303660366 L467.9684963891766 -0.3517496091488397 L462.9684963891766 -4.681876628071038 L462.9684963891766 -177.8869573849588"/>
		<path opacity="0.75" fill="darkturquoise" d="M471.628750427021 -180.3869573849588 L462.9684963891766 -177.8869573849588 L462.9684963891766 -4.681876628071038 L471.628750427021 -7.181876628071038 L471.628750427021 -180.3869573849588"/>
		<path opacity="0.75" fill="darkturquoise" d="M476.628750427021 -176.0568303660366 L467.9684963891766 -173.5568303660366 L467.9684963891766 -0.3517496091488397 L476.628750427021 -2.8517496091488397 L476.628750427021 -176.0568303660366"/>
		<path opacity="0.75" fill="darkturquoise" d="M471.628750427021 -180.3869573849588 L476.628750427021 -176.0568303660366 L467.9684963891766 -173.5568303660366 L462.9684963891766 -177.8869573849588 L471.628750427021 -180.3869573849588"/>
		<path opacity="0.75" fill="darkturquoise" d="M471.628750427021 -7.181876628071038 L476.628750427021 -2.8517496091488397 L467.9684963891766 -0.3517496091488397 L462.9684963891766 -4.681876628071038 L471.628750427021 -7.181876628071038"/>
		<text x="462.9684963891766" y="-91.28441700651493" font-family="calibri" font-size="4">200</text>
		<text x="465.4684963891766" y="-2.5168131186099387" font-family="calibri" font-size="4">10</text>
		<text x="467.2986234080988" y="-179.1369573849588" font-family="calibri" font-size="4">10</text>

<!-- Arrow -->
		<path opacity="0.5" stroke="black" d="M422.16722619995465 -76.61935349705382 L465.4684963891766 -89.11935349705382"/>
		<circle opacity="0.5" cx="465.4684963891766" cy="-89.11935349705382" r="1" fill="black" />
		<path opacity="0.75" fill="darkturquoise" d="M419.66722619995465 -165.3869573849588 L424.66722619995465 -161.0568303660366 L424.66722619995465 12.14825039085116 L419.66722619995465 7.818123371928962 L419.66722619995465 -165.3869573849588"/>
		<path opacity="0.75" fill="darkturquoise" d="M411.0069721621103 -162.8869573849588 L416.0069721621103 -158.5568303660366 L416.0069721621103 14.64825039085116 L411.0069721621103 10.318123371928962 L411.0069721621103 -162.8869573849588"/>
		<path opacity="0.75" fill="darkturquoise" d="M419.66722619995465 -165.3869573849588 L411.0069721621103 -162.8869573849588 L411.0069721621103 10.318123371928962 L419.66722619995465 7.818123371928962 L419.66722619995465 -165.3869573849588"/>
		<path opacity="0.75" fill="darkturquoise" d="M424.66722619995465 -161.0568303660366 L416.0069721621103 -158.5568303660366 L416.0069721621103 14.64825039085116 L424.66722619995465 12.14825039085116 L424.66722619995465 -161.0568303660366"/>
		<path opacity="0.75" fill="darkturquoise" d="M419.66722619995465 -165.3869573849588 L424.66722619995465 -161.0568303660366 L416.0069721621103 -158.5568303660366 L411.0069721621103 -162.8869573849588 L419.66722619995465 -165.3869573849588"/>
		<path opacity="0.75" fill="darkturquoise" d="M419.66722619995465 7.818123371928962 L424.66722619995465 12.14825039085116 L416.0069721621103 14.64825039085116 L411.0069721621103 10.318123371928962 L419.66722619995465 7.818123371928962"/>
		<text x="411.0069721621103" y="-76.28441700651493" font-family="calibri" font-size="4">200</text>
		<text x="413.5069721621103" y="12.483186881390061" font-family="calibri" font-size="4">10</text>
		<text x="415.3370991810325" y="-164.1369573849588" font-family="calibri" font-size="4">10</text>

		<path opacity="0.5" fill="orange" d="M297.1720588025886 -83.332445428599 L301.1720588025886 -79.86834381346125 L301.1720588025886 -72.94014058318574 L297.1720588025886 -76.40424219832349 L297.1720588025886 -83.332445428599"/>
		<path opacity="0.5" fill="orange" d="M241.74643296038454 -67.332445428599 L245.74643296038454 -63.86834381346125 L245.74643296038454 -56.94014058318574 L241.74643296038454 -60.404242198323495 L241.74643296038454 -67.332445428599"/>
		<path opacity="0.5" fill="orange" d="M297.1720588025886 -83.332445428599 L241.74643296038454 -67.332445428599 L241.74643296038454 -60.404242198323495 L297.1720588025886 -76.40424219832349 L297.1720588025886 -83.332445428599"/>
		<path opacity="0.5" fill="orange" d="M301.1720588025886 -79.86834381346125 L245.74643296038454 -63.86834381346125 L245.74643296038454 -56.94014058318574 L301.1720588025886 -72.94014058318574 L301.1720588025886 -79.86834381346125"/>
		<path opacity="0.5" fill="orange" d="M297.1720588025886 -83.332445428599 L301.1720588025886 -79.86834381346125 L245.74643296038454 -63.86834381346125 L241.74643296038454 -67.332445428599 L297.1720588025886 -83.332445428599"/>
		<path opacity="0.5" fill="orange" d="M297.1720588025886 -76.40424219832349 L301.1720588025886 -72.94014058318574 L245.74643296038454 -56.94014058318574 L241.74643296038454 -60.404242198323495 L297.1720588025886 -76.40424219832349"/>
		<text x="241.74643296038454" y="-63.86834381346125" font-family="calibri" font-size="4">8</text>
		<text x="243.74643296038454" y="-58.67219139075462" font-family="calibri" font-size="4">8</text>
		<text x="269.4592458814866" y="-75.332445428599" font-family="calibri" font-size="4">64</text>

<!-- Arrow -->
		<path opacity="0.5" stroke="black" d="M299.1720588025886 -78.13629300589237 L361.54544793504397 -59.11935349705382"/>
		<circle opacity="0.5" cx="361.54544793504397" cy="-59.11935349705382" r="1" fill="black" />
<!-- Arrow -->
		<path opacity="0.5" stroke="black" d="M370.20570197288833 -61.61935349705382 L413.5069721621103 -74.11935349705382"/>
		<circle opacity="0.5" cx="413.5069721621103" cy="-74.11935349705382" r="1" fill="black" />
		<path opacity="0.75" fill="darkturquoise" d="M367.70570197288833 -150.3869573849588 L372.70570197288833 -146.0568303660366 L372.70570197288833 27.14825039085116 L367.70570197288833 22.818123371928962 L367.70570197288833 -150.3869573849588"/>
		<path opacity="0.75" fill="darkturquoise" d="M359.04544793504397 -147.8869573849588 L364.04544793504397 -143.5568303660366 L364.04544793504397 29.64825039085116 L359.04544793504397 25.318123371928962 L359.04544793504397 -147.8869573849588"/>
		<path opacity="0.75" fill="darkturquoise" d="M367.70570197288833 -150.3869573849588 L359.04544793504397 -147.8869573849588 L359.04544793504397 25.318123371928962 L367.70570197288833 22.818123371928962 L367.70570197288833 -150.3869573849588"/>
		<path opacity="0.75" fill="darkturquoise" d="M372.70570197288833 -146.0568303660366 L364.04544793504397 -143.5568303660366 L364.04544793504397 29.64825039085116 L372.70570197288833 27.14825039085116 L372.70570197288833 -146.0568303660366"/>
		<path opacity="0.75" fill="darkturquoise" d="M367.70570197288833 -150.3869573849588 L372.70570197288833 -146.0568303660366 L364.04544793504397 -143.5568303660366 L359.04544793504397 -147.8869573849588 L367.70570197288833 -150.3869573849588"/>
		<path opacity="0.75" fill="darkturquoise" d="M367.70570197288833 22.818123371928962 L372.70570197288833 27.14825039085116 L364.04544793504397 29.64825039085116 L359.04544793504397 25.318123371928962 L367.70570197288833 22.818123371928962"/>
		<text x="359.04544793504397" y="-61.28441700651492" font-family="calibri" font-size="4">200</text>
		<text x="361.54544793504397" y="27.48318688139006" font-family="calibri" font-size="4">10</text>
		<text x="363.3755749539662" y="-149.1369573849588" font-family="calibri" font-size="4">10</text>

		<path opacity="0.75" fill="pink" d="M199.89837099884318 -51.40099596716871 L202.39837099884318 -49.235932457707605 L242.1433678351777 -63.696849508238884 L199.89837099884318 -51.40099596716871"/>
		<path opacity="0.75" fill="pink" d="M199.89837099884318 -51.40099596716871 L199.89837099884318 -47.07086894824651 L242.1433678351777 -63.696849508238884 L199.89837099884318 -51.40099596716871"/>
		<path opacity="0.75" fill="pink" d="M202.39837099884318 -49.235932457707605 L202.39837099884318 -44.90580543878542 L242.1433678351777 -63.696849508238884 L202.39837099884318 -49.235932457707605"/>
		<path opacity="0.75" fill="pink" d="M199.89837099884318 -47.07086894824651 L202.39837099884318 -44.90580543878542 L242.1433678351777 -63.696849508238884 L199.89837099884318 -47.07086894824651"/>

		<path opacity="0.75" fill="darkturquoise" d="M199.89837099884318 -51.40099596716871 L202.39837099884318 -49.235932457707605 L202.39837099884318 -44.90580543878542 L199.89837099884318 -47.07086894824651 L199.89837099884318 -51.40099596716871"/>
		<path opacity="0.75" fill="darkturquoise" d="M144.47274515663912 -35.40099596716871 L146.97274515663912 -33.235932457707605 L146.97274515663912 -28.905805438785418 L144.47274515663912 -31.070868948246517 L144.47274515663912 -35.40099596716871"/>
		<path opacity="0.75" fill="darkturquoise" d="M199.89837099884318 -51.40099596716871 L144.47274515663912 -35.40099596716871 L144.47274515663912 -31.070868948246517 L199.89837099884318 -47.07086894824651 L199.89837099884318 -51.40099596716871"/>
		<path opacity="0.75" fill="darkturquoise" d="M202.39837099884318 -49.235932457707605 L146.97274515663912 -33.235932457707605 L146.97274515663912 -28.905805438785418 L202.39837099884318 -44.90580543878542 L202.39837099884318 -49.235932457707605"/>
		<path opacity="0.75" fill="darkturquoise" d="M199.89837099884318 -51.40099596716871 L202.39837099884318 -49.235932457707605 L146.97274515663912 -33.235932457707605 L144.47274515663912 -35.40099596716871 L199.89837099884318 -51.40099596716871"/>
		<path opacity="0.75" fill="darkturquoise" d="M199.89837099884318 -47.07086894824651 L202.39837099884318 -44.90580543878542 L146.97274515663912 -28.905805438785418 L144.47274515663912 -31.070868948246517 L199.89837099884318 -47.07086894824651"/>
		<text x="144.47274515663912" y="-33.23593245770761" font-family="calibri" font-size="4">5</text>
		<text x="145.72274515663912" y="-29.988337193515967" font-family="calibri" font-size="4">5</text>
		<text x="172.18555807774115" y="-43.40099596716871" font-family="calibri" font-size="4">64</text>

		<path opacity="0.5" fill="orange" d="M198.4451627711626 -54.832445428599 L202.4451627711626 -51.36834381346125 L202.4451627711626 -44.44014058318574 L198.4451627711626 -47.904242198323495 L198.4451627711626 -54.832445428599"/>
		<path opacity="0.5" fill="orange" d="M143.01953692895853 -38.832445428599 L147.01953692895853 -35.36834381346125 L147.01953692895853 -28.440140583185737 L143.01953692895853 -31.904242198323495 L143.01953692895853 -38.832445428599"/>
		<path opacity="0.5" fill="orange" d="M198.4451627711626 -54.832445428599 L143.01953692895853 -38.832445428599 L143.01953692895853 -31.904242198323495 L198.4451627711626 -47.904242198323495 L198.4451627711626 -54.832445428599"/>
		<path opacity="0.5" fill="orange" d="M202.4451627711626 -51.36834381346125 L147.01953692895853 -35.36834381346125 L147.01953692895853 -28.440140583185737 L202.4451627711626 -44.44014058318574 L202.4451627711626 -51.36834381346125"/>
		<path opacity="0.5" fill="orange" d="M198.4451627711626 -54.832445428599 L202.4451627711626 -51.36834381346125 L147.01953692895853 -35.36834381346125 L143.01953692895853 -38.832445428599 L198.4451627711626 -54.832445428599"/>
		<path opacity="0.5" fill="orange" d="M198.4451627711626 -47.904242198323495 L202.4451627711626 -44.44014058318574 L147.01953692895853 -28.440140583185737 L143.01953692895853 -31.904242198323495 L198.4451627711626 -47.904242198323495"/>
		<text x="143.01953692895853" y="-35.36834381346125" font-family="calibri" font-size="4">8</text>
		<text x="145.01953692895853" y="-30.172191390754616" font-family="calibri" font-size="4">8</text>
		<text x="170.73234985006056" y="-46.832445428599" font-family="calibri" font-size="4">64</text>

<!-- Arrow -->
		<path opacity="0.5" stroke="black" d="M93.33364779650317 -43.39758601178475 L145.01953692895853 -33.63629300589237"/>
		<circle opacity="0.5" cx="145.01953692895853" cy="-33.63629300589237" r="1" fill="black" />
		<path opacity="0.5" fill="orange" d="M91.33364779650317 -48.59373843449138 L95.33364779650317 -45.12963681935363 L95.33364779650317 -38.20143358907812 L91.33364779650317 -41.665535204215864 L91.33364779650317 -48.59373843449138"/>
		<path opacity="0.5" fill="orange" d="M35.9080219542991 -32.59373843449138 L39.9080219542991 -29.129636819353628 L39.9080219542991 -22.201433589078118 L35.9080219542991 -25.665535204215864 L35.9080219542991 -32.59373843449138"/>
		<path opacity="0.5" fill="orange" d="M91.33364779650317 -48.59373843449138 L35.9080219542991 -32.59373843449138 L35.9080219542991 -25.665535204215864 L91.33364779650317 -41.665535204215864 L91.33364779650317 -48.59373843449138"/>
		<path opacity="0.5" fill="orange" d="M95.33364779650317 -45.12963681935363 L39.9080219542991 -29.129636819353628 L39.9080219542991 -22.201433589078118 L95.33364779650317 -38.20143358907812 L95.33364779650317 -45.12963681935363"/>
		<path opacity="0.5" fill="orange" d="M91.33364779650317 -48.59373843449138 L95.33364779650317 -45.12963681935363 L39.9080219542991 -29.129636819353628 L35.9080219542991 -32.59373843449138 L91.33364779650317 -48.59373843449138"/>
		<path opacity="0.5" fill="orange" d="M91.33364779650317 -41.665535204215864 L95.33364779650317 -38.20143358907812 L39.9080219542991 -22.201433589078118 L35.9080219542991 -25.665535204215864 L91.33364779650317 -41.665535204215864"/>
		<text x="35.9080219542991" y="-29.12963681935362" font-family="calibri" font-size="4">8</text>
		<text x="37.9080219542991" y="-23.93348439664699" font-family="calibri" font-size="4">8</text>
		<text x="63.62083487540114" y="-40.59373843449138" font-family="calibri" font-size="4">64</text>

<!-- Arrow -->
		<path opacity="0.5" stroke="black" d="M277.5605438279292 2.147586011784747 L361.54544793504397 -59.11935349705382"/>
		<circle opacity="0.5" cx="361.54544793504397" cy="-59.11935349705382" r="1" fill="black" />
		<path opacity="0.75" fill="pink" d="M-5.759889714192354 -16.598701934379278 L-3.2598897141923544 -14.433638424918179 L36.725868988984786 -27.199544525189353 L-5.759889714192354 -16.598701934379278"/>
		<path opacity="0.75" fill="pink" d="M-5.759889714192354 -16.598701934379278 L-5.759889714192354 -12.268574915457087 L36.725868988984786 -27.199544525189353 L-5.759889714192354 -16.598701934379278"/>
		<path opacity="0.75" fill="pink" d="M-3.2598897141923544 -14.433638424918179 L-3.2598897141923544 -10.103511405995988 L36.725868988984786 -27.199544525189353 L-3.2598897141923544 -14.433638424918179"/>
		<path opacity="0.75" fill="pink" d="M-5.759889714192354 -12.268574915457087 L-3.2598897141923544 -10.103511405995988 L36.725868988984786 -27.199544525189353 L-5.759889714192354 -12.268574915457087"/>

<!-- Arrow -->
		<path opacity="0.5" stroke="black" d="M50.34713282184376 18.375 L145.01953692895853 -33.63629300589237"/>
		<circle opacity="0.5" cx="145.01953692895853" cy="-33.63629300589237" r="1" fill="black" />
		<path opacity="0.75" fill="darkturquoise" d="M-5.759889714192354 -16.598701934379278 L-3.2598897141923544 -14.433638424918179 L-3.2598897141923544 -10.103511405995988 L-5.759889714192354 -12.268574915457087 L-5.759889714192354 -16.598701934379278"/>
		<path opacity="0.75" fill="darkturquoise" d="M-61.18551555639641 -0.5987019343792781 L-58.68551555639641 1.566361575081821 L-58.68551555639641 5.896488594004012 L-61.18551555639641 3.731425084542913 L-61.18551555639641 -0.5987019343792781"/>
		<path opacity="0.75" fill="darkturquoise" d="M-5.759889714192354 -16.598701934379278 L-61.18551555639641 -0.5987019343792781 L-61.18551555639641 3.731425084542913 L-5.759889714192354 -12.268574915457087 L-5.759889714192354 -16.598701934379278"/>
		<path opacity="0.75" fill="darkturquoise" d="M-3.2598897141923544 -14.433638424918179 L-58.68551555639641 1.566361575081821 L-58.68551555639641 5.896488594004012 L-3.2598897141923544 -10.103511405995988 L-3.2598897141923544 -14.433638424918179"/>
		<path opacity="0.75" fill="darkturquoise" d="M-5.759889714192354 -16.598701934379278 L-3.2598897141923544 -14.433638424918179 L-58.68551555639641 1.566361575081821 L-61.18551555639641 -0.5987019343792781 L-5.759889714192354 -16.598701934379278"/>
		<path opacity="0.75" fill="darkturquoise" d="M-5.759889714192354 -12.268574915457087 L-3.2598897141923544 -10.103511405995988 L-58.68551555639641 5.896488594004012 L-61.18551555639641 3.731425084542913 L-5.759889714192354 -12.268574915457087"/>
		<text x="-61.18551555639641" y="1.5663615750818174" font-family="calibri" font-size="4">5</text>
		<text x="-59.93551555639641" y="4.813956839273462" font-family="calibri" font-size="4">5</text>
		<text x="-33.47270263529438" y="-8.598701934379278" font-family="calibri" font-size="4">64</text>

		<path opacity="0.5" fill="orange" d="M-9.393248234922822 -25.289890857198003 L-1.3932482349228223 -18.361687626922496 L-1.3932482349228223 -4.5052811663714785 L-9.393248234922822 -11.433484396646989 L-9.393248234922822 -25.289890857198003"/>
		<path opacity="0.5" fill="orange" d="M-64.81887407712688 -9.289890857198003 L-56.81887407712688 -2.361687626922496 L-56.81887407712688 11.494718833628522 L-64.81887407712688 4.566515603353011 L-64.81887407712688 -9.289890857198003"/>
		<path opacity="0.5" fill="orange" d="M-9.393248234922822 -25.289890857198003 L-64.81887407712688 -9.289890857198003 L-64.81887407712688 4.566515603353011 L-9.393248234922822 -11.433484396646989 L-9.393248234922822 -25.289890857198003"/>
		<path opacity="0.5" fill="orange" d="M-1.3932482349228223 -18.361687626922496 L-56.81887407712688 -2.361687626922496 L-56.81887407712688 11.494718833628522 L-1.3932482349228223 -4.5052811663714785 L-1.3932482349228223 -18.361687626922496"/>
		<path opacity="0.5" fill="orange" d="M-9.393248234922822 -25.289890857198003 L-1.3932482349228223 -18.361687626922496 L-56.81887407712688 -2.361687626922496 L-64.81887407712688 -9.289890857198003 L-9.393248234922822 -25.289890857198003"/>
		<path opacity="0.5" fill="orange" d="M-9.393248234922822 -11.433484396646989 L-1.3932482349228223 -4.5052811663714785 L-56.81887407712688 11.494718833628522 L-64.81887407712688 4.566515603353011 L-9.393248234922822 -11.433484396646989"/>
		<text x="-64.81887407712688" y="-2.361687626922496" font-family="calibri" font-size="4">16</text>
		<text x="-60.81887407712688" y="8.030617218490766" font-family="calibri" font-size="4">16</text>
		<text x="-37.10606115602485" y="-17.289890857198003" font-family="calibri" font-size="4">64</text>

<!-- Arrow -->
		<path opacity="0.5" stroke="black" d="M-105.37976320958228 -2.4884480157129936 L-60.81887407712688 1.1024139882152584"/>
		<circle opacity="0.5" cx="-60.81887407712688" cy="1.1024139882152584" r="1" fill="black" />
		<path opacity="0.5" fill="orange" d="M-109.37976320958228 -12.880752861126254 L-101.37976320958228 -5.952549630850747 L-101.37976320958228 7.903856829700267 L-109.37976320958228 0.9756535994247599 L-109.37976320958228 -12.880752861126254"/>
		<path opacity="0.5" fill="orange" d="M-164.80538905178634 3.119247138873746 L-156.80538905178634 10.047450369149253 L-156.80538905178634 23.903856829700267 L-164.80538905178634 16.97565359942476 L-164.80538905178634 3.119247138873746"/>
		<path opacity="0.5" fill="orange" d="M-109.37976320958228 -12.880752861126254 L-164.80538905178634 3.119247138873746 L-164.80538905178634 16.97565359942476 L-109.37976320958228 0.9756535994247599 L-109.37976320958228 -12.880752861126254"/>
		<path opacity="0.5" fill="orange" d="M-101.37976320958228 -5.952549630850747 L-156.80538905178634 10.047450369149253 L-156.80538905178634 23.903856829700267 L-101.37976320958228 7.903856829700267 L-101.37976320958228 -5.952549630850747"/>
		<path opacity="0.5" fill="orange" d="M-109.37976320958228 -12.880752861126254 L-101.37976320958228 -5.952549630850747 L-156.80538905178634 10.047450369149253 L-164.80538905178634 3.119247138873746 L-109.37976320958228 -12.880752861126254"/>
		<path opacity="0.5" fill="orange" d="M-109.37976320958228 0.9756535994247599 L-101.37976320958228 7.903856829700267 L-156.80538905178634 23.903856829700267 L-164.80538905178634 16.97565359942476 L-109.37976320958228 0.9756535994247599"/>
		<text x="-164.80538905178634" y="10.047450369149253" font-family="calibri" font-size="4">16</text>
		<text x="-160.80538905178634" y="20.439755214562513" font-family="calibri" font-size="4">16</text>
		<text x="-137.0925761306843" y="-4.880752861126254" font-family="calibri" font-size="4">64</text>

		<path opacity="0.5" fill="orange" d="M275.5605438279292 -3.0485664109218824 L279.5605438279292 0.415535204215864 L279.5605438279292 7.343738434491378 L275.5605438279292 3.879636819353628 L275.5605438279292 -3.0485664109218824"/>
		<path opacity="0.5" fill="orange" d="M220.1349179857251 12.951433589078118 L224.1349179857251 16.415535204215864 L224.1349179857251 23.343738434491378 L220.1349179857251 19.879636819353628 L220.1349179857251 12.951433589078118"/>
		<path opacity="0.5" fill="orange" d="M275.5605438279292 -3.0485664109218824 L220.1349179857251 12.951433589078118 L220.1349179857251 19.879636819353628 L275.5605438279292 3.879636819353628 L275.5605438279292 -3.0485664109218824"/>
		<path opacity="0.5" fill="orange" d="M279.5605438279292 0.415535204215864 L224.1349179857251 16.415535204215864 L224.1349179857251 23.343738434491378 L279.5605438279292 7.343738434491378 L279.5605438279292 0.415535204215864"/>
		<path opacity="0.5" fill="orange" d="M275.5605438279292 -3.0485664109218824 L279.5605438279292 0.415535204215864 L224.1349179857251 16.415535204215864 L220.1349179857251 12.951433589078118 L275.5605438279292 -3.0485664109218824"/>
		<path opacity="0.5" fill="orange" d="M275.5605438279292 3.879636819353628 L279.5605438279292 7.343738434491378 L224.1349179857251 23.343738434491378 L220.1349179857251 19.879636819353628 L275.5605438279292 3.879636819353628"/>
		<text x="220.1349179857251" y="16.41553520421587" font-family="calibri" font-size="4">8</text>
		<text x="222.1349179857251" y="21.611687626922503" font-family="calibri" font-size="4">8</text>
		<text x="247.84773090682717" y="4.951433589078118" font-family="calibri" font-size="4">64</text>

<!-- Arrow -->
		<path opacity="0.5" stroke="black" d="M-76.87976320958225 22.193275992143505 L-60.81887407712688 1.1024139882152584"/>
		<circle opacity="0.5" cx="-60.81887407712688" cy="1.1024139882152584" r="1" fill="black" />
		<path opacity="0.75" fill="pink" d="M-198.8406843768064 35.94642220070439 L-196.3406843768064 38.11148571016549 L-158.1418329635702 10.742173017061923 L-198.8406843768064 35.94642220070439"/>
		<path opacity="0.75" fill="pink" d="M-198.8406843768064 35.94642220070439 L-198.8406843768064 40.27654921962659 L-158.1418329635702 10.742173017061923 L-198.8406843768064 35.94642220070439"/>
		<path opacity="0.75" fill="pink" d="M-196.3406843768064 38.11148571016549 L-196.3406843768064 42.44161272908768 L-158.1418329635702 10.742173017061923 L-196.3406843768064 38.11148571016549"/>
		<path opacity="0.75" fill="pink" d="M-198.8406843768064 40.27654921962659 L-196.3406843768064 42.44161272908768 L-158.1418329635702 10.742173017061923 L-198.8406843768064 40.27654921962659"/>

		<path opacity="0.5" fill="orange" d="M48.34713282184376 13.178847577293368 L52.347132821843765 16.64294919243112 L52.347132821843765 23.571152422706632 L48.34713282184376 20.10705080756888 L48.34713282184376 13.178847577293368"/>
		<path opacity="0.5" fill="orange" d="M-7.0784930203603125 29.178847577293368 L-3.0784930203603125 32.642949192431125 L-3.0784930203603125 39.57115242270663 L-7.0784930203603125 36.107050807568875 L-7.0784930203603125 29.178847577293368"/>
		<path opacity="0.5" fill="orange" d="M48.34713282184376 13.178847577293368 L-7.0784930203603125 29.178847577293368 L-7.0784930203603125 36.107050807568875 L48.34713282184376 20.10705080756888 L48.34713282184376 13.178847577293368"/>
		<path opacity="0.5" fill="orange" d="M52.347132821843765 16.64294919243112 L-3.0784930203603125 32.642949192431125 L-3.0784930203603125 39.57115242270663 L52.347132821843765 23.571152422706632 L52.347132821843765 16.64294919243112"/>
		<path opacity="0.5" fill="orange" d="M48.34713282184376 13.178847577293368 L52.347132821843765 16.64294919243112 L-3.0784930203603125 32.642949192431125 L-7.0784930203603125 29.178847577293368 L48.34713282184376 13.178847577293368"/>
		<path opacity="0.5" fill="orange" d="M48.34713282184376 20.10705080756888 L52.347132821843765 23.571152422706632 L-3.0784930203603125 39.57115242270663 L-7.0784930203603125 36.107050807568875 L48.34713282184376 20.10705080756888"/>
		<text x="-7.0784930203603125" y="32.64294919243112" font-family="calibri" font-size="4">8</text>
		<text x="-5.0784930203603125" y="37.83910161513775" font-family="calibri" font-size="4">8</text>
		<text x="20.634319900741723" y="21.178847577293368" font-family="calibri" font-size="4">64</text>

		<path opacity="0.75" fill="pink" d="M178.22706574962316 28.13002102267643 L180.72706574962316 30.29508453213753 L221.3033033707543 15.841305068124377 L178.22706574962316 28.13002102267643"/>
		<path opacity="0.75" fill="pink" d="M178.22706574962316 28.13002102267643 L178.22706574962316 32.46014804159862 L221.3033033707543 15.841305068124377 L178.22706574962316 28.13002102267643"/>
		<path opacity="0.75" fill="pink" d="M180.72706574962316 30.29508453213753 L180.72706574962316 34.62521155105972 L221.3033033707543 15.841305068124377 L180.72706574962316 30.29508453213753"/>
		<path opacity="0.75" fill="pink" d="M178.22706574962316 32.46014804159862 L180.72706574962316 34.62521155105972 L221.3033033707543 15.841305068124377 L178.22706574962316 32.46014804159862"/>

		<path opacity="0.75" fill="darkturquoise" d="M-198.8406843768064 35.94642220070439 L-196.3406843768064 38.11148571016549 L-196.3406843768064 42.44161272908768 L-198.8406843768064 40.27654921962659 L-198.8406843768064 35.94642220070439"/>
		<path opacity="0.75" fill="darkturquoise" d="M-226.5534972979084 43.94642220070439 L-224.0534972979084 46.11148571016549 L-224.0534972979084 50.44161272908768 L-226.5534972979084 48.27654921962659 L-226.5534972979084 43.94642220070439"/>
		<path opacity="0.75" fill="darkturquoise" d="M-198.8406843768064 35.94642220070439 L-226.5534972979084 43.94642220070439 L-226.5534972979084 48.27654921962659 L-198.8406843768064 40.27654921962659 L-198.8406843768064 35.94642220070439"/>
		<path opacity="0.75" fill="darkturquoise" d="M-196.3406843768064 38.11148571016549 L-224.0534972979084 46.11148571016549 L-224.0534972979084 50.44161272908768 L-196.3406843768064 42.44161272908768 L-196.3406843768064 38.11148571016549"/>
		<path opacity="0.75" fill="darkturquoise" d="M-198.8406843768064 35.94642220070439 L-196.3406843768064 38.11148571016549 L-224.0534972979084 46.11148571016549 L-226.5534972979084 43.94642220070439 L-198.8406843768064 35.94642220070439"/>
		<path opacity="0.75" fill="darkturquoise" d="M-198.8406843768064 40.27654921962659 L-196.3406843768064 42.44161272908768 L-224.0534972979084 50.44161272908768 L-226.5534972979084 48.27654921962659 L-198.8406843768064 40.27654921962659"/>
		<text x="-226.5534972979084" y="46.11148571016549" font-family="calibri" font-size="4">5</text>
		<text x="-225.3034972979084" y="49.359080974357134" font-family="calibri" font-size="4">5</text>
		<text x="-212.6970908373574" y="39.94642220070439" font-family="calibri" font-size="4">32</text>

		<path opacity="0.5" fill="orange" d="M-212.10665924100823 5.226942293460482 L-196.10665924100823 19.083348754011496 L-196.10665924100823 46.79616167511354 L-212.10665924100823 32.93975521456252 L-212.10665924100823 5.226942293460482"/>
		<path opacity="0.5" fill="orange" d="M-239.8194721621103 13.226942293460482 L-223.8194721621103 27.083348754011496 L-223.8194721621103 54.79616167511354 L-239.8194721621103 40.93975521456252 L-239.8194721621103 13.226942293460482"/>
		<path opacity="0.5" fill="orange" d="M-212.10665924100823 5.226942293460482 L-239.8194721621103 13.226942293460482 L-239.8194721621103 40.93975521456252 L-212.10665924100823 32.93975521456252 L-212.10665924100823 5.226942293460482"/>
		<path opacity="0.5" fill="orange" d="M-196.10665924100823 19.083348754011496 L-223.8194721621103 27.083348754011496 L-223.8194721621103 54.79616167511354 L-196.10665924100823 46.79616167511354 L-196.10665924100823 19.083348754011496"/>
		<path opacity="0.5" fill="orange" d="M-212.10665924100823 5.226942293460482 L-196.10665924100823 19.083348754011496 L-223.8194721621103 27.083348754011496 L-239.8194721621103 13.226942293460482 L-212.10665924100823 5.226942293460482"/>
		<path opacity="0.5" fill="orange" d="M-212.10665924100823 32.93975521456252 L-196.10665924100823 46.79616167511354 L-223.8194721621103 54.79616167511354 L-239.8194721621103 40.93975521456252 L-212.10665924100823 32.93975521456252"/>
		<text x="-239.8194721621103" y="27.0833487540115" font-family="calibri" font-size="4">32</text>
		<text x="-231.8194721621103" y="47.867958444838024" font-family="calibri" font-size="4">32</text>
		<text x="-225.96306570155926" y="9.226942293460482" font-family="calibri" font-size="4">32</text>

		<path opacity="0.5" fill="orange" d="M-80.87976320958225 11.800971146730241 L-72.87976320958225 18.729174377005748 L-72.87976320958225 32.58558083755677 L-80.87976320958225 25.65737760728126 L-80.87976320958225 11.800971146730241"/>
		<path opacity="0.5" fill="orange" d="M-136.3053890517863 27.80097114673024 L-128.3053890517863 34.72917437700575 L-128.3053890517863 48.58558083755677 L-136.3053890517863 41.65737760728126 L-136.3053890517863 27.80097114673024"/>
		<path opacity="0.5" fill="orange" d="M-80.87976320958225 11.800971146730241 L-136.3053890517863 27.80097114673024 L-136.3053890517863 41.65737760728126 L-80.87976320958225 25.65737760728126 L-80.87976320958225 11.800971146730241"/>
		<path opacity="0.5" fill="orange" d="M-72.87976320958225 18.729174377005748 L-128.3053890517863 34.72917437700575 L-128.3053890517863 48.58558083755677 L-72.87976320958225 32.58558083755677 L-72.87976320958225 18.729174377005748"/>
		<path opacity="0.5" fill="orange" d="M-80.87976320958225 11.800971146730241 L-72.87976320958225 18.729174377005748 L-128.3053890517863 34.72917437700575 L-136.3053890517863 27.80097114673024 L-80.87976320958225 11.800971146730241"/>
		<path opacity="0.5" fill="orange" d="M-80.87976320958225 25.65737760728126 L-72.87976320958225 32.58558083755677 L-128.3053890517863 48.58558083755677 L-136.3053890517863 41.65737760728126 L-80.87976320958225 25.65737760728126"/>
		<text x="-136.3053890517863" y="34.72917437700575" font-family="calibri" font-size="4">16</text>
		<text x="-132.3053890517863" y="45.12147922241901" font-family="calibri" font-size="4">16</text>
		<text x="-108.59257613068428" y="19.80097114673024" font-family="calibri" font-size="4">64</text>

		<path opacity="0.75" fill="darkturquoise" d="M178.22706574962316 28.13002102267643 L180.72706574962316 30.29508453213753 L180.72706574962316 34.62521155105972 L178.22706574962316 32.46014804159862 L178.22706574962316 28.13002102267643"/>
		<path opacity="0.75" fill="darkturquoise" d="M122.80143990741911 44.13002102267643 L125.30143990741911 46.29508453213753 L125.30143990741911 50.62521155105972 L122.80143990741911 48.46014804159862 L122.80143990741911 44.13002102267643"/>
		<path opacity="0.75" fill="darkturquoise" d="M178.22706574962316 28.13002102267643 L122.80143990741911 44.13002102267643 L122.80143990741911 48.46014804159862 L178.22706574962316 32.46014804159862 L178.22706574962316 28.13002102267643"/>
		<path opacity="0.75" fill="darkturquoise" d="M180.72706574962316 30.29508453213753 L125.30143990741911 46.29508453213753 L125.30143990741911 50.62521155105972 L180.72706574962316 34.62521155105972 L180.72706574962316 30.29508453213753"/>
		<path opacity="0.75" fill="darkturquoise" d="M178.22706574962316 28.13002102267643 L180.72706574962316 30.29508453213753 L125.30143990741911 46.29508453213753 L122.80143990741911 44.13002102267643 L178.22706574962316 28.13002102267643"/>
		<path opacity="0.75" fill="darkturquoise" d="M178.22706574962316 32.46014804159862 L180.72706574962316 34.62521155105972 L125.30143990741911 50.62521155105972 L122.80143990741911 48.46014804159862 L178.22706574962316 32.46014804159862"/>
		<text x="122.80143990741911" y="46.29508453213752" font-family="calibri" font-size="4">5</text>
		<text x="124.05143990741911" y="49.54267979632917" font-family="calibri" font-size="4">5</text>
		<text x="150.51425282852114" y="36.13002102267643" font-family="calibri" font-size="4">64</text>

		<path opacity="0.5" fill="orange" d="M176.8336477965032 25.451433589078118 L180.8336477965032 28.915535204215864 L180.8336477965032 35.84373843449138 L176.8336477965032 32.37963681935363 L176.8336477965032 25.451433589078118"/>
		<path opacity="0.5" fill="orange" d="M121.40802195429913 41.45143358907812 L125.40802195429913 44.915535204215864 L125.40802195429913 51.84373843449138 L121.40802195429913 48.37963681935363 L121.40802195429913 41.45143358907812"/>
		<path opacity="0.5" fill="orange" d="M176.8336477965032 25.451433589078118 L121.40802195429913 41.45143358907812 L121.40802195429913 48.37963681935363 L176.8336477965032 32.37963681935363 L176.8336477965032 25.451433589078118"/>
		<path opacity="0.5" fill="orange" d="M180.8336477965032 28.915535204215864 L125.40802195429913 44.915535204215864 L125.40802195429913 51.84373843449138 L180.8336477965032 35.84373843449138 L180.8336477965032 28.915535204215864"/>
		<path opacity="0.5" fill="orange" d="M176.8336477965032 25.451433589078118 L180.8336477965032 28.915535204215864 L125.40802195429913 44.915535204215864 L121.40802195429913 41.45143358907812 L176.8336477965032 25.451433589078118"/>
		<path opacity="0.5" fill="orange" d="M176.8336477965032 32.37963681935363 L180.8336477965032 35.84373843449138 L125.40802195429913 51.84373843449138 L121.40802195429913 48.37963681935363 L176.8336477965032 32.37963681935363"/>
		<text x="121.40802195429913" y="44.91553520421587" font-family="calibri" font-size="4">8</text>
		<text x="123.40802195429913" y="50.1116876269225" font-family="calibri" font-size="4">8</text>
		<text x="149.12083487540116" y="33.45143358907812" font-family="calibri" font-size="4">64</text>

<!-- Arrow -->
		<path opacity="0.5" stroke="black" d="M78.84713282184377 43.056724007856495 L123.40802195429913 46.647586011784746"/>
		<circle opacity="0.5" cx="123.40802195429913" cy="46.647586011784746" r="1" fill="black" />
		<path opacity="0.75" fill="pink" d="M-182.89439050886523 38.04614725173234 L-180.39439050886523 40.211210761193435 L-133.75559505066784 30.865256772641885 L-182.89439050886523 38.04614725173234"/>
		<path opacity="0.75" fill="pink" d="M-182.89439050886523 38.04614725173234 L-182.89439050886523 42.376274270654534 L-133.75559505066784 30.865256772641885 L-182.89439050886523 38.04614725173234"/>
		<path opacity="0.75" fill="pink" d="M-180.39439050886523 40.211210761193435 L-180.39439050886523 44.54133778011563 L-133.75559505066784 30.865256772641885 L-180.39439050886523 40.211210761193435"/>
		<path opacity="0.75" fill="pink" d="M-182.89439050886523 42.376274270654534 L-180.39439050886523 44.54133778011563 L-133.75559505066784 30.865256772641885 L-182.89439050886523 42.376274270654534"/>

		<path opacity="0.75" fill="pink" d="M-49.17045015380418 39.685735070812655 L-46.67045015380418 41.850798580273754 L-6.299494592690564 34.55769471400475 L-49.17045015380418 39.685735070812655"/>
		<path opacity="0.75" fill="pink" d="M-49.17045015380418 39.685735070812655 L-49.17045015380418 44.01586208973485 L-6.299494592690564 34.55769471400475 L-49.17045015380418 39.685735070812655"/>
		<path opacity="0.75" fill="pink" d="M-46.67045015380418 41.850798580273754 L-46.67045015380418 46.18092559919595 L-6.299494592690564 34.55769471400475 L-46.67045015380418 41.850798580273754"/>
		<path opacity="0.75" fill="pink" d="M-49.17045015380418 44.01586208973485 L-46.67045015380418 46.18092559919595 L-6.299494592690564 34.55769471400475 L-49.17045015380418 44.01586208973485"/>

		<path opacity="0.75" fill="pink" d="M-273.6560239431302 43.06810284829013 L-268.6560239431302 47.39822986721232 L-236.7994224766765 30.352658129811587 L-273.6560239431302 43.06810284829013"/>
		<path opacity="0.75" fill="pink" d="M-273.6560239431302 43.06810284829013 L-273.6560239431302 51.72835688613452 L-236.7994224766765 30.352658129811587 L-273.6560239431302 43.06810284829013"/>
		<path opacity="0.75" fill="pink" d="M-268.6560239431302 47.39822986721232 L-268.6560239431302 56.05848390505671 L-236.7994224766765 30.352658129811587 L-268.6560239431302 47.39822986721232"/>
		<path opacity="0.75" fill="pink" d="M-273.6560239431302 51.72835688613452 L-268.6560239431302 56.05848390505671 L-236.7994224766765 30.352658129811587 L-273.6560239431302 51.72835688613452"/>

		<path opacity="0.75" fill="darkturquoise" d="M-273.6560239431302 43.06810284829013 L-268.6560239431302 47.39822986721232 L-268.6560239431302 56.05848390505671 L-273.6560239431302 51.72835688613452 L-273.6560239431302 43.06810284829013"/>
		<path opacity="0.75" fill="darkturquoise" d="M-290.976532018819 48.06810284829013 L-285.976532018819 52.39822986721232 L-285.976532018819 61.05848390505671 L-290.976532018819 56.72835688613452 L-290.976532018819 48.06810284829013"/>
		<path opacity="0.75" fill="darkturquoise" d="M-273.6560239431302 43.06810284829013 L-290.976532018819 48.06810284829013 L-290.976532018819 56.72835688613452 L-273.6560239431302 51.72835688613452 L-273.6560239431302 43.06810284829013"/>
		<path opacity="0.75" fill="darkturquoise" d="M-268.6560239431302 47.39822986721232 L-285.976532018819 52.39822986721232 L-285.976532018819 61.05848390505671 L-268.6560239431302 56.05848390505671 L-268.6560239431302 47.39822986721232"/>
		<path opacity="0.75" fill="darkturquoise" d="M-273.6560239431302 43.06810284829013 L-268.6560239431302 47.39822986721232 L-285.976532018819 52.39822986721232 L-290.976532018819 48.06810284829013 L-273.6560239431302 43.06810284829013"/>
		<path opacity="0.75" fill="darkturquoise" d="M-273.6560239431302 51.72835688613452 L-268.6560239431302 56.05848390505671 L-285.976532018819 61.05848390505671 L-290.976532018819 56.72835688613452 L-273.6560239431302 51.72835688613452"/>
		<text x="-290.976532018819" y="52.39822986721232" font-family="calibri" font-size="4">10</text>
		<text x="-288.476532018819" y="58.89342039559561" font-family="calibri" font-size="4">10</text>
		<text x="-282.31627798097463" y="45.56810284829013" font-family="calibri" font-size="4">20</text>

		<path opacity="0.5" fill="orange" d="M-283.1207423513322 25.726942293460482 L-267.1207423513322 39.583348754011496 L-267.1207423513322 67.29616167511354 L-283.1207423513322 53.43975521456252 L-283.1207423513322 25.726942293460482"/>
		<path opacity="0.5" fill="orange" d="M-300.441250427021 30.726942293460482 L-284.441250427021 44.583348754011496 L-284.441250427021 72.29616167511354 L-300.441250427021 58.43975521456252 L-300.441250427021 30.726942293460482"/>
		<path opacity="0.5" fill="orange" d="M-283.1207423513322 25.726942293460482 L-300.441250427021 30.726942293460482 L-300.441250427021 58.43975521456252 L-283.1207423513322 53.43975521456252 L-283.1207423513322 25.726942293460482"/>
		<path opacity="0.5" fill="orange" d="M-267.1207423513322 39.583348754011496 L-284.441250427021 44.583348754011496 L-284.441250427021 72.29616167511354 L-267.1207423513322 67.29616167511354 L-267.1207423513322 39.583348754011496"/>
		<path opacity="0.5" fill="orange" d="M-283.1207423513322 25.726942293460482 L-267.1207423513322 39.583348754011496 L-284.441250427021 44.583348754011496 L-300.441250427021 30.726942293460482 L-283.1207423513322 25.726942293460482"/>
		<path opacity="0.5" fill="orange" d="M-283.1207423513322 53.43975521456252 L-267.1207423513322 67.29616167511354 L-284.441250427021 72.29616167511354 L-300.441250427021 58.43975521456252 L-283.1207423513322 53.43975521456252"/>
		<text x="-300.441250427021" y="44.583348754011496" font-family="calibri" font-size="4">32</text>
		<text x="-292.441250427021" y="65.36795844483802" font-family="calibri" font-size="4">32</text>
		<text x="-291.7809963891766" y="28.226942293460482" font-family="calibri" font-size="4">20</text>

		<path opacity="0.5" fill="orange" d="M76.84713282184377 37.86057158514987 L80.84713282184377 41.32467320028762 L80.84713282184377 48.25287643056313 L76.84713282184377 44.78877481542537 L76.84713282184377 37.86057158514987"/>
		<path opacity="0.5" fill="orange" d="M21.4215069796397 53.86057158514987 L25.4215069796397 57.32467320028762 L25.4215069796397 64.25287643056313 L21.4215069796397 60.78877481542537 L21.4215069796397 53.86057158514987"/>
		<path opacity="0.5" fill="orange" d="M76.84713282184377 37.86057158514987 L21.4215069796397 53.86057158514987 L21.4215069796397 60.78877481542537 L76.84713282184377 44.78877481542537 L76.84713282184377 37.86057158514987"/>
		<path opacity="0.5" fill="orange" d="M80.84713282184377 41.32467320028762 L25.4215069796397 57.32467320028762 L25.4215069796397 64.25287643056313 L80.84713282184377 48.25287643056313 L80.84713282184377 41.32467320028762"/>
		<path opacity="0.5" fill="orange" d="M76.84713282184377 37.86057158514987 L80.84713282184377 41.32467320028762 L25.4215069796397 57.32467320028762 L21.4215069796397 53.86057158514987 L76.84713282184377 37.86057158514987"/>
		<path opacity="0.5" fill="orange" d="M76.84713282184377 44.78877481542537 L80.84713282184377 48.25287643056313 L25.4215069796397 64.25287643056313 L21.4215069796397 60.78877481542537 L76.84713282184377 44.78877481542537"/>
		<text x="21.4215069796397" y="57.32467320028762" font-family="calibri" font-size="4">8</text>
		<text x="23.4215069796397" y="62.52082562299425" font-family="calibri" font-size="4">8</text>
		<text x="49.13431990074174" y="45.86057158514987" font-family="calibri" font-size="4">64</text>

		<path opacity="0.75" fill="darkturquoise" d="M-49.17045015380418 39.685735070812655 L-46.67045015380418 41.850798580273754 L-46.67045015380418 46.18092559919595 L-49.17045015380418 44.01586208973485 L-49.17045015380418 39.685735070812655"/>
		<path opacity="0.75" fill="darkturquoise" d="M-104.59607599600824 55.685735070812655 L-102.09607599600824 57.850798580273754 L-102.09607599600824 62.18092559919595 L-104.59607599600824 60.01586208973485 L-104.59607599600824 55.685735070812655"/>
		<path opacity="0.75" fill="darkturquoise" d="M-49.17045015380418 39.685735070812655 L-104.59607599600824 55.685735070812655 L-104.59607599600824 60.01586208973485 L-49.17045015380418 44.01586208973485 L-49.17045015380418 39.685735070812655"/>
		<path opacity="0.75" fill="darkturquoise" d="M-46.67045015380418 41.850798580273754 L-102.09607599600824 57.850798580273754 L-102.09607599600824 62.18092559919595 L-46.67045015380418 46.18092559919595 L-46.67045015380418 41.850798580273754"/>
		<path opacity="0.75" fill="darkturquoise" d="M-49.17045015380418 39.685735070812655 L-46.67045015380418 41.850798580273754 L-102.09607599600824 57.850798580273754 L-104.59607599600824 55.685735070812655 L-49.17045015380418 39.685735070812655"/>
		<path opacity="0.75" fill="darkturquoise" d="M-49.17045015380418 44.01586208973485 L-46.67045015380418 46.18092559919595 L-102.09607599600824 62.18092559919595 L-104.59607599600824 60.01586208973485 L-49.17045015380418 44.01586208973485"/>
		<text x="-104.59607599600824" y="57.850798580273754" font-family="calibri" font-size="4">5</text>
		<text x="-103.34607599600824" y="61.098393844465406" font-family="calibri" font-size="4">5</text>
		<text x="-76.88326307490621" y="47.685735070812655" font-family="calibri" font-size="4">64</text>

		<path opacity="0.5" fill="orange" d="M-52.37976320958225 36.482695154586736 L-44.37976320958225 43.41089838486224 L-44.37976320958225 57.267304845413264 L-52.37976320958225 50.33910161513776 L-52.37976320958225 36.482695154586736"/>
		<path opacity="0.5" fill="orange" d="M-107.8053890517863 52.482695154586736 L-99.8053890517863 59.41089838486224 L-99.8053890517863 73.26730484541326 L-107.8053890517863 66.33910161513775 L-107.8053890517863 52.482695154586736"/>
		<path opacity="0.5" fill="orange" d="M-52.37976320958225 36.482695154586736 L-107.8053890517863 52.482695154586736 L-107.8053890517863 66.33910161513775 L-52.37976320958225 50.33910161513776 L-52.37976320958225 36.482695154586736"/>
		<path opacity="0.5" fill="orange" d="M-44.37976320958225 43.41089838486224 L-99.8053890517863 59.41089838486224 L-99.8053890517863 73.26730484541326 L-44.37976320958225 57.267304845413264 L-44.37976320958225 43.41089838486224"/>
		<path opacity="0.5" fill="orange" d="M-52.37976320958225 36.482695154586736 L-44.37976320958225 43.41089838486224 L-99.8053890517863 59.41089838486224 L-107.8053890517863 52.482695154586736 L-52.37976320958225 36.482695154586736"/>
		<path opacity="0.5" fill="orange" d="M-52.37976320958225 50.33910161513776 L-44.37976320958225 57.267304845413264 L-99.8053890517863 73.26730484541326 L-107.8053890517863 66.33910161513775 L-52.37976320958225 50.33910161513776"/>
		<text x="-107.8053890517863" y="59.41089838486224" font-family="calibri" font-size="4">16</text>
		<text x="-103.8053890517863" y="69.8032032302755" font-family="calibri" font-size="4">16</text>
		<text x="-80.09257613068428" y="44.482695154586736" font-family="calibri" font-size="4">64</text>

		<path opacity="0.75" fill="darkturquoise" d="M-182.89439050886523 38.04614725173234 L-180.39439050886523 40.211210761193435 L-180.39439050886523 44.54133778011563 L-182.89439050886523 42.376274270654534 L-182.89439050886523 38.04614725173234"/>
		<path opacity="0.75" fill="darkturquoise" d="M-210.60720342996729 46.04614725173234 L-208.10720342996729 48.211210761193435 L-208.10720342996729 52.54133778011563 L-210.60720342996729 50.376274270654534 L-210.60720342996729 46.04614725173234"/>
		<path opacity="0.75" fill="darkturquoise" d="M-182.89439050886523 38.04614725173234 L-210.60720342996729 46.04614725173234 L-210.60720342996729 50.376274270654534 L-182.89439050886523 42.376274270654534 L-182.89439050886523 38.04614725173234"/>
		<path opacity="0.75" fill="darkturquoise" d="M-180.39439050886523 40.211210761193435 L-208.10720342996729 48.211210761193435 L-208.10720342996729 52.54133778011563 L-180.39439050886523 44.54133778011563 L-180.39439050886523 40.211210761193435"/>
		<path opacity="0.75" fill="darkturquoise" d="M-182.89439050886523 38.04614725173234 L-180.39439050886523 40.211210761193435 L-208.10720342996729 48.211210761193435 L-210.60720342996729 46.04614725173234 L-182.89439050886523 38.04614725173234"/>
		<path opacity="0.75" fill="darkturquoise" d="M-182.89439050886523 42.376274270654534 L-180.39439050886523 44.54133778011563 L-208.10720342996729 52.54133778011563 L-210.60720342996729 50.376274270654534 L-182.89439050886523 42.376274270654534"/>
		<text x="-210.60720342996729" y="48.21121076119344" font-family="calibri" font-size="4">5</text>
		<text x="-209.35720342996729" y="51.45880602538509" font-family="calibri" font-size="4">5</text>
		<text x="-196.75079696941626" y="42.04614725173234" font-family="calibri" font-size="4">32</text>

		<path opacity="0.5" fill="orange" d="M-183.60665924100823 29.908666301316977 L-167.60665924100823 43.76507276186799 L-167.60665924100823 71.47788568297003 L-183.60665924100823 57.62147922241901 L-183.60665924100823 29.908666301316977"/>
		<path opacity="0.5" fill="orange" d="M-211.3194721621103 37.90866630131698 L-195.3194721621103 51.76507276186799 L-195.3194721621103 79.47788568297003 L-211.3194721621103 65.62147922241901 L-211.3194721621103 37.90866630131698"/>
		<path opacity="0.5" fill="orange" d="M-183.60665924100823 29.908666301316977 L-211.3194721621103 37.90866630131698 L-211.3194721621103 65.62147922241901 L-183.60665924100823 57.62147922241901 L-183.60665924100823 29.908666301316977"/>
		<path opacity="0.5" fill="orange" d="M-167.60665924100823 43.76507276186799 L-195.3194721621103 51.76507276186799 L-195.3194721621103 79.47788568297003 L-167.60665924100823 71.47788568297003 L-167.60665924100823 43.76507276186799"/>
		<path opacity="0.5" fill="orange" d="M-183.60665924100823 29.908666301316977 L-167.60665924100823 43.76507276186799 L-195.3194721621103 51.76507276186799 L-211.3194721621103 37.90866630131698 L-183.60665924100823 29.908666301316977"/>
		<path opacity="0.5" fill="orange" d="M-183.60665924100823 57.62147922241901 L-167.60665924100823 71.47788568297003 L-195.3194721621103 79.47788568297003 L-211.3194721621103 65.62147922241901 L-183.60665924100823 57.62147922241901"/>
		<text x="-211.3194721621103" y="51.765072761868" font-family="calibri" font-size="4">32</text>
		<text x="-203.3194721621103" y="72.54968245269453" font-family="calibri" font-size="4">32</text>
		<text x="-197.46306570155926" y="33.90866630131698" font-family="calibri" font-size="4">32</text>

<!-- Arrow -->
		<path opacity="0.5" stroke="black" d="M107.34713282184379 67.738448015713 L123.40802195429913 46.647586011784746"/>
		<circle opacity="0.5" cx="123.40802195429913" cy="46.647586011784746" r="1" fill="black" />
		<path opacity="0.75" fill="pink" d="M-22.97958479967403 67.25649933586277 L-20.47958479967403 69.42156284532385 L24.48683633897332 61.24166963779783 L-22.97958479967403 67.25649933586277"/>
		<path opacity="0.75" fill="pink" d="M-22.97958479967403 67.25649933586277 L-22.97958479967403 71.58662635478495 L24.48683633897332 61.24166963779783 L-22.97958479967403 67.25649933586277"/>
		<path opacity="0.75" fill="pink" d="M-20.47958479967403 69.42156284532385 L-20.47958479967403 73.75168986424605 L24.48683633897332 61.24166963779783 L-20.47958479967403 69.42156284532385"/>
		<path opacity="0.75" fill="pink" d="M-22.97958479967403 71.58662635478495 L-20.47958479967403 73.75168986424605 L24.48683633897332 61.24166963779783 L-22.97958479967403 71.58662635478495"/>

		<path opacity="0.75" fill="pink" d="M-249.28413863561957 62.256928415054126 L-244.28413863561957 66.58705543397632 L-200.45518120178957 48.372437410310496 L-249.28413863561957 62.256928415054126"/>
		<path opacity="0.75" fill="pink" d="M-249.28413863561957 62.256928415054126 L-249.28413863561957 70.91718245289852 L-200.45518120178957 48.372437410310496 L-249.28413863561957 62.256928415054126"/>
		<path opacity="0.75" fill="pink" d="M-244.28413863561957 66.58705543397632 L-244.28413863561957 75.2473094718207 L-200.45518120178957 48.372437410310496 L-244.28413863561957 66.58705543397632"/>
		<path opacity="0.75" fill="pink" d="M-249.28413863561957 70.91718245289852 L-244.28413863561957 75.2473094718207 L-200.45518120178957 48.372437410310496 L-249.28413863561957 70.91718245289852"/>

		<path opacity="0.75" fill="pink" d="M-144.8534188248417 80.37218717181922 L-142.3534188248417 82.53725068128031 L-101.9673067277856 67.54795137370412 L-144.8534188248417 80.37218717181922"/>
		<path opacity="0.75" fill="pink" d="M-144.8534188248417 80.37218717181922 L-144.8534188248417 84.7023141907414 L-101.9673067277856 67.54795137370412 L-144.8534188248417 80.37218717181922"/>
		<path opacity="0.75" fill="pink" d="M-142.3534188248417 82.53725068128031 L-142.3534188248417 86.86737770020251 L-101.9673067277856 67.54795137370412 L-142.3534188248417 82.53725068128031"/>
		<path opacity="0.75" fill="pink" d="M-144.8534188248417 84.7023141907414 L-142.3534188248417 86.86737770020251 L-101.9673067277856 67.54795137370412 L-144.8534188248417 84.7023141907414"/>

		<path opacity="0.75" fill="darkturquoise" d="M-249.28413863561957 62.256928415054126 L-244.28413863561957 66.58705543397632 L-244.28413863561957 75.2473094718207 L-249.28413863561957 70.91718245289852 L-249.28413863561957 62.256928415054126"/>
		<path opacity="0.75" fill="darkturquoise" d="M-266.6046467113084 67.25692841505412 L-261.6046467113084 71.58705543397632 L-261.6046467113084 80.2473094718207 L-266.6046467113084 75.91718245289852 L-266.6046467113084 67.25692841505412"/>
		<path opacity="0.75" fill="darkturquoise" d="M-249.28413863561957 62.256928415054126 L-266.6046467113084 67.25692841505412 L-266.6046467113084 75.91718245289852 L-249.28413863561957 70.91718245289852 L-249.28413863561957 62.256928415054126"/>
		<path opacity="0.75" fill="darkturquoise" d="M-244.28413863561957 66.58705543397632 L-261.6046467113084 71.58705543397632 L-261.6046467113084 80.2473094718207 L-244.28413863561957 75.2473094718207 L-244.28413863561957 66.58705543397632"/>
		<path opacity="0.75" fill="darkturquoise" d="M-249.28413863561957 62.256928415054126 L-244.28413863561957 66.58705543397632 L-261.6046467113084 71.58705543397632 L-266.6046467113084 67.25692841505412 L-249.28413863561957 62.256928415054126"/>
		<path opacity="0.75" fill="darkturquoise" d="M-249.28413863561957 70.91718245289852 L-244.28413863561957 75.2473094718207 L-261.6046467113084 80.2473094718207 L-266.6046467113084 75.91718245289852 L-249.28413863561957 70.91718245289852"/>
		<text x="-266.6046467113084" y="71.58705543397632" font-family="calibri" font-size="4">10</text>
		<text x="-264.1046467113084" y="78.08224596235961" font-family="calibri" font-size="4">10</text>
		<text x="-257.944392673464" y="64.75692841505412" font-family="calibri" font-size="4">20</text>

		<path opacity="0.5" fill="orange" d="M-254.62074235133218 50.40866630131698 L-238.62074235133218 64.265072761868 L-238.62074235133218 91.97788568297003 L-254.62074235133218 78.12147922241901 L-254.62074235133218 50.40866630131698"/>
		<path opacity="0.5" fill="orange" d="M-271.941250427021 55.40866630131698 L-255.94125042702098 69.265072761868 L-255.94125042702098 96.97788568297003 L-271.941250427021 83.12147922241901 L-271.941250427021 55.40866630131698"/>
		<path opacity="0.5" fill="orange" d="M-254.62074235133218 50.40866630131698 L-271.941250427021 55.40866630131698 L-271.941250427021 83.12147922241901 L-254.62074235133218 78.12147922241901 L-254.62074235133218 50.40866630131698"/>
		<path opacity="0.5" fill="orange" d="M-238.62074235133218 64.265072761868 L-255.94125042702098 69.265072761868 L-255.94125042702098 96.97788568297003 L-238.62074235133218 91.97788568297003 L-238.62074235133218 64.265072761868"/>
		<path opacity="0.5" fill="orange" d="M-254.62074235133218 50.40866630131698 L-238.62074235133218 64.265072761868 L-255.94125042702098 69.265072761868 L-271.941250427021 55.40866630131698 L-254.62074235133218 50.40866630131698"/>
		<path opacity="0.5" fill="orange" d="M-254.62074235133218 78.12147922241901 L-238.62074235133218 91.97788568297003 L-255.94125042702098 96.97788568297003 L-271.941250427021 83.12147922241901 L-254.62074235133218 78.12147922241901"/>
		<text x="-271.941250427021" y="69.265072761868" font-family="calibri" font-size="4">32</text>
		<text x="-263.941250427021" y="90.04968245269453" font-family="calibri" font-size="4">32</text>
		<text x="-263.2809963891766" y="52.90866630131698" font-family="calibri" font-size="4">20</text>

		<path opacity="0.5" fill="orange" d="M105.34713282184379 62.54229559300636 L109.34713282184379 66.00639720814411 L109.34713282184379 72.93460043841964 L105.34713282184379 69.47049882328187 L105.34713282184379 62.54229559300636"/>
		<path opacity="0.5" fill="orange" d="M49.9215069796397 78.54229559300636 L53.9215069796397 82.00639720814411 L53.9215069796397 88.93460043841964 L49.9215069796397 85.47049882328187 L49.9215069796397 78.54229559300636"/>
		<path opacity="0.5" fill="orange" d="M105.34713282184379 62.54229559300636 L49.9215069796397 78.54229559300636 L49.9215069796397 85.47049882328187 L105.34713282184379 69.47049882328187 L105.34713282184379 62.54229559300636"/>
		<path opacity="0.5" fill="orange" d="M109.34713282184379 66.00639720814411 L53.9215069796397 82.00639720814411 L53.9215069796397 88.93460043841964 L109.34713282184379 72.93460043841964 L109.34713282184379 66.00639720814411"/>
		<path opacity="0.5" fill="orange" d="M105.34713282184379 62.54229559300636 L109.34713282184379 66.00639720814411 L53.9215069796397 82.00639720814411 L49.9215069796397 78.54229559300636 L105.34713282184379 62.54229559300636"/>
		<path opacity="0.5" fill="orange" d="M105.34713282184379 69.47049882328187 L109.34713282184379 72.93460043841964 L53.9215069796397 88.93460043841964 L49.9215069796397 85.47049882328187 L105.34713282184379 69.47049882328187"/>
		<text x="49.9215069796397" y="82.00639720814411" font-family="calibri" font-size="4">8</text>
		<text x="51.9215069796397" y="87.20254963085075" font-family="calibri" font-size="4">8</text>
		<text x="77.63431990074174" y="70.54229559300636" font-family="calibri" font-size="4">64</text>

		<path opacity="0.75" fill="darkturquoise" d="M-144.8534188248417 80.37218717181922 L-142.3534188248417 82.53725068128031 L-142.3534188248417 86.86737770020251 L-144.8534188248417 84.7023141907414 L-144.8534188248417 80.37218717181922"/>
		<path opacity="0.75" fill="darkturquoise" d="M-172.56623174594375 88.37218717181922 L-170.06623174594375 90.53725068128031 L-170.06623174594375 94.86737770020251 L-172.56623174594375 92.7023141907414 L-172.56623174594375 88.37218717181922"/>
		<path opacity="0.75" fill="darkturquoise" d="M-144.8534188248417 80.37218717181922 L-172.56623174594375 88.37218717181922 L-172.56623174594375 92.7023141907414 L-144.8534188248417 84.7023141907414 L-144.8534188248417 80.37218717181922"/>
		<path opacity="0.75" fill="darkturquoise" d="M-142.3534188248417 82.53725068128031 L-170.06623174594375 90.53725068128031 L-170.06623174594375 94.86737770020251 L-142.3534188248417 86.86737770020251 L-142.3534188248417 82.53725068128031"/>
		<path opacity="0.75" fill="darkturquoise" d="M-144.8534188248417 80.37218717181922 L-142.3534188248417 82.53725068128031 L-170.06623174594375 90.53725068128031 L-172.56623174594375 88.37218717181922 L-144.8534188248417 80.37218717181922"/>
		<path opacity="0.75" fill="darkturquoise" d="M-144.8534188248417 84.7023141907414 L-142.3534188248417 86.86737770020251 L-170.06623174594375 94.86737770020251 L-172.56623174594375 92.7023141907414 L-144.8534188248417 84.7023141907414"/>
		<text x="-172.56623174594375" y="90.53725068128031" font-family="calibri" font-size="4">5</text>
		<text x="-171.31623174594375" y="93.78484594547196" font-family="calibri" font-size="4">5</text>
		<text x="-158.70982528539272" y="84.37218717181922" font-family="calibri" font-size="4">32</text>

		<path opacity="0.5" fill="orange" d="M-155.10665924100823 54.59039030917347 L-139.10665924100823 68.44679676972449 L-139.10665924100823 96.15960969082653 L-155.10665924100823 82.30320323027551 L-155.10665924100823 54.59039030917347"/>
		<path opacity="0.5" fill="orange" d="M-182.8194721621103 62.59039030917347 L-166.8194721621103 76.44679676972449 L-166.8194721621103 104.15960969082653 L-182.8194721621103 90.30320323027551 L-182.8194721621103 62.59039030917347"/>
		<path opacity="0.5" fill="orange" d="M-155.10665924100823 54.59039030917347 L-182.8194721621103 62.59039030917347 L-182.8194721621103 90.30320323027551 L-155.10665924100823 82.30320323027551 L-155.10665924100823 54.59039030917347"/>
		<path opacity="0.5" fill="orange" d="M-139.10665924100823 68.44679676972449 L-166.8194721621103 76.44679676972449 L-166.8194721621103 104.15960969082653 L-139.10665924100823 96.15960969082653 L-139.10665924100823 68.44679676972449"/>
		<path opacity="0.5" fill="orange" d="M-155.10665924100823 54.59039030917347 L-139.10665924100823 68.44679676972449 L-166.8194721621103 76.44679676972449 L-182.8194721621103 62.59039030917347 L-155.10665924100823 54.59039030917347"/>
		<path opacity="0.5" fill="orange" d="M-155.10665924100823 82.30320323027551 L-139.10665924100823 96.15960969082653 L-166.8194721621103 104.15960969082653 L-182.8194721621103 90.30320323027551 L-155.10665924100823 82.30320323027551"/>
		<text x="-182.8194721621103" y="76.4467967697245" font-family="calibri" font-size="4">32</text>
		<text x="-174.8194721621103" y="97.23140646055103" font-family="calibri" font-size="4">32</text>
		<text x="-168.96306570155926" y="58.59039030917347" font-family="calibri" font-size="4">32</text>

		<path opacity="0.75" fill="darkturquoise" d="M-22.97958479967403 67.25649933586277 L-20.47958479967403 69.42156284532385 L-20.47958479967403 73.75168986424605 L-22.97958479967403 71.58662635478495 L-22.97958479967403 67.25649933586277"/>
		<path opacity="0.75" fill="darkturquoise" d="M-78.40521064187809 83.25649933586277 L-75.90521064187809 85.42156284532385 L-75.90521064187809 89.75168986424605 L-78.40521064187809 87.58662635478495 L-78.40521064187809 83.25649933586277"/>
		<path opacity="0.75" fill="darkturquoise" d="M-22.97958479967403 67.25649933586277 L-78.40521064187809 83.25649933586277 L-78.40521064187809 87.58662635478495 L-22.97958479967403 71.58662635478495 L-22.97958479967403 67.25649933586277"/>
		<path opacity="0.75" fill="darkturquoise" d="M-20.47958479967403 69.42156284532385 L-75.90521064187809 85.42156284532385 L-75.90521064187809 89.75168986424605 L-20.47958479967403 73.75168986424605 L-20.47958479967403 69.42156284532385"/>
		<path opacity="0.75" fill="darkturquoise" d="M-22.97958479967403 67.25649933586277 L-20.47958479967403 69.42156284532385 L-75.90521064187809 85.42156284532385 L-78.40521064187809 83.25649933586277 L-22.97958479967403 67.25649933586277"/>
		<path opacity="0.75" fill="darkturquoise" d="M-22.97958479967403 71.58662635478495 L-20.47958479967403 73.75168986424605 L-75.90521064187809 89.75168986424605 L-78.40521064187809 87.58662635478495 L-22.97958479967403 71.58662635478495"/>
		<text x="-78.40521064187809" y="85.42156284532386" font-family="calibri" font-size="4">5</text>
		<text x="-77.15521064187809" y="88.66915810951551" font-family="calibri" font-size="4">5</text>
		<text x="-50.69239772077606" y="75.25649933586277" font-family="calibri" font-size="4">64</text>

		<path opacity="0.5" fill="orange" d="M-23.87976320958225 61.16441916244323 L-15.87976320958225 68.09262239271874 L-15.87976320958225 81.94902885326977 L-23.87976320958225 75.02082562299425 L-23.87976320958225 61.16441916244323"/>
		<path opacity="0.5" fill="orange" d="M-79.3053890517863 77.16441916244324 L-71.3053890517863 84.09262239271874 L-71.3053890517863 97.94902885326977 L-79.3053890517863 91.02082562299425 L-79.3053890517863 77.16441916244324"/>
		<path opacity="0.5" fill="orange" d="M-23.87976320958225 61.16441916244323 L-79.3053890517863 77.16441916244324 L-79.3053890517863 91.02082562299425 L-23.87976320958225 75.02082562299425 L-23.87976320958225 61.16441916244323"/>
		<path opacity="0.5" fill="orange" d="M-15.87976320958225 68.09262239271874 L-71.3053890517863 84.09262239271874 L-71.3053890517863 97.94902885326977 L-15.87976320958225 81.94902885326977 L-15.87976320958225 68.09262239271874"/>
		<path opacity="0.5" fill="orange" d="M-23.87976320958225 61.16441916244323 L-15.87976320958225 68.09262239271874 L-71.3053890517863 84.09262239271874 L-79.3053890517863 77.16441916244324 L-23.87976320958225 61.16441916244323"/>
		<path opacity="0.5" fill="orange" d="M-23.87976320958225 75.02082562299425 L-15.87976320958225 81.94902885326977 L-71.3053890517863 97.94902885326977 L-79.3053890517863 91.02082562299425 L-23.87976320958225 75.02082562299425"/>
		<text x="-79.3053890517863" y="84.09262239271874" font-family="calibri" font-size="4">16</text>
		<text x="-75.3053890517863" y="94.484927238132" font-family="calibri" font-size="4">16</text>
		<text x="-51.59257613068428" y="69.16441916244324" font-family="calibri" font-size="4">64</text>

		<path opacity="0.75" fill="pink" d="M-125.29600463301557 93.27485689067784 L-122.79600463301557 95.43992040013893 L-75.48196962491 83.88995887162802 L-125.29600463301557 93.27485689067784"/>
		<path opacity="0.75" fill="pink" d="M-125.29600463301557 93.27485689067784 L-125.29600463301557 97.60498390960004 L-75.48196962491 83.88995887162802 L-125.29600463301557 93.27485689067784"/>
		<path opacity="0.75" fill="pink" d="M-122.79600463301557 95.43992040013893 L-122.79600463301557 99.77004741906113 L-75.48196962491 83.88995887162802 L-122.79600463301557 95.43992040013893"/>
		<path opacity="0.75" fill="pink" d="M-125.29600463301557 97.60498390960004 L-122.79600463301557 99.77004741906113 L-75.48196962491 83.88995887162802 L-125.29600463301557 97.60498390960004"/>

		<path opacity="0.75" fill="pink" d="M-217.3689659508401 89.3928174285385 L-212.3689659508401 93.72294444746069 L-177.1262779839904 77.99007248805839 L-217.3689659508401 89.3928174285385"/>
		<path opacity="0.75" fill="pink" d="M-217.3689659508401 89.3928174285385 L-217.3689659508401 98.05307146638289 L-177.1262779839904 77.99007248805839 L-217.3689659508401 89.3928174285385"/>
		<path opacity="0.75" fill="pink" d="M-212.3689659508401 93.72294444746069 L-212.3689659508401 102.38319848530509 L-177.1262779839904 77.99007248805839 L-212.3689659508401 93.72294444746069"/>
		<path opacity="0.75" fill="pink" d="M-217.3689659508401 98.05307146638289 L-212.3689659508401 102.38319848530509 L-177.1262779839904 77.99007248805839 L-217.3689659508401 98.05307146638289"/>

		<path opacity="0.75" fill="pink" d="M9.268921538272437 90.4279253784585 L11.768921538272437 92.59298888791959 L52.959105260772404 82.36093187668516 L9.268921538272437 90.4279253784585"/>
		<path opacity="0.75" fill="pink" d="M9.268921538272437 90.4279253784585 L9.268921538272437 94.75805239738068 L52.959105260772404 82.36093187668516 L9.268921538272437 90.4279253784585"/>
		<path opacity="0.75" fill="pink" d="M11.768921538272437 92.59298888791959 L11.768921538272437 96.92311590684179 L52.959105260772404 82.36093187668516 L11.768921538272437 92.59298888791959"/>
		<path opacity="0.75" fill="pink" d="M9.268921538272437 94.75805239738068 L11.768921538272437 96.92311590684179 L52.959105260772404 82.36093187668516 L9.268921538272437 94.75805239738068"/>

		<path opacity="0.75" fill="darkturquoise" d="M-217.3689659508401 89.3928174285385 L-212.3689659508401 93.72294444746069 L-212.3689659508401 102.38319848530509 L-217.3689659508401 98.05307146638289 L-217.3689659508401 89.3928174285385"/>
		<path opacity="0.75" fill="darkturquoise" d="M-234.6894740265289 94.3928174285385 L-229.6894740265289 98.72294444746069 L-229.6894740265289 107.38319848530509 L-234.6894740265289 103.05307146638289 L-234.6894740265289 94.3928174285385"/>
		<path opacity="0.75" fill="darkturquoise" d="M-217.3689659508401 89.3928174285385 L-234.6894740265289 94.3928174285385 L-234.6894740265289 103.05307146638289 L-217.3689659508401 98.05307146638289 L-217.3689659508401 89.3928174285385"/>
		<path opacity="0.75" fill="darkturquoise" d="M-212.3689659508401 93.72294444746069 L-229.6894740265289 98.72294444746069 L-229.6894740265289 107.38319848530509 L-212.3689659508401 102.38319848530509 L-212.3689659508401 93.72294444746069"/>
		<path opacity="0.75" fill="darkturquoise" d="M-217.3689659508401 89.3928174285385 L-212.3689659508401 93.72294444746069 L-229.6894740265289 98.72294444746069 L-234.6894740265289 94.3928174285385 L-217.3689659508401 89.3928174285385"/>
		<path opacity="0.75" fill="darkturquoise" d="M-217.3689659508401 98.05307146638289 L-212.3689659508401 102.38319848530509 L-229.6894740265289 107.38319848530509 L-234.6894740265289 103.05307146638289 L-217.3689659508401 98.05307146638289"/>
		<text x="-234.6894740265289" y="98.72294444746069" font-family="calibri" font-size="4">10</text>
		<text x="-232.1894740265289" y="105.21813497584398" font-family="calibri" font-size="4">10</text>
		<text x="-226.0292199886845" y="91.8928174285385" font-family="calibri" font-size="4">20</text>

		<path opacity="0.5" fill="orange" d="M-226.12074235133218 75.09039030917347 L-210.12074235133218 88.94679676972449 L-210.12074235133218 116.65960969082653 L-226.12074235133218 102.80320323027551 L-226.12074235133218 75.09039030917347"/>
		<path opacity="0.5" fill="orange" d="M-243.44125042702098 80.09039030917347 L-227.44125042702098 93.94679676972449 L-227.44125042702098 121.65960969082653 L-243.44125042702098 107.80320323027551 L-243.44125042702098 80.09039030917347"/>
		<path opacity="0.5" fill="orange" d="M-226.12074235133218 75.09039030917347 L-243.44125042702098 80.09039030917347 L-243.44125042702098 107.80320323027551 L-226.12074235133218 102.80320323027551 L-226.12074235133218 75.09039030917347"/>
		<path opacity="0.5" fill="orange" d="M-210.12074235133218 88.94679676972449 L-227.44125042702098 93.94679676972449 L-227.44125042702098 121.65960969082653 L-210.12074235133218 116.65960969082653 L-210.12074235133218 88.94679676972449"/>
		<path opacity="0.5" fill="orange" d="M-226.12074235133218 75.09039030917347 L-210.12074235133218 88.94679676972449 L-227.44125042702098 93.94679676972449 L-243.44125042702098 80.09039030917347 L-226.12074235133218 75.09039030917347"/>
		<path opacity="0.5" fill="orange" d="M-226.12074235133218 102.80320323027551 L-210.12074235133218 116.65960969082653 L-227.44125042702098 121.65960969082653 L-243.44125042702098 107.80320323027551 L-226.12074235133218 102.80320323027551"/>
		<text x="-243.44125042702098" y="93.9467967697245" font-family="calibri" font-size="4">32</text>
		<text x="-235.44125042702098" y="114.73140646055103" font-family="calibri" font-size="4">32</text>
		<text x="-234.78099638917658" y="77.59039030917347" font-family="calibri" font-size="4">20</text>

		<path opacity="0.75" fill="darkturquoise" d="M-125.29600463301557 93.27485689067784 L-122.79600463301557 95.43992040013893 L-122.79600463301557 99.77004741906113 L-125.29600463301557 97.60498390960004 L-125.29600463301557 93.27485689067784"/>
		<path opacity="0.75" fill="darkturquoise" d="M-153.00881755411763 101.27485689067784 L-150.50881755411763 103.43992040013893 L-150.50881755411763 107.77004741906113 L-153.00881755411763 105.60498390960004 L-153.00881755411763 101.27485689067784"/>
		<path opacity="0.75" fill="darkturquoise" d="M-125.29600463301557 93.27485689067784 L-153.00881755411763 101.27485689067784 L-153.00881755411763 105.60498390960004 L-125.29600463301557 97.60498390960004 L-125.29600463301557 93.27485689067784"/>
		<path opacity="0.75" fill="darkturquoise" d="M-122.79600463301557 95.43992040013893 L-150.50881755411763 103.43992040013893 L-150.50881755411763 107.77004741906113 L-122.79600463301557 99.77004741906113 L-122.79600463301557 95.43992040013893"/>
		<path opacity="0.75" fill="darkturquoise" d="M-125.29600463301557 93.27485689067784 L-122.79600463301557 95.43992040013893 L-150.50881755411763 103.43992040013893 L-153.00881755411763 101.27485689067784 L-125.29600463301557 93.27485689067784"/>
		<path opacity="0.75" fill="darkturquoise" d="M-125.29600463301557 97.60498390960004 L-122.79600463301557 99.77004741906113 L-150.50881755411763 107.77004741906113 L-153.00881755411763 105.60498390960004 L-125.29600463301557 97.60498390960004"/>
		<text x="-153.00881755411763" y="103.43992040013893" font-family="calibri" font-size="4">5</text>
		<text x="-151.75881755411763" y="106.68751566433059" font-family="calibri" font-size="4">5</text>
		<text x="-139.1524110935666" y="97.27485689067784" font-family="calibri" font-size="4">32</text>

		<path opacity="0.5" fill="orange" d="M-126.60665924100823 79.27211431702997 L-110.60665924100823 93.12852077758099 L-110.60665924100823 120.84133369868303 L-126.60665924100823 106.984927238132 L-126.60665924100823 79.27211431702997"/>
		<path opacity="0.5" fill="orange" d="M-154.3194721621103 87.27211431702997 L-138.3194721621103 101.12852077758099 L-138.3194721621103 128.84133369868303 L-154.3194721621103 114.984927238132 L-154.3194721621103 87.27211431702997"/>
		<path opacity="0.5" fill="orange" d="M-126.60665924100823 79.27211431702997 L-154.3194721621103 87.27211431702997 L-154.3194721621103 114.984927238132 L-126.60665924100823 106.984927238132 L-126.60665924100823 79.27211431702997"/>
		<path opacity="0.5" fill="orange" d="M-110.60665924100823 93.12852077758099 L-138.3194721621103 101.12852077758099 L-138.3194721621103 128.84133369868303 L-110.60665924100823 120.84133369868303 L-110.60665924100823 93.12852077758099"/>
		<path opacity="0.5" fill="orange" d="M-126.60665924100823 79.27211431702997 L-110.60665924100823 93.12852077758099 L-138.3194721621103 101.12852077758099 L-154.3194721621103 87.27211431702997 L-126.60665924100823 79.27211431702997"/>
		<path opacity="0.5" fill="orange" d="M-126.60665924100823 106.984927238132 L-110.60665924100823 120.84133369868303 L-138.3194721621103 128.84133369868303 L-154.3194721621103 114.984927238132 L-126.60665924100823 106.984927238132"/>
		<text x="-154.3194721621103" y="101.12852077758099" font-family="calibri" font-size="4">32</text>
		<text x="-146.3194721621103" y="121.91313046840752" font-family="calibri" font-size="4">32</text>
		<text x="-140.46306570155926" y="83.27211431702997" font-family="calibri" font-size="4">32</text>

		<path opacity="0.75" fill="darkturquoise" d="M9.268921538272437 90.4279253784585 L11.768921538272437 92.59298888791959 L11.768921538272437 96.92311590684179 L9.268921538272437 94.75805239738068 L9.268921538272437 90.4279253784585"/>
		<path opacity="0.75" fill="darkturquoise" d="M-46.15670430393163 106.4279253784585 L-43.65670430393163 108.59298888791959 L-43.65670430393163 112.92311590684179 L-46.15670430393163 110.75805239738068 L-46.15670430393163 106.4279253784585"/>
		<path opacity="0.75" fill="darkturquoise" d="M9.268921538272437 90.4279253784585 L-46.15670430393163 106.4279253784585 L-46.15670430393163 110.75805239738068 L9.268921538272437 94.75805239738068 L9.268921538272437 90.4279253784585"/>
		<path opacity="0.75" fill="darkturquoise" d="M11.768921538272437 92.59298888791959 L-43.65670430393163 108.59298888791959 L-43.65670430393163 112.92311590684179 L11.768921538272437 96.92311590684179 L11.768921538272437 92.59298888791959"/>
		<path opacity="0.75" fill="darkturquoise" d="M9.268921538272437 90.4279253784585 L11.768921538272437 92.59298888791959 L-43.65670430393163 108.59298888791959 L-46.15670430393163 106.4279253784585 L9.268921538272437 90.4279253784585"/>
		<path opacity="0.75" fill="darkturquoise" d="M9.268921538272437 94.75805239738068 L11.768921538272437 96.92311590684179 L-43.65670430393163 112.92311590684179 L-46.15670430393163 110.75805239738068 L9.268921538272437 94.75805239738068"/>
		<text x="-46.15670430393163" y="108.59298888791959" font-family="calibri" font-size="4">5</text>
		<text x="-44.90670430393163" y="111.84058415211123" font-family="calibri" font-size="4">5</text>
		<text x="-18.443891382829598" y="98.4279253784585" font-family="calibri" font-size="4">64</text>

		<path opacity="0.5" fill="orange" d="M4.6202367904177635 85.84614317029974 L12.620236790417763 92.77434640057524 L12.620236790417763 106.63075286112625 L4.6202367904177635 99.70254963085074 L4.6202367904177635 85.84614317029974"/>
		<path opacity="0.5" fill="orange" d="M-50.80538905178628 101.84614317029974 L-42.80538905178628 108.77434640057524 L-42.80538905178628 122.63075286112625 L-50.80538905178628 115.70254963085074 L-50.80538905178628 101.84614317029974"/>
		<path opacity="0.5" fill="orange" d="M4.6202367904177635 85.84614317029974 L-50.80538905178628 101.84614317029974 L-50.80538905178628 115.70254963085074 L4.6202367904177635 99.70254963085074 L4.6202367904177635 85.84614317029974"/>
		<path opacity="0.5" fill="orange" d="M12.620236790417763 92.77434640057524 L-42.80538905178628 108.77434640057524 L-42.80538905178628 122.63075286112625 L12.620236790417763 106.63075286112625 L12.620236790417763 92.77434640057524"/>
		<path opacity="0.5" fill="orange" d="M4.6202367904177635 85.84614317029974 L12.620236790417763 92.77434640057524 L-42.80538905178628 108.77434640057524 L-50.80538905178628 101.84614317029974 L4.6202367904177635 85.84614317029974"/>
		<path opacity="0.5" fill="orange" d="M4.6202367904177635 99.70254963085074 L12.620236790417763 106.63075286112625 L-42.80538905178628 122.63075286112625 L-50.80538905178628 115.70254963085074 L4.6202367904177635 99.70254963085074"/>
		<text x="-50.80538905178628" y="108.77434640057524" font-family="calibri" font-size="4">16</text>
		<text x="-46.80538905178628" y="119.1666512459885" font-family="calibri" font-size="4">16</text>
		<text x="-23.092576130684257" y="93.84614317029974" font-family="calibri" font-size="4">64</text>

		<path opacity="0.75" fill="pink" d="M-191.3259845926977 123.90999191237394 L-186.3259845926977 128.24011893129614 L-145.22105294832136 115.31900416257987 L-191.3259845926977 123.90999191237394"/>
		<path opacity="0.75" fill="pink" d="M-191.3259845926977 123.90999191237394 L-191.3259845926977 132.57024595021832 L-145.22105294832136 115.31900416257987 L-191.3259845926977 123.90999191237394"/>
		<path opacity="0.75" fill="pink" d="M-186.3259845926977 128.24011893129614 L-186.3259845926977 136.9003729691405 L-145.22105294832136 115.31900416257987 L-186.3259845926977 128.24011893129614"/>
		<path opacity="0.75" fill="pink" d="M-191.3259845926977 132.57024595021832 L-186.3259845926977 136.9003729691405 L-145.22105294832136 115.31900416257987 L-191.3259845926977 132.57024595021832"/>

		<path opacity="0.75" fill="pink" d="M-87.80144804865952 127.09664611193062 L-85.30144804865952 129.26170962139173 L-47.366843243273195 118.38049100721446 L-87.80144804865952 127.09664611193062"/>
		<path opacity="0.75" fill="pink" d="M-87.80144804865952 127.09664611193062 L-87.80144804865952 131.42677313085284 L-47.366843243273195 118.38049100721446 L-87.80144804865952 127.09664611193062"/>
		<path opacity="0.75" fill="pink" d="M-85.30144804865952 129.26170962139173 L-85.30144804865952 133.59183664031391 L-47.366843243273195 118.38049100721446 L-85.30144804865952 129.26170962139173"/>
		<path opacity="0.75" fill="pink" d="M-87.80144804865952 131.42677313085284 L-85.30144804865952 133.59183664031391 L-47.366843243273195 118.38049100721446 L-87.80144804865952 131.42677313085284"/>

		<path opacity="0.75" fill="darkturquoise" d="M-191.3259845926977 123.90999191237394 L-186.3259845926977 128.24011893129614 L-186.3259845926977 136.9003729691405 L-191.3259845926977 132.57024595021832 L-191.3259845926977 123.90999191237394"/>
		<path opacity="0.75" fill="darkturquoise" d="M-208.6464926683865 128.90999191237393 L-203.6464926683865 133.24011893129614 L-203.6464926683865 141.9003729691405 L-208.6464926683865 137.57024595021832 L-208.6464926683865 128.90999191237393"/>
		<path opacity="0.75" fill="darkturquoise" d="M-191.3259845926977 123.90999191237394 L-208.6464926683865 128.90999191237393 L-208.6464926683865 137.57024595021832 L-191.3259845926977 132.57024595021832 L-191.3259845926977 123.90999191237394"/>
		<path opacity="0.75" fill="darkturquoise" d="M-186.3259845926977 128.24011893129614 L-203.6464926683865 133.24011893129614 L-203.6464926683865 141.9003729691405 L-186.3259845926977 136.9003729691405 L-186.3259845926977 128.24011893129614"/>
		<path opacity="0.75" fill="darkturquoise" d="M-191.3259845926977 123.90999191237394 L-186.3259845926977 128.24011893129614 L-203.6464926683865 133.24011893129614 L-208.6464926683865 128.90999191237393 L-191.3259845926977 123.90999191237394"/>
		<path opacity="0.75" fill="darkturquoise" d="M-191.3259845926977 132.57024595021832 L-186.3259845926977 136.9003729691405 L-203.6464926683865 141.9003729691405 L-208.6464926683865 137.57024595021832 L-191.3259845926977 132.57024595021832"/>
		<text x="-208.6464926683865" y="133.24011893129614" font-family="calibri" font-size="4">10</text>
		<text x="-206.1464926683865" y="139.7353094596794" font-family="calibri" font-size="4">10</text>
		<text x="-199.9862386305421" y="126.40999191237393" font-family="calibri" font-size="4">20</text>

		<path opacity="0.5" fill="orange" d="M-197.62074235133218 99.77211431702997 L-181.62074235133218 113.62852077758099 L-181.62074235133218 141.34133369868303 L-197.62074235133218 127.484927238132 L-197.62074235133218 99.77211431702997"/>
		<path opacity="0.5" fill="orange" d="M-214.94125042702098 104.77211431702997 L-198.94125042702098 118.62852077758099 L-198.94125042702098 146.34133369868303 L-214.94125042702098 132.484927238132 L-214.94125042702098 104.77211431702997"/>
		<path opacity="0.5" fill="orange" d="M-197.62074235133218 99.77211431702997 L-214.94125042702098 104.77211431702997 L-214.94125042702098 132.484927238132 L-197.62074235133218 127.484927238132 L-197.62074235133218 99.77211431702997"/>
		<path opacity="0.5" fill="orange" d="M-181.62074235133218 113.62852077758099 L-198.94125042702098 118.62852077758099 L-198.94125042702098 146.34133369868303 L-181.62074235133218 141.34133369868303 L-181.62074235133218 113.62852077758099"/>
		<path opacity="0.5" fill="orange" d="M-197.62074235133218 99.77211431702997 L-181.62074235133218 113.62852077758099 L-198.94125042702098 118.62852077758099 L-214.94125042702098 104.77211431702997 L-197.62074235133218 99.77211431702997"/>
		<path opacity="0.5" fill="orange" d="M-197.62074235133218 127.484927238132 L-181.62074235133218 141.34133369868303 L-198.94125042702098 146.34133369868303 L-214.94125042702098 132.484927238132 L-197.62074235133218 127.484927238132"/>
		<text x="-214.94125042702098" y="118.62852077758099" font-family="calibri" font-size="4">32</text>
		<text x="-206.94125042702098" y="139.41313046840753" font-family="calibri" font-size="4">32</text>
		<text x="-206.28099638917658" y="102.27211431702997" font-family="calibri" font-size="4">20</text>

		<path opacity="0.75" fill="darkturquoise" d="M-87.80144804865952 127.09664611193062 L-85.30144804865952 129.26170962139173 L-85.30144804865952 133.59183664031391 L-87.80144804865952 131.42677313085284 L-87.80144804865952 127.09664611193062"/>
		<path opacity="0.75" fill="darkturquoise" d="M-115.51426096976158 135.09664611193062 L-113.01426096976158 137.26170962139173 L-113.01426096976158 141.59183664031391 L-115.51426096976158 139.42677313085284 L-115.51426096976158 135.09664611193062"/>
		<path opacity="0.75" fill="darkturquoise" d="M-87.80144804865952 127.09664611193062 L-115.51426096976158 135.09664611193062 L-115.51426096976158 139.42677313085284 L-87.80144804865952 131.42677313085284 L-87.80144804865952 127.09664611193062"/>
		<path opacity="0.75" fill="darkturquoise" d="M-85.30144804865952 129.26170962139173 L-113.01426096976158 137.26170962139173 L-113.01426096976158 141.59183664031391 L-85.30144804865952 133.59183664031391 L-85.30144804865952 129.26170962139173"/>
		<path opacity="0.75" fill="darkturquoise" d="M-87.80144804865952 127.09664611193062 L-85.30144804865952 129.26170962139173 L-113.01426096976158 137.26170962139173 L-115.51426096976158 135.09664611193062 L-87.80144804865952 127.09664611193062"/>
		<path opacity="0.75" fill="darkturquoise" d="M-87.80144804865952 131.42677313085284 L-85.30144804865952 133.59183664031391 L-113.01426096976158 141.59183664031391 L-115.51426096976158 139.42677313085284 L-87.80144804865952 131.42677313085284"/>
		<text x="-115.51426096976158" y="137.26170962139173" font-family="calibri" font-size="4">5</text>
		<text x="-114.26426096976158" y="140.5093048855834" font-family="calibri" font-size="4">5</text>
		<text x="-101.65785450921055" y="131.09664611193062" font-family="calibri" font-size="4">32</text>

		<path opacity="0.5" fill="orange" d="M-98.10665924100823 103.95383832488646 L-82.10665924100823 117.81024478543748 L-82.10665924100823 145.52305770653953 L-98.10665924100823 131.6666512459885 L-98.10665924100823 103.95383832488646"/>
		<path opacity="0.5" fill="orange" d="M-125.81947216211029 111.95383832488646 L-109.81947216211029 125.81024478543748 L-109.81947216211029 153.52305770653953 L-125.81947216211029 139.6666512459885 L-125.81947216211029 111.95383832488646"/>
		<path opacity="0.5" fill="orange" d="M-98.10665924100823 103.95383832488646 L-125.81947216211029 111.95383832488646 L-125.81947216211029 139.6666512459885 L-98.10665924100823 131.6666512459885 L-98.10665924100823 103.95383832488646"/>
		<path opacity="0.5" fill="orange" d="M-82.10665924100823 117.81024478543748 L-109.81947216211029 125.81024478543748 L-109.81947216211029 153.52305770653953 L-82.10665924100823 145.52305770653953 L-82.10665924100823 117.81024478543748"/>
		<path opacity="0.5" fill="orange" d="M-98.10665924100823 103.95383832488646 L-82.10665924100823 117.81024478543748 L-109.81947216211029 125.81024478543748 L-125.81947216211029 111.95383832488646 L-98.10665924100823 103.95383832488646"/>
		<path opacity="0.5" fill="orange" d="M-98.10665924100823 131.6666512459885 L-82.10665924100823 145.52305770653953 L-109.81947216211029 153.52305770653953 L-125.81947216211029 139.6666512459885 L-98.10665924100823 131.6666512459885"/>
		<text x="-125.81947216211029" y="125.81024478543748" font-family="calibri" font-size="4">32</text>
		<text x="-117.81947216211029" y="146.594854476264" font-family="calibri" font-size="4">32</text>
		<text x="-111.96306570155926" y="107.95383832488646" font-family="calibri" font-size="4">32</text>

		<path opacity="0.75" fill="pink" d="M-162.8231580880095 132.04365414111615 L-157.8231580880095 136.37378116003833 L-124.84050074742089 127.57003568536354 L-162.8231580880095 132.04365414111615"/>
		<path opacity="0.75" fill="pink" d="M-162.8231580880095 132.04365414111615 L-162.8231580880095 140.70390817896055 L-124.84050074742089 127.57003568536354 L-162.8231580880095 132.04365414111615"/>
		<path opacity="0.75" fill="pink" d="M-157.8231580880095 136.37378116003833 L-157.8231580880095 145.03403519788273 L-124.84050074742089 127.57003568536354 L-157.8231580880095 136.37378116003833"/>
		<path opacity="0.75" fill="pink" d="M-162.8231580880095 140.70390817896055 L-157.8231580880095 145.03403519788273 L-124.84050074742089 127.57003568536354 L-162.8231580880095 140.70390817896055"/>

		<path opacity="0.75" fill="darkturquoise" d="M-162.8231580880095 132.04365414111615 L-157.8231580880095 136.37378116003833 L-157.8231580880095 145.03403519788273 L-162.8231580880095 140.70390817896055 L-162.8231580880095 132.04365414111615"/>
		<path opacity="0.75" fill="darkturquoise" d="M-180.1436661636983 137.04365414111615 L-175.1436661636983 141.37378116003833 L-175.1436661636983 150.03403519788273 L-180.1436661636983 145.70390817896055 L-180.1436661636983 137.04365414111615"/>
		<path opacity="0.75" fill="darkturquoise" d="M-162.8231580880095 132.04365414111615 L-180.1436661636983 137.04365414111615 L-180.1436661636983 145.70390817896055 L-162.8231580880095 140.70390817896055 L-162.8231580880095 132.04365414111615"/>
		<path opacity="0.75" fill="darkturquoise" d="M-157.8231580880095 136.37378116003833 L-175.1436661636983 141.37378116003833 L-175.1436661636983 150.03403519788273 L-157.8231580880095 145.03403519788273 L-157.8231580880095 136.37378116003833"/>
		<path opacity="0.75" fill="darkturquoise" d="M-162.8231580880095 132.04365414111615 L-157.8231580880095 136.37378116003833 L-175.1436661636983 141.37378116003833 L-180.1436661636983 137.04365414111615 L-162.8231580880095 132.04365414111615"/>
		<path opacity="0.75" fill="darkturquoise" d="M-162.8231580880095 140.70390817896055 L-157.8231580880095 145.03403519788273 L-175.1436661636983 150.03403519788273 L-180.1436661636983 145.70390817896055 L-162.8231580880095 140.70390817896055"/>
		<text x="-180.1436661636983" y="141.37378116003833" font-family="calibri" font-size="4">10</text>
		<text x="-177.6436661636983" y="147.86897168842165" font-family="calibri" font-size="4">10</text>
		<text x="-171.4834121258539" y="134.54365414111615" font-family="calibri" font-size="4">20</text>

		<path opacity="0.5" fill="orange" d="M-169.12074235133218 124.45383832488646 L-153.12074235133218 138.31024478543748 L-153.12074235133218 166.02305770653953 L-169.12074235133218 152.1666512459885 L-169.12074235133218 124.45383832488646"/>
		<path opacity="0.5" fill="orange" d="M-186.44125042702098 129.45383832488648 L-170.44125042702098 143.31024478543748 L-170.44125042702098 171.02305770653953 L-186.44125042702098 157.1666512459885 L-186.44125042702098 129.45383832488648"/>
		<path opacity="0.5" fill="orange" d="M-169.12074235133218 124.45383832488646 L-186.44125042702098 129.45383832488648 L-186.44125042702098 157.1666512459885 L-169.12074235133218 152.1666512459885 L-169.12074235133218 124.45383832488646"/>
		<path opacity="0.5" fill="orange" d="M-153.12074235133218 138.31024478543748 L-170.44125042702098 143.31024478543748 L-170.44125042702098 171.02305770653953 L-153.12074235133218 166.02305770653953 L-153.12074235133218 138.31024478543748"/>
		<path opacity="0.5" fill="orange" d="M-169.12074235133218 124.45383832488646 L-153.12074235133218 138.31024478543748 L-170.44125042702098 143.31024478543748 L-186.44125042702098 129.45383832488648 L-169.12074235133218 124.45383832488646"/>
		<path opacity="0.5" fill="orange" d="M-169.12074235133218 152.1666512459885 L-153.12074235133218 166.02305770653953 L-170.44125042702098 171.02305770653953 L-186.44125042702098 157.1666512459885 L-169.12074235133218 152.1666512459885"/>
		<text x="-186.44125042702098" y="143.31024478543748" font-family="calibri" font-size="4">32</text>
		<text x="-178.44125042702098" y="164.094854476264" font-family="calibri" font-size="4">32</text>
		<text x="-177.78099638917658" y="126.95383832488648" font-family="calibri" font-size="4">20</text>

	 </g>
</svg>