<svg width="100%" height="100%" viewBox="-260.4871130596428 -186.35254037844388 511.4742261192856 299.76854727741454" xmlns="http://www.w3.org/2000/svg">
	<g stroke="black" stroke-width="0.3">

		<path opacity="0.75" fill="darkturquoise" d="M239.9871130596428 -140.46633369868303 L244.9871130596428 -136.13620667976085 L244.9871130596428 -6.2323961120950315 L239.9871130596428 -10.562523131017215 L239.9871130596428 -140.46633369868303" stroke-linecap="square"/>
		<path opacity="0.75" fill="darkturquoise" d="M231.3268590217984 -137.96633369868303 L236.3268590217984 -133.63620667976085 L236.3268590217984 -3.7323961120950315 L231.3268590217984 -8.062523131017215 L231.3268590217984 -137.96633369868303" stroke-linecap="square"/>
		<path opacity="0.75" fill="darkturquoise" d="M239.9871130596428 -140.46633369868303 L231.3268590217984 -137.96633369868303 L231.3268590217984 -8.062523131017215 L239.9871130596428 -10.562523131017215 L239.9871130596428 -140.46633369868303" stroke-linecap="square"/>
		<path opacity="0.75" fill="darkturquoise" d="M244.9871130596428 -136.13620667976085 L236.3268590217984 -133.63620667976085 L236.3268590217984 -3.7323961120950315 L244.9871130596428 -6.2323961120950315 L244.9871130596428 -136.13620667976085" stroke-linecap="square"/>
		<path opacity="0.75" fill="darkturquoise" d="M239.9871130596428 -140.46633369868303 L244.9871130596428 -136.13620667976085 L236.3268590217984 -133.63620667976085 L231.3268590217984 -137.96633369868303 L239.9871130596428 -140.46633369868303" stroke-linecap="square"/>
		<path opacity="0.75" fill="darkturquoise" d="M239.9871130596428 -10.562523131017215 L244.9871130596428 -6.2323961120950315 L236.3268590217984 -3.7323961120950315 L231.3268590217984 -8.062523131017215 L239.9871130596428 -10.562523131017215" stroke-linecap="square"/>
		<text style="fill:black;font-family:calibri;font-size:6" x="231.3268590217984" y="-73.01442841485013" >150</text>
		<text style="fill:black;font-family:calibri;font-size:6" x="233.8268590217984" y="-5.8974596215561235" >10</text>
		<text style="fill:black;font-family:calibri;font-size:6" x="235.6569860407206" y="-139.21633369868303" >10</text>

<!-- Arrow -->
		<path opacity="0.5" stroke="black" d="M190.5255888325765 -58.349364905389024 L233.8268590217984 -70.84936490538904" stroke-linecap="square"/>
		<circle opacity="0.5" cx="233.8268590217984" cy="-70.84936490538904" r="1" fill="black" />
		<path opacity="0.5" fill="orange" d="M181.5255888325765 -81.73205080756887 L199.5255888325765 -66.14359353944899 L199.5255888325765 -34.96667900320919 L181.5255888325765 -50.55513627132908 L181.5255888325765 -81.73205080756887" stroke-linecap="square"/>
		<path opacity="0.5" fill="orange" d="M107.04740410711477 -60.232050807568875 L125.04740410711477 -44.643593539448986 L125.04740410711477 -13.466679003209187 L107.04740410711477 -29.055136271329083 L107.04740410711477 -60.232050807568875" stroke-linecap="square"/>
		<path opacity="0.5" fill="orange" d="M181.5255888325765 -81.73205080756887 L107.04740410711477 -60.232050807568875 L107.04740410711477 -29.055136271329083 L181.5255888325765 -50.55513627132908 L181.5255888325765 -81.73205080756887" stroke-linecap="square"/>
		<path opacity="0.5" fill="orange" d="M199.5255888325765 -66.14359353944899 L125.04740410711477 -44.643593539448986 L125.04740410711477 -13.466679003209187 L199.5255888325765 -34.96667900320919 L199.5255888325765 -66.14359353944899" stroke-linecap="square"/>
		<path opacity="0.5" fill="orange" d="M181.5255888325765 -81.73205080756887 L199.5255888325765 -66.14359353944899 L125.04740410711477 -44.643593539448986 L107.04740410711477 -60.232050807568875 L181.5255888325765 -81.73205080756887" stroke-linecap="square"/>
		<path opacity="0.5" fill="orange" d="M181.5255888325765 -50.55513627132908 L199.5255888325765 -34.96667900320919 L125.04740410711477 -13.466679003209187 L107.04740410711477 -29.055136271329083 L181.5255888325765 -50.55513627132908" stroke-linecap="square"/>
		<text style="fill:black;font-family:calibri;font-size:6" x="107.04740410711477" y="-44.64359353944898" >36</text>
		<text style="fill:black;font-family:calibri;font-size:6" x="116.04740410711477" y="-21.260907637269135" >36</text>
		<text style="fill:black;font-family:calibri;font-size:6" x="144.28649646984564" y="-70.98205080756887" >86</text>

<!-- Arrow -->
		<path opacity="0.5" stroke="black" d="M153.28649646984564 -63.18782217350893 L153.28649646984564 -106.48909236273087" stroke-linecap="square"/>
		<circle opacity="0.5" cx="153.28649646984564" cy="-106.48909236273087" r="1" fill="black" />
		<path opacity="0.75" fill="pink" d="M67.93784109131904 -36.75936791017523 L70.43784109131904 -34.59430440071414 L119.76499384729003 -39.134415731531035 L67.93784109131904 -36.75936791017523"/>
		<path opacity="0.75" fill="pink" d="M67.93784109131904 -36.75936791017523 L67.93784109131904 -32.429240891253045 L119.76499384729003 -39.134415731531035 L67.93784109131904 -36.75936791017523"/>
		<path opacity="0.75" fill="pink" d="M70.43784109131904 -34.59430440071414 L70.43784109131904 -30.264177381791946 L119.76499384729003 -39.134415731531035 L70.43784109131904 -34.59430440071414"/>
		<path opacity="0.75" fill="pink" d="M67.93784109131904 -32.429240891253045 L70.43784109131904 -30.264177381791946 L119.76499384729003 -39.134415731531035 L67.93784109131904 -32.429240891253045"/>

		<text style="fill:black;font-family:calibri;font-size:6" x="86.04689200997603" y="-42.44689182085313" >[5,5]</text>
		<path opacity="0.75" fill="darkturquoise" d="M67.93784109131904 -36.75936791017523 L70.43784109131904 -34.59430440071414 L70.43784109131904 -30.264177381791946 L67.93784109131904 -32.429240891253045 L67.93784109131904 -36.75936791017523" stroke-linecap="square"/>
		<path opacity="0.75" fill="darkturquoise" d="M5.584012018839459 -18.759367910175232 L8.08401201883946 -16.594304400714137 L8.08401201883946 -12.264177381791944 L5.584012018839459 -14.429240891253041 L5.584012018839459 -18.759367910175232" stroke-linecap="square"/>
		<path opacity="0.75" fill="darkturquoise" d="M67.93784109131904 -36.75936791017523 L5.584012018839459 -18.759367910175232 L5.584012018839459 -14.429240891253041 L67.93784109131904 -32.429240891253045 L67.93784109131904 -36.75936791017523" stroke-linecap="square"/>
		<path opacity="0.75" fill="darkturquoise" d="M70.43784109131904 -34.59430440071414 L8.08401201883946 -16.594304400714137 L8.08401201883946 -12.264177381791944 L70.43784109131904 -30.264177381791946 L70.43784109131904 -34.59430440071414" stroke-linecap="square"/>
		<path opacity="0.75" fill="darkturquoise" d="M67.93784109131904 -36.75936791017523 L70.43784109131904 -34.59430440071414 L8.08401201883946 -16.594304400714137 L5.584012018839459 -18.759367910175232 L67.93784109131904 -36.75936791017523" stroke-linecap="square"/>
		<path opacity="0.75" fill="darkturquoise" d="M67.93784109131904 -32.429240891253045 L70.43784109131904 -30.264177381791946 L8.08401201883946 -12.264177381791944 L5.584012018839459 -14.429240891253041 L67.93784109131904 -32.429240891253045" stroke-linecap="square"/>
		<path opacity="0.5" fill="orange" d="M63.74613391789285 -47.732050807568875 L81.74613391789285 -32.143593539448986 L81.74613391789285 -0.9666790032091868 L63.74613391789285 -16.555136271329083 L63.74613391789285 -47.732050807568875" stroke-linecap="square"/>
		<path opacity="0.5" fill="orange" d="M1.3923048454132623 -29.732050807568875 L19.392304845413264 -14.143593539448982 L19.392304845413264 17.033320996790813 L1.3923048454132623 1.4448637286709172 L1.3923048454132623 -29.732050807568875" stroke-linecap="square"/>
		<path opacity="0.5" fill="orange" d="M63.74613391789285 -47.732050807568875 L1.3923048454132623 -29.732050807568875 L1.3923048454132623 1.4448637286709172 L63.74613391789285 -16.555136271329083 L63.74613391789285 -47.732050807568875" stroke-linecap="square"/>
		<path opacity="0.5" fill="orange" d="M81.74613391789285 -32.143593539448986 L19.392304845413264 -14.143593539448982 L19.392304845413264 17.033320996790813 L81.74613391789285 -0.9666790032091868 L81.74613391789285 -32.143593539448986" stroke-linecap="square"/>
		<path opacity="0.5" fill="orange" d="M63.74613391789285 -47.732050807568875 L81.74613391789285 -32.143593539448986 L19.392304845413264 -14.143593539448982 L1.3923048454132623 -29.732050807568875 L63.74613391789285 -47.732050807568875" stroke-linecap="square"/>
		<path opacity="0.5" fill="orange" d="M63.74613391789285 -16.555136271329083 L81.74613391789285 -0.9666790032091868 L19.392304845413264 17.033320996790813 L1.3923048454132623 1.4448637286709172 L63.74613391789285 -16.555136271329083" stroke-linecap="square"/>
		<text style="fill:black;font-family:calibri;font-size:6" x="1.3923048454132623" y="-14.143593539448979" >36</text>
		<text style="fill:black;font-family:calibri;font-size:6" x="10.392304845413264" y="9.239092362730865" >36</text>
		<text style="fill:black;font-family:calibri;font-size:6" x="32.569219381653056" y="-38.732050807568875" >72</text>

<!-- Arrow -->
		<path opacity="0.5" stroke="black" d="M41.569219381653056 -30.937822173508927 L41.569219381653056 -84.23909236273087" stroke-linecap="square"/>
		<circle opacity="0.5" cx="41.569219381653056" cy="-84.23909236273087" r="1" fill="black" />
		<path opacity="0.75" fill="pink" d="M-26.131203819188165 12.828931796828257 L-23.631203819188165 14.993995306289357 L5.016454208473665 -24.46514675170116 L-26.131203819188165 12.828931796828257"/>
		<path opacity="0.75" fill="pink" d="M-26.131203819188165 12.828931796828257 L-26.131203819188165 17.159058815750456 L5.016454208473665 -24.46514675170116 L-26.131203819188165 12.828931796828257"/>
		<path opacity="0.75" fill="pink" d="M-23.631203819188165 14.993995306289357 L-23.631203819188165 19.324122325211555 L5.016454208473665 -24.46514675170116 L-23.631203819188165 14.993995306289357"/>
		<path opacity="0.75" fill="pink" d="M-26.131203819188165 17.159058815750456 L-23.631203819188165 19.324122325211555 L5.016454208473665 -24.46514675170116 L-26.131203819188165 17.159058815750456"/>

		<text style="fill:black;font-family:calibri;font-size:6" x="-14.915317809967554" y="-10.318107477436449" >[5,5]</text>
		<path opacity="0.75" fill="darkturquoise" d="M-26.131203819188165 12.828931796828257 L-23.631203819188165 14.993995306289357 L-23.631203819188165 19.324122325211555 L-26.131203819188165 17.159058815750456 L-26.131203819188165 12.828931796828257" stroke-linecap="square"/>
		<path opacity="0.75" fill="darkturquoise" d="M-81.55682966139223 28.828931796828257 L-79.05682966139223 30.993995306289357 L-79.05682966139223 35.324122325211555 L-81.55682966139223 33.159058815750456 L-81.55682966139223 28.828931796828257" stroke-linecap="square"/>
		<path opacity="0.75" fill="darkturquoise" d="M-26.131203819188165 12.828931796828257 L-81.55682966139223 28.828931796828257 L-81.55682966139223 33.159058815750456 L-26.131203819188165 17.159058815750456 L-26.131203819188165 12.828931796828257" stroke-linecap="square"/>
		<path opacity="0.75" fill="darkturquoise" d="M-23.631203819188165 14.993995306289357 L-79.05682966139223 30.993995306289357 L-79.05682966139223 35.324122325211555 L-23.631203819188165 19.324122325211555 L-23.631203819188165 14.993995306289357" stroke-linecap="square"/>
		<path opacity="0.75" fill="darkturquoise" d="M-26.131203819188165 12.828931796828257 L-23.631203819188165 14.993995306289357 L-79.05682966139223 30.993995306289357 L-81.55682966139223 28.828931796828257 L-26.131203819188165 12.828931796828257" stroke-linecap="square"/>
		<path opacity="0.75" fill="darkturquoise" d="M-26.131203819188165 17.159058815750456 L-23.631203819188165 19.324122325211555 L-79.05682966139223 35.324122325211555 L-81.55682966139223 33.159058815750456 L-26.131203819188165 17.159058815750456" stroke-linecap="square"/>
		<path opacity="0.5" fill="orange" d="M-50.908965343808674 -40.61473670974872 L-14.908965343808664 -9.437822173508934 L-14.908965343808664 52.91600689897065 L-50.908965343808674 21.739092362730872 L-50.908965343808674 -40.61473670974872" stroke-linecap="square"/>
		<path opacity="0.5" fill="orange" d="M-106.33459118601273 -24.61473670974872 L-70.33459118601273 6.562177826491066 L-70.33459118601273 68.91600689897065 L-106.33459118601273 37.73909236273087 L-106.33459118601273 -24.61473670974872" stroke-linecap="square"/>
		<path opacity="0.5" fill="orange" d="M-50.908965343808674 -40.61473670974872 L-106.33459118601273 -24.61473670974872 L-106.33459118601273 37.73909236273087 L-50.908965343808674 21.739092362730872 L-50.908965343808674 -40.61473670974872" stroke-linecap="square"/>
		<path opacity="0.5" fill="orange" d="M-14.908965343808664 -9.437822173508934 L-70.33459118601273 6.562177826491066 L-70.33459118601273 68.91600689897065 L-14.908965343808664 52.91600689897065 L-14.908965343808664 -9.437822173508934" stroke-linecap="square"/>
		<path opacity="0.5" fill="orange" d="M-50.908965343808674 -40.61473670974872 L-14.908965343808664 -9.437822173508934 L-70.33459118601273 6.562177826491066 L-106.33459118601273 -24.61473670974872 L-50.908965343808674 -40.61473670974872" stroke-linecap="square"/>
		<path opacity="0.5" fill="orange" d="M-50.908965343808674 21.739092362730872 L-14.908965343808664 52.91600689897065 L-70.33459118601273 68.91600689897065 L-106.33459118601273 37.73909236273087 L-50.908965343808674 21.739092362730872" stroke-linecap="square"/>
		<text style="fill:black;font-family:calibri;font-size:6" x="-106.33459118601273" y="6.562177826491077" >72</text>
		<text style="fill:black;font-family:calibri;font-size:6" x="-88.33459118601273" y="53.32754963085076" >72</text>
		<text style="fill:black;font-family:calibri;font-size:6" x="-78.6217782649107" y="-32.61473670974872" >64</text>

<!-- Arrow -->
		<path opacity="0.5" stroke="black" d="M-152.4204710660612 -33.82754963085076 L153.28649646984564 -106.48909236273087" stroke-linecap="square"/>
		<circle opacity="0.5" cx="153.28649646984564" cy="-106.48909236273087" r="1" fill="black" />
<!-- Arrow -->
		<path opacity="0.5" stroke="black" d="M-60.6217782649107 -70.32754963085077 L41.569219381653056 -84.23909236273087" stroke-linecap="square"/>
		<circle opacity="0.5" cx="41.569219381653056" cy="-84.23909236273087" r="1" fill="black" />
<!-- Arrow -->
		<path opacity="0.5" stroke="black" d="M-60.6217782649107 -17.026279441628827 L-60.6217782649107 -70.32754963085077" stroke-linecap="square"/>
		<circle opacity="0.5" cx="-60.6217782649107" cy="-70.32754963085077" r="1" fill="black" />
		<path opacity="0.75" fill="pink" d="M-118.90970280448686 45.28524804659732 L-116.40970280448686 47.45031155605841 L-87.46222076615138 9.729961389519843 L-118.90970280448686 45.28524804659732"/>
		<path opacity="0.75" fill="pink" d="M-118.90970280448686 45.28524804659732 L-118.90970280448686 49.615375065519515 L-87.46222076615138 9.729961389519843 L-118.90970280448686 45.28524804659732"/>
		<path opacity="0.75" fill="pink" d="M-116.40970280448686 47.45031155605841 L-116.40970280448686 51.78043857498061 L-87.46222076615138 9.729961389519843 L-116.40970280448686 47.45031155605841"/>
		<path opacity="0.75" fill="pink" d="M-118.90970280448686 49.615375065519515 L-116.40970280448686 51.78043857498061 L-87.46222076615138 9.729961389519843 L-118.90970280448686 49.615375065519515"/>

		<text style="fill:black;font-family:calibri;font-size:6" x="-107.59387545837502" y="23.00760471805858" >[5,5]</text>
		<path opacity="0.75" fill="darkturquoise" d="M-118.90970280448686 45.28524804659732 L-116.40970280448686 47.45031155605841 L-116.40970280448686 51.78043857498061 L-118.90970280448686 49.615375065519515 L-118.90970280448686 45.28524804659732" stroke-linecap="square"/>
		<path opacity="0.75" fill="darkturquoise" d="M-160.47892218613993 57.28524804659732 L-157.97892218613993 59.45031155605841 L-157.97892218613993 63.78043857498061 L-160.47892218613993 61.615375065519515 L-160.47892218613993 57.28524804659732" stroke-linecap="square"/>
		<path opacity="0.75" fill="darkturquoise" d="M-118.90970280448686 45.28524804659732 L-160.47892218613993 57.28524804659732 L-160.47892218613993 61.615375065519515 L-118.90970280448686 49.615375065519515 L-118.90970280448686 45.28524804659732" stroke-linecap="square"/>
		<path opacity="0.75" fill="darkturquoise" d="M-116.40970280448686 47.45031155605841 L-157.97892218613993 59.45031155605841 L-157.97892218613993 63.78043857498061 L-116.40970280448686 51.78043857498061 L-116.40970280448686 47.45031155605841" stroke-linecap="square"/>
		<path opacity="0.75" fill="darkturquoise" d="M-118.90970280448686 45.28524804659732 L-116.40970280448686 47.45031155605841 L-157.97892218613993 59.45031155605841 L-160.47892218613993 57.28524804659732 L-118.90970280448686 45.28524804659732" stroke-linecap="square"/>
		<path opacity="0.75" fill="darkturquoise" d="M-118.90970280448686 49.615375065519515 L-116.40970280448686 51.78043857498061 L-157.97892218613993 63.78043857498061 L-160.47892218613993 61.615375065519515 L-118.90970280448686 49.615375065519515" stroke-linecap="square"/>
		<path opacity="0.5" fill="orange" d="M-149.63586137523467 -12.114736709748719 L-113.63586137523467 19.062177826491066 L-113.63586137523467 81.41600689897065 L-149.63586137523467 50.23909236273087 L-149.63586137523467 -12.114736709748719" stroke-linecap="square"/>
		<path opacity="0.5" fill="orange" d="M-191.20508075688772 -0.11473670974871908 L-155.20508075688772 31.062177826491066 L-155.20508075688772 93.41600689897065 L-191.20508075688772 62.23909236273087 L-191.20508075688772 -0.11473670974871908" stroke-linecap="square"/>
		<path opacity="0.5" fill="orange" d="M-149.63586137523467 -12.114736709748719 L-191.20508075688772 -0.11473670974871908 L-191.20508075688772 62.23909236273087 L-149.63586137523467 50.23909236273087 L-149.63586137523467 -12.114736709748719" stroke-linecap="square"/>
		<path opacity="0.5" fill="orange" d="M-113.63586137523467 19.062177826491066 L-155.20508075688772 31.062177826491066 L-155.20508075688772 93.41600689897065 L-113.63586137523467 81.41600689897065 L-113.63586137523467 19.062177826491066" stroke-linecap="square"/>
		<path opacity="0.5" fill="orange" d="M-149.63586137523467 -12.114736709748719 L-113.63586137523467 19.062177826491066 L-155.20508075688772 31.062177826491066 L-191.20508075688772 -0.11473670974871908 L-149.63586137523467 -12.114736709748719" stroke-linecap="square"/>
		<path opacity="0.5" fill="orange" d="M-149.63586137523467 50.23909236273087 L-113.63586137523467 81.41600689897065 L-155.20508075688772 93.41600689897065 L-191.20508075688772 62.23909236273087 L-149.63586137523467 50.23909236273087" stroke-linecap="square"/>
		<text style="fill:black;font-family:calibri;font-size:6" x="-191.20508075688772" y="31.062177826491077" >72</text>
		<text style="fill:black;font-family:calibri;font-size:6" x="-173.20508075688772" y="77.82754963085077" >72</text>
		<text style="fill:black;font-family:calibri;font-size:6" x="-170.4204710660612" y="-6.114736709748719" >48</text>

<!-- Arrow -->
		<path opacity="0.5" stroke="black" d="M-152.4204710660612 9.47372055837117 L-152.4204710660612 -33.82754963085076" stroke-linecap="square"/>
		<circle opacity="0.5" cx="-152.4204710660612" cy="-33.82754963085076" r="1" fill="black" />
		<path opacity="0.75" fill="pink" d="M-214.43575808853308 46.397182853338535 L-209.43575808853308 50.72730987226073 L-190.22325390741915 15.833410080393364 L-214.43575808853308 46.397182853338535"/>
		<path opacity="0.75" fill="pink" d="M-214.43575808853308 46.397182853338535 L-214.43575808853308 55.05743689118293 L-190.22325390741915 15.833410080393364 L-214.43575808853308 46.397182853338535"/>
		<path opacity="0.75" fill="pink" d="M-209.43575808853308 50.72730987226073 L-209.43575808853308 59.387563910105115 L-190.22325390741915 15.833410080393364 L-209.43575808853308 50.72730987226073"/>
		<path opacity="0.75" fill="pink" d="M-214.43575808853308 55.05743689118293 L-209.43575808853308 59.387563910105115 L-190.22325390741915 15.833410080393364 L-214.43575808853308 55.05743689118293"/>

		<text style="fill:black;font-family:calibri;font-size:6" x="-204.69825669482842" y="26.61529646686595" >[10,10]</text>
		<path opacity="0.75" fill="darkturquoise" d="M-214.43575808853308 46.397182853338535 L-209.43575808853308 50.72730987226073 L-209.43575808853308 59.387563910105115 L-214.43575808853308 55.05743689118293 L-214.43575808853308 46.397182853338535" stroke-linecap="square"/>
		<path opacity="0.75" fill="darkturquoise" d="M-240.41652020206624 53.897182853338535 L-235.41652020206624 58.22730987226073 L-235.41652020206624 66.88756391010511 L-240.41652020206624 62.55743689118293 L-240.41652020206624 53.897182853338535" stroke-linecap="square"/>
		<path opacity="0.75" fill="darkturquoise" d="M-214.43575808853308 46.397182853338535 L-240.41652020206624 53.897182853338535 L-240.41652020206624 62.55743689118293 L-214.43575808853308 55.05743689118293 L-214.43575808853308 46.397182853338535" stroke-linecap="square"/>
		<path opacity="0.75" fill="darkturquoise" d="M-209.43575808853308 50.72730987226073 L-235.41652020206624 58.22730987226073 L-235.41652020206624 66.88756391010511 L-209.43575808853308 59.387563910105115 L-209.43575808853308 50.72730987226073" stroke-linecap="square"/>
		<path opacity="0.75" fill="darkturquoise" d="M-214.43575808853308 46.397182853338535 L-209.43575808853308 50.72730987226073 L-235.41652020206624 58.22730987226073 L-240.41652020206624 53.897182853338535 L-214.43575808853308 46.397182853338535" stroke-linecap="square"/>
		<path opacity="0.75" fill="darkturquoise" d="M-214.43575808853308 55.05743689118293 L-209.43575808853308 59.387563910105115 L-235.41652020206624 66.88756391010511 L-240.41652020206624 62.55743689118293 L-214.43575808853308 55.05743689118293" stroke-linecap="square"/>
		<path opacity="0.5" fill="lavender" d="M-234.50635094610965 12.385263290251281 L-198.50635094610965 43.562177826491066 L-198.50635094610965 105.91600689897064 L-234.50635094610965 74.73909236273087 L-234.50635094610965 12.385263290251281" stroke-linecap="square"/>
		<path opacity="0.5" fill="lavender" d="M-260.4871130596428 19.88526329025128 L-224.4871130596428 51.062177826491066 L-224.4871130596428 113.41600689897064 L-260.4871130596428 82.23909236273087 L-260.4871130596428 19.88526329025128" stroke-linecap="square"/>
		<path opacity="0.5" fill="lavender" d="M-234.50635094610965 12.385263290251281 L-260.4871130596428 19.88526329025128 L-260.4871130596428 82.23909236273087 L-234.50635094610965 74.73909236273087 L-234.50635094610965 12.385263290251281" stroke-linecap="square"/>
		<path opacity="0.5" fill="lavender" d="M-198.50635094610965 43.562177826491066 L-224.4871130596428 51.062177826491066 L-224.4871130596428 113.41600689897064 L-198.50635094610965 105.91600689897064 L-198.50635094610965 43.562177826491066" stroke-linecap="square"/>
		<path opacity="0.5" fill="lavender" d="M-234.50635094610965 12.385263290251281 L-198.50635094610965 43.562177826491066 L-224.4871130596428 51.062177826491066 L-260.4871130596428 19.88526329025128 L-234.50635094610965 12.385263290251281" stroke-linecap="square"/>
		<path opacity="0.5" fill="lavender" d="M-234.50635094610965 74.73909236273087 L-198.50635094610965 105.91600689897064 L-224.4871130596428 113.41600689897064 L-260.4871130596428 82.23909236273087 L-234.50635094610965 74.73909236273087" stroke-linecap="square"/>
		<text style="fill:black;font-family:calibri;font-size:6" x="-260.4871130596428" y="51.06217782649108" >72</text>
		<text style="fill:black;font-family:calibri;font-size:6" x="-242.4871130596428" y="97.82754963085075" >72</text>
		<text style="fill:black;font-family:calibri;font-size:6" x="-247.49673200287623" y="16.13526329025128" >30</text>

	 </g>
</svg>