<svg width="100%" height="100%" viewBox="-300.352447854375 -239.06904672938998 1021.95489570875 493.31964481437336" xmlns="http://www.w3.org/2000/svg">
	<g stroke="black" stroke-width="0.3">

		<path opacity="0.5" fill="orange" d="M476.96787517317597 -139.30607966083863 L488.96787517317597 -128.91377481542537 L488.96787517317597 -108.12916512459884 L476.96787517317597 -118.5214699700121 L476.96787517317597 -139.30607966083863" stroke-linecap="square"/>
		<path opacity="0.5" fill="orange" d="M421.54224933097186 -123.30607966083863 L433.5422493309719 -112.91377481542537 L433.5422493309719 -92.12916512459884 L421.54224933097186 -102.5214699700121 L421.54224933097186 -123.30607966083863" stroke-linecap="square"/>
		<path opacity="0.5" fill="orange" d="M476.96787517317597 -139.30607966083863 L421.54224933097186 -123.30607966083863 L421.54224933097186 -102.5214699700121 L476.96787517317597 -118.5214699700121 L476.96787517317597 -139.30607966083863" stroke-linecap="square"/>
		<path opacity="0.5" fill="orange" d="M488.96787517317597 -128.91377481542537 L433.5422493309719 -112.91377481542537 L433.5422493309719 -92.12916512459884 L488.96787517317597 -108.12916512459884 L488.96787517317597 -128.91377481542537" stroke-linecap="square"/>
		<path opacity="0.5" fill="orange" d="M476.96787517317597 -139.30607966083863 L488.96787517317597 -128.91377481542537 L433.5422493309719 -112.91377481542537 L421.54224933097186 -123.30607966083863 L476.96787517317597 -139.30607966083863" stroke-linecap="square"/>
		<path opacity="0.5" fill="orange" d="M476.96787517317597 -118.5214699700121 L488.96787517317597 -108.12916512459884 L433.5422493309719 -92.12916512459884 L421.54224933097186 -102.5214699700121 L476.96787517317597 -118.5214699700121" stroke-linecap="square"/>
		<text style="fill:black;font-family:calibri;font-size:6" x="421.54224933097186" y="-112.91377481542537" >24</text>
		<text style="fill:black;font-family:calibri;font-size:6" x="427.5422493309719" y="-97.32531754730547" >24</text>
		<text style="fill:black;font-family:calibri;font-size:6" x="449.2550622520739" y="-131.30607966083863" >64</text>

		<path opacity="0.75" fill="pink" d="M379.27708475072546 -95.85249848459964 L381.77708475072546 -93.68743497513854 L423.8552474128277 -101.8071746998806 L379.27708475072546 -95.85249848459964"/>
		<path opacity="0.75" fill="pink" d="M379.27708475072546 -95.85249848459964 L379.27708475072546 -91.52237146567744 L423.8552474128277 -101.8071746998806 L379.27708475072546 -95.85249848459964"/>
		<path opacity="0.75" fill="pink" d="M381.77708475072546 -93.68743497513854 L381.77708475072546 -89.35730795621635 L423.8552474128277 -101.8071746998806 L381.77708475072546 -93.68743497513854"/>
		<path opacity="0.75" fill="pink" d="M379.27708475072546 -91.52237146567744 L381.77708475072546 -89.35730795621635 L423.8552474128277 -101.8071746998806 L379.27708475072546 -91.52237146567744"/>

		<text style="fill:black;font-family:calibri;font-size:6" x="394.96980563809285" y="-103.32983659224013" >[5,5]</text>
<!-- Arrow -->
		<path opacity="0.5" stroke="black" d="M482.96787517317597 -123.71762239271874 L600.5191453623979 -71.91523616172418" stroke-linecap="square"/>
		<circle opacity="0.5" cx="600.5191453623979" cy="-71.91523616172418" r="1" fill="black" />
		<path opacity="0.75" fill="darkturquoise" d="M710.602447854375 -193.18284004962914 L715.602447854375 -188.85271303070695 L715.602447854375 -15.647632273819227 L710.602447854375 -19.97775929274141 L710.602447854375 -193.18284004962914" stroke-linecap="square"/>
		<path opacity="0.75" fill="darkturquoise" d="M701.9421938165306 -190.68284004962914 L706.9421938165306 -186.35271303070695 L706.9421938165306 -13.147632273819227 L701.9421938165306 -17.47775929274141 L701.9421938165306 -190.68284004962914" stroke-linecap="square"/>
		<path opacity="0.75" fill="darkturquoise" d="M710.602447854375 -193.18284004962914 L701.9421938165306 -190.68284004962914 L701.9421938165306 -17.47775929274141 L710.602447854375 -19.97775929274141 L710.602447854375 -193.18284004962914" stroke-linecap="square"/>
		<path opacity="0.75" fill="darkturquoise" d="M715.602447854375 -188.85271303070695 L706.9421938165306 -186.35271303070695 L706.9421938165306 -13.147632273819227 L715.602447854375 -15.647632273819227 L715.602447854375 -188.85271303070695" stroke-linecap="square"/>
		<path opacity="0.75" fill="darkturquoise" d="M710.602447854375 -193.18284004962914 L715.602447854375 -188.85271303070695 L706.9421938165306 -186.35271303070695 L701.9421938165306 -190.68284004962914 L710.602447854375 -193.18284004962914" stroke-linecap="square"/>
		<path opacity="0.75" fill="darkturquoise" d="M710.602447854375 -19.97775929274141 L715.602447854375 -15.647632273819227 L706.9421938165306 -13.147632273819227 L701.9421938165306 -17.47775929274141 L710.602447854375 -19.97775929274141" stroke-linecap="square"/>
		<text style="fill:black;font-family:calibri;font-size:6" x="701.9421938165306" y="-104.08029967118527" >200</text>
		<text style="fill:black;font-family:calibri;font-size:6" x="704.4421938165306" y="-15.312695783280319" >10</text>
		<text style="fill:black;font-family:calibri;font-size:6" x="706.2723208354528" y="-191.93284004962914" >10</text>

<!-- Arrow -->
		<path opacity="0.5" stroke="black" d="M661.1409236273087 -89.41523616172418 L704.4421938165306 -101.91523616172418" stroke-linecap="square"/>
		<circle opacity="0.5" cx="704.4421938165306" cy="-101.91523616172418" r="1" fill="black" />
		<path opacity="0.5" fill="orange" d="M176.58845726811987 -103.9781847254617 L184.5884572681199 -97.04998149518619 L184.5884572681199 -83.19357503463517 L176.58845726811987 -90.12177826491069 L176.58845726811987 -103.9781847254617" stroke-linecap="square"/>
		<path opacity="0.5" fill="orange" d="M121.16283142591578 -87.9781847254617 L129.1628314259158 -81.04998149518619 L129.1628314259158 -67.19357503463517 L121.16283142591578 -74.12177826491069 L121.16283142591578 -87.9781847254617" stroke-linecap="square"/>
		<path opacity="0.5" fill="orange" d="M176.58845726811987 -103.9781847254617 L121.16283142591578 -87.9781847254617 L121.16283142591578 -74.12177826491069 L176.58845726811987 -90.12177826491069 L176.58845726811987 -103.9781847254617" stroke-linecap="square"/>
		<path opacity="0.5" fill="orange" d="M184.5884572681199 -97.04998149518619 L129.1628314259158 -81.04998149518619 L129.1628314259158 -67.19357503463517 L184.5884572681199 -83.19357503463517 L184.5884572681199 -97.04998149518619" stroke-linecap="square"/>
		<path opacity="0.5" fill="orange" d="M176.58845726811987 -103.9781847254617 L184.5884572681199 -97.04998149518619 L129.1628314259158 -81.04998149518619 L121.16283142591578 -87.9781847254617 L176.58845726811987 -103.9781847254617" stroke-linecap="square"/>
		<path opacity="0.5" fill="orange" d="M176.58845726811987 -90.12177826491069 L184.5884572681199 -83.19357503463517 L129.1628314259158 -67.19357503463517 L121.16283142591578 -74.12177826491069 L176.58845726811987 -90.12177826491069" stroke-linecap="square"/>
		<text style="fill:black;font-family:calibri;font-size:6" x="121.16283142591578" y="-81.04998149518619" >16</text>
		<text style="fill:black;font-family:calibri;font-size:6" x="125.1628314259158" y="-70.65767664977292" >16</text>
		<text style="fill:black;font-family:calibri;font-size:6" x="148.87564434701784" y="-95.9781847254617" >64</text>

		<path opacity="0.75" fill="darkturquoise" d="M658.6409236273087 -178.18284004962914 L663.6409236273087 -173.85271303070695 L663.6409236273087 -0.6476322738192266 L658.6409236273087 -4.9777592927414105 L658.6409236273087 -178.18284004962914" stroke-linecap="square"/>
		<path opacity="0.75" fill="darkturquoise" d="M649.9806695894642 -175.68284004962914 L654.9806695894642 -171.35271303070695 L654.9806695894642 1.8523677261807734 L649.9806695894642 -2.4777592927414105 L649.9806695894642 -175.68284004962914" stroke-linecap="square"/>
		<path opacity="0.75" fill="darkturquoise" d="M658.6409236273087 -178.18284004962914 L649.9806695894642 -175.68284004962914 L649.9806695894642 -2.4777592927414105 L658.6409236273087 -4.9777592927414105 L658.6409236273087 -178.18284004962914" stroke-linecap="square"/>
		<path opacity="0.75" fill="darkturquoise" d="M663.6409236273087 -173.85271303070695 L654.9806695894642 -171.35271303070695 L654.9806695894642 1.8523677261807734 L663.6409236273087 -0.6476322738192266 L663.6409236273087 -173.85271303070695" stroke-linecap="square"/>
		<path opacity="0.75" fill="darkturquoise" d="M658.6409236273087 -178.18284004962914 L663.6409236273087 -173.85271303070695 L654.9806695894642 -171.35271303070695 L649.9806695894642 -175.68284004962914 L658.6409236273087 -178.18284004962914" stroke-linecap="square"/>
		<path opacity="0.75" fill="darkturquoise" d="M658.6409236273087 -4.9777592927414105 L663.6409236273087 -0.6476322738192266 L654.9806695894642 1.8523677261807734 L649.9806695894642 -2.4777592927414105 L658.6409236273087 -4.9777592927414105" stroke-linecap="square"/>
		<text style="fill:black;font-family:calibri;font-size:6" x="649.9806695894642" y="-89.08029967118527" >200</text>
		<text style="fill:black;font-family:calibri;font-size:6" x="652.4806695894642" y="-0.31269578328031855" >10</text>
		<text style="fill:black;font-family:calibri;font-size:6" x="654.3107966083865" y="-176.93284004962914" >10</text>

<!-- Arrow -->
		<path opacity="0.5" stroke="black" d="M609.1793994002423 -74.41523616172418 L652.4806695894642 -86.91523616172418" stroke-linecap="square"/>
		<circle opacity="0.5" cx="652.4806695894642" cy="-86.91523616172418" r="1" fill="black" />
<!-- Arrow -->
		<path opacity="0.5" stroke="black" d="M180.5884572681199 -93.58587988004844 L273.3897274573418 -63.21762239271874" stroke-linecap="square"/>
		<circle opacity="0.5" cx="273.3897274573418" cy="-63.21762239271874" r="1" fill="black" />
		<path opacity="0.75" fill="darkturquoise" d="M379.27708475072546 -95.85249848459964 L381.77708475072546 -93.68743497513854 L381.77708475072546 -89.35730795621635 L379.27708475072546 -91.52237146567744 L379.27708475072546 -95.85249848459964" stroke-linecap="square"/>
		<path opacity="0.75" fill="darkturquoise" d="M268.4258330663173 -63.852498484599636 L270.9258330663173 -61.687434975138544 L270.9258330663173 -57.357307956216346 L268.4258330663173 -59.52237146567744 L268.4258330663173 -63.852498484599636" stroke-linecap="square"/>
		<path opacity="0.75" fill="darkturquoise" d="M379.27708475072546 -95.85249848459964 L268.4258330663173 -63.852498484599636 L268.4258330663173 -59.52237146567744 L379.27708475072546 -91.52237146567744 L379.27708475072546 -95.85249848459964" stroke-linecap="square"/>
		<path opacity="0.75" fill="darkturquoise" d="M381.77708475072546 -93.68743497513854 L270.9258330663173 -61.687434975138544 L270.9258330663173 -57.357307956216346 L381.77708475072546 -89.35730795621635 L381.77708475072546 -93.68743497513854" stroke-linecap="square"/>
		<path opacity="0.75" fill="darkturquoise" d="M379.27708475072546 -95.85249848459964 L381.77708475072546 -93.68743497513854 L270.9258330663173 -61.687434975138544 L268.4258330663173 -63.852498484599636 L379.27708475072546 -95.85249848459964" stroke-linecap="square"/>
		<path opacity="0.75" fill="darkturquoise" d="M379.27708475072546 -91.52237146567744 L381.77708475072546 -89.35730795621635 L270.9258330663173 -57.357307956216346 L268.4258330663173 -59.52237146567744 L379.27708475072546 -91.52237146567744" stroke-linecap="square"/>
		<path opacity="0.5" fill="orange" d="M378.24097914174996 -110.80607966083863 L390.24097914174996 -100.41377481542537 L390.24097914174996 -79.62916512459884 L378.24097914174996 -90.0214699700121 L378.24097914174996 -110.80607966083863" stroke-linecap="square"/>
		<path opacity="0.5" fill="orange" d="M267.3897274573418 -78.80607966083863 L279.3897274573418 -68.41377481542537 L279.3897274573418 -47.62916512459884 L267.3897274573418 -58.021469970012106 L267.3897274573418 -78.80607966083863" stroke-linecap="square"/>
		<path opacity="0.5" fill="orange" d="M378.24097914174996 -110.80607966083863 L267.3897274573418 -78.80607966083863 L267.3897274573418 -58.021469970012106 L378.24097914174996 -90.0214699700121 L378.24097914174996 -110.80607966083863" stroke-linecap="square"/>
		<path opacity="0.5" fill="orange" d="M390.24097914174996 -100.41377481542537 L279.3897274573418 -68.41377481542537 L279.3897274573418 -47.62916512459884 L390.24097914174996 -79.62916512459884 L390.24097914174996 -100.41377481542537" stroke-linecap="square"/>
		<path opacity="0.5" fill="orange" d="M378.24097914174996 -110.80607966083863 L390.24097914174996 -100.41377481542537 L279.3897274573418 -68.41377481542537 L267.3897274573418 -78.80607966083863 L378.24097914174996 -110.80607966083863" stroke-linecap="square"/>
		<path opacity="0.5" fill="orange" d="M378.24097914174996 -90.0214699700121 L390.24097914174996 -79.62916512459884 L279.3897274573418 -47.62916512459884 L267.3897274573418 -58.021469970012106 L378.24097914174996 -90.0214699700121" stroke-linecap="square"/>
		<text style="fill:black;font-family:calibri;font-size:6" x="267.3897274573418" y="-68.41377481542537" >24</text>
		<text style="fill:black;font-family:calibri;font-size:6" x="273.3897274573418" y="-52.825317547305474" >24</text>
		<text style="fill:black;font-family:calibri;font-size:6" x="322.8153532995459" y="-94.80607966083863" >128</text>

<!-- Arrow -->
		<path opacity="0.5" stroke="black" d="M328.8153532995459 -89.609927238132 L328.8153532995459 -132.91119742735395" stroke-linecap="square"/>
		<circle opacity="0.5" cx="328.8153532995459" cy="-132.91119742735395" r="1" fill="black" />
		<path opacity="0.75" fill="darkturquoise" d="M606.6793994002423 -163.18284004962914 L611.6793994002423 -158.85271303070695 L611.6793994002423 14.352367726180773 L606.6793994002423 10.02224070725859 L606.6793994002423 -163.18284004962914" stroke-linecap="square"/>
		<path opacity="0.75" fill="darkturquoise" d="M598.0191453623979 -160.68284004962914 L603.0191453623979 -156.35271303070695 L603.0191453623979 16.852367726180773 L598.0191453623979 12.52224070725859 L598.0191453623979 -160.68284004962914" stroke-linecap="square"/>
		<path opacity="0.75" fill="darkturquoise" d="M606.6793994002423 -163.18284004962914 L598.0191453623979 -160.68284004962914 L598.0191453623979 12.52224070725859 L606.6793994002423 10.02224070725859 L606.6793994002423 -163.18284004962914" stroke-linecap="square"/>
		<path opacity="0.75" fill="darkturquoise" d="M611.6793994002423 -158.85271303070695 L603.0191453623979 -156.35271303070695 L603.0191453623979 16.852367726180773 L611.6793994002423 14.352367726180773 L611.6793994002423 -158.85271303070695" stroke-linecap="square"/>
		<path opacity="0.75" fill="darkturquoise" d="M606.6793994002423 -163.18284004962914 L611.6793994002423 -158.85271303070695 L603.0191453623979 -156.35271303070695 L598.0191453623979 -160.68284004962914 L606.6793994002423 -163.18284004962914" stroke-linecap="square"/>
		<path opacity="0.75" fill="darkturquoise" d="M606.6793994002423 10.02224070725859 L611.6793994002423 14.352367726180773 L603.0191453623979 16.852367726180773 L598.0191453623979 12.52224070725859 L606.6793994002423 10.02224070725859" stroke-linecap="square"/>
		<text style="fill:black;font-family:calibri;font-size:6" x="598.0191453623979" y="-74.08029967118527" >200</text>
		<text style="fill:black;font-family:calibri;font-size:6" x="600.5191453623979" y="14.687304216719681" >10</text>
		<text style="fill:black;font-family:calibri;font-size:6" x="602.3492723813201" y="-161.93284004962914" >10</text>

		<path opacity="0.75" fill="pink" d="M83.78662781902224 -73.5548097414673 L86.28662781902227 -71.38974623200619 L126.44972913268356 -70.47724712306616 L83.78662781902224 -73.5548097414673"/>
		<path opacity="0.75" fill="pink" d="M83.78662781902224 -73.5548097414673 L83.78662781902224 -69.2246827225451 L126.44972913268356 -70.47724712306616 L83.78662781902224 -73.5548097414673"/>
		<path opacity="0.75" fill="pink" d="M86.28662781902227 -71.38974623200619 L86.28662781902227 -67.059619213084 L126.44972913268356 -70.47724712306616 L86.28662781902227 -71.38974623200619"/>
		<path opacity="0.75" fill="pink" d="M83.78662781902224 -69.2246827225451 L86.28662781902227 -67.059619213084 L126.44972913268356 -70.47724712306616 L83.78662781902224 -69.2246827225451"/>

		<text style="fill:black;font-family:calibri;font-size:6" x="98.84099492357602" y="-76.51602843226672" >[5,5]</text>
<!-- Arrow -->
		<path opacity="0.5" stroke="black" d="M26.435935394489803 -106.2435565298214 L328.8153532995459 -132.91119742735395" stroke-linecap="square"/>
		<circle opacity="0.5" cx="328.8153532995459" cy="-132.91119742735395" r="1" fill="black" />
		<path opacity="0.75" fill="darkturquoise" d="M83.78662781902224 -73.5548097414673 L86.28662781902227 -71.38974623200619 L86.28662781902227 -67.059619213084 L83.78662781902224 -69.2246827225451 L83.78662781902224 -73.5548097414673" stroke-linecap="square"/>
		<path opacity="0.75" fill="darkturquoise" d="M-27.064623865385897 -41.554809741467295 L-24.564623865385897 -39.38974623200619 L-24.564623865385897 -35.059619213084005 L-27.064623865385897 -37.2246827225451 L-27.064623865385897 -41.554809741467295" stroke-linecap="square"/>
		<path opacity="0.75" fill="darkturquoise" d="M83.78662781902224 -73.5548097414673 L-27.064623865385897 -41.554809741467295 L-27.064623865385897 -37.2246827225451 L83.78662781902224 -69.2246827225451 L83.78662781902224 -73.5548097414673" stroke-linecap="square"/>
		<path opacity="0.75" fill="darkturquoise" d="M86.28662781902227 -71.38974623200619 L-24.564623865385897 -39.38974623200619 L-24.564623865385897 -35.059619213084005 L86.28662781902227 -67.059619213084 L86.28662781902227 -71.38974623200619" stroke-linecap="square"/>
		<path opacity="0.75" fill="darkturquoise" d="M83.78662781902224 -73.5548097414673 L86.28662781902227 -71.38974623200619 L-24.564623865385897 -39.38974623200619 L-27.064623865385897 -41.554809741467295 L83.78662781902224 -73.5548097414673" stroke-linecap="square"/>
		<path opacity="0.75" fill="darkturquoise" d="M83.78662781902224 -69.2246827225451 L86.28662781902227 -67.059619213084 L-24.564623865385897 -35.059619213084005 L-27.064623865385897 -37.2246827225451 L83.78662781902224 -69.2246827225451" stroke-linecap="square"/>
		<path opacity="0.5" fill="orange" d="M73.86156123669386 -85.87048957087497 L89.86156123669389 -72.01408311032395 L89.86156123669389 -44.30127018922191 L73.86156123669386 -58.157676649772924 L73.86156123669386 -85.87048957087497" stroke-linecap="square"/>
		<path opacity="0.5" fill="orange" d="M-36.98969044771428 -53.870489570874966 L-20.98969044771428 -40.01408311032395 L-20.98969044771428 -12.30127018922191 L-36.98969044771428 -26.157676649772924 L-36.98969044771428 -53.870489570874966" stroke-linecap="square"/>
		<path opacity="0.5" fill="orange" d="M73.86156123669386 -85.87048957087497 L-36.98969044771428 -53.870489570874966 L-36.98969044771428 -26.157676649772924 L73.86156123669386 -58.157676649772924 L73.86156123669386 -85.87048957087497" stroke-linecap="square"/>
		<path opacity="0.5" fill="orange" d="M89.86156123669389 -72.01408311032395 L-20.98969044771428 -40.01408311032395 L-20.98969044771428 -12.30127018922191 L89.86156123669389 -44.30127018922191 L89.86156123669389 -72.01408311032395" stroke-linecap="square"/>
		<path opacity="0.5" fill="orange" d="M73.86156123669386 -85.87048957087497 L89.86156123669389 -72.01408311032395 L-20.98969044771428 -40.01408311032395 L-36.98969044771428 -53.870489570874966 L73.86156123669386 -85.87048957087497" stroke-linecap="square"/>
		<path opacity="0.5" fill="orange" d="M73.86156123669386 -58.157676649772924 L89.86156123669389 -44.30127018922191 L-20.98969044771428 -12.30127018922191 L-36.98969044771428 -26.157676649772924 L73.86156123669386 -58.157676649772924" stroke-linecap="square"/>
		<text style="fill:black;font-family:calibri;font-size:6" x="-36.98969044771428" y="-40.014083110323945" >32</text>
		<text style="fill:black;font-family:calibri;font-size:6" x="-28.98969044771428" y="-19.229473419497417" >32</text>
		<text style="fill:black;font-family:calibri;font-size:6" x="18.43593539448979" y="-69.87048957087497" >128</text>

<!-- Arrow -->
		<path opacity="0.5" stroke="black" d="M-105.29096063693623 -49.164718204934914 L-28.98969044771428 -33.08587988004844" stroke-linecap="square"/>
		<circle opacity="0.5" cx="-28.98969044771428" cy="-33.08587988004844" r="1" fill="black" />
		<path opacity="0.5" fill="orange" d="M-109.29096063693623 -59.55702305034818 L-101.29096063693623 -52.628819820072664 L-101.29096063693623 -38.77241335952165 L-109.29096063693623 -45.700616589797164 L-109.29096063693623 -59.55702305034818" stroke-linecap="square"/>
		<path opacity="0.5" fill="orange" d="M-164.71658647914023 -43.55702305034818 L-156.71658647914023 -36.628819820072664 L-156.71658647914023 -22.77241335952165 L-164.71658647914023 -29.700616589797164 L-164.71658647914023 -43.55702305034818" stroke-linecap="square"/>
		<path opacity="0.5" fill="orange" d="M-109.29096063693623 -59.55702305034818 L-164.71658647914023 -43.55702305034818 L-164.71658647914023 -29.700616589797164 L-109.29096063693623 -45.700616589797164 L-109.29096063693623 -59.55702305034818" stroke-linecap="square"/>
		<path opacity="0.5" fill="orange" d="M-101.29096063693623 -52.628819820072664 L-156.71658647914023 -36.628819820072664 L-156.71658647914023 -22.77241335952165 L-101.29096063693623 -38.77241335952165 L-101.29096063693623 -52.628819820072664" stroke-linecap="square"/>
		<path opacity="0.5" fill="orange" d="M-109.29096063693623 -59.55702305034818 L-101.29096063693623 -52.628819820072664 L-156.71658647914023 -36.628819820072664 L-164.71658647914023 -43.55702305034818 L-109.29096063693623 -59.55702305034818" stroke-linecap="square"/>
		<path opacity="0.5" fill="orange" d="M-109.29096063693623 -45.700616589797164 L-101.29096063693623 -38.77241335952165 L-156.71658647914023 -22.77241335952165 L-164.71658647914023 -29.700616589797164 L-109.29096063693623 -45.700616589797164" stroke-linecap="square"/>
		<text style="fill:black;font-family:calibri;font-size:6" x="-164.71658647914023" y="-36.62881982007267" >16</text>
		<text style="fill:black;font-family:calibri;font-size:6" x="-160.71658647914023" y="-26.236514974659407" >16</text>
		<text style="fill:black;font-family:calibri;font-size:6" x="-137.00377355803823" y="-51.55702305034818" >64</text>

<!-- Arrow -->
		<path opacity="0.5" stroke="black" d="M26.435935394489803 -62.942286340599466 L26.435935394489803 -106.2435565298214" stroke-linecap="square"/>
		<circle opacity="0.5" cx="26.435935394489803" cy="-106.2435565298214" r="1" fill="black" />
<!-- Arrow -->
		<path opacity="0.5" stroke="black" d="M-39.29096063693618 7.992958444838026 L600.5191453623979 -71.91523616172418" stroke-linecap="square"/>
		<circle opacity="0.5" cx="600.5191453623979" cy="-71.91523616172418" r="1" fill="black" />
<!-- Arrow -->
		<path opacity="0.5" stroke="black" d="M-39.29096063693618 7.992958444838026 L273.3897274573418 -63.21762239271874" stroke-linecap="square"/>
		<circle opacity="0.5" cx="273.3897274573418" cy="-63.21762239271874" r="1" fill="black" />
		<path opacity="0.75" fill="pink" d="M-206.2460422239282 -16.583066858584274 L-203.7460422239282 -14.418003349123182 L-157.49980908839422 -26.093072075365228 L-206.2460422239282 -16.583066858584274"/>
		<path opacity="0.75" fill="pink" d="M-206.2460422239282 -16.583066858584274 L-206.2460422239282 -12.252939839662076 L-157.49980908839422 -26.093072075365228 L-206.2460422239282 -16.583066858584274"/>
		<path opacity="0.75" fill="pink" d="M-203.7460422239282 -14.418003349123182 L-203.7460422239282 -10.087876330200984 L-157.49980908839422 -26.093072075365228 L-203.7460422239282 -14.418003349123182"/>
		<path opacity="0.75" fill="pink" d="M-206.2460422239282 -12.252939839662076 L-203.7460422239282 -10.087876330200984 L-157.49980908839422 -26.093072075365228 L-206.2460422239282 -12.252939839662076"/>

		<text style="fill:black;font-family:calibri;font-size:6" x="-189.16396451208357" y="-25.83806946697475" >[5,5]</text>
<!-- Arrow -->
		<path opacity="0.5" stroke="black" d="M125.43593539448983 36.65063509461097 L600.5191453623979 -71.91523616172418" stroke-linecap="square"/>
		<circle opacity="0.5" cx="600.5191453623979" cy="-71.91523616172418" r="1" fill="black" />
		<path opacity="0.75" fill="darkturquoise" d="M-206.2460422239282 -16.583066858584274 L-203.7460422239282 -14.418003349123182 L-203.7460422239282 -10.087876330200984 L-206.2460422239282 -12.252939839662076 L-206.2460422239282 -16.583066858584274" stroke-linecap="square"/>
		<path opacity="0.75" fill="darkturquoise" d="M-233.9588551450302 -8.583066858584274 L-231.4588551450302 -6.4180033491231825 L-231.4588551450302 -2.0878763302009844 L-233.9588551450302 -4.252939839662076 L-233.9588551450302 -8.583066858584274" stroke-linecap="square"/>
		<path opacity="0.75" fill="darkturquoise" d="M-206.2460422239282 -16.583066858584274 L-233.9588551450302 -8.583066858584274 L-233.9588551450302 -4.252939839662076 L-206.2460422239282 -12.252939839662076 L-206.2460422239282 -16.583066858584274" stroke-linecap="square"/>
		<path opacity="0.75" fill="darkturquoise" d="M-203.7460422239282 -14.418003349123182 L-231.4588551450302 -6.4180033491231825 L-231.4588551450302 -2.0878763302009844 L-203.7460422239282 -10.087876330200984 L-203.7460422239282 -14.418003349123182" stroke-linecap="square"/>
		<path opacity="0.75" fill="darkturquoise" d="M-206.2460422239282 -16.583066858584274 L-203.7460422239282 -14.418003349123182 L-231.4588551450302 -6.4180033491231825 L-233.9588551450302 -8.583066858584274 L-206.2460422239282 -16.583066858584274" stroke-linecap="square"/>
		<path opacity="0.75" fill="darkturquoise" d="M-206.2460422239282 -12.252939839662076 L-203.7460422239282 -10.087876330200984 L-231.4588551450302 -2.0878763302009844 L-233.9588551450302 -4.252939839662076 L-206.2460422239282 -12.252939839662076" stroke-linecap="square"/>
		<path opacity="0.5" fill="orange" d="M-212.01785666836224 -41.44932789576144 L-196.01785666836224 -27.592921435210428 L-196.01785666836224 0.11989148589161402 L-212.01785666836224 -13.7365149746594 L-212.01785666836224 -41.44932789576144" stroke-linecap="square"/>
		<path opacity="0.5" fill="orange" d="M-239.73066958946424 -33.44932789576144 L-223.73066958946424 -19.592921435210428 L-223.73066958946424 8.119891485891614 L-239.73066958946424 -5.7365149746594 L-239.73066958946424 -33.44932789576144" stroke-linecap="square"/>
		<path opacity="0.5" fill="orange" d="M-212.01785666836224 -41.44932789576144 L-239.73066958946424 -33.44932789576144 L-239.73066958946424 -5.7365149746594 L-212.01785666836224 -13.7365149746594 L-212.01785666836224 -41.44932789576144" stroke-linecap="square"/>
		<path opacity="0.5" fill="orange" d="M-196.01785666836224 -27.592921435210428 L-223.73066958946424 -19.592921435210428 L-223.73066958946424 8.119891485891614 L-196.01785666836224 0.11989148589161402 L-196.01785666836224 -27.592921435210428" stroke-linecap="square"/>
		<path opacity="0.5" fill="orange" d="M-212.01785666836224 -41.44932789576144 L-196.01785666836224 -27.592921435210428 L-223.73066958946424 -19.592921435210428 L-239.73066958946424 -33.44932789576144 L-212.01785666836224 -41.44932789576144" stroke-linecap="square"/>
		<path opacity="0.5" fill="orange" d="M-212.01785666836224 -13.7365149746594 L-196.01785666836224 0.11989148589161402 L-223.73066958946424 8.119891485891614 L-239.73066958946424 -5.7365149746594 L-212.01785666836224 -13.7365149746594" stroke-linecap="square"/>
		<text style="fill:black;font-family:calibri;font-size:6" x="-239.73066958946424" y="-19.59292143521042" >32</text>
		<text style="fill:black;font-family:calibri;font-size:6" x="-231.73066958946424" y="1.191688255616107" >32</text>
		<text style="fill:black;font-family:calibri;font-size:6" x="-225.87426312891324" y="-37.44932789576144" >32</text>

<!-- Arrow -->
		<path opacity="0.5" stroke="black" d="M125.43593539448983 36.65063509461097 L273.3897274573418 -63.21762239271874" stroke-linecap="square"/>
		<circle opacity="0.5" cx="273.3897274573418" cy="-63.21762239271874" r="1" fill="black" />
<!-- Arrow -->
		<path opacity="0.5" stroke="black" d="M-39.29096063693618 7.992958444838026 L-28.98969044771428 -33.08587988004844" stroke-linecap="square"/>
		<circle opacity="0.5" cx="-28.98969044771428" cy="-33.08587988004844" r="1" fill="black" />
<!-- Arrow -->
		<path opacity="0.5" stroke="black" d="M477.3153532995459 49.387150069270376 L600.5191453623979 -71.91523616172418" stroke-linecap="square"/>
		<circle opacity="0.5" cx="600.5191453623979" cy="-71.91523616172418" r="1" fill="black" />
		<path opacity="0.75" fill="pink" d="M-278.3189138540896 -4.355720900911393 L-273.3189138540896 -0.025593881989181 L-233.9483399889873 -6.078376058551072 L-278.3189138540896 -4.355720900911393"/>
		<path opacity="0.75" fill="pink" d="M-278.3189138540896 -4.355720900911393 L-278.3189138540896 4.304533136933003 L-233.9483399889873 -6.078376058551072 L-278.3189138540896 -4.355720900911393"/>
		<path opacity="0.75" fill="pink" d="M-273.3189138540896 -0.025593881989181 L-273.3189138540896 8.634660155855201 L-233.9483399889873 -6.078376058551072 L-273.3189138540896 -0.025593881989181"/>
		<path opacity="0.75" fill="pink" d="M-278.3189138540896 4.304533136933003 L-273.3189138540896 8.634660155855201 L-233.9483399889873 -6.078376058551072 L-278.3189138540896 4.304533136933003"/>

		<text style="fill:black;font-family:calibri;font-size:6" x="-261.8620558990555" y="-9.717048479731233" >[10,10]</text>
		<path opacity="0.75" fill="darkturquoise" d="M-278.3189138540896 -4.355720900911393 L-273.3189138540896 -0.025593881989181 L-273.3189138540896 8.634660155855201 L-278.3189138540896 4.304533136933003 L-278.3189138540896 -4.355720900911393" stroke-linecap="square"/>
		<path opacity="0.75" fill="darkturquoise" d="M-295.63942192977834 0.6442790990886067 L-290.63942192977834 4.974406118010819 L-290.63942192977834 13.634660155855201 L-295.63942192977834 9.304533136933003 L-295.63942192977834 0.6442790990886067" stroke-linecap="square"/>
		<path opacity="0.75" fill="darkturquoise" d="M-278.3189138540896 -4.355720900911393 L-295.63942192977834 0.6442790990886067 L-295.63942192977834 9.304533136933003 L-278.3189138540896 4.304533136933003 L-278.3189138540896 -4.355720900911393" stroke-linecap="square"/>
		<path opacity="0.75" fill="darkturquoise" d="M-273.3189138540896 -0.025593881989181 L-290.63942192977834 4.974406118010819 L-290.63942192977834 13.634660155855201 L-273.3189138540896 8.634660155855201 L-273.3189138540896 -0.025593881989181" stroke-linecap="square"/>
		<path opacity="0.75" fill="darkturquoise" d="M-278.3189138540896 -4.355720900911393 L-273.3189138540896 -0.025593881989181 L-290.63942192977834 4.974406118010819 L-295.63942192977834 0.6442790990886067 L-278.3189138540896 -4.355720900911393" stroke-linecap="square"/>
		<path opacity="0.75" fill="darkturquoise" d="M-278.3189138540896 4.304533136933003 L-273.3189138540896 8.634660155855201 L-290.63942192977834 13.634660155855201 L-295.63942192977834 9.304533136933003 L-278.3189138540896 4.304533136933003" stroke-linecap="square"/>
		<path opacity="0.5" fill="lavender" d="M-283.03193977868614 -20.949327895761442 L-267.03193977868614 -7.092921435210428 L-267.03193977868614 20.619891485891614 L-283.03193977868614 6.7634850253406 L-283.03193977868614 -20.949327895761442" stroke-linecap="square"/>
		<path opacity="0.5" fill="lavender" d="M-300.352447854375 -15.949327895761442 L-284.352447854375 -2.092921435210428 L-284.352447854375 25.619891485891614 L-300.352447854375 11.7634850253406 L-300.352447854375 -15.949327895761442" stroke-linecap="square"/>
		<path opacity="0.5" fill="lavender" d="M-283.03193977868614 -20.949327895761442 L-300.352447854375 -15.949327895761442 L-300.352447854375 11.7634850253406 L-283.03193977868614 6.7634850253406 L-283.03193977868614 -20.949327895761442" stroke-linecap="square"/>
		<path opacity="0.5" fill="lavender" d="M-267.03193977868614 -7.092921435210428 L-284.352447854375 -2.092921435210428 L-284.352447854375 25.619891485891614 L-267.03193977868614 20.619891485891614 L-267.03193977868614 -7.092921435210428" stroke-linecap="square"/>
		<path opacity="0.5" fill="lavender" d="M-283.03193977868614 -20.949327895761442 L-267.03193977868614 -7.092921435210428 L-284.352447854375 -2.092921435210428 L-300.352447854375 -15.949327895761442 L-283.03193977868614 -20.949327895761442" stroke-linecap="square"/>
		<path opacity="0.5" fill="lavender" d="M-283.03193977868614 6.7634850253406 L-267.03193977868614 20.619891485891614 L-284.352447854375 25.619891485891614 L-300.352447854375 11.7634850253406 L-283.03193977868614 6.7634850253406" stroke-linecap="square"/>
		<text style="fill:black;font-family:calibri;font-size:6" x="-300.352447854375" y="-2.092921435210421" >32</text>
		<text style="fill:black;font-family:calibri;font-size:6" x="-292.352447854375" y="18.691688255616107" >32</text>
		<text style="fill:black;font-family:calibri;font-size:6" x="-291.69219381653056" y="-18.449327895761442" >20</text>

		<path opacity="0.5" fill="orange" d="M-43.29096063693618 -2.39934640057524 L-35.29096063693618 4.528856829700274 L-35.29096063693618 18.385263290251288 L-43.29096063693618 11.457060059975781 L-43.29096063693618 -2.39934640057524" stroke-linecap="square"/>
		<path opacity="0.5" fill="orange" d="M-98.71658647914023 13.60065359942476 L-90.71658647914023 20.528856829700274 L-90.71658647914023 34.38526329025129 L-98.71658647914023 27.45706005997578 L-98.71658647914023 13.60065359942476" stroke-linecap="square"/>
		<path opacity="0.5" fill="orange" d="M-43.29096063693618 -2.39934640057524 L-98.71658647914023 13.60065359942476 L-98.71658647914023 27.45706005997578 L-43.29096063693618 11.457060059975781 L-43.29096063693618 -2.39934640057524" stroke-linecap="square"/>
		<path opacity="0.5" fill="orange" d="M-35.29096063693618 4.528856829700274 L-90.71658647914023 20.528856829700274 L-90.71658647914023 34.38526329025129 L-35.29096063693618 18.385263290251288 L-35.29096063693618 4.528856829700274" stroke-linecap="square"/>
		<path opacity="0.5" fill="orange" d="M-43.29096063693618 -2.39934640057524 L-35.29096063693618 4.528856829700274 L-90.71658647914023 20.528856829700274 L-98.71658647914023 13.60065359942476 L-43.29096063693618 -2.39934640057524" stroke-linecap="square"/>
		<path opacity="0.5" fill="orange" d="M-43.29096063693618 11.457060059975781 L-35.29096063693618 18.385263290251288 L-90.71658647914023 34.38526329025129 L-98.71658647914023 27.45706005997578 L-43.29096063693618 11.457060059975781" stroke-linecap="square"/>
		<text style="fill:black;font-family:calibri;font-size:6" x="-98.71658647914023" y="20.52885682970027" >16</text>
		<text style="fill:black;font-family:calibri;font-size:6" x="-94.71658647914023" y="30.921161675113535" >16</text>
		<text style="fill:black;font-family:calibri;font-size:6" x="-71.0037735580382" y="5.60065359942476" >64</text>

		<path opacity="0.75" fill="pink" d="M-135.51207689128773 46.056395262459404 L-133.01207689128773 48.221458771920496 L-97.82864059146766 16.297257662219224 L-135.51207689128773 46.056395262459404"/>
		<path opacity="0.75" fill="pink" d="M-135.51207689128773 46.056395262459404 L-135.51207689128773 50.3865222813816 L-97.82864059146766 16.297257662219224 L-135.51207689128773 46.056395262459404"/>
		<path opacity="0.75" fill="pink" d="M-133.01207689128773 48.221458771920496 L-133.01207689128773 52.551585790842694 L-97.82864059146766 16.297257662219224 L-133.01207689128773 48.221458771920496"/>
		<path opacity="0.75" fill="pink" d="M-135.51207689128773 50.3865222813816 L-133.01207689128773 52.551585790842694 L-97.82864059146766 16.297257662219224 L-135.51207689128773 50.3865222813816"/>

		<text style="fill:black;font-family:calibri;font-size:6" x="-122.11759812468104" y="26.676826462339314" >[5,5]</text>
		<path opacity="0.75" fill="darkturquoise" d="M-135.51207689128773 46.056395262459404 L-133.01207689128773 48.221458771920496 L-133.01207689128773 52.551585790842694 L-135.51207689128773 50.3865222813816 L-135.51207689128773 46.056395262459404" stroke-linecap="square"/>
		<path opacity="0.75" fill="darkturquoise" d="M-163.22488981238973 54.056395262459404 L-160.72488981238973 56.221458771920496 L-160.72488981238973 60.551585790842694 L-163.22488981238973 58.3865222813816 L-163.22488981238973 54.056395262459404" stroke-linecap="square"/>
		<path opacity="0.75" fill="darkturquoise" d="M-135.51207689128773 46.056395262459404 L-163.22488981238973 54.056395262459404 L-163.22488981238973 58.3865222813816 L-135.51207689128773 50.3865222813816 L-135.51207689128773 46.056395262459404" stroke-linecap="square"/>
		<path opacity="0.75" fill="darkturquoise" d="M-133.01207689128773 48.221458771920496 L-160.72488981238973 56.221458771920496 L-160.72488981238973 60.551585790842694 L-133.01207689128773 52.551585790842694 L-133.01207689128773 48.221458771920496" stroke-linecap="square"/>
		<path opacity="0.75" fill="darkturquoise" d="M-135.51207689128773 46.056395262459404 L-133.01207689128773 48.221458771920496 L-160.72488981238973 56.221458771920496 L-163.22488981238973 54.056395262459404 L-135.51207689128773 46.056395262459404" stroke-linecap="square"/>
		<path opacity="0.75" fill="darkturquoise" d="M-135.51207689128773 50.3865222813816 L-133.01207689128773 52.551585790842694 L-160.72488981238973 60.551585790842694 L-163.22488981238973 58.3865222813816 L-135.51207689128773 50.3865222813816" stroke-linecap="square"/>
		<path opacity="0.5" fill="orange" d="M-146.01785666836219 15.708348754011496 L-130.01785666836219 29.564755214562517 L-130.01785666836219 57.27756813566455 L-146.01785666836219 43.42116167511354 L-146.01785666836219 15.708348754011496" stroke-linecap="square"/>
		<path opacity="0.5" fill="orange" d="M-173.73066958946418 23.708348754011496 L-157.73066958946418 37.56475521456252 L-157.73066958946418 65.27756813566455 L-173.73066958946418 51.42116167511354 L-173.73066958946418 23.708348754011496" stroke-linecap="square"/>
		<path opacity="0.5" fill="orange" d="M-146.01785666836219 15.708348754011496 L-173.73066958946418 23.708348754011496 L-173.73066958946418 51.42116167511354 L-146.01785666836219 43.42116167511354 L-146.01785666836219 15.708348754011496" stroke-linecap="square"/>
		<path opacity="0.5" fill="orange" d="M-130.01785666836219 29.564755214562517 L-157.73066958946418 37.56475521456252 L-157.73066958946418 65.27756813566455 L-130.01785666836219 57.27756813566455 L-130.01785666836219 29.564755214562517" stroke-linecap="square"/>
		<path opacity="0.5" fill="orange" d="M-146.01785666836219 15.708348754011496 L-130.01785666836219 29.564755214562517 L-157.73066958946418 37.56475521456252 L-173.73066958946418 23.708348754011496 L-146.01785666836219 15.708348754011496" stroke-linecap="square"/>
		<path opacity="0.5" fill="orange" d="M-146.01785666836219 43.42116167511354 L-130.01785666836219 57.27756813566455 L-157.73066958946418 65.27756813566455 L-173.73066958946418 51.42116167511354 L-146.01785666836219 43.42116167511354" stroke-linecap="square"/>
		<text style="fill:black;font-family:calibri;font-size:6" x="-173.73066958946418" y="37.56475521456252" >32</text>
		<text style="fill:black;font-family:calibri;font-size:6" x="-165.73066958946418" y="58.349364905389045" >32</text>
		<text style="fill:black;font-family:calibri;font-size:6" x="-159.87426312891319" y="19.708348754011496" >32</text>

		<path opacity="0.5" fill="orange" d="M123.43593539448983 31.45448267190433 L127.43593539448983 34.918584287042094 L127.43593539448983 41.84678751731761 L123.43593539448983 38.382685902179844 L123.43593539448983 31.45448267190433" stroke-linecap="square"/>
		<path opacity="0.5" fill="orange" d="M68.01030955228575 47.45448267190433 L72.01030955228575 50.918584287042094 L72.01030955228575 57.84678751731761 L68.01030955228575 54.382685902179844 L68.01030955228575 47.45448267190433" stroke-linecap="square"/>
		<path opacity="0.5" fill="orange" d="M123.43593539448983 31.45448267190433 L68.01030955228575 47.45448267190433 L68.01030955228575 54.382685902179844 L123.43593539448983 38.382685902179844 L123.43593539448983 31.45448267190433" stroke-linecap="square"/>
		<path opacity="0.5" fill="orange" d="M127.43593539448983 34.918584287042094 L72.01030955228575 50.918584287042094 L72.01030955228575 57.84678751731761 L127.43593539448983 41.84678751731761 L127.43593539448983 34.918584287042094" stroke-linecap="square"/>
		<path opacity="0.5" fill="orange" d="M123.43593539448983 31.45448267190433 L127.43593539448983 34.918584287042094 L72.01030955228575 50.918584287042094 L68.01030955228575 47.45448267190433 L123.43593539448983 31.45448267190433" stroke-linecap="square"/>
		<path opacity="0.5" fill="orange" d="M123.43593539448983 38.382685902179844 L127.43593539448983 41.84678751731761 L72.01030955228575 57.84678751731761 L68.01030955228575 54.382685902179844 L123.43593539448983 38.382685902179844" stroke-linecap="square"/>
		<text style="fill:black;font-family:calibri;font-size:6" x="68.01030955228575" y="50.91858428704209" >8</text>
		<text style="fill:black;font-family:calibri;font-size:6" x="70.01030955228575" y="56.114736709748726" >8</text>
		<text style="fill:black;font-family:calibri;font-size:6" x="95.72312247338779" y="39.45448267190433" >64</text>

		<path opacity="0.75" fill="pink" d="M-210.89437852752746 52.28481303049793 L-205.89437852752746 56.61494004942013 L-163.97446839783453 39.59316872535922 L-210.89437852752746 52.28481303049793"/>
		<path opacity="0.75" fill="pink" d="M-210.89437852752746 52.28481303049793 L-210.89437852752746 60.945067068342325 L-163.97446839783453 39.59316872535922 L-210.89437852752746 52.28481303049793"/>
		<path opacity="0.75" fill="pink" d="M-205.89437852752746 56.61494004942013 L-205.89437852752746 65.27519408726451 L-163.97446839783453 39.59316872535922 L-205.89437852752746 56.61494004942013"/>
		<path opacity="0.75" fill="pink" d="M-210.89437852752746 60.945067068342325 L-205.89437852752746 65.27519408726451 L-163.97446839783453 39.59316872535922 L-210.89437852752746 60.945067068342325"/>

		<text style="fill:black;font-family:calibri;font-size:6" x="-193.5877418176298" y="41.438990877928575" >[10,10]</text>
		<path opacity="0.5" fill="orange" d="M473.3153532995459 38.99484522385711 L481.3153532995459 45.923048454132626 L481.3153532995459 59.77945491468364 L473.3153532995459 52.851251684408126 L473.3153532995459 38.99484522385711" stroke-linecap="square"/>
		<path opacity="0.5" fill="orange" d="M417.88972745734185 54.99484522385711 L425.88972745734185 61.923048454132626 L425.88972745734185 75.77945491468364 L417.88972745734185 68.85125168440813 L417.88972745734185 54.99484522385711" stroke-linecap="square"/>
		<path opacity="0.5" fill="orange" d="M473.3153532995459 38.99484522385711 L417.88972745734185 54.99484522385711 L417.88972745734185 68.85125168440813 L473.3153532995459 52.851251684408126 L473.3153532995459 38.99484522385711" stroke-linecap="square"/>
		<path opacity="0.5" fill="orange" d="M481.3153532995459 45.923048454132626 L425.88972745734185 61.923048454132626 L425.88972745734185 75.77945491468364 L481.3153532995459 59.77945491468364 L481.3153532995459 45.923048454132626" stroke-linecap="square"/>
		<path opacity="0.5" fill="orange" d="M473.3153532995459 38.99484522385711 L481.3153532995459 45.923048454132626 L425.88972745734185 61.923048454132626 L417.88972745734185 54.99484522385711 L473.3153532995459 38.99484522385711" stroke-linecap="square"/>
		<path opacity="0.5" fill="orange" d="M473.3153532995459 52.851251684408126 L481.3153532995459 59.77945491468364 L425.88972745734185 75.77945491468364 L417.88972745734185 68.85125168440813 L473.3153532995459 52.851251684408126" stroke-linecap="square"/>
		<text style="fill:black;font-family:calibri;font-size:6" x="417.88972745734185" y="61.92304845413262" >16</text>
		<text style="fill:black;font-family:calibri;font-size:6" x="421.88972745734185" y="72.31535329954588" >16</text>
		<text style="fill:black;font-family:calibri;font-size:6" x="445.6025403784439" y="46.99484522385711" >64</text>

		<path opacity="0.75" fill="darkturquoise" d="M-210.89437852752746 52.28481303049793 L-205.89437852752746 56.61494004942013 L-205.89437852752746 65.27519408726451 L-210.89437852752746 60.945067068342325 L-210.89437852752746 52.28481303049793" stroke-linecap="square"/>
		<path opacity="0.75" fill="darkturquoise" d="M-228.2148866032162 57.28481303049793 L-223.2148866032162 61.61494004942013 L-223.2148866032162 70.27519408726451 L-228.2148866032162 65.94506706834233 L-228.2148866032162 57.28481303049793" stroke-linecap="square"/>
		<path opacity="0.75" fill="darkturquoise" d="M-210.89437852752746 52.28481303049793 L-228.2148866032162 57.28481303049793 L-228.2148866032162 65.94506706834233 L-210.89437852752746 60.945067068342325 L-210.89437852752746 52.28481303049793" stroke-linecap="square"/>
		<path opacity="0.75" fill="darkturquoise" d="M-205.89437852752746 56.61494004942013 L-223.2148866032162 61.61494004942013 L-223.2148866032162 70.27519408726451 L-205.89437852752746 65.27519408726451 L-205.89437852752746 56.61494004942013" stroke-linecap="square"/>
		<path opacity="0.75" fill="darkturquoise" d="M-210.89437852752746 52.28481303049793 L-205.89437852752746 56.61494004942013 L-223.2148866032162 61.61494004942013 L-228.2148866032162 57.28481303049793 L-210.89437852752746 52.28481303049793" stroke-linecap="square"/>
		<path opacity="0.75" fill="darkturquoise" d="M-210.89437852752746 60.945067068342325 L-205.89437852752746 65.27519408726451 L-223.2148866032162 70.27519408726451 L-228.2148866032162 65.94506706834233 L-210.89437852752746 60.945067068342325" stroke-linecap="square"/>
		<path opacity="0.5" fill="lavender" d="M-217.03193977868614 36.208348754011496 L-201.03193977868614 50.064755214562524 L-201.03193977868614 77.77756813566455 L-217.03193977868614 63.92116167511354 L-217.03193977868614 36.208348754011496" stroke-linecap="square"/>
		<path opacity="0.5" fill="lavender" d="M-234.35244785437493 41.208348754011496 L-218.35244785437493 55.064755214562524 L-218.35244785437493 82.77756813566455 L-234.35244785437493 68.92116167511354 L-234.35244785437493 41.208348754011496" stroke-linecap="square"/>
		<path opacity="0.5" fill="lavender" d="M-217.03193977868614 36.208348754011496 L-234.35244785437493 41.208348754011496 L-234.35244785437493 68.92116167511354 L-217.03193977868614 63.92116167511354 L-217.03193977868614 36.208348754011496" stroke-linecap="square"/>
		<path opacity="0.5" fill="lavender" d="M-201.03193977868614 50.064755214562524 L-218.35244785437493 55.064755214562524 L-218.35244785437493 82.77756813566455 L-201.03193977868614 77.77756813566455 L-201.03193977868614 50.064755214562524" stroke-linecap="square"/>
		<path opacity="0.5" fill="lavender" d="M-217.03193977868614 36.208348754011496 L-201.03193977868614 50.064755214562524 L-218.35244785437493 55.064755214562524 L-234.35244785437493 41.208348754011496 L-217.03193977868614 36.208348754011496" stroke-linecap="square"/>
		<path opacity="0.5" fill="lavender" d="M-217.03193977868614 63.92116167511354 L-201.03193977868614 77.77756813566455 L-218.35244785437493 82.77756813566455 L-234.35244785437493 68.92116167511354 L-217.03193977868614 63.92116167511354" stroke-linecap="square"/>
		<text style="fill:black;font-family:calibri;font-size:6" x="-234.35244785437493" y="55.06475521456252" >32</text>
		<text style="fill:black;font-family:calibri;font-size:6" x="-226.35244785437493" y="75.84936490538905" >32</text>
		<text style="fill:black;font-family:calibri;font-size:6" x="-225.69219381653053" y="38.708348754011496" >20</text>

		<path opacity="0.75" fill="pink" d="M27.67435696546221 59.542504049065 L30.17435696546221 61.70756755852611 L68.21315508716506 49.31823872238479 L27.67435696546221 59.542504049065"/>
		<path opacity="0.75" fill="pink" d="M27.67435696546221 59.542504049065 L27.67435696546221 63.8726310679872 L68.21315508716506 49.31823872238479 L27.67435696546221 59.542504049065"/>
		<path opacity="0.75" fill="pink" d="M30.17435696546221 61.70756755852611 L30.17435696546221 66.03769457744829 L68.21315508716506 49.31823872238479 L30.17435696546221 61.70756755852611"/>
		<path opacity="0.75" fill="pink" d="M27.67435696546221 63.8726310679872 L30.17435696546221 66.03769457744829 L68.21315508716506 49.31823872238479 L27.67435696546221 63.8726310679872"/>

		<text style="fill:black;font-family:calibri;font-size:6" x="42.02062300602983" y="49.9303713857249" >[5,5]</text>
		<path opacity="0.75" fill="pink" d="M375.28806640196865 69.40094180930014 L377.78806640196865 71.56600531876123 L422.722478302163 70.74050758509023 L375.28806640196865 69.40094180930014"/>
		<path opacity="0.75" fill="pink" d="M375.28806640196865 69.40094180930014 L375.28806640196865 73.73106882822232 L422.722478302163 70.74050758509023 L375.28806640196865 69.40094180930014"/>
		<path opacity="0.75" fill="pink" d="M377.78806640196865 71.56600531876123 L377.78806640196865 75.89613233768341 L422.722478302163 70.74050758509023 L377.78806640196865 71.56600531876123"/>
		<path opacity="0.75" fill="pink" d="M375.28806640196865 73.73106882822232 L377.78806640196865 75.89613233768341 L422.722478302163 70.74050758509023 L375.28806640196865 73.73106882822232"/>

		<text style="fill:black;font-family:calibri;font-size:6" x="391.9328703687001" y="65.57072469719517" >[5,5]</text>
		<path opacity="0.75" fill="darkturquoise" d="M27.67435696546221 59.542504049065 L30.17435696546221 61.70756755852611 L30.17435696546221 66.03769457744829 L27.67435696546221 63.8726310679872 L27.67435696546221 59.542504049065" stroke-linecap="square"/>
		<path opacity="0.75" fill="darkturquoise" d="M-27.751268876741847 75.542504049065 L-25.251268876741847 77.70756755852611 L-25.251268876741847 82.03769457744829 L-27.751268876741847 79.8726310679872 L-27.751268876741847 75.542504049065" stroke-linecap="square"/>
		<path opacity="0.75" fill="darkturquoise" d="M27.67435696546221 59.542504049065 L-27.751268876741847 75.542504049065 L-27.751268876741847 79.8726310679872 L27.67435696546221 63.8726310679872 L27.67435696546221 59.542504049065" stroke-linecap="square"/>
		<path opacity="0.75" fill="darkturquoise" d="M30.17435696546221 61.70756755852611 L-25.251268876741847 77.70756755852611 L-25.251268876741847 82.03769457744829 L30.17435696546221 66.03769457744829 L30.17435696546221 61.70756755852611" stroke-linecap="square"/>
		<path opacity="0.75" fill="darkturquoise" d="M27.67435696546221 59.542504049065 L30.17435696546221 61.70756755852611 L-25.251268876741847 77.70756755852611 L-27.751268876741847 75.542504049065 L27.67435696546221 59.542504049065" stroke-linecap="square"/>
		<path opacity="0.75" fill="darkturquoise" d="M27.67435696546221 63.8726310679872 L30.17435696546221 66.03769457744829 L-25.251268876741847 82.03769457744829 L-27.751268876741847 79.8726310679872 L27.67435696546221 63.8726310679872" stroke-linecap="square"/>
		<path opacity="0.5" fill="orange" d="M22.709039363063823 54.75833024919771 L30.709039363063823 61.68653347947321 L30.709039363063823 75.54293994002424 L22.709039363063823 68.61473670974873 L22.709039363063823 54.75833024919771" stroke-linecap="square"/>
		<path opacity="0.5" fill="orange" d="M-32.71658647914023 70.75833024919771 L-24.716586479140233 77.68653347947321 L-24.716586479140233 91.54293994002424 L-32.71658647914023 84.61473670974873 L-32.71658647914023 70.75833024919771" stroke-linecap="square"/>
		<path opacity="0.5" fill="orange" d="M22.709039363063823 54.75833024919771 L-32.71658647914023 70.75833024919771 L-32.71658647914023 84.61473670974873 L22.709039363063823 68.61473670974873 L22.709039363063823 54.75833024919771" stroke-linecap="square"/>
		<path opacity="0.5" fill="orange" d="M30.709039363063823 61.68653347947321 L-24.716586479140233 77.68653347947321 L-24.716586479140233 91.54293994002424 L30.709039363063823 75.54293994002424 L30.709039363063823 61.68653347947321" stroke-linecap="square"/>
		<path opacity="0.5" fill="orange" d="M22.709039363063823 54.75833024919771 L30.709039363063823 61.68653347947321 L-24.716586479140233 77.68653347947321 L-32.71658647914023 70.75833024919771 L22.709039363063823 54.75833024919771" stroke-linecap="square"/>
		<path opacity="0.5" fill="orange" d="M22.709039363063823 68.61473670974873 L30.709039363063823 75.54293994002424 L-24.716586479140233 91.54293994002424 L-32.71658647914023 84.61473670974873 L22.709039363063823 68.61473670974873" stroke-linecap="square"/>
		<text style="fill:black;font-family:calibri;font-size:6" x="-32.71658647914023" y="77.68653347947321" >16</text>
		<text style="fill:black;font-family:calibri;font-size:6" x="-28.716586479140233" y="88.07883832488648" >16</text>
		<text style="fill:black;font-family:calibri;font-size:6" x="-5.003773558038205" y="62.75833024919771" >64</text>

		<path opacity="0.75" fill="pink" d="M-68.03155441610073 88.59558203588797 L-65.53155441610073 90.76064554534906 L-28.653131452923276 81.51696186088694 L-68.03155441610073 88.59558203588797"/>
		<path opacity="0.75" fill="pink" d="M-68.03155441610073 88.59558203588797 L-68.03155441610073 92.92570905481017 L-28.653131452923276 81.51696186088694 L-68.03155441610073 88.59558203588797"/>
		<path opacity="0.75" fill="pink" d="M-65.53155441610073 90.76064554534906 L-65.53155441610073 95.09077256427126 L-28.653131452923276 81.51696186088694 L-65.53155441610073 90.76064554534906"/>
		<path opacity="0.75" fill="pink" d="M-68.03155441610073 92.92570905481017 L-65.53155441610073 95.09077256427126 L-28.653131452923276 81.51696186088694 L-68.03155441610073 92.92570905481017"/>

		<text style="fill:black;font-family:calibri;font-size:6" x="-54.07208009504158" y="80.55627194838746" >[5,5]</text>
		<path opacity="0.75" fill="darkturquoise" d="M375.28806640196865 69.40094180930014 L377.78806640196865 71.56600531876123 L377.78806640196865 75.89613233768341 L375.28806640196865 73.73106882822232 L375.28806640196865 69.40094180930014" stroke-linecap="square"/>
		<path opacity="0.75" fill="darkturquoise" d="M264.4368147175605 101.40094180930014 L266.93681471756054 103.56600531876123 L266.93681471756054 107.89613233768341 L264.4368147175605 105.7310688282223 L264.4368147175605 101.40094180930014" stroke-linecap="square"/>
		<path opacity="0.75" fill="darkturquoise" d="M375.28806640196865 69.40094180930014 L264.4368147175605 101.40094180930014 L264.4368147175605 105.7310688282223 L375.28806640196865 73.73106882822232 L375.28806640196865 69.40094180930014" stroke-linecap="square"/>
		<path opacity="0.75" fill="darkturquoise" d="M377.78806640196865 71.56600531876123 L266.93681471756054 103.56600531876123 L266.93681471756054 107.89613233768341 L377.78806640196865 75.89613233768341 L377.78806640196865 71.56600531876123" stroke-linecap="square"/>
		<path opacity="0.75" fill="darkturquoise" d="M375.28806640196865 69.40094180930014 L377.78806640196865 71.56600531876123 L266.93681471756054 103.56600531876123 L264.4368147175605 101.40094180930014 L375.28806640196865 69.40094180930014" stroke-linecap="square"/>
		<path opacity="0.75" fill="darkturquoise" d="M375.28806640196865 73.73106882822232 L377.78806640196865 75.89613233768341 L266.93681471756054 107.89613233768341 L264.4368147175605 105.7310688282223 L375.28806640196865 73.73106882822232" stroke-linecap="square"/>
		<path opacity="0.5" fill="orange" d="M374.5884572681199 67.49484522385711 L382.5884572681199 74.42304845413263 L382.5884572681199 88.27945491468364 L374.5884572681199 81.35125168440813 L374.5884572681199 67.49484522385711" stroke-linecap="square"/>
		<path opacity="0.5" fill="orange" d="M263.7372055837118 99.49484522385711 L271.7372055837118 106.42304845413264 L271.7372055837118 120.27945491468364 L263.7372055837118 113.35125168440811 L263.7372055837118 99.49484522385711" stroke-linecap="square"/>
		<path opacity="0.5" fill="orange" d="M374.5884572681199 67.49484522385711 L263.7372055837118 99.49484522385711 L263.7372055837118 113.35125168440811 L374.5884572681199 81.35125168440813 L374.5884572681199 67.49484522385711" stroke-linecap="square"/>
		<path opacity="0.5" fill="orange" d="M382.5884572681199 74.42304845413263 L271.7372055837118 106.42304845413264 L271.7372055837118 120.27945491468364 L382.5884572681199 88.27945491468364 L382.5884572681199 74.42304845413263" stroke-linecap="square"/>
		<path opacity="0.5" fill="orange" d="M374.5884572681199 67.49484522385711 L382.5884572681199 74.42304845413263 L271.7372055837118 106.42304845413264 L263.7372055837118 99.49484522385711 L374.5884572681199 67.49484522385711" stroke-linecap="square"/>
		<path opacity="0.5" fill="orange" d="M374.5884572681199 81.35125168440813 L382.5884572681199 88.27945491468364 L271.7372055837118 120.27945491468364 L263.7372055837118 113.35125168440811 L374.5884572681199 81.35125168440813" stroke-linecap="square"/>
		<text style="fill:black;font-family:calibri;font-size:6" x="263.7372055837118" y="106.42304845413261" >16</text>
		<text style="fill:black;font-family:calibri;font-size:6" x="267.7372055837118" y="116.81535329954588" >16</text>
		<text style="fill:black;font-family:calibri;font-size:6" x="319.16283142591584" y="83.49484522385711" >128</text>

		<path opacity="0.75" fill="darkturquoise" d="M-68.03155441610073 88.59558203588797 L-65.53155441610073 90.76064554534906 L-65.53155441610073 95.09077256427126 L-68.03155441610073 92.92570905481017 L-68.03155441610073 88.59558203588797" stroke-linecap="square"/>
		<path opacity="0.75" fill="darkturquoise" d="M-95.74436733720273 96.59558203588797 L-93.24436733720273 98.76064554534906 L-93.24436733720273 103.09077256427128 L-95.74436733720273 100.92570905481017 L-95.74436733720273 96.59558203588797" stroke-linecap="square"/>
		<path opacity="0.75" fill="darkturquoise" d="M-68.03155441610073 88.59558203588797 L-95.74436733720273 96.59558203588797 L-95.74436733720273 100.92570905481017 L-68.03155441610073 92.92570905481017 L-68.03155441610073 88.59558203588797" stroke-linecap="square"/>
		<path opacity="0.75" fill="darkturquoise" d="M-65.53155441610073 90.76064554534906 L-93.24436733720273 98.76064554534906 L-93.24436733720273 103.09077256427128 L-65.53155441610073 95.09077256427126 L-65.53155441610073 90.76064554534906" stroke-linecap="square"/>
		<path opacity="0.75" fill="darkturquoise" d="M-68.03155441610073 88.59558203588797 L-65.53155441610073 90.76064554534906 L-93.24436733720273 98.76064554534906 L-95.74436733720273 96.59558203588797 L-68.03155441610073 88.59558203588797" stroke-linecap="square"/>
		<path opacity="0.75" fill="darkturquoise" d="M-68.03155441610073 92.92570905481017 L-65.53155441610073 95.09077256427126 L-93.24436733720273 103.09077256427128 L-95.74436733720273 100.92570905481017 L-68.03155441610073 92.92570905481017" stroke-linecap="square"/>
		<path opacity="0.5" fill="orange" d="M-80.01785666836219 72.86602540378443 L-64.01785666836219 86.72243186433545 L-64.01785666836219 114.4352447854375 L-80.01785666836219 100.57883832488648 L-80.01785666836219 72.86602540378443" stroke-linecap="square"/>
		<path opacity="0.5" fill="orange" d="M-107.73066958946418 80.86602540378443 L-91.73066958946418 94.72243186433545 L-91.73066958946418 122.4352447854375 L-107.73066958946418 108.57883832488648 L-107.73066958946418 80.86602540378443" stroke-linecap="square"/>
		<path opacity="0.5" fill="orange" d="M-80.01785666836219 72.86602540378443 L-107.73066958946418 80.86602540378443 L-107.73066958946418 108.57883832488648 L-80.01785666836219 100.57883832488648 L-80.01785666836219 72.86602540378443" stroke-linecap="square"/>
		<path opacity="0.5" fill="orange" d="M-64.01785666836219 86.72243186433545 L-91.73066958946418 94.72243186433545 L-91.73066958946418 122.4352447854375 L-64.01785666836219 114.4352447854375 L-64.01785666836219 86.72243186433545" stroke-linecap="square"/>
		<path opacity="0.5" fill="orange" d="M-80.01785666836219 72.86602540378443 L-64.01785666836219 86.72243186433545 L-91.73066958946418 94.72243186433545 L-107.73066958946418 80.86602540378443 L-80.01785666836219 72.86602540378443" stroke-linecap="square"/>
		<path opacity="0.5" fill="orange" d="M-80.01785666836219 100.57883832488648 L-64.01785666836219 114.4352447854375 L-91.73066958946418 122.4352447854375 L-107.73066958946418 108.57883832488648 L-80.01785666836219 100.57883832488648" stroke-linecap="square"/>
		<text style="fill:black;font-family:calibri;font-size:6" x="-107.73066958946418" y="94.72243186433545" >32</text>
		<text style="fill:black;font-family:calibri;font-size:6" x="-99.73066958946418" y="115.50704155516199" >32</text>
		<text style="fill:black;font-family:calibri;font-size:6" x="-93.87426312891319" y="76.86602540378443" >32</text>

<!-- Arrow -->
		<path opacity="0.5" stroke="black" d="M191.43593539448983 93.8083117443839 L267.7372055837118 109.88715006927038" stroke-linecap="square"/>
		<circle opacity="0.5" cx="267.7372055837118" cy="109.88715006927038" r="1" fill="black" />
<!-- Arrow -->
		<path opacity="0.5" stroke="black" d="M323.16283142591584 86.95894683899488 L323.16283142591584 43.65767664977294" stroke-linecap="square"/>
		<circle opacity="0.5" cx="323.16283142591584" cy="43.65767664977294" r="1" fill="black" />
		<path opacity="0.5" fill="orange" d="M189.43593539448983 88.61215932167727 L193.43593539448983 92.07626093681503 L193.43593539448983 99.00446416709055 L189.43593539448983 95.54036255195278 L189.43593539448983 88.61215932167727" stroke-linecap="square"/>
		<path opacity="0.5" fill="orange" d="M134.01030955228578 104.61215932167727 L138.01030955228578 108.07626093681503 L138.01030955228578 115.00446416709053 L134.01030955228578 111.5403625519528 L134.01030955228578 104.61215932167727" stroke-linecap="square"/>
		<path opacity="0.5" fill="orange" d="M189.43593539448983 88.61215932167727 L134.01030955228578 104.61215932167727 L134.01030955228578 111.5403625519528 L189.43593539448983 95.54036255195278 L189.43593539448983 88.61215932167727" stroke-linecap="square"/>
		<path opacity="0.5" fill="orange" d="M193.43593539448983 92.07626093681503 L138.01030955228578 108.07626093681503 L138.01030955228578 115.00446416709053 L193.43593539448983 99.00446416709055 L193.43593539448983 92.07626093681503" stroke-linecap="square"/>
		<path opacity="0.5" fill="orange" d="M189.43593539448983 88.61215932167727 L193.43593539448983 92.07626093681503 L138.01030955228578 108.07626093681503 L134.01030955228578 104.61215932167727 L189.43593539448983 88.61215932167727" stroke-linecap="square"/>
		<path opacity="0.5" fill="orange" d="M189.43593539448983 95.54036255195278 L193.43593539448983 99.00446416709055 L138.01030955228578 115.00446416709053 L134.01030955228578 111.5403625519528 L189.43593539448983 95.54036255195278" stroke-linecap="square"/>
		<text style="fill:black;font-family:calibri;font-size:6" x="134.01030955228578" y="108.07626093681503" >8</text>
		<text style="fill:black;font-family:calibri;font-size:6" x="136.01030955228578" y="113.27241335952166" >8</text>
		<text style="fill:black;font-family:calibri;font-size:6" x="161.7231224733878" y="96.61215932167727" >64</text>

<!-- Arrow -->
		<path opacity="0.5" stroke="black" d="M163.72312247338778 98.34421012924615 L163.72312247338778 55.04293994002421" stroke-linecap="square"/>
		<circle opacity="0.5" cx="163.72312247338778" cy="55.04293994002421" r="1" fill="black" />
		<path opacity="0.75" fill="pink" d="M-145.98477973724323 115.81902448388064 L-140.98477973724317 120.14915150280285 L-97.86903315725982 90.22684415013728 L-145.98477973724323 115.81902448388064"/>
		<path opacity="0.75" fill="pink" d="M-145.98477973724323 115.81902448388064 L-145.98477973724323 124.47927852172504 L-97.86903315725982 90.22684415013728 L-145.98477973724323 115.81902448388064"/>
		<path opacity="0.75" fill="pink" d="M-140.98477973724317 120.14915150280285 L-140.98477973724317 128.80940554064722 L-97.86903315725982 90.22684415013728 L-140.98477973724317 120.14915150280285"/>
		<path opacity="0.75" fill="pink" d="M-145.98477973724323 124.47927852172504 L-140.98477973724317 128.80940554064722 L-97.86903315725982 90.22684415013728 L-145.98477973724323 124.47927852172504"/>

		<text style="fill:black;font-family:calibri;font-size:6" x="-128.27953087724873" y="98.52293431700896" >[10,10]</text>
<!-- Arrow -->
		<path opacity="0.5" stroke="black" d="M323.16283142591584 43.65767664977294 L163.72312247338778 55.04293994002421" stroke-linecap="square"/>
		<circle opacity="0.5" cx="163.72312247338778" cy="55.04293994002421" r="1" fill="black" />
		<path opacity="0.75" fill="pink" d="M89.02767644905998 113.83271572466526 L91.52767644905998 115.99777923412637 L135.79158657912416 112.32414694239202 L89.02767644905998 113.83271572466526"/>
		<path opacity="0.75" fill="pink" d="M89.02767644905998 113.83271572466526 L89.02767644905998 118.16284274358745 L135.79158657912416 112.32414694239202 L89.02767644905998 113.83271572466526"/>
		<path opacity="0.75" fill="pink" d="M91.52767644905998 115.99777923412637 L91.52767644905998 120.32790625304855 L135.79158657912416 112.32414694239202 L91.52767644905998 115.99777923412637"/>
		<path opacity="0.75" fill="pink" d="M89.02767644905998 118.16284274358745 L91.52767644905998 120.32790625304855 L135.79158657912416 112.32414694239202 L89.02767644905998 118.16284274358745"/>

		<text style="fill:black;font-family:calibri;font-size:6" x="105.44897982574804" y="108.57843133352864" >[5,5]</text>
		<path opacity="0.75" fill="darkturquoise" d="M-145.98477973724323 115.81902448388064 L-140.98477973724317 120.14915150280285 L-140.98477973724317 128.80940554064722 L-145.98477973724323 124.47927852172504 L-145.98477973724323 115.81902448388064" stroke-linecap="square"/>
		<path opacity="0.75" fill="darkturquoise" d="M-163.30528781293202 120.81902448388064 L-158.30528781293197 125.14915150280285 L-158.30528781293197 133.80940554064722 L-163.30528781293202 129.47927852172504 L-163.30528781293202 120.81902448388064" stroke-linecap="square"/>
		<path opacity="0.75" fill="darkturquoise" d="M-145.98477973724323 115.81902448388064 L-163.30528781293202 120.81902448388064 L-163.30528781293202 129.47927852172504 L-145.98477973724323 124.47927852172504 L-145.98477973724323 115.81902448388064" stroke-linecap="square"/>
		<path opacity="0.75" fill="darkturquoise" d="M-140.98477973724317 120.14915150280285 L-158.30528781293197 125.14915150280285 L-158.30528781293197 133.80940554064722 L-140.98477973724317 128.80940554064722 L-140.98477973724317 120.14915150280285" stroke-linecap="square"/>
		<path opacity="0.75" fill="darkturquoise" d="M-145.98477973724323 115.81902448388064 L-140.98477973724317 120.14915150280285 L-158.30528781293197 125.14915150280285 L-163.30528781293202 120.81902448388064 L-145.98477973724323 115.81902448388064" stroke-linecap="square"/>
		<path opacity="0.75" fill="darkturquoise" d="M-145.98477973724323 124.47927852172504 L-140.98477973724317 128.80940554064722 L-158.30528781293197 133.80940554064722 L-163.30528781293202 129.47927852172504 L-145.98477973724323 124.47927852172504" stroke-linecap="square"/>
		<path opacity="0.5" fill="lavender" d="M-151.03193977868614 93.36602540378443 L-135.03193977868614 107.22243186433545 L-135.03193977868614 134.9352447854375 L-151.03193977868614 121.07883832488648 L-151.03193977868614 93.36602540378443" stroke-linecap="square"/>
		<path opacity="0.5" fill="lavender" d="M-168.35244785437493 98.36602540378443 L-152.35244785437493 112.22243186433545 L-152.35244785437493 139.9352447854375 L-168.35244785437493 126.07883832488648 L-168.35244785437493 98.36602540378443" stroke-linecap="square"/>
		<path opacity="0.5" fill="lavender" d="M-151.03193977868614 93.36602540378443 L-168.35244785437493 98.36602540378443 L-168.35244785437493 126.07883832488648 L-151.03193977868614 121.07883832488648 L-151.03193977868614 93.36602540378443" stroke-linecap="square"/>
		<path opacity="0.5" fill="lavender" d="M-135.03193977868614 107.22243186433545 L-152.35244785437493 112.22243186433545 L-152.35244785437493 139.9352447854375 L-135.03193977868614 134.9352447854375 L-135.03193977868614 107.22243186433545" stroke-linecap="square"/>
		<path opacity="0.5" fill="lavender" d="M-151.03193977868614 93.36602540378443 L-135.03193977868614 107.22243186433545 L-152.35244785437493 112.22243186433545 L-168.35244785437493 98.36602540378443 L-151.03193977868614 93.36602540378443" stroke-linecap="square"/>
		<path opacity="0.5" fill="lavender" d="M-151.03193977868614 121.07883832488648 L-135.03193977868614 134.9352447854375 L-152.35244785437493 139.9352447854375 L-168.35244785437493 126.07883832488648 L-151.03193977868614 121.07883832488648" stroke-linecap="square"/>
		<text style="fill:black;font-family:calibri;font-size:6" x="-168.35244785437493" y="112.22243186433545" >32</text>
		<text style="fill:black;font-family:calibri;font-size:6" x="-160.35244785437493" y="133.007041555162" >32</text>
		<text style="fill:black;font-family:calibri;font-size:6" x="-159.69219381653053" y="95.86602540378443" >20</text>

<!-- Arrow -->
		<path opacity="0.5" stroke="black" d="M257.4359353944899 150.96598839415685 L267.7372055837118 109.88715006927038" stroke-linecap="square"/>
		<circle opacity="0.5" cx="267.7372055837118" cy="109.88715006927038" r="1" fill="black" />
		<path opacity="0.75" fill="darkturquoise" d="M89.02767644905998 113.83271572466526 L91.52767644905998 115.99777923412637 L91.52767644905998 120.32790625304855 L89.02767644905998 118.16284274358745 L89.02767644905998 113.83271572466526" stroke-linecap="square"/>
		<path opacity="0.75" fill="darkturquoise" d="M33.602050606855926 129.83271572466526 L36.102050606855926 131.99777923412637 L36.102050606855926 136.32790625304855 L33.602050606855926 134.16284274358745 L33.602050606855926 129.83271572466526" stroke-linecap="square"/>
		<path opacity="0.75" fill="darkturquoise" d="M89.02767644905998 113.83271572466526 L33.602050606855926 129.83271572466526 L33.602050606855926 134.16284274358745 L89.02767644905998 118.16284274358745 L89.02767644905998 113.83271572466526" stroke-linecap="square"/>
		<path opacity="0.75" fill="darkturquoise" d="M91.52767644905998 115.99777923412637 L36.102050606855926 131.99777923412637 L36.102050606855926 136.32790625304855 L91.52767644905998 120.32790625304855 L91.52767644905998 115.99777923412637" stroke-linecap="square"/>
		<path opacity="0.75" fill="darkturquoise" d="M89.02767644905998 113.83271572466526 L91.52767644905998 115.99777923412637 L36.102050606855926 131.99777923412637 L33.602050606855926 129.83271572466526 L89.02767644905998 113.83271572466526" stroke-linecap="square"/>
		<path opacity="0.75" fill="darkturquoise" d="M89.02767644905998 118.16284274358745 L91.52767644905998 120.32790625304855 L36.102050606855926 136.32790625304855 L33.602050606855926 134.16284274358745 L89.02767644905998 118.16284274358745" stroke-linecap="square"/>
		<path opacity="0.5" fill="orange" d="M88.70903936306382 111.91600689897064 L96.70903936306382 118.84421012924616 L96.70903936306382 132.70061658979716 L88.70903936306382 125.77241335952166 L88.70903936306382 111.91600689897064" stroke-linecap="square"/>
		<path opacity="0.5" fill="orange" d="M33.28341352085977 127.91600689897064 L41.28341352085977 134.84421012924616 L41.28341352085977 148.70061658979716 L33.28341352085977 141.77241335952166 L33.28341352085977 127.91600689897064" stroke-linecap="square"/>
		<path opacity="0.5" fill="orange" d="M88.70903936306382 111.91600689897064 L33.28341352085977 127.91600689897064 L33.28341352085977 141.77241335952166 L88.70903936306382 125.77241335952166 L88.70903936306382 111.91600689897064" stroke-linecap="square"/>
		<path opacity="0.5" fill="orange" d="M96.70903936306382 118.84421012924616 L41.28341352085977 134.84421012924616 L41.28341352085977 148.70061658979716 L96.70903936306382 132.70061658979716 L96.70903936306382 118.84421012924616" stroke-linecap="square"/>
		<path opacity="0.5" fill="orange" d="M88.70903936306382 111.91600689897064 L96.70903936306382 118.84421012924616 L41.28341352085977 134.84421012924616 L33.28341352085977 127.91600689897064 L88.70903936306382 111.91600689897064" stroke-linecap="square"/>
		<path opacity="0.5" fill="orange" d="M88.70903936306382 125.77241335952166 L96.70903936306382 132.70061658979716 L41.28341352085977 148.70061658979716 L33.28341352085977 141.77241335952166 L88.70903936306382 125.77241335952166" stroke-linecap="square"/>
		<text style="fill:black;font-family:calibri;font-size:6" x="33.28341352085977" y="134.84421012924616" >16</text>
		<text style="fill:black;font-family:calibri;font-size:6" x="37.28341352085977" y="145.23651497465943" >16</text>
		<text style="fill:black;font-family:calibri;font-size:6" x="60.996226441961795" y="119.91600689897064" >64</text>

		<path opacity="0.75" fill="pink" d="M-10.226608675980003 137.07794105162603 L-7.726608675980003 139.2430045610871 L33.31506922282807 137.35957412236712 L-10.226608675980003 137.07794105162603"/>
		<path opacity="0.75" fill="pink" d="M-10.226608675980003 137.07794105162603 L-10.226608675980003 141.4080680705482 L33.31506922282807 137.35957412236712 L-10.226608675980003 137.07794105162603"/>
		<path opacity="0.75" fill="pink" d="M-7.726608675980003 139.2430045610871 L-7.726608675980003 143.57313158000932 L33.31506922282807 137.35957412236712 L-7.726608675980003 139.2430045610871"/>
		<path opacity="0.75" fill="pink" d="M-10.226608675980003 141.4080680705482 L-7.726608675980003 143.57313158000932 L33.31506922282807 137.35957412236712 L-10.226608675980003 141.4080680705482"/>

		<text style="fill:black;font-family:calibri;font-size:6" x="5.120617290289355" y="132.71875758699656" >[5,5]</text>
		<path opacity="0.75" fill="darkturquoise" d="M-10.226608675980003 137.07794105162603 L-7.726608675980003 139.2430045610871 L-7.726608675980003 143.57313158000932 L-10.226608675980003 141.4080680705482 L-10.226608675980003 137.07794105162603" stroke-linecap="square"/>
		<path opacity="0.75" fill="darkturquoise" d="M-37.939421597082 145.07794105162603 L-35.439421597082 147.2430045610871 L-35.439421597082 151.57313158000932 L-37.939421597082 149.4080680705482 L-37.939421597082 145.07794105162603" stroke-linecap="square"/>
		<path opacity="0.75" fill="darkturquoise" d="M-10.226608675980003 137.07794105162603 L-37.939421597082 145.07794105162603 L-37.939421597082 149.4080680705482 L-10.226608675980003 141.4080680705482 L-10.226608675980003 137.07794105162603" stroke-linecap="square"/>
		<path opacity="0.75" fill="darkturquoise" d="M-7.726608675980003 139.2430045610871 L-35.439421597082 147.2430045610871 L-35.439421597082 151.57313158000932 L-7.726608675980003 143.57313158000932 L-7.726608675980003 139.2430045610871" stroke-linecap="square"/>
		<path opacity="0.75" fill="darkturquoise" d="M-10.226608675980003 137.07794105162603 L-7.726608675980003 139.2430045610871 L-35.439421597082 147.2430045610871 L-37.939421597082 145.07794105162603 L-10.226608675980003 137.07794105162603" stroke-linecap="square"/>
		<path opacity="0.75" fill="darkturquoise" d="M-10.226608675980003 141.4080680705482 L-7.726608675980003 143.57313158000932 L-35.439421597082 151.57313158000932 L-37.939421597082 149.4080680705482 L-10.226608675980003 141.4080680705482" stroke-linecap="square"/>
		<path opacity="0.5" fill="orange" d="M-14.017856668362185 130.02370205355737 L1.9821433316378148 143.8801085141084 L1.9821433316378148 171.59292143521043 L-14.017856668362185 157.73651497465943 L-14.017856668362185 130.02370205355737" stroke-linecap="square"/>
		<path opacity="0.5" fill="orange" d="M-41.730669589464185 138.02370205355737 L-25.730669589464185 151.8801085141084 L-25.730669589464185 179.59292143521043 L-41.730669589464185 165.73651497465943 L-41.730669589464185 138.02370205355737" stroke-linecap="square"/>
		<path opacity="0.5" fill="orange" d="M-14.017856668362185 130.02370205355737 L-41.730669589464185 138.02370205355737 L-41.730669589464185 165.73651497465943 L-14.017856668362185 157.73651497465943 L-14.017856668362185 130.02370205355737" stroke-linecap="square"/>
		<path opacity="0.5" fill="orange" d="M1.9821433316378148 143.8801085141084 L-25.730669589464185 151.8801085141084 L-25.730669589464185 179.59292143521043 L1.9821433316378148 171.59292143521043 L1.9821433316378148 143.8801085141084" stroke-linecap="square"/>
		<path opacity="0.5" fill="orange" d="M-14.017856668362185 130.02370205355737 L1.9821433316378148 143.8801085141084 L-25.730669589464185 151.8801085141084 L-41.730669589464185 138.02370205355737 L-14.017856668362185 130.02370205355737" stroke-linecap="square"/>
		<path opacity="0.5" fill="orange" d="M-14.017856668362185 157.73651497465943 L1.9821433316378148 171.59292143521043 L-25.730669589464185 179.59292143521043 L-41.730669589464185 165.73651497465943 L-14.017856668362185 157.73651497465943" stroke-linecap="square"/>
		<text style="fill:black;font-family:calibri;font-size:6" x="-41.730669589464185" y="151.8801085141084" >32</text>
		<text style="fill:black;font-family:calibri;font-size:6" x="-33.730669589464185" y="172.66471820493493" >32</text>
		<text style="fill:black;font-family:calibri;font-size:6" x="-27.874263128913185" y="134.02370205355737" >32</text>

		<path opacity="0.5" fill="orange" d="M255.43593539448986 145.76983597145022 L259.4359353944899 149.23393758658796 L259.4359353944899 156.16214081686348 L255.43593539448986 152.69803920172572 L255.43593539448986 145.76983597145022" stroke-linecap="square"/>
		<path opacity="0.5" fill="orange" d="M200.01030955228578 161.76983597145022 L204.01030955228578 165.23393758658796 L204.01030955228578 172.16214081686348 L200.01030955228578 168.69803920172572 L200.01030955228578 161.76983597145022" stroke-linecap="square"/>
		<path opacity="0.5" fill="orange" d="M255.43593539448986 145.76983597145022 L200.01030955228578 161.76983597145022 L200.01030955228578 168.69803920172572 L255.43593539448986 152.69803920172572 L255.43593539448986 145.76983597145022" stroke-linecap="square"/>
		<path opacity="0.5" fill="orange" d="M259.4359353944899 149.23393758658796 L204.01030955228578 165.23393758658796 L204.01030955228578 172.16214081686348 L259.4359353944899 156.16214081686348 L259.4359353944899 149.23393758658796" stroke-linecap="square"/>
		<path opacity="0.5" fill="orange" d="M255.43593539448986 145.76983597145022 L259.4359353944899 149.23393758658796 L204.01030955228578 165.23393758658796 L200.01030955228578 161.76983597145022 L255.43593539448986 145.76983597145022" stroke-linecap="square"/>
		<path opacity="0.5" fill="orange" d="M255.43593539448986 152.69803920172572 L259.4359353944899 156.16214081686348 L204.01030955228578 172.16214081686348 L200.01030955228578 168.69803920172572 L255.43593539448986 152.69803920172572" stroke-linecap="square"/>
		<text style="fill:black;font-family:calibri;font-size:6" x="200.01030955228578" y="165.23393758658796" >8</text>
		<text style="fill:black;font-family:calibri;font-size:6" x="202.01030955228578" y="170.4300900092946" >8</text>
		<text style="fill:black;font-family:calibri;font-size:6" x="227.72312247338783" y="153.76983597145022" >64</text>

		<path opacity="0.75" fill="pink" d="M-82.35379367371502 163.34940863164297 L-77.35379367371502 167.67953565056519 L-37.27671662507163 147.45356910833556 L-82.35379367371502 163.34940863164297"/>
		<path opacity="0.75" fill="pink" d="M-82.35379367371502 163.34940863164297 L-82.35379367371502 172.00966266948737 L-37.27671662507163 147.45356910833556 L-82.35379367371502 163.34940863164297"/>
		<path opacity="0.75" fill="pink" d="M-77.35379367371502 167.67953565056519 L-77.35379367371502 176.33978968840955 L-37.27671662507163 147.45356910833556 L-77.35379367371502 167.67953565056519"/>
		<path opacity="0.75" fill="pink" d="M-82.35379367371502 172.00966266948737 L-77.35379367371502 176.33978968840955 L-37.27671662507163 147.45356910833556 L-82.35379367371502 172.00966266948737"/>

		<text style="fill:black;font-family:calibri;font-size:6" x="-65.66143465750055" y="150.90148886998927" >[10,10]</text>
		<path opacity="0.75" fill="pink" d="M156.0937467471231 178.884183025921 L158.5937467471231 181.0492465353821 L202.29319006257623 164.72580632969613 L156.0937467471231 178.884183025921"/>
		<path opacity="0.75" fill="pink" d="M156.0937467471231 178.884183025921 L156.0937467471231 183.21431004484322 L202.29319006257623 164.72580632969613 L156.0937467471231 178.884183025921"/>
		<path opacity="0.75" fill="pink" d="M158.5937467471231 181.0492465353821 L158.5937467471231 185.3793735543043 L202.29319006257623 164.72580632969613 L158.5937467471231 181.0492465353821"/>
		<path opacity="0.75" fill="pink" d="M156.0937467471231 183.21431004484322 L158.5937467471231 185.3793735543043 L202.29319006257623 164.72580632969613 L156.0937467471231 183.21431004484322"/>

		<text style="fill:black;font-family:calibri;font-size:6" x="172.3268945189408" y="167.30499467780857" >[5,5]</text>
		<path opacity="0.75" fill="darkturquoise" d="M-82.35379367371502 163.34940863164297 L-77.35379367371502 167.67953565056519 L-77.35379367371502 176.33978968840955 L-82.35379367371502 172.00966266948737 L-82.35379367371502 163.34940863164297" stroke-linecap="square"/>
		<path opacity="0.75" fill="darkturquoise" d="M-99.67430174940381 168.34940863164297 L-94.67430174940381 172.67953565056519 L-94.67430174940381 181.33978968840955 L-99.67430174940381 177.00966266948737 L-99.67430174940381 168.34940863164297" stroke-linecap="square"/>
		<path opacity="0.75" fill="darkturquoise" d="M-82.35379367371502 163.34940863164297 L-99.67430174940381 168.34940863164297 L-99.67430174940381 177.00966266948737 L-82.35379367371502 172.00966266948737 L-82.35379367371502 163.34940863164297" stroke-linecap="square"/>
		<path opacity="0.75" fill="darkturquoise" d="M-77.35379367371502 167.67953565056519 L-94.67430174940381 172.67953565056519 L-94.67430174940381 181.33978968840955 L-77.35379367371502 176.33978968840955 L-77.35379367371502 167.67953565056519" stroke-linecap="square"/>
		<path opacity="0.75" fill="darkturquoise" d="M-82.35379367371502 163.34940863164297 L-77.35379367371502 167.67953565056519 L-94.67430174940381 172.67953565056519 L-99.67430174940381 168.34940863164297 L-82.35379367371502 163.34940863164297" stroke-linecap="square"/>
		<path opacity="0.75" fill="darkturquoise" d="M-82.35379367371502 172.00966266948737 L-77.35379367371502 176.33978968840955 L-94.67430174940381 181.33978968840955 L-99.67430174940381 177.00966266948737 L-82.35379367371502 172.00966266948737" stroke-linecap="square"/>
		<path opacity="0.5" fill="lavender" d="M-85.03193977868614 150.52370205355737 L-69.03193977868614 164.3801085141084 L-69.03193977868614 192.09292143521043 L-85.03193977868614 178.23651497465943 L-85.03193977868614 150.52370205355737" stroke-linecap="square"/>
		<path opacity="0.5" fill="lavender" d="M-102.35244785437493 155.52370205355737 L-86.35244785437493 169.3801085141084 L-86.35244785437493 197.09292143521043 L-102.35244785437493 183.23651497465943 L-102.35244785437493 155.52370205355737" stroke-linecap="square"/>
		<path opacity="0.5" fill="lavender" d="M-85.03193977868614 150.52370205355737 L-102.35244785437493 155.52370205355737 L-102.35244785437493 183.23651497465943 L-85.03193977868614 178.23651497465943 L-85.03193977868614 150.52370205355737" stroke-linecap="square"/>
		<path opacity="0.5" fill="lavender" d="M-69.03193977868614 164.3801085141084 L-86.35244785437493 169.3801085141084 L-86.35244785437493 197.09292143521043 L-69.03193977868614 192.09292143521043 L-69.03193977868614 164.3801085141084" stroke-linecap="square"/>
		<path opacity="0.5" fill="lavender" d="M-85.03193977868614 150.52370205355737 L-69.03193977868614 164.3801085141084 L-86.35244785437493 169.3801085141084 L-102.35244785437493 155.52370205355737 L-85.03193977868614 150.52370205355737" stroke-linecap="square"/>
		<path opacity="0.5" fill="lavender" d="M-85.03193977868614 178.23651497465943 L-69.03193977868614 192.09292143521043 L-86.35244785437493 197.09292143521043 L-102.35244785437493 183.23651497465943 L-85.03193977868614 178.23651497465943" stroke-linecap="square"/>
		<text style="fill:black;font-family:calibri;font-size:6" x="-102.35244785437493" y="169.3801085141084" >32</text>
		<text style="fill:black;font-family:calibri;font-size:6" x="-94.35244785437493" y="190.16471820493493" >32</text>
		<text style="fill:black;font-family:calibri;font-size:6" x="-93.69219381653053" y="153.02370205355737" >20</text>

		<path opacity="0.75" fill="darkturquoise" d="M156.0937467471231 178.884183025921 L158.5937467471231 181.0492465353821 L158.5937467471231 185.3793735543043 L156.0937467471231 183.21431004484322 L156.0937467471231 178.884183025921" stroke-linecap="square"/>
		<path opacity="0.75" fill="darkturquoise" d="M100.66812090491905 194.884183025921 L103.16812090491905 197.0492465353821 L103.16812090491905 201.3793735543043 L100.66812090491905 199.21431004484322 L100.66812090491905 194.884183025921" stroke-linecap="square"/>
		<path opacity="0.75" fill="darkturquoise" d="M156.0937467471231 178.884183025921 L100.66812090491905 194.884183025921 L100.66812090491905 199.21431004484322 L156.0937467471231 183.21431004484322 L156.0937467471231 178.884183025921" stroke-linecap="square"/>
		<path opacity="0.75" fill="darkturquoise" d="M158.5937467471231 181.0492465353821 L103.16812090491905 197.0492465353821 L103.16812090491905 201.3793735543043 L158.5937467471231 185.3793735543043 L158.5937467471231 181.0492465353821" stroke-linecap="square"/>
		<path opacity="0.75" fill="darkturquoise" d="M156.0937467471231 178.884183025921 L158.5937467471231 181.0492465353821 L103.16812090491905 197.0492465353821 L100.66812090491905 194.884183025921 L156.0937467471231 178.884183025921" stroke-linecap="square"/>
		<path opacity="0.75" fill="darkturquoise" d="M156.0937467471231 183.21431004484322 L158.5937467471231 185.3793735543043 L103.16812090491905 201.3793735543043 L100.66812090491905 199.21431004484322 L156.0937467471231 183.21431004484322" stroke-linecap="square"/>
		<path opacity="0.5" fill="orange" d="M154.70903936306385 169.0736835487436 L162.70903936306385 176.0018867790191 L162.70903936306385 189.85829323957012 L154.70903936306385 182.9300900092946 L154.70903936306385 169.0736835487436" stroke-linecap="square"/>
		<path opacity="0.5" fill="orange" d="M99.2834135208598 185.0736835487436 L107.2834135208598 192.0018867790191 L107.2834135208598 205.85829323957012 L99.2834135208598 198.9300900092946 L99.2834135208598 185.0736835487436" stroke-linecap="square"/>
		<path opacity="0.5" fill="orange" d="M154.70903936306385 169.0736835487436 L99.2834135208598 185.0736835487436 L99.2834135208598 198.9300900092946 L154.70903936306385 182.9300900092946 L154.70903936306385 169.0736835487436" stroke-linecap="square"/>
		<path opacity="0.5" fill="orange" d="M162.70903936306385 176.0018867790191 L107.2834135208598 192.0018867790191 L107.2834135208598 205.85829323957012 L162.70903936306385 189.85829323957012 L162.70903936306385 176.0018867790191" stroke-linecap="square"/>
		<path opacity="0.5" fill="orange" d="M154.70903936306385 169.0736835487436 L162.70903936306385 176.0018867790191 L107.2834135208598 192.0018867790191 L99.2834135208598 185.0736835487436 L154.70903936306385 169.0736835487436" stroke-linecap="square"/>
		<path opacity="0.5" fill="orange" d="M154.70903936306385 182.9300900092946 L162.70903936306385 189.85829323957012 L107.2834135208598 205.85829323957012 L99.2834135208598 198.9300900092946 L154.70903936306385 182.9300900092946" stroke-linecap="square"/>
		<text style="fill:black;font-family:calibri;font-size:6" x="99.2834135208598" y="192.0018867790191" >16</text>
		<text style="fill:black;font-family:calibri;font-size:6" x="103.2834135208598" y="202.39419162443235" >16</text>
		<text style="fill:black;font-family:calibri;font-size:6" x="126.99622644196182" y="177.0736835487436" >64</text>

		<path opacity="0.75" fill="pink" d="M53.43975172989454 192.26443803289249 L55.93975172989454 194.4295015423536 L106.11405473588971 198.56968268679503 L53.43975172989454 192.26443803289249"/>
		<path opacity="0.75" fill="pink" d="M53.43975172989454 192.26443803289249 L53.43975172989454 196.59456505181467 L106.11405473588971 198.56968268679503 L53.43975172989454 192.26443803289249"/>
		<path opacity="0.75" fill="pink" d="M55.93975172989454 194.4295015423536 L55.93975172989454 198.75962856127578 L106.11405473588971 198.56968268679503 L55.93975172989454 194.4295015423536"/>
		<path opacity="0.75" fill="pink" d="M53.43975172989454 196.59456505181467 L55.93975172989454 198.75962856127578 L106.11405473588971 198.56968268679503 L53.43975172989454 196.59456505181467"/>

		<text style="fill:black;font-family:calibri;font-size:6" x="71.83118606522626" y="190.91706035984376" >[5,5]</text>
		<path opacity="0.75" fill="darkturquoise" d="M53.43975172989454 192.26443803289249 L55.93975172989454 194.4295015423536 L55.93975172989454 198.75962856127578 L53.43975172989454 196.59456505181467 L53.43975172989454 192.26443803289249" stroke-linecap="square"/>
		<path opacity="0.75" fill="darkturquoise" d="M25.72693880879254 200.26443803289249 L28.22693880879254 202.4295015423536 L28.22693880879254 206.75962856127578 L25.72693880879254 204.59456505181467 L25.72693880879254 200.26443803289249" stroke-linecap="square"/>
		<path opacity="0.75" fill="darkturquoise" d="M53.43975172989454 192.26443803289249 L25.72693880879254 200.26443803289249 L25.72693880879254 204.59456505181467 L53.43975172989454 196.59456505181467 L53.43975172989454 192.26443803289249" stroke-linecap="square"/>
		<path opacity="0.75" fill="darkturquoise" d="M55.93975172989454 194.4295015423536 L28.22693880879254 202.4295015423536 L28.22693880879254 206.75962856127578 L55.93975172989454 198.75962856127578 L55.93975172989454 194.4295015423536" stroke-linecap="square"/>
		<path opacity="0.75" fill="darkturquoise" d="M53.43975172989454 192.26443803289249 L55.93975172989454 194.4295015423536 L28.22693880879254 202.4295015423536 L25.72693880879254 200.26443803289249 L53.43975172989454 192.26443803289249" stroke-linecap="square"/>
		<path opacity="0.75" fill="darkturquoise" d="M53.43975172989454 196.59456505181467 L55.93975172989454 198.75962856127578 L28.22693880879254 206.75962856127578 L25.72693880879254 204.59456505181467 L53.43975172989454 196.59456505181467" stroke-linecap="square"/>
		<path opacity="0.5" fill="orange" d="M51.98214333163784 187.18137870333032 L67.98214333163784 201.03778516388132 L67.98214333163784 228.75059808498338 L51.98214333163784 214.89419162443238 L51.98214333163784 187.18137870333032" stroke-linecap="square"/>
		<path opacity="0.5" fill="orange" d="M24.269330410535844 195.18137870333032 L40.269330410535844 209.03778516388132 L40.269330410535844 236.75059808498338 L24.269330410535844 222.89419162443238 L24.269330410535844 195.18137870333032" stroke-linecap="square"/>
		<path opacity="0.5" fill="orange" d="M51.98214333163784 187.18137870333032 L24.269330410535844 195.18137870333032 L24.269330410535844 222.89419162443238 L51.98214333163784 214.89419162443238 L51.98214333163784 187.18137870333032" stroke-linecap="square"/>
		<path opacity="0.5" fill="orange" d="M67.98214333163784 201.03778516388132 L40.269330410535844 209.03778516388132 L40.269330410535844 236.75059808498338 L67.98214333163784 228.75059808498338 L67.98214333163784 201.03778516388132" stroke-linecap="square"/>
		<path opacity="0.5" fill="orange" d="M51.98214333163784 187.18137870333032 L67.98214333163784 201.03778516388132 L40.269330410535844 209.03778516388132 L24.269330410535844 195.18137870333032 L51.98214333163784 187.18137870333032" stroke-linecap="square"/>
		<path opacity="0.5" fill="orange" d="M51.98214333163784 214.89419162443238 L67.98214333163784 228.75059808498338 L40.269330410535844 236.75059808498338 L24.269330410535844 222.89419162443238 L51.98214333163784 214.89419162443238" stroke-linecap="square"/>
		<text style="fill:black;font-family:calibri;font-size:6" x="24.269330410535844" y="209.03778516388135" >32</text>
		<text style="fill:black;font-family:calibri;font-size:6" x="32.269330410535844" y="229.82239485470788" >32</text>
		<text style="fill:black;font-family:calibri;font-size:6" x="38.12573687108684" y="191.18137870333032" >32</text>

		<path opacity="0.75" fill="pink" d="M-17.5592278343521 214.94611787510925 L-12.5592278343521 219.27624489403144 L33.814967132526675 221.19533494624662 L-17.5592278343521 214.94611787510925"/>
		<path opacity="0.75" fill="pink" d="M-17.5592278343521 214.94611787510925 L-17.5592278343521 223.60637191295365 L33.814967132526675 221.19533494624662 L-17.5592278343521 214.94611787510925"/>
		<path opacity="0.75" fill="pink" d="M-12.5592278343521 219.27624489403144 L-12.5592278343521 227.93649893187583 L33.814967132526675 221.19533494624662 L-12.5592278343521 219.27624489403144"/>
		<path opacity="0.75" fill="pink" d="M-17.5592278343521 223.60637191295365 L-12.5592278343521 227.93649893187583 L33.814967132526675 221.19533494624662 L-17.5592278343521 223.60637191295365"/>

		<text style="fill:black;font-family:calibri;font-size:6" x="1.2321704879408248" y="213.57072641067793" >[10,10]</text>
		<path opacity="0.75" fill="darkturquoise" d="M-17.5592278343521 214.94611787510925 L-12.5592278343521 219.27624489403144 L-12.5592278343521 227.93649893187583 L-17.5592278343521 223.60637191295365 L-17.5592278343521 214.94611787510925" stroke-linecap="square"/>
		<path opacity="0.75" fill="darkturquoise" d="M-34.879735910040836 219.94611787510925 L-29.879735910040836 224.27624489403144 L-29.879735910040836 232.9364989318758 L-34.879735910040836 228.60637191295365 L-34.879735910040836 219.94611787510925" stroke-linecap="square"/>
		<path opacity="0.75" fill="darkturquoise" d="M-17.5592278343521 214.94611787510925 L-34.879735910040836 219.94611787510925 L-34.879735910040836 228.60637191295365 L-17.5592278343521 223.60637191295365 L-17.5592278343521 214.94611787510925" stroke-linecap="square"/>
		<path opacity="0.75" fill="darkturquoise" d="M-12.5592278343521 219.27624489403144 L-29.879735910040836 224.27624489403144 L-29.879735910040836 232.9364989318758 L-12.5592278343521 227.93649893187583 L-12.5592278343521 219.27624489403144" stroke-linecap="square"/>
		<path opacity="0.75" fill="darkturquoise" d="M-17.5592278343521 214.94611787510925 L-12.5592278343521 219.27624489403144 L-29.879735910040836 224.27624489403144 L-34.879735910040836 219.94611787510925 L-17.5592278343521 214.94611787510925" stroke-linecap="square"/>
		<path opacity="0.75" fill="darkturquoise" d="M-17.5592278343521 223.60637191295365 L-12.5592278343521 227.93649893187583 L-29.879735910040836 232.9364989318758 L-34.879735910040836 228.60637191295365 L-17.5592278343521 223.60637191295365" stroke-linecap="square"/>
		<path opacity="0.5" fill="lavender" d="M-19.031939778686137 207.68137870333032 L-3.0319397786861373 221.53778516388132 L-3.0319397786861373 249.25059808498338 L-19.031939778686137 235.39419162443238 L-19.031939778686137 207.68137870333032" stroke-linecap="square"/>
		<path opacity="0.5" fill="lavender" d="M-36.35244785437487 212.68137870333032 L-20.352447854374873 226.53778516388132 L-20.352447854374873 254.25059808498338 L-36.35244785437487 240.39419162443238 L-36.35244785437487 212.68137870333032" stroke-linecap="square"/>
		<path opacity="0.5" fill="lavender" d="M-19.031939778686137 207.68137870333032 L-36.35244785437487 212.68137870333032 L-36.35244785437487 240.39419162443238 L-19.031939778686137 235.39419162443238 L-19.031939778686137 207.68137870333032" stroke-linecap="square"/>
		<path opacity="0.5" fill="lavender" d="M-3.0319397786861373 221.53778516388132 L-20.352447854374873 226.53778516388132 L-20.352447854374873 254.25059808498338 L-3.0319397786861373 249.25059808498338 L-3.0319397786861373 221.53778516388132" stroke-linecap="square"/>
		<path opacity="0.5" fill="lavender" d="M-19.031939778686137 207.68137870333032 L-3.0319397786861373 221.53778516388132 L-20.352447854374873 226.53778516388132 L-36.35244785437487 212.68137870333032 L-19.031939778686137 207.68137870333032" stroke-linecap="square"/>
		<path opacity="0.5" fill="lavender" d="M-19.031939778686137 235.39419162443238 L-3.0319397786861373 249.25059808498338 L-20.352447854374873 254.25059808498338 L-36.35244785437487 240.39419162443238 L-19.031939778686137 235.39419162443238" stroke-linecap="square"/>
		<text style="fill:black;font-family:calibri;font-size:6" x="-36.35244785437487" y="226.53778516388135" >32</text>
		<text style="fill:black;font-family:calibri;font-size:6" x="-28.352447854374873" y="247.32239485470788" >32</text>
		<text style="fill:black;font-family:calibri;font-size:6" x="-27.692193816530505" y="210.18137870333032" >20</text>

	 </g>
</svg>