<svg width="549.4024293495611px" height="445.8428289111416px" viewBox="-226.9512146747806 -295.6714144555708 549.4024293495611 445.8428289111416" xmlns="http://www.w3.org/2000/svg">
	<g stroke="black" stroke-width="0.3">
		<path opacity="0.75" fill="darkturquoise" d="M317.45121467478054 -289.6714144555708 L322.45121467478054 -285.3412874366486 L322.45121467478054 147.67141445557078 L317.45121467478054 143.34128743664857 L317.45121467478054 -289.6714144555708"/>
		<path opacity="0.75" fill="darkturquoise" d="M308.7909606369362 -287.1714144555708 L313.7909606369362 -282.8412874366486 L313.7909606369362 150.17141445557078 L308.7909606369362 145.84128743664857 L308.7909606369362 -287.1714144555708"/>
		<path opacity="0.75" fill="darkturquoise" d="M317.45121467478054 -289.6714144555708 L308.7909606369362 -287.1714144555708 L308.7909606369362 145.84128743664857 L317.45121467478054 143.34128743664857 L317.45121467478054 -289.6714144555708"/>
		<path opacity="0.75" fill="darkturquoise" d="M322.45121467478054 -285.3412874366486 L313.7909606369362 -282.8412874366486 L313.7909606369362 150.17141445557078 L322.45121467478054 147.67141445557078 L322.45121467478054 -285.3412874366486"/>
		<path opacity="0.75" fill="darkturquoise" d="M317.45121467478054 -289.6714144555708 L322.45121467478054 -285.3412874366486 L313.7909606369362 -282.8412874366486 L308.7909606369362 -287.1714144555708 L317.45121467478054 -289.6714144555708"/>
		<path opacity="0.75" fill="darkturquoise" d="M317.45121467478054 143.34128743664857 L322.45121467478054 147.67141445557078 L313.7909606369362 150.17141445557078 L308.7909606369362 145.84128743664857 L317.45121467478054 143.34128743664857"/>
		<text style="fill:black;font-family:calibri;font-size:6" x="308.7909606369362" y="-70.66506350946112" >500</text>
		<text style="fill:black;font-family:calibri;font-size:6" x="311.2909606369362" y="148.00635094610968" >10</text>
		<text style="fill:black;font-family:calibri;font-size:6" x="313.12108765585833" y="-288.4214144555708" >10</text>

<!-- Arrow -->
		<path opacity="0.5" stroke="black" d="M267.9896904477142 -56.0 L311.2909606369362 -68.5"/>
		<circle opacity="0.5" cx="311.2909606369362" cy="-68.5" r="1" fill="black" />
		<path opacity="0.75" fill="darkturquoise" d="M265.4896904477142 -231.37014426634886 L270.4896904477142 -227.04001724742665 L270.4896904477142 119.37014426634886 L265.4896904477142 115.04001724742665 L265.4896904477142 -231.37014426634886"/>
		<path opacity="0.75" fill="darkturquoise" d="M256.82943640986986 -228.87014426634886 L261.82943640986986 -224.54001724742665 L261.82943640986986 121.87014426634886 L256.82943640986986 117.54001724742665 L256.82943640986986 -228.87014426634886"/>
		<path opacity="0.75" fill="darkturquoise" d="M265.4896904477142 -231.37014426634886 L256.82943640986986 -228.87014426634886 L256.82943640986986 117.54001724742665 L265.4896904477142 115.04001724742665 L265.4896904477142 -231.37014426634886"/>
		<path opacity="0.75" fill="darkturquoise" d="M270.4896904477142 -227.04001724742665 L261.82943640986986 -224.54001724742665 L261.82943640986986 121.87014426634886 L270.4896904477142 119.37014426634886 L270.4896904477142 -227.04001724742665"/>
		<path opacity="0.75" fill="darkturquoise" d="M265.4896904477142 -231.37014426634886 L270.4896904477142 -227.04001724742665 L261.82943640986986 -224.54001724742665 L256.82943640986986 -228.87014426634886 L265.4896904477142 -231.37014426634886"/>
		<path opacity="0.75" fill="darkturquoise" d="M265.4896904477142 115.04001724742665 L270.4896904477142 119.37014426634886 L261.82943640986986 121.87014426634886 L256.82943640986986 117.54001724742665 L265.4896904477142 115.04001724742665"/>
		<text style="fill:black;font-family:calibri;font-size:6" x="256.82943640986986" y="-55.665063509461106" >400</text>
		<text style="fill:black;font-family:calibri;font-size:6" x="259.32943640986986" y="119.70508075688775" >10</text>
		<text style="fill:black;font-family:calibri;font-size:6" x="261.159563428792" y="-230.12014426634886" >10</text>

		<path opacity="0.75" fill="darkturquoise" d="M265.4896904477142 -231.37014426634886 L270.4896904477142 -227.04001724742665 L270.4896904477142 119.37014426634886 L265.4896904477142 115.04001724742665 L265.4896904477142 -231.37014426634886"/>
		<path opacity="0.75" fill="darkturquoise" d="M256.82943640986986 -228.87014426634886 L261.82943640986986 -224.54001724742665 L261.82943640986986 121.87014426634886 L256.82943640986986 117.54001724742665 L256.82943640986986 -228.87014426634886"/>
		<path opacity="0.75" fill="darkturquoise" d="M265.4896904477142 -231.37014426634886 L256.82943640986986 -228.87014426634886 L256.82943640986986 117.54001724742665 L265.4896904477142 115.04001724742665 L265.4896904477142 -231.37014426634886"/>
		<path opacity="0.75" fill="darkturquoise" d="M270.4896904477142 -227.04001724742665 L261.82943640986986 -224.54001724742665 L261.82943640986986 121.87014426634886 L270.4896904477142 119.37014426634886 L270.4896904477142 -227.04001724742665"/>
		<path opacity="0.75" fill="darkturquoise" d="M265.4896904477142 -231.37014426634886 L270.4896904477142 -227.04001724742665 L261.82943640986986 -224.54001724742665 L256.82943640986986 -228.87014426634886 L265.4896904477142 -231.37014426634886"/>
		<path opacity="0.75" fill="darkturquoise" d="M265.4896904477142 115.04001724742665 L270.4896904477142 119.37014426634886 L261.82943640986986 121.87014426634886 L256.82943640986986 117.54001724742665 L265.4896904477142 115.04001724742665"/>
		<text style="fill:black;font-family:calibri;font-size:6" x="256.82943640986986" y="-55.665063509461106" >400</text>
		<text style="fill:black;font-family:calibri;font-size:6" x="259.32943640986986" y="119.70508075688775" >10</text>
		<text style="fill:black;font-family:calibri;font-size:6" x="261.159563428792" y="-230.12014426634886" >10</text>

<!-- Arrow -->
		<path opacity="0.5" stroke="black" d="M216.02816622064793 -41.0 L259.32943640986986 -53.5"/>
		<circle opacity="0.5" cx="259.32943640986986" cy="-53.5" r="1" fill="black" />
		<path opacity="0.75" fill="darkturquoise" d="M213.52816622064793 -173.0688740771269 L218.52816622064793 -168.7387470582047 L218.52816622064793 91.0688740771269 L213.52816622064793 86.73874705820471 L213.52816622064793 -173.0688740771269"/>
		<path opacity="0.75" fill="darkturquoise" d="M204.86791218280354 -170.5688740771269 L209.86791218280354 -166.2387470582047 L209.86791218280354 93.5688740771269 L204.86791218280354 89.23874705820471 L204.86791218280354 -170.5688740771269"/>
		<path opacity="0.75" fill="darkturquoise" d="M213.52816622064793 -173.0688740771269 L204.86791218280354 -170.5688740771269 L204.86791218280354 89.23874705820471 L213.52816622064793 86.73874705820471 L213.52816622064793 -173.0688740771269"/>
		<path opacity="0.75" fill="darkturquoise" d="M218.52816622064793 -168.7387470582047 L209.86791218280354 -166.2387470582047 L209.86791218280354 93.5688740771269 L218.52816622064793 91.0688740771269 L218.52816622064793 -168.7387470582047"/>
		<path opacity="0.75" fill="darkturquoise" d="M213.52816622064793 -173.0688740771269 L218.52816622064793 -168.7387470582047 L209.86791218280354 -166.2387470582047 L204.86791218280354 -170.5688740771269 L213.52816622064793 -173.0688740771269"/>
		<path opacity="0.75" fill="darkturquoise" d="M213.52816622064793 86.73874705820471 L218.52816622064793 91.0688740771269 L209.86791218280354 93.5688740771269 L204.86791218280354 89.23874705820471 L213.52816622064793 86.73874705820471"/>
		<text style="fill:black;font-family:calibri;font-size:6" x="204.86791218280354" y="-40.6650635094611" >300</text>
		<text style="fill:black;font-family:calibri;font-size:6" x="207.36791218280354" y="91.4038105676658" >10</text>
		<text style="fill:black;font-family:calibri;font-size:6" x="209.19803920172575" y="-171.8188740771269" >10</text>

		<path opacity="0.75" fill="darkturquoise" d="M213.52816622064793 -173.0688740771269 L218.52816622064793 -168.7387470582047 L218.52816622064793 91.0688740771269 L213.52816622064793 86.73874705820471 L213.52816622064793 -173.0688740771269"/>
		<path opacity="0.75" fill="darkturquoise" d="M204.86791218280354 -170.5688740771269 L209.86791218280354 -166.2387470582047 L209.86791218280354 93.5688740771269 L204.86791218280354 89.23874705820471 L204.86791218280354 -170.5688740771269"/>
		<path opacity="0.75" fill="darkturquoise" d="M213.52816622064793 -173.0688740771269 L204.86791218280354 -170.5688740771269 L204.86791218280354 89.23874705820471 L213.52816622064793 86.73874705820471 L213.52816622064793 -173.0688740771269"/>
		<path opacity="0.75" fill="darkturquoise" d="M218.52816622064793 -168.7387470582047 L209.86791218280354 -166.2387470582047 L209.86791218280354 93.5688740771269 L218.52816622064793 91.0688740771269 L218.52816622064793 -168.7387470582047"/>
		<path opacity="0.75" fill="darkturquoise" d="M213.52816622064793 -173.0688740771269 L218.52816622064793 -168.7387470582047 L209.86791218280354 -166.2387470582047 L204.86791218280354 -170.5688740771269 L213.52816622064793 -173.0688740771269"/>
		<path opacity="0.75" fill="darkturquoise" d="M213.52816622064793 86.73874705820471 L218.52816622064793 91.0688740771269 L209.86791218280354 93.5688740771269 L204.86791218280354 89.23874705820471 L213.52816622064793 86.73874705820471"/>
		<text style="fill:black;font-family:calibri;font-size:6" x="204.86791218280354" y="-40.6650635094611" >300</text>
		<text style="fill:black;font-family:calibri;font-size:6" x="207.36791218280354" y="91.4038105676658" >10</text>
		<text style="fill:black;font-family:calibri;font-size:6" x="209.19803920172575" y="-171.8188740771269" >10</text>

<!-- Arrow -->
		<path opacity="0.5" stroke="black" d="M75.10511776651529 -43.042939940024226 L155.40638795573722 -23.499999999999996"/>
		<circle opacity="0.5" cx="155.40638795573722" cy="-23.499999999999996" r="1" fill="black" />
		<path opacity="0.5" fill="orange" d="M72.10511776651529 -49.1051177665153 L78.10511776651529 -43.90896534380867 L78.10511776651529 -36.98076211353316 L72.10511776651529 -42.17691453623979 L72.10511776651529 -49.1051177665153"/>
		<path opacity="0.5" fill="orange" d="M9.751288694035708 -31.1051177665153 L15.751288694035708 -25.908965343808667 L15.751288694035708 -18.980762113533157 L9.751288694035708 -24.17691453623979 L9.751288694035708 -31.1051177665153"/>
		<path opacity="0.5" fill="orange" d="M72.10511776651529 -49.1051177665153 L9.751288694035708 -31.1051177665153 L9.751288694035708 -24.17691453623979 L72.10511776651529 -42.17691453623979 L72.10511776651529 -49.1051177665153"/>
		<path opacity="0.5" fill="orange" d="M78.10511776651529 -43.90896534380867 L15.751288694035708 -25.908965343808667 L15.751288694035708 -18.980762113533157 L78.10511776651529 -36.98076211353316 L78.10511776651529 -43.90896534380867"/>
		<path opacity="0.5" fill="orange" d="M72.10511776651529 -49.1051177665153 L78.10511776651529 -43.90896534380867 L15.751288694035708 -25.908965343808667 L9.751288694035708 -31.1051177665153 L72.10511776651529 -49.1051177665153"/>
		<path opacity="0.5" fill="orange" d="M72.10511776651529 -42.17691453623979 L78.10511776651529 -36.98076211353316 L15.751288694035708 -18.980762113533157 L9.751288694035708 -24.17691453623979 L72.10511776651529 -42.17691453623979"/>
		<text style="fill:black;font-family:calibri;font-size:6" x="9.751288694035708" y="-27.641016151377542" >8</text>
		<text style="fill:black;font-family:calibri;font-size:6" x="12.751288694035708" y="-21.578838324886473" >12</text>
		<text style="fill:black;font-family:calibri;font-size:6" x="40.9282032302755" y="-40.1051177665153" >72</text>

<!-- Arrow -->
		<path opacity="0.5" stroke="black" d="M164.0666419935816 -25.999999999999996 L207.36791218280354 -38.5"/>
		<circle opacity="0.5" cx="207.36791218280354" cy="-38.5" r="1" fill="black" />
		<path opacity="0.75" fill="darkturquoise" d="M161.5666419935816 -114.76760388790497 L166.5666419935816 -110.43747686898278 L166.5666419935816 62.76760388790497 L161.5666419935816 58.437476868982785 L161.5666419935816 -114.76760388790497"/>
		<path opacity="0.75" fill="darkturquoise" d="M152.90638795573722 -112.26760388790497 L157.90638795573722 -107.93747686898278 L157.90638795573722 65.26760388790497 L152.90638795573722 60.937476868982785 L152.90638795573722 -112.26760388790497"/>
		<path opacity="0.75" fill="darkturquoise" d="M161.5666419935816 -114.76760388790497 L152.90638795573722 -112.26760388790497 L152.90638795573722 60.937476868982785 L161.5666419935816 58.437476868982785 L161.5666419935816 -114.76760388790497"/>
		<path opacity="0.75" fill="darkturquoise" d="M166.5666419935816 -110.43747686898278 L157.90638795573722 -107.93747686898278 L157.90638795573722 65.26760388790497 L166.5666419935816 62.76760388790497 L166.5666419935816 -110.43747686898278"/>
		<path opacity="0.75" fill="darkturquoise" d="M161.5666419935816 -114.76760388790497 L166.5666419935816 -110.43747686898278 L157.90638795573722 -107.93747686898278 L152.90638795573722 -112.26760388790497 L161.5666419935816 -114.76760388790497"/>
		<path opacity="0.75" fill="darkturquoise" d="M161.5666419935816 58.437476868982785 L166.5666419935816 62.76760388790497 L157.90638795573722 65.26760388790497 L152.90638795573722 60.937476868982785 L161.5666419935816 58.437476868982785"/>
		<text style="fill:black;font-family:calibri;font-size:6" x="152.90638795573722" y="-25.665063509461092" >200</text>
		<text style="fill:black;font-family:calibri;font-size:6" x="155.40638795573722" y="63.10254037844388" >10</text>
		<text style="fill:black;font-family:calibri;font-size:6" x="157.23651497465943" y="-113.51760388790497" >10</text>

		<path opacity="0.75" fill="darkturquoise" d="M161.5666419935816 -114.76760388790497 L166.5666419935816 -110.43747686898278 L166.5666419935816 62.76760388790497 L161.5666419935816 58.437476868982785 L161.5666419935816 -114.76760388790497"/>
		<path opacity="0.75" fill="darkturquoise" d="M152.90638795573722 -112.26760388790497 L157.90638795573722 -107.93747686898278 L157.90638795573722 65.26760388790497 L152.90638795573722 60.937476868982785 L152.90638795573722 -112.26760388790497"/>
		<path opacity="0.75" fill="darkturquoise" d="M161.5666419935816 -114.76760388790497 L152.90638795573722 -112.26760388790497 L152.90638795573722 60.937476868982785 L161.5666419935816 58.437476868982785 L161.5666419935816 -114.76760388790497"/>
		<path opacity="0.75" fill="darkturquoise" d="M166.5666419935816 -110.43747686898278 L157.90638795573722 -107.93747686898278 L157.90638795573722 65.26760388790497 L166.5666419935816 62.76760388790497 L166.5666419935816 -110.43747686898278"/>
		<path opacity="0.75" fill="darkturquoise" d="M161.5666419935816 -114.76760388790497 L166.5666419935816 -110.43747686898278 L157.90638795573722 -107.93747686898278 L152.90638795573722 -112.26760388790497 L161.5666419935816 -114.76760388790497"/>
		<path opacity="0.75" fill="darkturquoise" d="M161.5666419935816 58.437476868982785 L166.5666419935816 62.76760388790497 L157.90638795573722 65.26760388790497 L152.90638795573722 60.937476868982785 L161.5666419935816 58.437476868982785"/>
		<text style="fill:black;font-family:calibri;font-size:6" x="152.90638795573722" y="-25.665063509461092" >200</text>
		<text style="fill:black;font-family:calibri;font-size:6" x="155.40638795573722" y="63.10254037844388" >10</text>
		<text style="fill:black;font-family:calibri;font-size:6" x="157.23651497465943" y="-113.51760388790497" >10</text>

		<path opacity="0.75" fill="pink" d="M-30.14036197800067 -17.880411115529796 L-25.140361978000684 -13.550284096607612 L12.147602140049742 -28.195158544626864 L-30.14036197800067 -17.880411115529796"/>
		<path opacity="0.75" fill="pink" d="M-30.14036197800067 -17.880411115529796 L-30.14036197800067 -9.220157077685414 L12.147602140049742 -28.195158544626864 L-30.14036197800067 -17.880411115529796"/>
		<path opacity="0.75" fill="pink" d="M-25.140361978000684 -13.550284096607612 L-25.140361978000684 -4.890030058763223 L12.147602140049742 -28.195158544626864 L-25.140361978000684 -13.550284096607612"/>
		<path opacity="0.75" fill="pink" d="M-30.14036197800067 -9.220157077685414 L-25.140361978000684 -4.890030058763223 L12.147602140049742 -28.195158544626864 L-30.14036197800067 -9.220157077685414"/>

		<path opacity="0.75" fill="darkturquoise" d="M-30.14036197800067 -17.880411115529796 L-25.140361978000684 -13.550284096607612 L-25.140361978000684 -4.890030058763223 L-30.14036197800067 -9.220157077685414 L-30.14036197800067 -17.880411115529796"/>
		<path opacity="0.75" fill="darkturquoise" d="M-85.56598782020475 -1.880411115529796 L-80.56598782020475 2.449715903392388 L-80.56598782020475 11.109969941236777 L-85.56598782020475 6.779842922314586 L-85.56598782020475 -1.880411115529796"/>
		<path opacity="0.75" fill="darkturquoise" d="M-30.14036197800067 -17.880411115529796 L-85.56598782020475 -1.880411115529796 L-85.56598782020475 6.779842922314586 L-30.14036197800067 -9.220157077685414 L-30.14036197800067 -17.880411115529796"/>
		<path opacity="0.75" fill="darkturquoise" d="M-25.140361978000684 -13.550284096607612 L-80.56598782020475 2.449715903392388 L-80.56598782020475 11.109969941236777 L-25.140361978000684 -4.890030058763223 L-25.140361978000684 -13.550284096607612"/>
		<path opacity="0.75" fill="darkturquoise" d="M-30.14036197800067 -17.880411115529796 L-25.140361978000684 -13.550284096607612 L-80.56598782020475 2.449715903392388 L-85.56598782020475 -1.880411115529796 L-30.14036197800067 -17.880411115529796"/>
		<path opacity="0.75" fill="darkturquoise" d="M-30.14036197800067 -9.220157077685414 L-25.140361978000684 -4.890030058763223 L-80.56598782020475 11.109969941236777 L-85.56598782020475 6.779842922314586 L-30.14036197800067 -9.220157077685414"/>
		<text style="fill:black;font-family:calibri;font-size:6" x="-85.56598782020475" y="2.449715903392395" >10</text>
		<text style="fill:black;font-family:calibri;font-size:6" x="-83.06598782020475" y="8.944906431775681" >10</text>
		<text style="fill:black;font-family:calibri;font-size:6" x="-57.85317489910271" y="-9.880411115529796" >64</text>

		<path opacity="0.5" fill="orange" d="M-36.549981495186216 -24.667295593006365 L-24.549981495186216 -14.274990747593101 L-24.549981495186216 -0.4185842870420835 L-36.549981495186216 -10.810889132455348 L-36.549981495186216 -24.667295593006365"/>
		<path opacity="0.5" fill="orange" d="M-91.9756073373903 -8.667295593006365 L-79.9756073373903 1.725009252406899 L-79.9756073373903 15.581415712957916 L-91.9756073373903 5.1891108675446525 L-91.9756073373903 -8.667295593006365"/>
		<path opacity="0.5" fill="orange" d="M-36.549981495186216 -24.667295593006365 L-91.9756073373903 -8.667295593006365 L-91.9756073373903 5.1891108675446525 L-36.549981495186216 -10.810889132455348 L-36.549981495186216 -24.667295593006365"/>
		<path opacity="0.5" fill="orange" d="M-24.549981495186216 -14.274990747593101 L-79.9756073373903 1.725009252406899 L-79.9756073373903 15.581415712957916 L-24.549981495186216 -0.4185842870420835 L-24.549981495186216 -14.274990747593101"/>
		<path opacity="0.5" fill="orange" d="M-36.549981495186216 -24.667295593006365 L-24.549981495186216 -14.274990747593101 L-79.9756073373903 1.725009252406899 L-91.9756073373903 -8.667295593006365 L-36.549981495186216 -24.667295593006365"/>
		<path opacity="0.5" fill="orange" d="M-36.549981495186216 -10.810889132455348 L-24.549981495186216 -0.4185842870420835 L-79.9756073373903 15.581415712957916 L-91.9756073373903 5.1891108675446525 L-36.549981495186216 -10.810889132455348"/>
		<text style="fill:black;font-family:calibri;font-size:6" x="-91.9756073373903" y="-1.7390923627308563" >16</text>
		<text style="fill:black;font-family:calibri;font-size:6" x="-85.9756073373903" y="10.385263290251284" >24</text>
		<text style="fill:black;font-family:calibri;font-size:6" x="-64.26279441628826" y="-16.667295593006365" >64</text>

<!-- Arrow -->
		<path opacity="0.5" stroke="black" d="M149.10511776651532 21.042939940024226 L155.40638795573722 -23.499999999999996"/>
		<circle opacity="0.5" cx="155.40638795573722" cy="-23.499999999999996" r="1" fill="black" />
		<path opacity="0.75" fill="pink" d="M-132.08429113319025 1.3485116793281051 L-129.58429113319025 3.513575188789197 L-87.92358853426288 -1.4561086790452862 L-132.08429113319025 1.3485116793281051"/>
		<path opacity="0.75" fill="pink" d="M-132.08429113319025 1.3485116793281051 L-132.08429113319025 5.678638698250296 L-87.92358853426288 -1.4561086790452862 L-132.08429113319025 1.3485116793281051"/>
		<path opacity="0.75" fill="pink" d="M-129.58429113319025 3.513575188789197 L-129.58429113319025 7.843702207711388 L-87.92358853426288 -1.4561086790452862 L-129.58429113319025 3.513575188789197"/>
		<path opacity="0.75" fill="pink" d="M-132.08429113319025 5.678638698250296 L-129.58429113319025 7.843702207711388 L-87.92358853426288 -1.4561086790452862 L-132.08429113319025 5.678638698250296"/>

		<path opacity="0.75" fill="darkturquoise" d="M-132.08429113319025 1.3485116793281051 L-129.58429113319025 3.513575188789197 L-129.58429113319025 7.843702207711388 L-132.08429113319025 5.678638698250296 L-132.08429113319025 1.3485116793281051"/>
		<path opacity="0.75" fill="darkturquoise" d="M-159.79710405429228 9.348511679328105 L-157.29710405429228 11.513575188789197 L-157.29710405429228 15.843702207711388 L-159.79710405429228 13.678638698250296 L-159.79710405429228 9.348511679328105"/>
		<path opacity="0.75" fill="darkturquoise" d="M-132.08429113319025 1.3485116793281051 L-159.79710405429228 9.348511679328105 L-159.79710405429228 13.678638698250296 L-132.08429113319025 5.678638698250296 L-132.08429113319025 1.3485116793281051"/>
		<path opacity="0.75" fill="darkturquoise" d="M-129.58429113319025 3.513575188789197 L-157.29710405429228 11.513575188789197 L-157.29710405429228 15.843702207711388 L-129.58429113319025 7.843702207711388 L-129.58429113319025 3.513575188789197"/>
		<path opacity="0.75" fill="darkturquoise" d="M-132.08429113319025 1.3485116793281051 L-129.58429113319025 3.513575188789197 L-157.29710405429228 11.513575188789197 L-159.79710405429228 9.348511679328105 L-132.08429113319025 1.3485116793281051"/>
		<path opacity="0.75" fill="darkturquoise" d="M-132.08429113319025 5.678638698250296 L-129.58429113319025 7.843702207711388 L-157.29710405429228 15.843702207711388 L-159.79710405429228 13.678638698250296 L-132.08429113319025 5.678638698250296"/>
		<text style="fill:black;font-family:calibri;font-size:6" x="-159.79710405429228" y="11.5135751887892" >5</text>
		<text style="fill:black;font-family:calibri;font-size:6" x="-158.54710405429228" y="14.761170452980842" >5</text>
		<text style="fill:black;font-family:calibri;font-size:6" x="-145.94069759374128" y="5.348511679328105" >32</text>

		<path opacity="0.5" fill="orange" d="M-141.27687752661222 -8.291651245988504 L-117.27687752661222 12.492958444838017 L-117.27687752661222 40.20577136594006 L-141.27687752661222 19.421161675113538 L-141.27687752661222 -8.291651245988504"/>
		<path opacity="0.5" fill="orange" d="M-168.98969044771428 -0.2916512459885041 L-144.98969044771425 20.492958444838017 L-144.98969044771425 48.20577136594006 L-168.98969044771428 27.421161675113538 L-168.98969044771428 -0.2916512459885041"/>
		<path opacity="0.5" fill="orange" d="M-141.27687752661222 -8.291651245988504 L-168.98969044771428 -0.2916512459885041 L-168.98969044771428 27.421161675113538 L-141.27687752661222 19.421161675113538 L-141.27687752661222 -8.291651245988504"/>
		<path opacity="0.5" fill="orange" d="M-117.27687752661222 12.492958444838017 L-144.98969044771425 20.492958444838017 L-144.98969044771425 48.20577136594006 L-117.27687752661222 40.20577136594006 L-117.27687752661222 12.492958444838017"/>
		<path opacity="0.5" fill="orange" d="M-141.27687752661222 -8.291651245988504 L-117.27687752661222 12.492958444838017 L-144.98969044771425 20.492958444838017 L-168.98969044771428 -0.2916512459885041 L-141.27687752661222 -8.291651245988504"/>
		<path opacity="0.5" fill="orange" d="M-141.27687752661222 19.421161675113538 L-117.27687752661222 40.20577136594006 L-144.98969044771425 48.20577136594006 L-168.98969044771428 27.421161675113538 L-141.27687752661222 19.421161675113538"/>
		<text style="fill:black;font-family:calibri;font-size:6" x="-168.98969044771428" y="13.564755214562517" >32</text>
		<text style="fill:black;font-family:calibri;font-size:6" x="-156.98969044771428" y="37.8134665205268" >48</text>
		<text style="fill:black;font-family:calibri;font-size:6" x="-155.13328398716325" y="-4.291651245988504" >32</text>

		<path opacity="0.75" fill="pink" d="M-211.6903413392538 22.16732291249845 L-206.6903413392538 26.49744993142064 L-164.7559465428682 24.407114396101093 L-211.6903413392538 22.16732291249845"/>
		<path opacity="0.75" fill="pink" d="M-211.6903413392538 22.16732291249845 L-211.6903413392538 30.827576950342838 L-164.7559465428682 24.407114396101093 L-211.6903413392538 22.16732291249845"/>
		<path opacity="0.75" fill="pink" d="M-206.6903413392538 26.49744993142064 L-206.6903413392538 35.15770396926503 L-164.7559465428682 24.407114396101093 L-206.6903413392538 26.49744993142064"/>
		<path opacity="0.75" fill="pink" d="M-211.6903413392538 30.827576950342838 L-206.6903413392538 35.15770396926503 L-164.7559465428682 24.407114396101093 L-211.6903413392538 30.827576950342838"/>

		<path opacity="0.5" fill="orange" d="M146.10511776651532 14.980762113533157 L152.10511776651532 20.17691453623979 L152.10511776651532 27.1051177665153 L146.10511776651532 21.908965343808667 L146.10511776651532 14.980762113533157"/>
		<path opacity="0.5" fill="orange" d="M83.75128869403572 32.98076211353316 L89.75128869403572 38.17691453623979 L89.75128869403572 45.1051177665153 L83.75128869403572 39.90896534380867 L83.75128869403572 32.98076211353316"/>
		<path opacity="0.5" fill="orange" d="M146.10511776651532 14.980762113533157 L83.75128869403572 32.98076211353316 L83.75128869403572 39.90896534380867 L146.10511776651532 21.908965343808667 L146.10511776651532 14.980762113533157"/>
		<path opacity="0.5" fill="orange" d="M152.10511776651532 20.17691453623979 L89.75128869403572 38.17691453623979 L89.75128869403572 45.1051177665153 L152.10511776651532 27.1051177665153 L152.10511776651532 20.17691453623979"/>
		<path opacity="0.5" fill="orange" d="M146.10511776651532 14.980762113533157 L152.10511776651532 20.17691453623979 L89.75128869403572 38.17691453623979 L83.75128869403572 32.98076211353316 L146.10511776651532 14.980762113533157"/>
		<path opacity="0.5" fill="orange" d="M146.10511776651532 21.908965343808667 L152.10511776651532 27.1051177665153 L89.75128869403572 45.1051177665153 L83.75128869403572 39.90896534380867 L146.10511776651532 21.908965343808667"/>
		<text style="fill:black;font-family:calibri;font-size:6" x="83.75128869403572" y="36.44486372867091" >8</text>
		<text style="fill:black;font-family:calibri;font-size:6" x="86.75128869403572" y="42.50704155516198" >12</text>
		<text style="fill:black;font-family:calibri;font-size:6" x="114.92820323027553" y="23.98076211353316" >72</text>

		<path opacity="0.75" fill="darkturquoise" d="M-211.6903413392538 22.16732291249845 L-206.6903413392538 26.49744993142064 L-206.6903413392538 35.15770396926503 L-211.6903413392538 30.827576950342838 L-211.6903413392538 22.16732291249845"/>
		<path opacity="0.75" fill="darkturquoise" d="M-220.35059537709816 24.66732291249845 L-215.35059537709816 28.99744993142064 L-215.35059537709816 37.65770396926503 L-220.35059537709816 33.32757695034284 L-220.35059537709816 24.66732291249845"/>
		<path opacity="0.75" fill="darkturquoise" d="M-211.6903413392538 22.16732291249845 L-220.35059537709816 24.66732291249845 L-220.35059537709816 33.32757695034284 L-211.6903413392538 30.827576950342838 L-211.6903413392538 22.16732291249845"/>
		<path opacity="0.75" fill="darkturquoise" d="M-206.6903413392538 26.49744993142064 L-215.35059537709816 28.99744993142064 L-215.35059537709816 37.65770396926503 L-206.6903413392538 35.15770396926503 L-206.6903413392538 26.49744993142064"/>
		<path opacity="0.75" fill="darkturquoise" d="M-211.6903413392538 22.16732291249845 L-206.6903413392538 26.49744993142064 L-215.35059537709816 28.99744993142064 L-220.35059537709816 24.66732291249845 L-211.6903413392538 22.16732291249845"/>
		<path opacity="0.75" fill="darkturquoise" d="M-211.6903413392538 30.827576950342838 L-206.6903413392538 35.15770396926503 L-215.35059537709816 37.65770396926503 L-220.35059537709816 33.32757695034284 L-211.6903413392538 30.827576950342838"/>
		<text style="fill:black;font-family:calibri;font-size:6" x="-220.35059537709816" y="28.997449931420643" >10</text>
		<text style="fill:black;font-family:calibri;font-size:6" x="-217.85059537709816" y="35.49264045980394" >10</text>
		<text style="fill:black;font-family:calibri;font-size:6" x="-216.02046835817598" y="23.41732291249845" >10</text>

		<path opacity="0.5" fill="orange" d="M-212.29096063693618 12.208348754011496 L-188.29096063693618 32.99295844483802 L-188.29096063693618 60.70577136594006 L-212.29096063693618 39.92116167511354 L-212.29096063693618 12.208348754011496"/>
		<path opacity="0.5" fill="orange" d="M-220.9512146747806 14.708348754011496 L-196.9512146747806 35.49295844483802 L-196.9512146747806 63.20577136594006 L-220.9512146747806 42.42116167511354 L-220.9512146747806 14.708348754011496"/>
		<path opacity="0.5" fill="orange" d="M-212.29096063693618 12.208348754011496 L-220.9512146747806 14.708348754011496 L-220.9512146747806 42.42116167511354 L-212.29096063693618 39.92116167511354 L-212.29096063693618 12.208348754011496"/>
		<path opacity="0.5" fill="orange" d="M-188.29096063693618 32.99295844483802 L-196.9512146747806 35.49295844483802 L-196.9512146747806 63.20577136594006 L-188.29096063693618 60.70577136594006 L-188.29096063693618 32.99295844483802"/>
		<path opacity="0.5" fill="orange" d="M-212.29096063693618 12.208348754011496 L-188.29096063693618 32.99295844483802 L-196.9512146747806 35.49295844483802 L-220.9512146747806 14.708348754011496 L-212.29096063693618 12.208348754011496"/>
		<path opacity="0.5" fill="orange" d="M-212.29096063693618 39.92116167511354 L-188.29096063693618 60.70577136594006 L-196.9512146747806 63.20577136594006 L-220.9512146747806 42.42116167511354 L-212.29096063693618 39.92116167511354"/>
		<text style="fill:black;font-family:calibri;font-size:6" x="-220.9512146747806" y="28.564755214562517" >32</text>
		<text style="fill:black;font-family:calibri;font-size:6" x="-208.9512146747806" y="52.8134665205268" >48</text>
		<text style="fill:black;font-family:calibri;font-size:6" x="-216.6210876558584" y="13.458348754011496" >10</text>

		<path opacity="0.75" fill="pink" d="M38.51146047855658 43.43048721435011 L43.51146047855658 47.76061423327231 L85.51584790079265 40.461969890774476 L38.51146047855658 43.43048721435011"/>
		<path opacity="0.75" fill="pink" d="M38.51146047855658 43.43048721435011 L38.51146047855658 52.0907412521945 L85.51584790079265 40.461969890774476 L38.51146047855658 43.43048721435011"/>
		<path opacity="0.75" fill="pink" d="M43.51146047855658 47.76061423327231 L43.51146047855658 56.42086827111669 L85.51584790079265 40.461969890774476 L43.51146047855658 47.76061423327231"/>
		<path opacity="0.75" fill="pink" d="M38.51146047855658 52.0907412521945 L43.51146047855658 56.42086827111669 L85.51584790079265 40.461969890774476 L38.51146047855658 52.0907412521945"/>

		<path opacity="0.75" fill="darkturquoise" d="M38.51146047855658 43.43048721435011 L43.51146047855658 47.76061423327231 L43.51146047855658 56.42086827111669 L38.51146047855658 52.0907412521945 L38.51146047855658 43.43048721435011"/>
		<path opacity="0.75" fill="darkturquoise" d="M-16.9141653636475 59.43048721435011 L-11.914165363647498 63.76061423327231 L-11.914165363647498 72.42086827111669 L-16.9141653636475 68.0907412521945 L-16.9141653636475 59.43048721435011"/>
		<path opacity="0.75" fill="darkturquoise" d="M38.51146047855658 43.43048721435011 L-16.9141653636475 59.43048721435011 L-16.9141653636475 68.0907412521945 L38.51146047855658 52.0907412521945 L38.51146047855658 43.43048721435011"/>
		<path opacity="0.75" fill="darkturquoise" d="M43.51146047855658 47.76061423327231 L-11.914165363647498 63.76061423327231 L-11.914165363647498 72.42086827111669 L43.51146047855658 56.42086827111669 L43.51146047855658 47.76061423327231"/>
		<path opacity="0.75" fill="darkturquoise" d="M38.51146047855658 43.43048721435011 L43.51146047855658 47.76061423327231 L-11.914165363647498 63.76061423327231 L-16.9141653636475 59.43048721435011 L38.51146047855658 43.43048721435011"/>
		<path opacity="0.75" fill="darkturquoise" d="M38.51146047855658 52.0907412521945 L43.51146047855658 56.42086827111669 L-11.914165363647498 72.42086827111669 L-16.9141653636475 68.0907412521945 L38.51146047855658 52.0907412521945"/>
		<text style="fill:black;font-family:calibri;font-size:6" x="-16.9141653636475" y="63.76061423327231" >10</text>
		<text style="fill:black;font-family:calibri;font-size:6" x="-14.414165363647498" y="70.2558047616556" >10</text>
		<text style="fill:black;font-family:calibri;font-size:6" x="10.79864755745454" y="51.43048721435011" >64</text>

		<path opacity="0.5" fill="orange" d="M37.45001850481379 39.41858428704208 L49.45001850481379 49.810889132455344 L49.45001850481379 63.667295593006365 L37.45001850481379 53.2749907475931 L37.45001850481379 39.41858428704208"/>
		<path opacity="0.5" fill="orange" d="M-17.975607337390272 55.41858428704208 L-5.975607337390272 65.81088913245534 L-5.975607337390272 79.66729559300637 L-17.975607337390272 69.27499074759311 L-17.975607337390272 55.41858428704208"/>
		<path opacity="0.5" fill="orange" d="M37.45001850481379 39.41858428704208 L-17.975607337390272 55.41858428704208 L-17.975607337390272 69.27499074759311 L37.45001850481379 53.2749907475931 L37.45001850481379 39.41858428704208"/>
		<path opacity="0.5" fill="orange" d="M49.45001850481379 49.810889132455344 L-5.975607337390272 65.81088913245534 L-5.975607337390272 79.66729559300637 L49.45001850481379 63.667295593006365 L49.45001850481379 49.810889132455344"/>
		<path opacity="0.5" fill="orange" d="M37.45001850481379 39.41858428704208 L49.45001850481379 49.810889132455344 L-5.975607337390272 65.81088913245534 L-17.975607337390272 55.41858428704208 L37.45001850481379 39.41858428704208"/>
		<path opacity="0.5" fill="orange" d="M37.45001850481379 53.2749907475931 L49.45001850481379 63.667295593006365 L-5.975607337390272 79.66729559300637 L-17.975607337390272 69.27499074759311 L37.45001850481379 53.2749907475931"/>
		<text style="fill:black;font-family:calibri;font-size:6" x="-17.975607337390272" y="62.346787517317594" >16</text>
		<text style="fill:black;font-family:calibri;font-size:6" x="-11.975607337390272" y="74.47114317029974" >24</text>
		<text style="fill:black;font-family:calibri;font-size:6" x="9.73720558371176" y="47.41858428704208" >64</text>

		<path opacity="0.75" fill="pink" d="M-62.780867998415545 71.35611363496227 L-60.280867998415545 73.52117714442336 L-8.995713347326642 75.66600794970726 L-62.780867998415545 71.35611363496227"/>
		<path opacity="0.75" fill="pink" d="M-62.780867998415545 71.35611363496227 L-62.780867998415545 75.68624065388447 L-8.995713347326642 75.66600794970726 L-62.780867998415545 71.35611363496227"/>
		<path opacity="0.75" fill="pink" d="M-60.280867998415545 73.52117714442336 L-60.280867998415545 77.85130416334556 L-8.995713347326642 75.66600794970726 L-60.280867998415545 73.52117714442336"/>
		<path opacity="0.75" fill="pink" d="M-62.780867998415545 75.68624065388447 L-60.280867998415545 77.85130416334556 L-8.995713347326642 75.66600794970726 L-62.780867998415545 75.68624065388447"/>

		<path opacity="0.75" fill="darkturquoise" d="M-62.780867998415545 71.35611363496227 L-60.280867998415545 73.52117714442336 L-60.280867998415545 77.85130416334556 L-62.780867998415545 75.68624065388447 L-62.780867998415545 71.35611363496227"/>
		<path opacity="0.75" fill="darkturquoise" d="M-90.49368091951757 79.35611363496227 L-87.99368091951757 81.52117714442336 L-87.99368091951757 85.85130416334556 L-90.49368091951757 83.68624065388447 L-90.49368091951757 79.35611363496227"/>
		<path opacity="0.75" fill="darkturquoise" d="M-62.780867998415545 71.35611363496227 L-90.49368091951757 79.35611363496227 L-90.49368091951757 83.68624065388447 L-62.780867998415545 75.68624065388447 L-62.780867998415545 71.35611363496227"/>
		<path opacity="0.75" fill="darkturquoise" d="M-60.280867998415545 73.52117714442336 L-87.99368091951757 81.52117714442336 L-87.99368091951757 85.85130416334556 L-60.280867998415545 77.85130416334556 L-60.280867998415545 73.52117714442336"/>
		<path opacity="0.75" fill="darkturquoise" d="M-62.780867998415545 71.35611363496227 L-60.280867998415545 73.52117714442336 L-87.99368091951757 81.52117714442336 L-90.49368091951757 79.35611363496227 L-62.780867998415545 71.35611363496227"/>
		<path opacity="0.75" fill="darkturquoise" d="M-62.780867998415545 75.68624065388447 L-60.280867998415545 77.85130416334556 L-87.99368091951757 85.85130416334556 L-90.49368091951757 83.68624065388447 L-62.780867998415545 75.68624065388447"/>
		<text style="fill:black;font-family:calibri;font-size:6" x="-90.49368091951757" y="81.52117714442338" >5</text>
		<text style="fill:black;font-family:calibri;font-size:6" x="-89.24368091951757" y="84.768772408615" >5</text>
		<text style="fill:black;font-family:calibri;font-size:6" x="-76.63727445896656" y="75.35611363496227" >32</text>

		<path opacity="0.5" fill="orange" d="M-67.27687752661222 55.79422863405994 L-43.27687752661221 76.57883832488646 L-43.27687752661221 104.2916512459885 L-67.27687752661222 83.50704155516198 L-67.27687752661222 55.79422863405994"/>
		<path opacity="0.5" fill="orange" d="M-94.98969044771425 63.79422863405994 L-70.98969044771422 84.57883832488646 L-70.98969044771422 112.2916512459885 L-94.98969044771425 91.50704155516198 L-94.98969044771425 63.79422863405994"/>
		<path opacity="0.5" fill="orange" d="M-67.27687752661222 55.79422863405994 L-94.98969044771425 63.79422863405994 L-94.98969044771425 91.50704155516198 L-67.27687752661222 83.50704155516198 L-67.27687752661222 55.79422863405994"/>
		<path opacity="0.5" fill="orange" d="M-43.27687752661221 76.57883832488646 L-70.98969044771422 84.57883832488646 L-70.98969044771422 112.2916512459885 L-43.27687752661221 104.2916512459885 L-43.27687752661221 76.57883832488646"/>
		<path opacity="0.5" fill="orange" d="M-67.27687752661222 55.79422863405994 L-43.27687752661221 76.57883832488646 L-70.98969044771422 84.57883832488646 L-94.98969044771425 63.79422863405994 L-67.27687752661222 55.79422863405994"/>
		<path opacity="0.5" fill="orange" d="M-67.27687752661222 83.50704155516198 L-43.27687752661221 104.2916512459885 L-70.98969044771422 112.2916512459885 L-94.98969044771425 91.50704155516198 L-67.27687752661222 83.50704155516198"/>
		<text style="fill:black;font-family:calibri;font-size:6" x="-94.98969044771425" y="77.65063509461096" >32</text>
		<text style="fill:black;font-family:calibri;font-size:6" x="-82.98969044771424" y="101.89934640057524" >48</text>
		<text style="fill:black;font-family:calibri;font-size:6" x="-81.13328398716324" y="59.79422863405994" >32</text>

		<path opacity="0.75" fill="pink" d="M-131.96810425026462 82.82952778653153 L-126.96810425026462 87.15965480545373 L-76.14919172832955 81.0957943713723 L-131.96810425026462 82.82952778653153"/>
		<path opacity="0.75" fill="pink" d="M-131.96810425026462 82.82952778653153 L-131.96810425026462 91.48978182437591 L-76.14919172832955 81.0957943713723 L-131.96810425026462 82.82952778653153"/>
		<path opacity="0.75" fill="pink" d="M-126.96810425026462 87.15965480545373 L-126.96810425026462 95.81990884329811 L-76.14919172832955 81.0957943713723 L-126.96810425026462 87.15965480545373"/>
		<path opacity="0.75" fill="pink" d="M-131.96810425026462 91.48978182437591 L-126.96810425026462 95.81990884329811 L-76.14919172832955 81.0957943713723 L-131.96810425026462 91.48978182437591"/>

		<path opacity="0.75" fill="darkturquoise" d="M-131.96810425026462 82.82952778653153 L-126.96810425026462 87.15965480545373 L-126.96810425026462 95.81990884329811 L-131.96810425026462 91.48978182437591 L-131.96810425026462 82.82952778653153"/>
		<path opacity="0.75" fill="darkturquoise" d="M-140.628358288109 85.32952778653153 L-135.628358288109 89.65965480545373 L-135.628358288109 98.31990884329811 L-140.628358288109 93.98978182437591 L-140.628358288109 85.32952778653153"/>
		<path opacity="0.75" fill="darkturquoise" d="M-131.96810425026462 82.82952778653153 L-140.628358288109 85.32952778653153 L-140.628358288109 93.98978182437591 L-131.96810425026462 91.48978182437591 L-131.96810425026462 82.82952778653153"/>
		<path opacity="0.75" fill="darkturquoise" d="M-126.96810425026462 87.15965480545373 L-135.628358288109 89.65965480545373 L-135.628358288109 98.31990884329811 L-126.96810425026462 95.81990884329811 L-126.96810425026462 87.15965480545373"/>
		<path opacity="0.75" fill="darkturquoise" d="M-131.96810425026462 82.82952778653153 L-126.96810425026462 87.15965480545373 L-135.628358288109 89.65965480545373 L-140.628358288109 85.32952778653153 L-131.96810425026462 82.82952778653153"/>
		<path opacity="0.75" fill="darkturquoise" d="M-131.96810425026462 91.48978182437591 L-126.96810425026462 95.81990884329811 L-135.628358288109 98.31990884329811 L-140.628358288109 93.98978182437591 L-131.96810425026462 91.48978182437591"/>
		<text style="fill:black;font-family:calibri;font-size:6" x="-140.628358288109" y="89.65965480545373" >10</text>
		<text style="fill:black;font-family:calibri;font-size:6" x="-138.128358288109" y="96.15484533383702" >10</text>
		<text style="fill:black;font-family:calibri;font-size:6" x="-136.29823126918683" y="84.07952778653153" >10</text>

		<path opacity="0.5" fill="orange" d="M-138.29096063693618 76.29422863405995 L-114.29096063693618 97.07883832488646 L-114.29096063693618 124.7916512459885 L-138.29096063693618 104.00704155516198 L-138.29096063693618 76.29422863405995"/>
		<path opacity="0.5" fill="orange" d="M-146.95121467478057 78.79422863405995 L-122.95121467478054 99.57883832488646 L-122.95121467478054 127.2916512459885 L-146.95121467478057 106.50704155516198 L-146.95121467478057 78.79422863405995"/>
		<path opacity="0.5" fill="orange" d="M-138.29096063693618 76.29422863405995 L-146.95121467478057 78.79422863405995 L-146.95121467478057 106.50704155516198 L-138.29096063693618 104.00704155516198 L-138.29096063693618 76.29422863405995"/>
		<path opacity="0.5" fill="orange" d="M-114.29096063693618 97.07883832488646 L-122.95121467478054 99.57883832488646 L-122.95121467478054 127.2916512459885 L-114.29096063693618 124.7916512459885 L-114.29096063693618 97.07883832488646"/>
		<path opacity="0.5" fill="orange" d="M-138.29096063693618 76.29422863405995 L-114.29096063693618 97.07883832488646 L-122.95121467478054 99.57883832488646 L-146.95121467478057 78.79422863405995 L-138.29096063693618 76.29422863405995"/>
		<path opacity="0.5" fill="orange" d="M-138.29096063693618 104.00704155516198 L-114.29096063693618 124.7916512459885 L-122.95121467478054 127.2916512459885 L-146.95121467478057 106.50704155516198 L-138.29096063693618 104.00704155516198"/>
		<text style="fill:black;font-family:calibri;font-size:6" x="-146.95121467478057" y="92.65063509461096" >32</text>
		<text style="fill:black;font-family:calibri;font-size:6" x="-134.95121467478054" y="116.89934640057524" >48</text>
		<text style="fill:black;font-family:calibri;font-size:6" x="-142.6210876558584" y="77.54422863405995" >10</text>

	 </g>
</svg>