<svg width="1000.0px" height="1000.0px" viewBox="-500.0 -500.0 1000.0 1000.0" xmlns="http://www.w3.org/2000/svg">
	<g stroke="black" stroke-width="0.3">
		<path opacity="0.75" fill="darkturquoise" d="M-169.03112608752565 -273.3548424820782 L-164.03112608752565 -281.8835278016026 L-164.03112608752565 -283.62000957827195 L-169.03112608752565 -275.0913242587475 L-169.03112608752565 -273.3548424820782"/>
		<path opacity="0.75" fill="darkturquoise" d="M-186.35163416321444 -283.20292001220025 L-181.35163416321444 -291.7316053317247 L-181.35163416321444 -293.468087108394 L-186.35163416321444 -284.93940178886953 L-186.35163416321444 -283.20292001220025"/>
		<path opacity="0.75" fill="darkturquoise" d="M-169.03112608752565 -273.3548424820782 L-186.35163416321444 -283.20292001220025 L-186.35163416321444 -284.93940178886953 L-169.03112608752565 -275.0913242587475 L-169.03112608752565 -273.3548424820782"/>
		<path opacity="0.75" fill="darkturquoise" d="M-164.03112608752565 -281.8835278016026 L-181.35163416321444 -291.7316053317247 L-181.35163416321444 -293.468087108394 L-164.03112608752565 -283.62000957827195 L-164.03112608752565 -281.8835278016026"/>
		<path opacity="0.75" fill="darkturquoise" d="M-169.03112608752565 -273.3548424820782 L-164.03112608752565 -281.8835278016026 L-181.35163416321444 -291.7316053317247 L-186.35163416321444 -283.20292001220025 L-169.03112608752565 -273.3548424820782"/>
		<path opacity="0.75" fill="darkturquoise" d="M-169.03112608752565 -275.0913242587475 L-164.03112608752565 -283.62000957827195 L-181.35163416321444 -293.468087108394 L-186.35163416321444 -284.93940178886953 L-169.03112608752565 -275.0913242587475"/>
		<text x="-186.35163416321444" y="-284.0711609005349" font-family="calibri" font-size="4">10</text>
		<text x="-183.85163416321444" y="-289.20374444863177" font-family="calibri" font-size="4">10</text>
		<text x="-177.69138012537005" y="-278.2788812471392" font-family="calibri" font-size="4">20</text>

		<path opacity="0.5" fill="orange" d="M-169.12074235133218 -269.6396319287595 L-153.12074235133218 -296.9314249512377 L-153.12074235133218 -302.4881666365795 L-169.12074235133218 -275.1963736141013 L-169.12074235133218 -269.6396319287595"/>
		<path opacity="0.5" fill="orange" d="M-186.44125042702098 -279.4877094588816 L-170.44125042702098 -306.7795024813598 L-170.44125042702098 -312.33624416670153 L-186.44125042702098 -285.04445114422333 L-186.44125042702098 -279.4877094588816"/>
		<path opacity="0.5" fill="orange" d="M-169.12074235133218 -269.6396319287595 L-186.44125042702098 -279.4877094588816 L-186.44125042702098 -285.04445114422333 L-169.12074235133218 -275.1963736141013 L-169.12074235133218 -269.6396319287595"/>
		<path opacity="0.5" fill="orange" d="M-153.12074235133218 -296.9314249512377 L-170.44125042702098 -306.7795024813598 L-170.44125042702098 -312.33624416670153 L-153.12074235133218 -302.4881666365795 L-153.12074235133218 -296.9314249512377"/>
		<path opacity="0.5" fill="orange" d="M-169.12074235133218 -269.6396319287595 L-153.12074235133218 -296.9314249512377 L-170.44125042702098 -306.7795024813598 L-186.44125042702098 -279.4877094588816 L-169.12074235133218 -269.6396319287595"/>
		<path opacity="0.5" fill="orange" d="M-169.12074235133218 -275.1963736141013 L-153.12074235133218 -302.4881666365795 L-170.44125042702098 -312.33624416670153 L-186.44125042702098 -285.04445114422333 L-169.12074235133218 -275.1963736141013"/>
		<text x="-186.44125042702098" y="-282.2660803015525" font-family="calibri" font-size="4">32</text>
		<text x="-178.44125042702098" y="-298.69034765546246" font-family="calibri" font-size="4">32</text>
		<text x="-177.78099638917658" y="-274.56367069382054" font-family="calibri" font-size="4">20</text>

		<path opacity="0.75" fill="pink" d="M-169.03112608752565 -273.3548424820782 L-164.03112608752565 -281.8835278016026 L-125.31859529649748 -250.77895502019317 L-169.03112608752565 -273.3548424820782"/>
		<path opacity="0.75" fill="pink" d="M-169.03112608752565 -273.3548424820782 L-169.03112608752565 -275.0913242587475 L-125.31859529649748 -250.77895502019317 L-169.03112608752565 -273.3548424820782"/>
		<path opacity="0.75" fill="pink" d="M-164.03112608752565 -281.8835278016026 L-164.03112608752565 -283.62000957827195 L-125.31859529649748 -250.77895502019317 L-164.03112608752565 -281.8835278016026"/>
		<path opacity="0.75" fill="pink" d="M-169.03112608752565 -275.0913242587475 L-164.03112608752565 -283.62000957827195 L-125.31859529649748 -250.77895502019317 L-169.03112608752565 -275.0913242587475"/>

		<path opacity="0.75" fill="darkturquoise" d="M-90.95515342063939 -242.33288670162716 L-88.45515342063939 -246.59722936138937 L-88.45515342063939 -247.46547024972404 L-90.95515342063939 -243.2011275899618 L-90.95515342063939 -242.33288670162716"/>
		<path opacity="0.75" fill="darkturquoise" d="M-118.66796634174145 -258.0898107498225 L-116.16796634174145 -262.3541534095847 L-116.16796634174145 -263.2223942979194 L-118.66796634174145 -258.95805163815714 L-118.66796634174145 -258.0898107498225"/>
		<path opacity="0.75" fill="darkturquoise" d="M-90.95515342063939 -242.33288670162716 L-118.66796634174145 -258.0898107498225 L-118.66796634174145 -258.95805163815714 L-90.95515342063939 -243.2011275899618 L-90.95515342063939 -242.33288670162716"/>
		<path opacity="0.75" fill="darkturquoise" d="M-88.45515342063939 -246.59722936138937 L-116.16796634174145 -262.3541534095847 L-116.16796634174145 -263.2223942979194 L-88.45515342063939 -247.46547024972404 L-88.45515342063939 -246.59722936138937"/>
		<path opacity="0.75" fill="darkturquoise" d="M-90.95515342063939 -242.33288670162716 L-88.45515342063939 -246.59722936138937 L-116.16796634174145 -262.3541534095847 L-118.66796634174145 -258.0898107498225 L-90.95515342063939 -242.33288670162716"/>
		<path opacity="0.75" fill="darkturquoise" d="M-90.95515342063939 -243.2011275899618 L-88.45515342063939 -247.46547024972404 L-116.16796634174145 -263.2223942979194 L-118.66796634174145 -258.95805163815714 L-90.95515342063939 -243.2011275899618"/>
		<text x="-118.66796634174145" y="-258.5239311939898" font-family="calibri" font-size="4">5</text>
		<text x="-117.41796634174145" y="-261.09022296803823" font-family="calibri" font-size="4">5</text>
		<text x="-104.81155988119042" y="-250.21134872572483" font-family="calibri" font-size="4">32</text>

		<path opacity="0.5" fill="orange" d="M-98.10665924100823 -229.262514055259 L-82.10665924100823 -256.5543070777372 L-82.10665924100823 -262.11104876307894 L-98.10665924100823 -234.81925574060074 L-98.10665924100823 -229.262514055259"/>
		<path opacity="0.5" fill="orange" d="M-125.81947216211029 -245.01943810345435 L-109.81947216211029 -272.3112311259325 L-109.81947216211029 -277.8679728112743 L-125.81947216211029 -250.57617978879608 L-125.81947216211029 -245.01943810345435"/>
		<path opacity="0.5" fill="orange" d="M-98.10665924100823 -229.262514055259 L-125.81947216211029 -245.01943810345435 L-125.81947216211029 -250.57617978879608 L-98.10665924100823 -234.81925574060074 L-98.10665924100823 -229.262514055259"/>
		<path opacity="0.5" fill="orange" d="M-82.10665924100823 -256.5543070777372 L-109.81947216211029 -272.3112311259325 L-109.81947216211029 -277.8679728112743 L-82.10665924100823 -262.11104876307894 L-82.10665924100823 -256.5543070777372"/>
		<path opacity="0.5" fill="orange" d="M-98.10665924100823 -229.262514055259 L-82.10665924100823 -256.5543070777372 L-109.81947216211029 -272.3112311259325 L-125.81947216211029 -245.01943810345435 L-98.10665924100823 -229.262514055259"/>
		<path opacity="0.5" fill="orange" d="M-98.10665924100823 -234.81925574060074 L-82.10665924100823 -262.11104876307894 L-109.81947216211029 -277.8679728112743 L-125.81947216211029 -250.57617978879608 L-98.10665924100823 -234.81925574060074"/>
		<text x="-125.81947216211029" y="-247.7978089461252" font-family="calibri" font-size="4">32</text>
		<text x="-117.81947216211029" y="-264.22207630003516" font-family="calibri" font-size="4">32</text>
		<text x="-111.96306570155926" y="-237.14097607935668" font-family="calibri" font-size="4">32</text>

		<path opacity="0.75" fill="pink" d="M-90.95515342063939 -242.33288670162716 L-88.45515342063939 -246.59722936138937 L-50.41757480631156 -214.12541043551485 L-90.95515342063939 -242.33288670162716"/>
		<path opacity="0.75" fill="pink" d="M-90.95515342063939 -242.33288670162716 L-90.95515342063939 -243.2011275899618 L-50.41757480631156 -214.12541043551485 L-90.95515342063939 -242.33288670162716"/>
		<path opacity="0.75" fill="pink" d="M-88.45515342063939 -246.59722936138937 L-88.45515342063939 -247.46547024972404 L-50.41757480631156 -214.12541043551485 L-88.45515342063939 -246.59722936138937"/>
		<path opacity="0.75" fill="pink" d="M-90.95515342063939 -243.2011275899618 L-88.45515342063939 -247.46547024972404 L-50.41757480631156 -214.12541043551485 L-90.95515342063939 -243.2011275899618"/>

		<path opacity="0.75" fill="pink" d="M-194.30042325906135 -228.42616877837025 L-189.30042325906135 -236.9548540978947 L-140.1327392924366 -221.86095102949474 L-194.30042325906135 -228.42616877837025"/>
		<path opacity="0.75" fill="pink" d="M-194.30042325906135 -228.42616877837025 L-194.30042325906135 -230.16265055503953 L-140.1327392924366 -221.86095102949474 L-194.30042325906135 -228.42616877837025"/>
		<path opacity="0.75" fill="pink" d="M-189.30042325906135 -236.9548540978947 L-189.30042325906135 -238.69133587456398 L-140.1327392924366 -221.86095102949474 L-189.30042325906135 -236.9548540978947"/>
		<path opacity="0.75" fill="pink" d="M-194.30042325906135 -230.16265055503953 L-189.30042325906135 -238.69133587456398 L-140.1327392924366 -221.86095102949474 L-194.30042325906135 -230.16265055503953"/>

		<path opacity="0.75" fill="darkturquoise" d="M-194.30042325906135 -228.42616877837025 L-189.30042325906135 -236.9548540978947 L-189.30042325906135 -238.69133587456398 L-194.30042325906135 -230.16265055503953 L-194.30042325906135 -228.42616877837025"/>
		<path opacity="0.75" fill="darkturquoise" d="M-211.62093133475014 -238.27424630849234 L-206.62093133475014 -246.80293162801678 L-206.62093133475014 -248.53941340468606 L-211.62093133475014 -240.01072808516165 L-211.62093133475014 -238.27424630849234"/>
		<path opacity="0.75" fill="darkturquoise" d="M-194.30042325906135 -228.42616877837025 L-211.62093133475014 -238.27424630849234 L-211.62093133475014 -240.01072808516165 L-194.30042325906135 -230.16265055503953 L-194.30042325906135 -228.42616877837025"/>
		<path opacity="0.75" fill="darkturquoise" d="M-189.30042325906135 -236.9548540978947 L-206.62093133475014 -246.80293162801678 L-206.62093133475014 -248.53941340468606 L-189.30042325906135 -238.69133587456398 L-189.30042325906135 -236.9548540978947"/>
		<path opacity="0.75" fill="darkturquoise" d="M-194.30042325906135 -228.42616877837025 L-189.30042325906135 -236.9548540978947 L-206.62093133475014 -246.80293162801678 L-211.62093133475014 -238.27424630849234 L-194.30042325906135 -228.42616877837025"/>
		<path opacity="0.75" fill="darkturquoise" d="M-194.30042325906135 -230.16265055503953 L-189.30042325906135 -238.69133587456398 L-206.62093133475014 -248.53941340468606 L-211.62093133475014 -240.01072808516165 L-194.30042325906135 -230.16265055503953"/>
		<text x="-211.62093133475014" y="-239.142487196827" font-family="calibri" font-size="4">10</text>
		<text x="-209.12093133475014" y="-244.27507074492385" font-family="calibri" font-size="4">10</text>
		<text x="-202.96067729690574" y="-233.35020754343128" font-family="calibri" font-size="4">20</text>

		<path opacity="0.5" fill="orange" d="M-197.62074235133218 -221.02612560747028 L-181.62074235133218 -248.31791862994845 L-181.62074235133218 -253.8746603152902 L-197.62074235133218 -226.582867292812 L-197.62074235133218 -221.02612560747028"/>
		<path opacity="0.5" fill="orange" d="M-214.94125042702098 -230.87420313759236 L-198.94125042702098 -258.16599616007056 L-198.94125042702098 -263.72273784541227 L-214.94125042702098 -236.4309448229341 L-214.94125042702098 -230.87420313759236"/>
		<path opacity="0.5" fill="orange" d="M-197.62074235133218 -221.02612560747028 L-214.94125042702098 -230.87420313759236 L-214.94125042702098 -236.4309448229341 L-197.62074235133218 -226.582867292812 L-197.62074235133218 -221.02612560747028"/>
		<path opacity="0.5" fill="orange" d="M-181.62074235133218 -248.31791862994845 L-198.94125042702098 -258.16599616007056 L-198.94125042702098 -263.72273784541227 L-181.62074235133218 -253.8746603152902 L-181.62074235133218 -248.31791862994845"/>
		<path opacity="0.5" fill="orange" d="M-197.62074235133218 -221.02612560747028 L-181.62074235133218 -248.31791862994845 L-198.94125042702098 -258.16599616007056 L-214.94125042702098 -230.87420313759236 L-197.62074235133218 -221.02612560747028"/>
		<path opacity="0.5" fill="orange" d="M-197.62074235133218 -226.582867292812 L-181.62074235133218 -253.8746603152902 L-198.94125042702098 -263.72273784541227 L-214.94125042702098 -236.4309448229341 L-197.62074235133218 -226.582867292812"/>
		<text x="-214.94125042702098" y="-233.65257398026324" font-family="calibri" font-size="4">32</text>
		<text x="-206.94125042702098" y="-250.0768413341732" font-family="calibri" font-size="4">32</text>
		<text x="-206.28099638917658" y="-225.95016437253133" font-family="calibri" font-size="4">20</text>

		<path opacity="0.75" fill="darkturquoise" d="M-125.69664794803376 -182.32417088338076 L-123.19664794803376 -186.588513543143 L-123.19664794803376 -187.45675443147763 L-125.69664794803376 -183.1924117717154 L-125.69664794803376 -182.32417088338076"/>
		<path opacity="0.75" fill="darkturquoise" d="M-153.40946086913584 -198.0810949315761 L-150.90946086913584 -202.34543759133834 L-150.90946086913584 -203.21367847967298 L-153.40946086913584 -198.94933581991074 L-153.40946086913584 -198.0810949315761"/>
		<path opacity="0.75" fill="darkturquoise" d="M-125.69664794803376 -182.32417088338076 L-153.40946086913584 -198.0810949315761 L-153.40946086913584 -198.94933581991074 L-125.69664794803376 -183.1924117717154 L-125.69664794803376 -182.32417088338076"/>
		<path opacity="0.75" fill="darkturquoise" d="M-123.19664794803376 -186.588513543143 L-150.90946086913584 -202.34543759133834 L-150.90946086913584 -203.21367847967298 L-123.19664794803376 -187.45675443147763 L-123.19664794803376 -186.588513543143"/>
		<path opacity="0.75" fill="darkturquoise" d="M-125.69664794803376 -182.32417088338076 L-123.19664794803376 -186.588513543143 L-150.90946086913584 -202.34543759133834 L-153.40946086913584 -198.0810949315761 L-125.69664794803376 -182.32417088338076"/>
		<path opacity="0.75" fill="darkturquoise" d="M-125.69664794803376 -183.1924117717154 L-123.19664794803376 -187.45675443147763 L-150.90946086913584 -203.21367847967298 L-153.40946086913584 -198.94933581991074 L-125.69664794803376 -183.1924117717154"/>
		<text x="-153.40946086913584" y="-198.51521537574342" font-family="calibri" font-size="4">5</text>
		<text x="-152.15946086913584" y="-201.08150714979186" font-family="calibri" font-size="4">5</text>
		<text x="-139.55305440858479" y="-190.20263290747843" font-family="calibri" font-size="4">32</text>

		<path opacity="0.5" fill="orange" d="M-126.60665924100823 -180.64900773396974 L-110.60665924100823 -207.9408007564479 L-110.60665924100823 -213.49754244178968 L-126.60665924100823 -186.20574941931147 L-126.60665924100823 -180.64900773396974"/>
		<path opacity="0.5" fill="orange" d="M-154.3194721621103 -196.40593178216508 L-138.3194721621103 -223.69772480464326 L-138.3194721621103 -229.25446648998502 L-154.3194721621103 -201.96267346750682 L-154.3194721621103 -196.40593178216508"/>
		<path opacity="0.5" fill="orange" d="M-126.60665924100823 -180.64900773396974 L-154.3194721621103 -196.40593178216508 L-154.3194721621103 -201.96267346750682 L-126.60665924100823 -186.20574941931147 L-126.60665924100823 -180.64900773396974"/>
		<path opacity="0.5" fill="orange" d="M-110.60665924100823 -207.9408007564479 L-138.3194721621103 -223.69772480464326 L-138.3194721621103 -229.25446648998502 L-110.60665924100823 -213.49754244178968 L-110.60665924100823 -207.9408007564479"/>
		<path opacity="0.5" fill="orange" d="M-126.60665924100823 -180.64900773396974 L-110.60665924100823 -207.9408007564479 L-138.3194721621103 -223.69772480464326 L-154.3194721621103 -196.40593178216508 L-126.60665924100823 -180.64900773396974"/>
		<path opacity="0.5" fill="orange" d="M-126.60665924100823 -186.20574941931147 L-110.60665924100823 -213.49754244178968 L-138.3194721621103 -229.25446648998502 L-154.3194721621103 -201.96267346750682 L-126.60665924100823 -186.20574941931147"/>
		<text x="-154.3194721621103" y="-199.18430262483594" font-family="calibri" font-size="4">32</text>
		<text x="-146.3194721621103" y="-215.60856997874592" font-family="calibri" font-size="4">32</text>
		<text x="-140.46306570155926" y="-188.5274697580674" font-family="calibri" font-size="4">32</text>

		<path opacity="0.75" fill="darkturquoise" d="M6.548083518322571 -185.67970623430045 L9.04808351832257 -189.9440488940627 L9.04808351832257 -190.81228978239733 L6.548083518322571 -186.5479471226351 L6.548083518322571 -185.67970623430045"/>
		<path opacity="0.75" fill="darkturquoise" d="M-48.87754232388147 -217.19355433069114 L-46.37754232388147 -221.45789699045338 L-46.37754232388147 -222.32613787878802 L-48.87754232388147 -218.06179521902578 L-48.87754232388147 -217.19355433069114"/>
		<path opacity="0.75" fill="darkturquoise" d="M6.548083518322571 -185.67970623430045 L-48.87754232388147 -217.19355433069114 L-48.87754232388147 -218.06179521902578 L6.548083518322571 -186.5479471226351 L6.548083518322571 -185.67970623430045"/>
		<path opacity="0.75" fill="darkturquoise" d="M9.04808351832257 -189.9440488940627 L-46.37754232388147 -221.45789699045338 L-46.37754232388147 -222.32613787878802 L9.04808351832257 -190.81228978239733 L9.04808351832257 -189.9440488940627"/>
		<path opacity="0.75" fill="darkturquoise" d="M6.548083518322571 -185.67970623430045 L9.04808351832257 -189.9440488940627 L-46.37754232388147 -221.45789699045338 L-48.87754232388147 -217.19355433069114 L6.548083518322571 -185.67970623430045"/>
		<path opacity="0.75" fill="darkturquoise" d="M6.548083518322571 -186.5479471226351 L9.04808351832257 -190.81228978239733 L-46.37754232388147 -222.32613787878802 L-48.87754232388147 -218.06179521902578 L6.548083518322571 -186.5479471226351"/>
		<text x="-48.87754232388147" y="-217.62767477485846" font-family="calibri" font-size="4">5</text>
		<text x="-47.62754232388147" y="-220.1939665489069" font-family="calibri" font-size="4">5</text>
		<text x="-21.16472940277945" y="-201.4366302824958" font-family="calibri" font-size="4">64</text>

		<path opacity="0.5" fill="orange" d="M4.6202367904177635 -181.3406058105181 L12.620236790417763 -194.9865023217572 L12.620236790417763 -197.76487316442808 L4.6202367904177635 -184.11897665318898 L4.6202367904177635 -181.3406058105181"/>
		<path opacity="0.5" fill="orange" d="M-50.80538905178628 -212.85445390690876 L-42.80538905178628 -226.50035041814786 L-42.80538905178628 -229.27872126081874 L-50.80538905178628 -215.63282474957964 L-50.80538905178628 -212.85445390690876"/>
		<path opacity="0.5" fill="orange" d="M4.6202367904177635 -181.3406058105181 L-50.80538905178628 -212.85445390690876 L-50.80538905178628 -215.63282474957964 L4.6202367904177635 -184.11897665318898 L4.6202367904177635 -181.3406058105181"/>
		<path opacity="0.5" fill="orange" d="M12.620236790417763 -194.9865023217572 L-42.80538905178628 -226.50035041814786 L-42.80538905178628 -229.27872126081874 L12.620236790417763 -197.76487316442808 L12.620236790417763 -194.9865023217572"/>
		<path opacity="0.5" fill="orange" d="M4.6202367904177635 -181.3406058105181 L12.620236790417763 -194.9865023217572 L-42.80538905178628 -226.50035041814786 L-50.80538905178628 -212.85445390690876 L4.6202367904177635 -181.3406058105181"/>
		<path opacity="0.5" fill="orange" d="M4.6202367904177635 -184.11897665318898 L12.620236790417763 -197.76487316442808 L-42.80538905178628 -229.27872126081874 L-50.80538905178628 -215.63282474957964 L4.6202367904177635 -184.11897665318898"/>
		<text x="-50.80538905178628" y="-214.2436393282442" font-family="calibri" font-size="4">16</text>
		<text x="-46.80538905178628" y="-222.4557730051992" font-family="calibri" font-size="4">16</text>
		<text x="-23.092576130684257" y="-197.09752985871341" font-family="calibri" font-size="4">64</text>

		<path opacity="0.75" fill="darkturquoise" d="M-222.2621162039515 -181.74337315653824 L-217.2621162039515 -190.27205847606268 L-217.2621162039515 -192.008540252732 L-222.2621162039515 -183.47985493320755 L-222.2621162039515 -181.74337315653824"/>
		<path opacity="0.75" fill="darkturquoise" d="M-239.5826242796403 -191.59145068666032 L-234.5826242796403 -200.12013600618477 L-234.5826242796403 -201.85661778285407 L-239.5826242796403 -193.32793246332963 L-239.5826242796403 -191.59145068666032"/>
		<path opacity="0.75" fill="darkturquoise" d="M-222.2621162039515 -181.74337315653824 L-239.5826242796403 -191.59145068666032 L-239.5826242796403 -193.32793246332963 L-222.2621162039515 -183.47985493320755 L-222.2621162039515 -181.74337315653824"/>
		<path opacity="0.75" fill="darkturquoise" d="M-217.2621162039515 -190.27205847606268 L-234.5826242796403 -200.12013600618477 L-234.5826242796403 -201.85661778285407 L-217.2621162039515 -192.008540252732 L-217.2621162039515 -190.27205847606268"/>
		<path opacity="0.75" fill="darkturquoise" d="M-222.2621162039515 -181.74337315653824 L-217.2621162039515 -190.27205847606268 L-234.5826242796403 -200.12013600618477 L-239.5826242796403 -191.59145068666032 L-222.2621162039515 -181.74337315653824"/>
		<path opacity="0.75" fill="darkturquoise" d="M-222.2621162039515 -183.47985493320755 L-217.2621162039515 -192.008540252732 L-234.5826242796403 -201.85661778285407 L-239.5826242796403 -193.32793246332963 L-222.2621162039515 -183.47985493320755"/>
		<text x="-239.5826242796403" y="-192.45969157499496" font-family="calibri" font-size="4">10</text>
		<text x="-237.0826242796403" y="-197.59227512309184" font-family="calibri" font-size="4">10</text>
		<text x="-230.9223702417959" y="-186.6674119215993" font-family="calibri" font-size="4">20</text>

		<path opacity="0.5" fill="orange" d="M-226.12074235133218 -172.412619286181 L-210.12074235133218 -199.7044123086592 L-210.12074235133218 -205.26115399400092 L-226.12074235133218 -177.96936097152275 L-226.12074235133218 -172.412619286181"/>
		<path opacity="0.5" fill="orange" d="M-243.44125042702098 -182.2606968163031 L-227.44125042702098 -209.55248983878127 L-227.44125042702098 -215.109231524123 L-243.44125042702098 -187.81743850164483 L-243.44125042702098 -182.2606968163031"/>
		<path opacity="0.5" fill="orange" d="M-226.12074235133218 -172.412619286181 L-243.44125042702098 -182.2606968163031 L-243.44125042702098 -187.81743850164483 L-226.12074235133218 -177.96936097152275 L-226.12074235133218 -172.412619286181"/>
		<path opacity="0.5" fill="orange" d="M-210.12074235133218 -199.7044123086592 L-227.44125042702098 -209.55248983878127 L-227.44125042702098 -215.109231524123 L-210.12074235133218 -205.26115399400092 L-210.12074235133218 -199.7044123086592"/>
		<path opacity="0.5" fill="orange" d="M-226.12074235133218 -172.412619286181 L-210.12074235133218 -199.7044123086592 L-227.44125042702098 -209.55248983878127 L-243.44125042702098 -182.2606968163031 L-226.12074235133218 -172.412619286181"/>
		<path opacity="0.5" fill="orange" d="M-226.12074235133218 -177.96936097152275 L-210.12074235133218 -205.26115399400092 L-227.44125042702098 -215.109231524123 L-243.44125042702098 -187.81743850164483 L-226.12074235133218 -177.96936097152275"/>
		<text x="-243.44125042702098" y="-185.03906765897398" font-family="calibri" font-size="4">32</text>
		<text x="-235.44125042702098" y="-201.46333501288393" font-family="calibri" font-size="4">32</text>
		<text x="-234.78099638917658" y="-177.33665805124207" font-family="calibri" font-size="4">20</text>

		<path opacity="0.75" fill="pink" d="M-125.69664794803376 -182.32417088338076 L-123.19664794803376 -186.588513543143 L-78.74568395517159 -166.23855486681197 L-125.69664794803376 -182.32417088338076"/>
		<path opacity="0.75" fill="pink" d="M-125.69664794803376 -182.32417088338076 L-125.69664794803376 -183.1924117717154 L-78.74568395517159 -166.23855486681197 L-125.69664794803376 -182.32417088338076"/>
		<path opacity="0.75" fill="pink" d="M-123.19664794803376 -186.588513543143 L-123.19664794803376 -187.45675443147763 L-78.74568395517159 -166.23855486681197 L-123.19664794803376 -186.588513543143"/>
		<path opacity="0.75" fill="pink" d="M-125.69664794803376 -183.1924117717154 L-123.19664794803376 -187.45675443147763 L-78.74568395517159 -166.23855486681197 L-125.69664794803376 -183.1924117717154"/>

		<path opacity="0.75" fill="pink" d="M-222.2621162039515 -181.74337315653824 L-217.2621162039515 -190.27205847606268 L-169.63020805474798 -173.2348120144807 L-222.2621162039515 -181.74337315653824"/>
		<path opacity="0.75" fill="pink" d="M-222.2621162039515 -181.74337315653824 L-222.2621162039515 -183.47985493320755 L-169.63020805474798 -173.2348120144807 L-222.2621162039515 -181.74337315653824"/>
		<path opacity="0.75" fill="pink" d="M-217.2621162039515 -190.27205847606268 L-217.2621162039515 -192.008540252732 L-169.63020805474798 -173.2348120144807 L-217.2621162039515 -190.27205847606268"/>
		<path opacity="0.75" fill="pink" d="M-222.2621162039515 -183.47985493320755 L-217.2621162039515 -192.008540252732 L-169.63020805474798 -173.2348120144807 L-222.2621162039515 -183.47985493320755"/>

		<path opacity="0.75" fill="pink" d="M6.548083518322571 -185.67970623430045 L9.04808351832257 -189.9440488940627 L50.94831769559546 -163.42473004651316 L6.548083518322571 -185.67970623430045"/>
		<path opacity="0.75" fill="pink" d="M6.548083518322571 -185.67970623430045 L6.548083518322571 -186.5479471226351 L50.94831769559546 -163.42473004651316 L6.548083518322571 -185.67970623430045"/>
		<path opacity="0.75" fill="pink" d="M9.04808351832257 -189.9440488940627 L9.04808351832257 -190.81228978239733 L50.94831769559546 -163.42473004651316 L9.04808351832257 -189.9440488940627"/>
		<path opacity="0.75" fill="pink" d="M6.548083518322571 -186.5479471226351 L9.04808351832257 -190.81228978239733 L50.94831769559546 -163.42473004651316 L6.548083518322571 -186.5479471226351"/>

		<path opacity="0.75" fill="darkturquoise" d="M-18.903982980470147 -141.3666629369689 L-16.403982980470147 -145.63100559673111 L-16.403982980470147 -146.49924648506575 L-18.903982980470147 -142.23490382530355 L-18.903982980470147 -141.3666629369689"/>
		<path opacity="0.75" fill="darkturquoise" d="M-74.3296088226742 -172.88051103335957 L-71.8296088226742 -177.14485369312177 L-71.8296088226742 -178.01309458145641 L-74.3296088226742 -173.7487519216942 L-74.3296088226742 -172.88051103335957"/>
		<path opacity="0.75" fill="darkturquoise" d="M-18.903982980470147 -141.3666629369689 L-74.3296088226742 -172.88051103335957 L-74.3296088226742 -173.7487519216942 L-18.903982980470147 -142.23490382530355 L-18.903982980470147 -141.3666629369689"/>
		<path opacity="0.75" fill="darkturquoise" d="M-16.403982980470147 -145.63100559673111 L-71.8296088226742 -177.14485369312177 L-71.8296088226742 -178.01309458145641 L-16.403982980470147 -146.49924648506575 L-16.403982980470147 -145.63100559673111"/>
		<path opacity="0.75" fill="darkturquoise" d="M-18.903982980470147 -141.3666629369689 L-16.403982980470147 -145.63100559673111 L-71.8296088226742 -177.14485369312177 L-74.3296088226742 -172.88051103335957 L-18.903982980470147 -141.3666629369689"/>
		<path opacity="0.75" fill="darkturquoise" d="M-18.903982980470147 -142.23490382530355 L-16.403982980470147 -146.49924648506575 L-71.8296088226742 -178.01309458145641 L-74.3296088226742 -173.7487519216942 L-18.903982980470147 -142.23490382530355"/>
		<text x="-74.3296088226742" y="-173.3146314775269" font-family="calibri" font-size="4">5</text>
		<text x="-73.0796088226742" y="-175.88092325157533" font-family="calibri" font-size="4">5</text>
		<text x="-46.616795901572175" y="-157.12358698516425" font-family="calibri" font-size="4">64</text>

		<path opacity="0.5" fill="orange" d="M-23.87976320958225 -132.72709948922883 L-15.87976320958225 -146.37299600046794 L-15.87976320958225 -149.1513668431388 L-23.87976320958225 -135.5054703318997 L-23.87976320958225 -132.72709948922883"/>
		<path opacity="0.5" fill="orange" d="M-79.3053890517863 -164.2409475856195 L-71.3053890517863 -177.8868440968586 L-71.3053890517863 -180.66521493952948 L-79.3053890517863 -167.01931842829038 L-79.3053890517863 -164.2409475856195"/>
		<path opacity="0.5" fill="orange" d="M-23.87976320958225 -132.72709948922883 L-79.3053890517863 -164.2409475856195 L-79.3053890517863 -167.01931842829038 L-23.87976320958225 -135.5054703318997 L-23.87976320958225 -132.72709948922883"/>
		<path opacity="0.5" fill="orange" d="M-15.87976320958225 -146.37299600046794 L-71.3053890517863 -177.8868440968586 L-71.3053890517863 -180.66521493952948 L-15.87976320958225 -149.1513668431388 L-15.87976320958225 -146.37299600046794"/>
		<path opacity="0.5" fill="orange" d="M-23.87976320958225 -132.72709948922883 L-15.87976320958225 -146.37299600046794 L-71.3053890517863 -177.8868440968586 L-79.3053890517863 -164.2409475856195 L-23.87976320958225 -132.72709948922883"/>
		<path opacity="0.5" fill="orange" d="M-23.87976320958225 -135.5054703318997 L-15.87976320958225 -149.1513668431388 L-71.3053890517863 -180.66521493952948 L-79.3053890517863 -167.01931842829038 L-23.87976320958225 -135.5054703318997"/>
		<text x="-79.3053890517863" y="-165.63013300695494" font-family="calibri" font-size="4">16</text>
		<text x="-75.3053890517863" y="-173.84226668390994" font-family="calibri" font-size="4">16</text>
		<text x="-51.59257613068428" y="-148.48402353742415" font-family="calibri" font-size="4">64</text>

		<path opacity="0.75" fill="darkturquoise" d="M-149.8608272065283 -143.88745090441714 L-147.3608272065283 -148.15179356417934 L-147.3608272065283 -149.02003445251398 L-149.8608272065283 -144.75569179275178 L-149.8608272065283 -143.88745090441714"/>
		<path opacity="0.75" fill="darkturquoise" d="M-177.57364012763037 -159.64437495261248 L-175.07364012763037 -163.9087176123747 L-175.07364012763037 -164.77695850070933 L-177.57364012763037 -160.51261584094712 L-177.57364012763037 -159.64437495261248"/>
		<path opacity="0.75" fill="darkturquoise" d="M-149.8608272065283 -143.88745090441714 L-177.57364012763037 -159.64437495261248 L-177.57364012763037 -160.51261584094712 L-149.8608272065283 -144.75569179275178 L-149.8608272065283 -143.88745090441714"/>
		<path opacity="0.75" fill="darkturquoise" d="M-147.3608272065283 -148.15179356417934 L-175.07364012763037 -163.9087176123747 L-175.07364012763037 -164.77695850070933 L-147.3608272065283 -149.02003445251398 L-147.3608272065283 -148.15179356417934"/>
		<path opacity="0.75" fill="darkturquoise" d="M-149.8608272065283 -143.88745090441714 L-147.3608272065283 -148.15179356417934 L-175.07364012763037 -163.9087176123747 L-177.57364012763037 -159.64437495261248 L-149.8608272065283 -143.88745090441714"/>
		<path opacity="0.75" fill="darkturquoise" d="M-149.8608272065283 -144.75569179275178 L-147.3608272065283 -149.02003445251398 L-175.07364012763037 -164.77695850070933 L-177.57364012763037 -160.51261584094712 L-149.8608272065283 -144.75569179275178"/>
		<text x="-177.57364012763037" y="-160.0784953967798" font-family="calibri" font-size="4">5</text>
		<text x="-176.32364012763037" y="-162.64478717082824" font-family="calibri" font-size="4">5</text>
		<text x="-163.71723366707934" y="-151.7659129285148" font-family="calibri" font-size="4">32</text>

		<path opacity="0.5" fill="orange" d="M-155.10665924100823 -132.03550141268047 L-139.10665924100823 -159.32729443515865 L-139.10665924100823 -164.88403612050038 L-155.10665924100823 -137.5922430980222 L-155.10665924100823 -132.03550141268047"/>
		<path opacity="0.5" fill="orange" d="M-182.8194721621103 -147.79242546087582 L-166.8194721621103 -175.084218483354 L-166.8194721621103 -180.64096016869573 L-182.8194721621103 -153.34916714621755 L-182.8194721621103 -147.79242546087582"/>
		<path opacity="0.5" fill="orange" d="M-155.10665924100823 -132.03550141268047 L-182.8194721621103 -147.79242546087582 L-182.8194721621103 -153.34916714621755 L-155.10665924100823 -137.5922430980222 L-155.10665924100823 -132.03550141268047"/>
		<path opacity="0.5" fill="orange" d="M-139.10665924100823 -159.32729443515865 L-166.8194721621103 -175.084218483354 L-166.8194721621103 -180.64096016869573 L-139.10665924100823 -164.88403612050038 L-139.10665924100823 -159.32729443515865"/>
		<path opacity="0.5" fill="orange" d="M-155.10665924100823 -132.03550141268047 L-139.10665924100823 -159.32729443515865 L-166.8194721621103 -175.084218483354 L-182.8194721621103 -147.79242546087582 L-155.10665924100823 -132.03550141268047"/>
		<path opacity="0.5" fill="orange" d="M-155.10665924100823 -137.5922430980222 L-139.10665924100823 -164.88403612050038 L-166.8194721621103 -180.64096016869573 L-182.8194721621103 -153.34916714621755 L-155.10665924100823 -137.5922430980222"/>
		<text x="-182.8194721621103" y="-150.57079630354667" font-family="calibri" font-size="4">32</text>
		<text x="-174.8194721621103" y="-166.99506365745663" font-family="calibri" font-size="4">32</text>
		<text x="-168.96306570155926" y="-139.91396343677815" font-family="calibri" font-size="4">32</text>

		<path opacity="0.75" fill="pink" d="M-250.72241317299137 -131.08790711823133 L-245.72241317299137 -139.61659243775577 L-204.33173603295205 -111.49749727205791 L-250.72241317299137 -131.08790711823133"/>
		<path opacity="0.75" fill="pink" d="M-250.72241317299137 -131.08790711823133 L-250.72241317299137 -132.82438889490064 L-204.33173603295205 -111.49749727205791 L-250.72241317299137 -131.08790711823133"/>
		<path opacity="0.75" fill="pink" d="M-245.72241317299137 -139.61659243775577 L-245.72241317299137 -141.35307421442508 L-204.33173603295205 -111.49749727205791 L-245.72241317299137 -139.61659243775577"/>
		<path opacity="0.75" fill="pink" d="M-250.72241317299137 -132.82438889490064 L-245.72241317299137 -141.35307421442508 L-204.33173603295205 -111.49749727205791 L-250.72241317299137 -132.82438889490064"/>

		<path opacity="0.5" fill="orange" d="M105.34713282184379 -129.3126307272997 L109.34713282184379 -136.13557898291924 L109.34713282184379 -137.5247644042547 L105.34713282184379 -130.70181614863515 L105.34713282184379 -129.3126307272997"/>
		<path opacity="0.5" fill="orange" d="M49.9215069796397 -160.82647882369037 L53.9215069796397 -167.64942707930993 L53.9215069796397 -169.03861250064537 L49.9215069796397 -162.21566424502583 L49.9215069796397 -160.82647882369037"/>
		<path opacity="0.5" fill="orange" d="M105.34713282184379 -129.3126307272997 L49.9215069796397 -160.82647882369037 L49.9215069796397 -162.21566424502583 L105.34713282184379 -130.70181614863515 L105.34713282184379 -129.3126307272997"/>
		<path opacity="0.5" fill="orange" d="M109.34713282184379 -136.13557898291924 L53.9215069796397 -167.64942707930993 L53.9215069796397 -169.03861250064537 L109.34713282184379 -137.5247644042547 L109.34713282184379 -136.13557898291924"/>
		<path opacity="0.5" fill="orange" d="M105.34713282184379 -129.3126307272997 L109.34713282184379 -136.13557898291924 L53.9215069796397 -167.64942707930993 L49.9215069796397 -160.82647882369037 L105.34713282184379 -129.3126307272997"/>
		<path opacity="0.5" fill="orange" d="M105.34713282184379 -130.70181614863515 L109.34713282184379 -137.5247644042547 L53.9215069796397 -169.03861250064537 L49.9215069796397 -162.21566424502583 L105.34713282184379 -130.70181614863515"/>
		<text x="49.9215069796397" y="-161.5210715343581" font-family="calibri" font-size="4">8</text>
		<text x="51.9215069796397" y="-165.6271383728356" font-family="calibri" font-size="4">8</text>
		<text x="77.63431990074174" y="-145.06955477549502" font-family="calibri" font-size="4">64</text>

		<path opacity="0.75" fill="darkturquoise" d="M-250.72241317299137 -131.08790711823133 L-245.72241317299137 -139.61659243775577 L-245.72241317299137 -141.35307421442508 L-250.72241317299137 -132.82438889490064 L-250.72241317299137 -131.08790711823133"/>
		<path opacity="0.75" fill="darkturquoise" d="M-268.04292124868016 -140.9359846483534 L-263.04292124868016 -149.46466996787785 L-263.04292124868016 -151.20115174454713 L-268.04292124868016 -142.67246642502272 L-268.04292124868016 -140.9359846483534"/>
		<path opacity="0.75" fill="darkturquoise" d="M-250.72241317299137 -131.08790711823133 L-268.04292124868016 -140.9359846483534 L-268.04292124868016 -142.67246642502272 L-250.72241317299137 -132.82438889490064 L-250.72241317299137 -131.08790711823133"/>
		<path opacity="0.75" fill="darkturquoise" d="M-245.72241317299137 -139.61659243775577 L-263.04292124868016 -149.46466996787785 L-263.04292124868016 -151.20115174454713 L-245.72241317299137 -141.35307421442508 L-245.72241317299137 -139.61659243775577"/>
		<path opacity="0.75" fill="darkturquoise" d="M-250.72241317299137 -131.08790711823133 L-245.72241317299137 -139.61659243775577 L-263.04292124868016 -149.46466996787785 L-268.04292124868016 -140.9359846483534 L-250.72241317299137 -131.08790711823133"/>
		<path opacity="0.75" fill="darkturquoise" d="M-250.72241317299137 -132.82438889490064 L-245.72241317299137 -141.35307421442508 L-263.04292124868016 -151.20115174454713 L-268.04292124868016 -142.67246642502272 L-250.72241317299137 -132.82438889490064"/>
		<text x="-268.04292124868016" y="-141.80422553668808" font-family="calibri" font-size="4">10</text>
		<text x="-265.54292124868016" y="-146.93680908478493" font-family="calibri" font-size="4">10</text>
		<text x="-259.38266721083573" y="-136.01194588329236" font-family="calibri" font-size="4">20</text>

		<path opacity="0.5" fill="orange" d="M-254.62074235133218 -123.79911296489173 L-238.62074235133218 -151.09090598736992 L-238.62074235133218 -156.64764767271166 L-254.62074235133218 -129.35585465023348 L-254.62074235133218 -123.79911296489173"/>
		<path opacity="0.5" fill="orange" d="M-271.941250427021 -133.64719049501383 L-255.94125042702098 -160.938983517492 L-255.94125042702098 -166.49572520283374 L-271.941250427021 -139.20393218035557 L-271.941250427021 -133.64719049501383"/>
		<path opacity="0.5" fill="orange" d="M-254.62074235133218 -123.79911296489173 L-271.941250427021 -133.64719049501383 L-271.941250427021 -139.20393218035557 L-254.62074235133218 -129.35585465023348 L-254.62074235133218 -123.79911296489173"/>
		<path opacity="0.5" fill="orange" d="M-238.62074235133218 -151.09090598736992 L-255.94125042702098 -160.938983517492 L-255.94125042702098 -166.49572520283374 L-238.62074235133218 -156.64764767271166 L-238.62074235133218 -151.09090598736992"/>
		<path opacity="0.5" fill="orange" d="M-254.62074235133218 -123.79911296489173 L-238.62074235133218 -151.09090598736992 L-255.94125042702098 -160.938983517492 L-271.941250427021 -133.64719049501383 L-254.62074235133218 -123.79911296489173"/>
		<path opacity="0.5" fill="orange" d="M-254.62074235133218 -129.35585465023348 L-238.62074235133218 -156.64764767271166 L-255.94125042702098 -166.49572520283374 L-271.941250427021 -139.20393218035557 L-254.62074235133218 -129.35585465023348"/>
		<text x="-271.941250427021" y="-136.4255613376847" font-family="calibri" font-size="4">32</text>
		<text x="-263.941250427021" y="-152.84982869159467" font-family="calibri" font-size="4">32</text>
		<text x="-263.2809963891766" y="-128.72315172995278" font-family="calibri" font-size="4">20</text>

		<path opacity="0.75" fill="pink" d="M-149.8608272065283 -143.88745090441714 L-147.3608272065283 -148.15179356417934 L-105.55363888082084 -121.85641692940506 L-149.8608272065283 -143.88745090441714"/>
		<path opacity="0.75" fill="pink" d="M-149.8608272065283 -143.88745090441714 L-149.8608272065283 -144.75569179275178 L-105.55363888082084 -121.85641692940506 L-149.8608272065283 -143.88745090441714"/>
		<path opacity="0.75" fill="pink" d="M-147.3608272065283 -148.15179356417934 L-147.3608272065283 -149.02003445251398 L-105.55363888082084 -121.85641692940506 L-147.3608272065283 -148.15179356417934"/>
		<path opacity="0.75" fill="pink" d="M-149.8608272065283 -144.75569179275178 L-147.3608272065283 -149.02003445251398 L-105.55363888082084 -121.85641692940506 L-149.8608272065283 -144.75569179275178"/>

		<path opacity="0.75" fill="pink" d="M-18.903982980470147 -141.3666629369689 L-16.403982980470147 -145.63100559673111 L22.090460569222046 -114.25359933370271 L-18.903982980470147 -141.3666629369689"/>
		<path opacity="0.75" fill="pink" d="M-18.903982980470147 -141.3666629369689 L-18.903982980470147 -142.23490382530355 L22.090460569222046 -114.25359933370271 L-18.903982980470147 -141.3666629369689"/>
		<path opacity="0.75" fill="pink" d="M-16.403982980470147 -145.63100559673111 L-16.403982980470147 -146.49924648506575 L22.090460569222046 -114.25359933370271 L-16.403982980470147 -145.63100559673111"/>
		<path opacity="0.75" fill="pink" d="M-18.903982980470147 -142.23490382530355 L-16.403982980470147 -146.49924648506575 L22.090460569222046 -114.25359933370271 L-18.903982980470147 -142.23490382530355"/>

		<path opacity="0.75" fill="darkturquoise" d="M-179.52882046650723 -90.87626079062325 L-177.02882046650723 -95.14060345038547 L-177.02882046650723 -96.00884433872011 L-179.52882046650723 -91.7445016789579 L-179.52882046650723 -90.87626079062325"/>
		<path opacity="0.75" fill="darkturquoise" d="M-207.24163338760928 -106.6331848388186 L-204.74163338760928 -110.89752749858081 L-204.74163338760928 -111.76576838691545 L-207.24163338760928 -107.50142572715325 L-207.24163338760928 -106.6331848388186"/>
		<path opacity="0.75" fill="darkturquoise" d="M-179.52882046650723 -90.87626079062325 L-207.24163338760928 -106.6331848388186 L-207.24163338760928 -107.50142572715325 L-179.52882046650723 -91.7445016789579 L-179.52882046650723 -90.87626079062325"/>
		<path opacity="0.75" fill="darkturquoise" d="M-177.02882046650723 -95.14060345038547 L-204.74163338760928 -110.89752749858081 L-204.74163338760928 -111.76576838691545 L-177.02882046650723 -96.00884433872011 L-177.02882046650723 -95.14060345038547"/>
		<path opacity="0.75" fill="darkturquoise" d="M-179.52882046650723 -90.87626079062325 L-177.02882046650723 -95.14060345038547 L-204.74163338760928 -110.89752749858081 L-207.24163338760928 -106.6331848388186 L-179.52882046650723 -90.87626079062325"/>
		<path opacity="0.75" fill="darkturquoise" d="M-179.52882046650723 -91.7445016789579 L-177.02882046650723 -96.00884433872011 L-204.74163338760928 -111.76576838691545 L-207.24163338760928 -107.50142572715325 L-179.52882046650723 -91.7445016789579"/>
		<text x="-207.24163338760928" y="-107.06730528298593" font-family="calibri" font-size="4">5</text>
		<text x="-205.99163338760928" y="-109.63359705703435" font-family="calibri" font-size="4">5</text>
		<text x="-193.38522692705826" y="-98.75472281472092" font-family="calibri" font-size="4">32</text>

		<path opacity="0.5" fill="orange" d="M-183.60665924100823 -83.4219950913912 L-167.60665924100823 -110.71378811386938 L-167.60665924100823 -116.27052979921112 L-183.60665924100823 -88.97873677673294 L-183.60665924100823 -83.4219950913912"/>
		<path opacity="0.5" fill="orange" d="M-211.3194721621103 -99.17891913958654 L-195.3194721621103 -126.47071216206473 L-195.3194721621103 -132.02745384740646 L-211.3194721621103 -104.73566082492829 L-211.3194721621103 -99.17891913958654"/>
		<path opacity="0.5" fill="orange" d="M-183.60665924100823 -83.4219950913912 L-211.3194721621103 -99.17891913958654 L-211.3194721621103 -104.73566082492829 L-183.60665924100823 -88.97873677673294 L-183.60665924100823 -83.4219950913912"/>
		<path opacity="0.5" fill="orange" d="M-167.60665924100823 -110.71378811386938 L-195.3194721621103 -126.47071216206473 L-195.3194721621103 -132.02745384740646 L-167.60665924100823 -116.27052979921112 L-167.60665924100823 -110.71378811386938"/>
		<path opacity="0.5" fill="orange" d="M-183.60665924100823 -83.4219950913912 L-167.60665924100823 -110.71378811386938 L-195.3194721621103 -126.47071216206473 L-211.3194721621103 -99.17891913958654 L-183.60665924100823 -83.4219950913912"/>
		<path opacity="0.5" fill="orange" d="M-183.60665924100823 -88.97873677673294 L-167.60665924100823 -116.27052979921112 L-195.3194721621103 -132.02745384740646 L-211.3194721621103 -104.73566082492829 L-183.60665924100823 -88.97873677673294"/>
		<text x="-211.3194721621103" y="-101.95728998225741" font-family="calibri" font-size="4">32</text>
		<text x="-203.3194721621103" y="-118.38155733616738" font-family="calibri" font-size="4">32</text>
		<text x="-197.46306570155926" y="-91.30045711548887" font-family="calibri" font-size="4">32</text>

<!-- Arrow -->
		<path opacity="0.5" stroke="black" d="M107.34713282184379 -133.41869756577722 L123.40802195429913 -91.87780872741892"/>
		<circle opacity="0.5" cx="123.40802195429913" cy="-91.87780872741892" r="1" fill="black" />
		<path opacity="0.75" fill="darkturquoise" d="M-49.68374029476061 -89.59244994007263 L-47.18374029476061 -93.85679259983485 L-47.18374029476061 -94.72503348816949 L-49.68374029476061 -90.46069082840728 L-49.68374029476061 -89.59244994007263"/>
		<path opacity="0.75" fill="darkturquoise" d="M-105.10936613696467 -121.1062980364633 L-102.60936613696467 -125.37064069622552 L-102.60936613696467 -126.23888158456016 L-105.10936613696467 -121.97453892479795 L-105.10936613696467 -121.1062980364633"/>
		<path opacity="0.75" fill="darkturquoise" d="M-49.68374029476061 -89.59244994007263 L-105.10936613696467 -121.1062980364633 L-105.10936613696467 -121.97453892479795 L-49.68374029476061 -90.46069082840728 L-49.68374029476061 -89.59244994007263"/>
		<path opacity="0.75" fill="darkturquoise" d="M-47.18374029476061 -93.85679259983485 L-102.60936613696467 -125.37064069622552 L-102.60936613696467 -126.23888158456016 L-47.18374029476061 -94.72503348816949 L-47.18374029476061 -93.85679259983485"/>
		<path opacity="0.75" fill="darkturquoise" d="M-49.68374029476061 -89.59244994007263 L-47.18374029476061 -93.85679259983485 L-102.60936613696467 -125.37064069622552 L-105.10936613696467 -121.1062980364633 L-49.68374029476061 -89.59244994007263"/>
		<path opacity="0.75" fill="darkturquoise" d="M-49.68374029476061 -90.46069082840728 L-47.18374029476061 -94.72503348816949 L-102.60936613696467 -126.23888158456016 L-105.10936613696467 -121.97453892479795 L-49.68374029476061 -90.46069082840728"/>
		<text x="-105.10936613696467" y="-121.54041848063062" font-family="calibri" font-size="4">5</text>
		<text x="-103.85936613696467" y="-124.10671025467906" font-family="calibri" font-size="4">5</text>
		<text x="-77.39655321586264" y="-105.34937398826796" font-family="calibri" font-size="4">64</text>

		<path opacity="0.5" fill="orange" d="M-52.37976320958225 -84.11359316793957 L-44.37976320958225 -97.75948967917866 L-44.37976320958225 -100.53786052184952 L-52.37976320958225 -86.89196401061044 L-52.37976320958225 -84.11359316793957"/>
		<path opacity="0.5" fill="orange" d="M-107.8053890517863 -115.62744126433024 L-99.8053890517863 -129.27333777556933 L-99.8053890517863 -132.0517086182402 L-107.8053890517863 -118.40581210700111 L-107.8053890517863 -115.62744126433024"/>
		<path opacity="0.5" fill="orange" d="M-52.37976320958225 -84.11359316793957 L-107.8053890517863 -115.62744126433024 L-107.8053890517863 -118.40581210700111 L-52.37976320958225 -86.89196401061044 L-52.37976320958225 -84.11359316793957"/>
		<path opacity="0.5" fill="orange" d="M-44.37976320958225 -97.75948967917866 L-99.8053890517863 -129.27333777556933 L-99.8053890517863 -132.0517086182402 L-44.37976320958225 -100.53786052184952 L-44.37976320958225 -97.75948967917866"/>
		<path opacity="0.5" fill="orange" d="M-52.37976320958225 -84.11359316793957 L-44.37976320958225 -97.75948967917866 L-99.8053890517863 -129.27333777556933 L-107.8053890517863 -115.62744126433024 L-52.37976320958225 -84.11359316793957"/>
		<path opacity="0.5" fill="orange" d="M-52.37976320958225 -86.89196401061044 L-44.37976320958225 -100.53786052184952 L-99.8053890517863 -132.0517086182402 L-107.8053890517863 -118.40581210700111 L-52.37976320958225 -86.89196401061044"/>
		<text x="-107.8053890517863" y="-117.01662668566567" font-family="calibri" font-size="4">16</text>
		<text x="-103.8053890517863" y="-125.22876036262066" font-family="calibri" font-size="4">16</text>
		<text x="-80.09257613068428" y="-99.87051721613491" font-family="calibri" font-size="4">64</text>

		<path opacity="0.75" fill="darkturquoise" d="M-281.30548866633814 -79.42961227713387 L-276.30548866633814 -87.9582975966583 L-276.30548866633814 -89.69477937332759 L-281.30548866633814 -81.16609405380316 L-281.30548866633814 -79.42961227713387"/>
		<path opacity="0.75" fill="darkturquoise" d="M-298.6259967420269 -89.27768980725595 L-293.6259967420269 -97.80637512678038 L-293.6259967420269 -99.54285690344967 L-298.6259967420269 -91.01417158392525 L-298.6259967420269 -89.27768980725595"/>
		<path opacity="0.75" fill="darkturquoise" d="M-281.30548866633814 -79.42961227713387 L-298.6259967420269 -89.27768980725595 L-298.6259967420269 -91.01417158392525 L-281.30548866633814 -81.16609405380316 L-281.30548866633814 -79.42961227713387"/>
		<path opacity="0.75" fill="darkturquoise" d="M-276.30548866633814 -87.9582975966583 L-293.6259967420269 -97.80637512678038 L-293.6259967420269 -99.54285690344967 L-276.30548866633814 -89.69477937332759 L-276.30548866633814 -87.9582975966583"/>
		<path opacity="0.75" fill="darkturquoise" d="M-281.30548866633814 -79.42961227713387 L-276.30548866633814 -87.9582975966583 L-293.6259967420269 -97.80637512678038 L-298.6259967420269 -89.27768980725595 L-281.30548866633814 -79.42961227713387"/>
		<path opacity="0.75" fill="darkturquoise" d="M-281.30548866633814 -81.16609405380316 L-276.30548866633814 -89.69477937332759 L-293.6259967420269 -99.54285690344967 L-298.6259967420269 -91.01417158392525 L-281.30548866633814 -81.16609405380316"/>
		<text x="-298.6259967420269" y="-90.14593069559061" font-family="calibri" font-size="4">10</text>
		<text x="-296.1259967420269" y="-95.27851424368745" font-family="calibri" font-size="4">10</text>
		<text x="-289.9657427041825" y="-84.35365104219491" font-family="calibri" font-size="4">20</text>

		<path opacity="0.5" fill="orange" d="M-283.1207423513322 -75.18560664360247 L-267.1207423513322 -102.47739966608066 L-267.1207423513322 -108.03414135142239 L-283.1207423513322 -80.7423483289442 L-283.1207423513322 -75.18560664360247"/>
		<path opacity="0.5" fill="orange" d="M-300.441250427021 -85.03368417372455 L-284.441250427021 -112.32547719620274 L-284.441250427021 -117.88221888154447 L-300.441250427021 -90.59042585906629 L-300.441250427021 -85.03368417372455"/>
		<path opacity="0.5" fill="orange" d="M-283.1207423513322 -75.18560664360247 L-300.441250427021 -85.03368417372455 L-300.441250427021 -90.59042585906629 L-283.1207423513322 -80.7423483289442 L-283.1207423513322 -75.18560664360247"/>
		<path opacity="0.5" fill="orange" d="M-267.1207423513322 -102.47739966608066 L-284.441250427021 -112.32547719620274 L-284.441250427021 -117.88221888154447 L-267.1207423513322 -108.03414135142239 L-267.1207423513322 -102.47739966608066"/>
		<path opacity="0.5" fill="orange" d="M-283.1207423513322 -75.18560664360247 L-267.1207423513322 -102.47739966608066 L-284.441250427021 -112.32547719620274 L-300.441250427021 -85.03368417372455 L-283.1207423513322 -75.18560664360247"/>
		<path opacity="0.5" fill="orange" d="M-283.1207423513322 -80.7423483289442 L-267.1207423513322 -108.03414135142239 L-284.441250427021 -117.88221888154447 L-300.441250427021 -90.59042585906629 L-283.1207423513322 -80.7423483289442"/>
		<text x="-300.441250427021" y="-87.81205501639542" font-family="calibri" font-size="4">32</text>
		<text x="-292.441250427021" y="-104.23632237030537" font-family="calibri" font-size="4">32</text>
		<text x="-291.7809963891766" y="-80.10964540866351" font-family="calibri" font-size="4">20</text>

		<path opacity="0.5" fill="orange" d="M76.84713282184377 -80.69912440601044 L80.84713282184377 -87.52207266162998 L80.84713282184377 -88.91125808296542 L76.84713282184377 -82.08830982734588 L76.84713282184377 -80.69912440601044"/>
		<path opacity="0.5" fill="orange" d="M21.4215069796397 -112.21297250240112 L25.4215069796397 -119.03592075802067 L25.4215069796397 -120.4251061793561 L21.4215069796397 -113.60215792373656 L21.4215069796397 -112.21297250240112"/>
		<path opacity="0.5" fill="orange" d="M76.84713282184377 -80.69912440601044 L21.4215069796397 -112.21297250240112 L21.4215069796397 -113.60215792373656 L76.84713282184377 -82.08830982734588 L76.84713282184377 -80.69912440601044"/>
		<path opacity="0.5" fill="orange" d="M80.84713282184377 -87.52207266162998 L25.4215069796397 -119.03592075802067 L25.4215069796397 -120.4251061793561 L80.84713282184377 -88.91125808296542 L80.84713282184377 -87.52207266162998"/>
		<path opacity="0.5" fill="orange" d="M76.84713282184377 -80.69912440601044 L80.84713282184377 -87.52207266162998 L25.4215069796397 -119.03592075802067 L21.4215069796397 -112.21297250240112 L76.84713282184377 -80.69912440601044"/>
		<path opacity="0.5" fill="orange" d="M76.84713282184377 -82.08830982734588 L80.84713282184377 -88.91125808296542 L25.4215069796397 -120.4251061793561 L21.4215069796397 -113.60215792373656 L76.84713282184377 -82.08830982734588"/>
		<text x="21.4215069796397" y="-112.90756521306884" font-family="calibri" font-size="4">8</text>
		<text x="23.4215069796397" y="-117.01363205154632" font-family="calibri" font-size="4">8</text>
		<text x="49.13431990074174" y="-96.45604845420578" font-family="calibri" font-size="4">64</text>

		<path opacity="0.75" fill="pink" d="M-179.52882046650723 -90.87626079062325 L-177.02882046650723 -95.14060345038547 L-135.8607563000484 -68.23159341878247 L-179.52882046650723 -90.87626079062325"/>
		<path opacity="0.75" fill="pink" d="M-179.52882046650723 -90.87626079062325 L-179.52882046650723 -91.7445016789579 L-135.8607563000484 -68.23159341878247 L-179.52882046650723 -90.87626079062325"/>
		<path opacity="0.75" fill="pink" d="M-177.02882046650723 -95.14060345038547 L-177.02882046650723 -96.00884433872011 L-135.8607563000484 -68.23159341878247 L-177.02882046650723 -95.14060345038547"/>
		<path opacity="0.75" fill="pink" d="M-179.52882046650723 -91.7445016789579 L-177.02882046650723 -96.00884433872011 L-135.8607563000484 -68.23159341878247 L-179.52882046650723 -91.7445016789579"/>

		<path opacity="0.75" fill="pink" d="M-281.30548866633814 -79.42961227713387 L-276.30548866633814 -87.9582975966583 L-234.33978033026284 -60.58874387559402 L-281.30548866633814 -79.42961227713387"/>
		<path opacity="0.75" fill="pink" d="M-281.30548866633814 -79.42961227713387 L-281.30548866633814 -81.16609405380316 L-234.33978033026284 -60.58874387559402 L-281.30548866633814 -79.42961227713387"/>
		<path opacity="0.75" fill="pink" d="M-276.30548866633814 -87.9582975966583 L-276.30548866633814 -89.69477937332759 L-234.33978033026284 -60.58874387559402 L-276.30548866633814 -87.9582975966583"/>
		<path opacity="0.75" fill="pink" d="M-281.30548866633814 -81.16609405380316 L-276.30548866633814 -89.69477937332759 L-234.33978033026284 -60.58874387559402 L-281.30548866633814 -81.16609405380316"/>

		<path opacity="0.75" fill="pink" d="M-49.68374029476061 -89.59244994007263 L-47.18374029476061 -93.85679259983485 L-3.1277351750782003 -70.56151988166717 L-49.68374029476061 -89.59244994007263"/>
		<path opacity="0.75" fill="pink" d="M-49.68374029476061 -89.59244994007263 L-49.68374029476061 -90.46069082840728 L-3.1277351750782003 -70.56151988166717 L-49.68374029476061 -89.59244994007263"/>
		<path opacity="0.75" fill="pink" d="M-47.18374029476061 -93.85679259983485 L-47.18374029476061 -94.72503348816949 L-3.1277351750782003 -70.56151988166717 L-47.18374029476061 -93.85679259983485"/>
		<path opacity="0.75" fill="pink" d="M-49.68374029476061 -90.46069082840728 L-47.18374029476061 -94.72503348816949 L-3.1277351750782003 -70.56151988166717 L-49.68374029476061 -90.46069082840728"/>

<!-- Arrow -->
		<path opacity="0.5" stroke="black" d="M78.84713282184377 -84.80519124448793 L123.40802195429913 -91.87780872741892"/>
		<circle opacity="0.5" cx="123.40802195429913" cy="-91.87780872741892" r="1" fill="black" />
		<path opacity="0.75" fill="darkturquoise" d="M178.08231254084066 -58.4697994554855 L180.58231254084066 -62.73414211524771 L180.58231254084066 -63.60238300358236 L178.08231254084066 -59.338040343820154 L178.08231254084066 -58.4697994554855"/>
		<path opacity="0.75" fill="darkturquoise" d="M122.6566866986366 -89.98364755187617 L125.1566866986366 -94.24799021163838 L125.1566866986366 -95.11623109997304 L122.6566866986366 -90.85188844021083 L122.6566866986366 -89.98364755187617"/>
		<path opacity="0.75" fill="darkturquoise" d="M178.08231254084066 -58.4697994554855 L122.6566866986366 -89.98364755187617 L122.6566866986366 -90.85188844021083 L178.08231254084066 -59.338040343820154 L178.08231254084066 -58.4697994554855"/>
		<path opacity="0.75" fill="darkturquoise" d="M180.58231254084066 -62.73414211524771 L125.1566866986366 -94.24799021163838 L125.1566866986366 -95.11623109997304 L180.58231254084066 -63.60238300358236 L180.58231254084066 -62.73414211524771"/>
		<path opacity="0.75" fill="darkturquoise" d="M178.08231254084066 -58.4697994554855 L180.58231254084066 -62.73414211524771 L125.1566866986366 -94.24799021163838 L122.6566866986366 -89.98364755187617 L178.08231254084066 -58.4697994554855"/>
		<path opacity="0.75" fill="darkturquoise" d="M178.08231254084066 -59.338040343820154 L180.58231254084066 -63.60238300358236 L125.1566866986366 -95.11623109997304 L122.6566866986366 -90.85188844021083 L178.08231254084066 -59.338040343820154"/>
		<text x="122.6566866986366" y="-90.4177679960435" font-family="calibri" font-size="4">5</text>
		<text x="123.9066866986366" y="-92.98405977009193" font-family="calibri" font-size="4">5</text>
		<text x="150.36949961973863" y="-74.22672350368083" font-family="calibri" font-size="4">64</text>

		<path opacity="0.5" fill="orange" d="M176.8336477965032 -56.257893792550746 L180.8336477965032 -63.0808420481703 L180.8336477965032 -64.47002746950574 L176.8336477965032 -57.64707921388619 L176.8336477965032 -56.257893792550746"/>
		<path opacity="0.5" fill="orange" d="M121.40802195429913 -87.77174188894142 L125.40802195429913 -94.59469014456097 L125.40802195429913 -95.98387556589641 L121.40802195429913 -89.16092731027686 L121.40802195429913 -87.77174188894142"/>
		<path opacity="0.5" fill="orange" d="M176.8336477965032 -56.257893792550746 L121.40802195429913 -87.77174188894142 L121.40802195429913 -89.16092731027686 L176.8336477965032 -57.64707921388619 L176.8336477965032 -56.257893792550746"/>
		<path opacity="0.5" fill="orange" d="M180.8336477965032 -63.0808420481703 L125.40802195429913 -94.59469014456097 L125.40802195429913 -95.98387556589641 L180.8336477965032 -64.47002746950574 L180.8336477965032 -63.0808420481703"/>
		<path opacity="0.5" fill="orange" d="M176.8336477965032 -56.257893792550746 L180.8336477965032 -63.0808420481703 L125.40802195429913 -94.59469014456097 L121.40802195429913 -87.77174188894142 L176.8336477965032 -56.257893792550746"/>
		<path opacity="0.5" fill="orange" d="M176.8336477965032 -57.64707921388619 L180.8336477965032 -64.47002746950574 L125.40802195429913 -95.98387556589641 L121.40802195429913 -89.16092731027686 L176.8336477965032 -57.64707921388619"/>
		<text x="121.40802195429913" y="-88.46633459960914" font-family="calibri" font-size="4">8</text>
		<text x="123.40802195429913" y="-92.57240143808664" font-family="calibri" font-size="4">8</text>
		<text x="149.12083487540116" y="-72.01481784074608" font-family="calibri" font-size="4">64</text>

		<path opacity="0.75" fill="darkturquoise" d="M-207.07781320300552 -45.114956926922176 L-204.57781320300552 -49.3792995866844 L-204.57781320300552 -50.24754047501905 L-207.07781320300552 -45.98319781525683 L-207.07781320300552 -45.114956926922176"/>
		<path opacity="0.75" fill="darkturquoise" d="M-234.79062612410758 -60.87188097511752 L-232.29062612410758 -65.13622363487974 L-232.29062612410758 -66.0044645232144 L-234.79062612410758 -61.740121863452174 L-234.79062612410758 -60.87188097511752"/>
		<path opacity="0.75" fill="darkturquoise" d="M-207.07781320300552 -45.114956926922176 L-234.79062612410758 -60.87188097511752 L-234.79062612410758 -61.740121863452174 L-207.07781320300552 -45.98319781525683 L-207.07781320300552 -45.114956926922176"/>
		<path opacity="0.75" fill="darkturquoise" d="M-204.57781320300552 -49.3792995866844 L-232.29062612410758 -65.13622363487974 L-232.29062612410758 -66.0044645232144 L-204.57781320300552 -50.24754047501905 L-204.57781320300552 -49.3792995866844"/>
		<path opacity="0.75" fill="darkturquoise" d="M-207.07781320300552 -45.114956926922176 L-204.57781320300552 -49.3792995866844 L-232.29062612410758 -65.13622363487974 L-234.79062612410758 -60.87188097511752 L-207.07781320300552 -45.114956926922176"/>
		<path opacity="0.75" fill="darkturquoise" d="M-207.07781320300552 -45.98319781525683 L-204.57781320300552 -50.24754047501905 L-232.29062612410758 -66.0044645232144 L-234.79062612410758 -61.740121863452174 L-207.07781320300552 -45.98319781525683"/>
		<text x="-234.79062612410758" y="-61.30600141928485" font-family="calibri" font-size="4">5</text>
		<text x="-233.54062612410758" y="-63.872293193333284" font-family="calibri" font-size="4">5</text>
		<text x="-220.93421966355655" y="-52.99341895101985" font-family="calibri" font-size="4">32</text>

		<path opacity="0.5" fill="orange" d="M-212.10665924100823 -34.80848877010193 L-196.10665924100823 -62.10028179258012 L-196.10665924100823 -67.65702347792185 L-212.10665924100823 -40.365230455443665 L-212.10665924100823 -34.80848877010193"/>
		<path opacity="0.5" fill="orange" d="M-239.8194721621103 -50.565412818297276 L-223.8194721621103 -77.85720584077546 L-223.8194721621103 -83.4139475261172 L-239.8194721621103 -56.12215450363901 L-239.8194721621103 -50.565412818297276"/>
		<path opacity="0.5" fill="orange" d="M-212.10665924100823 -34.80848877010193 L-239.8194721621103 -50.565412818297276 L-239.8194721621103 -56.12215450363901 L-212.10665924100823 -40.365230455443665 L-212.10665924100823 -34.80848877010193"/>
		<path opacity="0.5" fill="orange" d="M-196.10665924100823 -62.10028179258012 L-223.8194721621103 -77.85720584077546 L-223.8194721621103 -83.4139475261172 L-196.10665924100823 -67.65702347792185 L-196.10665924100823 -62.10028179258012"/>
		<path opacity="0.5" fill="orange" d="M-212.10665924100823 -34.80848877010193 L-196.10665924100823 -62.10028179258012 L-223.8194721621103 -77.85720584077546 L-239.8194721621103 -50.565412818297276 L-212.10665924100823 -34.80848877010193"/>
		<path opacity="0.5" fill="orange" d="M-212.10665924100823 -40.365230455443665 L-196.10665924100823 -67.65702347792185 L-223.8194721621103 -83.4139475261172 L-239.8194721621103 -56.12215450363901 L-212.10665924100823 -40.365230455443665"/>
		<text x="-239.8194721621103" y="-53.34378366096814" font-family="calibri" font-size="4">32</text>
		<text x="-231.8194721621103" y="-69.7680510148781" font-family="calibri" font-size="4">32</text>
		<text x="-225.96306570155926" y="-42.6869507941996" font-family="calibri" font-size="4">32</text>

		<path opacity="0.5" fill="orange" d="M-80.87976320958225 -35.5000868466503 L-72.87976320958225 -49.14598335788939 L-72.87976320958225 -51.92435420056026 L-80.87976320958225 -38.278457689321165 L-80.87976320958225 -35.5000868466503"/>
		<path opacity="0.5" fill="orange" d="M-136.3053890517863 -67.01393494304097 L-128.3053890517863 -80.65983145428007 L-128.3053890517863 -83.43820229695093 L-136.3053890517863 -69.79230578571185 L-136.3053890517863 -67.01393494304097"/>
		<path opacity="0.5" fill="orange" d="M-80.87976320958225 -35.5000868466503 L-136.3053890517863 -67.01393494304097 L-136.3053890517863 -69.79230578571185 L-80.87976320958225 -38.278457689321165 L-80.87976320958225 -35.5000868466503"/>
		<path opacity="0.5" fill="orange" d="M-72.87976320958225 -49.14598335788939 L-128.3053890517863 -80.65983145428007 L-128.3053890517863 -83.43820229695093 L-72.87976320958225 -51.92435420056026 L-72.87976320958225 -49.14598335788939"/>
		<path opacity="0.5" fill="orange" d="M-80.87976320958225 -35.5000868466503 L-72.87976320958225 -49.14598335788939 L-128.3053890517863 -80.65983145428007 L-136.3053890517863 -67.01393494304097 L-80.87976320958225 -35.5000868466503"/>
		<path opacity="0.5" fill="orange" d="M-80.87976320958225 -38.278457689321165 L-72.87976320958225 -51.92435420056026 L-128.3053890517863 -83.43820229695093 L-136.3053890517863 -69.79230578571185 L-80.87976320958225 -38.278457689321165"/>
		<text x="-136.3053890517863" y="-68.4031203643764" font-family="calibri" font-size="4">16</text>
		<text x="-132.3053890517863" y="-76.61525404133138" font-family="calibri" font-size="4">16</text>
		<text x="-108.59257613068428" y="-51.257010894845635" font-family="calibri" font-size="4">64</text>

		<path opacity="0.75" fill="pink" d="M178.08231254084066 -58.4697994554855 L180.58231254084066 -62.73414211524771 L223.82652784659365 -38.655426900847544 L178.08231254084066 -58.4697994554855"/>
		<path opacity="0.75" fill="pink" d="M178.08231254084066 -58.4697994554855 L178.08231254084066 -59.338040343820154 L223.82652784659365 -38.655426900847544 L178.08231254084066 -58.4697994554855"/>
		<path opacity="0.75" fill="pink" d="M180.58231254084066 -62.73414211524771 L180.58231254084066 -63.60238300358236 L223.82652784659365 -38.655426900847544 L180.58231254084066 -62.73414211524771"/>
		<path opacity="0.75" fill="pink" d="M178.08231254084066 -59.338040343820154 L180.58231254084066 -63.60238300358236 L223.82652784659365 -38.655426900847544 L178.08231254084066 -59.338040343820154"/>

		<path opacity="0.5" fill="orange" d="M48.34713282184376 -32.085618084721176 L52.347132821843765 -38.90856634034072 L52.347132821843765 -40.29775176167615 L48.34713282184376 -33.47480350605661 L48.34713282184376 -32.085618084721176"/>
		<path opacity="0.5" fill="orange" d="M-7.0784930203603125 -63.59946618111185 L-3.0784930203603125 -70.42241443673139 L-3.0784930203603125 -71.81159985806683 L-7.0784930203603125 -64.98865160244729 L-7.0784930203603125 -63.59946618111185"/>
		<path opacity="0.5" fill="orange" d="M48.34713282184376 -32.085618084721176 L-7.0784930203603125 -63.59946618111185 L-7.0784930203603125 -64.98865160244729 L48.34713282184376 -33.47480350605661 L48.34713282184376 -32.085618084721176"/>
		<path opacity="0.5" fill="orange" d="M52.347132821843765 -38.90856634034072 L-3.0784930203603125 -70.42241443673139 L-3.0784930203603125 -71.81159985806683 L52.347132821843765 -40.29775176167615 L52.347132821843765 -38.90856634034072"/>
		<path opacity="0.5" fill="orange" d="M48.34713282184376 -32.085618084721176 L52.347132821843765 -38.90856634034072 L-3.0784930203603125 -70.42241443673139 L-7.0784930203603125 -63.59946618111185 L48.34713282184376 -32.085618084721176"/>
		<path opacity="0.5" fill="orange" d="M48.34713282184376 -33.47480350605661 L52.347132821843765 -40.29775176167615 L-3.0784930203603125 -71.81159985806683 L-7.0784930203603125 -64.98865160244729 L48.34713282184376 -33.47480350605661"/>
		<text x="-7.0784930203603125" y="-64.29405889177957" font-family="calibri" font-size="4">8</text>
		<text x="-5.0784930203603125" y="-68.40012573025706" font-family="calibri" font-size="4">8</text>
		<text x="20.634319900741723" y="-47.84254213291651" font-family="calibri" font-size="4">64</text>

		<path opacity="0.75" fill="pink" d="M-207.07781320300552 -45.114956926922176 L-204.57781320300552 -49.3792995866844 L-158.29121148644953 -30.849701920835287 L-207.07781320300552 -45.114956926922176"/>
		<path opacity="0.75" fill="pink" d="M-207.07781320300552 -45.114956926922176 L-207.07781320300552 -45.98319781525683 L-158.29121148644953 -30.849701920835287 L-207.07781320300552 -45.114956926922176"/>
		<path opacity="0.75" fill="pink" d="M-204.57781320300552 -49.3792995866844 L-204.57781320300552 -50.24754047501905 L-158.29121148644953 -30.849701920835287 L-204.57781320300552 -49.3792995866844"/>
		<path opacity="0.75" fill="pink" d="M-207.07781320300552 -45.98319781525683 L-204.57781320300552 -50.24754047501905 L-158.29121148644953 -30.849701920835287 L-207.07781320300552 -45.98319781525683"/>

<!-- Arrow -->
		<path opacity="0.5" stroke="black" d="M-76.87976320958225 -43.712220523605275 L-60.81887407712688 -2.17133168524699"/>
		<circle opacity="0.5" cx="-60.81887407712688" cy="-2.17133168524699" r="1" fill="black" />
		<path opacity="0.5" fill="orange" d="M275.5605438279292 -0.12385187085486393 L279.5605438279292 -6.946800126474415 L279.5605438279292 -8.335985547809855 L275.5605438279292 -1.5130372921903046 L275.5605438279292 -0.12385187085486393"/>
		<path opacity="0.5" fill="orange" d="M220.1349179857251 -31.63769996724554 L224.1349179857251 -38.46064822286509 L224.1349179857251 -39.84983364420053 L220.1349179857251 -33.02688538858098 L220.1349179857251 -31.63769996724554"/>
		<path opacity="0.5" fill="orange" d="M275.5605438279292 -0.12385187085486393 L220.1349179857251 -31.63769996724554 L220.1349179857251 -33.02688538858098 L275.5605438279292 -1.5130372921903046 L275.5605438279292 -0.12385187085486393"/>
		<path opacity="0.5" fill="orange" d="M279.5605438279292 -6.946800126474415 L224.1349179857251 -38.46064822286509 L224.1349179857251 -39.84983364420053 L279.5605438279292 -8.335985547809855 L279.5605438279292 -6.946800126474415"/>
		<path opacity="0.5" fill="orange" d="M275.5605438279292 -0.12385187085486393 L279.5605438279292 -6.946800126474415 L224.1349179857251 -38.46064822286509 L220.1349179857251 -31.63769996724554 L275.5605438279292 -0.12385187085486393"/>
		<path opacity="0.5" fill="orange" d="M275.5605438279292 -1.5130372921903046 L279.5605438279292 -8.335985547809855 L224.1349179857251 -39.84983364420053 L220.1349179857251 -33.02688538858098 L275.5605438279292 -1.5130372921903046"/>
		<text x="220.1349179857251" y="-32.33229267791326" font-family="calibri" font-size="4">8</text>
		<text x="222.1349179857251" y="-36.438359516390754" font-family="calibri" font-size="4">8</text>
		<text x="247.84773090682717" y="-15.880775919050201" font-family="calibri" font-size="4">64</text>

		<path opacity="0.5" fill="orange" d="M-109.37976320958228 13.113419474638974 L-101.37976320958228 -0.5324770366001133 L-101.37976320958228 -3.3108478792709946 L-109.37976320958228 10.335048631968093 L-109.37976320958228 13.113419474638974"/>
		<path opacity="0.5" fill="orange" d="M-164.80538905178634 -18.4004286217517 L-156.80538905178634 -32.04632513299079 L-156.80538905178634 -34.82469597566167 L-164.80538905178634 -21.178799464422582 L-164.80538905178634 -18.4004286217517"/>
		<path opacity="0.5" fill="orange" d="M-109.37976320958228 13.113419474638974 L-164.80538905178634 -18.4004286217517 L-164.80538905178634 -21.178799464422582 L-109.37976320958228 10.335048631968093 L-109.37976320958228 13.113419474638974"/>
		<path opacity="0.5" fill="orange" d="M-101.37976320958228 -0.5324770366001133 L-156.80538905178634 -32.04632513299079 L-156.80538905178634 -34.82469597566167 L-101.37976320958228 -3.3108478792709946 L-101.37976320958228 -0.5324770366001133"/>
		<path opacity="0.5" fill="orange" d="M-109.37976320958228 13.113419474638974 L-101.37976320958228 -0.5324770366001133 L-156.80538905178634 -32.04632513299079 L-164.80538905178634 -18.4004286217517 L-109.37976320958228 13.113419474638974"/>
		<path opacity="0.5" fill="orange" d="M-109.37976320958228 10.335048631968093 L-101.37976320958228 -3.3108478792709946 L-156.80538905178634 -34.82469597566167 L-164.80538905178634 -21.178799464422582 L-109.37976320958228 10.335048631968093"/>
		<text x="-164.80538905178634" y="-19.78961404308714" font-family="calibri" font-size="4">16</text>
		<text x="-160.80538905178634" y="-28.001747720042125" font-family="calibri" font-size="4">16</text>
		<text x="-137.0925761306843" y="-2.6435045735563634" font-family="calibri" font-size="4">64</text>

<!-- Arrow -->
		<path opacity="0.5" stroke="black" d="M-105.37976320958228 4.90128579768399 L-60.81887407712688 -2.17133168524699"/>
		<circle opacity="0.5" cx="-60.81887407712688" cy="-2.17133168524699" r="1" fill="black" />
		<path opacity="0.75" fill="darkturquoise" d="M-4.208522790855781 28.07389477036869 L-1.7085227908557812 23.809552110606482 L-1.7085227908557812 22.941311222271842 L-4.208522790855781 27.20565388203405 L-4.208522790855781 28.07389477036869"/>
		<path opacity="0.75" fill="darkturquoise" d="M-59.63414863305985 -3.4399533260219783 L-57.13414863305985 -7.704295985784185 L-57.13414863305985 -8.572536874118825 L-59.63414863305985 -4.308194214356618 L-59.63414863305985 -3.4399533260219783"/>
		<path opacity="0.75" fill="darkturquoise" d="M-4.208522790855781 28.07389477036869 L-59.63414863305985 -3.4399533260219783 L-59.63414863305985 -4.308194214356618 L-4.208522790855781 27.20565388203405 L-4.208522790855781 28.07389477036869"/>
		<path opacity="0.75" fill="darkturquoise" d="M-1.7085227908557812 23.809552110606482 L-57.13414863305985 -7.704295985784185 L-57.13414863305985 -8.572536874118825 L-1.7085227908557812 22.941311222271842 L-1.7085227908557812 23.809552110606482"/>
		<path opacity="0.75" fill="darkturquoise" d="M-4.208522790855781 28.07389477036869 L-1.7085227908557812 23.809552110606482 L-57.13414863305985 -7.704295985784185 L-59.63414863305985 -3.4399533260219783 L-4.208522790855781 28.07389477036869"/>
		<path opacity="0.75" fill="darkturquoise" d="M-4.208522790855781 27.20565388203405 L-1.7085227908557812 22.941311222271842 L-57.13414863305985 -8.572536874118825 L-59.63414863305985 -4.308194214356618 L-4.208522790855781 27.20565388203405"/>
		<text x="-59.63414863305985" y="-3.874073770189298" font-family="calibri" font-size="4">5</text>
		<text x="-58.38414863305985" y="-6.4403655442377215" font-family="calibri" font-size="4">5</text>
		<text x="-31.921335711957816" y="12.316970722173355" font-family="calibri" font-size="4">64</text>

		<path opacity="0.5" fill="orange" d="M-9.393248234922822 37.55465008809866 L-1.3932482349228223 23.908753576859574 L-1.3932482349228223 21.130382734188693 L-9.393248234922822 34.77627924542778 L-9.393248234922822 37.55465008809866"/>
		<path opacity="0.5" fill="orange" d="M-64.81887407712688 6.040801991707994 L-56.81887407712688 -7.605094519531093 L-56.81887407712688 -10.383465362201974 L-64.81887407712688 3.2624311490371127 L-64.81887407712688 6.040801991707994"/>
		<path opacity="0.5" fill="orange" d="M-9.393248234922822 37.55465008809866 L-64.81887407712688 6.040801991707994 L-64.81887407712688 3.2624311490371127 L-9.393248234922822 34.77627924542778 L-9.393248234922822 37.55465008809866"/>
		<path opacity="0.5" fill="orange" d="M-1.3932482349228223 23.908753576859574 L-56.81887407712688 -7.605094519531093 L-56.81887407712688 -10.383465362201974 L-1.3932482349228223 21.130382734188693 L-1.3932482349228223 23.908753576859574"/>
		<path opacity="0.5" fill="orange" d="M-9.393248234922822 37.55465008809866 L-1.3932482349228223 23.908753576859574 L-56.81887407712688 -7.605094519531093 L-64.81887407712688 6.040801991707994 L-9.393248234922822 37.55465008809866"/>
		<path opacity="0.5" fill="orange" d="M-9.393248234922822 34.77627924542778 L-1.3932482349228223 21.130382734188693 L-56.81887407712688 -10.383465362201974 L-64.81887407712688 3.2624311490371127 L-9.393248234922822 34.77627924542778"/>
		<text x="-64.81887407712688" y="4.651616570372553" font-family="calibri" font-size="4">16</text>
		<text x="-60.81887407712688" y="-3.560517106582431" font-family="calibri" font-size="4">16</text>
		<text x="-37.10606115602485" y="21.797726039903328" font-family="calibri" font-size="4">64</text>

<!-- Arrow -->
		<path opacity="0.5" stroke="black" d="M50.34713282184376 -36.191684923198665 L145.01953692895853 66.25056426958626"/>
		<circle opacity="0.5" cx="145.01953692895853" cy="66.25056426958626" r="1" fill="black" />
		<path opacity="0.75" fill="pink" d="M-4.208522790855781 28.07389477036869 L-1.7085227908557812 23.809552110606482 L36.056009223332524 56.76431384773275 L-4.208522790855781 28.07389477036869"/>
		<path opacity="0.75" fill="pink" d="M-4.208522790855781 28.07389477036869 L-4.208522790855781 27.20565388203405 L36.056009223332524 56.76431384773275 L-4.208522790855781 28.07389477036869"/>
		<path opacity="0.75" fill="pink" d="M-1.7085227908557812 23.809552110606482 L-1.7085227908557812 22.941311222271842 L36.056009223332524 56.76431384773275 L-1.7085227908557812 23.809552110606482"/>
		<path opacity="0.75" fill="pink" d="M-4.208522790855781 27.20565388203405 L-1.7085227908557812 22.941311222271842 L36.056009223332524 56.76431384773275 L-4.208522790855781 27.20565388203405"/>

<!-- Arrow -->
		<path opacity="0.5" stroke="black" d="M277.5605438279292 -4.22991870933236 L361.54544793504397 116.44239535393604"/>
		<circle opacity="0.5" cx="361.54544793504397" cy="116.44239535393604" r="1" fill="black" />
		<path opacity="0.5" fill="orange" d="M91.33364779650317 89.58262517131706 L95.33364779650317 82.75967691569751 L95.33364779650317 81.37049149436207 L91.33364779650317 88.19343974998162 L91.33364779650317 89.58262517131706"/>
		<path opacity="0.5" fill="orange" d="M35.9080219542991 58.06877707492639 L39.9080219542991 51.24582881930684 L39.9080219542991 49.856643397971396 L35.9080219542991 56.67959165359095 L35.9080219542991 58.06877707492639"/>
		<path opacity="0.5" fill="orange" d="M91.33364779650317 89.58262517131706 L35.9080219542991 58.06877707492639 L35.9080219542991 56.67959165359095 L91.33364779650317 88.19343974998162 L91.33364779650317 89.58262517131706"/>
		<path opacity="0.5" fill="orange" d="M95.33364779650317 82.75967691569751 L39.9080219542991 51.24582881930684 L39.9080219542991 49.856643397971396 L95.33364779650317 81.37049149436207 L95.33364779650317 82.75967691569751"/>
		<path opacity="0.5" fill="orange" d="M91.33364779650317 89.58262517131706 L95.33364779650317 82.75967691569751 L39.9080219542991 51.24582881930684 L35.9080219542991 58.06877707492639 L91.33364779650317 89.58262517131706"/>
		<path opacity="0.5" fill="orange" d="M91.33364779650317 88.19343974998162 L95.33364779650317 81.37049149436207 L39.9080219542991 49.856643397971396 L35.9080219542991 56.67959165359095 L91.33364779650317 88.19343974998162"/>
		<text x="35.9080219542991" y="57.37418436425867" font-family="calibri" font-size="4">8</text>
		<text x="37.9080219542991" y="53.26811752578117" font-family="calibri" font-size="4">8</text>
		<text x="63.62083487540114" y="73.82570112312172" font-family="calibri" font-size="4">64</text>

<!-- Arrow -->
		<path opacity="0.5" stroke="black" d="M93.33364779650317 85.47655833283956 L145.01953692895853 66.25056426958626"/>
		<circle opacity="0.5" cx="145.01953692895853" cy="66.25056426958626" r="1" fill="black" />
		<path opacity="0.75" fill="darkturquoise" d="M198.73402851796476 100.88972311601442 L201.23402851796476 96.6253804562522 L201.23402851796476 95.75713956791755 L198.73402851796476 100.02148222767977 L198.73402851796476 100.88972311601442"/>
		<path opacity="0.75" fill="darkturquoise" d="M143.30840267576068 69.37587501962375 L145.80840267576068 65.11153235986154 L145.80840267576068 64.24329147152687 L143.30840267576068 68.50763413128911 L143.30840267576068 69.37587501962375"/>
		<path opacity="0.75" fill="darkturquoise" d="M198.73402851796476 100.88972311601442 L143.30840267576068 69.37587501962375 L143.30840267576068 68.50763413128911 L198.73402851796476 100.02148222767977 L198.73402851796476 100.88972311601442"/>
		<path opacity="0.75" fill="darkturquoise" d="M201.23402851796476 96.6253804562522 L145.80840267576068 65.11153235986154 L145.80840267576068 64.24329147152687 L201.23402851796476 95.75713956791755 L201.23402851796476 96.6253804562522"/>
		<path opacity="0.75" fill="darkturquoise" d="M198.73402851796476 100.88972311601442 L201.23402851796476 96.6253804562522 L145.80840267576068 65.11153235986154 L143.30840267576068 69.37587501962375 L198.73402851796476 100.88972311601442"/>
		<path opacity="0.75" fill="darkturquoise" d="M198.73402851796476 100.02148222767977 L201.23402851796476 95.75713956791755 L145.80840267576068 64.24329147152687 L143.30840267576068 68.50763413128911 L198.73402851796476 100.02148222767977"/>
		<text x="143.30840267576068" y="68.94175457545643" font-family="calibri" font-size="4">5</text>
		<text x="144.55840267576068" y="66.37546280140799" font-family="calibri" font-size="4">5</text>
		<text x="171.0212155968627" y="85.1327990678191" font-family="calibri" font-size="4">64</text>

		<path opacity="0.5" fill="orange" d="M198.4451627711626 101.87047920445443 L202.4451627711626 95.04753094883488 L202.4451627711626 93.65834552749943 L198.4451627711626 100.48129378311899 L198.4451627711626 101.87047920445443"/>
		<path opacity="0.5" fill="orange" d="M143.01953692895853 70.35663110806375 L147.01953692895853 63.53368285244421 L147.01953692895853 62.14449743110877 L143.01953692895853 68.96744568672831 L143.01953692895853 70.35663110806375"/>
		<path opacity="0.5" fill="orange" d="M198.4451627711626 101.87047920445443 L143.01953692895853 70.35663110806375 L143.01953692895853 68.96744568672831 L198.4451627711626 100.48129378311899 L198.4451627711626 101.87047920445443"/>
		<path opacity="0.5" fill="orange" d="M202.4451627711626 95.04753094883488 L147.01953692895853 63.53368285244421 L147.01953692895853 62.14449743110877 L202.4451627711626 93.65834552749943 L202.4451627711626 95.04753094883488"/>
		<path opacity="0.5" fill="orange" d="M198.4451627711626 101.87047920445443 L202.4451627711626 95.04753094883488 L147.01953692895853 63.53368285244421 L143.01953692895853 70.35663110806375 L198.4451627711626 101.87047920445443"/>
		<path opacity="0.5" fill="orange" d="M198.4451627711626 100.48129378311899 L202.4451627711626 93.65834552749943 L147.01953692895853 62.14449743110877 L143.01953692895853 68.96744568672831 L198.4451627711626 100.48129378311899"/>
		<text x="143.01953692895853" y="69.66203839739603" font-family="calibri" font-size="4">8</text>
		<text x="145.01953692895853" y="65.55597155891854" font-family="calibri" font-size="4">8</text>
		<text x="170.73234985006056" y="86.11355515625908" font-family="calibri" font-size="4">64</text>

		<path opacity="0.75" fill="darkturquoise" d="M367.70570197288833 142.99559454545226 L372.70570197288833 134.46690922592782 L372.70570197288833 99.73727369254189 L367.70570197288833 108.26595901206633 L367.70570197288833 142.99559454545226"/>
		<path opacity="0.75" fill="darkturquoise" d="M359.04544793504397 138.0715557803912 L364.04544793504397 129.54287046086677 L364.04544793504397 94.81323492748083 L359.04544793504397 103.34192024700528 L359.04544793504397 138.0715557803912"/>
		<path opacity="0.75" fill="darkturquoise" d="M367.70570197288833 142.99559454545226 L359.04544793504397 138.0715557803912 L359.04544793504397 103.34192024700528 L367.70570197288833 108.26595901206633 L367.70570197288833 142.99559454545226"/>
		<path opacity="0.75" fill="darkturquoise" d="M372.70570197288833 134.46690922592782 L364.04544793504397 129.54287046086677 L364.04544793504397 94.81323492748083 L372.70570197288833 99.73727369254189 L372.70570197288833 134.46690922592782"/>
		<path opacity="0.75" fill="darkturquoise" d="M367.70570197288833 142.99559454545226 L372.70570197288833 134.46690922592782 L364.04544793504397 129.54287046086677 L359.04544793504397 138.0715557803912 L367.70570197288833 142.99559454545226"/>
		<path opacity="0.75" fill="darkturquoise" d="M367.70570197288833 108.26595901206633 L372.70570197288833 99.73727369254189 L364.04544793504397 94.81323492748083 L359.04544793504397 103.34192024700528 L367.70570197288833 108.26595901206633"/>
		<text x="359.04544793504397" y="120.70673801369824" font-family="calibri" font-size="4">200</text>
		<text x="361.54544793504397" y="99.07757758724306" font-family="calibri" font-size="4">10</text>
		<text x="363.3755749539662" y="140.53357516292175" font-family="calibri" font-size="4">10</text>

		<path opacity="0.75" fill="pink" d="M198.73402851796476 100.88972311601442 L201.23402851796476 96.6253804562522 L243.44342874875642 122.44921829358387 L198.73402851796476 100.88972311601442"/>
		<path opacity="0.75" fill="pink" d="M198.73402851796476 100.88972311601442 L198.73402851796476 100.02148222767977 L243.44342874875642 122.44921829358387 L198.73402851796476 100.88972311601442"/>
		<path opacity="0.75" fill="pink" d="M201.23402851796476 96.6253804562522 L201.23402851796476 95.75713956791755 L243.44342874875642 122.44921829358387 L201.23402851796476 96.6253804562522"/>
		<path opacity="0.75" fill="pink" d="M198.73402851796476 100.02148222767977 L201.23402851796476 95.75713956791755 L243.44342874875642 122.44921829358387 L198.73402851796476 100.02148222767977"/>

<!-- Arrow -->
		<path opacity="0.5" stroke="black" d="M370.20570197288833 121.36643411899706 L413.5069721621103 145.9866279443023"/>
		<circle opacity="0.5" cx="413.5069721621103" cy="145.9866279443023" r="1" fill="black" />
<!-- Arrow -->
		<path opacity="0.5" stroke="black" d="M299.1720588025886 153.8984542876728 L361.54544793504397 116.44239535393604"/>
		<circle opacity="0.5" cx="361.54544793504397" cy="116.44239535393604" r="1" fill="black" />
		<path opacity="0.5" fill="orange" d="M297.1720588025886 158.0045211261503 L301.1720588025886 151.18157287053077 L301.1720588025886 149.7923874491953 L297.1720588025886 156.61533570481487 L297.1720588025886 158.0045211261503"/>
		<path opacity="0.5" fill="orange" d="M241.74643296038454 126.49067302975962 L245.74643296038454 119.66772477414008 L245.74643296038454 118.27853935280464 L241.74643296038454 125.10148760842418 L241.74643296038454 126.49067302975962"/>
		<path opacity="0.5" fill="orange" d="M297.1720588025886 158.0045211261503 L241.74643296038454 126.49067302975962 L241.74643296038454 125.10148760842418 L297.1720588025886 156.61533570481487 L297.1720588025886 158.0045211261503"/>
		<path opacity="0.5" fill="orange" d="M301.1720588025886 151.18157287053077 L245.74643296038454 119.66772477414008 L245.74643296038454 118.27853935280464 L301.1720588025886 149.7923874491953 L301.1720588025886 151.18157287053077"/>
		<path opacity="0.5" fill="orange" d="M297.1720588025886 158.0045211261503 L301.1720588025886 151.18157287053077 L245.74643296038454 119.66772477414008 L241.74643296038454 126.49067302975962 L297.1720588025886 158.0045211261503"/>
		<path opacity="0.5" fill="orange" d="M297.1720588025886 156.61533570481487 L301.1720588025886 149.7923874491953 L245.74643296038454 118.27853935280464 L241.74643296038454 125.10148760842418 L297.1720588025886 156.61533570481487"/>
		<text x="241.74643296038454" y="125.7960803190919" font-family="calibri" font-size="4">8</text>
		<text x="243.74643296038454" y="121.69001348061441" font-family="calibri" font-size="4">8</text>
		<text x="269.4592458814866" y="142.24759707795496" font-family="calibri" font-size="4">64</text>

<!-- Arrow -->
		<path opacity="0.5" stroke="black" d="M422.16722619995465 150.91066670936334 L465.4684963891766 175.53086053466853"/>
		<circle opacity="0.5" cx="465.4684963891766" cy="175.53086053466853" r="1" fill="black" />
		<path opacity="0.75" fill="darkturquoise" d="M419.66722619995465 172.5398271358185 L424.66722619995465 164.01114181629407 L424.66722619995465 129.28150628290814 L419.66722619995465 137.81019160243258 L419.66722619995465 172.5398271358185"/>
		<path opacity="0.75" fill="darkturquoise" d="M411.0069721621103 167.61578837075749 L416.0069721621103 159.08710305123304 L416.0069721621103 124.35746751784711 L411.0069721621103 132.88615283737155 L411.0069721621103 167.61578837075749"/>
		<path opacity="0.75" fill="darkturquoise" d="M419.66722619995465 172.5398271358185 L411.0069721621103 167.61578837075749 L411.0069721621103 132.88615283737155 L419.66722619995465 137.81019160243258 L419.66722619995465 172.5398271358185"/>
		<path opacity="0.75" fill="darkturquoise" d="M424.66722619995465 164.01114181629407 L416.0069721621103 159.08710305123304 L416.0069721621103 124.35746751784711 L424.66722619995465 129.28150628290814 L424.66722619995465 164.01114181629407"/>
		<path opacity="0.75" fill="darkturquoise" d="M419.66722619995465 172.5398271358185 L424.66722619995465 164.01114181629407 L416.0069721621103 159.08710305123304 L411.0069721621103 167.61578837075749 L419.66722619995465 172.5398271358185"/>
		<path opacity="0.75" fill="darkturquoise" d="M419.66722619995465 137.81019160243258 L424.66722619995465 129.28150628290814 L416.0069721621103 124.35746751784711 L411.0069721621103 132.88615283737155 L419.66722619995465 137.81019160243258"/>
		<text x="411.0069721621103" y="150.25097060406452" font-family="calibri" font-size="4">200</text>
		<text x="413.5069721621103" y="128.62181017760935" font-family="calibri" font-size="4">10</text>
		<text x="415.3370991810325" y="170.077807753288" font-family="calibri" font-size="4">10</text>

		<path opacity="0.75" fill="darkturquoise" d="M471.628750427021 202.08405972618476 L476.628750427021 193.55537440666032 L476.628750427021 158.8257388732744 L471.628750427021 167.35442419279883 L471.628750427021 202.08405972618476"/>
		<path opacity="0.75" fill="darkturquoise" d="M462.9684963891766 197.16002096112373 L467.9684963891766 188.6313356415993 L467.9684963891766 153.90170010821336 L462.9684963891766 162.4303854277378 L462.9684963891766 197.16002096112373"/>
		<path opacity="0.75" fill="darkturquoise" d="M471.628750427021 202.08405972618476 L462.9684963891766 197.16002096112373 L462.9684963891766 162.4303854277378 L471.628750427021 167.35442419279883 L471.628750427021 202.08405972618476"/>
		<path opacity="0.75" fill="darkturquoise" d="M476.628750427021 193.55537440666032 L467.9684963891766 188.6313356415993 L467.9684963891766 153.90170010821336 L476.628750427021 158.8257388732744 L476.628750427021 193.55537440666032"/>
		<path opacity="0.75" fill="darkturquoise" d="M471.628750427021 202.08405972618476 L476.628750427021 193.55537440666032 L467.9684963891766 188.6313356415993 L462.9684963891766 197.16002096112373 L471.628750427021 202.08405972618476"/>
		<path opacity="0.75" fill="darkturquoise" d="M471.628750427021 167.35442419279883 L476.628750427021 158.8257388732744 L467.9684963891766 153.90170010821336 L462.9684963891766 162.4303854277378 L471.628750427021 167.35442419279883"/>
		<text x="462.9684963891766" y="179.79520319443077" font-family="calibri" font-size="4">200</text>
		<text x="465.4684963891766" y="158.16604276797557" font-family="calibri" font-size="4">10</text>
		<text x="467.2986234080988" y="199.62204034365425" font-family="calibri" font-size="4">10</text>

	 </g>
</svg>