<svg width="100%" height="100%" viewBox="-300.352447854375 -239.06904672938998 1021.95489570875 493.31964481437336" xmlns="http://www.w3.org/2000/svg">
	<g stroke="black" stroke-width="0.3">

		<path opacity="0.5" fill="orange" d="M476.96787517317597 -139.30607966083863 L488.96787517317597 -128.91377481542537 L488.96787517317597 -108.12916512459884 L476.96787517317597 -118.5214699700121 L476.96787517317597 -139.30607966083863"/>
		<path opacity="0.5" fill="orange" d="M421.54224933097186 -123.30607966083863 L433.5422493309719 -112.91377481542537 L433.5422493309719 -92.12916512459884 L421.54224933097186 -102.5214699700121 L421.54224933097186 -123.30607966083863"/>
		<path opacity="0.5" fill="orange" d="M476.96787517317597 -139.30607966083863 L421.54224933097186 -123.30607966083863 L421.54224933097186 -102.5214699700121 L476.96787517317597 -118.5214699700121 L476.96787517317597 -139.30607966083863"/>
		<path opacity="0.5" fill="orange" d="M488.96787517317597 -128.91377481542537 L433.5422493309719 -112.91377481542537 L433.5422493309719 -92.12916512459884 L488.96787517317597 -108.12916512459884 L488.96787517317597 -128.91377481542537"/>
		<path opacity="0.5" fill="orange" d="M476.96787517317597 -139.30607966083863 L488.96787517317597 -128.91377481542537 L433.5422493309719 -112.91377481542537 L421.54224933097186 -123.30607966083863 L476.96787517317597 -139.30607966083863"/>
		<path opacity="0.5" fill="orange" d="M476.96787517317597 -118.5214699700121 L488.96787517317597 -108.12916512459884 L433.5422493309719 -92.12916512459884 L421.54224933097186 -102.5214699700121 L476.96787517317597 -118.5214699700121"/>
		<text style="fill:black;font-family:calibri;font-size:6" x="421.54224933097186" y="-112.91377481542537" >24</text>
		<text style="fill:black;font-family:calibri;font-size:6" x="427.5422493309719" y="-97.32531754730547" >24</text>
		<text style="fill:black;font-family:calibri;font-size:6" x="449.2550622520739" y="-131.30607966083863" >64</text>

		<path opacity="0.75" fill="pink" d="M380.65808112997894 -101.80587957111564 L383.15808112997894 -99.64081606165455 L423.31158160952265 -105.78038770557967 L380.65808112997894 -101.80587957111564"/>
		<path opacity="0.75" fill="pink" d="M380.65808112997894 -101.80587957111564 L380.65808112997894 -97.47575255219344 L423.31158160952265 -105.78038770557967 L380.65808112997894 -101.80587957111564"/>
		<path opacity="0.75" fill="pink" d="M383.15808112997894 -99.64081606165455 L383.15808112997894 -95.31068904273235 L423.31158160952265 -105.78038770557967 L383.15808112997894 -99.64081606165455"/>
		<path opacity="0.75" fill="pink" d="M380.65808112997894 -97.47575255219344 L383.15808112997894 -95.31068904273235 L423.31158160952265 -105.78038770557967 L380.65808112997894 -97.47575255219344"/>

		<text style="fill:black;font-family:calibri;font-size:6" x="395.7092479564935" y="-108.29313363834765" >[5,5]</text>
<!-- Arrow -->
		<path opacity="0.5" stroke="black" d="M482.96787517317597 -123.71762239271874 L600.5191453623979 -71.91523616172418"/>
		<circle opacity="0.5" cx="600.5191453623979" cy="-71.91523616172418" r="1" fill="black" />
		<path opacity="0.75" fill="darkturquoise" d="M710.602447854375 -193.18284004962914 L715.602447854375 -188.85271303070695 L715.602447854375 -15.647632273819227 L710.602447854375 -19.97775929274141 L710.602447854375 -193.18284004962914"/>
		<path opacity="0.75" fill="darkturquoise" d="M701.9421938165306 -190.68284004962914 L706.9421938165306 -186.35271303070695 L706.9421938165306 -13.147632273819227 L701.9421938165306 -17.47775929274141 L701.9421938165306 -190.68284004962914"/>
		<path opacity="0.75" fill="darkturquoise" d="M710.602447854375 -193.18284004962914 L701.9421938165306 -190.68284004962914 L701.9421938165306 -17.47775929274141 L710.602447854375 -19.97775929274141 L710.602447854375 -193.18284004962914"/>
		<path opacity="0.75" fill="darkturquoise" d="M715.602447854375 -188.85271303070695 L706.9421938165306 -186.35271303070695 L706.9421938165306 -13.147632273819227 L715.602447854375 -15.647632273819227 L715.602447854375 -188.85271303070695"/>
		<path opacity="0.75" fill="darkturquoise" d="M710.602447854375 -193.18284004962914 L715.602447854375 -188.85271303070695 L706.9421938165306 -186.35271303070695 L701.9421938165306 -190.68284004962914 L710.602447854375 -193.18284004962914"/>
		<path opacity="0.75" fill="darkturquoise" d="M710.602447854375 -19.97775929274141 L715.602447854375 -15.647632273819227 L706.9421938165306 -13.147632273819227 L701.9421938165306 -17.47775929274141 L710.602447854375 -19.97775929274141"/>
		<text style="fill:black;font-family:calibri;font-size:6" x="701.9421938165306" y="-104.08029967118527" >200</text>
		<text style="fill:black;font-family:calibri;font-size:6" x="704.4421938165306" y="-15.312695783280319" >10</text>
		<text style="fill:black;font-family:calibri;font-size:6" x="706.2723208354528" y="-191.93284004962914" >10</text>

<!-- Arrow -->
		<path opacity="0.5" stroke="black" d="M661.1409236273087 -89.41523616172418 L704.4421938165306 -101.91523616172418"/>
		<circle opacity="0.5" cx="704.4421938165306" cy="-101.91523616172418" r="1" fill="black" />
		<path opacity="0.5" fill="orange" d="M176.58845726811987 -103.9781847254617 L184.5884572681199 -97.04998149518619 L184.5884572681199 -83.19357503463517 L176.58845726811987 -90.12177826491069 L176.58845726811987 -103.9781847254617"/>
		<path opacity="0.5" fill="orange" d="M121.16283142591578 -87.9781847254617 L129.1628314259158 -81.04998149518619 L129.1628314259158 -67.19357503463517 L121.16283142591578 -74.12177826491069 L121.16283142591578 -87.9781847254617"/>
		<path opacity="0.5" fill="orange" d="M176.58845726811987 -103.9781847254617 L121.16283142591578 -87.9781847254617 L121.16283142591578 -74.12177826491069 L176.58845726811987 -90.12177826491069 L176.58845726811987 -103.9781847254617"/>
		<path opacity="0.5" fill="orange" d="M184.5884572681199 -97.04998149518619 L129.1628314259158 -81.04998149518619 L129.1628314259158 -67.19357503463517 L184.5884572681199 -83.19357503463517 L184.5884572681199 -97.04998149518619"/>
		<path opacity="0.5" fill="orange" d="M176.58845726811987 -103.9781847254617 L184.5884572681199 -97.04998149518619 L129.1628314259158 -81.04998149518619 L121.16283142591578 -87.9781847254617 L176.58845726811987 -103.9781847254617"/>
		<path opacity="0.5" fill="orange" d="M176.58845726811987 -90.12177826491069 L184.5884572681199 -83.19357503463517 L129.1628314259158 -67.19357503463517 L121.16283142591578 -74.12177826491069 L176.58845726811987 -90.12177826491069"/>
		<text style="fill:black;font-family:calibri;font-size:6" x="121.16283142591578" y="-81.04998149518619" >16</text>
		<text style="fill:black;font-family:calibri;font-size:6" x="125.1628314259158" y="-70.65767664977292" >16</text>
		<text style="fill:black;font-family:calibri;font-size:6" x="148.87564434701784" y="-95.9781847254617" >64</text>

<!-- Arrow -->
		<path opacity="0.5" stroke="black" d="M609.1793994002423 -74.41523616172418 L652.4806695894642 -86.91523616172418"/>
		<circle opacity="0.5" cx="652.4806695894642" cy="-86.91523616172418" r="1" fill="black" />
		<path opacity="0.75" fill="darkturquoise" d="M658.6409236273087 -178.18284004962914 L663.6409236273087 -173.85271303070695 L663.6409236273087 -0.6476322738192266 L658.6409236273087 -4.9777592927414105 L658.6409236273087 -178.18284004962914"/>
		<path opacity="0.75" fill="darkturquoise" d="M649.9806695894642 -175.68284004962914 L654.9806695894642 -171.35271303070695 L654.9806695894642 1.8523677261807734 L649.9806695894642 -2.4777592927414105 L649.9806695894642 -175.68284004962914"/>
		<path opacity="0.75" fill="darkturquoise" d="M658.6409236273087 -178.18284004962914 L649.9806695894642 -175.68284004962914 L649.9806695894642 -2.4777592927414105 L658.6409236273087 -4.9777592927414105 L658.6409236273087 -178.18284004962914"/>
		<path opacity="0.75" fill="darkturquoise" d="M663.6409236273087 -173.85271303070695 L654.9806695894642 -171.35271303070695 L654.9806695894642 1.8523677261807734 L663.6409236273087 -0.6476322738192266 L663.6409236273087 -173.85271303070695"/>
		<path opacity="0.75" fill="darkturquoise" d="M658.6409236273087 -178.18284004962914 L663.6409236273087 -173.85271303070695 L654.9806695894642 -171.35271303070695 L649.9806695894642 -175.68284004962914 L658.6409236273087 -178.18284004962914"/>
		<path opacity="0.75" fill="darkturquoise" d="M658.6409236273087 -4.9777592927414105 L663.6409236273087 -0.6476322738192266 L654.9806695894642 1.8523677261807734 L649.9806695894642 -2.4777592927414105 L658.6409236273087 -4.9777592927414105"/>
		<text style="fill:black;font-family:calibri;font-size:6" x="649.9806695894642" y="-89.08029967118527" >200</text>
		<text style="fill:black;font-family:calibri;font-size:6" x="652.4806695894642" y="-0.31269578328031855" >10</text>
		<text style="fill:black;font-family:calibri;font-size:6" x="654.3107966083865" y="-176.93284004962914" >10</text>

		<path opacity="0.75" fill="darkturquoise" d="M658.6409236273087 -178.18284004962914 L663.6409236273087 -173.85271303070695 L663.6409236273087 -0.6476322738192266 L658.6409236273087 -4.9777592927414105 L658.6409236273087 -178.18284004962914"/>
		<path opacity="0.75" fill="darkturquoise" d="M649.9806695894642 -175.68284004962914 L654.9806695894642 -171.35271303070695 L654.9806695894642 1.8523677261807734 L649.9806695894642 -2.4777592927414105 L649.9806695894642 -175.68284004962914"/>
		<path opacity="0.75" fill="darkturquoise" d="M658.6409236273087 -178.18284004962914 L649.9806695894642 -175.68284004962914 L649.9806695894642 -2.4777592927414105 L658.6409236273087 -4.9777592927414105 L658.6409236273087 -178.18284004962914"/>
		<path opacity="0.75" fill="darkturquoise" d="M663.6409236273087 -173.85271303070695 L654.9806695894642 -171.35271303070695 L654.9806695894642 1.8523677261807734 L663.6409236273087 -0.6476322738192266 L663.6409236273087 -173.85271303070695"/>
		<path opacity="0.75" fill="darkturquoise" d="M658.6409236273087 -178.18284004962914 L663.6409236273087 -173.85271303070695 L654.9806695894642 -171.35271303070695 L649.9806695894642 -175.68284004962914 L658.6409236273087 -178.18284004962914"/>
		<path opacity="0.75" fill="darkturquoise" d="M658.6409236273087 -4.9777592927414105 L663.6409236273087 -0.6476322738192266 L654.9806695894642 1.8523677261807734 L649.9806695894642 -2.4777592927414105 L658.6409236273087 -4.9777592927414105"/>
		<text style="fill:black;font-family:calibri;font-size:6" x="649.9806695894642" y="-89.08029967118527" >200</text>
		<text style="fill:black;font-family:calibri;font-size:6" x="652.4806695894642" y="-0.31269578328031855" >10</text>
		<text style="fill:black;font-family:calibri;font-size:6" x="654.3107966083865" y="-176.93284004962914" >10</text>

<!-- Arrow -->
		<path opacity="0.5" stroke="black" d="M180.5884572681199 -93.58587988004844 L273.3897274573418 -63.21762239271874"/>
		<circle opacity="0.5" cx="273.3897274573418" cy="-63.21762239271874" r="1" fill="black" />
		<path opacity="0.75" fill="darkturquoise" d="M380.65808112997894 -101.80587957111564 L383.15808112997894 -99.64081606165455 L383.15808112997894 -95.31068904273235 L380.65808112997894 -97.47575255219344 L380.65808112997894 -101.80587957111564"/>
		<path opacity="0.75" fill="darkturquoise" d="M269.8068294455708 -69.80587957111564 L272.3068294455708 -67.64081606165455 L272.3068294455708 -63.31068904273235 L269.8068294455708 -65.47575255219344 L269.8068294455708 -69.80587957111564"/>
		<path opacity="0.75" fill="darkturquoise" d="M380.65808112997894 -101.80587957111564 L269.8068294455708 -69.80587957111564 L269.8068294455708 -65.47575255219344 L380.65808112997894 -97.47575255219344 L380.65808112997894 -101.80587957111564"/>
		<path opacity="0.75" fill="darkturquoise" d="M383.15808112997894 -99.64081606165455 L272.3068294455708 -67.64081606165455 L272.3068294455708 -63.31068904273235 L383.15808112997894 -95.31068904273235 L383.15808112997894 -99.64081606165455"/>
		<path opacity="0.75" fill="darkturquoise" d="M380.65808112997894 -101.80587957111564 L383.15808112997894 -99.64081606165455 L272.3068294455708 -67.64081606165455 L269.8068294455708 -69.80587957111564 L380.65808112997894 -101.80587957111564"/>
		<path opacity="0.75" fill="darkturquoise" d="M380.65808112997894 -97.47575255219344 L383.15808112997894 -95.31068904273235 L272.3068294455708 -63.31068904273235 L269.8068294455708 -65.47575255219344 L380.65808112997894 -97.47575255219344"/>
		<path opacity="0.5" fill="orange" d="M378.24097914174996 -110.80607966083863 L390.24097914174996 -100.41377481542537 L390.24097914174996 -79.62916512459884 L378.24097914174996 -90.0214699700121 L378.24097914174996 -110.80607966083863"/>
		<path opacity="0.5" fill="orange" d="M267.3897274573418 -78.80607966083863 L279.3897274573418 -68.41377481542537 L279.3897274573418 -47.62916512459884 L267.3897274573418 -58.021469970012106 L267.3897274573418 -78.80607966083863"/>
		<path opacity="0.5" fill="orange" d="M378.24097914174996 -110.80607966083863 L267.3897274573418 -78.80607966083863 L267.3897274573418 -58.021469970012106 L378.24097914174996 -90.0214699700121 L378.24097914174996 -110.80607966083863"/>
		<path opacity="0.5" fill="orange" d="M390.24097914174996 -100.41377481542537 L279.3897274573418 -68.41377481542537 L279.3897274573418 -47.62916512459884 L390.24097914174996 -79.62916512459884 L390.24097914174996 -100.41377481542537"/>
		<path opacity="0.5" fill="orange" d="M378.24097914174996 -110.80607966083863 L390.24097914174996 -100.41377481542537 L279.3897274573418 -68.41377481542537 L267.3897274573418 -78.80607966083863 L378.24097914174996 -110.80607966083863"/>
		<path opacity="0.5" fill="orange" d="M378.24097914174996 -90.0214699700121 L390.24097914174996 -79.62916512459884 L279.3897274573418 -47.62916512459884 L267.3897274573418 -58.021469970012106 L378.24097914174996 -90.0214699700121"/>
		<text style="fill:black;font-family:calibri;font-size:6" x="267.3897274573418" y="-68.41377481542537" >24</text>
		<text style="fill:black;font-family:calibri;font-size:6" x="273.3897274573418" y="-52.825317547305474" >24</text>
		<text style="fill:black;font-family:calibri;font-size:6" x="322.8153532995459" y="-94.80607966083863" >128</text>

		<path opacity="0.75" fill="pink" d="M78.70400793407171 -69.5992414391281 L81.20400793407171 -67.43417792966699 L123.20771258813971 -82.6827643272814 L78.70400793407171 -69.5992414391281"/>
		<path opacity="0.75" fill="pink" d="M78.70400793407171 -69.5992414391281 L78.70400793407171 -65.2691144202059 L123.20771258813971 -82.6827643272814 L78.70400793407171 -69.5992414391281"/>
		<path opacity="0.75" fill="pink" d="M81.20400793407171 -67.43417792966699 L81.20400793407171 -63.1040509107448 L123.20771258813971 -82.6827643272814 L81.20400793407171 -67.43417792966699"/>
		<path opacity="0.75" fill="pink" d="M78.70400793407171 -65.2691144202059 L81.20400793407171 -63.1040509107448 L123.20771258813971 -82.6827643272814 L78.70400793407171 -65.2691144202059"/>

		<text style="fill:black;font-family:calibri;font-size:6" x="94.37190948542771" y="-80.64100288320475" >[5,5]</text>
<!-- Arrow -->
		<path opacity="0.5" stroke="black" d="M328.8153532995459 -89.609927238132 L328.8153532995459 -132.91119742735395"/>
		<circle opacity="0.5" cx="328.8153532995459" cy="-132.91119742735395" r="1" fill="black" />
		<path opacity="0.75" fill="darkturquoise" d="M606.6793994002423 -163.18284004962914 L611.6793994002423 -158.85271303070695 L611.6793994002423 14.352367726180773 L606.6793994002423 10.02224070725859 L606.6793994002423 -163.18284004962914"/>
		<path opacity="0.75" fill="darkturquoise" d="M598.0191453623979 -160.68284004962914 L603.0191453623979 -156.35271303070695 L603.0191453623979 16.852367726180773 L598.0191453623979 12.52224070725859 L598.0191453623979 -160.68284004962914"/>
		<path opacity="0.75" fill="darkturquoise" d="M606.6793994002423 -163.18284004962914 L598.0191453623979 -160.68284004962914 L598.0191453623979 12.52224070725859 L606.6793994002423 10.02224070725859 L606.6793994002423 -163.18284004962914"/>
		<path opacity="0.75" fill="darkturquoise" d="M611.6793994002423 -158.85271303070695 L603.0191453623979 -156.35271303070695 L603.0191453623979 16.852367726180773 L611.6793994002423 14.352367726180773 L611.6793994002423 -158.85271303070695"/>
		<path opacity="0.75" fill="darkturquoise" d="M606.6793994002423 -163.18284004962914 L611.6793994002423 -158.85271303070695 L603.0191453623979 -156.35271303070695 L598.0191453623979 -160.68284004962914 L606.6793994002423 -163.18284004962914"/>
		<path opacity="0.75" fill="darkturquoise" d="M606.6793994002423 10.02224070725859 L611.6793994002423 14.352367726180773 L603.0191453623979 16.852367726180773 L598.0191453623979 12.52224070725859 L606.6793994002423 10.02224070725859"/>
		<text style="fill:black;font-family:calibri;font-size:6" x="598.0191453623979" y="-74.08029967118527" >200</text>
		<text style="fill:black;font-family:calibri;font-size:6" x="600.5191453623979" y="14.687304216719681" >10</text>
		<text style="fill:black;font-family:calibri;font-size:6" x="602.3492723813201" y="-161.93284004962914" >10</text>

		<path opacity="0.75" fill="darkturquoise" d="M606.6793994002423 -163.18284004962914 L611.6793994002423 -158.85271303070695 L611.6793994002423 14.352367726180773 L606.6793994002423 10.02224070725859 L606.6793994002423 -163.18284004962914"/>
		<path opacity="0.75" fill="darkturquoise" d="M598.0191453623979 -160.68284004962914 L603.0191453623979 -156.35271303070695 L603.0191453623979 16.852367726180773 L598.0191453623979 12.52224070725859 L598.0191453623979 -160.68284004962914"/>
		<path opacity="0.75" fill="darkturquoise" d="M606.6793994002423 -163.18284004962914 L598.0191453623979 -160.68284004962914 L598.0191453623979 12.52224070725859 L606.6793994002423 10.02224070725859 L606.6793994002423 -163.18284004962914"/>
		<path opacity="0.75" fill="darkturquoise" d="M611.6793994002423 -158.85271303070695 L603.0191453623979 -156.35271303070695 L603.0191453623979 16.852367726180773 L611.6793994002423 14.352367726180773 L611.6793994002423 -158.85271303070695"/>
		<path opacity="0.75" fill="darkturquoise" d="M606.6793994002423 -163.18284004962914 L611.6793994002423 -158.85271303070695 L603.0191453623979 -156.35271303070695 L598.0191453623979 -160.68284004962914 L606.6793994002423 -163.18284004962914"/>
		<path opacity="0.75" fill="darkturquoise" d="M606.6793994002423 10.02224070725859 L611.6793994002423 14.352367726180773 L603.0191453623979 16.852367726180773 L598.0191453623979 12.52224070725859 L606.6793994002423 10.02224070725859"/>
		<text style="fill:black;font-family:calibri;font-size:6" x="598.0191453623979" y="-74.08029967118527" >200</text>
		<text style="fill:black;font-family:calibri;font-size:6" x="600.5191453623979" y="14.687304216719681" >10</text>
		<text style="fill:black;font-family:calibri;font-size:6" x="602.3492723813201" y="-161.93284004962914" >10</text>

		<path opacity="0.75" fill="darkturquoise" d="M78.70400793407171 -69.5992414391281 L81.20400793407171 -67.43417792966699 L81.20400793407171 -63.1040509107448 L78.70400793407171 -65.2691144202059 L78.70400793407171 -69.5992414391281"/>
		<path opacity="0.75" fill="darkturquoise" d="M-32.14724375033643 -37.59924143912809 L-29.64724375033643 -35.43417792966699 L-29.64724375033643 -31.104050910744803 L-32.14724375033643 -33.269114420205895 L-32.14724375033643 -37.59924143912809"/>
		<path opacity="0.75" fill="darkturquoise" d="M78.70400793407171 -69.5992414391281 L-32.14724375033643 -37.59924143912809 L-32.14724375033643 -33.269114420205895 L78.70400793407171 -65.2691144202059 L78.70400793407171 -69.5992414391281"/>
		<path opacity="0.75" fill="darkturquoise" d="M81.20400793407171 -67.43417792966699 L-29.64724375033643 -35.43417792966699 L-29.64724375033643 -31.104050910744803 L81.20400793407171 -63.1040509107448 L81.20400793407171 -67.43417792966699"/>
		<path opacity="0.75" fill="darkturquoise" d="M78.70400793407171 -69.5992414391281 L81.20400793407171 -67.43417792966699 L-29.64724375033643 -35.43417792966699 L-32.14724375033643 -37.59924143912809 L78.70400793407171 -69.5992414391281"/>
		<path opacity="0.75" fill="darkturquoise" d="M78.70400793407171 -65.2691144202059 L81.20400793407171 -63.1040509107448 L-29.64724375033643 -31.104050910744803 L-32.14724375033643 -33.269114420205895 L78.70400793407171 -65.2691144202059"/>
		<path opacity="0.5" fill="orange" d="M73.86156123669386 -85.87048957087497 L89.86156123669389 -72.01408311032395 L89.86156123669389 -44.30127018922191 L73.86156123669386 -58.157676649772924 L73.86156123669386 -85.87048957087497"/>
		<path opacity="0.5" fill="orange" d="M-36.98969044771428 -53.870489570874966 L-20.98969044771428 -40.01408311032395 L-20.98969044771428 -12.30127018922191 L-36.98969044771428 -26.157676649772924 L-36.98969044771428 -53.870489570874966"/>
		<path opacity="0.5" fill="orange" d="M73.86156123669386 -85.87048957087497 L-36.98969044771428 -53.870489570874966 L-36.98969044771428 -26.157676649772924 L73.86156123669386 -58.157676649772924 L73.86156123669386 -85.87048957087497"/>
		<path opacity="0.5" fill="orange" d="M89.86156123669389 -72.01408311032395 L-20.98969044771428 -40.01408311032395 L-20.98969044771428 -12.30127018922191 L89.86156123669389 -44.30127018922191 L89.86156123669389 -72.01408311032395"/>
		<path opacity="0.5" fill="orange" d="M73.86156123669386 -85.87048957087497 L89.86156123669389 -72.01408311032395 L-20.98969044771428 -40.01408311032395 L-36.98969044771428 -53.870489570874966 L73.86156123669386 -85.87048957087497"/>
		<path opacity="0.5" fill="orange" d="M73.86156123669386 -58.157676649772924 L89.86156123669389 -44.30127018922191 L-20.98969044771428 -12.30127018922191 L-36.98969044771428 -26.157676649772924 L73.86156123669386 -58.157676649772924"/>
		<text style="fill:black;font-family:calibri;font-size:6" x="-36.98969044771428" y="-40.014083110323945" >32</text>
		<text style="fill:black;font-family:calibri;font-size:6" x="-28.98969044771428" y="-19.229473419497417" >32</text>
		<text style="fill:black;font-family:calibri;font-size:6" x="18.43593539448979" y="-69.87048957087497" >128</text>

<!-- Arrow -->
		<path opacity="0.5" stroke="black" d="M26.435935394489803 -106.2435565298214 L328.8153532995459 -132.91119742735395"/>
		<circle opacity="0.5" cx="328.8153532995459" cy="-132.91119742735395" r="1" fill="black" />
<!-- Arrow -->
		<path opacity="0.5" stroke="black" d="M-105.29096063693623 -49.164718204934914 L-28.98969044771428 -33.08587988004844"/>
		<circle opacity="0.5" cx="-28.98969044771428" cy="-33.08587988004844" r="1" fill="black" />
		<path opacity="0.5" fill="orange" d="M-109.29096063693623 -59.55702305034818 L-101.29096063693623 -52.628819820072664 L-101.29096063693623 -38.77241335952165 L-109.29096063693623 -45.700616589797164 L-109.29096063693623 -59.55702305034818"/>
		<path opacity="0.5" fill="orange" d="M-164.71658647914023 -43.55702305034818 L-156.71658647914023 -36.628819820072664 L-156.71658647914023 -22.77241335952165 L-164.71658647914023 -29.700616589797164 L-164.71658647914023 -43.55702305034818"/>
		<path opacity="0.5" fill="orange" d="M-109.29096063693623 -59.55702305034818 L-164.71658647914023 -43.55702305034818 L-164.71658647914023 -29.700616589797164 L-109.29096063693623 -45.700616589797164 L-109.29096063693623 -59.55702305034818"/>
		<path opacity="0.5" fill="orange" d="M-101.29096063693623 -52.628819820072664 L-156.71658647914023 -36.628819820072664 L-156.71658647914023 -22.77241335952165 L-101.29096063693623 -38.77241335952165 L-101.29096063693623 -52.628819820072664"/>
		<path opacity="0.5" fill="orange" d="M-109.29096063693623 -59.55702305034818 L-101.29096063693623 -52.628819820072664 L-156.71658647914023 -36.628819820072664 L-164.71658647914023 -43.55702305034818 L-109.29096063693623 -59.55702305034818"/>
		<path opacity="0.5" fill="orange" d="M-109.29096063693623 -45.700616589797164 L-101.29096063693623 -38.77241335952165 L-156.71658647914023 -22.77241335952165 L-164.71658647914023 -29.700616589797164 L-109.29096063693623 -45.700616589797164"/>
		<text style="fill:black;font-family:calibri;font-size:6" x="-164.71658647914023" y="-36.62881982007267" >16</text>
		<text style="fill:black;font-family:calibri;font-size:6" x="-160.71658647914023" y="-26.236514974659407" >16</text>
		<text style="fill:black;font-family:calibri;font-size:6" x="-137.00377355803823" y="-51.55702305034818" >64</text>

<!-- Arrow -->
		<path opacity="0.5" stroke="black" d="M26.435935394489803 -62.942286340599466 L26.435935394489803 -106.2435565298214"/>
		<circle opacity="0.5" cx="26.435935394489803" cy="-106.2435565298214" r="1" fill="black" />
<!-- Arrow -->
		<path opacity="0.5" stroke="black" d="M-39.29096063693618 7.992958444838026 L600.5191453623979 -71.91523616172418"/>
		<circle opacity="0.5" cx="600.5191453623979" cy="-71.91523616172418" r="1" fill="black" />
<!-- Arrow -->
		<path opacity="0.5" stroke="black" d="M-39.29096063693618 7.992958444838026 L273.3897274573418 -63.21762239271874"/>
		<circle opacity="0.5" cx="273.3897274573418" cy="-63.21762239271874" r="1" fill="black" />
		<path opacity="0.75" fill="pink" d="M-199.06090077725491 -12.64223257260673 L-196.56090077725491 -10.477169063145624 L-162.0000313765563 -33.567181659660505 L-199.06090077725491 -12.64223257260673"/>
		<path opacity="0.75" fill="pink" d="M-199.06090077725491 -12.64223257260673 L-199.06090077725491 -8.312105553684532 L-162.0000313765563 -33.567181659660505 L-199.06090077725491 -12.64223257260673"/>
		<path opacity="0.75" fill="pink" d="M-196.56090077725491 -10.477169063145624 L-196.56090077725491 -6.14704204422344 L-162.0000313765563 -33.567181659660505 L-196.56090077725491 -10.477169063145624"/>
		<path opacity="0.75" fill="pink" d="M-199.06090077725491 -8.312105553684532 L-196.56090077725491 -6.14704204422344 L-162.0000313765563 -33.567181659660505 L-199.06090077725491 -8.312105553684532"/>

		<text style="fill:black;font-family:calibri;font-size:6" x="-185.87394431035537" y="-27.604707116133618" >[5,5]</text>
<!-- Arrow -->
		<path opacity="0.5" stroke="black" d="M125.43593539448983 36.65063509461097 L600.5191453623979 -71.91523616172418"/>
		<circle opacity="0.5" cx="600.5191453623979" cy="-71.91523616172418" r="1" fill="black" />
		<path opacity="0.75" fill="darkturquoise" d="M-199.06090077725491 -12.64223257260673 L-196.56090077725491 -10.477169063145624 L-196.56090077725491 -6.14704204422344 L-199.06090077725491 -8.312105553684532 L-199.06090077725491 -12.64223257260673"/>
		<path opacity="0.75" fill="darkturquoise" d="M-226.77371369835691 -4.64223257260673 L-224.27371369835691 -2.477169063145624 L-224.27371369835691 1.85295795577656 L-226.77371369835691 -0.31210555368453186 L-226.77371369835691 -4.64223257260673"/>
		<path opacity="0.75" fill="darkturquoise" d="M-199.06090077725491 -12.64223257260673 L-226.77371369835691 -4.64223257260673 L-226.77371369835691 -0.31210555368453186 L-199.06090077725491 -8.312105553684532 L-199.06090077725491 -12.64223257260673"/>
		<path opacity="0.75" fill="darkturquoise" d="M-196.56090077725491 -10.477169063145624 L-224.27371369835691 -2.477169063145624 L-224.27371369835691 1.85295795577656 L-196.56090077725491 -6.14704204422344 L-196.56090077725491 -10.477169063145624"/>
		<path opacity="0.75" fill="darkturquoise" d="M-199.06090077725491 -12.64223257260673 L-196.56090077725491 -10.477169063145624 L-224.27371369835691 -2.477169063145624 L-226.77371369835691 -4.64223257260673 L-199.06090077725491 -12.64223257260673"/>
		<path opacity="0.75" fill="darkturquoise" d="M-199.06090077725491 -8.312105553684532 L-196.56090077725491 -6.14704204422344 L-224.27371369835691 1.85295795577656 L-226.77371369835691 -0.31210555368453186 L-199.06090077725491 -8.312105553684532"/>
		<path opacity="0.5" fill="orange" d="M-212.01785666836224 -41.44932789576144 L-196.01785666836224 -27.592921435210428 L-196.01785666836224 0.11989148589161402 L-212.01785666836224 -13.7365149746594 L-212.01785666836224 -41.44932789576144"/>
		<path opacity="0.5" fill="orange" d="M-239.73066958946424 -33.44932789576144 L-223.73066958946424 -19.592921435210428 L-223.73066958946424 8.119891485891614 L-239.73066958946424 -5.7365149746594 L-239.73066958946424 -33.44932789576144"/>
		<path opacity="0.5" fill="orange" d="M-212.01785666836224 -41.44932789576144 L-239.73066958946424 -33.44932789576144 L-239.73066958946424 -5.7365149746594 L-212.01785666836224 -13.7365149746594 L-212.01785666836224 -41.44932789576144"/>
		<path opacity="0.5" fill="orange" d="M-196.01785666836224 -27.592921435210428 L-223.73066958946424 -19.592921435210428 L-223.73066958946424 8.119891485891614 L-196.01785666836224 0.11989148589161402 L-196.01785666836224 -27.592921435210428"/>
		<path opacity="0.5" fill="orange" d="M-212.01785666836224 -41.44932789576144 L-196.01785666836224 -27.592921435210428 L-223.73066958946424 -19.592921435210428 L-239.73066958946424 -33.44932789576144 L-212.01785666836224 -41.44932789576144"/>
		<path opacity="0.5" fill="orange" d="M-212.01785666836224 -13.7365149746594 L-196.01785666836224 0.11989148589161402 L-223.73066958946424 8.119891485891614 L-239.73066958946424 -5.7365149746594 L-212.01785666836224 -13.7365149746594"/>
		<text style="fill:black;font-family:calibri;font-size:6" x="-239.73066958946424" y="-19.59292143521042" >32</text>
		<text style="fill:black;font-family:calibri;font-size:6" x="-231.73066958946424" y="1.191688255616107" >32</text>
		<text style="fill:black;font-family:calibri;font-size:6" x="-225.87426312891324" y="-37.44932789576144" >32</text>

<!-- Arrow -->
		<path opacity="0.5" stroke="black" d="M125.43593539448983 36.65063509461097 L273.3897274573418 -63.21762239271874"/>
		<circle opacity="0.5" cx="273.3897274573418" cy="-63.21762239271874" r="1" fill="black" />
<!-- Arrow -->
		<path opacity="0.5" stroke="black" d="M-39.29096063693618 7.992958444838026 L-28.98969044771428 -33.08587988004844"/>
		<circle opacity="0.5" cx="-28.98969044771428" cy="-33.08587988004844" r="1" fill="black" />
<!-- Arrow -->
		<path opacity="0.5" stroke="black" d="M477.3153532995459 49.387150069270376 L600.5191453623979 -71.91523616172418"/>
		<circle opacity="0.5" cx="600.5191453623979" cy="-71.91523616172418" r="1" fill="black" />
		<path opacity="0.75" fill="pink" d="M-279.19822105089156 -0.959963468100824 L-274.19822105089156 3.370163550821374 L-226.5889422394693 -4.483378820431312 L-279.19822105089156 -0.959963468100824"/>
		<path opacity="0.75" fill="pink" d="M-279.19822105089156 -0.959963468100824 L-279.19822105089156 7.700290569743572 L-226.5889422394693 -4.483378820431312 L-279.19822105089156 -0.959963468100824"/>
		<path opacity="0.75" fill="pink" d="M-274.19822105089156 3.370163550821374 L-274.19822105089156 12.03041758866577 L-226.5889422394693 -4.483378820431312 L-274.19822105089156 3.370163550821374"/>
		<path opacity="0.75" fill="pink" d="M-279.19822105089156 7.700290569743572 L-274.19822105089156 12.03041758866577 L-226.5889422394693 -4.483378820431312 L-279.19822105089156 7.700290569743572"/>

		<text style="fill:black;font-family:calibri;font-size:6" x="-259.9951281137508" y="-7.221671144266068" >[10,10]</text>
		<path opacity="0.75" fill="darkturquoise" d="M-279.19822105089156 -0.959963468100824 L-274.19822105089156 3.370163550821374 L-274.19822105089156 12.03041758866577 L-279.19822105089156 7.700290569743572 L-279.19822105089156 -0.959963468100824"/>
		<path opacity="0.75" fill="darkturquoise" d="M-296.5187291265803 4.040036531899176 L-291.5187291265803 8.370163550821374 L-291.5187291265803 17.03041758866577 L-296.5187291265803 12.700290569743572 L-296.5187291265803 4.040036531899176"/>
		<path opacity="0.75" fill="darkturquoise" d="M-279.19822105089156 -0.959963468100824 L-296.5187291265803 4.040036531899176 L-296.5187291265803 12.700290569743572 L-279.19822105089156 7.700290569743572 L-279.19822105089156 -0.959963468100824"/>
		<path opacity="0.75" fill="darkturquoise" d="M-274.19822105089156 3.370163550821374 L-291.5187291265803 8.370163550821374 L-291.5187291265803 17.03041758866577 L-274.19822105089156 12.03041758866577 L-274.19822105089156 3.370163550821374"/>
		<path opacity="0.75" fill="darkturquoise" d="M-279.19822105089156 -0.959963468100824 L-274.19822105089156 3.370163550821374 L-291.5187291265803 8.370163550821374 L-296.5187291265803 4.040036531899176 L-279.19822105089156 -0.959963468100824"/>
		<path opacity="0.75" fill="darkturquoise" d="M-279.19822105089156 7.700290569743572 L-274.19822105089156 12.03041758866577 L-291.5187291265803 17.03041758866577 L-296.5187291265803 12.700290569743572 L-279.19822105089156 7.700290569743572"/>
		<path opacity="0.5" fill="lavender" d="M-283.03193977868614 -20.949327895761442 L-267.03193977868614 -7.092921435210428 L-267.03193977868614 20.619891485891614 L-283.03193977868614 6.7634850253406 L-283.03193977868614 -20.949327895761442"/>
		<path opacity="0.5" fill="lavender" d="M-300.352447854375 -15.949327895761442 L-284.352447854375 -2.092921435210428 L-284.352447854375 25.619891485891614 L-300.352447854375 11.7634850253406 L-300.352447854375 -15.949327895761442"/>
		<path opacity="0.5" fill="lavender" d="M-283.03193977868614 -20.949327895761442 L-300.352447854375 -15.949327895761442 L-300.352447854375 11.7634850253406 L-283.03193977868614 6.7634850253406 L-283.03193977868614 -20.949327895761442"/>
		<path opacity="0.5" fill="lavender" d="M-267.03193977868614 -7.092921435210428 L-284.352447854375 -2.092921435210428 L-284.352447854375 25.619891485891614 L-267.03193977868614 20.619891485891614 L-267.03193977868614 -7.092921435210428"/>
		<path opacity="0.5" fill="lavender" d="M-283.03193977868614 -20.949327895761442 L-267.03193977868614 -7.092921435210428 L-284.352447854375 -2.092921435210428 L-300.352447854375 -15.949327895761442 L-283.03193977868614 -20.949327895761442"/>
		<path opacity="0.5" fill="lavender" d="M-283.03193977868614 6.7634850253406 L-267.03193977868614 20.619891485891614 L-284.352447854375 25.619891485891614 L-300.352447854375 11.7634850253406 L-283.03193977868614 6.7634850253406"/>
		<text style="fill:black;font-family:calibri;font-size:6" x="-300.352447854375" y="-2.092921435210421" >32</text>
		<text style="fill:black;font-family:calibri;font-size:6" x="-292.352447854375" y="18.691688255616107" >32</text>
		<text style="fill:black;font-family:calibri;font-size:6" x="-291.69219381653056" y="-18.449327895761442" >20</text>

		<path opacity="0.5" fill="orange" d="M-43.29096063693618 -2.39934640057524 L-35.29096063693618 4.528856829700274 L-35.29096063693618 18.385263290251288 L-43.29096063693618 11.457060059975781 L-43.29096063693618 -2.39934640057524"/>
		<path opacity="0.5" fill="orange" d="M-98.71658647914023 13.60065359942476 L-90.71658647914023 20.528856829700274 L-90.71658647914023 34.38526329025129 L-98.71658647914023 27.45706005997578 L-98.71658647914023 13.60065359942476"/>
		<path opacity="0.5" fill="orange" d="M-43.29096063693618 -2.39934640057524 L-98.71658647914023 13.60065359942476 L-98.71658647914023 27.45706005997578 L-43.29096063693618 11.457060059975781 L-43.29096063693618 -2.39934640057524"/>
		<path opacity="0.5" fill="orange" d="M-35.29096063693618 4.528856829700274 L-90.71658647914023 20.528856829700274 L-90.71658647914023 34.38526329025129 L-35.29096063693618 18.385263290251288 L-35.29096063693618 4.528856829700274"/>
		<path opacity="0.5" fill="orange" d="M-43.29096063693618 -2.39934640057524 L-35.29096063693618 4.528856829700274 L-90.71658647914023 20.528856829700274 L-98.71658647914023 13.60065359942476 L-43.29096063693618 -2.39934640057524"/>
		<path opacity="0.5" fill="orange" d="M-43.29096063693618 11.457060059975781 L-35.29096063693618 18.385263290251288 L-90.71658647914023 34.38526329025129 L-98.71658647914023 27.45706005997578 L-43.29096063693618 11.457060059975781"/>
		<text style="fill:black;font-family:calibri;font-size:6" x="-98.71658647914023" y="20.52885682970027" >16</text>
		<text style="fill:black;font-family:calibri;font-size:6" x="-94.71658647914023" y="30.921161675113535" >16</text>
		<text style="fill:black;font-family:calibri;font-size:6" x="-71.0037735580382" y="5.60065359942476" >64</text>

		<path opacity="0.75" fill="pink" d="M-133.64050014387965 32.885551299400504 L-131.14050014387965 35.0506148088616 L-94.74343063078106 17.724616925836415 L-133.64050014387965 32.885551299400504"/>
		<path opacity="0.75" fill="pink" d="M-133.64050014387965 32.885551299400504 L-133.64050014387965 37.2156783183227 L-94.74343063078106 17.724616925836415 L-133.64050014387965 32.885551299400504"/>
		<path opacity="0.75" fill="pink" d="M-131.14050014387965 35.0506148088616 L-131.14050014387965 39.380741827783794 L-94.74343063078106 17.724616925836415 L-131.14050014387965 35.0506148088616"/>
		<path opacity="0.75" fill="pink" d="M-133.64050014387965 37.2156783183227 L-131.14050014387965 39.380741827783794 L-94.74343063078106 17.724616925836415 L-133.64050014387965 37.2156783183227"/>

		<text style="fill:black;font-family:calibri;font-size:6" x="-119.84147697284679" y="20.80508411261846" >[5,5]</text>
		<path opacity="0.75" fill="darkturquoise" d="M-133.64050014387965 32.885551299400504 L-131.14050014387965 35.0506148088616 L-131.14050014387965 39.380741827783794 L-133.64050014387965 37.2156783183227 L-133.64050014387965 32.885551299400504"/>
		<path opacity="0.75" fill="darkturquoise" d="M-161.35331306498165 40.885551299400504 L-158.85331306498165 43.05061480886161 L-158.85331306498165 47.380741827783794 L-161.35331306498165 45.2156783183227 L-161.35331306498165 40.885551299400504"/>
		<path opacity="0.75" fill="darkturquoise" d="M-133.64050014387965 32.885551299400504 L-161.35331306498165 40.885551299400504 L-161.35331306498165 45.2156783183227 L-133.64050014387965 37.2156783183227 L-133.64050014387965 32.885551299400504"/>
		<path opacity="0.75" fill="darkturquoise" d="M-131.14050014387965 35.0506148088616 L-158.85331306498165 43.05061480886161 L-158.85331306498165 47.380741827783794 L-131.14050014387965 39.380741827783794 L-131.14050014387965 35.0506148088616"/>
		<path opacity="0.75" fill="darkturquoise" d="M-133.64050014387965 32.885551299400504 L-131.14050014387965 35.0506148088616 L-158.85331306498165 43.05061480886161 L-161.35331306498165 40.885551299400504 L-133.64050014387965 32.885551299400504"/>
		<path opacity="0.75" fill="darkturquoise" d="M-133.64050014387965 37.2156783183227 L-131.14050014387965 39.380741827783794 L-158.85331306498165 47.380741827783794 L-161.35331306498165 45.2156783183227 L-133.64050014387965 37.2156783183227"/>
		<path opacity="0.5" fill="orange" d="M-146.01785666836219 15.708348754011496 L-130.01785666836219 29.564755214562517 L-130.01785666836219 57.27756813566455 L-146.01785666836219 43.42116167511354 L-146.01785666836219 15.708348754011496"/>
		<path opacity="0.5" fill="orange" d="M-173.73066958946418 23.708348754011496 L-157.73066958946418 37.56475521456252 L-157.73066958946418 65.27756813566455 L-173.73066958946418 51.42116167511354 L-173.73066958946418 23.708348754011496"/>
		<path opacity="0.5" fill="orange" d="M-146.01785666836219 15.708348754011496 L-173.73066958946418 23.708348754011496 L-173.73066958946418 51.42116167511354 L-146.01785666836219 43.42116167511354 L-146.01785666836219 15.708348754011496"/>
		<path opacity="0.5" fill="orange" d="M-130.01785666836219 29.564755214562517 L-157.73066958946418 37.56475521456252 L-157.73066958946418 65.27756813566455 L-130.01785666836219 57.27756813566455 L-130.01785666836219 29.564755214562517"/>
		<path opacity="0.5" fill="orange" d="M-146.01785666836219 15.708348754011496 L-130.01785666836219 29.564755214562517 L-157.73066958946418 37.56475521456252 L-173.73066958946418 23.708348754011496 L-146.01785666836219 15.708348754011496"/>
		<path opacity="0.5" fill="orange" d="M-146.01785666836219 43.42116167511354 L-130.01785666836219 57.27756813566455 L-157.73066958946418 65.27756813566455 L-173.73066958946418 51.42116167511354 L-146.01785666836219 43.42116167511354"/>
		<text style="fill:black;font-family:calibri;font-size:6" x="-173.73066958946418" y="37.56475521456252" >32</text>
		<text style="fill:black;font-family:calibri;font-size:6" x="-165.73066958946418" y="58.349364905389045" >32</text>
		<text style="fill:black;font-family:calibri;font-size:6" x="-159.87426312891319" y="19.708348754011496" >32</text>

		<path opacity="0.5" fill="orange" d="M123.43593539448983 31.45448267190433 L127.43593539448983 34.918584287042094 L127.43593539448983 41.84678751731761 L123.43593539448983 38.382685902179844 L123.43593539448983 31.45448267190433"/>
		<path opacity="0.5" fill="orange" d="M68.01030955228575 47.45448267190433 L72.01030955228575 50.918584287042094 L72.01030955228575 57.84678751731761 L68.01030955228575 54.382685902179844 L68.01030955228575 47.45448267190433"/>
		<path opacity="0.5" fill="orange" d="M123.43593539448983 31.45448267190433 L68.01030955228575 47.45448267190433 L68.01030955228575 54.382685902179844 L123.43593539448983 38.382685902179844 L123.43593539448983 31.45448267190433"/>
		<path opacity="0.5" fill="orange" d="M127.43593539448983 34.918584287042094 L72.01030955228575 50.918584287042094 L72.01030955228575 57.84678751731761 L127.43593539448983 41.84678751731761 L127.43593539448983 34.918584287042094"/>
		<path opacity="0.5" fill="orange" d="M123.43593539448983 31.45448267190433 L127.43593539448983 34.918584287042094 L72.01030955228575 50.918584287042094 L68.01030955228575 47.45448267190433 L123.43593539448983 31.45448267190433"/>
		<path opacity="0.5" fill="orange" d="M123.43593539448983 38.382685902179844 L127.43593539448983 41.84678751731761 L72.01030955228575 57.84678751731761 L68.01030955228575 54.382685902179844 L123.43593539448983 38.382685902179844"/>
		<text style="fill:black;font-family:calibri;font-size:6" x="68.01030955228575" y="50.91858428704209" >8</text>
		<text style="fill:black;font-family:calibri;font-size:6" x="70.01030955228575" y="56.114736709748726" >8</text>
		<text style="fill:black;font-family:calibri;font-size:6" x="95.72312247338779" y="39.45448267190433" >64</text>

		<path opacity="0.75" fill="pink" d="M-216.59219779658673 50.468862907293214 L-211.59219779658673 54.79898992621541 L-158.3594000139086 38.59716427296139 L-216.59219779658673 50.468862907293214"/>
		<path opacity="0.75" fill="pink" d="M-216.59219779658673 50.468862907293214 L-216.59219779658673 59.129116945137596 L-158.3594000139086 38.59716427296139 L-216.59219779658673 50.468862907293214"/>
		<path opacity="0.75" fill="pink" d="M-211.59219779658673 54.79898992621541 L-211.59219779658673 63.459243964059795 L-158.3594000139086 38.59716427296139 L-211.59219779658673 54.79898992621541"/>
		<path opacity="0.75" fill="pink" d="M-216.59219779658673 59.129116945137596 L-211.59219779658673 63.459243964059795 L-158.3594000139086 38.59716427296139 L-216.59219779658673 59.129116945137596"/>

		<text style="fill:black;font-family:calibri;font-size:6" x="-195.51459853569403" y="40.033013590127304" >[10,10]</text>
		<path opacity="0.5" fill="orange" d="M473.3153532995459 38.99484522385711 L481.3153532995459 45.923048454132626 L481.3153532995459 59.77945491468364 L473.3153532995459 52.851251684408126 L473.3153532995459 38.99484522385711"/>
		<path opacity="0.5" fill="orange" d="M417.88972745734185 54.99484522385711 L425.88972745734185 61.923048454132626 L425.88972745734185 75.77945491468364 L417.88972745734185 68.85125168440813 L417.88972745734185 54.99484522385711"/>
		<path opacity="0.5" fill="orange" d="M473.3153532995459 38.99484522385711 L417.88972745734185 54.99484522385711 L417.88972745734185 68.85125168440813 L473.3153532995459 52.851251684408126 L473.3153532995459 38.99484522385711"/>
		<path opacity="0.5" fill="orange" d="M481.3153532995459 45.923048454132626 L425.88972745734185 61.923048454132626 L425.88972745734185 75.77945491468364 L481.3153532995459 59.77945491468364 L481.3153532995459 45.923048454132626"/>
		<path opacity="0.5" fill="orange" d="M473.3153532995459 38.99484522385711 L481.3153532995459 45.923048454132626 L425.88972745734185 61.923048454132626 L417.88972745734185 54.99484522385711 L473.3153532995459 38.99484522385711"/>
		<path opacity="0.5" fill="orange" d="M473.3153532995459 52.851251684408126 L481.3153532995459 59.77945491468364 L425.88972745734185 75.77945491468364 L417.88972745734185 68.85125168440813 L473.3153532995459 52.851251684408126"/>
		<text style="fill:black;font-family:calibri;font-size:6" x="417.88972745734185" y="61.92304845413262" >16</text>
		<text style="fill:black;font-family:calibri;font-size:6" x="421.88972745734185" y="72.31535329954588" >16</text>
		<text style="fill:black;font-family:calibri;font-size:6" x="445.6025403784439" y="46.99484522385711" >64</text>

		<path opacity="0.75" fill="pink" d="M24.042665396331188 60.12741700975103 L26.542665396331188 62.29248051921212 L71.78704128392468 55.29906485641882 L24.042665396331188 60.12741700975103"/>
		<path opacity="0.75" fill="pink" d="M24.042665396331188 60.12741700975103 L24.042665396331188 64.45754402867323 L71.78704128392468 55.29906485641882 L24.042665396331188 60.12741700975103"/>
		<path opacity="0.75" fill="pink" d="M26.542665396331188 62.29248051921212 L26.542665396331188 66.62260753813432 L71.78704128392468 55.29906485641882 L26.542665396331188 62.29248051921212"/>
		<path opacity="0.75" fill="pink" d="M24.042665396331188 64.45754402867323 L26.542665396331188 66.62260753813432 L71.78704128392468 55.29906485641882 L24.042665396331188 64.45754402867323"/>

		<text style="fill:black;font-family:calibri;font-size:6" x="40.790790692195685" y="53.213240933084926" >[5,5]</text>
		<path opacity="0.75" fill="darkturquoise" d="M-216.59219779658673 50.468862907293214 L-211.59219779658673 54.79898992621541 L-211.59219779658673 63.459243964059795 L-216.59219779658673 59.129116945137596 L-216.59219779658673 50.468862907293214"/>
		<path opacity="0.75" fill="darkturquoise" d="M-233.91270587227552 55.468862907293214 L-228.91270587227552 59.79898992621541 L-228.91270587227552 68.4592439640598 L-233.91270587227552 64.1291169451376 L-233.91270587227552 55.468862907293214"/>
		<path opacity="0.75" fill="darkturquoise" d="M-216.59219779658673 50.468862907293214 L-233.91270587227552 55.468862907293214 L-233.91270587227552 64.1291169451376 L-216.59219779658673 59.129116945137596 L-216.59219779658673 50.468862907293214"/>
		<path opacity="0.75" fill="darkturquoise" d="M-211.59219779658673 54.79898992621541 L-228.91270587227552 59.79898992621541 L-228.91270587227552 68.4592439640598 L-211.59219779658673 63.459243964059795 L-211.59219779658673 54.79898992621541"/>
		<path opacity="0.75" fill="darkturquoise" d="M-216.59219779658673 50.468862907293214 L-211.59219779658673 54.79898992621541 L-228.91270587227552 59.79898992621541 L-233.91270587227552 55.468862907293214 L-216.59219779658673 50.468862907293214"/>
		<path opacity="0.75" fill="darkturquoise" d="M-216.59219779658673 59.129116945137596 L-211.59219779658673 63.459243964059795 L-228.91270587227552 68.4592439640598 L-233.91270587227552 64.1291169451376 L-216.59219779658673 59.129116945137596"/>
		<path opacity="0.5" fill="lavender" d="M-217.03193977868614 36.208348754011496 L-201.03193977868614 50.064755214562524 L-201.03193977868614 77.77756813566455 L-217.03193977868614 63.92116167511354 L-217.03193977868614 36.208348754011496"/>
		<path opacity="0.5" fill="lavender" d="M-234.35244785437493 41.208348754011496 L-218.35244785437493 55.064755214562524 L-218.35244785437493 82.77756813566455 L-234.35244785437493 68.92116167511354 L-234.35244785437493 41.208348754011496"/>
		<path opacity="0.5" fill="lavender" d="M-217.03193977868614 36.208348754011496 L-234.35244785437493 41.208348754011496 L-234.35244785437493 68.92116167511354 L-217.03193977868614 63.92116167511354 L-217.03193977868614 36.208348754011496"/>
		<path opacity="0.5" fill="lavender" d="M-201.03193977868614 50.064755214562524 L-218.35244785437493 55.064755214562524 L-218.35244785437493 82.77756813566455 L-201.03193977868614 77.77756813566455 L-201.03193977868614 50.064755214562524"/>
		<path opacity="0.5" fill="lavender" d="M-217.03193977868614 36.208348754011496 L-201.03193977868614 50.064755214562524 L-218.35244785437493 55.064755214562524 L-234.35244785437493 41.208348754011496 L-217.03193977868614 36.208348754011496"/>
		<path opacity="0.5" fill="lavender" d="M-217.03193977868614 63.92116167511354 L-201.03193977868614 77.77756813566455 L-218.35244785437493 82.77756813566455 L-234.35244785437493 68.92116167511354 L-217.03193977868614 63.92116167511354"/>
		<text style="fill:black;font-family:calibri;font-size:6" x="-234.35244785437493" y="55.06475521456252" >32</text>
		<text style="fill:black;font-family:calibri;font-size:6" x="-226.35244785437493" y="75.84936490538905" >32</text>
		<text style="fill:black;font-family:calibri;font-size:6" x="-225.69219381653053" y="38.708348754011496" >20</text>

		<path opacity="0.75" fill="pink" d="M378.28831984948073 77.3121994828658 L380.78831984948073 79.4772629923269 L421.5049825621779 70.63642193227503 L378.28831984948073 77.3121994828658"/>
		<path opacity="0.75" fill="pink" d="M378.28831984948073 77.3121994828658 L378.28831984948073 81.64232650178798 L421.5049825621779 70.63642193227503 L378.28831984948073 77.3121994828658"/>
		<path opacity="0.75" fill="pink" d="M380.78831984948073 79.4772629923269 L380.78831984948073 83.80739001124908 L421.5049825621779 70.63642193227503 L380.78831984948073 79.4772629923269"/>
		<path opacity="0.75" fill="pink" d="M378.28831984948073 81.64232650178798 L380.78831984948073 83.80739001124908 L421.5049825621779 70.63642193227503 L378.28831984948073 81.64232650178798"/>

		<text style="fill:black;font-family:calibri;font-size:6" x="393.52720742037974" y="69.47431070757041" >[5,5]</text>
		<path opacity="0.75" fill="darkturquoise" d="M24.042665396331188 60.12741700975103 L26.542665396331188 62.29248051921212 L26.542665396331188 66.62260753813432 L24.042665396331188 64.45754402867323 L24.042665396331188 60.12741700975103"/>
		<path opacity="0.75" fill="darkturquoise" d="M-31.382960445872868 76.12741700975103 L-28.882960445872868 78.29248051921212 L-28.882960445872868 82.62260753813432 L-31.382960445872868 80.45754402867323 L-31.382960445872868 76.12741700975103"/>
		<path opacity="0.75" fill="darkturquoise" d="M24.042665396331188 60.12741700975103 L-31.382960445872868 76.12741700975103 L-31.382960445872868 80.45754402867323 L24.042665396331188 64.45754402867323 L24.042665396331188 60.12741700975103"/>
		<path opacity="0.75" fill="darkturquoise" d="M26.542665396331188 62.29248051921212 L-28.882960445872868 78.29248051921212 L-28.882960445872868 82.62260753813432 L26.542665396331188 66.62260753813432 L26.542665396331188 62.29248051921212"/>
		<path opacity="0.75" fill="darkturquoise" d="M24.042665396331188 60.12741700975103 L26.542665396331188 62.29248051921212 L-28.882960445872868 78.29248051921212 L-31.382960445872868 76.12741700975103 L24.042665396331188 60.12741700975103"/>
		<path opacity="0.75" fill="darkturquoise" d="M24.042665396331188 64.45754402867323 L26.542665396331188 66.62260753813432 L-28.882960445872868 82.62260753813432 L-31.382960445872868 80.45754402867323 L24.042665396331188 64.45754402867323"/>
		<path opacity="0.5" fill="orange" d="M22.709039363063823 54.75833024919771 L30.709039363063823 61.68653347947321 L30.709039363063823 75.54293994002424 L22.709039363063823 68.61473670974873 L22.709039363063823 54.75833024919771"/>
		<path opacity="0.5" fill="orange" d="M-32.71658647914023 70.75833024919771 L-24.716586479140233 77.68653347947321 L-24.716586479140233 91.54293994002424 L-32.71658647914023 84.61473670974873 L-32.71658647914023 70.75833024919771"/>
		<path opacity="0.5" fill="orange" d="M22.709039363063823 54.75833024919771 L-32.71658647914023 70.75833024919771 L-32.71658647914023 84.61473670974873 L22.709039363063823 68.61473670974873 L22.709039363063823 54.75833024919771"/>
		<path opacity="0.5" fill="orange" d="M30.709039363063823 61.68653347947321 L-24.716586479140233 77.68653347947321 L-24.716586479140233 91.54293994002424 L30.709039363063823 75.54293994002424 L30.709039363063823 61.68653347947321"/>
		<path opacity="0.5" fill="orange" d="M22.709039363063823 54.75833024919771 L30.709039363063823 61.68653347947321 L-24.716586479140233 77.68653347947321 L-32.71658647914023 70.75833024919771 L22.709039363063823 54.75833024919771"/>
		<path opacity="0.5" fill="orange" d="M22.709039363063823 68.61473670974873 L30.709039363063823 75.54293994002424 L-24.716586479140233 91.54293994002424 L-32.71658647914023 84.61473670974873 L22.709039363063823 68.61473670974873"/>
		<text style="fill:black;font-family:calibri;font-size:6" x="-32.71658647914023" y="77.68653347947321" >16</text>
		<text style="fill:black;font-family:calibri;font-size:6" x="-28.716586479140233" y="88.07883832488648" >16</text>
		<text style="fill:black;font-family:calibri;font-size:6" x="-5.003773558038205" y="62.75833024919771" >64</text>

		<path opacity="0.75" fill="pink" d="M-69.90394634832427 82.96111115131474 L-67.40394634832427 85.12617466077583 L-29.06741494029461 80.2299446903333 L-69.90394634832427 82.96111115131474"/>
		<path opacity="0.75" fill="pink" d="M-69.90394634832427 82.96111115131474 L-69.90394634832427 87.29123817023692 L-29.06741494029461 80.2299446903333 L-69.90394634832427 82.96111115131474"/>
		<path opacity="0.75" fill="pink" d="M-67.40394634832427 85.12617466077583 L-67.40394634832427 89.45630167969803 L-29.06741494029461 80.2299446903333 L-67.40394634832427 85.12617466077583"/>
		<path opacity="0.75" fill="pink" d="M-69.90394634832427 87.29123817023692 L-67.40394634832427 89.45630167969803 L-29.06741494029461 80.2299446903333 L-69.90394634832427 87.29123817023692"/>

		<text style="fill:black;font-family:calibri;font-size:6" x="-55.45843587898105" y="77.09552792082403" >[5,5]</text>
		<path opacity="0.75" fill="darkturquoise" d="M378.28831984948073 77.3121994828658 L380.78831984948073 79.4772629923269 L380.78831984948073 83.80739001124908 L378.28831984948073 81.64232650178798 L378.28831984948073 77.3121994828658"/>
		<path opacity="0.75" fill="darkturquoise" d="M267.43706816507256 109.3121994828658 L269.93706816507256 111.4772629923269 L269.93706816507256 115.80739001124908 L267.43706816507256 113.64232650178798 L267.43706816507256 109.3121994828658"/>
		<path opacity="0.75" fill="darkturquoise" d="M378.28831984948073 77.3121994828658 L267.43706816507256 109.3121994828658 L267.43706816507256 113.64232650178798 L378.28831984948073 81.64232650178798 L378.28831984948073 77.3121994828658"/>
		<path opacity="0.75" fill="darkturquoise" d="M380.78831984948073 79.4772629923269 L269.93706816507256 111.4772629923269 L269.93706816507256 115.80739001124908 L380.78831984948073 83.80739001124908 L380.78831984948073 79.4772629923269"/>
		<path opacity="0.75" fill="darkturquoise" d="M378.28831984948073 77.3121994828658 L380.78831984948073 79.4772629923269 L269.93706816507256 111.4772629923269 L267.43706816507256 109.3121994828658 L378.28831984948073 77.3121994828658"/>
		<path opacity="0.75" fill="darkturquoise" d="M378.28831984948073 81.64232650178798 L380.78831984948073 83.80739001124908 L269.93706816507256 115.80739001124908 L267.43706816507256 113.64232650178798 L378.28831984948073 81.64232650178798"/>
		<path opacity="0.5" fill="orange" d="M374.5884572681199 67.49484522385711 L382.5884572681199 74.42304845413263 L382.5884572681199 88.27945491468364 L374.5884572681199 81.35125168440813 L374.5884572681199 67.49484522385711"/>
		<path opacity="0.5" fill="orange" d="M263.7372055837118 99.49484522385711 L271.7372055837118 106.42304845413264 L271.7372055837118 120.27945491468364 L263.7372055837118 113.35125168440811 L263.7372055837118 99.49484522385711"/>
		<path opacity="0.5" fill="orange" d="M374.5884572681199 67.49484522385711 L263.7372055837118 99.49484522385711 L263.7372055837118 113.35125168440811 L374.5884572681199 81.35125168440813 L374.5884572681199 67.49484522385711"/>
		<path opacity="0.5" fill="orange" d="M382.5884572681199 74.42304845413263 L271.7372055837118 106.42304845413264 L271.7372055837118 120.27945491468364 L382.5884572681199 88.27945491468364 L382.5884572681199 74.42304845413263"/>
		<path opacity="0.5" fill="orange" d="M374.5884572681199 67.49484522385711 L382.5884572681199 74.42304845413263 L271.7372055837118 106.42304845413264 L263.7372055837118 99.49484522385711 L374.5884572681199 67.49484522385711"/>
		<path opacity="0.5" fill="orange" d="M374.5884572681199 81.35125168440813 L382.5884572681199 88.27945491468364 L271.7372055837118 120.27945491468364 L263.7372055837118 113.35125168440811 L374.5884572681199 81.35125168440813"/>
		<text style="fill:black;font-family:calibri;font-size:6" x="263.7372055837118" y="106.42304845413261" >16</text>
		<text style="fill:black;font-family:calibri;font-size:6" x="267.7372055837118" y="116.81535329954588" >16</text>
		<text style="fill:black;font-family:calibri;font-size:6" x="319.16283142591584" y="83.49484522385711" >128</text>

		<path opacity="0.75" fill="darkturquoise" d="M-69.90394634832427 82.96111115131474 L-67.40394634832427 85.12617466077583 L-67.40394634832427 89.45630167969803 L-69.90394634832427 87.29123817023692 L-69.90394634832427 82.96111115131474"/>
		<path opacity="0.75" fill="darkturquoise" d="M-97.61675926942627 90.96111115131474 L-95.11675926942627 93.12617466077583 L-95.11675926942627 97.45630167969803 L-97.61675926942627 95.29123817023692 L-97.61675926942627 90.96111115131474"/>
		<path opacity="0.75" fill="darkturquoise" d="M-69.90394634832427 82.96111115131474 L-97.61675926942627 90.96111115131474 L-97.61675926942627 95.29123817023692 L-69.90394634832427 87.29123817023692 L-69.90394634832427 82.96111115131474"/>
		<path opacity="0.75" fill="darkturquoise" d="M-67.40394634832427 85.12617466077583 L-95.11675926942627 93.12617466077583 L-95.11675926942627 97.45630167969803 L-67.40394634832427 89.45630167969803 L-67.40394634832427 85.12617466077583"/>
		<path opacity="0.75" fill="darkturquoise" d="M-69.90394634832427 82.96111115131474 L-67.40394634832427 85.12617466077583 L-95.11675926942627 93.12617466077583 L-97.61675926942627 90.96111115131474 L-69.90394634832427 82.96111115131474"/>
		<path opacity="0.75" fill="darkturquoise" d="M-69.90394634832427 87.29123817023692 L-67.40394634832427 89.45630167969803 L-95.11675926942627 97.45630167969803 L-97.61675926942627 95.29123817023692 L-69.90394634832427 87.29123817023692"/>
		<path opacity="0.5" fill="orange" d="M-80.01785666836219 72.86602540378443 L-64.01785666836219 86.72243186433545 L-64.01785666836219 114.4352447854375 L-80.01785666836219 100.57883832488648 L-80.01785666836219 72.86602540378443"/>
		<path opacity="0.5" fill="orange" d="M-107.73066958946418 80.86602540378443 L-91.73066958946418 94.72243186433545 L-91.73066958946418 122.4352447854375 L-107.73066958946418 108.57883832488648 L-107.73066958946418 80.86602540378443"/>
		<path opacity="0.5" fill="orange" d="M-80.01785666836219 72.86602540378443 L-107.73066958946418 80.86602540378443 L-107.73066958946418 108.57883832488648 L-80.01785666836219 100.57883832488648 L-80.01785666836219 72.86602540378443"/>
		<path opacity="0.5" fill="orange" d="M-64.01785666836219 86.72243186433545 L-91.73066958946418 94.72243186433545 L-91.73066958946418 122.4352447854375 L-64.01785666836219 114.4352447854375 L-64.01785666836219 86.72243186433545"/>
		<path opacity="0.5" fill="orange" d="M-80.01785666836219 72.86602540378443 L-64.01785666836219 86.72243186433545 L-91.73066958946418 94.72243186433545 L-107.73066958946418 80.86602540378443 L-80.01785666836219 72.86602540378443"/>
		<path opacity="0.5" fill="orange" d="M-80.01785666836219 100.57883832488648 L-64.01785666836219 114.4352447854375 L-91.73066958946418 122.4352447854375 L-107.73066958946418 108.57883832488648 L-80.01785666836219 100.57883832488648"/>
		<text style="fill:black;font-family:calibri;font-size:6" x="-107.73066958946418" y="94.72243186433545" >32</text>
		<text style="fill:black;font-family:calibri;font-size:6" x="-99.73066958946418" y="115.50704155516199" >32</text>
		<text style="fill:black;font-family:calibri;font-size:6" x="-93.87426312891319" y="76.86602540378443" >32</text>

<!-- Arrow -->
		<path opacity="0.5" stroke="black" d="M191.43593539448983 93.8083117443839 L267.7372055837118 109.88715006927038"/>
		<circle opacity="0.5" cx="267.7372055837118" cy="109.88715006927038" r="1" fill="black" />
		<path opacity="0.5" fill="orange" d="M189.43593539448983 88.61215932167727 L193.43593539448983 92.07626093681503 L193.43593539448983 99.00446416709055 L189.43593539448983 95.54036255195278 L189.43593539448983 88.61215932167727"/>
		<path opacity="0.5" fill="orange" d="M134.01030955228578 104.61215932167727 L138.01030955228578 108.07626093681503 L138.01030955228578 115.00446416709053 L134.01030955228578 111.5403625519528 L134.01030955228578 104.61215932167727"/>
		<path opacity="0.5" fill="orange" d="M189.43593539448983 88.61215932167727 L134.01030955228578 104.61215932167727 L134.01030955228578 111.5403625519528 L189.43593539448983 95.54036255195278 L189.43593539448983 88.61215932167727"/>
		<path opacity="0.5" fill="orange" d="M193.43593539448983 92.07626093681503 L138.01030955228578 108.07626093681503 L138.01030955228578 115.00446416709053 L193.43593539448983 99.00446416709055 L193.43593539448983 92.07626093681503"/>
		<path opacity="0.5" fill="orange" d="M189.43593539448983 88.61215932167727 L193.43593539448983 92.07626093681503 L138.01030955228578 108.07626093681503 L134.01030955228578 104.61215932167727 L189.43593539448983 88.61215932167727"/>
		<path opacity="0.5" fill="orange" d="M189.43593539448983 95.54036255195278 L193.43593539448983 99.00446416709055 L138.01030955228578 115.00446416709053 L134.01030955228578 111.5403625519528 L189.43593539448983 95.54036255195278"/>
		<text style="fill:black;font-family:calibri;font-size:6" x="134.01030955228578" y="108.07626093681503" >8</text>
		<text style="fill:black;font-family:calibri;font-size:6" x="136.01030955228578" y="113.27241335952166" >8</text>
		<text style="fill:black;font-family:calibri;font-size:6" x="161.7231224733878" y="96.61215932167727" >64</text>

		<path opacity="0.75" fill="pink" d="M-145.75066776867277 109.53024386059664 L-140.75066776867277 113.86037087951883 L-94.4389093962672 119.22078708848056 L-145.75066776867277 109.53024386059664"/>
		<path opacity="0.75" fill="pink" d="M-145.75066776867277 109.53024386059664 L-145.75066776867277 118.19049789844101 L-94.4389093962672 119.22078708848056 L-145.75066776867277 109.53024386059664"/>
		<path opacity="0.75" fill="pink" d="M-140.75066776867277 113.86037087951883 L-140.75066776867277 122.52062491736322 L-94.4389093962672 119.22078708848056 L-140.75066776867277 113.86037087951883"/>
		<path opacity="0.75" fill="pink" d="M-145.75066776867277 118.19049789844101 L-140.75066776867277 122.52062491736322 L-94.4389093962672 119.22078708848056 L-145.75066776867277 118.19049789844101"/>

		<text style="fill:black;font-family:calibri;font-size:6" x="-126.98008164453758" y="109.8755154745386" >[10,10]</text>
		<path opacity="0.75" fill="darkturquoise" d="M-145.75066776867277 109.53024386059664 L-140.75066776867277 113.86037087951883 L-140.75066776867277 122.52062491736322 L-145.75066776867277 118.19049789844101 L-145.75066776867277 109.53024386059664"/>
		<path opacity="0.75" fill="darkturquoise" d="M-163.07117584436156 114.53024386059664 L-158.07117584436156 118.86037087951883 L-158.07117584436156 127.52062491736322 L-163.07117584436156 123.19049789844101 L-163.07117584436156 114.53024386059664"/>
		<path opacity="0.75" fill="darkturquoise" d="M-145.75066776867277 109.53024386059664 L-163.07117584436156 114.53024386059664 L-163.07117584436156 123.19049789844101 L-145.75066776867277 118.19049789844101 L-145.75066776867277 109.53024386059664"/>
		<path opacity="0.75" fill="darkturquoise" d="M-140.75066776867277 113.86037087951883 L-158.07117584436156 118.86037087951883 L-158.07117584436156 127.52062491736322 L-140.75066776867277 122.52062491736322 L-140.75066776867277 113.86037087951883"/>
		<path opacity="0.75" fill="darkturquoise" d="M-145.75066776867277 109.53024386059664 L-140.75066776867277 113.86037087951883 L-158.07117584436156 118.86037087951883 L-163.07117584436156 114.53024386059664 L-145.75066776867277 109.53024386059664"/>
		<path opacity="0.75" fill="darkturquoise" d="M-145.75066776867277 118.19049789844101 L-140.75066776867277 122.52062491736322 L-158.07117584436156 127.52062491736322 L-163.07117584436156 123.19049789844101 L-145.75066776867277 118.19049789844101"/>
		<path opacity="0.5" fill="lavender" d="M-151.03193977868614 93.36602540378443 L-135.03193977868614 107.22243186433545 L-135.03193977868614 134.9352447854375 L-151.03193977868614 121.07883832488648 L-151.03193977868614 93.36602540378443"/>
		<path opacity="0.5" fill="lavender" d="M-168.35244785437493 98.36602540378443 L-152.35244785437493 112.22243186433545 L-152.35244785437493 139.9352447854375 L-168.35244785437493 126.07883832488648 L-168.35244785437493 98.36602540378443"/>
		<path opacity="0.5" fill="lavender" d="M-151.03193977868614 93.36602540378443 L-168.35244785437493 98.36602540378443 L-168.35244785437493 126.07883832488648 L-151.03193977868614 121.07883832488648 L-151.03193977868614 93.36602540378443"/>
		<path opacity="0.5" fill="lavender" d="M-135.03193977868614 107.22243186433545 L-152.35244785437493 112.22243186433545 L-152.35244785437493 139.9352447854375 L-135.03193977868614 134.9352447854375 L-135.03193977868614 107.22243186433545"/>
		<path opacity="0.5" fill="lavender" d="M-151.03193977868614 93.36602540378443 L-135.03193977868614 107.22243186433545 L-152.35244785437493 112.22243186433545 L-168.35244785437493 98.36602540378443 L-151.03193977868614 93.36602540378443"/>
		<path opacity="0.5" fill="lavender" d="M-151.03193977868614 121.07883832488648 L-135.03193977868614 134.9352447854375 L-152.35244785437493 139.9352447854375 L-168.35244785437493 126.07883832488648 L-151.03193977868614 121.07883832488648"/>
		<text style="fill:black;font-family:calibri;font-size:6" x="-168.35244785437493" y="112.22243186433545" >32</text>
		<text style="fill:black;font-family:calibri;font-size:6" x="-160.35244785437493" y="133.007041555162" >32</text>
		<text style="fill:black;font-family:calibri;font-size:6" x="-159.69219381653053" y="95.86602540378443" >20</text>

		<path opacity="0.75" fill="pink" d="M93.04009669569393 121.06324384934163 L95.54009669569393 123.22830735880274 L137.6990771841024 111.22964911739862 L93.04009669569393 121.06324384934163"/>
		<path opacity="0.75" fill="pink" d="M93.04009669569393 121.06324384934163 L93.04009669569393 125.39337086826384 L137.6990771841024 111.22964911739862 L93.04009669569393 121.06324384934163"/>
		<path opacity="0.75" fill="pink" d="M95.54009669569393 123.22830735880274 L95.54009669569393 127.55843437772492 L137.6990771841024 111.22964911739862 L95.54009669569393 123.22830735880274"/>
		<path opacity="0.75" fill="pink" d="M93.04009669569393 125.39337086826384 L95.54009669569393 127.55843437772492 L137.6990771841024 111.22964911739862 L93.04009669569393 125.39337086826384"/>

		<text style="fill:black;font-family:calibri;font-size:6" x="108.75975685849676" y="111.64644648337013" >[5,5]</text>
<!-- Arrow -->
		<path opacity="0.5" stroke="black" d="M257.4359353944899 150.96598839415685 L267.7372055837118 109.88715006927038"/>
		<circle opacity="0.5" cx="267.7372055837118" cy="109.88715006927038" r="1" fill="black" />
		<path opacity="0.75" fill="darkturquoise" d="M93.04009669569393 121.06324384934163 L95.54009669569393 123.22830735880274 L95.54009669569393 127.55843437772492 L93.04009669569393 125.39337086826384 L93.04009669569393 121.06324384934163"/>
		<path opacity="0.75" fill="darkturquoise" d="M37.61447085348988 137.06324384934163 L40.11447085348988 139.22830735880274 L40.11447085348988 143.55843437772492 L37.61447085348988 141.39337086826384 L37.61447085348988 137.06324384934163"/>
		<path opacity="0.75" fill="darkturquoise" d="M93.04009669569393 121.06324384934163 L37.61447085348988 137.06324384934163 L37.61447085348988 141.39337086826384 L93.04009669569393 125.39337086826384 L93.04009669569393 121.06324384934163"/>
		<path opacity="0.75" fill="darkturquoise" d="M95.54009669569393 123.22830735880274 L40.11447085348988 139.22830735880274 L40.11447085348988 143.55843437772492 L95.54009669569393 127.55843437772492 L95.54009669569393 123.22830735880274"/>
		<path opacity="0.75" fill="darkturquoise" d="M93.04009669569393 121.06324384934163 L95.54009669569393 123.22830735880274 L40.11447085348988 139.22830735880274 L37.61447085348988 137.06324384934163 L93.04009669569393 121.06324384934163"/>
		<path opacity="0.75" fill="darkturquoise" d="M93.04009669569393 125.39337086826384 L95.54009669569393 127.55843437772492 L40.11447085348988 143.55843437772492 L37.61447085348988 141.39337086826384 L93.04009669569393 125.39337086826384"/>
		<path opacity="0.5" fill="orange" d="M88.70903936306382 111.91600689897064 L96.70903936306382 118.84421012924616 L96.70903936306382 132.70061658979716 L88.70903936306382 125.77241335952166 L88.70903936306382 111.91600689897064"/>
		<path opacity="0.5" fill="orange" d="M33.28341352085977 127.91600689897064 L41.28341352085977 134.84421012924616 L41.28341352085977 148.70061658979716 L33.28341352085977 141.77241335952166 L33.28341352085977 127.91600689897064"/>
		<path opacity="0.5" fill="orange" d="M88.70903936306382 111.91600689897064 L33.28341352085977 127.91600689897064 L33.28341352085977 141.77241335952166 L88.70903936306382 125.77241335952166 L88.70903936306382 111.91600689897064"/>
		<path opacity="0.5" fill="orange" d="M96.70903936306382 118.84421012924616 L41.28341352085977 134.84421012924616 L41.28341352085977 148.70061658979716 L96.70903936306382 132.70061658979716 L96.70903936306382 118.84421012924616"/>
		<path opacity="0.5" fill="orange" d="M88.70903936306382 111.91600689897064 L96.70903936306382 118.84421012924616 L41.28341352085977 134.84421012924616 L33.28341352085977 127.91600689897064 L88.70903936306382 111.91600689897064"/>
		<path opacity="0.5" fill="orange" d="M88.70903936306382 125.77241335952166 L96.70903936306382 132.70061658979716 L41.28341352085977 148.70061658979716 L33.28341352085977 141.77241335952166 L88.70903936306382 125.77241335952166"/>
		<text style="fill:black;font-family:calibri;font-size:6" x="33.28341352085977" y="134.84421012924616" >16</text>
		<text style="fill:black;font-family:calibri;font-size:6" x="37.28341352085977" y="145.23651497465943" >16</text>
		<text style="fill:black;font-family:calibri;font-size:6" x="60.996226441961795" y="119.91600689897064" >64</text>

		<path opacity="0.75" fill="pink" d="M-8.114569812275874 150.61110781600118 L-5.6145698122758745 152.7761713254623 L37.76615543418461 135.89563972241967 L-8.114569812275874 150.61110781600118"/>
		<path opacity="0.75" fill="pink" d="M-8.114569812275874 150.61110781600118 L-8.114569812275874 154.94123483492336 L37.76615543418461 135.89563972241967 L-8.114569812275874 150.61110781600118"/>
		<path opacity="0.75" fill="pink" d="M-5.6145698122758745 152.7761713254623 L-5.6145698122758745 157.10629834438447 L37.76615543418461 135.89563972241967 L-5.6145698122758745 152.7761713254623"/>
		<path opacity="0.75" fill="pink" d="M-8.114569812275874 154.94123483492336 L-5.6145698122758745 157.10629834438447 L37.76615543418461 135.89563972241967 L-8.114569812275874 154.94123483492336"/>

		<text style="fill:black;font-family:calibri;font-size:6" x="8.012338603210955" y="138.75337376921044" >[5,5]</text>
		<path opacity="0.75" fill="darkturquoise" d="M-8.114569812275874 150.61110781600118 L-5.6145698122758745 152.7761713254623 L-5.6145698122758745 157.10629834438447 L-8.114569812275874 154.94123483492336 L-8.114569812275874 150.61110781600118"/>
		<path opacity="0.75" fill="darkturquoise" d="M-35.827382733377874 158.61110781600118 L-33.327382733377874 160.7761713254623 L-33.327382733377874 165.10629834438447 L-35.827382733377874 162.94123483492336 L-35.827382733377874 158.61110781600118"/>
		<path opacity="0.75" fill="darkturquoise" d="M-8.114569812275874 150.61110781600118 L-35.827382733377874 158.61110781600118 L-35.827382733377874 162.94123483492336 L-8.114569812275874 154.94123483492336 L-8.114569812275874 150.61110781600118"/>
		<path opacity="0.75" fill="darkturquoise" d="M-5.6145698122758745 152.7761713254623 L-33.327382733377874 160.7761713254623 L-33.327382733377874 165.10629834438447 L-5.6145698122758745 157.10629834438447 L-5.6145698122758745 152.7761713254623"/>
		<path opacity="0.75" fill="darkturquoise" d="M-8.114569812275874 150.61110781600118 L-5.6145698122758745 152.7761713254623 L-33.327382733377874 160.7761713254623 L-35.827382733377874 158.61110781600118 L-8.114569812275874 150.61110781600118"/>
		<path opacity="0.75" fill="darkturquoise" d="M-8.114569812275874 154.94123483492336 L-5.6145698122758745 157.10629834438447 L-33.327382733377874 165.10629834438447 L-35.827382733377874 162.94123483492336 L-8.114569812275874 154.94123483492336"/>
		<path opacity="0.5" fill="orange" d="M-14.017856668362185 130.02370205355737 L1.9821433316378148 143.8801085141084 L1.9821433316378148 171.59292143521043 L-14.017856668362185 157.73651497465943 L-14.017856668362185 130.02370205355737"/>
		<path opacity="0.5" fill="orange" d="M-41.730669589464185 138.02370205355737 L-25.730669589464185 151.8801085141084 L-25.730669589464185 179.59292143521043 L-41.730669589464185 165.73651497465943 L-41.730669589464185 138.02370205355737"/>
		<path opacity="0.5" fill="orange" d="M-14.017856668362185 130.02370205355737 L-41.730669589464185 138.02370205355737 L-41.730669589464185 165.73651497465943 L-14.017856668362185 157.73651497465943 L-14.017856668362185 130.02370205355737"/>
		<path opacity="0.5" fill="orange" d="M1.9821433316378148 143.8801085141084 L-25.730669589464185 151.8801085141084 L-25.730669589464185 179.59292143521043 L1.9821433316378148 171.59292143521043 L1.9821433316378148 143.8801085141084"/>
		<path opacity="0.5" fill="orange" d="M-14.017856668362185 130.02370205355737 L1.9821433316378148 143.8801085141084 L-25.730669589464185 151.8801085141084 L-41.730669589464185 138.02370205355737 L-14.017856668362185 130.02370205355737"/>
		<path opacity="0.5" fill="orange" d="M-14.017856668362185 157.73651497465943 L1.9821433316378148 171.59292143521043 L-25.730669589464185 179.59292143521043 L-41.730669589464185 165.73651497465943 L-14.017856668362185 157.73651497465943"/>
		<text style="fill:black;font-family:calibri;font-size:6" x="-41.730669589464185" y="151.8801085141084" >32</text>
		<text style="fill:black;font-family:calibri;font-size:6" x="-33.730669589464185" y="172.66471820493493" >32</text>
		<text style="fill:black;font-family:calibri;font-size:6" x="-27.874263128913185" y="134.02370205355737" >32</text>

		<path opacity="0.5" fill="orange" d="M255.43593539448986 145.76983597145022 L259.4359353944899 149.23393758658796 L259.4359353944899 156.16214081686348 L255.43593539448986 152.69803920172572 L255.43593539448986 145.76983597145022"/>
		<path opacity="0.5" fill="orange" d="M200.01030955228578 161.76983597145022 L204.01030955228578 165.23393758658796 L204.01030955228578 172.16214081686348 L200.01030955228578 168.69803920172572 L200.01030955228578 161.76983597145022"/>
		<path opacity="0.5" fill="orange" d="M255.43593539448986 145.76983597145022 L200.01030955228578 161.76983597145022 L200.01030955228578 168.69803920172572 L255.43593539448986 152.69803920172572 L255.43593539448986 145.76983597145022"/>
		<path opacity="0.5" fill="orange" d="M259.4359353944899 149.23393758658796 L204.01030955228578 165.23393758658796 L204.01030955228578 172.16214081686348 L259.4359353944899 156.16214081686348 L259.4359353944899 149.23393758658796"/>
		<path opacity="0.5" fill="orange" d="M255.43593539448986 145.76983597145022 L259.4359353944899 149.23393758658796 L204.01030955228578 165.23393758658796 L200.01030955228578 161.76983597145022 L255.43593539448986 145.76983597145022"/>
		<path opacity="0.5" fill="orange" d="M255.43593539448986 152.69803920172572 L259.4359353944899 156.16214081686348 L204.01030955228578 172.16214081686348 L200.01030955228578 168.69803920172572 L255.43593539448986 152.69803920172572"/>
		<text style="fill:black;font-family:calibri;font-size:6" x="200.01030955228578" y="165.23393758658796" >8</text>
		<text style="fill:black;font-family:calibri;font-size:6" x="202.01030955228578" y="170.4300900092946" >8</text>
		<text style="fill:black;font-family:calibri;font-size:6" x="227.72312247338783" y="153.76983597145022" >64</text>

		<path opacity="0.75" fill="pink" d="M-84.1169652296615 152.1267472143587 L-79.1169652296615 156.45687423328087 L-35.264797502258205 166.17146567789246 L-84.1169652296615 152.1267472143587"/>
		<path opacity="0.75" fill="pink" d="M-84.1169652296615 152.1267472143587 L-84.1169652296615 160.78700125220308 L-35.264797502258205 166.17146567789246 L-84.1169652296615 152.1267472143587"/>
		<path opacity="0.75" fill="pink" d="M-79.1169652296615 156.45687423328087 L-79.1169652296615 165.11712827112527 L-35.264797502258205 166.17146567789246 L-79.1169652296615 156.45687423328087"/>
		<path opacity="0.75" fill="pink" d="M-84.1169652296615 160.78700125220308 L-79.1169652296615 165.11712827112527 L-35.264797502258205 166.17146567789246 L-84.1169652296615 160.78700125220308"/>

		<text style="fill:black;font-family:calibri;font-size:6" x="-66.16624265386041" y="154.6491064461256" >[10,10]</text>
		<path opacity="0.75" fill="darkturquoise" d="M-84.1169652296615 152.1267472143587 L-79.1169652296615 156.45687423328087 L-79.1169652296615 165.11712827112527 L-84.1169652296615 160.78700125220308 L-84.1169652296615 152.1267472143587"/>
		<path opacity="0.75" fill="darkturquoise" d="M-101.4374733053503 157.1267472143587 L-96.4374733053503 161.45687423328087 L-96.4374733053503 170.11712827112527 L-101.4374733053503 165.78700125220308 L-101.4374733053503 157.1267472143587"/>
		<path opacity="0.75" fill="darkturquoise" d="M-84.1169652296615 152.1267472143587 L-101.4374733053503 157.1267472143587 L-101.4374733053503 165.78700125220308 L-84.1169652296615 160.78700125220308 L-84.1169652296615 152.1267472143587"/>
		<path opacity="0.75" fill="darkturquoise" d="M-79.1169652296615 156.45687423328087 L-96.4374733053503 161.45687423328087 L-96.4374733053503 170.11712827112527 L-79.1169652296615 165.11712827112527 L-79.1169652296615 156.45687423328087"/>
		<path opacity="0.75" fill="darkturquoise" d="M-84.1169652296615 152.1267472143587 L-79.1169652296615 156.45687423328087 L-96.4374733053503 161.45687423328087 L-101.4374733053503 157.1267472143587 L-84.1169652296615 152.1267472143587"/>
		<path opacity="0.75" fill="darkturquoise" d="M-84.1169652296615 160.78700125220308 L-79.1169652296615 165.11712827112527 L-96.4374733053503 170.11712827112527 L-101.4374733053503 165.78700125220308 L-84.1169652296615 160.78700125220308"/>
		<path opacity="0.5" fill="lavender" d="M-85.03193977868614 150.52370205355737 L-69.03193977868614 164.3801085141084 L-69.03193977868614 192.09292143521043 L-85.03193977868614 178.23651497465943 L-85.03193977868614 150.52370205355737"/>
		<path opacity="0.5" fill="lavender" d="M-102.35244785437493 155.52370205355737 L-86.35244785437493 169.3801085141084 L-86.35244785437493 197.09292143521043 L-102.35244785437493 183.23651497465943 L-102.35244785437493 155.52370205355737"/>
		<path opacity="0.5" fill="lavender" d="M-85.03193977868614 150.52370205355737 L-102.35244785437493 155.52370205355737 L-102.35244785437493 183.23651497465943 L-85.03193977868614 178.23651497465943 L-85.03193977868614 150.52370205355737"/>
		<path opacity="0.5" fill="lavender" d="M-69.03193977868614 164.3801085141084 L-86.35244785437493 169.3801085141084 L-86.35244785437493 197.09292143521043 L-69.03193977868614 192.09292143521043 L-69.03193977868614 164.3801085141084"/>
		<path opacity="0.5" fill="lavender" d="M-85.03193977868614 150.52370205355737 L-69.03193977868614 164.3801085141084 L-86.35244785437493 169.3801085141084 L-102.35244785437493 155.52370205355737 L-85.03193977868614 150.52370205355737"/>
		<path opacity="0.5" fill="lavender" d="M-85.03193977868614 178.23651497465943 L-69.03193977868614 192.09292143521043 L-86.35244785437493 197.09292143521043 L-102.35244785437493 183.23651497465943 L-85.03193977868614 178.23651497465943"/>
		<text style="fill:black;font-family:calibri;font-size:6" x="-102.35244785437493" y="169.3801085141084" >32</text>
		<text style="fill:black;font-family:calibri;font-size:6" x="-94.35244785437493" y="190.16471820493493" >32</text>
		<text style="fill:black;font-family:calibri;font-size:6" x="-93.69219381653053" y="153.02370205355737" >20</text>

		<path opacity="0.75" fill="pink" d="M158.99181045869787 178.82014358610328 L161.49181045869787 180.9852070955644 L200.30252608226624 167.9014635920932 L158.99181045869787 178.82014358610328"/>
		<path opacity="0.75" fill="pink" d="M158.99181045869787 178.82014358610328 L158.99181045869787 183.1502706050255 L200.30252608226624 167.9014635920932 L158.99181045869787 178.82014358610328"/>
		<path opacity="0.75" fill="pink" d="M161.49181045869787 180.9852070955644 L161.49181045869787 185.31533411448657 L200.30252608226624 167.9014635920932 L161.49181045869787 180.9852070955644"/>
		<path opacity="0.75" fill="pink" d="M158.99181045869787 183.1502706050255 L161.49181045869787 185.31533411448657 L200.30252608226624 167.9014635920932 L158.99181045869787 183.1502706050255"/>

		<text style="fill:black;font-family:calibri;font-size:6" x="173.59538233322064" y="168.86080358909823" >[5,5]</text>
		<path opacity="0.75" fill="darkturquoise" d="M158.99181045869787 178.82014358610328 L161.49181045869787 180.9852070955644 L161.49181045869787 185.31533411448657 L158.99181045869787 183.1502706050255 L158.99181045869787 178.82014358610328"/>
		<path opacity="0.75" fill="darkturquoise" d="M103.56618461649381 194.82014358610328 L106.06618461649381 196.9852070955644 L106.06618461649381 201.31533411448657 L103.56618461649381 199.1502706050255 L103.56618461649381 194.82014358610328"/>
		<path opacity="0.75" fill="darkturquoise" d="M158.99181045869787 178.82014358610328 L103.56618461649381 194.82014358610328 L103.56618461649381 199.1502706050255 L158.99181045869787 183.1502706050255 L158.99181045869787 178.82014358610328"/>
		<path opacity="0.75" fill="darkturquoise" d="M161.49181045869787 180.9852070955644 L106.06618461649381 196.9852070955644 L106.06618461649381 201.31533411448657 L161.49181045869787 185.31533411448657 L161.49181045869787 180.9852070955644"/>
		<path opacity="0.75" fill="darkturquoise" d="M158.99181045869787 178.82014358610328 L161.49181045869787 180.9852070955644 L106.06618461649381 196.9852070955644 L103.56618461649381 194.82014358610328 L158.99181045869787 178.82014358610328"/>
		<path opacity="0.75" fill="darkturquoise" d="M158.99181045869787 183.1502706050255 L161.49181045869787 185.31533411448657 L106.06618461649381 201.31533411448657 L103.56618461649381 199.1502706050255 L158.99181045869787 183.1502706050255"/>
		<path opacity="0.5" fill="orange" d="M154.70903936306385 169.0736835487436 L162.70903936306385 176.0018867790191 L162.70903936306385 189.85829323957012 L154.70903936306385 182.9300900092946 L154.70903936306385 169.0736835487436"/>
		<path opacity="0.5" fill="orange" d="M99.2834135208598 185.0736835487436 L107.2834135208598 192.0018867790191 L107.2834135208598 205.85829323957012 L99.2834135208598 198.9300900092946 L99.2834135208598 185.0736835487436"/>
		<path opacity="0.5" fill="orange" d="M154.70903936306385 169.0736835487436 L99.2834135208598 185.0736835487436 L99.2834135208598 198.9300900092946 L154.70903936306385 182.9300900092946 L154.70903936306385 169.0736835487436"/>
		<path opacity="0.5" fill="orange" d="M162.70903936306385 176.0018867790191 L107.2834135208598 192.0018867790191 L107.2834135208598 205.85829323957012 L162.70903936306385 189.85829323957012 L162.70903936306385 176.0018867790191"/>
		<path opacity="0.5" fill="orange" d="M154.70903936306385 169.0736835487436 L162.70903936306385 176.0018867790191 L107.2834135208598 192.0018867790191 L99.2834135208598 185.0736835487436 L154.70903936306385 169.0736835487436"/>
		<path opacity="0.5" fill="orange" d="M154.70903936306385 182.9300900092946 L162.70903936306385 189.85829323957012 L107.2834135208598 205.85829323957012 L99.2834135208598 198.9300900092946 L154.70903936306385 182.9300900092946"/>
		<text style="fill:black;font-family:calibri;font-size:6" x="99.2834135208598" y="192.0018867790191" >16</text>
		<text style="fill:black;font-family:calibri;font-size:6" x="103.2834135208598" y="202.39419162443235" >16</text>
		<text style="fill:black;font-family:calibri;font-size:6" x="126.99622644196182" y="177.0736835487436" >64</text>

		<path opacity="0.75" fill="pink" d="M60.35680848927885 206.67826788624183 L62.85680848927885 208.84333139570293 L103.48730823568681 198.71982362445627 L60.35680848927885 206.67826788624183"/>
		<path opacity="0.75" fill="pink" d="M60.35680848927885 206.67826788624183 L60.35680848927885 211.00839490516404 L103.48730823568681 198.71982362445627 L60.35680848927885 206.67826788624183"/>
		<path opacity="0.75" fill="pink" d="M62.85680848927885 208.84333139570293 L62.85680848927885 213.17345841462512 L103.48730823568681 198.71982362445627 L62.85680848927885 208.84333139570293"/>
		<path opacity="0.75" fill="pink" d="M60.35680848927885 211.00839490516404 L62.85680848927885 213.17345841462512 L103.48730823568681 198.71982362445627 L60.35680848927885 211.00839490516404"/>

		<text style="fill:black;font-family:calibri;font-size:6" x="75.56697507141483" y="198.19904575534906" >[5,5]</text>
		<path opacity="0.75" fill="darkturquoise" d="M60.35680848927885 206.67826788624183 L62.85680848927885 208.84333139570293 L62.85680848927885 213.17345841462512 L60.35680848927885 211.00839490516404 L60.35680848927885 206.67826788624183"/>
		<path opacity="0.75" fill="darkturquoise" d="M32.64399556817685 214.67826788624183 L35.14399556817685 216.84333139570293 L35.14399556817685 221.17345841462512 L32.64399556817685 219.00839490516404 L32.64399556817685 214.67826788624183"/>
		<path opacity="0.75" fill="darkturquoise" d="M60.35680848927885 206.67826788624183 L32.64399556817685 214.67826788624183 L32.64399556817685 219.00839490516404 L60.35680848927885 211.00839490516404 L60.35680848927885 206.67826788624183"/>
		<path opacity="0.75" fill="darkturquoise" d="M62.85680848927885 208.84333139570293 L35.14399556817685 216.84333139570293 L35.14399556817685 221.17345841462512 L62.85680848927885 213.17345841462512 L62.85680848927885 208.84333139570293"/>
		<path opacity="0.75" fill="darkturquoise" d="M60.35680848927885 206.67826788624183 L62.85680848927885 208.84333139570293 L35.14399556817685 216.84333139570293 L32.64399556817685 214.67826788624183 L60.35680848927885 206.67826788624183"/>
		<path opacity="0.75" fill="darkturquoise" d="M60.35680848927885 211.00839490516404 L62.85680848927885 213.17345841462512 L35.14399556817685 221.17345841462512 L32.64399556817685 219.00839490516404 L60.35680848927885 211.00839490516404"/>
		<path opacity="0.5" fill="orange" d="M51.98214333163784 187.18137870333032 L67.98214333163784 201.03778516388132 L67.98214333163784 228.75059808498338 L51.98214333163784 214.89419162443238 L51.98214333163784 187.18137870333032"/>
		<path opacity="0.5" fill="orange" d="M24.269330410535844 195.18137870333032 L40.269330410535844 209.03778516388132 L40.269330410535844 236.75059808498338 L24.269330410535844 222.89419162443238 L24.269330410535844 195.18137870333032"/>
		<path opacity="0.5" fill="orange" d="M51.98214333163784 187.18137870333032 L24.269330410535844 195.18137870333032 L24.269330410535844 222.89419162443238 L51.98214333163784 214.89419162443238 L51.98214333163784 187.18137870333032"/>
		<path opacity="0.5" fill="orange" d="M67.98214333163784 201.03778516388132 L40.269330410535844 209.03778516388132 L40.269330410535844 236.75059808498338 L67.98214333163784 228.75059808498338 L67.98214333163784 201.03778516388132"/>
		<path opacity="0.5" fill="orange" d="M51.98214333163784 187.18137870333032 L67.98214333163784 201.03778516388132 L40.269330410535844 209.03778516388132 L24.269330410535844 195.18137870333032 L51.98214333163784 187.18137870333032"/>
		<path opacity="0.5" fill="orange" d="M51.98214333163784 214.89419162443238 L67.98214333163784 228.75059808498338 L40.269330410535844 236.75059808498338 L24.269330410535844 222.89419162443238 L51.98214333163784 214.89419162443238"/>
		<text style="fill:black;font-family:calibri;font-size:6" x="24.269330410535844" y="209.03778516388135" >32</text>
		<text style="fill:black;font-family:calibri;font-size:6" x="32.269330410535844" y="229.82239485470788" >32</text>
		<text style="fill:black;font-family:calibri;font-size:6" x="38.12573687108684" y="191.18137870333032" >32</text>

		<path opacity="0.75" fill="pink" d="M-15.121864082451452 215.9276482993816 L-10.121864082451452 220.2577753183038 L25.91634014566918 213.03137929884 L-15.121864082451452 215.9276482993816"/>
		<path opacity="0.75" fill="pink" d="M-15.121864082451452 215.9276482993816 L-15.121864082451452 224.58790233722598 L25.91634014566918 213.03137929884 L-15.121864082451452 215.9276482993816"/>
		<path opacity="0.75" fill="pink" d="M-10.121864082451452 220.2577753183038 L-10.121864082451452 228.9180293561482 L25.91634014566918 213.03137929884 L-10.121864082451452 220.2577753183038"/>
		<path opacity="0.75" fill="pink" d="M-15.121864082451452 224.58790233722598 L-10.121864082451452 228.9180293561482 L25.91634014566918 213.03137929884 L-15.121864082451452 224.58790233722598"/>

		<text style="fill:black;font-family:calibri;font-size:6" x="0.22420399358875898" y="209.9795137991108" >[10,10]</text>
		<path opacity="0.75" fill="darkturquoise" d="M-15.121864082451452 215.9276482993816 L-10.121864082451452 220.2577753183038 L-10.121864082451452 228.9180293561482 L-15.121864082451452 224.58790233722598 L-15.121864082451452 215.9276482993816"/>
		<path opacity="0.75" fill="darkturquoise" d="M-32.44237215814019 220.9276482993816 L-27.442372158140188 225.2577753183038 L-27.442372158140188 233.91802935614817 L-32.44237215814019 229.58790233722598 L-32.44237215814019 220.9276482993816"/>
		<path opacity="0.75" fill="darkturquoise" d="M-15.121864082451452 215.9276482993816 L-32.44237215814019 220.9276482993816 L-32.44237215814019 229.58790233722598 L-15.121864082451452 224.58790233722598 L-15.121864082451452 215.9276482993816"/>
		<path opacity="0.75" fill="darkturquoise" d="M-10.121864082451452 220.2577753183038 L-27.442372158140188 225.2577753183038 L-27.442372158140188 233.91802935614817 L-10.121864082451452 228.9180293561482 L-10.121864082451452 220.2577753183038"/>
		<path opacity="0.75" fill="darkturquoise" d="M-15.121864082451452 215.9276482993816 L-10.121864082451452 220.2577753183038 L-27.442372158140188 225.2577753183038 L-32.44237215814019 220.9276482993816 L-15.121864082451452 215.9276482993816"/>
		<path opacity="0.75" fill="darkturquoise" d="M-15.121864082451452 224.58790233722598 L-10.121864082451452 228.9180293561482 L-27.442372158140188 233.91802935614817 L-32.44237215814019 229.58790233722598 L-15.121864082451452 224.58790233722598"/>
		<path opacity="0.5" fill="lavender" d="M-19.031939778686137 207.68137870333032 L-3.0319397786861373 221.53778516388132 L-3.0319397786861373 249.25059808498338 L-19.031939778686137 235.39419162443238 L-19.031939778686137 207.68137870333032"/>
		<path opacity="0.5" fill="lavender" d="M-36.35244785437487 212.68137870333032 L-20.352447854374873 226.53778516388132 L-20.352447854374873 254.25059808498338 L-36.35244785437487 240.39419162443238 L-36.35244785437487 212.68137870333032"/>
		<path opacity="0.5" fill="lavender" d="M-19.031939778686137 207.68137870333032 L-36.35244785437487 212.68137870333032 L-36.35244785437487 240.39419162443238 L-19.031939778686137 235.39419162443238 L-19.031939778686137 207.68137870333032"/>
		<path opacity="0.5" fill="lavender" d="M-3.0319397786861373 221.53778516388132 L-20.352447854374873 226.53778516388132 L-20.352447854374873 254.25059808498338 L-3.0319397786861373 249.25059808498338 L-3.0319397786861373 221.53778516388132"/>
		<path opacity="0.5" fill="lavender" d="M-19.031939778686137 207.68137870333032 L-3.0319397786861373 221.53778516388132 L-20.352447854374873 226.53778516388132 L-36.35244785437487 212.68137870333032 L-19.031939778686137 207.68137870333032"/>
		<path opacity="0.5" fill="lavender" d="M-19.031939778686137 235.39419162443238 L-3.0319397786861373 249.25059808498338 L-20.352447854374873 254.25059808498338 L-36.35244785437487 240.39419162443238 L-19.031939778686137 235.39419162443238"/>
		<text style="fill:black;font-family:calibri;font-size:6" x="-36.35244785437487" y="226.53778516388135" >32</text>
		<text style="fill:black;font-family:calibri;font-size:6" x="-28.352447854374873" y="247.32239485470788" >32</text>
		<text style="fill:black;font-family:calibri;font-size:6" x="-27.692193816530505" y="210.18137870333032" >20</text>

	 </g>
</svg>