<svg width="1000.0px" height="1000.0px" viewBox="-500.0 -500.0 1000.0 1000.0" xmlns="http://www.w3.org/2000/svg">
	<g stroke="black" stroke-width="0.3">
		<path opacity="0.75" fill="darkturquoise" d="M471.628750427021 -115.96717085389238 L476.628750427021 -115.21237998084065 L476.628750427021 84.02655963750847 L471.628750427021 83.27176876445674 L471.628750427021 -115.96717085389238"/>
		<path opacity="0.75" fill="darkturquoise" d="M462.9684963891766 -115.5313921401541 L467.9684963891766 -114.77660126710236 L467.9684963891766 84.46233835124676 L462.9684963891766 83.70754747819502 L462.9684963891766 -115.5313921401541"/>
		<path opacity="0.75" fill="darkturquoise" d="M471.628750427021 -115.96717085389238 L462.9684963891766 -115.5313921401541 L462.9684963891766 83.70754747819502 L471.628750427021 83.27176876445674 L471.628750427021 -115.96717085389238"/>
		<path opacity="0.75" fill="darkturquoise" d="M476.628750427021 -115.21237998084065 L467.9684963891766 -114.77660126710236 L467.9684963891766 84.46233835124676 L476.628750427021 84.02655963750847 L476.628750427021 -115.21237998084065"/>
		<path opacity="0.75" fill="darkturquoise" d="M471.628750427021 -115.96717085389238 L476.628750427021 -115.21237998084065 L467.9684963891766 -114.77660126710236 L462.9684963891766 -115.5313921401541 L471.628750427021 -115.96717085389238"/>
		<path opacity="0.75" fill="darkturquoise" d="M471.628750427021 83.27176876445674 L476.628750427021 84.02655963750847 L467.9684963891766 84.46233835124676 L462.9684963891766 83.70754747819502 L471.628750427021 83.27176876445674"/>
		<text x="462.9684963891766" y="-15.911922330979536" font-family="calibri" font-size="4">200</text>
		<text x="465.4684963891766" y="84.0849429147209" font-family="calibri" font-size="4">10</text>
		<text x="467.2986234080988" y="-115.74928149702325" font-family="calibri" font-size="4">10</text>

<!-- Arrow -->
		<path opacity="0.5" stroke="black" d="M422.16722619995465 -13.355633325762213 L465.4684963891766 -15.53452689445367"/>
		<circle opacity="0.5" cx="465.4684963891766" cy="-15.53452689445367" r="1" fill="black" />
		<path opacity="0.75" fill="darkturquoise" d="M419.66722619995465 -113.35249857146263 L424.66722619995465 -112.59770769841091 L424.66722619995465 86.6412319199382 L419.66722619995465 85.88644104688649 L419.66722619995465 -113.35249857146263"/>
		<path opacity="0.75" fill="darkturquoise" d="M411.0069721621103 -112.91671985772435 L416.0069721621103 -112.16192898467261 L416.0069721621103 87.07701063367651 L411.0069721621103 86.32221976062478 L411.0069721621103 -112.91671985772435"/>
		<path opacity="0.75" fill="darkturquoise" d="M419.66722619995465 -113.35249857146263 L411.0069721621103 -112.91671985772435 L411.0069721621103 86.32221976062478 L419.66722619995465 85.88644104688649 L419.66722619995465 -113.35249857146263"/>
		<path opacity="0.75" fill="darkturquoise" d="M424.66722619995465 -112.59770769841091 L416.0069721621103 -112.16192898467261 L416.0069721621103 87.07701063367651 L424.66722619995465 86.6412319199382 L424.66722619995465 -112.59770769841091"/>
		<path opacity="0.75" fill="darkturquoise" d="M419.66722619995465 -113.35249857146263 L424.66722619995465 -112.59770769841091 L416.0069721621103 -112.16192898467261 L411.0069721621103 -112.91671985772435 L419.66722619995465 -113.35249857146263"/>
		<path opacity="0.75" fill="darkturquoise" d="M419.66722619995465 85.88644104688649 L424.66722619995465 86.6412319199382 L416.0069721621103 87.07701063367651 L411.0069721621103 86.32221976062478 L419.66722619995465 85.88644104688649"/>
		<text x="411.0069721621103" y="-13.297250048549785" font-family="calibri" font-size="4">200</text>
		<text x="413.5069721621103" y="86.69961519715065" font-family="calibri" font-size="4">10</text>
		<text x="415.3370991810325" y="-113.1346092145935" font-family="calibri" font-size="4">10</text>

		<path opacity="0.5" fill="orange" d="M297.1720588025886 -17.90674844654207 L301.1720588025886 -17.302915748100688 L301.1720588025886 -9.333358163366722 L297.1720588025886 -9.937190861808109 L297.1720588025886 -17.90674844654207"/>
		<path opacity="0.5" fill="orange" d="M241.74643296038454 -15.11776467861701 L245.74643296038454 -14.513931980175624 L245.74643296038454 -6.544374395441659 L241.74643296038454 -7.148207093883046 L241.74643296038454 -15.11776467861701"/>
		<path opacity="0.5" fill="orange" d="M297.1720588025886 -17.90674844654207 L241.74643296038454 -15.11776467861701 L241.74643296038454 -7.148207093883046 L297.1720588025886 -9.937190861808109 L297.1720588025886 -17.90674844654207"/>
		<path opacity="0.5" fill="orange" d="M301.1720588025886 -17.302915748100688 L245.74643296038454 -14.513931980175624 L245.74643296038454 -6.544374395441659 L301.1720588025886 -9.333358163366722 L301.1720588025886 -17.302915748100688"/>
		<path opacity="0.5" fill="orange" d="M297.1720588025886 -17.90674844654207 L301.1720588025886 -17.302915748100688 L245.74643296038454 -14.513931980175624 L241.74643296038454 -15.11776467861701 L297.1720588025886 -17.90674844654207"/>
		<path opacity="0.5" fill="orange" d="M297.1720588025886 -9.937190861808109 L301.1720588025886 -9.333358163366722 L245.74643296038454 -6.544374395441659 L241.74643296038454 -7.148207093883046 L297.1720588025886 -9.937190861808109"/>
		<text x="241.74643296038454" y="-11.13298588625003" font-family="calibri" font-size="4">8</text>
		<text x="243.74643296038454" y="-6.846290744662353" font-family="calibri" font-size="4">8</text>
		<text x="269.4592458814866" y="-16.51225656257954" font-family="calibri" font-size="4">64</text>

<!-- Arrow -->
		<path opacity="0.5" stroke="black" d="M299.1720588025886 -13.620053304954396 L361.54544793504397 -10.305182329594185"/>
		<circle opacity="0.5" cx="361.54544793504397" cy="-10.305182329594185" r="1" fill="black" />
<!-- Arrow -->
		<path opacity="0.5" stroke="black" d="M370.20570197288833 -10.740961043332462 L413.5069721621103 -12.919854612023919"/>
		<circle opacity="0.5" cx="413.5069721621103" cy="-12.919854612023919" r="1" fill="black" />
		<path opacity="0.75" fill="darkturquoise" d="M367.70570197288833 -110.7378262890329 L372.70570197288833 -109.98303541598116 L372.70570197288833 89.25590420236796 L367.70570197288833 88.50111332931623 L367.70570197288833 -110.7378262890329"/>
		<path opacity="0.75" fill="darkturquoise" d="M359.04544793504397 -110.30204757529461 L364.04544793504397 -109.54725670224288 L364.04544793504397 89.69168291610625 L359.04544793504397 88.93689204305451 L359.04544793504397 -110.30204757529461"/>
		<path opacity="0.75" fill="darkturquoise" d="M367.70570197288833 -110.7378262890329 L359.04544793504397 -110.30204757529461 L359.04544793504397 88.93689204305451 L367.70570197288833 88.50111332931623 L367.70570197288833 -110.7378262890329"/>
		<path opacity="0.75" fill="darkturquoise" d="M372.70570197288833 -109.98303541598116 L364.04544793504397 -109.54725670224288 L364.04544793504397 89.69168291610625 L372.70570197288833 89.25590420236796 L372.70570197288833 -109.98303541598116"/>
		<path opacity="0.75" fill="darkturquoise" d="M367.70570197288833 -110.7378262890329 L372.70570197288833 -109.98303541598116 L364.04544793504397 -109.54725670224288 L359.04544793504397 -110.30204757529461 L367.70570197288833 -110.7378262890329"/>
		<path opacity="0.75" fill="darkturquoise" d="M367.70570197288833 88.50111332931623 L372.70570197288833 89.25590420236796 L364.04544793504397 89.69168291610625 L359.04544793504397 88.93689204305451 L367.70570197288833 88.50111332931623"/>
		<text x="359.04544793504397" y="-10.682577766120048" font-family="calibri" font-size="4">200</text>
		<text x="361.54544793504397" y="89.31428747958037" font-family="calibri" font-size="4">10</text>
		<text x="363.3755749539662" y="-110.51993693216374" font-family="calibri" font-size="4">10</text>

		<path opacity="0.75" fill="pink" d="M199.58840993674778 -11.590995718092548 L202.08840993674778 -11.213600281566682 L243.04908395727256 -7.496869784574859 L199.58840993674778 -11.590995718092548"/>
		<path opacity="0.75" fill="pink" d="M199.58840993674778 -11.590995718092548 L199.58840993674778 -6.610022227633821 L243.04908395727256 -7.496869784574859 L199.58840993674778 -11.590995718092548"/>
		<path opacity="0.75" fill="pink" d="M202.08840993674778 -11.213600281566682 L202.08840993674778 -6.232626791107954 L243.04908395727256 -7.496869784574859 L202.08840993674778 -11.213600281566682"/>
		<path opacity="0.75" fill="pink" d="M199.58840993674778 -6.610022227633821 L202.08840993674778 -6.232626791107954 L243.04908395727256 -7.496869784574859 L199.58840993674778 -6.610022227633821"/>

		<path opacity="0.75" fill="darkturquoise" d="M199.58840993674778 -11.590995718092548 L202.08840993674778 -11.213600281566682 L202.08840993674778 -6.232626791107954 L199.58840993674778 -6.610022227633821 L199.58840993674778 -11.590995718092548"/>
		<path opacity="0.75" fill="darkturquoise" d="M144.16278409454372 -8.802011950167486 L146.66278409454372 -8.42461651364162 L146.66278409454372 -3.4436430231828927 L144.16278409454372 -3.821038459708759 L144.16278409454372 -8.802011950167486"/>
		<path opacity="0.75" fill="darkturquoise" d="M199.58840993674778 -11.590995718092548 L144.16278409454372 -8.802011950167486 L144.16278409454372 -3.821038459708759 L199.58840993674778 -6.610022227633821 L199.58840993674778 -11.590995718092548"/>
		<path opacity="0.75" fill="darkturquoise" d="M202.08840993674778 -11.213600281566682 L146.66278409454372 -8.42461651364162 L146.66278409454372 -3.4436430231828927 L202.08840993674778 -6.232626791107954 L202.08840993674778 -11.213600281566682"/>
		<path opacity="0.75" fill="darkturquoise" d="M199.58840993674778 -11.590995718092548 L202.08840993674778 -11.213600281566682 L146.66278409454372 -8.42461651364162 L144.16278409454372 -8.802011950167486 L199.58840993674778 -11.590995718092548"/>
		<path opacity="0.75" fill="darkturquoise" d="M199.58840993674778 -6.610022227633821 L202.08840993674778 -6.232626791107954 L146.66278409454372 -3.4436430231828927 L144.16278409454372 -3.821038459708759 L199.58840993674778 -6.610022227633821"/>
		<text x="144.16278409454372" y="-6.311525204938123" font-family="calibri" font-size="4">5</text>
		<text x="145.41278409454372" y="-3.6323407414458257" font-family="calibri" font-size="4">5</text>
		<text x="171.87559701564575" y="-10.196503834130016" font-family="calibri" font-size="4">64</text>

		<path opacity="0.5" fill="orange" d="M198.4451627711626 -12.938871109925557 L202.4451627711626 -12.33503841148417 L202.4451627711626 -4.365480826750206 L198.4451627711626 -4.969313525191592 L198.4451627711626 -12.938871109925557"/>
		<path opacity="0.5" fill="orange" d="M143.01953692895853 -10.149887342000495 L147.01953692895853 -9.546054643559108 L147.01953692895853 -1.5764970588251437 L143.01953692895853 -2.1803297572665303 L143.01953692895853 -10.149887342000495"/>
		<path opacity="0.5" fill="orange" d="M198.4451627711626 -12.938871109925557 L143.01953692895853 -10.149887342000495 L143.01953692895853 -2.1803297572665303 L198.4451627711626 -4.969313525191592 L198.4451627711626 -12.938871109925557"/>
		<path opacity="0.5" fill="orange" d="M202.4451627711626 -12.33503841148417 L147.01953692895853 -9.546054643559108 L147.01953692895853 -1.5764970588251437 L202.4451627711626 -4.365480826750206 L202.4451627711626 -12.33503841148417"/>
		<path opacity="0.5" fill="orange" d="M198.4451627711626 -12.938871109925557 L202.4451627711626 -12.33503841148417 L147.01953692895853 -9.546054643559108 L143.01953692895853 -10.149887342000495 L198.4451627711626 -12.938871109925557"/>
		<path opacity="0.5" fill="orange" d="M198.4451627711626 -4.969313525191592 L202.4451627711626 -4.365480826750206 L147.01953692895853 -1.5764970588251437 L143.01953692895853 -2.1803297572665303 L198.4451627711626 -4.969313525191592"/>
		<text x="143.01953692895853" y="-6.165108549633513" font-family="calibri" font-size="4">8</text>
		<text x="145.01953692895853" y="-1.878413408045837" font-family="calibri" font-size="4">8</text>
		<text x="170.73234985006056" y="-11.544379225963027" font-family="calibri" font-size="4">64</text>

<!-- Arrow -->
		<path opacity="0.5" stroke="black" d="M93.33364779650317 -7.564697684624961 L145.01953692895853 -5.863192200412819"/>
		<circle opacity="0.5" cx="145.01953692895853" cy="-5.863192200412819" r="1" fill="black" />
		<path opacity="0.5" fill="orange" d="M91.33364779650317 -11.851392826212637 L95.33364779650317 -11.24756012777125 L95.33364779650317 -3.2780025430372848 L91.33364779650317 -3.881835241478672 L91.33364779650317 -11.851392826212637"/>
		<path opacity="0.5" fill="orange" d="M35.9080219542991 -9.062409058287574 L39.9080219542991 -8.458576359846187 L39.9080219542991 -0.489018775112223 L35.9080219542991 -1.0928514735536101 L35.9080219542991 -9.062409058287574"/>
		<path opacity="0.5" fill="orange" d="M91.33364779650317 -11.851392826212637 L35.9080219542991 -9.062409058287574 L35.9080219542991 -1.0928514735536101 L91.33364779650317 -3.881835241478672 L91.33364779650317 -11.851392826212637"/>
		<path opacity="0.5" fill="orange" d="M95.33364779650317 -11.24756012777125 L39.9080219542991 -8.458576359846187 L39.9080219542991 -0.489018775112223 L95.33364779650317 -3.2780025430372848 L95.33364779650317 -11.24756012777125"/>
		<path opacity="0.5" fill="orange" d="M91.33364779650317 -11.851392826212637 L95.33364779650317 -11.24756012777125 L39.9080219542991 -8.458576359846187 L35.9080219542991 -9.062409058287574 L91.33364779650317 -11.851392826212637"/>
		<path opacity="0.5" fill="orange" d="M91.33364779650317 -3.881835241478672 L95.33364779650317 -3.2780025430372848 L39.9080219542991 -0.489018775112223 L35.9080219542991 -1.0928514735536101 L91.33364779650317 -3.881835241478672"/>
		<text x="35.9080219542991" y="-5.077630265920592" font-family="calibri" font-size="4">8</text>
		<text x="37.9080219542991" y="-0.7909351243329166" font-family="calibri" font-size="4">8</text>
		<text x="63.62083487540114" y="-10.456900942250105" font-family="calibri" font-size="4">64</text>

<!-- Arrow -->
		<path opacity="0.5" stroke="black" d="M277.5605438279292 0.374348907943161 L361.54544793504397 -10.305182329594185"/>
		<circle opacity="0.5" cx="361.54544793504397" cy="-10.305182329594185" r="1" fill="black" />
		<path opacity="0.75" fill="pink" d="M-8.22052855190006 -7.202042280769747 L-5.72052855190006 -6.824646844243879 L37.15569890471505 -4.127475288721915 L-8.22052855190006 -7.202042280769747"/>
		<path opacity="0.75" fill="pink" d="M-8.22052855190006 -7.202042280769747 L-8.22052855190006 -2.2210687903110182 L37.15569890471505 -4.127475288721915 L-8.22052855190006 -7.202042280769747"/>
		<path opacity="0.75" fill="pink" d="M-5.72052855190006 -6.824646844243879 L-5.72052855190006 -1.8436733537851513 L37.15569890471505 -4.127475288721915 L-5.72052855190006 -6.824646844243879"/>
		<path opacity="0.75" fill="pink" d="M-8.22052855190006 -2.2210687903110182 L-5.72052855190006 -1.8436733537851513 L37.15569890471505 -4.127475288721915 L-8.22052855190006 -2.2210687903110182"/>

<!-- Arrow -->
		<path opacity="0.5" stroke="black" d="M50.34713282184376 3.202973545976438 L145.01953692895853 -5.863192200412819"/>
		<circle opacity="0.5" cx="145.01953692895853" cy="-5.863192200412819" r="1" fill="black" />
		<path opacity="0.75" fill="darkturquoise" d="M-8.22052855190006 -7.202042280769747 L-5.72052855190006 -6.824646844243879 L-5.72052855190006 -1.8436733537851513 L-8.22052855190006 -2.2210687903110182 L-8.22052855190006 -7.202042280769747"/>
		<path opacity="0.75" fill="darkturquoise" d="M-63.646154394104116 -4.413058512844684 L-61.146154394104116 -4.035663076318817 L-61.146154394104116 0.9453104141399109 L-63.646154394104116 0.567914977614044 L-63.646154394104116 -4.413058512844684"/>
		<path opacity="0.75" fill="darkturquoise" d="M-8.22052855190006 -7.202042280769747 L-63.646154394104116 -4.413058512844684 L-63.646154394104116 0.567914977614044 L-8.22052855190006 -2.2210687903110182 L-8.22052855190006 -7.202042280769747"/>
		<path opacity="0.75" fill="darkturquoise" d="M-5.72052855190006 -6.824646844243879 L-61.146154394104116 -4.035663076318817 L-61.146154394104116 0.9453104141399109 L-5.72052855190006 -1.8436733537851513 L-5.72052855190006 -6.824646844243879"/>
		<path opacity="0.75" fill="darkturquoise" d="M-8.22052855190006 -7.202042280769747 L-5.72052855190006 -6.824646844243879 L-61.146154394104116 -4.035663076318817 L-63.646154394104116 -4.413058512844684 L-8.22052855190006 -7.202042280769747"/>
		<path opacity="0.75" fill="darkturquoise" d="M-8.22052855190006 -2.2210687903110182 L-5.72052855190006 -1.8436733537851513 L-61.146154394104116 0.9453104141399109 L-63.646154394104116 0.567914977614044 L-8.22052855190006 -2.2210687903110182"/>
		<text x="-63.646154394104116" y="-1.9225717676153202" font-family="calibri" font-size="4">5</text>
		<text x="-62.396154394104116" y="0.7566126958769774" font-family="calibri" font-size="4">5</text>
		<text x="-35.93334147300209" y="-5.8075503968072155" font-family="calibri" font-size="4">64</text>

		<path opacity="0.5" fill="orange" d="M-9.393248234922822 -11.170210631183796 L-1.3932482349228223 -9.962545234301022 L-1.3932482349228223 5.976569935166907 L-9.393248234922822 4.768904538284134 L-9.393248234922822 -11.170210631183796"/>
		<path opacity="0.5" fill="orange" d="M-64.81887407712688 -8.381226863258732 L-56.81887407712688 -7.17356146637596 L-56.81887407712688 8.76555370309197 L-64.81887407712688 7.557888306209196 L-64.81887407712688 -8.381226863258732"/>
		<path opacity="0.5" fill="orange" d="M-9.393248234922822 -11.170210631183796 L-64.81887407712688 -8.381226863258732 L-64.81887407712688 7.557888306209196 L-9.393248234922822 4.768904538284134 L-9.393248234922822 -11.170210631183796"/>
		<path opacity="0.5" fill="orange" d="M-1.3932482349228223 -9.962545234301022 L-56.81887407712688 -7.17356146637596 L-56.81887407712688 8.76555370309197 L-1.3932482349228223 5.976569935166907 L-1.3932482349228223 -9.962545234301022"/>
		<path opacity="0.5" fill="orange" d="M-9.393248234922822 -11.170210631183796 L-1.3932482349228223 -9.962545234301022 L-56.81887407712688 -7.17356146637596 L-64.81887407712688 -8.381226863258732 L-9.393248234922822 -11.170210631183796"/>
		<path opacity="0.5" fill="orange" d="M-9.393248234922822 4.768904538284134 L-1.3932482349228223 5.976569935166907 L-56.81887407712688 8.76555370309197 L-64.81887407712688 7.557888306209196 L-9.393248234922822 4.768904538284134"/>
		<text x="-64.81887407712688" y="-0.411669278524768" font-family="calibri" font-size="4">16</text>
		<text x="-60.81887407712688" y="8.161721004650582" font-family="calibri" font-size="4">16</text>
		<text x="-37.10606115602485" y="-9.775718747221264" font-family="calibri" font-size="4">64</text>

<!-- Arrow -->
		<path opacity="0.5" stroke="black" d="M-105.37976320958228 -0.43376507019680277 L-60.81887407712688 0.192163419916618"/>
		<circle opacity="0.5" cx="-60.81887407712688" cy="0.192163419916618" r="1" fill="black" />
		<path opacity="0.5" fill="orange" d="M-109.37976320958228 -9.007155353372152 L-101.37976320958228 -7.799489956489381 L-101.37976320958228 8.139625212978547 L-109.37976320958228 6.931959816095775 L-109.37976320958228 -9.007155353372152"/>
		<path opacity="0.5" fill="orange" d="M-164.80538905178634 -6.218171585447092 L-156.80538905178634 -5.010506188564321 L-156.80538905178634 10.928608980903608 L-164.80538905178634 9.720943584020835 L-164.80538905178634 -6.218171585447092"/>
		<path opacity="0.5" fill="orange" d="M-109.37976320958228 -9.007155353372152 L-164.80538905178634 -6.218171585447092 L-164.80538905178634 9.720943584020835 L-109.37976320958228 6.931959816095775 L-109.37976320958228 -9.007155353372152"/>
		<path opacity="0.5" fill="orange" d="M-101.37976320958228 -7.799489956489381 L-156.80538905178634 -5.010506188564321 L-156.80538905178634 10.928608980903608 L-101.37976320958228 8.139625212978547 L-101.37976320958228 -7.799489956489381"/>
		<path opacity="0.5" fill="orange" d="M-109.37976320958228 -9.007155353372152 L-101.37976320958228 -7.799489956489381 L-156.80538905178634 -5.010506188564321 L-164.80538905178634 -6.218171585447092 L-109.37976320958228 -9.007155353372152"/>
		<path opacity="0.5" fill="orange" d="M-109.37976320958228 6.931959816095775 L-101.37976320958228 8.139625212978547 L-156.80538905178634 10.928608980903608 L-164.80538905178634 9.720943584020835 L-109.37976320958228 6.931959816095775"/>
		<text x="-164.80538905178634" y="1.7513859992868719" font-family="calibri" font-size="4">16</text>
		<text x="-160.80538905178634" y="10.32477628246222" font-family="calibri" font-size="4">16</text>
		<text x="-137.0925761306843" y="-7.612663469409622" font-family="calibri" font-size="4">64</text>

		<path opacity="0.5" fill="orange" d="M275.5605438279292 -3.9123462336445147 L279.5605438279292 -3.3085135352031276 L279.5605438279292 4.661044049530837 L275.5605438279292 4.05721135108945 L275.5605438279292 -3.9123462336445147"/>
		<path opacity="0.5" fill="orange" d="M220.1349179857251 -1.1233624657194534 L224.1349179857251 -0.5195297672780663 L224.1349179857251 7.450027817455898 L220.1349179857251 6.846195119014511 L220.1349179857251 -1.1233624657194534"/>
		<path opacity="0.5" fill="orange" d="M275.5605438279292 -3.9123462336445147 L220.1349179857251 -1.1233624657194534 L220.1349179857251 6.846195119014511 L275.5605438279292 4.05721135108945 L275.5605438279292 -3.9123462336445147"/>
		<path opacity="0.5" fill="orange" d="M279.5605438279292 -3.3085135352031276 L224.1349179857251 -0.5195297672780663 L224.1349179857251 7.450027817455898 L279.5605438279292 4.661044049530837 L279.5605438279292 -3.3085135352031276"/>
		<path opacity="0.5" fill="orange" d="M275.5605438279292 -3.9123462336445147 L279.5605438279292 -3.3085135352031276 L224.1349179857251 -0.5195297672780663 L220.1349179857251 -1.1233624657194534 L275.5605438279292 -3.9123462336445147"/>
		<path opacity="0.5" fill="orange" d="M275.5605438279292 4.05721135108945 L279.5605438279292 4.661044049530837 L224.1349179857251 7.450027817455898 L220.1349179857251 6.846195119014511 L275.5605438279292 4.05721135108945"/>
		<text x="220.1349179857251" y="2.8614163266475288" font-family="calibri" font-size="4">8</text>
		<text x="222.1349179857251" y="7.1481114682352045" font-family="calibri" font-size="4">8</text>
		<text x="247.84773090682717" y="-2.517854349681984" font-family="calibri" font-size="4">64</text>

<!-- Arrow -->
		<path opacity="0.5" stroke="black" d="M-76.87976320958225 3.8685429061980754 L-60.81887407712688 0.192163419916618"/>
		<circle opacity="0.5" cx="-60.81887407712688" cy="0.192163419916618" r="1" fill="black" />
		<path opacity="0.75" fill="pink" d="M-206.8062702051825 -8.30022265805354 L-204.3062702051825 -7.922827221527674 L-163.50718654941335 -6.016233880656351 L-206.8062702051825 -8.30022265805354"/>
		<path opacity="0.75" fill="pink" d="M-206.8062702051825 -8.30022265805354 L-206.8062702051825 -3.3192491675948137 L-163.50718654941335 -6.016233880656351 L-206.8062702051825 -8.30022265805354"/>
		<path opacity="0.75" fill="pink" d="M-204.3062702051825 -7.922827221527674 L-204.3062702051825 -2.9418537310689477 L-163.50718654941335 -6.016233880656351 L-204.3062702051825 -7.922827221527674"/>
		<path opacity="0.75" fill="pink" d="M-206.8062702051825 -3.3192491675948137 L-204.3062702051825 -2.9418537310689477 L-163.50718654941335 -6.016233880656351 L-206.8062702051825 -3.3192491675948137"/>

		<path opacity="0.5" fill="orange" d="M48.34713282184376 -1.0837215956112378 L52.347132821843765 -0.47988889716985117 L52.347132821843765 7.489668687564114 L48.34713282184376 6.885835989122727 L48.34713282184376 -1.0837215956112378"/>
		<path opacity="0.5" fill="orange" d="M-7.0784930203603125 1.705262172313824 L-3.0784930203603125 2.3090948707552106 L-3.0784930203603125 10.278652455489176 L-7.0784930203603125 9.67481975704779 L-7.0784930203603125 1.705262172313824"/>
		<path opacity="0.5" fill="orange" d="M48.34713282184376 -1.0837215956112378 L-7.0784930203603125 1.705262172313824 L-7.0784930203603125 9.67481975704779 L48.34713282184376 6.885835989122727 L48.34713282184376 -1.0837215956112378"/>
		<path opacity="0.5" fill="orange" d="M52.347132821843765 -0.47988889716985117 L-3.0784930203603125 2.3090948707552106 L-3.0784930203603125 10.278652455489176 L52.347132821843765 7.489668687564114 L52.347132821843765 -0.47988889716985117"/>
		<path opacity="0.5" fill="orange" d="M48.34713282184376 -1.0837215956112378 L52.347132821843765 -0.47988889716985117 L-3.0784930203603125 2.3090948707552106 L-7.0784930203603125 1.705262172313824 L48.34713282184376 -1.0837215956112378"/>
		<path opacity="0.5" fill="orange" d="M48.34713282184376 6.885835989122727 L52.347132821843765 7.489668687564114 L-3.0784930203603125 10.278652455489176 L-7.0784930203603125 9.67481975704779 L48.34713282184376 6.885835989122727"/>
		<text x="-7.0784930203603125" y="5.690040964680806" font-family="calibri" font-size="4">8</text>
		<text x="-5.0784930203603125" y="9.976736106268483" font-family="calibri" font-size="4">8</text>
		<text x="20.634319900741723" y="0.31077028835129306" font-family="calibri" font-size="4">64</text>

		<path opacity="0.75" fill="pink" d="M177.77382006106302 3.4512536846799207 L180.27382006106302 3.8286491212057876 L222.12910162429344 -0.5575036662371358 L177.77382006106302 3.4512536846799207"/>
		<path opacity="0.75" fill="pink" d="M177.77382006106302 3.4512536846799207 L177.77382006106302 8.432227175138648 L222.12910162429344 -0.5575036662371358 L177.77382006106302 3.4512536846799207"/>
		<path opacity="0.75" fill="pink" d="M180.27382006106302 3.8286491212057876 L180.27382006106302 8.809622611664516 L222.12910162429344 -0.5575036662371358 L180.27382006106302 3.8286491212057876"/>
		<path opacity="0.75" fill="pink" d="M177.77382006106302 8.432227175138648 L180.27382006106302 8.809622611664516 L222.12910162429344 -0.5575036662371358 L177.77382006106302 8.432227175138648"/>

		<path opacity="0.75" fill="darkturquoise" d="M-206.8062702051825 -8.30022265805354 L-204.3062702051825 -7.922827221527674 L-204.3062702051825 -2.9418537310689477 L-206.8062702051825 -3.3192491675948137 L-206.8062702051825 -8.30022265805354"/>
		<path opacity="0.75" fill="darkturquoise" d="M-234.51908312628456 -6.90573077409101 L-232.01908312628456 -6.528335337565144 L-232.01908312628456 -1.5473618471064174 L-234.51908312628456 -1.9247572836322835 L-234.51908312628456 -6.90573077409101"/>
		<path opacity="0.75" fill="darkturquoise" d="M-206.8062702051825 -8.30022265805354 L-234.51908312628456 -6.90573077409101 L-234.51908312628456 -1.9247572836322835 L-206.8062702051825 -3.3192491675948137 L-206.8062702051825 -8.30022265805354"/>
		<path opacity="0.75" fill="darkturquoise" d="M-204.3062702051825 -7.922827221527674 L-232.01908312628456 -6.528335337565144 L-232.01908312628456 -1.5473618471064174 L-204.3062702051825 -2.9418537310689477 L-204.3062702051825 -7.922827221527674"/>
		<path opacity="0.75" fill="darkturquoise" d="M-206.8062702051825 -8.30022265805354 L-204.3062702051825 -7.922827221527674 L-232.01908312628456 -6.528335337565144 L-234.51908312628456 -6.90573077409101 L-206.8062702051825 -8.30022265805354"/>
		<path opacity="0.75" fill="darkturquoise" d="M-206.8062702051825 -3.3192491675948137 L-204.3062702051825 -2.9418537310689477 L-232.01908312628456 -1.5473618471064174 L-234.51908312628456 -1.9247572836322835 L-206.8062702051825 -3.3192491675948137"/>
		<text x="-234.51908312628456" y="-4.415244028861647" font-family="calibri" font-size="4">5</text>
		<text x="-233.26908312628456" y="-1.7360595653693505" font-family="calibri" font-size="4">5</text>
		<text x="-220.66267666573353" y="-7.602976716072275" font-family="calibri" font-size="4">32</text>

		<path opacity="0.5" fill="orange" d="M-212.10665924100823 -12.61266829993099 L-196.10665924100823 -10.197337506165445 L-196.10665924100823 21.680892832770414 L-212.10665924100823 19.26556203900487 L-212.10665924100823 -12.61266829993099"/>
		<path opacity="0.5" fill="orange" d="M-239.8194721621103 -11.21817641596846 L-223.8194721621103 -8.802845622202915 L-223.8194721621103 23.075384716732945 L-239.8194721621103 20.6600539229674 L-239.8194721621103 -11.21817641596846"/>
		<path opacity="0.5" fill="orange" d="M-212.10665924100823 -12.61266829993099 L-239.8194721621103 -11.21817641596846 L-239.8194721621103 20.6600539229674 L-212.10665924100823 19.26556203900487 L-212.10665924100823 -12.61266829993099"/>
		<path opacity="0.5" fill="orange" d="M-196.10665924100823 -10.197337506165445 L-223.8194721621103 -8.802845622202915 L-223.8194721621103 23.075384716732945 L-196.10665924100823 21.680892832770414 L-196.10665924100823 -10.197337506165445"/>
		<path opacity="0.5" fill="orange" d="M-212.10665924100823 -12.61266829993099 L-196.10665924100823 -10.197337506165445 L-223.8194721621103 -8.802845622202915 L-239.8194721621103 -11.21817641596846 L-212.10665924100823 -12.61266829993099"/>
		<path opacity="0.5" fill="orange" d="M-212.10665924100823 19.26556203900487 L-196.10665924100823 21.680892832770414 L-223.8194721621103 23.075384716732945 L-239.8194721621103 20.6600539229674 L-212.10665924100823 19.26556203900487"/>
		<text x="-239.8194721621103" y="4.72093875349947" font-family="calibri" font-size="4">32</text>
		<text x="-231.8194721621103" y="21.867719319850174" font-family="calibri" font-size="4">32</text>
		<text x="-225.96306570155926" y="-11.915422357949724" font-family="calibri" font-size="4">32</text>

		<path opacity="0.5" fill="orange" d="M-80.87976320958225 -4.704847376977275 L-72.87976320958225 -3.4971819800945028 L-72.87976320958225 12.441933189373426 L-80.87976320958225 11.234267792490654 L-80.87976320958225 -4.704847376977275"/>
		<path opacity="0.5" fill="orange" d="M-136.3053890517863 -1.9158636090522148 L-128.3053890517863 -0.7081982121694423 L-128.3053890517863 15.230916957298486 L-136.3053890517863 14.023251560415714 L-136.3053890517863 -1.9158636090522148"/>
		<path opacity="0.5" fill="orange" d="M-80.87976320958225 -4.704847376977275 L-136.3053890517863 -1.9158636090522148 L-136.3053890517863 14.023251560415714 L-80.87976320958225 11.234267792490654 L-80.87976320958225 -4.704847376977275"/>
		<path opacity="0.5" fill="orange" d="M-72.87976320958225 -3.4971819800945028 L-128.3053890517863 -0.7081982121694423 L-128.3053890517863 15.230916957298486 L-72.87976320958225 12.441933189373426 L-72.87976320958225 -3.4971819800945028"/>
		<path opacity="0.5" fill="orange" d="M-80.87976320958225 -4.704847376977275 L-72.87976320958225 -3.4971819800945028 L-128.3053890517863 -0.7081982121694423 L-136.3053890517863 -1.9158636090522148 L-80.87976320958225 -4.704847376977275"/>
		<path opacity="0.5" fill="orange" d="M-80.87976320958225 11.234267792490654 L-72.87976320958225 12.441933189373426 L-128.3053890517863 15.230916957298486 L-136.3053890517863 14.023251560415714 L-80.87976320958225 11.234267792490654"/>
		<text x="-136.3053890517863" y="6.05369397568175" font-family="calibri" font-size="4">16</text>
		<text x="-132.3053890517863" y="14.6270842588571" font-family="calibri" font-size="4">16</text>
		<text x="-108.59257613068428" y="-3.310355493014745" font-family="calibri" font-size="4">64</text>

		<path opacity="0.75" fill="darkturquoise" d="M177.77382006106302 3.4512536846799207 L180.27382006106302 3.8286491212057876 L180.27382006106302 8.809622611664516 L177.77382006106302 8.432227175138648 L177.77382006106302 3.4512536846799207"/>
		<path opacity="0.75" fill="darkturquoise" d="M122.34819421885896 6.240237452604982 L124.84819421885896 6.617632889130849 L124.84819421885896 11.598606379589578 L122.34819421885896 11.22121094306371 L122.34819421885896 6.240237452604982"/>
		<path opacity="0.75" fill="darkturquoise" d="M177.77382006106302 3.4512536846799207 L122.34819421885896 6.240237452604982 L122.34819421885896 11.22121094306371 L177.77382006106302 8.432227175138648 L177.77382006106302 3.4512536846799207"/>
		<path opacity="0.75" fill="darkturquoise" d="M180.27382006106302 3.8286491212057876 L124.84819421885896 6.617632889130849 L124.84819421885896 11.598606379589578 L180.27382006106302 8.809622611664516 L180.27382006106302 3.8286491212057876"/>
		<path opacity="0.75" fill="darkturquoise" d="M177.77382006106302 3.4512536846799207 L180.27382006106302 3.8286491212057876 L124.84819421885896 6.617632889130849 L122.34819421885896 6.240237452604982 L177.77382006106302 3.4512536846799207"/>
		<path opacity="0.75" fill="darkturquoise" d="M177.77382006106302 8.432227175138648 L180.27382006106302 8.809622611664516 L124.84819421885896 11.598606379589578 L122.34819421885896 11.22121094306371 L177.77382006106302 8.432227175138648"/>
		<text x="122.34819421885896" y="8.730724197834347" font-family="calibri" font-size="4">5</text>
		<text x="123.59819421885896" y="11.409908661326643" font-family="calibri" font-size="4">5</text>
		<text x="150.061007139961" y="4.845745568642451" font-family="calibri" font-size="4">64</text>

		<path opacity="0.5" fill="orange" d="M176.8336477965032 1.0555311029720014 L180.8336477965032 1.6593638014133885 L180.8336477965032 9.628921386147352 L176.8336477965032 9.025088687705965 L176.8336477965032 1.0555311029720014"/>
		<path opacity="0.5" fill="orange" d="M121.40802195429913 3.844514870897063 L125.40802195429913 4.44834756933845 L125.40802195429913 12.417905154072415 L121.40802195429913 11.814072455631027 L121.40802195429913 3.844514870897063"/>
		<path opacity="0.5" fill="orange" d="M176.8336477965032 1.0555311029720014 L121.40802195429913 3.844514870897063 L121.40802195429913 11.814072455631027 L176.8336477965032 9.025088687705965 L176.8336477965032 1.0555311029720014"/>
		<path opacity="0.5" fill="orange" d="M180.8336477965032 1.6593638014133885 L125.40802195429913 4.44834756933845 L125.40802195429913 12.417905154072415 L180.8336477965032 9.628921386147352 L180.8336477965032 1.6593638014133885"/>
		<path opacity="0.5" fill="orange" d="M176.8336477965032 1.0555311029720014 L180.8336477965032 1.6593638014133885 L125.40802195429913 4.44834756933845 L121.40802195429913 3.844514870897063 L176.8336477965032 1.0555311029720014"/>
		<path opacity="0.5" fill="orange" d="M176.8336477965032 9.025088687705965 L180.8336477965032 9.628921386147352 L125.40802195429913 12.417905154072415 L121.40802195429913 11.814072455631027 L176.8336477965032 9.025088687705965"/>
		<text x="121.40802195429913" y="7.829293663264045" font-family="calibri" font-size="4">8</text>
		<text x="123.40802195429913" y="12.115988804851721" font-family="calibri" font-size="4">8</text>
		<text x="149.12083487540116" y="2.450022986934532" font-family="calibri" font-size="4">64</text>

		<path opacity="0.75" fill="pink" d="M-281.1287885833762 6.132106082587285 L-276.1287885833762 6.886896955639019 L-226.2028863301838 19.008688633179027 L-281.1287885833762 6.132106082587285"/>
		<path opacity="0.75" fill="pink" d="M-281.1287885833762 6.132106082587285 L-281.1287885833762 16.094053063504738 L-226.2028863301838 19.008688633179027 L-281.1287885833762 6.132106082587285"/>
		<path opacity="0.75" fill="pink" d="M-276.1287885833762 6.886896955639019 L-276.1287885833762 16.848843936556474 L-226.2028863301838 19.008688633179027 L-276.1287885833762 6.886896955639019"/>
		<path opacity="0.75" fill="pink" d="M-281.1287885833762 16.094053063504738 L-276.1287885833762 16.848843936556474 L-226.2028863301838 19.008688633179027 L-281.1287885833762 16.094053063504738"/>

<!-- Arrow -->
		<path opacity="0.5" stroke="black" d="M78.84713282184377 7.505281522371316 L123.40802195429913 8.13121001248474"/>
		<circle opacity="0.5" cx="123.40802195429913" cy="8.13121001248474" r="1" fill="black" />
		<path opacity="0.75" fill="pink" d="M-48.19398267889267 5.486348244874764 L-45.69398267889267 5.86374368140063 L-5.340564950709577 6.44387032784489 L-48.19398267889267 5.486348244874764"/>
		<path opacity="0.75" fill="pink" d="M-48.19398267889267 5.486348244874764 L-48.19398267889267 10.467321735333492 L-5.340564950709577 6.44387032784489 L-48.19398267889267 5.486348244874764"/>
		<path opacity="0.75" fill="pink" d="M-45.69398267889267 5.86374368140063 L-45.69398267889267 10.844717171859358 L-5.340564950709577 6.44387032784489 L-45.69398267889267 5.86374368140063"/>
		<path opacity="0.75" fill="pink" d="M-48.19398267889267 10.467321735333492 L-45.69398267889267 10.844717171859358 L-5.340564950709577 6.44387032784489 L-48.19398267889267 10.467321735333492"/>

		<path opacity="0.75" fill="darkturquoise" d="M-281.1287885833762 6.132106082587285 L-276.1287885833762 6.886896955639019 L-276.1287885833762 16.848843936556474 L-281.1287885833762 16.094053063504738 L-281.1287885833762 6.132106082587285"/>
		<path opacity="0.75" fill="darkturquoise" d="M-298.449296659065 7.003663510063866 L-293.449296659065 7.7584543831156 L-293.449296659065 17.720401364033055 L-298.449296659065 16.96561049098132 L-298.449296659065 7.003663510063866"/>
		<path opacity="0.75" fill="darkturquoise" d="M-281.1287885833762 6.132106082587285 L-298.449296659065 7.003663510063866 L-298.449296659065 16.96561049098132 L-281.1287885833762 16.094053063504738 L-281.1287885833762 6.132106082587285"/>
		<path opacity="0.75" fill="darkturquoise" d="M-276.1287885833762 6.886896955639019 L-293.449296659065 7.7584543831156 L-293.449296659065 17.720401364033055 L-276.1287885833762 16.848843936556474 L-276.1287885833762 6.886896955639019"/>
		<path opacity="0.75" fill="darkturquoise" d="M-281.1287885833762 6.132106082587285 L-276.1287885833762 6.886896955639019 L-293.449296659065 7.7584543831156 L-298.449296659065 7.003663510063866 L-281.1287885833762 6.132106082587285"/>
		<path opacity="0.75" fill="darkturquoise" d="M-281.1287885833762 16.094053063504738 L-276.1287885833762 16.848843936556474 L-293.449296659065 17.720401364033055 L-298.449296659065 16.96561049098132 L-281.1287885833762 16.094053063504738"/>
		<text x="-298.449296659065" y="11.984637000522593" font-family="calibri" font-size="4">10</text>
		<text x="-295.949296659065" y="17.343005927507186" font-family="calibri" font-size="4">10</text>
		<text x="-289.7890426212206" y="6.5678847963255755" font-family="calibri" font-size="4">20</text>

		<path opacity="0.5" fill="orange" d="M-283.1207423513322 -9.039282847277004 L-267.1207423513322 -6.623952053511459 L-267.1207423513322 25.254278285424398 L-283.1207423513322 22.838947491658853 L-283.1207423513322 -9.039282847277004"/>
		<path opacity="0.5" fill="orange" d="M-300.441250427021 -8.167725419800423 L-284.441250427021 -5.752394626034878 L-284.441250427021 26.12583571290098 L-300.441250427021 23.710504919135435 L-300.441250427021 -8.167725419800423"/>
		<path opacity="0.5" fill="orange" d="M-283.1207423513322 -9.039282847277004 L-300.441250427021 -8.167725419800423 L-300.441250427021 23.710504919135435 L-283.1207423513322 22.838947491658853 L-283.1207423513322 -9.039282847277004"/>
		<path opacity="0.5" fill="orange" d="M-267.1207423513322 -6.623952053511459 L-284.441250427021 -5.752394626034878 L-284.441250427021 26.12583571290098 L-267.1207423513322 25.254278285424398 L-267.1207423513322 -6.623952053511459"/>
		<path opacity="0.5" fill="orange" d="M-283.1207423513322 -9.039282847277004 L-267.1207423513322 -6.623952053511459 L-284.441250427021 -5.752394626034878 L-300.441250427021 -8.167725419800423 L-283.1207423513322 -9.039282847277004"/>
		<path opacity="0.5" fill="orange" d="M-283.1207423513322 22.838947491658853 L-267.1207423513322 25.254278285424398 L-284.441250427021 26.12583571290098 L-300.441250427021 23.710504919135435 L-283.1207423513322 22.838947491658853"/>
		<text x="-300.441250427021" y="7.771389749667506" font-family="calibri" font-size="4">32</text>
		<text x="-292.441250427021" y="24.918170316018205" font-family="calibri" font-size="4">32</text>
		<text x="-291.7809963891766" y="-8.603504133538713" font-family="calibri" font-size="4">20</text>

		<path opacity="0.75" fill="pink" d="M-173.87821608206684 9.962027109566712 L-171.37821608206684 10.33942254609258 L-132.4275270499034 6.621803523711334 L-173.87821608206684 9.962027109566712"/>
		<path opacity="0.75" fill="pink" d="M-173.87821608206684 9.962027109566712 L-173.87821608206684 14.94300060002544 L-132.4275270499034 6.621803523711334 L-173.87821608206684 9.962027109566712"/>
		<path opacity="0.75" fill="pink" d="M-171.37821608206684 10.33942254609258 L-171.37821608206684 15.320396036551308 L-132.4275270499034 6.621803523711334 L-171.37821608206684 10.33942254609258"/>
		<path opacity="0.75" fill="pink" d="M-173.87821608206684 14.94300060002544 L-171.37821608206684 15.320396036551308 L-132.4275270499034 6.621803523711334 L-173.87821608206684 14.94300060002544"/>

		<path opacity="0.5" fill="orange" d="M76.84713282184377 3.2185863807836417 L80.84713282184377 3.822419079225028 L80.84713282184377 11.791976663958991 L76.84713282184377 11.188143965517606 L76.84713282184377 3.2185863807836417"/>
		<path opacity="0.5" fill="orange" d="M21.4215069796397 6.007570148708703 L25.4215069796397 6.61140284715009 L25.4215069796397 14.580960431884053 L21.4215069796397 13.977127733442668 L21.4215069796397 6.007570148708703"/>
		<path opacity="0.5" fill="orange" d="M76.84713282184377 3.2185863807836417 L21.4215069796397 6.007570148708703 L21.4215069796397 13.977127733442668 L76.84713282184377 11.188143965517606 L76.84713282184377 3.2185863807836417"/>
		<path opacity="0.5" fill="orange" d="M80.84713282184377 3.822419079225028 L25.4215069796397 6.61140284715009 L25.4215069796397 14.580960431884053 L80.84713282184377 11.791976663958991 L80.84713282184377 3.822419079225028"/>
		<path opacity="0.5" fill="orange" d="M76.84713282184377 3.2185863807836417 L80.84713282184377 3.822419079225028 L25.4215069796397 6.61140284715009 L21.4215069796397 6.007570148708703 L76.84713282184377 3.2185863807836417"/>
		<path opacity="0.5" fill="orange" d="M76.84713282184377 11.188143965517606 L80.84713282184377 11.791976663958991 L25.4215069796397 14.580960431884053 L21.4215069796397 13.977127733442668 L76.84713282184377 11.188143965517606"/>
		<text x="21.4215069796397" y="9.992348941075686" font-family="calibri" font-size="4">8</text>
		<text x="23.4215069796397" y="14.279044082663361" font-family="calibri" font-size="4">8</text>
		<text x="49.13431990074174" y="4.613078264746172" font-family="calibri" font-size="4">64</text>

		<path opacity="0.75" fill="darkturquoise" d="M-173.87821608206684 9.962027109566712 L-171.37821608206684 10.33942254609258 L-171.37821608206684 15.320396036551308 L-173.87821608206684 14.94300060002544 L-173.87821608206684 9.962027109566712"/>
		<path opacity="0.75" fill="darkturquoise" d="M-201.5910290031689 11.356518993529242 L-199.0910290031689 11.73391443005511 L-199.0910290031689 16.71488792051384 L-201.5910290031689 16.337492483987972 L-201.5910290031689 11.356518993529242"/>
		<path opacity="0.75" fill="darkturquoise" d="M-173.87821608206684 9.962027109566712 L-201.5910290031689 11.356518993529242 L-201.5910290031689 16.337492483987972 L-173.87821608206684 14.94300060002544 L-173.87821608206684 9.962027109566712"/>
		<path opacity="0.75" fill="darkturquoise" d="M-171.37821608206684 10.33942254609258 L-199.0910290031689 11.73391443005511 L-199.0910290031689 16.71488792051384 L-171.37821608206684 15.320396036551308 L-171.37821608206684 10.33942254609258"/>
		<path opacity="0.75" fill="darkturquoise" d="M-173.87821608206684 9.962027109566712 L-171.37821608206684 10.33942254609258 L-199.0910290031689 11.73391443005511 L-201.5910290031689 11.356518993529242 L-173.87821608206684 9.962027109566712"/>
		<path opacity="0.75" fill="darkturquoise" d="M-173.87821608206684 14.94300060002544 L-171.37821608206684 15.320396036551308 L-199.0910290031689 16.71488792051384 L-201.5910290031689 16.337492483987972 L-173.87821608206684 14.94300060002544"/>
		<text x="-201.5910290031689" y="13.847005738758607" font-family="calibri" font-size="4">5</text>
		<text x="-200.3410290031689" y="16.526190202250906" font-family="calibri" font-size="4">5</text>
		<text x="-187.73462254261787" y="10.659273051547977" font-family="calibri" font-size="4">32</text>

		<path opacity="0.5" fill="orange" d="M-183.60665924100823 -8.310360323536111 L-167.60665924100823 -5.895029529770566 L-167.60665924100823 25.983200809165293 L-183.60665924100823 23.56787001539975 L-183.60665924100823 -8.310360323536111"/>
		<path opacity="0.5" fill="orange" d="M-211.3194721621103 -6.915868439573581 L-195.3194721621103 -4.500537645808036 L-195.3194721621103 27.377692693127823 L-211.3194721621103 24.96236189936228 L-211.3194721621103 -6.915868439573581"/>
		<path opacity="0.5" fill="orange" d="M-183.60665924100823 -8.310360323536111 L-211.3194721621103 -6.915868439573581 L-211.3194721621103 24.96236189936228 L-183.60665924100823 23.56787001539975 L-183.60665924100823 -8.310360323536111"/>
		<path opacity="0.5" fill="orange" d="M-167.60665924100823 -5.895029529770566 L-195.3194721621103 -4.500537645808036 L-195.3194721621103 27.377692693127823 L-167.60665924100823 25.983200809165293 L-167.60665924100823 -5.895029529770566"/>
		<path opacity="0.5" fill="orange" d="M-183.60665924100823 -8.310360323536111 L-167.60665924100823 -5.895029529770566 L-195.3194721621103 -4.500537645808036 L-211.3194721621103 -6.915868439573581 L-183.60665924100823 -8.310360323536111"/>
		<path opacity="0.5" fill="orange" d="M-183.60665924100823 23.56787001539975 L-167.60665924100823 25.983200809165293 L-195.3194721621103 27.377692693127823 L-211.3194721621103 24.96236189936228 L-183.60665924100823 23.56787001539975"/>
		<text x="-211.3194721621103" y="9.02324672989435" font-family="calibri" font-size="4">32</text>
		<text x="-203.3194721621103" y="26.170027296245053" font-family="calibri" font-size="4">32</text>
		<text x="-197.46306570155926" y="-7.613114381554846" font-family="calibri" font-size="4">32</text>

		<path opacity="0.75" fill="darkturquoise" d="M-48.19398267889267 5.486348244874764 L-45.69398267889267 5.86374368140063 L-45.69398267889267 10.844717171859358 L-48.19398267889267 10.467321735333492 L-48.19398267889267 5.486348244874764"/>
		<path opacity="0.75" fill="darkturquoise" d="M-103.61960852109672 8.275332012799824 L-101.11960852109672 8.65272744932569 L-101.11960852109672 13.633700939784418 L-103.61960852109672 13.256305503258552 L-103.61960852109672 8.275332012799824"/>
		<path opacity="0.75" fill="darkturquoise" d="M-48.19398267889267 5.486348244874764 L-103.61960852109672 8.275332012799824 L-103.61960852109672 13.256305503258552 L-48.19398267889267 10.467321735333492 L-48.19398267889267 5.486348244874764"/>
		<path opacity="0.75" fill="darkturquoise" d="M-45.69398267889267 5.86374368140063 L-101.11960852109672 8.65272744932569 L-101.11960852109672 13.633700939784418 L-45.69398267889267 10.844717171859358 L-45.69398267889267 5.86374368140063"/>
		<path opacity="0.75" fill="darkturquoise" d="M-48.19398267889267 5.486348244874764 L-45.69398267889267 5.86374368140063 L-101.11960852109672 8.65272744932569 L-103.61960852109672 8.275332012799824 L-48.19398267889267 5.486348244874764"/>
		<path opacity="0.75" fill="darkturquoise" d="M-48.19398267889267 10.467321735333492 L-45.69398267889267 10.844717171859358 L-101.11960852109672 13.633700939784418 L-103.61960852109672 13.256305503258552 L-48.19398267889267 10.467321735333492"/>
		<text x="-103.61960852109672" y="10.765818758029187" font-family="calibri" font-size="4">5</text>
		<text x="-102.36960852109672" y="13.445003221521485" font-family="calibri" font-size="4">5</text>
		<text x="-75.9067955999947" y="6.880840128837294" font-family="calibri" font-size="4">64</text>

		<path opacity="0.5" fill="orange" d="M-52.37976320958225 -0.40253940058239657 L-44.37976320958225 0.8051259963003767 L-44.37976320958225 16.744241165768308 L-52.37976320958225 15.536575768885534 L-52.37976320958225 -0.40253940058239657"/>
		<path opacity="0.5" fill="orange" d="M-107.8053890517863 2.386444367342664 L-99.8053890517863 3.594109764225437 L-99.8053890517863 19.53322493369337 L-107.8053890517863 18.325559536810594 L-107.8053890517863 2.386444367342664"/>
		<path opacity="0.5" fill="orange" d="M-52.37976320958225 -0.40253940058239657 L-107.8053890517863 2.386444367342664 L-107.8053890517863 18.325559536810594 L-52.37976320958225 15.536575768885534 L-52.37976320958225 -0.40253940058239657"/>
		<path opacity="0.5" fill="orange" d="M-44.37976320958225 0.8051259963003767 L-99.8053890517863 3.594109764225437 L-99.8053890517863 19.53322493369337 L-44.37976320958225 16.744241165768308 L-44.37976320958225 0.8051259963003767"/>
		<path opacity="0.5" fill="orange" d="M-52.37976320958225 -0.40253940058239657 L-44.37976320958225 0.8051259963003767 L-99.8053890517863 3.594109764225437 L-107.8053890517863 2.386444367342664 L-52.37976320958225 -0.40253940058239657"/>
		<path opacity="0.5" fill="orange" d="M-52.37976320958225 15.536575768885534 L-44.37976320958225 16.744241165768308 L-99.8053890517863 19.53322493369337 L-107.8053890517863 18.325559536810594 L-52.37976320958225 15.536575768885534"/>
		<text x="-107.8053890517863" y="10.356001952076628" font-family="calibri" font-size="4">16</text>
		<text x="-103.8053890517863" y="18.92939223525198" font-family="calibri" font-size="4">16</text>
		<text x="-80.09257613068428" y="0.9919524833801336" font-family="calibri" font-size="4">64</text>

<!-- Arrow -->
		<path opacity="0.5" stroke="black" d="M107.34713282184379 11.807589498766196 L123.40802195429913 8.13121001248474"/>
		<circle opacity="0.5" cx="123.40802195429913" cy="8.13121001248474" r="1" fill="black" />
		<path opacity="0.75" fill="pink" d="M-249.64582963624798 8.318595167282748 L-244.64582963624798 9.073386040334482 L-208.6561549672383 4.439355577055684 L-249.64582963624798 8.318595167282748"/>
		<path opacity="0.75" fill="pink" d="M-249.64582963624798 8.318595167282748 L-249.64582963624798 18.280542148200205 L-208.6561549672383 4.439355577055684 L-249.64582963624798 8.318595167282748"/>
		<path opacity="0.75" fill="pink" d="M-244.64582963624798 9.073386040334482 L-244.64582963624798 19.035333021251937 L-208.6561549672383 4.439355577055684 L-244.64582963624798 9.073386040334482"/>
		<path opacity="0.75" fill="pink" d="M-249.64582963624798 18.280542148200205 L-244.64582963624798 19.035333021251937 L-208.6561549672383 4.439355577055684 L-249.64582963624798 18.280542148200205"/>

		<path opacity="0.75" fill="pink" d="M-21.412265573089854 13.29383543619426 L-18.912265573089854 13.671230872720127 L25.15577720444827 8.936932821595361 L-21.412265573089854 13.29383543619426"/>
		<path opacity="0.75" fill="pink" d="M-21.412265573089854 13.29383543619426 L-21.412265573089854 18.274808926652987 L25.15577720444827 8.936932821595361 L-21.412265573089854 13.29383543619426"/>
		<path opacity="0.75" fill="pink" d="M-18.912265573089854 13.671230872720127 L-18.912265573089854 18.652204363178853 L25.15577720444827 8.936932821595361 L-18.912265573089854 13.671230872720127"/>
		<path opacity="0.75" fill="pink" d="M-21.412265573089854 18.274808926652987 L-18.912265573089854 18.652204363178853 L25.15577720444827 8.936932821595361 L-21.412265573089854 18.274808926652987"/>

		<path opacity="0.75" fill="darkturquoise" d="M-249.64582963624798 8.318595167282748 L-244.64582963624798 9.073386040334482 L-244.64582963624798 19.035333021251937 L-249.64582963624798 18.280542148200205 L-249.64582963624798 8.318595167282748"/>
		<path opacity="0.75" fill="darkturquoise" d="M-266.9663377119368 9.19015259475933 L-261.9663377119368 9.944943467811063 L-261.9663377119368 19.906890448728518 L-266.9663377119368 19.152099575676786 L-266.9663377119368 9.19015259475933"/>
		<path opacity="0.75" fill="darkturquoise" d="M-249.64582963624798 8.318595167282748 L-266.9663377119368 9.19015259475933 L-266.9663377119368 19.152099575676786 L-249.64582963624798 18.280542148200205 L-249.64582963624798 8.318595167282748"/>
		<path opacity="0.75" fill="darkturquoise" d="M-244.64582963624798 9.073386040334482 L-261.9663377119368 9.944943467811063 L-261.9663377119368 19.906890448728518 L-244.64582963624798 19.035333021251937 L-244.64582963624798 9.073386040334482"/>
		<path opacity="0.75" fill="darkturquoise" d="M-249.64582963624798 8.318595167282748 L-244.64582963624798 9.073386040334482 L-261.9663377119368 9.944943467811063 L-266.9663377119368 9.19015259475933 L-249.64582963624798 8.318595167282748"/>
		<path opacity="0.75" fill="darkturquoise" d="M-249.64582963624798 18.280542148200205 L-244.64582963624798 19.035333021251937 L-261.9663377119368 19.906890448728518 L-266.9663377119368 19.152099575676786 L-249.64582963624798 18.280542148200205"/>
		<text x="-266.9663377119368" y="14.171126085218058" font-family="calibri" font-size="4">10</text>
		<text x="-264.4663377119368" y="19.529495012202652" font-family="calibri" font-size="4">10</text>
		<text x="-258.3060836740924" y="8.754373881021039" font-family="calibri" font-size="4">20</text>

		<path opacity="0.5" fill="orange" d="M-254.62074235133218 -4.7369748708821255 L-238.62074235133218 -2.3216440771165807 L-238.62074235133218 29.556586261819277 L-254.62074235133218 27.141255468053732 L-254.62074235133218 -4.7369748708821255"/>
		<path opacity="0.5" fill="orange" d="M-271.941250427021 -3.865417443405544 L-255.94125042702098 -1.4500866496399993 L-255.94125042702098 30.428143689295858 L-271.941250427021 28.012812895530313 L-271.941250427021 -3.865417443405544"/>
		<path opacity="0.5" fill="orange" d="M-254.62074235133218 -4.7369748708821255 L-271.941250427021 -3.865417443405544 L-271.941250427021 28.012812895530313 L-254.62074235133218 27.141255468053732 L-254.62074235133218 -4.7369748708821255"/>
		<path opacity="0.5" fill="orange" d="M-238.62074235133218 -2.3216440771165807 L-255.94125042702098 -1.4500866496399993 L-255.94125042702098 30.428143689295858 L-238.62074235133218 29.556586261819277 L-238.62074235133218 -2.3216440771165807"/>
		<path opacity="0.5" fill="orange" d="M-254.62074235133218 -4.7369748708821255 L-238.62074235133218 -2.3216440771165807 L-255.94125042702098 -1.4500866496399993 L-271.941250427021 -3.865417443405544 L-254.62074235133218 -4.7369748708821255"/>
		<path opacity="0.5" fill="orange" d="M-254.62074235133218 27.141255468053732 L-238.62074235133218 29.556586261819277 L-255.94125042702098 30.428143689295858 L-271.941250427021 28.012812895530313 L-254.62074235133218 27.141255468053732"/>
		<text x="-271.941250427021" y="12.073697726062385" font-family="calibri" font-size="4">32</text>
		<text x="-263.941250427021" y="29.220478292413084" font-family="calibri" font-size="4">32</text>
		<text x="-263.2809963891766" y="-4.301196157143835" font-family="calibri" font-size="4">20</text>

		<path opacity="0.5" fill="orange" d="M105.34713282184379 7.520894357178522 L109.34713282184379 8.124727055619907 L109.34713282184379 16.09428464035387 L105.34713282184379 15.490451941912486 L105.34713282184379 7.520894357178522"/>
		<path opacity="0.5" fill="orange" d="M49.9215069796397 10.309878125103584 L53.9215069796397 10.913710823544967 L53.9215069796397 18.88326840827893 L49.9215069796397 18.27943570983755 L49.9215069796397 10.309878125103584"/>
		<path opacity="0.5" fill="orange" d="M105.34713282184379 7.520894357178522 L49.9215069796397 10.309878125103584 L49.9215069796397 18.27943570983755 L105.34713282184379 15.490451941912486 L105.34713282184379 7.520894357178522"/>
		<path opacity="0.5" fill="orange" d="M109.34713282184379 8.124727055619907 L53.9215069796397 10.913710823544967 L53.9215069796397 18.88326840827893 L109.34713282184379 16.09428464035387 L109.34713282184379 8.124727055619907"/>
		<path opacity="0.5" fill="orange" d="M105.34713282184379 7.520894357178522 L109.34713282184379 8.124727055619907 L53.9215069796397 10.913710823544967 L49.9215069796397 10.309878125103584 L105.34713282184379 7.520894357178522"/>
		<path opacity="0.5" fill="orange" d="M105.34713282184379 15.490451941912486 L109.34713282184379 16.09428464035387 L53.9215069796397 18.88326840827893 L49.9215069796397 18.27943570983755 L105.34713282184379 15.490451941912486"/>
		<text x="49.9215069796397" y="14.294656917470567" font-family="calibri" font-size="4">8</text>
		<text x="51.9215069796397" y="18.58135205905824" font-family="calibri" font-size="4">8</text>
		<text x="77.63431990074174" y="8.915386241141054" font-family="calibri" font-size="4">64</text>

		<path opacity="0.75" fill="pink" d="M-142.28999955378941 8.864875630921766 L-139.78999955378941 9.242271067447632 L-102.19430760067192 16.297495788578154 L-142.28999955378941 8.864875630921766"/>
		<path opacity="0.75" fill="pink" d="M-142.28999955378941 8.864875630921766 L-142.28999955378941 13.845849121380493 L-102.19430760067192 16.297495788578154 L-142.28999955378941 8.864875630921766"/>
		<path opacity="0.75" fill="pink" d="M-139.78999955378941 9.242271067447632 L-139.78999955378941 14.22324455790636 L-102.19430760067192 16.297495788578154 L-139.78999955378941 9.242271067447632"/>
		<path opacity="0.75" fill="pink" d="M-142.28999955378941 13.845849121380493 L-139.78999955378941 14.22324455790636 L-102.19430760067192 16.297495788578154 L-142.28999955378941 13.845849121380493"/>

		<path opacity="0.75" fill="darkturquoise" d="M-21.412265573089854 13.29383543619426 L-18.912265573089854 13.671230872720127 L-18.912265573089854 18.652204363178853 L-21.412265573089854 18.274808926652987 L-21.412265573089854 13.29383543619426"/>
		<path opacity="0.75" fill="darkturquoise" d="M-76.83789141529391 16.08281920411932 L-74.33789141529391 16.460214640645187 L-74.33789141529391 21.441188131103914 L-76.83789141529391 21.063792694578048 L-76.83789141529391 16.08281920411932"/>
		<path opacity="0.75" fill="darkturquoise" d="M-21.412265573089854 13.29383543619426 L-76.83789141529391 16.08281920411932 L-76.83789141529391 21.063792694578048 L-21.412265573089854 18.274808926652987 L-21.412265573089854 13.29383543619426"/>
		<path opacity="0.75" fill="darkturquoise" d="M-18.912265573089854 13.671230872720127 L-74.33789141529391 16.460214640645187 L-74.33789141529391 21.441188131103914 L-18.912265573089854 18.652204363178853 L-18.912265573089854 13.671230872720127"/>
		<path opacity="0.75" fill="darkturquoise" d="M-21.412265573089854 13.29383543619426 L-18.912265573089854 13.671230872720127 L-74.33789141529391 16.460214640645187 L-76.83789141529391 16.08281920411932 L-21.412265573089854 13.29383543619426"/>
		<path opacity="0.75" fill="darkturquoise" d="M-21.412265573089854 18.274808926652987 L-18.912265573089854 18.652204363178853 L-74.33789141529391 21.441188131103914 L-76.83789141529391 21.063792694578048 L-21.412265573089854 18.274808926652987"/>
		<text x="-76.83789141529391" y="18.573305949348686" font-family="calibri" font-size="4">5</text>
		<text x="-75.58789141529391" y="21.25249041284098" font-family="calibri" font-size="4">5</text>
		<text x="-49.12507849419188" y="14.688327320156791" font-family="calibri" font-size="4">64</text>

		<path opacity="0.5" fill="orange" d="M-23.87976320958225 3.899768575812483 L-15.87976320958225 5.107433972695256 L-15.87976320958225 21.046549142163187 L-23.87976320958225 19.838883745280413 L-23.87976320958225 3.899768575812483"/>
		<path opacity="0.5" fill="orange" d="M-79.3053890517863 6.688752343737543 L-71.3053890517863 7.896417740620317 L-71.3053890517863 23.835532910088247 L-79.3053890517863 22.627867513205473 L-79.3053890517863 6.688752343737543"/>
		<path opacity="0.5" fill="orange" d="M-23.87976320958225 3.899768575812483 L-79.3053890517863 6.688752343737543 L-79.3053890517863 22.627867513205473 L-23.87976320958225 19.838883745280413 L-23.87976320958225 3.899768575812483"/>
		<path opacity="0.5" fill="orange" d="M-15.87976320958225 5.107433972695256 L-71.3053890517863 7.896417740620317 L-71.3053890517863 23.835532910088247 L-15.87976320958225 21.046549142163187 L-15.87976320958225 5.107433972695256"/>
		<path opacity="0.5" fill="orange" d="M-23.87976320958225 3.899768575812483 L-15.87976320958225 5.107433972695256 L-71.3053890517863 7.896417740620317 L-79.3053890517863 6.688752343737543 L-23.87976320958225 3.899768575812483"/>
		<path opacity="0.5" fill="orange" d="M-23.87976320958225 19.838883745280413 L-15.87976320958225 21.046549142163187 L-71.3053890517863 23.835532910088247 L-79.3053890517863 22.627867513205473 L-23.87976320958225 19.838883745280413"/>
		<text x="-79.3053890517863" y="14.658309928471509" font-family="calibri" font-size="4">16</text>
		<text x="-75.3053890517863" y="23.23170021164686" font-family="calibri" font-size="4">16</text>
		<text x="-51.59257613068428" y="5.294260459775013" font-family="calibri" font-size="4">64</text>

		<path opacity="0.75" fill="darkturquoise" d="M-142.28999955378941 8.864875630921766 L-139.78999955378941 9.242271067447632 L-139.78999955378941 14.22324455790636 L-142.28999955378941 13.845849121380493 L-142.28999955378941 8.864875630921766"/>
		<path opacity="0.75" fill="darkturquoise" d="M-170.00281247489147 10.259367514884296 L-167.50281247489147 10.636762951410162 L-167.50281247489147 15.61773644186889 L-170.00281247489147 15.240341005343023 L-170.00281247489147 10.259367514884296"/>
		<path opacity="0.75" fill="darkturquoise" d="M-142.28999955378941 8.864875630921766 L-170.00281247489147 10.259367514884296 L-170.00281247489147 15.240341005343023 L-142.28999955378941 13.845849121380493 L-142.28999955378941 8.864875630921766"/>
		<path opacity="0.75" fill="darkturquoise" d="M-139.78999955378941 9.242271067447632 L-167.50281247489147 10.636762951410162 L-167.50281247489147 15.61773644186889 L-139.78999955378941 14.22324455790636 L-139.78999955378941 9.242271067447632"/>
		<path opacity="0.75" fill="darkturquoise" d="M-142.28999955378941 8.864875630921766 L-139.78999955378941 9.242271067447632 L-167.50281247489147 10.636762951410162 L-170.00281247489147 10.259367514884296 L-142.28999955378941 8.864875630921766"/>
		<path opacity="0.75" fill="darkturquoise" d="M-142.28999955378941 13.845849121380493 L-139.78999955378941 14.22324455790636 L-167.50281247489147 15.61773644186889 L-170.00281247489147 15.240341005343023 L-142.28999955378941 13.845849121380493"/>
		<text x="-170.00281247489147" y="12.74985426011366" font-family="calibri" font-size="4">5</text>
		<text x="-168.75281247489147" y="15.429038723605956" font-family="calibri" font-size="4">5</text>
		<text x="-156.14640601434044" y="9.562121572903031" font-family="calibri" font-size="4">32</text>

		<path opacity="0.5" fill="orange" d="M-155.10665924100823 -4.008052347141232 L-139.10665924100823 -1.5927215533756858 L-139.10665924100823 30.285508785560175 L-155.10665924100823 27.870177991794627 L-155.10665924100823 -4.008052347141232"/>
		<path opacity="0.5" fill="orange" d="M-182.8194721621103 -2.613560463178702 L-166.8194721621103 -0.19822966941315556 L-166.8194721621103 31.680000669522705 L-182.8194721621103 29.264669875757157 L-182.8194721621103 -2.613560463178702"/>
		<path opacity="0.5" fill="orange" d="M-155.10665924100823 -4.008052347141232 L-182.8194721621103 -2.613560463178702 L-182.8194721621103 29.264669875757157 L-155.10665924100823 27.870177991794627 L-155.10665924100823 -4.008052347141232"/>
		<path opacity="0.5" fill="orange" d="M-139.10665924100823 -1.5927215533756858 L-166.8194721621103 -0.19822966941315556 L-166.8194721621103 31.680000669522705 L-139.10665924100823 30.285508785560175 L-139.10665924100823 -1.5927215533756858"/>
		<path opacity="0.5" fill="orange" d="M-155.10665924100823 -4.008052347141232 L-139.10665924100823 -1.5927215533756858 L-166.8194721621103 -0.19822966941315556 L-182.8194721621103 -2.613560463178702 L-155.10665924100823 -4.008052347141232"/>
		<path opacity="0.5" fill="orange" d="M-155.10665924100823 27.870177991794627 L-139.10665924100823 30.285508785560175 L-166.8194721621103 31.680000669522705 L-182.8194721621103 29.264669875757157 L-155.10665924100823 27.870177991794627"/>
		<text x="-182.8194721621103" y="13.325554706289228" font-family="calibri" font-size="4">32</text>
		<text x="-174.8194721621103" y="30.47233527263993" font-family="calibri" font-size="4">32</text>
		<text x="-168.96306570155926" y="-3.3108064051599673" font-family="calibri" font-size="4">32</text>

		<path opacity="0.75" fill="pink" d="M-224.94799783050865 2.2292806068554274 L-219.94799783050865 2.9840714799071613 L-167.47964317501823 20.10049759759544 L-224.94799783050865 2.2292806068554274"/>
		<path opacity="0.75" fill="pink" d="M-224.94799783050865 2.2292806068554274 L-224.94799783050865 12.191227587772882 L-167.47964317501823 20.10049759759544 L-224.94799783050865 2.2292806068554274"/>
		<path opacity="0.75" fill="pink" d="M-219.94799783050865 2.9840714799071613 L-219.94799783050865 12.946018460824616 L-167.47964317501823 20.10049759759544 L-219.94799783050865 2.9840714799071613"/>
		<path opacity="0.75" fill="pink" d="M-224.94799783050865 12.191227587772882 L-219.94799783050865 12.946018460824616 L-167.47964317501823 20.10049759759544 L-224.94799783050865 12.191227587772882"/>

		<path opacity="0.75" fill="pink" d="M6.7443854222360216 8.744937941281286 L9.244385422236022 9.122333377807156 L51.03836866965304 10.879065636987468 L6.7443854222360216 8.744937941281286"/>
		<path opacity="0.75" fill="pink" d="M6.7443854222360216 8.744937941281286 L6.7443854222360216 13.725911431740014 L51.03836866965304 10.879065636987468 L6.7443854222360216 8.744937941281286"/>
		<path opacity="0.75" fill="pink" d="M9.244385422236022 9.122333377807156 L9.244385422236022 14.103306868265882 L51.03836866965304 10.879065636987468 L9.244385422236022 9.122333377807156"/>
		<path opacity="0.75" fill="pink" d="M6.7443854222360216 13.725911431740014 L9.244385422236022 14.103306868265882 L51.03836866965304 10.879065636987468 L6.7443854222360216 13.725911431740014"/>

		<path opacity="0.75" fill="darkturquoise" d="M-224.94799783050865 2.2292806068554274 L-219.94799783050865 2.9840714799071613 L-219.94799783050865 12.946018460824616 L-224.94799783050865 12.191227587772882 L-224.94799783050865 2.2292806068554274"/>
		<path opacity="0.75" fill="darkturquoise" d="M-242.26850590619745 3.1008380343320088 L-237.26850590619745 3.8556289073837426 L-237.26850590619745 13.817575888301198 L-242.26850590619745 13.062785015249464 L-242.26850590619745 3.1008380343320088"/>
		<path opacity="0.75" fill="darkturquoise" d="M-224.94799783050865 2.2292806068554274 L-242.26850590619745 3.1008380343320088 L-242.26850590619745 13.062785015249464 L-224.94799783050865 12.191227587772882 L-224.94799783050865 2.2292806068554274"/>
		<path opacity="0.75" fill="darkturquoise" d="M-219.94799783050865 2.9840714799071613 L-237.26850590619745 3.8556289073837426 L-237.26850590619745 13.817575888301198 L-219.94799783050865 12.946018460824616 L-219.94799783050865 2.9840714799071613"/>
		<path opacity="0.75" fill="darkturquoise" d="M-224.94799783050865 2.2292806068554274 L-219.94799783050865 2.9840714799071613 L-237.26850590619745 3.8556289073837426 L-242.26850590619745 3.1008380343320088 L-224.94799783050865 2.2292806068554274"/>
		<path opacity="0.75" fill="darkturquoise" d="M-224.94799783050865 12.191227587772882 L-219.94799783050865 12.946018460824616 L-237.26850590619745 13.817575888301198 L-242.26850590619745 13.062785015249464 L-224.94799783050865 12.191227587772882"/>
		<text x="-242.26850590619745" y="8.081811524790737" font-family="calibri" font-size="4">10</text>
		<text x="-239.76850590619745" y="13.44018045177533" font-family="calibri" font-size="4">10</text>
		<text x="-233.60825186835305" y="2.665059320593718" font-family="calibri" font-size="4">20</text>

		<path opacity="0.5" fill="orange" d="M-226.12074235133218 -0.43466689448724694 L-210.12074235133218 1.9806638992782997 L-210.12074235133218 33.85889423821416 L-226.12074235133218 31.443563444448614 L-226.12074235133218 -0.43466689448724694"/>
		<path opacity="0.5" fill="orange" d="M-243.44125042702098 0.43689053298933445 L-227.44125042702098 2.852221326754881 L-227.44125042702098 34.73045166569074 L-243.44125042702098 32.315120871925195 L-243.44125042702098 0.43689053298933445"/>
		<path opacity="0.5" fill="orange" d="M-226.12074235133218 -0.43466689448724694 L-243.44125042702098 0.43689053298933445 L-243.44125042702098 32.315120871925195 L-226.12074235133218 31.443563444448614 L-226.12074235133218 -0.43466689448724694"/>
		<path opacity="0.5" fill="orange" d="M-210.12074235133218 1.9806638992782997 L-227.44125042702098 2.852221326754881 L-227.44125042702098 34.73045166569074 L-210.12074235133218 33.85889423821416 L-210.12074235133218 1.9806638992782997"/>
		<path opacity="0.5" fill="orange" d="M-226.12074235133218 -0.43466689448724694 L-210.12074235133218 1.9806638992782997 L-227.44125042702098 2.852221326754881 L-243.44125042702098 0.43689053298933445 L-226.12074235133218 -0.43466689448724694"/>
		<path opacity="0.5" fill="orange" d="M-226.12074235133218 31.443563444448614 L-210.12074235133218 33.85889423821416 L-227.44125042702098 34.73045166569074 L-243.44125042702098 32.315120871925195 L-226.12074235133218 31.443563444448614"/>
		<text x="-243.44125042702098" y="16.376005702457263" font-family="calibri" font-size="4">32</text>
		<text x="-235.44125042702098" y="33.52278626880796" font-family="calibri" font-size="4">32</text>
		<text x="-234.78099638917658" y="0.0011118192510437552" font-family="calibri" font-size="4">20</text>

		<path opacity="0.75" fill="pink" d="M-117.58761647605348 21.1467868682079 L-115.08761647605348 21.52418230473377 L-74.73888816634107 23.086167499169633 L-117.58761647605348 21.1467868682079"/>
		<path opacity="0.75" fill="pink" d="M-117.58761647605348 21.1467868682079 L-117.58761647605348 26.127760358666627 L-74.73888816634107 23.086167499169633 L-117.58761647605348 21.1467868682079"/>
		<path opacity="0.75" fill="pink" d="M-115.08761647605348 21.52418230473377 L-115.08761647605348 26.505155795192493 L-74.73888816634107 23.086167499169633 L-115.08761647605348 21.52418230473377"/>
		<path opacity="0.75" fill="pink" d="M-117.58761647605348 26.127760358666627 L-115.08761647605348 26.505155795192493 L-74.73888816634107 23.086167499169633 L-117.58761647605348 26.127760358666627"/>

		<path opacity="0.75" fill="darkturquoise" d="M-117.58761647605348 21.1467868682079 L-115.08761647605348 21.52418230473377 L-115.08761647605348 26.505155795192493 L-117.58761647605348 26.127760358666627 L-117.58761647605348 21.1467868682079"/>
		<path opacity="0.75" fill="darkturquoise" d="M-145.30042939715554 22.54127875217043 L-142.80042939715554 22.9186741886963 L-142.80042939715554 27.899647679155024 L-145.30042939715554 27.522252242629158 L-145.30042939715554 22.54127875217043"/>
		<path opacity="0.75" fill="darkturquoise" d="M-117.58761647605348 21.1467868682079 L-145.30042939715554 22.54127875217043 L-145.30042939715554 27.522252242629158 L-117.58761647605348 26.127760358666627 L-117.58761647605348 21.1467868682079"/>
		<path opacity="0.75" fill="darkturquoise" d="M-115.08761647605348 21.52418230473377 L-142.80042939715554 22.9186741886963 L-142.80042939715554 27.899647679155024 L-115.08761647605348 26.505155795192493 L-115.08761647605348 21.52418230473377"/>
		<path opacity="0.75" fill="darkturquoise" d="M-117.58761647605348 21.1467868682079 L-115.08761647605348 21.52418230473377 L-142.80042939715554 22.9186741886963 L-145.30042939715554 22.54127875217043 L-117.58761647605348 21.1467868682079"/>
		<path opacity="0.75" fill="darkturquoise" d="M-117.58761647605348 26.127760358666627 L-115.08761647605348 26.505155795192493 L-142.80042939715554 27.899647679155024 L-145.30042939715554 27.522252242629158 L-117.58761647605348 26.127760358666627"/>
		<text x="-145.30042939715554" y="25.031765497399796" font-family="calibri" font-size="4">5</text>
		<text x="-144.05042939715554" y="27.71094996089209" font-family="calibri" font-size="4">5</text>
		<text x="-131.4440229366045" y="21.844032810189166" font-family="calibri" font-size="4">32</text>

		<path opacity="0.5" fill="orange" d="M-126.60665924100823 0.294255629253648 L-110.60665924100823 2.7095864230191946 L-110.60665924100823 34.587816761955054 L-126.60665924100823 32.172485968189505 L-126.60665924100823 0.294255629253648"/>
		<path opacity="0.5" fill="orange" d="M-154.3194721621103 1.6887475132161782 L-138.3194721621103 4.104078306981725 L-138.3194721621103 35.982308645917584 L-154.3194721621103 33.566977852152036 L-154.3194721621103 1.6887475132161782"/>
		<path opacity="0.5" fill="orange" d="M-126.60665924100823 0.294255629253648 L-154.3194721621103 1.6887475132161782 L-154.3194721621103 33.566977852152036 L-126.60665924100823 32.172485968189505 L-126.60665924100823 0.294255629253648"/>
		<path opacity="0.5" fill="orange" d="M-110.60665924100823 2.7095864230191946 L-138.3194721621103 4.104078306981725 L-138.3194721621103 35.982308645917584 L-110.60665924100823 34.587816761955054 L-110.60665924100823 2.7095864230191946"/>
		<path opacity="0.5" fill="orange" d="M-126.60665924100823 0.294255629253648 L-110.60665924100823 2.7095864230191946 L-138.3194721621103 4.104078306981725 L-154.3194721621103 1.6887475132161782 L-126.60665924100823 0.294255629253648"/>
		<path opacity="0.5" fill="orange" d="M-126.60665924100823 32.172485968189505 L-110.60665924100823 34.587816761955054 L-138.3194721621103 35.982308645917584 L-154.3194721621103 33.566977852152036 L-126.60665924100823 32.172485968189505"/>
		<text x="-154.3194721621103" y="17.627862682684107" font-family="calibri" font-size="4">32</text>
		<text x="-146.3194721621103" y="34.77464324903481" font-family="calibri" font-size="4">32</text>
		<text x="-140.46306570155926" y="0.9915015712349131" font-family="calibri" font-size="4">32</text>

		<path opacity="0.75" fill="darkturquoise" d="M6.7443854222360216 8.744937941281286 L9.244385422236022 9.122333377807156 L9.244385422236022 14.103306868265882 L6.7443854222360216 13.725911431740014 L6.7443854222360216 8.744937941281286"/>
		<path opacity="0.75" fill="darkturquoise" d="M-48.68124041996805 11.533921709206346 L-46.18124041996805 11.911317145732216 L-46.18124041996805 16.892290636190943 L-48.68124041996805 16.514895199665077 L-48.68124041996805 11.533921709206346"/>
		<path opacity="0.75" fill="darkturquoise" d="M6.7443854222360216 8.744937941281286 L-48.68124041996805 11.533921709206346 L-48.68124041996805 16.514895199665077 L6.7443854222360216 13.725911431740014 L6.7443854222360216 8.744937941281286"/>
		<path opacity="0.75" fill="darkturquoise" d="M9.244385422236022 9.122333377807156 L-46.18124041996805 11.911317145732216 L-46.18124041996805 16.892290636190943 L9.244385422236022 14.103306868265882 L9.244385422236022 9.122333377807156"/>
		<path opacity="0.75" fill="darkturquoise" d="M6.7443854222360216 8.744937941281286 L9.244385422236022 9.122333377807156 L-46.18124041996805 11.911317145732216 L-48.68124041996805 11.533921709206346 L6.7443854222360216 8.744937941281286"/>
		<path opacity="0.75" fill="darkturquoise" d="M6.7443854222360216 13.725911431740014 L9.244385422236022 14.103306868265882 L-46.18124041996805 16.892290636190943 L-48.68124041996805 16.514895199665077 L6.7443854222360216 13.725911431740014"/>
		<text x="-48.68124041996805" y="14.024408454435711" font-family="calibri" font-size="4">5</text>
		<text x="-47.43124041996805" y="16.70359291792801" font-family="calibri" font-size="4">5</text>
		<text x="-20.968427498866014" y="10.139429825243816" font-family="calibri" font-size="4">64</text>

		<path opacity="0.5" fill="orange" d="M4.6202367904177635 8.202076552207362 L12.620236790417763 9.409741949090135 L12.620236790417763 25.348857118558062 L4.6202367904177635 24.14119172167529 L4.6202367904177635 8.202076552207362"/>
		<path opacity="0.5" fill="orange" d="M-50.80538905178628 10.991060320132423 L-42.80538905178628 12.198725717015195 L-42.80538905178628 28.137840886483122 L-50.80538905178628 26.93017548960035 L-50.80538905178628 10.991060320132423"/>
		<path opacity="0.5" fill="orange" d="M4.6202367904177635 8.202076552207362 L-50.80538905178628 10.991060320132423 L-50.80538905178628 26.93017548960035 L4.6202367904177635 24.14119172167529 L4.6202367904177635 8.202076552207362"/>
		<path opacity="0.5" fill="orange" d="M12.620236790417763 9.409741949090135 L-42.80538905178628 12.198725717015195 L-42.80538905178628 28.137840886483122 L12.620236790417763 25.348857118558062 L12.620236790417763 9.409741949090135"/>
		<path opacity="0.5" fill="orange" d="M4.6202367904177635 8.202076552207362 L12.620236790417763 9.409741949090135 L-42.80538905178628 12.198725717015195 L-50.80538905178628 10.991060320132423 L4.6202367904177635 8.202076552207362"/>
		<path opacity="0.5" fill="orange" d="M4.6202367904177635 24.14119172167529 L12.620236790417763 25.348857118558062 L-42.80538905178628 28.137840886483122 L-50.80538905178628 26.93017548960035 L4.6202367904177635 24.14119172167529"/>
		<text x="-50.80538905178628" y="18.96061790486639" font-family="calibri" font-size="4">16</text>
		<text x="-46.80538905178628" y="27.53400818804174" font-family="calibri" font-size="4">16</text>
		<text x="-23.092576130684257" y="9.596568436169893" font-family="calibri" font-size="4">64</text>

		<path opacity="0.75" fill="pink" d="M-194.35488000941632 20.324980772261316 L-189.35488000941632 21.07977164531305 L-145.2176790424224 19.462347882385856 L-194.35488000941632 20.324980772261316"/>
		<path opacity="0.75" fill="pink" d="M-194.35488000941632 20.324980772261316 L-194.35488000941632 30.286927753178773 L-145.2176790424224 19.462347882385856 L-194.35488000941632 20.324980772261316"/>
		<path opacity="0.75" fill="pink" d="M-189.35488000941632 21.07977164531305 L-189.35488000941632 31.041718626230505 L-145.2176790424224 19.462347882385856 L-189.35488000941632 21.07977164531305"/>
		<path opacity="0.75" fill="pink" d="M-194.35488000941632 30.286927753178773 L-189.35488000941632 31.041718626230505 L-145.2176790424224 19.462347882385856 L-194.35488000941632 30.286927753178773"/>

		<path opacity="0.75" fill="darkturquoise" d="M-194.35488000941632 20.324980772261316 L-189.35488000941632 21.07977164531305 L-189.35488000941632 31.041718626230505 L-194.35488000941632 30.286927753178773 L-194.35488000941632 20.324980772261316"/>
		<path opacity="0.75" fill="darkturquoise" d="M-211.6753880851051 21.196538199737898 L-206.6753880851051 21.95132907278963 L-206.6753880851051 31.913276053707087 L-211.6753880851051 31.158485180655354 L-211.6753880851051 21.196538199737898"/>
		<path opacity="0.75" fill="darkturquoise" d="M-194.35488000941632 20.324980772261316 L-211.6753880851051 21.196538199737898 L-211.6753880851051 31.158485180655354 L-194.35488000941632 30.286927753178773 L-194.35488000941632 20.324980772261316"/>
		<path opacity="0.75" fill="darkturquoise" d="M-189.35488000941632 21.07977164531305 L-206.6753880851051 21.95132907278963 L-206.6753880851051 31.913276053707087 L-189.35488000941632 31.041718626230505 L-189.35488000941632 21.07977164531305"/>
		<path opacity="0.75" fill="darkturquoise" d="M-194.35488000941632 20.324980772261316 L-189.35488000941632 21.07977164531305 L-206.6753880851051 21.95132907278963 L-211.6753880851051 21.196538199737898 L-194.35488000941632 20.324980772261316"/>
		<path opacity="0.75" fill="darkturquoise" d="M-194.35488000941632 30.286927753178773 L-189.35488000941632 31.041718626230505 L-206.6753880851051 31.913276053707087 L-211.6753880851051 31.158485180655354 L-194.35488000941632 30.286927753178773"/>
		<text x="-211.6753880851051" y="26.177511690196624" font-family="calibri" font-size="4">10</text>
		<text x="-209.1753880851051" y="31.53588061718122" font-family="calibri" font-size="4">10</text>
		<text x="-203.01513404726072" y="20.760759485999607" font-family="calibri" font-size="4">20</text>

		<path opacity="0.5" fill="orange" d="M-197.62074235133218 3.8676410819076334 L-181.62074235133218 6.28297187567318 L-181.62074235133218 38.161202214609034 L-197.62074235133218 35.74587142084349 L-197.62074235133218 3.8676410819076334"/>
		<path opacity="0.5" fill="orange" d="M-214.94125042702098 4.739198509384215 L-198.94125042702098 7.154529303149761 L-198.94125042702098 39.03275964208562 L-214.94125042702098 36.617428848320074 L-214.94125042702098 4.739198509384215"/>
		<path opacity="0.5" fill="orange" d="M-197.62074235133218 3.8676410819076334 L-214.94125042702098 4.739198509384215 L-214.94125042702098 36.617428848320074 L-197.62074235133218 35.74587142084349 L-197.62074235133218 3.8676410819076334"/>
		<path opacity="0.5" fill="orange" d="M-181.62074235133218 6.28297187567318 L-198.94125042702098 7.154529303149761 L-198.94125042702098 39.03275964208562 L-181.62074235133218 38.161202214609034 L-181.62074235133218 6.28297187567318"/>
		<path opacity="0.5" fill="orange" d="M-197.62074235133218 3.8676410819076334 L-181.62074235133218 6.28297187567318 L-198.94125042702098 7.154529303149761 L-214.94125042702098 4.739198509384215 L-197.62074235133218 3.8676410819076334"/>
		<path opacity="0.5" fill="orange" d="M-197.62074235133218 35.74587142084349 L-181.62074235133218 38.161202214609034 L-198.94125042702098 39.03275964208562 L-214.94125042702098 36.617428848320074 L-197.62074235133218 35.74587142084349"/>
		<text x="-214.94125042702098" y="20.678313678852145" font-family="calibri" font-size="4">32</text>
		<text x="-206.94125042702098" y="37.82509424520285" font-family="calibri" font-size="4">32</text>
		<text x="-206.28099638917658" y="4.303419795645924" font-family="calibri" font-size="4">20</text>

		<path opacity="0.75" fill="pink" d="M-86.3592701433858 27.793909591907507 L-83.8592701433858 28.171305028433373 L-48.34476929832687 25.227947522079916 L-86.3592701433858 27.793909591907507"/>
		<path opacity="0.75" fill="pink" d="M-86.3592701433858 27.793909591907507 L-86.3592701433858 32.77488308236623 L-48.34476929832687 25.227947522079916 L-86.3592701433858 27.793909591907507"/>
		<path opacity="0.75" fill="pink" d="M-83.8592701433858 28.171305028433373 L-83.8592701433858 33.152278518892096 L-48.34476929832687 25.227947522079916 L-83.8592701433858 28.171305028433373"/>
		<path opacity="0.75" fill="pink" d="M-86.3592701433858 32.77488308236623 L-83.8592701433858 33.152278518892096 L-48.34476929832687 25.227947522079916 L-86.3592701433858 32.77488308236623"/>

		<path opacity="0.75" fill="darkturquoise" d="M-86.3592701433858 27.793909591907507 L-83.8592701433858 28.171305028433373 L-83.8592701433858 33.152278518892096 L-86.3592701433858 32.77488308236623 L-86.3592701433858 27.793909591907507"/>
		<path opacity="0.75" fill="darkturquoise" d="M-114.07208306448786 29.188401475870037 L-111.57208306448786 29.565796912395903 L-111.57208306448786 34.54677040285463 L-114.07208306448786 34.16937496632876 L-114.07208306448786 29.188401475870037"/>
		<path opacity="0.75" fill="darkturquoise" d="M-86.3592701433858 27.793909591907507 L-114.07208306448786 29.188401475870037 L-114.07208306448786 34.16937496632876 L-86.3592701433858 32.77488308236623 L-86.3592701433858 27.793909591907507"/>
		<path opacity="0.75" fill="darkturquoise" d="M-83.8592701433858 28.171305028433373 L-111.57208306448786 29.565796912395903 L-111.57208306448786 34.54677040285463 L-83.8592701433858 33.152278518892096 L-83.8592701433858 28.171305028433373"/>
		<path opacity="0.75" fill="darkturquoise" d="M-86.3592701433858 27.793909591907507 L-83.8592701433858 28.171305028433373 L-111.57208306448786 29.565796912395903 L-114.07208306448786 29.188401475870037 L-86.3592701433858 27.793909591907507"/>
		<path opacity="0.75" fill="darkturquoise" d="M-86.3592701433858 32.77488308236623 L-83.8592701433858 33.152278518892096 L-111.57208306448786 34.54677040285463 L-114.07208306448786 34.16937496632876 L-86.3592701433858 32.77488308236623"/>
		<text x="-114.07208306448786" y="31.6788882210994" font-family="calibri" font-size="4">5</text>
		<text x="-112.82208306448786" y="34.35807268459169" font-family="calibri" font-size="4">5</text>
		<text x="-100.21567660393683" y="28.491155533888772" font-family="calibri" font-size="4">32</text>

		<path opacity="0.5" fill="orange" d="M-98.10665924100823 4.596563605648527 L-82.10665924100823 7.011894399414073 L-82.10665924100823 38.89012473834993 L-98.10665924100823 36.474793944584384 L-98.10665924100823 4.596563605648527"/>
		<path opacity="0.5" fill="orange" d="M-125.81947216211029 5.991055489611057 L-109.81947216211029 8.406386283376603 L-109.81947216211029 40.28461662231246 L-125.81947216211029 37.869285828546914 L-125.81947216211029 5.991055489611057"/>
		<path opacity="0.5" fill="orange" d="M-98.10665924100823 4.596563605648527 L-125.81947216211029 5.991055489611057 L-125.81947216211029 37.869285828546914 L-98.10665924100823 36.474793944584384 L-98.10665924100823 4.596563605648527"/>
		<path opacity="0.5" fill="orange" d="M-82.10665924100823 7.011894399414073 L-109.81947216211029 8.406386283376603 L-109.81947216211029 40.28461662231246 L-82.10665924100823 38.89012473834993 L-82.10665924100823 7.011894399414073"/>
		<path opacity="0.5" fill="orange" d="M-98.10665924100823 4.596563605648527 L-82.10665924100823 7.011894399414073 L-109.81947216211029 8.406386283376603 L-125.81947216211029 5.991055489611057 L-98.10665924100823 4.596563605648527"/>
		<path opacity="0.5" fill="orange" d="M-98.10665924100823 36.474793944584384 L-82.10665924100823 38.89012473834993 L-109.81947216211029 40.28461662231246 L-125.81947216211029 37.869285828546914 L-98.10665924100823 36.474793944584384"/>
		<text x="-125.81947216211029" y="21.930170659078986" font-family="calibri" font-size="4">32</text>
		<text x="-117.81947216211029" y="39.07695122542969" font-family="calibri" font-size="4">32</text>
		<text x="-111.96306570155926" y="5.293809547629792" font-family="calibri" font-size="4">32</text>

		<path opacity="0.75" fill="pink" d="M-166.3550396372625 9.593277111979177 L-161.3550396372625 10.348067985030909 L-121.88150775229559 17.78021793523992 L-166.3550396372625 9.593277111979177"/>
		<path opacity="0.75" fill="pink" d="M-166.3550396372625 9.593277111979177 L-166.3550396372625 19.55522409289663 L-121.88150775229559 17.78021793523992 L-166.3550396372625 9.593277111979177"/>
		<path opacity="0.75" fill="pink" d="M-161.3550396372625 10.348067985030909 L-161.3550396372625 20.310014965948362 L-121.88150775229559 17.78021793523992 L-161.3550396372625 10.348067985030909"/>
		<path opacity="0.75" fill="pink" d="M-166.3550396372625 19.55522409289663 L-161.3550396372625 20.310014965948362 L-121.88150775229559 17.78021793523992 L-166.3550396372625 19.55522409289663"/>

		<path opacity="0.75" fill="darkturquoise" d="M-166.3550396372625 9.593277111979177 L-161.3550396372625 10.348067985030909 L-161.3550396372625 20.310014965948362 L-166.3550396372625 19.55522409289663 L-166.3550396372625 9.593277111979177"/>
		<path opacity="0.75" fill="darkturquoise" d="M-183.67554771295136 10.464834539455758 L-178.67554771295136 11.21962541250749 L-178.67554771295136 21.181572393424943 L-183.67554771295136 20.42678152037321 L-183.67554771295136 10.464834539455758"/>
		<path opacity="0.75" fill="darkturquoise" d="M-166.3550396372625 9.593277111979177 L-183.67554771295136 10.464834539455758 L-183.67554771295136 20.42678152037321 L-166.3550396372625 19.55522409289663 L-166.3550396372625 9.593277111979177"/>
		<path opacity="0.75" fill="darkturquoise" d="M-161.3550396372625 10.348067985030909 L-178.67554771295136 11.21962541250749 L-178.67554771295136 21.181572393424943 L-161.3550396372625 20.310014965948362 L-161.3550396372625 10.348067985030909"/>
		<path opacity="0.75" fill="darkturquoise" d="M-166.3550396372625 9.593277111979177 L-161.3550396372625 10.348067985030909 L-178.67554771295136 11.21962541250749 L-183.67554771295136 10.464834539455758 L-166.3550396372625 9.593277111979177"/>
		<path opacity="0.75" fill="darkturquoise" d="M-166.3550396372625 19.55522409289663 L-161.3550396372625 20.310014965948362 L-178.67554771295136 21.181572393424943 L-183.67554771295136 20.42678152037321 L-166.3550396372625 19.55522409289663"/>
		<text x="-183.67554771295136" y="15.445808029914485" font-family="calibri" font-size="4">10</text>
		<text x="-181.17554771295136" y="20.804176956899077" font-family="calibri" font-size="4">10</text>
		<text x="-175.01529367510693" y="10.029055825717467" font-family="calibri" font-size="4">20</text>

		<path opacity="0.5" fill="orange" d="M-169.12074235133218 8.169949058302512 L-153.12074235133218 10.585279852068059 L-153.12074235133218 42.46351019100392 L-169.12074235133218 40.04817939723837 L-169.12074235133218 8.169949058302512"/>
		<path opacity="0.5" fill="orange" d="M-186.44125042702098 9.041506485779093 L-170.44125042702098 11.45683727954464 L-170.44125042702098 43.335067618480494 L-186.44125042702098 40.91973682471495 L-186.44125042702098 9.041506485779093"/>
		<path opacity="0.5" fill="orange" d="M-169.12074235133218 8.169949058302512 L-186.44125042702098 9.041506485779093 L-186.44125042702098 40.91973682471495 L-169.12074235133218 40.04817939723837 L-169.12074235133218 8.169949058302512"/>
		<path opacity="0.5" fill="orange" d="M-153.12074235133218 10.585279852068059 L-170.44125042702098 11.45683727954464 L-170.44125042702098 43.335067618480494 L-153.12074235133218 42.46351019100392 L-153.12074235133218 10.585279852068059"/>
		<path opacity="0.5" fill="orange" d="M-169.12074235133218 8.169949058302512 L-153.12074235133218 10.585279852068059 L-170.44125042702098 11.45683727954464 L-186.44125042702098 9.041506485779093 L-169.12074235133218 8.169949058302512"/>
		<path opacity="0.5" fill="orange" d="M-169.12074235133218 40.04817939723837 L-153.12074235133218 42.46351019100392 L-170.44125042702098 43.335067618480494 L-186.44125042702098 40.91973682471495 L-169.12074235133218 40.04817939723837"/>
		<text x="-186.44125042702098" y="24.980621655247024" font-family="calibri" font-size="4">32</text>
		<text x="-178.44125042702098" y="42.12740222159772" font-family="calibri" font-size="4">32</text>
		<text x="-177.78099638917658" y="8.605727772040803" font-family="calibri" font-size="4">20</text>

	 </g>
</svg>