<svg width="100%" height="100%" viewBox="-220.9512146747806 -338.90698604072065 549.4024293495611 485.7290355909024" xmlns="http://www.w3.org/2000/svg">
	<g stroke="black" stroke-width="0.3">

<!-- Arrow -->
		<path opacity="0.5" stroke="black" d="M267.9896904477142 -59.34936490538904 L311.2909606369362 -71.84936490538902" stroke-linecap="square"/>
		<circle opacity="0.5" cx="311.2909606369362" cy="-71.84936490538902" r="1" fill="black" />
		<path opacity="0.75" fill="darkturquoise" d="M317.45121467478054 -293.0207793609598 L322.45121467478054 -288.6906523420376 L322.45121467478054 144.32204955018176 L317.45121467478054 139.99192253125955 L317.45121467478054 -293.0207793609598" stroke-linecap="square"/>
		<path opacity="0.75" fill="darkturquoise" d="M308.7909606369362 -290.5207793609598 L313.7909606369362 -286.1906523420376 L313.7909606369362 146.82204955018176 L308.7909606369362 142.49192253125955 L308.7909606369362 -290.5207793609598" stroke-linecap="square"/>
		<path opacity="0.75" fill="darkturquoise" d="M317.45121467478054 -293.0207793609598 L308.7909606369362 -290.5207793609598 L308.7909606369362 142.49192253125955 L317.45121467478054 139.99192253125955 L317.45121467478054 -293.0207793609598" stroke-linecap="square"/>
		<path opacity="0.75" fill="darkturquoise" d="M322.45121467478054 -288.6906523420376 L313.7909606369362 -286.1906523420376 L313.7909606369362 146.82204955018176 L322.45121467478054 144.32204955018176 L322.45121467478054 -288.6906523420376" stroke-linecap="square"/>
		<path opacity="0.75" fill="darkturquoise" d="M317.45121467478054 -293.0207793609598 L322.45121467478054 -288.6906523420376 L313.7909606369362 -286.1906523420376 L308.7909606369362 -290.5207793609598 L317.45121467478054 -293.0207793609598" stroke-linecap="square"/>
		<path opacity="0.75" fill="darkturquoise" d="M317.45121467478054 139.99192253125955 L322.45121467478054 144.32204955018176 L313.7909606369362 146.82204955018176 L308.7909606369362 142.49192253125955 L317.45121467478054 139.99192253125955" stroke-linecap="square"/>
		<text style="fill:black;font-family:calibri;font-size:6" x="308.7909606369362" y="-74.01442841485013" >500</text>
		<text style="fill:black;font-family:calibri;font-size:6" x="311.2909606369362" y="144.65698604072065" >10</text>
		<text style="fill:black;font-family:calibri;font-size:6" x="313.12108765585833" y="-291.7707793609598" >10</text>

<!-- Arrow -->
		<path opacity="0.5" stroke="black" d="M216.02816622064793 -44.349364905389045 L259.32943640986986 -56.84936490538904" stroke-linecap="square"/>
		<circle opacity="0.5" cx="259.32943640986986" cy="-56.84936490538904" r="1" fill="black" />
		<path opacity="0.75" fill="darkturquoise" d="M265.4896904477142 -234.71950917173788 L270.4896904477142 -230.38938215281567 L270.4896904477142 116.0207793609598 L265.4896904477142 111.6906523420376 L265.4896904477142 -234.71950917173788" stroke-linecap="square"/>
		<path opacity="0.75" fill="darkturquoise" d="M256.82943640986986 -232.21950917173788 L261.82943640986986 -227.88938215281567 L261.82943640986986 118.5207793609598 L256.82943640986986 114.1906523420376 L256.82943640986986 -232.21950917173788" stroke-linecap="square"/>
		<path opacity="0.75" fill="darkturquoise" d="M265.4896904477142 -234.71950917173788 L256.82943640986986 -232.21950917173788 L256.82943640986986 114.1906523420376 L265.4896904477142 111.6906523420376 L265.4896904477142 -234.71950917173788" stroke-linecap="square"/>
		<path opacity="0.75" fill="darkturquoise" d="M270.4896904477142 -230.38938215281567 L261.82943640986986 -227.88938215281567 L261.82943640986986 118.5207793609598 L270.4896904477142 116.0207793609598 L270.4896904477142 -230.38938215281567" stroke-linecap="square"/>
		<path opacity="0.75" fill="darkturquoise" d="M265.4896904477142 -234.71950917173788 L270.4896904477142 -230.38938215281567 L261.82943640986986 -227.88938215281567 L256.82943640986986 -232.21950917173788 L265.4896904477142 -234.71950917173788" stroke-linecap="square"/>
		<path opacity="0.75" fill="darkturquoise" d="M265.4896904477142 111.6906523420376 L270.4896904477142 116.0207793609598 L261.82943640986986 118.5207793609598 L256.82943640986986 114.1906523420376 L265.4896904477142 111.6906523420376" stroke-linecap="square"/>
		<text style="fill:black;font-family:calibri;font-size:6" x="256.82943640986986" y="-59.014428414850144" >400</text>
		<text style="fill:black;font-family:calibri;font-size:6" x="259.32943640986986" y="116.3557158514987" >10</text>
		<text style="fill:black;font-family:calibri;font-size:6" x="261.159563428792" y="-233.46950917173788" >10</text>

<!-- Arrow -->
		<path opacity="0.5" stroke="black" d="M75.10511776651529 -46.39230484541326 L155.40638795573722 -26.84936490538903" stroke-linecap="square"/>
		<circle opacity="0.5" cx="155.40638795573722" cy="-26.84936490538903" r="1" fill="black" />
<!-- Arrow -->
		<path opacity="0.5" stroke="black" d="M164.0666419935816 -29.34936490538903 L207.36791218280354 -41.849364905389045" stroke-linecap="square"/>
		<circle opacity="0.5" cx="207.36791218280354" cy="-41.849364905389045" r="1" fill="black" />
		<path opacity="0.5" fill="orange" d="M72.10511776651529 -52.45448267190433 L78.10511776651529 -47.2583302491977 L78.10511776651529 -40.330127018922184 L72.10511776651529 -45.526279441628816 L72.10511776651529 -52.45448267190433" stroke-linecap="square"/>
		<path opacity="0.5" fill="orange" d="M9.751288694035708 -34.45448267190433 L15.751288694035708 -29.258330249197698 L15.751288694035708 -22.330127018922187 L9.751288694035708 -27.52627944162882 L9.751288694035708 -34.45448267190433" stroke-linecap="square"/>
		<path opacity="0.5" fill="orange" d="M72.10511776651529 -52.45448267190433 L9.751288694035708 -34.45448267190433 L9.751288694035708 -27.52627944162882 L72.10511776651529 -45.526279441628816 L72.10511776651529 -52.45448267190433" stroke-linecap="square"/>
		<path opacity="0.5" fill="orange" d="M78.10511776651529 -47.2583302491977 L15.751288694035708 -29.258330249197698 L15.751288694035708 -22.330127018922187 L78.10511776651529 -40.330127018922184 L78.10511776651529 -47.2583302491977" stroke-linecap="square"/>
		<path opacity="0.5" fill="orange" d="M72.10511776651529 -52.45448267190433 L78.10511776651529 -47.2583302491977 L15.751288694035708 -29.258330249197698 L9.751288694035708 -34.45448267190433 L72.10511776651529 -52.45448267190433" stroke-linecap="square"/>
		<path opacity="0.5" fill="orange" d="M72.10511776651529 -45.526279441628816 L78.10511776651529 -40.330127018922184 L15.751288694035708 -22.330127018922187 L9.751288694035708 -27.52627944162882 L72.10511776651529 -45.526279441628816" stroke-linecap="square"/>
		<text style="fill:black;font-family:calibri;font-size:6" x="9.751288694035708" y="-30.990381056766573" >8</text>
		<text style="fill:black;font-family:calibri;font-size:6" x="12.751288694035708" y="-24.928203230275503" >12</text>
		<text style="fill:black;font-family:calibri;font-size:6" x="40.9282032302755" y="-43.45448267190433" >72</text>

		<path opacity="0.75" fill="darkturquoise" d="M213.52816622064793 -176.41823898251593 L218.52816622064793 -172.08811196359375 L218.52816622064793 87.71950917173788 L213.52816622064793 83.38938215281567 L213.52816622064793 -176.41823898251593" stroke-linecap="square"/>
		<path opacity="0.75" fill="darkturquoise" d="M204.86791218280354 -173.91823898251593 L209.86791218280354 -169.58811196359375 L209.86791218280354 90.21950917173788 L204.86791218280354 85.88938215281567 L204.86791218280354 -173.91823898251593" stroke-linecap="square"/>
		<path opacity="0.75" fill="darkturquoise" d="M213.52816622064793 -176.41823898251593 L204.86791218280354 -173.91823898251593 L204.86791218280354 85.88938215281567 L213.52816622064793 83.38938215281567 L213.52816622064793 -176.41823898251593" stroke-linecap="square"/>
		<path opacity="0.75" fill="darkturquoise" d="M218.52816622064793 -172.08811196359375 L209.86791218280354 -169.58811196359375 L209.86791218280354 90.21950917173788 L218.52816622064793 87.71950917173788 L218.52816622064793 -172.08811196359375" stroke-linecap="square"/>
		<path opacity="0.75" fill="darkturquoise" d="M213.52816622064793 -176.41823898251593 L218.52816622064793 -172.08811196359375 L209.86791218280354 -169.58811196359375 L204.86791218280354 -173.91823898251593 L213.52816622064793 -176.41823898251593" stroke-linecap="square"/>
		<path opacity="0.75" fill="darkturquoise" d="M213.52816622064793 83.38938215281567 L218.52816622064793 87.71950917173788 L209.86791218280354 90.21950917173788 L204.86791218280354 85.88938215281567 L213.52816622064793 83.38938215281567" stroke-linecap="square"/>
		<text style="fill:black;font-family:calibri;font-size:6" x="204.86791218280354" y="-44.01442841485013" >300</text>
		<text style="fill:black;font-family:calibri;font-size:6" x="207.36791218280354" y="88.05444566227678" >10</text>
		<text style="fill:black;font-family:calibri;font-size:6" x="209.19803920172575" y="-175.16823898251593" >10</text>

		<path opacity="0.75" fill="darkturquoise" d="M161.5666419935816 -118.11696879329399 L166.5666419935816 -113.7868417743718 L166.5666419935816 59.41823898251593 L161.5666419935816 55.08811196359375 L161.5666419935816 -118.11696879329399" stroke-linecap="square"/>
		<path opacity="0.75" fill="darkturquoise" d="M152.90638795573722 -115.61696879329399 L157.90638795573722 -111.2868417743718 L157.90638795573722 61.91823898251593 L152.90638795573722 57.58811196359375 L152.90638795573722 -115.61696879329399" stroke-linecap="square"/>
		<path opacity="0.75" fill="darkturquoise" d="M161.5666419935816 -118.11696879329399 L152.90638795573722 -115.61696879329399 L152.90638795573722 57.58811196359375 L161.5666419935816 55.08811196359375 L161.5666419935816 -118.11696879329399" stroke-linecap="square"/>
		<path opacity="0.75" fill="darkturquoise" d="M166.5666419935816 -113.7868417743718 L157.90638795573722 -111.2868417743718 L157.90638795573722 61.91823898251593 L166.5666419935816 59.41823898251593 L166.5666419935816 -113.7868417743718" stroke-linecap="square"/>
		<path opacity="0.75" fill="darkturquoise" d="M161.5666419935816 -118.11696879329399 L166.5666419935816 -113.7868417743718 L157.90638795573722 -111.2868417743718 L152.90638795573722 -115.61696879329399 L161.5666419935816 -118.11696879329399" stroke-linecap="square"/>
		<path opacity="0.75" fill="darkturquoise" d="M161.5666419935816 55.08811196359375 L166.5666419935816 59.41823898251593 L157.90638795573722 61.91823898251593 L152.90638795573722 57.58811196359375 L161.5666419935816 55.08811196359375" stroke-linecap="square"/>
		<text style="fill:black;font-family:calibri;font-size:6" x="152.90638795573722" y="-29.014428414850123" >200</text>
		<text style="fill:black;font-family:calibri;font-size:6" x="155.40638795573722" y="59.75317547305484" >10</text>
		<text style="fill:black;font-family:calibri;font-size:6" x="157.23651497465943" y="-116.86696879329399" >10</text>

		<path opacity="0.75" fill="pink" d="M-30.575633982689254 -20.093238662083383 L-25.575633982689254 -15.763111643161192 L10.441342212435998 -31.14870897684191 L-30.575633982689254 -20.093238662083383"/>
		<path opacity="0.75" fill="pink" d="M-30.575633982689254 -20.093238662083383 L-30.575633982689254 -11.432984624238998 L10.441342212435998 -31.14870897684191 L-30.575633982689254 -20.093238662083383"/>
		<path opacity="0.75" fill="pink" d="M-25.575633982689254 -15.763111643161192 L-25.575633982689254 -7.102857605316807 L10.441342212435998 -31.14870897684191 L-25.575633982689254 -15.763111643161192"/>
		<path opacity="0.75" fill="pink" d="M-30.575633982689254 -11.432984624238998 L-25.575633982689254 -7.102857605316807 L10.441342212435998 -31.14870897684191 L-30.575633982689254 -11.432984624238998"/>

		<text style="fill:black;font-family:calibri;font-size:6" x="-15.236641917647503" y="-30.120973819462648" >[10,10]</text>
		<path opacity="0.75" fill="darkturquoise" d="M-30.575633982689254 -20.093238662083383 L-25.575633982689254 -15.763111643161192 L-25.575633982689254 -7.102857605316807 L-30.575633982689254 -11.432984624238998 L-30.575633982689254 -20.093238662083383" stroke-linecap="square"/>
		<path opacity="0.75" fill="darkturquoise" d="M-86.00125982489331 -4.093238662083383 L-81.00125982489331 0.23688835683880782 L-81.00125982489331 8.897142394683193 L-86.00125982489331 4.567015375761002 L-86.00125982489331 -4.093238662083383" stroke-linecap="square"/>
		<path opacity="0.75" fill="darkturquoise" d="M-30.575633982689254 -20.093238662083383 L-86.00125982489331 -4.093238662083383 L-86.00125982489331 4.567015375761002 L-30.575633982689254 -11.432984624238998 L-30.575633982689254 -20.093238662083383" stroke-linecap="square"/>
		<path opacity="0.75" fill="darkturquoise" d="M-25.575633982689254 -15.763111643161192 L-81.00125982489331 0.23688835683880782 L-81.00125982489331 8.897142394683193 L-25.575633982689254 -7.102857605316807 L-25.575633982689254 -15.763111643161192" stroke-linecap="square"/>
		<path opacity="0.75" fill="darkturquoise" d="M-30.575633982689254 -20.093238662083383 L-25.575633982689254 -15.763111643161192 L-81.00125982489331 0.23688835683880782 L-86.00125982489331 -4.093238662083383 L-30.575633982689254 -20.093238662083383" stroke-linecap="square"/>
		<path opacity="0.75" fill="darkturquoise" d="M-30.575633982689254 -11.432984624238998 L-25.575633982689254 -7.102857605316807 L-81.00125982489331 8.897142394683193 L-86.00125982489331 4.567015375761002 L-30.575633982689254 -11.432984624238998" stroke-linecap="square"/>
		<path opacity="0.5" fill="orange" d="M-36.549981495186216 -28.0166604983954 L-24.549981495186216 -17.624355652982135 L-24.549981495186216 -3.767949192431118 L-36.549981495186216 -14.160254037844382 L-36.549981495186216 -28.0166604983954" stroke-linecap="square"/>
		<path opacity="0.5" fill="orange" d="M-91.9756073373903 -12.0166604983954 L-79.9756073373903 -1.6243556529821355 L-79.9756073373903 12.232050807568882 L-91.9756073373903 1.839745962155618 L-91.9756073373903 -12.0166604983954" stroke-linecap="square"/>
		<path opacity="0.5" fill="orange" d="M-36.549981495186216 -28.0166604983954 L-91.9756073373903 -12.0166604983954 L-91.9756073373903 1.839745962155618 L-36.549981495186216 -14.160254037844382 L-36.549981495186216 -28.0166604983954" stroke-linecap="square"/>
		<path opacity="0.5" fill="orange" d="M-24.549981495186216 -17.624355652982135 L-79.9756073373903 -1.6243556529821355 L-79.9756073373903 12.232050807568882 L-24.549981495186216 -3.767949192431118 L-24.549981495186216 -17.624355652982135" stroke-linecap="square"/>
		<path opacity="0.5" fill="orange" d="M-36.549981495186216 -28.0166604983954 L-24.549981495186216 -17.624355652982135 L-79.9756073373903 -1.6243556529821355 L-91.9756073373903 -12.0166604983954 L-36.549981495186216 -28.0166604983954" stroke-linecap="square"/>
		<path opacity="0.5" fill="orange" d="M-36.549981495186216 -14.160254037844382 L-24.549981495186216 -3.767949192431118 L-79.9756073373903 12.232050807568882 L-91.9756073373903 1.839745962155618 L-36.549981495186216 -14.160254037844382" stroke-linecap="square"/>
		<text style="fill:black;font-family:calibri;font-size:6" x="-91.9756073373903" y="-5.088457268119891" >16</text>
		<text style="fill:black;font-family:calibri;font-size:6" x="-85.9756073373903" y="7.03589838486225" >24</text>
		<text style="fill:black;font-family:calibri;font-size:6" x="-64.26279441628826" y="-20.0166604983954" >64</text>

<!-- Arrow -->
		<path opacity="0.5" stroke="black" d="M149.10511776651532 17.693575034635195 L155.40638795573722 -26.84936490538903" stroke-linecap="square"/>
		<circle opacity="0.5" cx="155.40638795573722" cy="-26.84936490538903" r="1" fill="black" />
		<path opacity="0.75" fill="pink" d="M-137.32784992281614 4.723984179347202 L-134.82784992281614 6.889047688808301 L-86.0472283279473 -3.8966488831775017 L-137.32784992281614 4.723984179347202"/>
		<path opacity="0.75" fill="pink" d="M-137.32784992281614 4.723984179347202 L-137.32784992281614 9.054111198269396 L-86.0472283279473 -3.8966488831775017 L-137.32784992281614 4.723984179347202"/>
		<path opacity="0.75" fill="pink" d="M-134.82784992281614 6.889047688808301 L-134.82784992281614 11.219174707730495 L-86.0472283279473 -3.8966488831775017 L-134.82784992281614 6.889047688808301"/>
		<path opacity="0.75" fill="pink" d="M-137.32784992281614 9.054111198269396 L-134.82784992281614 11.219174707730495 L-86.0472283279473 -3.8966488831775017 L-137.32784992281614 9.054111198269396"/>

		<text style="fill:black;font-family:calibri;font-size:6" x="-119.40097605785986" y="-4.08633235191515" >[5,5]</text>
		<path opacity="0.75" fill="darkturquoise" d="M-137.32784992281614 4.723984179347202 L-134.82784992281614 6.889047688808301 L-134.82784992281614 11.219174707730495 L-137.32784992281614 9.054111198269396 L-137.32784992281614 4.723984179347202" stroke-linecap="square"/>
		<path opacity="0.75" fill="darkturquoise" d="M-165.04066284391817 12.723984179347198 L-162.54066284391817 14.889047688808304 L-162.54066284391817 19.219174707730495 L-165.04066284391817 17.054111198269396 L-165.04066284391817 12.723984179347198" stroke-linecap="square"/>
		<path opacity="0.75" fill="darkturquoise" d="M-137.32784992281614 4.723984179347202 L-165.04066284391817 12.723984179347198 L-165.04066284391817 17.054111198269396 L-137.32784992281614 9.054111198269396 L-137.32784992281614 4.723984179347202" stroke-linecap="square"/>
		<path opacity="0.75" fill="darkturquoise" d="M-134.82784992281614 6.889047688808301 L-162.54066284391817 14.889047688808304 L-162.54066284391817 19.219174707730495 L-134.82784992281614 11.219174707730495 L-134.82784992281614 6.889047688808301" stroke-linecap="square"/>
		<path opacity="0.75" fill="darkturquoise" d="M-137.32784992281614 4.723984179347202 L-134.82784992281614 6.889047688808301 L-162.54066284391817 14.889047688808304 L-165.04066284391817 12.723984179347198 L-137.32784992281614 4.723984179347202" stroke-linecap="square"/>
		<path opacity="0.75" fill="darkturquoise" d="M-137.32784992281614 9.054111198269396 L-134.82784992281614 11.219174707730495 L-162.54066284391817 19.219174707730495 L-165.04066284391817 17.054111198269396 L-137.32784992281614 9.054111198269396" stroke-linecap="square"/>
		<path opacity="0.5" fill="orange" d="M-141.27687752661222 -11.641016151377535 L-117.27687752661222 9.143593539448986 L-117.27687752661222 36.85640646055103 L-141.27687752661222 16.071796769724507 L-141.27687752661222 -11.641016151377535" stroke-linecap="square"/>
		<path opacity="0.5" fill="orange" d="M-168.98969044771428 -3.641016151377535 L-144.98969044771425 17.143593539448986 L-144.98969044771425 44.85640646055103 L-168.98969044771428 24.071796769724507 L-168.98969044771428 -3.641016151377535" stroke-linecap="square"/>
		<path opacity="0.5" fill="orange" d="M-141.27687752661222 -11.641016151377535 L-168.98969044771428 -3.641016151377535 L-168.98969044771428 24.071796769724507 L-141.27687752661222 16.071796769724507 L-141.27687752661222 -11.641016151377535" stroke-linecap="square"/>
		<path opacity="0.5" fill="orange" d="M-117.27687752661222 9.143593539448986 L-144.98969044771425 17.143593539448986 L-144.98969044771425 44.85640646055103 L-117.27687752661222 36.85640646055103 L-117.27687752661222 9.143593539448986" stroke-linecap="square"/>
		<path opacity="0.5" fill="orange" d="M-141.27687752661222 -11.641016151377535 L-117.27687752661222 9.143593539448986 L-144.98969044771425 17.143593539448986 L-168.98969044771428 -3.641016151377535 L-141.27687752661222 -11.641016151377535" stroke-linecap="square"/>
		<path opacity="0.5" fill="orange" d="M-141.27687752661222 16.071796769724507 L-117.27687752661222 36.85640646055103 L-144.98969044771425 44.85640646055103 L-168.98969044771428 24.071796769724507 L-141.27687752661222 16.071796769724507" stroke-linecap="square"/>
		<text style="fill:black;font-family:calibri;font-size:6" x="-168.98969044771428" y="10.215390309173486" >32</text>
		<text style="fill:black;font-family:calibri;font-size:6" x="-156.98969044771428" y="34.464101615137764" >48</text>
		<text style="fill:black;font-family:calibri;font-size:6" x="-155.13328398716325" y="-7.641016151377535" >32</text>

		<path opacity="0.75" fill="pink" d="M-211.61032659848547 28.32032361125205 L-206.61032659848547 32.65045063017425 L-154.82427219394302 20.453066931534906 L-211.61032659848547 28.32032361125205"/>
		<path opacity="0.75" fill="pink" d="M-211.61032659848547 28.32032361125205 L-211.61032659848547 36.98057764909643 L-154.82427219394302 20.453066931534906 L-211.61032659848547 28.32032361125205"/>
		<path opacity="0.75" fill="pink" d="M-206.61032659848547 32.65045063017425 L-206.61032659848547 41.31070466801863 L-154.82427219394302 20.453066931534906 L-206.61032659848547 32.65045063017425"/>
		<path opacity="0.75" fill="pink" d="M-211.61032659848547 36.98057764909643 L-206.61032659848547 41.31070466801863 L-154.82427219394302 20.453066931534906 L-211.61032659848547 36.98057764909643"/>

		<text style="fill:black;font-family:calibri;font-size:6" x="-191.01497513030463" y="19.886695271393478" >[10,10]</text>
		<path opacity="0.5" fill="orange" d="M146.10511776651532 11.631397208144122 L152.10511776651532 16.827549630850754 L152.10511776651532 23.75575286112627 L146.10511776651532 18.559600438419636 L146.10511776651532 11.631397208144122" stroke-linecap="square"/>
		<path opacity="0.5" fill="orange" d="M83.75128869403572 29.631397208144122 L89.75128869403572 34.827549630850754 L89.75128869403572 41.75575286112627 L83.75128869403572 36.559600438419636 L83.75128869403572 29.631397208144122" stroke-linecap="square"/>
		<path opacity="0.5" fill="orange" d="M146.10511776651532 11.631397208144122 L83.75128869403572 29.631397208144122 L83.75128869403572 36.559600438419636 L146.10511776651532 18.559600438419636 L146.10511776651532 11.631397208144122" stroke-linecap="square"/>
		<path opacity="0.5" fill="orange" d="M152.10511776651532 16.827549630850754 L89.75128869403572 34.827549630850754 L89.75128869403572 41.75575286112627 L152.10511776651532 23.75575286112627 L152.10511776651532 16.827549630850754" stroke-linecap="square"/>
		<path opacity="0.5" fill="orange" d="M146.10511776651532 11.631397208144122 L152.10511776651532 16.827549630850754 L89.75128869403572 34.827549630850754 L83.75128869403572 29.631397208144122 L146.10511776651532 11.631397208144122" stroke-linecap="square"/>
		<path opacity="0.5" fill="orange" d="M146.10511776651532 18.559600438419636 L152.10511776651532 23.75575286112627 L89.75128869403572 41.75575286112627 L83.75128869403572 36.559600438419636 L146.10511776651532 18.559600438419636" stroke-linecap="square"/>
		<text style="fill:black;font-family:calibri;font-size:6" x="83.75128869403572" y="33.09549882328188" >8</text>
		<text style="fill:black;font-family:calibri;font-size:6" x="86.75128869403572" y="39.15767664977295" >12</text>
		<text style="fill:black;font-family:calibri;font-size:6" x="114.92820323027553" y="20.631397208144122" >72</text>

		<path opacity="0.75" fill="darkturquoise" d="M-211.61032659848547 28.32032361125205 L-206.61032659848547 32.65045063017425 L-206.61032659848547 41.31070466801863 L-211.61032659848547 36.98057764909643 L-211.61032659848547 28.32032361125205" stroke-linecap="square"/>
		<path opacity="0.75" fill="darkturquoise" d="M-220.27058063632984 30.82032361125205 L-215.27058063632984 35.15045063017425 L-215.27058063632984 43.81070466801863 L-220.27058063632984 39.48057764909643 L-220.27058063632984 30.82032361125205" stroke-linecap="square"/>
		<path opacity="0.75" fill="darkturquoise" d="M-211.61032659848547 28.32032361125205 L-220.27058063632984 30.82032361125205 L-220.27058063632984 39.48057764909643 L-211.61032659848547 36.98057764909643 L-211.61032659848547 28.32032361125205" stroke-linecap="square"/>
		<path opacity="0.75" fill="darkturquoise" d="M-206.61032659848547 32.65045063017425 L-215.27058063632984 35.15045063017425 L-215.27058063632984 43.81070466801863 L-206.61032659848547 41.31070466801863 L-206.61032659848547 32.65045063017425" stroke-linecap="square"/>
		<path opacity="0.75" fill="darkturquoise" d="M-211.61032659848547 28.32032361125205 L-206.61032659848547 32.65045063017425 L-215.27058063632984 35.15045063017425 L-220.27058063632984 30.82032361125205 L-211.61032659848547 28.32032361125205" stroke-linecap="square"/>
		<path opacity="0.75" fill="darkturquoise" d="M-211.61032659848547 36.98057764909643 L-206.61032659848547 41.31070466801863 L-215.27058063632984 43.81070466801863 L-220.27058063632984 39.48057764909643 L-211.61032659848547 36.98057764909643" stroke-linecap="square"/>
		<path opacity="0.5" fill="lavender" d="M-212.29096063693618 8.858983848622465 L-188.29096063693618 29.643593539448986 L-188.29096063693618 57.35640646055103 L-212.29096063693618 36.57179676972451 L-212.29096063693618 8.858983848622465" stroke-linecap="square"/>
		<path opacity="0.5" fill="lavender" d="M-220.9512146747806 11.358983848622465 L-196.9512146747806 32.143593539448986 L-196.9512146747806 59.85640646055103 L-220.9512146747806 39.0717967697245 L-220.9512146747806 11.358983848622465" stroke-linecap="square"/>
		<path opacity="0.5" fill="lavender" d="M-212.29096063693618 8.858983848622465 L-220.9512146747806 11.358983848622465 L-220.9512146747806 39.0717967697245 L-212.29096063693618 36.57179676972451 L-212.29096063693618 8.858983848622465" stroke-linecap="square"/>
		<path opacity="0.5" fill="lavender" d="M-188.29096063693618 29.643593539448986 L-196.9512146747806 32.143593539448986 L-196.9512146747806 59.85640646055103 L-188.29096063693618 57.35640646055103 L-188.29096063693618 29.643593539448986" stroke-linecap="square"/>
		<path opacity="0.5" fill="lavender" d="M-212.29096063693618 8.858983848622465 L-188.29096063693618 29.643593539448986 L-196.9512146747806 32.143593539448986 L-220.9512146747806 11.358983848622465 L-212.29096063693618 8.858983848622465" stroke-linecap="square"/>
		<path opacity="0.5" fill="lavender" d="M-212.29096063693618 36.57179676972451 L-188.29096063693618 57.35640646055103 L-196.9512146747806 59.85640646055103 L-220.9512146747806 39.0717967697245 L-212.29096063693618 36.57179676972451" stroke-linecap="square"/>
		<text style="fill:black;font-family:calibri;font-size:6" x="-220.9512146747806" y="25.215390309173483" >32</text>
		<text style="fill:black;font-family:calibri;font-size:6" x="-208.9512146747806" y="49.464101615137764" >48</text>
		<text style="fill:black;font-family:calibri;font-size:6" x="-216.6210876558584" y="10.108983848622465" >10</text>

		<path opacity="0.75" fill="pink" d="M42.35151053385517 45.01289833114001 L47.35151053385517 49.343025350062206 L83.75876887747577 32.3517877485627 L42.35151053385517 45.01289833114001"/>
		<path opacity="0.75" fill="pink" d="M42.35151053385517 45.01289833114001 L42.35151053385517 53.673152368984404 L83.75876887747577 32.3517877485627 L42.35151053385517 45.01289833114001"/>
		<path opacity="0.75" fill="pink" d="M47.35151053385517 49.343025350062206 L47.35151053385517 58.00327938790659 L83.75876887747577 32.3517877485627 L47.35151053385517 49.343025350062206"/>
		<path opacity="0.75" fill="pink" d="M42.35151053385517 53.673152368984404 L47.35151053385517 58.00327938790659 L83.75876887747577 32.3517877485627 L42.35151053385517 53.673152368984404"/>

		<text style="fill:black;font-family:calibri;font-size:6" x="57.82059664839537" y="34.182343039851354" >[10,10]</text>
		<path opacity="0.75" fill="darkturquoise" d="M42.35151053385517 45.01289833114001 L47.35151053385517 49.343025350062206 L47.35151053385517 58.00327938790659 L42.35151053385517 53.673152368984404 L42.35151053385517 45.01289833114001" stroke-linecap="square"/>
		<path opacity="0.75" fill="darkturquoise" d="M-13.074115308348894 61.01289833114001 L-8.074115308348894 65.3430253500622 L-8.074115308348894 74.00327938790659 L-13.074115308348894 69.6731523689844 L-13.074115308348894 61.01289833114001" stroke-linecap="square"/>
		<path opacity="0.75" fill="darkturquoise" d="M42.35151053385517 45.01289833114001 L-13.074115308348894 61.01289833114001 L-13.074115308348894 69.6731523689844 L42.35151053385517 53.673152368984404 L42.35151053385517 45.01289833114001" stroke-linecap="square"/>
		<path opacity="0.75" fill="darkturquoise" d="M47.35151053385517 49.343025350062206 L-8.074115308348894 65.3430253500622 L-8.074115308348894 74.00327938790659 L47.35151053385517 58.00327938790659 L47.35151053385517 49.343025350062206" stroke-linecap="square"/>
		<path opacity="0.75" fill="darkturquoise" d="M42.35151053385517 45.01289833114001 L47.35151053385517 49.343025350062206 L-8.074115308348894 65.3430253500622 L-13.074115308348894 61.01289833114001 L42.35151053385517 45.01289833114001" stroke-linecap="square"/>
		<path opacity="0.75" fill="darkturquoise" d="M42.35151053385517 53.673152368984404 L47.35151053385517 58.00327938790659 L-8.074115308348894 74.00327938790659 L-13.074115308348894 69.6731523689844 L42.35151053385517 53.673152368984404" stroke-linecap="square"/>
		<path opacity="0.5" fill="orange" d="M37.45001850481379 36.069219381653056 L49.45001850481379 46.46152422706632 L49.45001850481379 60.317930687617334 L37.45001850481379 49.92562584220407 L37.45001850481379 36.069219381653056" stroke-linecap="square"/>
		<path opacity="0.5" fill="orange" d="M-17.975607337390272 52.069219381653056 L-5.975607337390272 62.46152422706632 L-5.975607337390272 76.31793068761733 L-17.975607337390272 65.92562584220407 L-17.975607337390272 52.069219381653056" stroke-linecap="square"/>
		<path opacity="0.5" fill="orange" d="M37.45001850481379 36.069219381653056 L-17.975607337390272 52.069219381653056 L-17.975607337390272 65.92562584220407 L37.45001850481379 49.92562584220407 L37.45001850481379 36.069219381653056" stroke-linecap="square"/>
		<path opacity="0.5" fill="orange" d="M49.45001850481379 46.46152422706632 L-5.975607337390272 62.46152422706632 L-5.975607337390272 76.31793068761733 L49.45001850481379 60.317930687617334 L49.45001850481379 46.46152422706632" stroke-linecap="square"/>
		<path opacity="0.5" fill="orange" d="M37.45001850481379 36.069219381653056 L49.45001850481379 46.46152422706632 L-5.975607337390272 62.46152422706632 L-17.975607337390272 52.069219381653056 L37.45001850481379 36.069219381653056" stroke-linecap="square"/>
		<path opacity="0.5" fill="orange" d="M37.45001850481379 49.92562584220407 L49.45001850481379 60.317930687617334 L-5.975607337390272 76.31793068761733 L-17.975607337390272 65.92562584220407 L37.45001850481379 49.92562584220407" stroke-linecap="square"/>
		<text style="fill:black;font-family:calibri;font-size:6" x="-17.975607337390272" y="58.99742261192856" >16</text>
		<text style="fill:black;font-family:calibri;font-size:6" x="-11.975607337390272" y="71.1217782649107" >24</text>
		<text style="fill:black;font-family:calibri;font-size:6" x="9.73720558371176" y="44.069219381653056" >64</text>

		<path opacity="0.75" fill="pink" d="M-47.375140166929555 92.02290863504848 L-44.875140166929555 94.18797214450957 L-8.851161926232635 64.94934061877638 L-47.375140166929555 92.02290863504848"/>
		<path opacity="0.75" fill="pink" d="M-47.375140166929555 92.02290863504848 L-47.375140166929555 96.35303565397066 L-8.851161926232635 64.94934061877638 L-47.375140166929555 92.02290863504848"/>
		<path opacity="0.75" fill="pink" d="M-44.875140166929555 94.18797214450957 L-44.875140166929555 98.51809916343177 L-8.851161926232635 64.94934061877638 L-44.875140166929555 94.18797214450957"/>
		<path opacity="0.75" fill="pink" d="M-47.375140166929555 96.35303565397066 L-44.875140166929555 98.51809916343177 L-8.851161926232635 64.94934061877638 L-47.375140166929555 96.35303565397066"/>

		<text style="fill:black;font-family:calibri;font-size:6" x="-33.70048075336391" y="73.98612462691243" >[5,5]</text>
		<path opacity="0.75" fill="darkturquoise" d="M-47.375140166929555 92.02290863504848 L-44.875140166929555 94.18797214450957 L-44.875140166929555 98.51809916343177 L-47.375140166929555 96.35303565397066 L-47.375140166929555 92.02290863504848" stroke-linecap="square"/>
		<path opacity="0.75" fill="darkturquoise" d="M-75.08795308803158 100.02290863504848 L-72.58795308803158 102.18797214450957 L-72.58795308803158 106.51809916343177 L-75.08795308803158 104.35303565397066 L-75.08795308803158 100.02290863504848" stroke-linecap="square"/>
		<path opacity="0.75" fill="darkturquoise" d="M-47.375140166929555 92.02290863504848 L-75.08795308803158 100.02290863504848 L-75.08795308803158 104.35303565397066 L-47.375140166929555 96.35303565397066 L-47.375140166929555 92.02290863504848" stroke-linecap="square"/>
		<path opacity="0.75" fill="darkturquoise" d="M-44.875140166929555 94.18797214450957 L-72.58795308803158 102.18797214450957 L-72.58795308803158 106.51809916343177 L-44.875140166929555 98.51809916343177 L-44.875140166929555 94.18797214450957" stroke-linecap="square"/>
		<path opacity="0.75" fill="darkturquoise" d="M-47.375140166929555 92.02290863504848 L-44.875140166929555 94.18797214450957 L-72.58795308803158 102.18797214450957 L-75.08795308803158 100.02290863504848 L-47.375140166929555 92.02290863504848" stroke-linecap="square"/>
		<path opacity="0.75" fill="darkturquoise" d="M-47.375140166929555 96.35303565397066 L-44.875140166929555 98.51809916343177 L-72.58795308803158 106.51809916343177 L-75.08795308803158 104.35303565397066 L-47.375140166929555 96.35303565397066" stroke-linecap="square"/>
		<path opacity="0.5" fill="orange" d="M-67.27687752661222 52.44486372867091 L-43.27687752661221 73.22947341949742 L-43.27687752661221 100.94228634059948 L-67.27687752661222 80.15767664977295 L-67.27687752661222 52.44486372867091" stroke-linecap="square"/>
		<path opacity="0.5" fill="orange" d="M-94.98969044771425 60.44486372867091 L-70.98969044771422 81.22947341949742 L-70.98969044771422 108.94228634059948 L-94.98969044771425 88.15767664977295 L-94.98969044771425 60.44486372867091" stroke-linecap="square"/>
		<path opacity="0.5" fill="orange" d="M-67.27687752661222 52.44486372867091 L-94.98969044771425 60.44486372867091 L-94.98969044771425 88.15767664977295 L-67.27687752661222 80.15767664977295 L-67.27687752661222 52.44486372867091" stroke-linecap="square"/>
		<path opacity="0.5" fill="orange" d="M-43.27687752661221 73.22947341949742 L-70.98969044771422 81.22947341949742 L-70.98969044771422 108.94228634059948 L-43.27687752661221 100.94228634059948 L-43.27687752661221 73.22947341949742" stroke-linecap="square"/>
		<path opacity="0.5" fill="orange" d="M-67.27687752661222 52.44486372867091 L-43.27687752661221 73.22947341949742 L-70.98969044771422 81.22947341949742 L-94.98969044771425 60.44486372867091 L-67.27687752661222 52.44486372867091" stroke-linecap="square"/>
		<path opacity="0.5" fill="orange" d="M-67.27687752661222 80.15767664977295 L-43.27687752661221 100.94228634059948 L-70.98969044771422 108.94228634059948 L-94.98969044771425 88.15767664977295 L-67.27687752661222 80.15767664977295" stroke-linecap="square"/>
		<text style="fill:black;font-family:calibri;font-size:6" x="-94.98969044771425" y="74.30127018922192" >32</text>
		<text style="fill:black;font-family:calibri;font-size:6" x="-82.98969044771424" y="98.54998149518622" >48</text>
		<text style="fill:black;font-family:calibri;font-size:6" x="-81.13328398716324" y="56.44486372867091" >32</text>

		<path opacity="0.75" fill="pink" d="M-123.85594125698117 96.45851005950735 L-118.85594125698117 100.78863707842953 L-76.28318794818006 78.33738883829382 L-123.85594125698117 96.45851005950735"/>
		<path opacity="0.75" fill="pink" d="M-123.85594125698117 96.45851005950735 L-123.85594125698117 105.11876409735174 L-76.28318794818006 78.33738883829382 L-123.85594125698117 96.45851005950735"/>
		<path opacity="0.75" fill="pink" d="M-118.85594125698117 100.78863707842953 L-118.85594125698117 109.4488911162739 L-76.28318794818006 78.33738883829382 L-118.85594125698117 100.78863707842953"/>
		<path opacity="0.75" fill="pink" d="M-123.85594125698117 105.11876409735174 L-118.85594125698117 109.4488911162739 L-76.28318794818006 78.33738883829382 L-123.85594125698117 105.11876409735174"/>

		<text style="fill:black;font-family:calibri;font-size:6" x="-106.33169015404746" y="82.89794944890059" >[10,10]</text>
		<path opacity="0.75" fill="darkturquoise" d="M-123.85594125698117 96.45851005950735 L-118.85594125698117 100.78863707842953 L-118.85594125698117 109.4488911162739 L-123.85594125698117 105.11876409735174 L-123.85594125698117 96.45851005950735" stroke-linecap="square"/>
		<path opacity="0.75" fill="darkturquoise" d="M-132.51619529482556 98.95851005950735 L-127.51619529482556 103.28863707842953 L-127.51619529482556 111.9488911162739 L-132.51619529482556 107.61876409735174 L-132.51619529482556 98.95851005950735" stroke-linecap="square"/>
		<path opacity="0.75" fill="darkturquoise" d="M-123.85594125698117 96.45851005950735 L-132.51619529482556 98.95851005950735 L-132.51619529482556 107.61876409735174 L-123.85594125698117 105.11876409735174 L-123.85594125698117 96.45851005950735" stroke-linecap="square"/>
		<path opacity="0.75" fill="darkturquoise" d="M-118.85594125698117 100.78863707842953 L-127.51619529482556 103.28863707842953 L-127.51619529482556 111.9488911162739 L-118.85594125698117 109.4488911162739 L-118.85594125698117 100.78863707842953" stroke-linecap="square"/>
		<path opacity="0.75" fill="darkturquoise" d="M-123.85594125698117 96.45851005950735 L-118.85594125698117 100.78863707842953 L-127.51619529482556 103.28863707842953 L-132.51619529482556 98.95851005950735 L-123.85594125698117 96.45851005950735" stroke-linecap="square"/>
		<path opacity="0.75" fill="darkturquoise" d="M-123.85594125698117 105.11876409735174 L-118.85594125698117 109.4488911162739 L-127.51619529482556 111.9488911162739 L-132.51619529482556 107.61876409735174 L-123.85594125698117 105.11876409735174" stroke-linecap="square"/>
		<path opacity="0.5" fill="lavender" d="M-138.29096063693618 72.94486372867091 L-114.29096063693618 93.72947341949742 L-114.29096063693618 121.44228634059948 L-138.29096063693618 100.65767664977295 L-138.29096063693618 72.94486372867091" stroke-linecap="square"/>
		<path opacity="0.5" fill="lavender" d="M-146.95121467478057 75.44486372867091 L-122.95121467478054 96.22947341949742 L-122.95121467478054 123.94228634059948 L-146.95121467478057 103.15767664977295 L-146.95121467478057 75.44486372867091" stroke-linecap="square"/>
		<path opacity="0.5" fill="lavender" d="M-138.29096063693618 72.94486372867091 L-146.95121467478057 75.44486372867091 L-146.95121467478057 103.15767664977295 L-138.29096063693618 100.65767664977295 L-138.29096063693618 72.94486372867091" stroke-linecap="square"/>
		<path opacity="0.5" fill="lavender" d="M-114.29096063693618 93.72947341949742 L-122.95121467478054 96.22947341949742 L-122.95121467478054 123.94228634059948 L-114.29096063693618 121.44228634059948 L-114.29096063693618 93.72947341949742" stroke-linecap="square"/>
		<path opacity="0.5" fill="lavender" d="M-138.29096063693618 72.94486372867091 L-114.29096063693618 93.72947341949742 L-122.95121467478054 96.22947341949742 L-146.95121467478057 75.44486372867091 L-138.29096063693618 72.94486372867091" stroke-linecap="square"/>
		<path opacity="0.5" fill="lavender" d="M-138.29096063693618 100.65767664977295 L-114.29096063693618 121.44228634059948 L-122.95121467478054 123.94228634059948 L-146.95121467478057 103.15767664977295 L-138.29096063693618 100.65767664977295" stroke-linecap="square"/>
		<text style="fill:black;font-family:calibri;font-size:6" x="-146.95121467478057" y="89.30127018922192" >32</text>
		<text style="fill:black;font-family:calibri;font-size:6" x="-134.95121467478054" y="113.54998149518622" >48</text>
		<text style="fill:black;font-family:calibri;font-size:6" x="-142.6210876558584" y="74.19486372867091" >10</text>

	 </g>
</svg>