<svg width="500.0px" height="500.0px" viewBox="-251.44125042702103 -177.45607040843177 500.0 500.0" xmlns="http://www.w3.org/2000/svg">
	<g stroke="black" stroke-width="0.3">
		<path opacity="0.5" fill="orange" d="M386.5470588025886 -101.19421938165306 L390.5470588025886 -97.73011776651529 L390.5470588025886 -90.80191453623979 L386.5470588025886 -94.26601615137753 L386.5470588025886 -101.19421938165306"/>
		<path opacity="0.5" fill="orange" d="M331.12143296038454 -85.19421938165306 L335.12143296038454 -81.73011776651529 L335.12143296038454 -74.80191453623979 L331.12143296038454 -78.26601615137753 L331.12143296038454 -85.19421938165306"/>
		<path opacity="0.5" fill="orange" d="M386.5470588025886 -101.19421938165306 L331.12143296038454 -85.19421938165306 L331.12143296038454 -78.26601615137753 L386.5470588025886 -94.26601615137753 L386.5470588025886 -101.19421938165306"/>
		<path opacity="0.5" fill="orange" d="M390.5470588025886 -97.73011776651529 L335.12143296038454 -81.73011776651529 L335.12143296038454 -74.80191453623979 L390.5470588025886 -90.80191453623979 L390.5470588025886 -97.73011776651529"/>
		<path opacity="0.5" fill="orange" d="M386.5470588025886 -101.19421938165306 L390.5470588025886 -97.73011776651529 L335.12143296038454 -81.73011776651529 L331.12143296038454 -85.19421938165306 L386.5470588025886 -101.19421938165306"/>
		<path opacity="0.5" fill="orange" d="M386.5470588025886 -94.26601615137753 L390.5470588025886 -90.80191453623979 L335.12143296038454 -74.80191453623979 L331.12143296038454 -78.26601615137753 L386.5470588025886 -94.26601615137753"/>
		<text x="331.12143296038454" y="-81.73011776651529" font-family="calibri" font-size="6">8</text>
		<text x="333.12143296038454" y="-76.53396534380866" font-family="calibri" font-size="6">8</text>
		<text x="358.8342458814866" y="-93.19421938165306" font-family="calibri" font-size="6">64</text>

		<path opacity="0.75" fill="darkturquoise" d="M591.941250427021 -171.45607040843177 L596.941250427021 -167.1259433895096 L596.941250427021 6.079137367378181 L591.941250427021 1.7490103484559825 L591.941250427021 -171.45607040843177"/>
		<path opacity="0.75" fill="darkturquoise" d="M583.2809963891766 -168.95607040843177 L588.2809963891766 -164.6259433895096 L588.2809963891766 8.57913736737818 L583.2809963891766 4.2490103484559825 L583.2809963891766 -168.95607040843177"/>
		<path opacity="0.75" fill="darkturquoise" d="M591.941250427021 -171.45607040843177 L583.2809963891766 -168.95607040843177 L583.2809963891766 4.2490103484559825 L591.941250427021 1.7490103484559825 L591.941250427021 -171.45607040843177"/>
		<path opacity="0.75" fill="darkturquoise" d="M596.941250427021 -167.1259433895096 L588.2809963891766 -164.6259433895096 L588.2809963891766 8.57913736737818 L596.941250427021 6.079137367378181 L596.941250427021 -167.1259433895096"/>
		<path opacity="0.75" fill="darkturquoise" d="M591.941250427021 -171.45607040843177 L596.941250427021 -167.1259433895096 L588.2809963891766 -164.6259433895096 L583.2809963891766 -168.95607040843177 L591.941250427021 -171.45607040843177"/>
		<path opacity="0.75" fill="darkturquoise" d="M591.941250427021 1.7490103484559825 L596.941250427021 6.079137367378181 L588.2809963891766 8.57913736737818 L583.2809963891766 4.2490103484559825 L591.941250427021 1.7490103484559825"/>
		<text x="583.2809963891766" y="-82.3535300299879" font-family="calibri" font-size="6">200</text>
		<text x="585.7809963891766" y="6.4140738579170815" font-family="calibri" font-size="6">10</text>
		<text x="587.6111234080988" y="-170.20607040843177" font-family="calibri" font-size="6">10</text>

<!-- Arrow -->
		<path opacity="0.5" stroke="black" d="M542.4797261999547 -67.68846652052682 L585.7809963891766 -80.18846652052682"/>
		<circle opacity="0.5" cx="585.7809963891766" cy="-80.18846652052682" r="1" fill="black" />
<!-- Arrow -->
		<path opacity="0.5" stroke="black" d="M388.5470588025886 -95.99806695894642 L481.85794793504397 -50.1884665205268"/>
		<circle opacity="0.5" cx="481.85794793504397" cy="-50.1884665205268" r="1" fill="black" />
		<path opacity="0.5" fill="orange" d="M160.08364779650316 -84.31728634059947 L164.08364779650316 -80.8531847254617 L164.08364779650316 -73.9249814951862 L160.08364779650316 -77.38908311032397 L160.08364779650316 -84.31728634059947"/>
		<path opacity="0.5" fill="orange" d="M104.6580219542991 -68.31728634059947 L108.6580219542991 -64.8531847254617 L108.6580219542991 -57.9249814951862 L104.6580219542991 -61.389083110323966 L104.6580219542991 -68.31728634059947"/>
		<path opacity="0.5" fill="orange" d="M160.08364779650316 -84.31728634059947 L104.6580219542991 -68.31728634059947 L104.6580219542991 -61.389083110323966 L160.08364779650316 -77.38908311032397 L160.08364779650316 -84.31728634059947"/>
		<path opacity="0.5" fill="orange" d="M164.08364779650316 -80.8531847254617 L108.6580219542991 -64.8531847254617 L108.6580219542991 -57.9249814951862 L164.08364779650316 -73.9249814951862 L164.08364779650316 -80.8531847254617"/>
		<path opacity="0.5" fill="orange" d="M160.08364779650316 -84.31728634059947 L164.08364779650316 -80.8531847254617 L108.6580219542991 -64.8531847254617 L104.6580219542991 -68.31728634059947 L160.08364779650316 -84.31728634059947"/>
		<path opacity="0.5" fill="orange" d="M160.08364779650316 -77.38908311032397 L164.08364779650316 -73.9249814951862 L108.6580219542991 -57.9249814951862 L104.6580219542991 -61.389083110323966 L160.08364779650316 -77.38908311032397"/>
		<text x="104.6580219542991" y="-64.85318472546172" font-family="calibri" font-size="6">8</text>
		<text x="106.6580219542991" y="-59.657032302755084" font-family="calibri" font-size="6">8</text>
		<text x="132.37083487540113" y="-76.31728634059947" font-family="calibri" font-size="6">64</text>

		<path opacity="0.75" fill="pink" d="M289.27999365841197 -71.28925859624418 L291.77999365841197 -69.12419508678309 L334.0453804063131 -78.26412676002472 L289.27999365841197 -71.28925859624418"/>
		<path opacity="0.75" fill="pink" d="M289.27999365841197 -71.28925859624418 L289.27999365841197 -66.95913157732198 L334.0453804063131 -78.26412676002472 L289.27999365841197 -71.28925859624418"/>
		<path opacity="0.75" fill="pink" d="M291.77999365841197 -69.12419508678309 L291.77999365841197 -64.7940680678609 L334.0453804063131 -78.26412676002472 L291.77999365841197 -69.12419508678309"/>
		<path opacity="0.75" fill="pink" d="M289.27999365841197 -66.95913157732198 L291.77999365841197 -64.7940680678609 L334.0453804063131 -78.26412676002472 L289.27999365841197 -66.95913157732198"/>

<!-- Arrow -->
		<path opacity="0.5" stroke="black" d="M162.08364779650316 -79.12113391789283 L234.39453692895853 -51.49806695894642"/>
		<circle opacity="0.5" cx="234.39453692895853" cy="-51.49806695894642" r="1" fill="black" />
		<path opacity="0.75" fill="darkturquoise" d="M539.9797261999547 -156.45607040843177 L544.9797261999547 -152.1259433895096 L544.9797261999547 21.07913736737818 L539.9797261999547 16.749010348455982 L539.9797261999547 -156.45607040843177"/>
		<path opacity="0.75" fill="darkturquoise" d="M531.3194721621103 -153.95607040843177 L536.3194721621103 -149.6259433895096 L536.3194721621103 23.57913736737818 L531.3194721621103 19.249010348455982 L531.3194721621103 -153.95607040843177"/>
		<path opacity="0.75" fill="darkturquoise" d="M539.9797261999547 -156.45607040843177 L531.3194721621103 -153.95607040843177 L531.3194721621103 19.249010348455982 L539.9797261999547 16.749010348455982 L539.9797261999547 -156.45607040843177"/>
		<path opacity="0.75" fill="darkturquoise" d="M544.9797261999547 -152.1259433895096 L536.3194721621103 -149.6259433895096 L536.3194721621103 23.57913736737818 L544.9797261999547 21.07913736737818 L544.9797261999547 -152.1259433895096"/>
		<path opacity="0.75" fill="darkturquoise" d="M539.9797261999547 -156.45607040843177 L544.9797261999547 -152.1259433895096 L536.3194721621103 -149.6259433895096 L531.3194721621103 -153.95607040843177 L539.9797261999547 -156.45607040843177"/>
		<path opacity="0.75" fill="darkturquoise" d="M539.9797261999547 16.749010348455982 L544.9797261999547 21.07913736737818 L536.3194721621103 23.57913736737818 L531.3194721621103 19.249010348455982 L539.9797261999547 16.749010348455982"/>
		<text x="531.3194721621103" y="-67.3535300299879" font-family="calibri" font-size="6">200</text>
		<text x="533.8194721621103" y="21.41407385791708" font-family="calibri" font-size="6">10</text>
		<text x="535.6495991810325" y="-155.20607040843177" font-family="calibri" font-size="6">10</text>

<!-- Arrow -->
		<path opacity="0.5" stroke="black" d="M490.51820197288833 -52.6884665205268 L533.8194721621103 -65.18846652052682"/>
		<circle opacity="0.5" cx="533.8194721621103" cy="-65.18846652052682" r="1" fill="black" />
		<path opacity="0.75" fill="darkturquoise" d="M289.27999365841197 -71.28925859624418 L291.77999365841197 -69.12419508678309 L291.77999365841197 -64.7940680678609 L289.27999365841197 -66.95913157732198 L289.27999365841197 -71.28925859624418"/>
		<path opacity="0.75" fill="darkturquoise" d="M233.8543678162079 -55.28925859624418 L236.3543678162079 -53.12419508678309 L236.3543678162079 -48.7940680678609 L233.8543678162079 -50.95913157732199 L233.8543678162079 -55.28925859624418"/>
		<path opacity="0.75" fill="darkturquoise" d="M289.27999365841197 -71.28925859624418 L233.8543678162079 -55.28925859624418 L233.8543678162079 -50.95913157732199 L289.27999365841197 -66.95913157732198 L289.27999365841197 -71.28925859624418"/>
		<path opacity="0.75" fill="darkturquoise" d="M291.77999365841197 -69.12419508678309 L236.3543678162079 -53.12419508678309 L236.3543678162079 -48.7940680678609 L291.77999365841197 -64.7940680678609 L291.77999365841197 -69.12419508678309"/>
		<path opacity="0.75" fill="darkturquoise" d="M289.27999365841197 -71.28925859624418 L291.77999365841197 -69.12419508678309 L236.3543678162079 -53.12419508678309 L233.8543678162079 -55.28925859624418 L289.27999365841197 -71.28925859624418"/>
		<path opacity="0.75" fill="darkturquoise" d="M289.27999365841197 -66.95913157732198 L291.77999365841197 -64.7940680678609 L236.3543678162079 -48.7940680678609 L233.8543678162079 -50.95913157732199 L289.27999365841197 -66.95913157732198"/>
		<text x="233.8543678162079" y="-53.12419508678309" font-family="calibri" font-size="6">5</text>
		<text x="235.1043678162079" y="-49.876599822591444" font-family="calibri" font-size="6">5</text>
		<text x="261.56718073730997" y="-63.28925859624418" font-family="calibri" font-size="6">64</text>

		<path opacity="0.5" fill="orange" d="M287.8201627711626 -72.69421938165306 L291.8201627711626 -69.23011776651529 L291.8201627711626 -62.30191453623979 L287.8201627711626 -65.76601615137753 L287.8201627711626 -72.69421938165306"/>
		<path opacity="0.5" fill="orange" d="M232.39453692895853 -56.69421938165305 L236.39453692895853 -53.2301177665153 L236.39453692895853 -46.30191453623979 L232.39453692895853 -49.766016151377535 L232.39453692895853 -56.69421938165305"/>
		<path opacity="0.5" fill="orange" d="M287.8201627711626 -72.69421938165306 L232.39453692895853 -56.69421938165305 L232.39453692895853 -49.766016151377535 L287.8201627711626 -65.76601615137753 L287.8201627711626 -72.69421938165306"/>
		<path opacity="0.5" fill="orange" d="M291.8201627711626 -69.23011776651529 L236.39453692895853 -53.2301177665153 L236.39453692895853 -46.30191453623979 L291.8201627711626 -62.30191453623979 L291.8201627711626 -69.23011776651529"/>
		<path opacity="0.5" fill="orange" d="M287.8201627711626 -72.69421938165306 L291.8201627711626 -69.23011776651529 L236.39453692895853 -53.2301177665153 L232.39453692895853 -56.69421938165305 L287.8201627711626 -72.69421938165306"/>
		<path opacity="0.5" fill="orange" d="M287.8201627711626 -65.76601615137753 L291.8201627711626 -62.30191453623979 L236.39453692895853 -46.30191453623979 L232.39453692895853 -49.766016151377535 L287.8201627711626 -65.76601615137753"/>
		<text x="232.39453692895853" y="-53.23011776651529" font-family="calibri" font-size="6">8</text>
		<text x="234.39453692895853" y="-48.03396534380866" font-family="calibri" font-size="6">8</text>
		<text x="260.1073498500606" y="-64.69421938165306" font-family="calibri" font-size="6">64</text>

		<path opacity="0.75" fill="pink" d="M61.73910508634873 -54.63449138398377 L64.23910508634873 -52.46942787452268 L108.51609760413979 -61.48791335188639 L61.73910508634873 -54.63449138398377"/>
		<path opacity="0.75" fill="pink" d="M61.73910508634873 -54.63449138398377 L61.73910508634873 -50.30436436506157 L108.51609760413979 -61.48791335188639 L61.73910508634873 -54.63449138398377"/>
		<path opacity="0.75" fill="pink" d="M64.23910508634873 -52.46942787452268 L64.23910508634873 -48.13930085560048 L108.51609760413979 -61.48791335188639 L64.23910508634873 -52.46942787452268"/>
		<path opacity="0.75" fill="pink" d="M61.73910508634873 -50.30436436506157 L64.23910508634873 -48.13930085560048 L108.51609760413979 -61.48791335188639 L61.73910508634873 -50.30436436506157"/>

		<path opacity="0.75" fill="darkturquoise" d="M488.01820197288833 -141.45607040843177 L493.01820197288833 -137.1259433895096 L493.01820197288833 36.07913736737818 L488.01820197288833 31.749010348455982 L488.01820197288833 -141.45607040843177"/>
		<path opacity="0.75" fill="darkturquoise" d="M479.35794793504397 -138.95607040843177 L484.35794793504397 -134.6259433895096 L484.35794793504397 38.57913736737818 L479.35794793504397 34.24901034845598 L479.35794793504397 -138.95607040843177"/>
		<path opacity="0.75" fill="darkturquoise" d="M488.01820197288833 -141.45607040843177 L479.35794793504397 -138.95607040843177 L479.35794793504397 34.24901034845598 L488.01820197288833 31.749010348455982 L488.01820197288833 -141.45607040843177"/>
		<path opacity="0.75" fill="darkturquoise" d="M493.01820197288833 -137.1259433895096 L484.35794793504397 -134.6259433895096 L484.35794793504397 38.57913736737818 L493.01820197288833 36.07913736737818 L493.01820197288833 -137.1259433895096"/>
		<path opacity="0.75" fill="darkturquoise" d="M488.01820197288833 -141.45607040843177 L493.01820197288833 -137.1259433895096 L484.35794793504397 -134.6259433895096 L479.35794793504397 -138.95607040843177 L488.01820197288833 -141.45607040843177"/>
		<path opacity="0.75" fill="darkturquoise" d="M488.01820197288833 31.749010348455982 L493.01820197288833 36.07913736737818 L484.35794793504397 38.57913736737818 L479.35794793504397 34.24901034845598 L488.01820197288833 31.749010348455982"/>
		<text x="479.35794793504397" y="-52.353530029987894" font-family="calibri" font-size="6">200</text>
		<text x="481.85794793504397" y="36.41407385791708" font-family="calibri" font-size="6">10</text>
		<text x="483.6880749539662" y="-140.20607040843177" font-family="calibri" font-size="6">10</text>

<!-- Arrow -->
		<path opacity="0.5" stroke="black" d="M-50.37976320958228 -50.11984522385711 L7.931125922873093 -34.621133917892834"/>
		<circle opacity="0.5" cx="7.931125922873093" cy="-34.621133917892834" r="1" fill="black" />
		<path opacity="0.75" fill="darkturquoise" d="M61.73910508634873 -54.63449138398377 L64.23910508634873 -52.46942787452268 L64.23910508634873 -48.13930085560048 L61.73910508634873 -50.30436436506157 L61.73910508634873 -54.63449138398377"/>
		<path opacity="0.75" fill="darkturquoise" d="M6.313479244144673 -38.63449138398377 L8.813479244144673 -36.46942787452268 L8.813479244144673 -32.13930085560048 L6.313479244144673 -34.30436436506157 L6.313479244144673 -38.63449138398377"/>
		<path opacity="0.75" fill="darkturquoise" d="M61.73910508634873 -54.63449138398377 L6.313479244144673 -38.63449138398377 L6.313479244144673 -34.30436436506157 L61.73910508634873 -50.30436436506157 L61.73910508634873 -54.63449138398377"/>
		<path opacity="0.75" fill="darkturquoise" d="M64.23910508634873 -52.46942787452268 L8.813479244144673 -36.46942787452268 L8.813479244144673 -32.13930085560048 L64.23910508634873 -48.13930085560048 L64.23910508634873 -52.46942787452268"/>
		<path opacity="0.75" fill="darkturquoise" d="M61.73910508634873 -54.63449138398377 L64.23910508634873 -52.46942787452268 L8.813479244144673 -36.46942787452268 L6.313479244144673 -38.63449138398377 L61.73910508634873 -54.63449138398377"/>
		<path opacity="0.75" fill="darkturquoise" d="M61.73910508634873 -50.30436436506157 L64.23910508634873 -48.13930085560048 L8.813479244144673 -32.13930085560048 L6.313479244144673 -34.30436436506157 L61.73910508634873 -50.30436436506157"/>
		<text x="6.313479244144673" y="-36.46942787452267" font-family="calibri" font-size="6">5</text>
		<text x="7.563479244144673" y="-33.22183261033103" font-family="calibri" font-size="6">5</text>
		<text x="34.0262921652467" y="-46.63449138398377" font-family="calibri" font-size="6">64</text>

		<path opacity="0.5" fill="orange" d="M59.35675176507715 -61.0134387633061 L67.35675176507715 -54.0852355330306 L67.35675176507715 -40.22882907247958 L59.35675176507715 -47.15703230275507 L59.35675176507715 -61.0134387633061"/>
		<path opacity="0.5" fill="orange" d="M3.9311259228730933 -45.0134387633061 L11.931125922873093 -38.0852355330306 L11.931125922873093 -24.228829072479577 L3.9311259228730933 -31.15703230275507 L3.9311259228730933 -45.0134387633061"/>
		<path opacity="0.5" fill="orange" d="M59.35675176507715 -61.0134387633061 L3.9311259228730933 -45.0134387633061 L3.9311259228730933 -31.15703230275507 L59.35675176507715 -47.15703230275507 L59.35675176507715 -61.0134387633061"/>
		<path opacity="0.5" fill="orange" d="M67.35675176507715 -54.0852355330306 L11.931125922873093 -38.0852355330306 L11.931125922873093 -24.228829072479577 L67.35675176507715 -40.22882907247958 L67.35675176507715 -54.0852355330306"/>
		<path opacity="0.5" fill="orange" d="M59.35675176507715 -61.0134387633061 L67.35675176507715 -54.0852355330306 L11.931125922873093 -38.0852355330306 L3.9311259228730933 -45.0134387633061 L59.35675176507715 -61.0134387633061"/>
		<path opacity="0.5" fill="orange" d="M59.35675176507715 -47.15703230275507 L67.35675176507715 -40.22882907247958 L11.931125922873093 -24.228829072479577 L3.9311259228730933 -31.15703230275507 L59.35675176507715 -47.15703230275507"/>
		<text x="3.9311259228730933" y="-38.085235533030584" font-family="calibri" font-size="6">16</text>
		<text x="7.931125922873093" y="-27.692930687617324" font-family="calibri" font-size="6">16</text>
		<text x="31.64393884397512" y="-53.0134387633061" font-family="calibri" font-size="6">64</text>

		<path opacity="0.5" fill="orange" d="M-54.37976320958228 -60.512150069270376 L-46.37976320958228 -53.583946838994876 L-46.37976320958228 -39.72754037844385 L-54.37976320958228 -46.65574360871935 L-54.37976320958228 -60.512150069270376"/>
		<path opacity="0.5" fill="orange" d="M-109.80538905178634 -44.512150069270376 L-101.80538905178634 -37.583946838994876 L-101.80538905178634 -23.727540378443848 L-109.80538905178634 -30.655743608719348 L-109.80538905178634 -44.512150069270376"/>
		<path opacity="0.5" fill="orange" d="M-54.37976320958228 -60.512150069270376 L-109.80538905178634 -44.512150069270376 L-109.80538905178634 -30.655743608719348 L-54.37976320958228 -46.65574360871935 L-54.37976320958228 -60.512150069270376"/>
		<path opacity="0.5" fill="orange" d="M-46.37976320958228 -53.583946838994876 L-101.80538905178634 -37.583946838994876 L-101.80538905178634 -23.727540378443848 L-46.37976320958228 -39.72754037844385 L-46.37976320958228 -53.583946838994876"/>
		<path opacity="0.5" fill="orange" d="M-54.37976320958228 -60.512150069270376 L-46.37976320958228 -53.583946838994876 L-101.80538905178634 -37.583946838994876 L-109.80538905178634 -44.512150069270376 L-54.37976320958228 -60.512150069270376"/>
		<path opacity="0.5" fill="orange" d="M-54.37976320958228 -46.65574360871935 L-46.37976320958228 -39.72754037844385 L-101.80538905178634 -23.727540378443848 L-109.80538905178634 -30.655743608719348 L-54.37976320958228 -46.65574360871935"/>
		<text x="-109.80538905178634" y="-37.58394683899486" font-family="calibri" font-size="6">16</text>
		<text x="-105.80538905178634" y="-27.191641993581598" font-family="calibri" font-size="6">16</text>
		<text x="-82.09257613068431" y="-52.512150069270376" font-family="calibri" font-size="6">64</text>

<!-- Arrow -->
		<path opacity="0.5" stroke="black" d="M5.620236790417721 -1.6224226119285525 L234.39453692895853 -51.49806695894642"/>
		<circle opacity="0.5" cx="234.39453692895853" cy="-51.49806695894642" r="1" fill="black" />
<!-- Arrow -->
		<path opacity="0.5" stroke="black" d="M5.620236790417721 -1.6224226119285525 L481.85794793504397 -50.1884665205268"/>
		<circle opacity="0.5" cx="481.85794793504397" cy="-50.1884665205268" r="1" fill="black" />
		<path opacity="0.75" fill="pink" d="M-148.4910051718399 -16.907679784575706 L-145.9910051718399 -14.742616275114614 L-104.91281483080081 -33.289579078224804 L-148.4910051718399 -16.907679784575706"/>
		<path opacity="0.75" fill="pink" d="M-148.4910051718399 -16.907679784575706 L-148.4910051718399 -12.577552765653522 L-104.91281483080081 -33.289579078224804 L-148.4910051718399 -16.907679784575706"/>
		<path opacity="0.75" fill="pink" d="M-145.9910051718399 -14.742616275114614 L-145.9910051718399 -10.41248925619243 L-104.91281483080081 -33.289579078224804 L-145.9910051718399 -14.742616275114614"/>
		<path opacity="0.75" fill="pink" d="M-148.4910051718399 -12.577552765653522 L-145.9910051718399 -10.41248925619243 L-104.91281483080081 -33.289579078224804 L-148.4910051718399 -12.577552765653522"/>

<!-- Arrow -->
		<path opacity="0.5" stroke="black" d="M5.620236790417721 -1.6224226119285525 L7.931125922873093 -34.621133917892834"/>
		<circle opacity="0.5" cx="7.931125922873093" cy="-34.621133917892834" r="1" fill="black" />
		<path opacity="0.75" fill="darkturquoise" d="M-148.4910051718399 -16.907679784575706 L-145.9910051718399 -14.742616275114614 L-145.9910051718399 -10.41248925619243 L-148.4910051718399 -12.577552765653522 L-148.4910051718399 -16.907679784575706"/>
		<path opacity="0.75" fill="darkturquoise" d="M-176.20381809294196 -8.907679784575706 L-173.70381809294196 -6.742616275114614 L-173.70381809294196 -2.41248925619243 L-176.20381809294196 -4.577552765653522 L-176.20381809294196 -8.907679784575706"/>
		<path opacity="0.75" fill="darkturquoise" d="M-148.4910051718399 -16.907679784575706 L-176.20381809294196 -8.907679784575706 L-176.20381809294196 -4.577552765653522 L-148.4910051718399 -12.577552765653522 L-148.4910051718399 -16.907679784575706"/>
		<path opacity="0.75" fill="darkturquoise" d="M-145.9910051718399 -14.742616275114614 L-173.70381809294196 -6.742616275114614 L-173.70381809294196 -2.41248925619243 L-145.9910051718399 -10.41248925619243 L-145.9910051718399 -14.742616275114614"/>
		<path opacity="0.75" fill="darkturquoise" d="M-148.4910051718399 -16.907679784575706 L-145.9910051718399 -14.742616275114614 L-173.70381809294196 -6.742616275114614 L-176.20381809294196 -8.907679784575706 L-148.4910051718399 -16.907679784575706"/>
		<path opacity="0.75" fill="darkturquoise" d="M-148.4910051718399 -12.577552765653522 L-145.9910051718399 -10.41248925619243 L-173.70381809294196 -2.41248925619243 L-176.20381809294196 -4.577552765653522 L-148.4910051718399 -12.577552765653522"/>
		<text x="-176.20381809294196" y="-6.742616275114614" font-family="calibri" font-size="6">5</text>
		<text x="-174.95381809294196" y="-3.495021010922976" font-family="calibri" font-size="6">5</text>
		<text x="-162.34741163239093" y="-12.907679784575706" font-family="calibri" font-size="6">32</text>

		<path opacity="0.5" fill="orange" d="M-157.1066592410083 -42.404454914683626 L-141.1066592410083 -28.548048454132612 L-141.1066592410083 -0.8352355330305841 L-157.1066592410083 -14.691641993581598 L-157.1066592410083 -42.404454914683626"/>
		<path opacity="0.5" fill="orange" d="M-184.8194721621103 -34.404454914683626 L-168.8194721621103 -20.548048454132612 L-168.8194721621103 7.164764466969416 L-184.8194721621103 -6.691641993581598 L-184.8194721621103 -34.404454914683626"/>
		<path opacity="0.5" fill="orange" d="M-157.1066592410083 -42.404454914683626 L-184.8194721621103 -34.404454914683626 L-184.8194721621103 -6.691641993581598 L-157.1066592410083 -14.691641993581598 L-157.1066592410083 -42.404454914683626"/>
		<path opacity="0.5" fill="orange" d="M-141.1066592410083 -28.548048454132612 L-168.8194721621103 -20.548048454132612 L-168.8194721621103 7.164764466969416 L-141.1066592410083 -0.8352355330305841 L-141.1066592410083 -28.548048454132612"/>
		<path opacity="0.5" fill="orange" d="M-157.1066592410083 -42.404454914683626 L-141.1066592410083 -28.548048454132612 L-168.8194721621103 -20.548048454132612 L-184.8194721621103 -34.404454914683626 L-157.1066592410083 -42.404454914683626"/>
		<path opacity="0.5" fill="orange" d="M-157.1066592410083 -14.691641993581598 L-141.1066592410083 -0.8352355330305841 L-168.8194721621103 7.164764466969416 L-184.8194721621103 -6.691641993581598 L-157.1066592410083 -14.691641993581598"/>
		<text x="-184.8194721621103" y="-20.548048454132612" font-family="calibri" font-size="6">32</text>
		<text x="-176.8194721621103" y="0.23656123669390894" font-family="calibri" font-size="6">32</text>
		<text x="-170.9630657015593" y="-38.404454914683626" font-family="calibri" font-size="6">32</text>

<!-- Arrow -->
		<path opacity="0.5" stroke="black" d="M160.34713282184376 18.375 L234.39453692895853 -51.49806695894642"/>
		<circle opacity="0.5" cx="234.39453692895853" cy="-51.49806695894642" r="1" fill="black" />
<!-- Arrow -->
		<path opacity="0.5" stroke="black" d="M160.34713282184376 18.375 L481.85794793504397 -50.1884665205268"/>
		<circle opacity="0.5" cx="481.85794793504397" cy="-50.1884665205268" r="1" fill="black" />
<!-- Arrow -->
		<path opacity="0.5" stroke="black" d="M428.8105438279292 37.871133917892834 L481.85794793504397 -50.1884665205268"/>
		<circle opacity="0.5" cx="481.85794793504397" cy="-50.1884665205268" r="1" fill="black" />
		<path opacity="0.75" fill="pink" d="M-226.99995509818024 -19.799733717701997 L-221.99995509818024 -15.469606698779813 L-176.64330106360114 -15.70279250637293 L-226.99995509818024 -19.799733717701997"/>
		<path opacity="0.75" fill="pink" d="M-226.99995509818024 -19.799733717701997 L-226.99995509818024 -11.139479679857601 L-176.64330106360114 -15.70279250637293 L-226.99995509818024 -19.799733717701997"/>
		<path opacity="0.75" fill="pink" d="M-221.99995509818024 -15.469606698779813 L-221.99995509818024 -6.809352660935417 L-176.64330106360114 -15.70279250637293 L-221.99995509818024 -15.469606698779813"/>
		<path opacity="0.75" fill="pink" d="M-226.99995509818024 -11.139479679857601 L-221.99995509818024 -6.809352660935417 L-176.64330106360114 -15.70279250637293 L-226.99995509818024 -11.139479679857601"/>

		<path opacity="0.75" fill="darkturquoise" d="M-226.99995509818024 -19.799733717701997 L-221.99995509818024 -15.469606698779813 L-221.99995509818024 -6.809352660935417 L-226.99995509818024 -11.139479679857601 L-226.99995509818024 -19.799733717701997"/>
		<path opacity="0.75" fill="darkturquoise" d="M-244.32046317386903 -14.799733717701997 L-239.32046317386903 -10.469606698779813 L-239.32046317386903 -1.8093526609354171 L-244.32046317386903 -6.139479679857601 L-244.32046317386903 -14.799733717701997"/>
		<path opacity="0.75" fill="darkturquoise" d="M-226.99995509818024 -19.799733717701997 L-244.32046317386903 -14.799733717701997 L-244.32046317386903 -6.139479679857601 L-226.99995509818024 -11.139479679857601 L-226.99995509818024 -19.799733717701997"/>
		<path opacity="0.75" fill="darkturquoise" d="M-221.99995509818024 -15.469606698779813 L-239.32046317386903 -10.469606698779813 L-239.32046317386903 -1.8093526609354171 L-221.99995509818024 -6.809352660935417 L-221.99995509818024 -15.469606698779813"/>
		<path opacity="0.75" fill="darkturquoise" d="M-226.99995509818024 -19.799733717701997 L-221.99995509818024 -15.469606698779813 L-239.32046317386903 -10.469606698779813 L-244.32046317386903 -14.799733717701997 L-226.99995509818024 -19.799733717701997"/>
		<path opacity="0.75" fill="darkturquoise" d="M-226.99995509818024 -11.139479679857601 L-221.99995509818024 -6.809352660935417 L-239.32046317386903 -1.8093526609354171 L-244.32046317386903 -6.139479679857601 L-226.99995509818024 -11.139479679857601"/>
		<text x="-244.32046317386903" y="-10.469606698779799" font-family="calibri" font-size="6">10</text>
		<text x="-241.82046317386903" y="-3.974416170396509" font-family="calibri" font-size="6">10</text>
		<text x="-235.66020913602463" y="-17.299733717701997" font-family="calibri" font-size="6">20</text>

		<path opacity="0.5" fill="orange" d="M-228.12074235133218 -21.904454914683626 L-212.12074235133218 -8.048048454132612 L-212.12074235133218 19.664764466969416 L-228.12074235133218 5.808358006418402 L-228.12074235133218 -21.904454914683626"/>
		<path opacity="0.5" fill="orange" d="M-245.44125042702103 -16.904454914683626 L-229.44125042702103 -3.048048454132612 L-229.44125042702103 24.664764466969416 L-245.44125042702103 10.808358006418402 L-245.44125042702103 -16.904454914683626"/>
		<path opacity="0.5" fill="orange" d="M-228.12074235133218 -21.904454914683626 L-245.44125042702103 -16.904454914683626 L-245.44125042702103 10.808358006418402 L-228.12074235133218 5.808358006418402 L-228.12074235133218 -21.904454914683626"/>
		<path opacity="0.5" fill="orange" d="M-212.12074235133218 -8.048048454132612 L-229.44125042702103 -3.048048454132612 L-229.44125042702103 24.664764466969416 L-212.12074235133218 19.664764466969416 L-212.12074235133218 -8.048048454132612"/>
		<path opacity="0.5" fill="orange" d="M-228.12074235133218 -21.904454914683626 L-212.12074235133218 -8.048048454132612 L-229.44125042702103 -3.048048454132612 L-245.44125042702103 -16.904454914683626 L-228.12074235133218 -21.904454914683626"/>
		<path opacity="0.5" fill="orange" d="M-228.12074235133218 5.808358006418402 L-212.12074235133218 19.664764466969416 L-229.44125042702103 24.664764466969416 L-245.44125042702103 10.808358006418402 L-228.12074235133218 5.808358006418402"/>
		<text x="-245.44125042702103" y="-3.048048454132612" font-family="calibri" font-size="6">32</text>
		<text x="-237.44125042702103" y="17.73656123669391" font-family="calibri" font-size="6">32</text>
		<text x="-236.7809963891766" y="-19.404454914683626" font-family="calibri" font-size="6">20</text>

		<path opacity="0.5" fill="orange" d="M1.6202367904177208 -12.014727457341813 L9.62023679041772 -5.086524227066306 L9.62023679041772 8.769882233484708 L1.6202367904177208 1.841679003209201 L1.6202367904177208 -12.014727457341813"/>
		<path opacity="0.5" fill="orange" d="M-53.805389051786335 3.985272542658187 L-45.805389051786335 10.913475772933694 L-45.805389051786335 24.769882233484708 L-53.805389051786335 17.8416790032092 L-53.805389051786335 3.985272542658187"/>
		<path opacity="0.5" fill="orange" d="M1.6202367904177208 -12.014727457341813 L-53.805389051786335 3.985272542658187 L-53.805389051786335 17.8416790032092 L1.6202367904177208 1.841679003209201 L1.6202367904177208 -12.014727457341813"/>
		<path opacity="0.5" fill="orange" d="M9.62023679041772 -5.086524227066306 L-45.805389051786335 10.913475772933694 L-45.805389051786335 24.769882233484708 L9.62023679041772 8.769882233484708 L9.62023679041772 -5.086524227066306"/>
		<path opacity="0.5" fill="orange" d="M1.6202367904177208 -12.014727457341813 L9.62023679041772 -5.086524227066306 L-45.805389051786335 10.913475772933694 L-53.805389051786335 3.985272542658187 L1.6202367904177208 -12.014727457341813"/>
		<path opacity="0.5" fill="orange" d="M1.6202367904177208 1.841679003209201 L9.62023679041772 8.769882233484708 L-45.805389051786335 24.769882233484708 L-53.805389051786335 17.8416790032092 L1.6202367904177208 1.841679003209201"/>
		<text x="-53.805389051786335" y="10.913475772933694" font-family="calibri" font-size="6">16</text>
		<text x="-49.805389051786335" y="21.305780618346954" font-family="calibri" font-size="6">16</text>
		<text x="-26.092576130684307" y="-4.014727457341813" font-family="calibri" font-size="6">64</text>

		<path opacity="0.5" fill="orange" d="M158.34713282184376 13.178847577293368 L162.34713282184376 16.64294919243112 L162.34713282184376 23.571152422706632 L158.34713282184376 20.10705080756888 L158.34713282184376 13.178847577293368"/>
		<path opacity="0.5" fill="orange" d="M102.92150697963969 29.178847577293368 L106.92150697963969 32.642949192431125 L106.92150697963969 39.57115242270663 L102.92150697963969 36.107050807568875 L102.92150697963969 29.178847577293368"/>
		<path opacity="0.5" fill="orange" d="M158.34713282184376 13.178847577293368 L102.92150697963969 29.178847577293368 L102.92150697963969 36.107050807568875 L158.34713282184376 20.10705080756888 L158.34713282184376 13.178847577293368"/>
		<path opacity="0.5" fill="orange" d="M162.34713282184376 16.64294919243112 L106.92150697963969 32.642949192431125 L106.92150697963969 39.57115242270663 L162.34713282184376 23.571152422706632 L162.34713282184376 16.64294919243112"/>
		<path opacity="0.5" fill="orange" d="M158.34713282184376 13.178847577293368 L162.34713282184376 16.64294919243112 L106.92150697963969 32.642949192431125 L102.92150697963969 29.178847577293368 L158.34713282184376 13.178847577293368"/>
		<path opacity="0.5" fill="orange" d="M158.34713282184376 20.10705080756888 L162.34713282184376 23.571152422706632 L106.92150697963969 39.57115242270663 L102.92150697963969 36.107050807568875 L158.34713282184376 20.10705080756888"/>
		<text x="102.92150697963969" y="32.64294919243112" font-family="calibri" font-size="6">8</text>
		<text x="104.92150697963969" y="37.83910161513775" font-family="calibri" font-size="6">8</text>
		<text x="130.63431990074173" y="21.178847577293368" font-family="calibri" font-size="6">64</text>

		<path opacity="0.75" fill="pink" d="M-89.71351107596053 22.369127982761825 L-87.21351107596053 24.534191492222917 L-51.12774136864152 7.919312194362718 L-89.71351107596053 22.369127982761825"/>
		<path opacity="0.75" fill="pink" d="M-89.71351107596053 22.369127982761825 L-89.71351107596053 26.699255001684016 L-51.12774136864152 7.919312194362718 L-89.71351107596053 22.369127982761825"/>
		<path opacity="0.75" fill="pink" d="M-87.21351107596053 24.534191492222917 L-87.21351107596053 28.864318511145107 L-51.12774136864152 7.919312194362718 L-87.21351107596053 24.534191492222917"/>
		<path opacity="0.75" fill="pink" d="M-89.71351107596053 26.699255001684016 L-87.21351107596053 28.864318511145107 L-51.12774136864152 7.919312194362718 L-89.71351107596053 26.699255001684016"/>

		<path opacity="0.75" fill="darkturquoise" d="M-89.71351107596053 22.369127982761825 L-87.21351107596053 24.534191492222917 L-87.21351107596053 28.864318511145107 L-89.71351107596053 26.699255001684016 L-89.71351107596053 22.369127982761825"/>
		<path opacity="0.75" fill="darkturquoise" d="M-117.42632399706258 30.369127982761825 L-114.92632399706258 32.53419149222292 L-114.92632399706258 36.86431851114511 L-117.42632399706258 34.699255001684016 L-117.42632399706258 30.369127982761825"/>
		<path opacity="0.75" fill="darkturquoise" d="M-89.71351107596053 22.369127982761825 L-117.42632399706258 30.369127982761825 L-117.42632399706258 34.699255001684016 L-89.71351107596053 26.699255001684016 L-89.71351107596053 22.369127982761825"/>
		<path opacity="0.75" fill="darkturquoise" d="M-87.21351107596053 24.534191492222917 L-114.92632399706258 32.53419149222292 L-114.92632399706258 36.86431851114511 L-87.21351107596053 28.864318511145107 L-87.21351107596053 24.534191492222917"/>
		<path opacity="0.75" fill="darkturquoise" d="M-89.71351107596053 22.369127982761825 L-87.21351107596053 24.534191492222917 L-114.92632399706258 32.53419149222292 L-117.42632399706258 30.369127982761825 L-89.71351107596053 22.369127982761825"/>
		<path opacity="0.75" fill="darkturquoise" d="M-89.71351107596053 26.699255001684016 L-87.21351107596053 28.864318511145107 L-114.92632399706258 36.86431851114511 L-117.42632399706258 34.699255001684016 L-89.71351107596053 26.699255001684016"/>
		<text x="-117.42632399706258" y="32.53419149222292" font-family="calibri" font-size="6">5</text>
		<text x="-116.17632399706258" y="35.78178675641456" font-family="calibri" font-size="6">5</text>
		<text x="-103.56991753651155" y="26.369127982761825" font-family="calibri" font-size="6">32</text>

		<path opacity="0.5" fill="orange" d="M-101.10665924100823 6.092967697244916 L-85.10665924100823 19.94937415779593 L-85.10665924100823 47.66218707889797 L-101.10665924100823 33.80578061834696 L-101.10665924100823 6.092967697244916"/>
		<path opacity="0.5" fill="orange" d="M-128.8194721621103 14.092967697244916 L-112.81947216211029 27.94937415779593 L-112.81947216211029 55.66218707889797 L-128.8194721621103 41.80578061834696 L-128.8194721621103 14.092967697244916"/>
		<path opacity="0.5" fill="orange" d="M-101.10665924100823 6.092967697244916 L-128.8194721621103 14.092967697244916 L-128.8194721621103 41.80578061834696 L-101.10665924100823 33.80578061834696 L-101.10665924100823 6.092967697244916"/>
		<path opacity="0.5" fill="orange" d="M-85.10665924100823 19.94937415779593 L-112.81947216211029 27.94937415779593 L-112.81947216211029 55.66218707889797 L-85.10665924100823 47.66218707889797 L-85.10665924100823 19.94937415779593"/>
		<path opacity="0.5" fill="orange" d="M-101.10665924100823 6.092967697244916 L-85.10665924100823 19.94937415779593 L-112.81947216211029 27.94937415779593 L-128.8194721621103 14.092967697244916 L-101.10665924100823 6.092967697244916"/>
		<path opacity="0.5" fill="orange" d="M-101.10665924100823 33.80578061834696 L-85.10665924100823 47.66218707889797 L-112.81947216211029 55.66218707889797 L-128.8194721621103 41.80578061834696 L-101.10665924100823 33.80578061834696"/>
		<text x="-128.8194721621103" y="27.949374157795937" font-family="calibri" font-size="6">32</text>
		<text x="-120.81947216211029" y="48.733983848622465" font-family="calibri" font-size="6">32</text>
		<text x="-114.96306570155926" y="10.092967697244916" font-family="calibri" font-size="6">32</text>

		<path opacity="0.75" fill="pink" d="M-170.03102286529668 37.31780014814394 L-165.03102286529668 41.64792716706613 L-119.91730930792653 27.321362639177742 L-170.03102286529668 37.31780014814394"/>
		<path opacity="0.75" fill="pink" d="M-170.03102286529668 37.31780014814394 L-170.03102286529668 45.97805418598833 L-119.91730930792653 27.321362639177742 L-170.03102286529668 37.31780014814394"/>
		<path opacity="0.75" fill="pink" d="M-165.03102286529668 41.64792716706613 L-165.03102286529668 50.30818120491052 L-119.91730930792653 27.321362639177742 L-165.03102286529668 41.64792716706613"/>
		<path opacity="0.75" fill="pink" d="M-170.03102286529668 45.97805418598833 L-165.03102286529668 50.30818120491052 L-119.91730930792653 27.321362639177742 L-170.03102286529668 45.97805418598833"/>

		<path opacity="0.75" fill="pink" d="M57.98356868892711 37.82868922416715 L60.48356868892711 39.99375273362824 L104.91524932657232 31.610651617803235 L57.98356868892711 37.82868922416715"/>
		<path opacity="0.75" fill="pink" d="M57.98356868892711 37.82868922416715 L57.98356868892711 42.15881624308934 L104.91524932657232 31.610651617803235 L57.98356868892711 37.82868922416715"/>
		<path opacity="0.75" fill="pink" d="M60.48356868892711 39.99375273362824 L60.48356868892711 44.32387975255043 L104.91524932657232 31.610651617803235 L60.48356868892711 39.99375273362824"/>
		<path opacity="0.75" fill="pink" d="M57.98356868892711 42.15881624308934 L60.48356868892711 44.32387975255043 L104.91524932657232 31.610651617803235 L57.98356868892711 42.15881624308934"/>

		<path opacity="0.5" fill="orange" d="M426.8105438279292 32.6749814951862 L430.8105438279292 36.139083110323966 L430.8105438279292 43.067286340599466 L426.8105438279292 39.6031847254617 L426.8105438279292 32.6749814951862"/>
		<path opacity="0.5" fill="orange" d="M371.3849179857251 48.6749814951862 L375.3849179857251 52.139083110323966 L375.3849179857251 59.067286340599466 L371.3849179857251 55.6031847254617 L371.3849179857251 48.6749814951862"/>
		<path opacity="0.5" fill="orange" d="M426.8105438279292 32.6749814951862 L371.3849179857251 48.6749814951862 L371.3849179857251 55.6031847254617 L426.8105438279292 39.6031847254617 L426.8105438279292 32.6749814951862"/>
		<path opacity="0.5" fill="orange" d="M430.8105438279292 36.139083110323966 L375.3849179857251 52.139083110323966 L375.3849179857251 59.067286340599466 L430.8105438279292 43.067286340599466 L430.8105438279292 36.139083110323966"/>
		<path opacity="0.5" fill="orange" d="M426.8105438279292 32.6749814951862 L430.8105438279292 36.139083110323966 L375.3849179857251 52.139083110323966 L371.3849179857251 48.6749814951862 L426.8105438279292 32.6749814951862"/>
		<path opacity="0.5" fill="orange" d="M426.8105438279292 39.6031847254617 L430.8105438279292 43.067286340599466 L375.3849179857251 59.067286340599466 L371.3849179857251 55.6031847254617 L426.8105438279292 39.6031847254617"/>
		<text x="371.3849179857251" y="52.13908311032395" font-family="calibri" font-size="6">8</text>
		<text x="373.3849179857251" y="57.335235533030584" font-family="calibri" font-size="6">8</text>
		<text x="399.09773090682717" y="40.6749814951862" font-family="calibri" font-size="6">64</text>

		<path opacity="0.75" fill="darkturquoise" d="M-170.03102286529668 37.31780014814394 L-165.03102286529668 41.64792716706613 L-165.03102286529668 50.30818120491052 L-170.03102286529668 45.97805418598833 L-170.03102286529668 37.31780014814394"/>
		<path opacity="0.75" fill="darkturquoise" d="M-187.35153094098547 42.31780014814394 L-182.35153094098547 46.64792716706613 L-182.35153094098547 55.30818120491052 L-187.35153094098547 50.97805418598833 L-187.35153094098547 42.31780014814394"/>
		<path opacity="0.75" fill="darkturquoise" d="M-170.03102286529668 37.31780014814394 L-187.35153094098547 42.31780014814394 L-187.35153094098547 50.97805418598833 L-170.03102286529668 45.97805418598833 L-170.03102286529668 37.31780014814394"/>
		<path opacity="0.75" fill="darkturquoise" d="M-165.03102286529668 41.64792716706613 L-182.35153094098547 46.64792716706613 L-182.35153094098547 55.30818120491052 L-165.03102286529668 50.30818120491052 L-165.03102286529668 41.64792716706613"/>
		<path opacity="0.75" fill="darkturquoise" d="M-170.03102286529668 37.31780014814394 L-165.03102286529668 41.64792716706613 L-182.35153094098547 46.64792716706613 L-187.35153094098547 42.31780014814394 L-170.03102286529668 37.31780014814394"/>
		<path opacity="0.75" fill="darkturquoise" d="M-170.03102286529668 45.97805418598833 L-165.03102286529668 50.30818120491052 L-182.35153094098547 55.30818120491052 L-187.35153094098547 50.97805418598833 L-170.03102286529668 45.97805418598833"/>
		<text x="-187.35153094098547" y="46.64792716706613" font-family="calibri" font-size="6">10</text>
		<text x="-184.85153094098547" y="53.14311769544942" font-family="calibri" font-size="6">10</text>
		<text x="-178.69127690314107" y="39.81780014814394" font-family="calibri" font-size="6">20</text>

		<path opacity="0.5" fill="orange" d="M-172.12074235133218 26.592967697244916 L-156.12074235133218 40.44937415779593 L-156.12074235133218 68.16218707889797 L-172.12074235133218 54.30578061834696 L-172.12074235133218 26.592967697244916"/>
		<path opacity="0.5" fill="orange" d="M-189.44125042702098 31.592967697244916 L-173.44125042702098 45.44937415779593 L-173.44125042702098 73.16218707889797 L-189.44125042702098 59.30578061834696 L-189.44125042702098 31.592967697244916"/>
		<path opacity="0.5" fill="orange" d="M-172.12074235133218 26.592967697244916 L-189.44125042702098 31.592967697244916 L-189.44125042702098 59.30578061834696 L-172.12074235133218 54.30578061834696 L-172.12074235133218 26.592967697244916"/>
		<path opacity="0.5" fill="orange" d="M-156.12074235133218 40.44937415779593 L-173.44125042702098 45.44937415779593 L-173.44125042702098 73.16218707889797 L-156.12074235133218 68.16218707889797 L-156.12074235133218 40.44937415779593"/>
		<path opacity="0.5" fill="orange" d="M-172.12074235133218 26.592967697244916 L-156.12074235133218 40.44937415779593 L-173.44125042702098 45.44937415779593 L-189.44125042702098 31.592967697244916 L-172.12074235133218 26.592967697244916"/>
		<path opacity="0.5" fill="orange" d="M-172.12074235133218 54.30578061834696 L-156.12074235133218 68.16218707889797 L-173.44125042702098 73.16218707889797 L-189.44125042702098 59.30578061834696 L-172.12074235133218 54.30578061834696"/>
		<text x="-189.44125042702098" y="45.44937415779594" font-family="calibri" font-size="6">32</text>
		<text x="-181.44125042702098" y="66.23398384862247" font-family="calibri" font-size="6">32</text>
		<text x="-180.78099638917658" y="29.092967697244916" font-family="calibri" font-size="6">20</text>

		<path opacity="0.75" fill="darkturquoise" d="M57.98356868892711 37.82868922416715 L60.48356868892711 39.99375273362824 L60.48356868892711 44.32387975255043 L57.98356868892711 42.15881624308934 L57.98356868892711 37.82868922416715"/>
		<path opacity="0.75" fill="darkturquoise" d="M2.5579428467230514 53.82868922416715 L5.057942846723051 55.99375273362824 L5.057942846723051 60.32387975255043 L2.5579428467230514 58.15881624308934 L2.5579428467230514 53.82868922416715"/>
		<path opacity="0.75" fill="darkturquoise" d="M57.98356868892711 37.82868922416715 L2.5579428467230514 53.82868922416715 L2.5579428467230514 58.15881624308934 L57.98356868892711 42.15881624308934 L57.98356868892711 37.82868922416715"/>
		<path opacity="0.75" fill="darkturquoise" d="M60.48356868892711 39.99375273362824 L5.057942846723051 55.99375273362824 L5.057942846723051 60.32387975255043 L60.48356868892711 44.32387975255043 L60.48356868892711 39.99375273362824"/>
		<path opacity="0.75" fill="darkturquoise" d="M57.98356868892711 37.82868922416715 L60.48356868892711 39.99375273362824 L5.057942846723051 55.99375273362824 L2.5579428467230514 53.82868922416715 L57.98356868892711 37.82868922416715"/>
		<path opacity="0.75" fill="darkturquoise" d="M57.98356868892711 42.15881624308934 L60.48356868892711 44.32387975255043 L5.057942846723051 60.32387975255043 L2.5579428467230514 58.15881624308934 L57.98356868892711 42.15881624308934"/>
		<text x="2.5579428467230514" y="55.99375273362824" font-family="calibri" font-size="6">5</text>
		<text x="3.8079428467230514" y="59.24134799781989" font-family="calibri" font-size="6">5</text>
		<text x="30.27075576782508" y="45.82868922416715" font-family="calibri" font-size="6">64</text>

		<path opacity="0.5" fill="orange" d="M57.62023679041775 36.482695154586736 L65.62023679041775 43.41089838486224 L65.62023679041775 57.267304845413264 L57.62023679041775 50.33910161513776 L57.62023679041775 36.482695154586736"/>
		<path opacity="0.5" fill="orange" d="M2.1946109482136933 52.482695154586736 L10.194610948213693 59.41089838486224 L10.194610948213693 73.26730484541326 L2.1946109482136933 66.33910161513775 L2.1946109482136933 52.482695154586736"/>
		<path opacity="0.5" fill="orange" d="M57.62023679041775 36.482695154586736 L2.1946109482136933 52.482695154586736 L2.1946109482136933 66.33910161513775 L57.62023679041775 50.33910161513776 L57.62023679041775 36.482695154586736"/>
		<path opacity="0.5" fill="orange" d="M65.62023679041775 43.41089838486224 L10.194610948213693 59.41089838486224 L10.194610948213693 73.26730484541326 L65.62023679041775 57.267304845413264 L65.62023679041775 43.41089838486224"/>
		<path opacity="0.5" fill="orange" d="M57.62023679041775 36.482695154586736 L65.62023679041775 43.41089838486224 L10.194610948213693 59.41089838486224 L2.1946109482136933 52.482695154586736 L57.62023679041775 36.482695154586736"/>
		<path opacity="0.5" fill="orange" d="M57.62023679041775 50.33910161513776 L65.62023679041775 57.267304845413264 L10.194610948213693 73.26730484541326 L2.1946109482136933 66.33910161513775 L57.62023679041775 50.33910161513776"/>
		<text x="2.1946109482136933" y="59.41089838486224" font-family="calibri" font-size="6">16</text>
		<text x="6.194610948213693" y="69.8032032302755" font-family="calibri" font-size="6">16</text>
		<text x="29.90742386931572" y="44.482695154586736" font-family="calibri" font-size="6">64</text>

		<path opacity="0.75" fill="pink" d="M328.4353705785634 61.74565729099942 L330.9353705785634 63.91072080046051 L374.7001117890053 54.42113159832951 L328.4353705785634 61.74565729099942"/>
		<path opacity="0.75" fill="pink" d="M328.4353705785634 61.74565729099942 L328.4353705785634 66.07578430992162 L374.7001117890053 54.42113159832951 L328.4353705785634 61.74565729099942"/>
		<path opacity="0.75" fill="pink" d="M330.9353705785634 63.91072080046051 L330.9353705785634 68.24084781938271 L374.7001117890053 54.42113159832951 L330.9353705785634 63.91072080046051"/>
		<path opacity="0.75" fill="pink" d="M328.4353705785634 66.07578430992162 L330.9353705785634 68.24084781938271 L374.7001117890053 54.42113159832951 L328.4353705785634 66.07578430992162"/>

<!-- Arrow -->
		<path opacity="0.5" stroke="black" d="M216.3471328218438 66.87242261192856 L274.6580219542991 82.37113391789283"/>
		<circle opacity="0.5" cx="274.6580219542991" cy="82.37113391789283" r="1" fill="black" />
		<path opacity="0.75" fill="darkturquoise" d="M328.4353705785634 61.74565729099942 L330.9353705785634 63.91072080046051 L330.9353705785634 68.24084781938271 L328.4353705785634 66.07578430992162 L328.4353705785634 61.74565729099942"/>
		<path opacity="0.75" fill="darkturquoise" d="M273.0097447363593 77.74565729099942 L275.5097447363593 79.91072080046051 L275.5097447363593 84.24084781938271 L273.0097447363593 82.07578430992162 L273.0097447363593 77.74565729099942"/>
		<path opacity="0.75" fill="darkturquoise" d="M328.4353705785634 61.74565729099942 L273.0097447363593 77.74565729099942 L273.0097447363593 82.07578430992162 L328.4353705785634 66.07578430992162 L328.4353705785634 61.74565729099942"/>
		<path opacity="0.75" fill="darkturquoise" d="M330.9353705785634 63.91072080046051 L275.5097447363593 79.91072080046051 L275.5097447363593 84.24084781938271 L330.9353705785634 68.24084781938271 L330.9353705785634 63.91072080046051"/>
		<path opacity="0.75" fill="darkturquoise" d="M328.4353705785634 61.74565729099942 L330.9353705785634 63.91072080046051 L275.5097447363593 79.91072080046051 L273.0097447363593 77.74565729099942 L328.4353705785634 61.74565729099942"/>
		<path opacity="0.75" fill="darkturquoise" d="M328.4353705785634 66.07578430992162 L330.9353705785634 68.24084781938271 L275.5097447363593 84.24084781938271 L273.0097447363593 82.07578430992162 L328.4353705785634 66.07578430992162"/>
		<text x="273.0097447363593" y="79.91072080046052" font-family="calibri" font-size="6">5</text>
		<text x="274.2597447363593" y="83.15831606465215" font-family="calibri" font-size="6">5</text>
		<text x="300.7225576574614" y="69.74565729099942" font-family="calibri" font-size="6">64</text>

		<path opacity="0.5" fill="orange" d="M328.0836477965032 61.1749814951862 L332.0836477965032 64.63908311032397 L332.0836477965032 71.56728634059947 L328.0836477965032 68.1031847254617 L328.0836477965032 61.1749814951862"/>
		<path opacity="0.5" fill="orange" d="M272.6580219542991 77.1749814951862 L276.6580219542991 80.63908311032397 L276.6580219542991 87.56728634059947 L272.6580219542991 84.1031847254617 L272.6580219542991 77.1749814951862"/>
		<path opacity="0.5" fill="orange" d="M328.0836477965032 61.1749814951862 L272.6580219542991 77.1749814951862 L272.6580219542991 84.1031847254617 L328.0836477965032 68.1031847254617 L328.0836477965032 61.1749814951862"/>
		<path opacity="0.5" fill="orange" d="M332.0836477965032 64.63908311032397 L276.6580219542991 80.63908311032397 L276.6580219542991 87.56728634059947 L332.0836477965032 71.56728634059947 L332.0836477965032 64.63908311032397"/>
		<path opacity="0.5" fill="orange" d="M328.0836477965032 61.1749814951862 L332.0836477965032 64.63908311032397 L276.6580219542991 80.63908311032397 L272.6580219542991 77.1749814951862 L328.0836477965032 61.1749814951862"/>
		<path opacity="0.5" fill="orange" d="M328.0836477965032 68.1031847254617 L332.0836477965032 71.56728634059947 L276.6580219542991 87.56728634059947 L272.6580219542991 84.1031847254617 L328.0836477965032 68.1031847254617"/>
		<text x="272.6580219542991" y="80.63908311032395" font-family="calibri" font-size="6">8</text>
		<text x="274.6580219542991" y="85.83523553303058" font-family="calibri" font-size="6">8</text>
		<text x="300.37083487540116" y="69.1749814951862" font-family="calibri" font-size="6">64</text>

		<path opacity="0.5" fill="orange" d="M214.3471328218438 61.676270189221924 L218.3471328218438 65.14037180435967 L218.3471328218438 72.06857503463519 L214.3471328218438 68.60447341949744 L214.3471328218438 61.676270189221924"/>
		<path opacity="0.5" fill="orange" d="M158.9215069796397 77.67627018922192 L162.9215069796397 81.14037180435967 L162.9215069796397 88.06857503463519 L158.9215069796397 84.60447341949744 L158.9215069796397 77.67627018922192"/>
		<path opacity="0.5" fill="orange" d="M214.3471328218438 61.676270189221924 L158.9215069796397 77.67627018922192 L158.9215069796397 84.60447341949744 L214.3471328218438 68.60447341949744 L214.3471328218438 61.676270189221924"/>
		<path opacity="0.5" fill="orange" d="M218.3471328218438 65.14037180435967 L162.9215069796397 81.14037180435967 L162.9215069796397 88.06857503463519 L218.3471328218438 72.06857503463519 L218.3471328218438 65.14037180435967"/>
		<path opacity="0.5" fill="orange" d="M214.3471328218438 61.676270189221924 L218.3471328218438 65.14037180435967 L162.9215069796397 81.14037180435967 L158.9215069796397 77.67627018922192 L214.3471328218438 61.676270189221924"/>
		<path opacity="0.5" fill="orange" d="M214.3471328218438 68.60447341949744 L218.3471328218438 72.06857503463519 L162.9215069796397 88.06857503463519 L158.9215069796397 84.60447341949744 L214.3471328218438 68.60447341949744"/>
		<text x="158.9215069796397" y="81.14037180435969" font-family="calibri" font-size="6">8</text>
		<text x="160.9215069796397" y="86.33652422706632" font-family="calibri" font-size="6">8</text>
		<text x="186.63431990074173" y="69.67627018922192" font-family="calibri" font-size="6">64</text>

		<path opacity="0.75" fill="pink" d="M-32.75600455829897 72.59513091203515 L-30.25600455829897 74.76019442149624 L9.702588082365594 61.90960544603957 L-32.75600455829897 72.59513091203515"/>
		<path opacity="0.75" fill="pink" d="M-32.75600455829897 72.59513091203515 L-32.75600455829897 76.92525793095734 L9.702588082365594 61.90960544603957 L-32.75600455829897 72.59513091203515"/>
		<path opacity="0.75" fill="pink" d="M-30.25600455829897 74.76019442149624 L-30.25600455829897 79.09032144041844 L9.702588082365594 61.90960544603957 L-30.25600455829897 74.76019442149624"/>
		<path opacity="0.75" fill="pink" d="M-32.75600455829897 76.92525793095734 L-30.25600455829897 79.09032144041844 L9.702588082365594 61.90960544603957 L-32.75600455829897 76.92525793095734"/>

		<path opacity="0.75" fill="darkturquoise" d="M-32.75600455829897 72.59513091203515 L-30.25600455829897 74.76019442149624 L-30.25600455829897 79.09032144041844 L-32.75600455829897 76.92525793095734 L-32.75600455829897 72.59513091203515"/>
		<path opacity="0.75" fill="darkturquoise" d="M-60.468817479401025 80.59513091203515 L-57.968817479401025 82.76019442149624 L-57.968817479401025 87.09032144041844 L-60.468817479401025 84.92525793095734 L-60.468817479401025 80.59513091203515"/>
		<path opacity="0.75" fill="darkturquoise" d="M-32.75600455829897 72.59513091203515 L-60.468817479401025 80.59513091203515 L-60.468817479401025 84.92525793095734 L-32.75600455829897 76.92525793095734 L-32.75600455829897 72.59513091203515"/>
		<path opacity="0.75" fill="darkturquoise" d="M-30.25600455829897 74.76019442149624 L-57.968817479401025 82.76019442149624 L-57.968817479401025 87.09032144041844 L-30.25600455829897 79.09032144041844 L-30.25600455829897 74.76019442149624"/>
		<path opacity="0.75" fill="darkturquoise" d="M-32.75600455829897 72.59513091203515 L-30.25600455829897 74.76019442149624 L-57.968817479401025 82.76019442149624 L-60.468817479401025 80.59513091203515 L-32.75600455829897 72.59513091203515"/>
		<path opacity="0.75" fill="darkturquoise" d="M-32.75600455829897 76.92525793095734 L-30.25600455829897 79.09032144041844 L-57.968817479401025 87.09032144041844 L-60.468817479401025 84.92525793095734 L-32.75600455829897 76.92525793095734"/>
		<text x="-60.468817479401025" y="82.76019442149624" font-family="calibri" font-size="6">5</text>
		<text x="-59.218817479401025" y="86.0077896856879" font-family="calibri" font-size="6">5</text>
		<text x="-46.61241101885" y="76.59513091203515" font-family="calibri" font-size="6">32</text>

		<path opacity="0.5" fill="orange" d="M-45.10665924100823 54.59039030917347 L-29.10665924100823 68.44679676972449 L-29.10665924100823 96.15960969082653 L-45.10665924100823 82.30320323027551 L-45.10665924100823 54.59039030917347"/>
		<path opacity="0.5" fill="orange" d="M-72.81947216211029 62.59039030917347 L-56.81947216211029 76.44679676972449 L-56.81947216211029 104.15960969082653 L-72.81947216211029 90.30320323027551 L-72.81947216211029 62.59039030917347"/>
		<path opacity="0.5" fill="orange" d="M-45.10665924100823 54.59039030917347 L-72.81947216211029 62.59039030917347 L-72.81947216211029 90.30320323027551 L-45.10665924100823 82.30320323027551 L-45.10665924100823 54.59039030917347"/>
		<path opacity="0.5" fill="orange" d="M-29.10665924100823 68.44679676972449 L-56.81947216211029 76.44679676972449 L-56.81947216211029 104.15960969082653 L-29.10665924100823 96.15960969082653 L-29.10665924100823 68.44679676972449"/>
		<path opacity="0.5" fill="orange" d="M-45.10665924100823 54.59039030917347 L-29.10665924100823 68.44679676972449 L-56.81947216211029 76.44679676972449 L-72.81947216211029 62.59039030917347 L-45.10665924100823 54.59039030917347"/>
		<path opacity="0.5" fill="orange" d="M-45.10665924100823 82.30320323027551 L-29.10665924100823 96.15960969082653 L-56.81947216211029 104.15960969082653 L-72.81947216211029 90.30320323027551 L-45.10665924100823 82.30320323027551"/>
		<text x="-72.81947216211029" y="76.4467967697245" font-family="calibri" font-size="6">32</text>
		<text x="-64.81947216211029" y="97.23140646055103" font-family="calibri" font-size="6">32</text>
		<text x="-58.96306570155926" y="58.59039030917347" font-family="calibri" font-size="6">32</text>

		<path opacity="0.75" fill="pink" d="M-112.82422815263863 81.47435673903458 L-107.82422815263863 85.80448375795677 L-71.42404648820673 83.35391119071596 L-112.82422815263863 81.47435673903458"/>
		<path opacity="0.75" fill="pink" d="M-112.82422815263863 81.47435673903458 L-112.82422815263863 90.13461077687896 L-71.42404648820673 83.35391119071596 L-112.82422815263863 81.47435673903458"/>
		<path opacity="0.75" fill="pink" d="M-107.82422815263863 85.80448375795677 L-107.82422815263863 94.46473779580116 L-71.42404648820673 83.35391119071596 L-107.82422815263863 85.80448375795677"/>
		<path opacity="0.75" fill="pink" d="M-112.82422815263863 90.13461077687896 L-107.82422815263863 94.46473779580116 L-71.42404648820673 83.35391119071596 L-112.82422815263863 90.13461077687896"/>

		<path opacity="0.75" fill="pink" d="M118.23091515308194 91.49811149972359 L120.73091515308194 93.66317500918468 L160.28740103946316 81.70054590612202 L118.23091515308194 91.49811149972359"/>
		<path opacity="0.75" fill="pink" d="M118.23091515308194 91.49811149972359 L118.23091515308194 95.82823851864578 L160.28740103946316 81.70054590612202 L118.23091515308194 91.49811149972359"/>
		<path opacity="0.75" fill="pink" d="M120.73091515308194 93.66317500918468 L120.73091515308194 97.99330202810688 L160.28740103946316 81.70054590612202 L120.73091515308194 93.66317500918468"/>
		<path opacity="0.75" fill="pink" d="M118.23091515308194 95.82823851864578 L120.73091515308194 97.99330202810688 L160.28740103946316 81.70054590612202 L118.23091515308194 95.82823851864578"/>

		<path opacity="0.75" fill="darkturquoise" d="M-112.82422815263863 81.47435673903458 L-107.82422815263863 85.80448375795677 L-107.82422815263863 94.46473779580116 L-112.82422815263863 90.13461077687896 L-112.82422815263863 81.47435673903458"/>
		<path opacity="0.75" fill="darkturquoise" d="M-130.14473622832742 86.47435673903458 L-125.14473622832742 90.80448375795677 L-125.14473622832742 99.46473779580116 L-130.14473622832742 95.13461077687896 L-130.14473622832742 86.47435673903458"/>
		<path opacity="0.75" fill="darkturquoise" d="M-112.82422815263863 81.47435673903458 L-130.14473622832742 86.47435673903458 L-130.14473622832742 95.13461077687896 L-112.82422815263863 90.13461077687896 L-112.82422815263863 81.47435673903458"/>
		<path opacity="0.75" fill="darkturquoise" d="M-107.82422815263863 85.80448375795677 L-125.14473622832742 90.80448375795677 L-125.14473622832742 99.46473779580116 L-107.82422815263863 94.46473779580116 L-107.82422815263863 85.80448375795677"/>
		<path opacity="0.75" fill="darkturquoise" d="M-112.82422815263863 81.47435673903458 L-107.82422815263863 85.80448375795677 L-125.14473622832742 90.80448375795677 L-130.14473622832742 86.47435673903458 L-112.82422815263863 81.47435673903458"/>
		<path opacity="0.75" fill="darkturquoise" d="M-112.82422815263863 90.13461077687896 L-107.82422815263863 94.46473779580116 L-125.14473622832742 99.46473779580116 L-130.14473622832742 95.13461077687896 L-112.82422815263863 90.13461077687896"/>
		<text x="-130.14473622832742" y="90.80448375795677" font-family="calibri" font-size="6">10</text>
		<text x="-127.64473622832742" y="97.29967428634006" font-family="calibri" font-size="6">10</text>
		<text x="-121.48448219048302" y="83.97435673903458" font-family="calibri" font-size="6">20</text>

		<path opacity="0.5" fill="orange" d="M-116.12074235133218 75.09039030917347 L-100.12074235133218 88.94679676972449 L-100.12074235133218 116.65960969082653 L-116.12074235133218 102.80320323027551 L-116.12074235133218 75.09039030917347"/>
		<path opacity="0.5" fill="orange" d="M-133.44125042702098 80.09039030917347 L-117.44125042702098 93.94679676972449 L-117.44125042702098 121.65960969082653 L-133.44125042702098 107.80320323027551 L-133.44125042702098 80.09039030917347"/>
		<path opacity="0.5" fill="orange" d="M-116.12074235133218 75.09039030917347 L-133.44125042702098 80.09039030917347 L-133.44125042702098 107.80320323027551 L-116.12074235133218 102.80320323027551 L-116.12074235133218 75.09039030917347"/>
		<path opacity="0.5" fill="orange" d="M-100.12074235133218 88.94679676972449 L-117.44125042702098 93.94679676972449 L-117.44125042702098 121.65960969082653 L-100.12074235133218 116.65960969082653 L-100.12074235133218 88.94679676972449"/>
		<path opacity="0.5" fill="orange" d="M-116.12074235133218 75.09039030917347 L-100.12074235133218 88.94679676972449 L-117.44125042702098 93.94679676972449 L-133.44125042702098 80.09039030917347 L-116.12074235133218 75.09039030917347"/>
		<path opacity="0.5" fill="orange" d="M-116.12074235133218 102.80320323027551 L-100.12074235133218 116.65960969082653 L-117.44125042702098 121.65960969082653 L-133.44125042702098 107.80320323027551 L-116.12074235133218 102.80320323027551"/>
		<text x="-133.44125042702098" y="93.9467967697245" font-family="calibri" font-size="6">32</text>
		<text x="-125.44125042702098" y="114.73140646055103" font-family="calibri" font-size="6">32</text>
		<text x="-124.78099638917658" y="77.59039030917347" font-family="calibri" font-size="6">20</text>

<!-- Arrow -->
		<path opacity="0.5" stroke="black" d="M272.3471328218438 115.36984522385711 L274.6580219542991 82.37113391789283"/>
		<circle opacity="0.5" cx="274.6580219542991" cy="82.37113391789283" r="1" fill="black" />
		<path opacity="0.75" fill="darkturquoise" d="M118.23091515308194 91.49811149972359 L120.73091515308194 93.66317500918468 L120.73091515308194 97.99330202810688 L118.23091515308194 95.82823851864578 L118.23091515308194 91.49811149972359"/>
		<path opacity="0.75" fill="darkturquoise" d="M62.80528931087787 107.49811149972359 L65.30528931087787 109.66317500918468 L65.30528931087787 113.99330202810688 L62.80528931087787 111.82823851864578 L62.80528931087787 107.49811149972359"/>
		<path opacity="0.75" fill="darkturquoise" d="M118.23091515308194 91.49811149972359 L62.80528931087787 107.49811149972359 L62.80528931087787 111.82823851864578 L118.23091515308194 95.82823851864578 L118.23091515308194 91.49811149972359"/>
		<path opacity="0.75" fill="darkturquoise" d="M120.73091515308194 93.66317500918468 L65.30528931087787 109.66317500918468 L65.30528931087787 113.99330202810688 L120.73091515308194 97.99330202810688 L120.73091515308194 93.66317500918468"/>
		<path opacity="0.75" fill="darkturquoise" d="M118.23091515308194 91.49811149972359 L120.73091515308194 93.66317500918468 L65.30528931087787 109.66317500918468 L62.80528931087787 107.49811149972359 L118.23091515308194 91.49811149972359"/>
		<path opacity="0.75" fill="darkturquoise" d="M118.23091515308194 95.82823851864578 L120.73091515308194 97.99330202810688 L65.30528931087787 113.99330202810688 L62.80528931087787 111.82823851864578 L118.23091515308194 95.82823851864578"/>
		<text x="62.80528931087787" y="109.66317500918468" font-family="calibri" font-size="6">5</text>
		<text x="64.05528931087787" y="112.91077027337633" font-family="calibri" font-size="6">5</text>
		<text x="90.5181022319799" y="99.49811149972359" font-family="calibri" font-size="6">64</text>

		<path opacity="0.5" fill="orange" d="M113.62023679041776 84.98011776651529 L121.62023679041776 91.90832099679079 L121.62023679041776 105.76472745734182 L113.62023679041776 98.8365242270663 L113.62023679041776 84.98011776651529"/>
		<path opacity="0.5" fill="orange" d="M58.19461094821372 100.98011776651529 L66.19461094821372 107.90832099679079 L66.19461094821372 121.76472745734182 L58.19461094821372 114.8365242270663 L58.19461094821372 100.98011776651529"/>
		<path opacity="0.5" fill="orange" d="M113.62023679041776 84.98011776651529 L58.19461094821372 100.98011776651529 L58.19461094821372 114.8365242270663 L113.62023679041776 98.8365242270663 L113.62023679041776 84.98011776651529"/>
		<path opacity="0.5" fill="orange" d="M121.62023679041776 91.90832099679079 L66.19461094821372 107.90832099679079 L66.19461094821372 121.76472745734182 L121.62023679041776 105.76472745734182 L121.62023679041776 91.90832099679079"/>
		<path opacity="0.5" fill="orange" d="M113.62023679041776 84.98011776651529 L121.62023679041776 91.90832099679079 L66.19461094821372 107.90832099679079 L58.19461094821372 100.98011776651529 L113.62023679041776 84.98011776651529"/>
		<path opacity="0.5" fill="orange" d="M113.62023679041776 98.8365242270663 L121.62023679041776 105.76472745734182 L66.19461094821372 121.76472745734182 L58.19461094821372 114.8365242270663 L113.62023679041776 98.8365242270663"/>
		<text x="58.19461094821372" y="107.90832099679079" font-family="calibri" font-size="6">16</text>
		<text x="62.19461094821372" y="118.30062584220406" font-family="calibri" font-size="6">16</text>
		<text x="85.90742386931575" y="92.98011776651529" font-family="calibri" font-size="6">64</text>

		<path opacity="0.75" fill="pink" d="M18.22336923301998 113.77975513986618 L20.72336923301998 115.94481864932727 L62.008500918032894 111.26126271669557 L18.22336923301998 113.77975513986618"/>
		<path opacity="0.75" fill="pink" d="M18.22336923301998 113.77975513986618 L18.22336923301998 118.10988215878838 L62.008500918032894 111.26126271669557 L18.22336923301998 113.77975513986618"/>
		<path opacity="0.75" fill="pink" d="M20.72336923301998 115.94481864932727 L20.72336923301998 120.27494566824947 L62.008500918032894 111.26126271669557 L20.72336923301998 115.94481864932727"/>
		<path opacity="0.75" fill="pink" d="M18.22336923301998 118.10988215878838 L20.72336923301998 120.27494566824947 L62.008500918032894 111.26126271669557 L18.22336923301998 118.10988215878838"/>

		<path opacity="0.5" fill="orange" d="M270.3471328218438 110.17369280115048 L274.3471328218438 113.63779441628824 L274.3471328218438 120.56599764656374 L270.3471328218438 117.10189603142598 L270.3471328218438 110.17369280115048"/>
		<path opacity="0.5" fill="orange" d="M214.92150697963973 126.17369280115048 L218.92150697963973 129.63779441628824 L218.92150697963973 136.56599764656374 L214.92150697963973 133.10189603142598 L214.92150697963973 126.17369280115048"/>
		<path opacity="0.5" fill="orange" d="M270.3471328218438 110.17369280115048 L214.92150697963973 126.17369280115048 L214.92150697963973 133.10189603142598 L270.3471328218438 117.10189603142598 L270.3471328218438 110.17369280115048"/>
		<path opacity="0.5" fill="orange" d="M274.3471328218438 113.63779441628824 L218.92150697963973 129.63779441628824 L218.92150697963973 136.56599764656374 L274.3471328218438 120.56599764656374 L274.3471328218438 113.63779441628824"/>
		<path opacity="0.5" fill="orange" d="M270.3471328218438 110.17369280115048 L274.3471328218438 113.63779441628824 L218.92150697963973 129.63779441628824 L214.92150697963973 126.17369280115048 L270.3471328218438 110.17369280115048"/>
		<path opacity="0.5" fill="orange" d="M270.3471328218438 117.10189603142598 L274.3471328218438 120.56599764656374 L218.92150697963973 136.56599764656374 L214.92150697963973 133.10189603142598 L270.3471328218438 117.10189603142598"/>
		<text x="214.92150697963973" y="129.63779441628822" font-family="calibri" font-size="6">8</text>
		<text x="216.92150697963973" y="134.83394683899485" font-family="calibri" font-size="6">8</text>
		<text x="242.63431990074176" y="118.17369280115048" font-family="calibri" font-size="6">64</text>

		<path opacity="0.75" fill="darkturquoise" d="M18.22336923301998 113.77975513986618 L20.72336923301998 115.94481864932727 L20.72336923301998 120.27494566824947 L18.22336923301998 118.10988215878838 L18.22336923301998 113.77975513986618"/>
		<path opacity="0.75" fill="darkturquoise" d="M-9.489443688082076 121.77975513986618 L-6.989443688082076 123.94481864932727 L-6.989443688082076 128.27494566824947 L-9.489443688082076 126.10988215878838 L-9.489443688082076 121.77975513986618"/>
		<path opacity="0.75" fill="darkturquoise" d="M18.22336923301998 113.77975513986618 L-9.489443688082076 121.77975513986618 L-9.489443688082076 126.10988215878838 L18.22336923301998 118.10988215878838 L18.22336923301998 113.77975513986618"/>
		<path opacity="0.75" fill="darkturquoise" d="M20.72336923301998 115.94481864932727 L-6.989443688082076 123.94481864932727 L-6.989443688082076 128.27494566824947 L20.72336923301998 120.27494566824947 L20.72336923301998 115.94481864932727"/>
		<path opacity="0.75" fill="darkturquoise" d="M18.22336923301998 113.77975513986618 L20.72336923301998 115.94481864932727 L-6.989443688082076 123.94481864932727 L-9.489443688082076 121.77975513986618 L18.22336923301998 113.77975513986618"/>
		<path opacity="0.75" fill="darkturquoise" d="M18.22336923301998 118.10988215878838 L20.72336923301998 120.27494566824947 L-6.989443688082076 128.27494566824947 L-9.489443688082076 126.10988215878838 L18.22336923301998 118.10988215878838"/>
		<text x="-9.489443688082076" y="123.94481864932729" font-family="calibri" font-size="6">5</text>
		<text x="-8.239443688082076" y="127.19241391351892" font-family="calibri" font-size="6">5</text>
		<text x="4.366962772468952" y="117.77975513986618" font-family="calibri" font-size="6">32</text>

		<path opacity="0.5" fill="orange" d="M10.89334075899177 103.08781292110203 L26.89334075899177 116.94421938165304 L26.89334075899177 144.65703230275508 L10.89334075899177 130.80062584220406 L10.89334075899177 103.08781292110203"/>
		<path opacity="0.5" fill="orange" d="M-16.819472162110287 111.08781292110203 L-0.8194721621102872 124.94421938165304 L-0.8194721621102872 152.65703230275508 L-16.819472162110287 138.80062584220406 L-16.819472162110287 111.08781292110203"/>
		<path opacity="0.5" fill="orange" d="M10.89334075899177 103.08781292110203 L-16.819472162110287 111.08781292110203 L-16.819472162110287 138.80062584220406 L10.89334075899177 130.80062584220406 L10.89334075899177 103.08781292110203"/>
		<path opacity="0.5" fill="orange" d="M26.89334075899177 116.94421938165304 L-0.8194721621102872 124.94421938165304 L-0.8194721621102872 152.65703230275508 L26.89334075899177 144.65703230275508 L26.89334075899177 116.94421938165304"/>
		<path opacity="0.5" fill="orange" d="M10.89334075899177 103.08781292110203 L26.89334075899177 116.94421938165304 L-0.8194721621102872 124.94421938165304 L-16.819472162110287 111.08781292110203 L10.89334075899177 103.08781292110203"/>
		<path opacity="0.5" fill="orange" d="M10.89334075899177 130.80062584220406 L26.89334075899177 144.65703230275508 L-0.8194721621102872 152.65703230275508 L-16.819472162110287 138.80062584220406 L10.89334075899177 130.80062584220406"/>
		<text x="-16.819472162110287" y="124.94421938165304" font-family="calibri" font-size="6">32</text>
		<text x="-8.819472162110287" y="145.72882907247958" font-family="calibri" font-size="6">32</text>
		<text x="-2.963065701559259" y="107.08781292110203" font-family="calibri" font-size="6">32</text>

		<path opacity="0.75" fill="pink" d="M171.80354521201298 140.0284962658587 L174.30354521201298 142.1935597753198 L218.8479963797945 134.30180808949387 L171.80354521201298 140.0284962658587"/>
		<path opacity="0.75" fill="pink" d="M171.80354521201298 140.0284962658587 L171.80354521201298 144.3586232847809 L218.8479963797945 134.30180808949387 L171.80354521201298 140.0284962658587"/>
		<path opacity="0.75" fill="pink" d="M174.30354521201298 142.1935597753198 L174.30354521201298 146.523686794242 L218.8479963797945 134.30180808949387 L174.30354521201298 142.1935597753198"/>
		<path opacity="0.75" fill="pink" d="M171.80354521201298 144.3586232847809 L174.30354521201298 146.523686794242 L218.8479963797945 134.30180808949387 L171.80354521201298 144.3586232847809"/>

		<path opacity="0.75" fill="pink" d="M-56.32913799253453 127.08417753716682 L-51.32913799253453 131.414304556089 L-6.749091157525584 126.12412257480757 L-56.32913799253453 127.08417753716682"/>
		<path opacity="0.75" fill="pink" d="M-56.32913799253453 127.08417753716682 L-56.32913799253453 135.74443157501122 L-6.749091157525584 126.12412257480757 L-56.32913799253453 127.08417753716682"/>
		<path opacity="0.75" fill="pink" d="M-51.32913799253453 131.414304556089 L-51.32913799253453 140.0745585939334 L-6.749091157525584 126.12412257480757 L-51.32913799253453 131.414304556089"/>
		<path opacity="0.75" fill="pink" d="M-56.32913799253453 135.74443157501122 L-51.32913799253453 140.0745585939334 L-6.749091157525584 126.12412257480757 L-56.32913799253453 135.74443157501122"/>

		<path opacity="0.75" fill="darkturquoise" d="M-56.32913799253453 127.08417753716682 L-51.32913799253453 131.414304556089 L-51.32913799253453 140.0745585939334 L-56.32913799253453 135.74443157501122 L-56.32913799253453 127.08417753716682"/>
		<path opacity="0.75" fill="darkturquoise" d="M-73.64964606822332 132.08417753716682 L-68.64964606822332 136.414304556089 L-68.64964606822332 145.0745585939334 L-73.64964606822332 140.74443157501122 L-73.64964606822332 132.08417753716682"/>
		<path opacity="0.75" fill="darkturquoise" d="M-56.32913799253453 127.08417753716682 L-73.64964606822332 132.08417753716682 L-73.64964606822332 140.74443157501122 L-56.32913799253453 135.74443157501122 L-56.32913799253453 127.08417753716682"/>
		<path opacity="0.75" fill="darkturquoise" d="M-51.32913799253453 131.414304556089 L-68.64964606822332 136.414304556089 L-68.64964606822332 145.0745585939334 L-51.32913799253453 140.0745585939334 L-51.32913799253453 131.414304556089"/>
		<path opacity="0.75" fill="darkturquoise" d="M-56.32913799253453 127.08417753716682 L-51.32913799253453 131.414304556089 L-68.64964606822332 136.414304556089 L-73.64964606822332 132.08417753716682 L-56.32913799253453 127.08417753716682"/>
		<path opacity="0.75" fill="darkturquoise" d="M-56.32913799253453 135.74443157501122 L-51.32913799253453 140.0745585939334 L-68.64964606822332 145.0745585939334 L-73.64964606822332 140.74443157501122 L-56.32913799253453 135.74443157501122"/>
		<text x="-73.64964606822332" y="136.414304556089" font-family="calibri" font-size="6">10</text>
		<text x="-71.14964606822332" y="142.90949508447233" font-family="calibri" font-size="6">10</text>
		<text x="-64.98939203037892" y="129.58417753716682" font-family="calibri" font-size="6">20</text>

		<path opacity="0.5" fill="orange" d="M-60.12074235133218 123.58781292110203 L-44.12074235133218 137.44421938165306 L-44.12074235133218 165.15703230275508 L-60.12074235133218 151.30062584220406 L-60.12074235133218 123.58781292110203"/>
		<path opacity="0.5" fill="orange" d="M-77.44125042702098 128.58781292110203 L-61.441250427020975 142.44421938165306 L-61.441250427020975 170.15703230275508 L-77.44125042702098 156.30062584220406 L-77.44125042702098 128.58781292110203"/>
		<path opacity="0.5" fill="orange" d="M-60.12074235133218 123.58781292110203 L-77.44125042702098 128.58781292110203 L-77.44125042702098 156.30062584220406 L-60.12074235133218 151.30062584220406 L-60.12074235133218 123.58781292110203"/>
		<path opacity="0.5" fill="orange" d="M-44.12074235133218 137.44421938165306 L-61.441250427020975 142.44421938165306 L-61.441250427020975 170.15703230275508 L-44.12074235133218 165.15703230275508 L-44.12074235133218 137.44421938165306"/>
		<path opacity="0.5" fill="orange" d="M-60.12074235133218 123.58781292110203 L-44.12074235133218 137.44421938165306 L-61.441250427020975 142.44421938165306 L-77.44125042702098 128.58781292110203 L-60.12074235133218 123.58781292110203"/>
		<path opacity="0.5" fill="orange" d="M-60.12074235133218 151.30062584220406 L-44.12074235133218 165.15703230275508 L-61.441250427020975 170.15703230275508 L-77.44125042702098 156.30062584220406 L-60.12074235133218 151.30062584220406"/>
		<text x="-77.44125042702098" y="142.44421938165306" font-family="calibri" font-size="6">32</text>
		<text x="-69.44125042702098" y="163.22882907247958" font-family="calibri" font-size="6">32</text>
		<text x="-68.78099638917658" y="126.08781292110203" font-family="calibri" font-size="6">20</text>

		<path opacity="0.75" fill="darkturquoise" d="M171.80354521201298 140.0284962658587 L174.30354521201298 142.1935597753198 L174.30354521201298 146.523686794242 L171.80354521201298 144.3586232847809 L171.80354521201298 140.0284962658587"/>
		<path opacity="0.75" fill="darkturquoise" d="M116.37791936980892 156.0284962658587 L118.87791936980892 158.1935597753198 L118.87791936980892 162.523686794242 L116.37791936980892 160.3586232847809 L116.37791936980892 156.0284962658587"/>
		<path opacity="0.75" fill="darkturquoise" d="M171.80354521201298 140.0284962658587 L116.37791936980892 156.0284962658587 L116.37791936980892 160.3586232847809 L171.80354521201298 144.3586232847809 L171.80354521201298 140.0284962658587"/>
		<path opacity="0.75" fill="darkturquoise" d="M174.30354521201298 142.1935597753198 L118.87791936980892 158.1935597753198 L118.87791936980892 162.523686794242 L174.30354521201298 146.523686794242 L174.30354521201298 142.1935597753198"/>
		<path opacity="0.75" fill="darkturquoise" d="M171.80354521201298 140.0284962658587 L174.30354521201298 142.1935597753198 L118.87791936980892 158.1935597753198 L116.37791936980892 156.0284962658587 L171.80354521201298 140.0284962658587"/>
		<path opacity="0.75" fill="darkturquoise" d="M171.80354521201298 144.3586232847809 L174.30354521201298 146.523686794242 L118.87791936980892 162.523686794242 L116.37791936980892 160.3586232847809 L171.80354521201298 144.3586232847809"/>
		<text x="116.37791936980892" y="158.19355977531978" font-family="calibri" font-size="6">5</text>
		<text x="117.62791936980892" y="161.44115503951144" font-family="calibri" font-size="6">5</text>
		<text x="144.09073229091095" y="148.0284962658587" font-family="calibri" font-size="6">64</text>

		<path opacity="0.5" fill="orange" d="M169.62023679041778 133.47754037844385 L177.62023679041778 140.40574360871935 L177.62023679041778 154.26215006927038 L169.62023679041778 147.33394683899488 L169.62023679041778 133.47754037844385"/>
		<path opacity="0.5" fill="orange" d="M114.19461094821372 149.47754037844385 L122.19461094821372 156.40574360871935 L122.19461094821372 170.26215006927038 L114.19461094821372 163.33394683899488 L114.19461094821372 149.47754037844385"/>
		<path opacity="0.5" fill="orange" d="M169.62023679041778 133.47754037844385 L114.19461094821372 149.47754037844385 L114.19461094821372 163.33394683899488 L169.62023679041778 147.33394683899488 L169.62023679041778 133.47754037844385"/>
		<path opacity="0.5" fill="orange" d="M177.62023679041778 140.40574360871935 L122.19461094821372 156.40574360871935 L122.19461094821372 170.26215006927038 L177.62023679041778 154.26215006927038 L177.62023679041778 140.40574360871935"/>
		<path opacity="0.5" fill="orange" d="M169.62023679041778 133.47754037844385 L177.62023679041778 140.40574360871935 L122.19461094821372 156.40574360871935 L114.19461094821372 149.47754037844385 L169.62023679041778 133.47754037844385"/>
		<path opacity="0.5" fill="orange" d="M169.62023679041778 147.33394683899488 L177.62023679041778 154.26215006927038 L122.19461094821372 170.26215006927038 L114.19461094821372 163.33394683899488 L169.62023679041778 147.33394683899488"/>
		<text x="114.19461094821372" y="156.40574360871938" font-family="calibri" font-size="6">16</text>
		<text x="118.19461094821372" y="166.79804845413264" font-family="calibri" font-size="6">16</text>
		<text x="141.90742386931575" y="141.47754037844385" font-family="calibri" font-size="6">64</text>

		<path opacity="0.75" fill="pink" d="M71.26749532449048 157.32206115440948 L73.76749532449048 159.48712466387056 L116.74655835481761 158.56909534482548 L71.26749532449048 157.32206115440948"/>
		<path opacity="0.75" fill="pink" d="M71.26749532449048 157.32206115440948 L71.26749532449048 161.65218817333167 L116.74655835481761 158.56909534482548 L71.26749532449048 157.32206115440948"/>
		<path opacity="0.75" fill="pink" d="M73.76749532449048 159.48712466387056 L73.76749532449048 163.81725168279274 L116.74655835481761 158.56909534482548 L73.76749532449048 159.48712466387056"/>
		<path opacity="0.75" fill="pink" d="M71.26749532449048 161.65218817333167 L73.76749532449048 163.81725168279274 L116.74655835481761 158.56909534482548 L71.26749532449048 161.65218817333167"/>

		<path opacity="0.75" fill="darkturquoise" d="M71.26749532449048 157.32206115440948 L73.76749532449048 159.48712466387056 L73.76749532449048 163.81725168279274 L71.26749532449048 161.65218817333167 L71.26749532449048 157.32206115440948"/>
		<path opacity="0.75" fill="darkturquoise" d="M43.554682403388426 165.32206115440948 L46.054682403388426 167.48712466387056 L46.054682403388426 171.81725168279274 L43.554682403388426 169.65218817333167 L43.554682403388426 165.32206115440948"/>
		<path opacity="0.75" fill="darkturquoise" d="M71.26749532449048 157.32206115440948 L43.554682403388426 165.32206115440948 L43.554682403388426 169.65218817333167 L71.26749532449048 161.65218817333167 L71.26749532449048 157.32206115440948"/>
		<path opacity="0.75" fill="darkturquoise" d="M73.76749532449048 159.48712466387056 L46.054682403388426 167.48712466387056 L46.054682403388426 171.81725168279274 L73.76749532449048 163.81725168279274 L73.76749532449048 159.48712466387056"/>
		<path opacity="0.75" fill="darkturquoise" d="M71.26749532449048 157.32206115440948 L73.76749532449048 159.48712466387056 L46.054682403388426 167.48712466387056 L43.554682403388426 165.32206115440948 L71.26749532449048 157.32206115440948"/>
		<path opacity="0.75" fill="darkturquoise" d="M71.26749532449048 161.65218817333167 L73.76749532449048 163.81725168279274 L46.054682403388426 171.81725168279274 L43.554682403388426 169.65218817333167 L71.26749532449048 161.65218817333167"/>
		<text x="43.554682403388426" y="167.4871246638706" font-family="calibri" font-size="6">5</text>
		<text x="44.804682403388426" y="170.7347199280622" font-family="calibri" font-size="6">5</text>
		<text x="57.411088863939455" y="161.32206115440948" font-family="calibri" font-size="6">32</text>

		<path opacity="0.5" fill="orange" d="M66.8933407589918 151.58523553303058 L82.8933407589918 165.44164199358158 L82.8933407589918 193.15445491468364 L66.8933407589918 179.2980484541326 L66.8933407589918 151.58523553303058"/>
		<path opacity="0.5" fill="orange" d="M39.18052783788974 159.58523553303058 L55.18052783788974 173.44164199358158 L55.18052783788974 201.15445491468364 L39.18052783788974 187.2980484541326 L39.18052783788974 159.58523553303058"/>
		<path opacity="0.5" fill="orange" d="M66.8933407589918 151.58523553303058 L39.18052783788974 159.58523553303058 L39.18052783788974 187.2980484541326 L66.8933407589918 179.2980484541326 L66.8933407589918 151.58523553303058"/>
		<path opacity="0.5" fill="orange" d="M82.8933407589918 165.44164199358158 L55.18052783788974 173.44164199358158 L55.18052783788974 201.15445491468364 L82.8933407589918 193.15445491468364 L82.8933407589918 165.44164199358158"/>
		<path opacity="0.5" fill="orange" d="M66.8933407589918 151.58523553303058 L82.8933407589918 165.44164199358158 L55.18052783788974 173.44164199358158 L39.18052783788974 159.58523553303058 L66.8933407589918 151.58523553303058"/>
		<path opacity="0.5" fill="orange" d="M66.8933407589918 179.2980484541326 L82.8933407589918 193.15445491468364 L55.18052783788974 201.15445491468364 L39.18052783788974 187.2980484541326 L66.8933407589918 179.2980484541326"/>
		<text x="39.18052783788974" y="173.44164199358158" font-family="calibri" font-size="6">32</text>
		<text x="47.18052783788974" y="194.2262516844081" font-family="calibri" font-size="6">32</text>
		<text x="53.03693429844077" y="155.58523553303058" font-family="calibri" font-size="6">32</text>

		<path opacity="0.75" fill="pink" d="M-0.5758720728980791 189.41825162861483 L4.424127927101921 193.74837864753704 L41.853473910926226 183.69874494540835 L-0.5758720728980791 189.41825162861483"/>
		<path opacity="0.75" fill="pink" d="M-0.5758720728980791 189.41825162861483 L-0.5758720728980791 198.07850566645922 L41.853473910926226 183.69874494540835 L-0.5758720728980791 189.41825162861483"/>
		<path opacity="0.75" fill="pink" d="M4.424127927101921 193.74837864753704 L4.424127927101921 202.4086326853814 L41.853473910926226 183.69874494540835 L4.424127927101921 193.74837864753704"/>
		<path opacity="0.75" fill="pink" d="M-0.5758720728980791 198.07850566645922 L4.424127927101921 202.4086326853814 L41.853473910926226 183.69874494540835 L-0.5758720728980791 198.07850566645922"/>

		<path opacity="0.75" fill="darkturquoise" d="M-0.5758720728980791 189.41825162861483 L4.424127927101921 193.74837864753704 L4.424127927101921 202.4086326853814 L-0.5758720728980791 198.07850566645922 L-0.5758720728980791 189.41825162861483"/>
		<path opacity="0.75" fill="darkturquoise" d="M-17.89638014858687 194.41825162861483 L-12.896380148586871 198.74837864753704 L-12.896380148586871 207.4086326853814 L-17.89638014858687 203.07850566645922 L-17.89638014858687 194.41825162861483"/>
		<path opacity="0.75" fill="darkturquoise" d="M-0.5758720728980791 189.41825162861483 L-17.89638014858687 194.41825162861483 L-17.89638014858687 203.07850566645922 L-0.5758720728980791 198.07850566645922 L-0.5758720728980791 189.41825162861483"/>
		<path opacity="0.75" fill="darkturquoise" d="M4.424127927101921 193.74837864753704 L-12.896380148586871 198.74837864753704 L-12.896380148586871 207.4086326853814 L4.424127927101921 202.4086326853814 L4.424127927101921 193.74837864753704"/>
		<path opacity="0.75" fill="darkturquoise" d="M-0.5758720728980791 189.41825162861483 L4.424127927101921 193.74837864753704 L-12.896380148586871 198.74837864753704 L-17.89638014858687 194.41825162861483 L-0.5758720728980791 189.41825162861483"/>
		<path opacity="0.75" fill="darkturquoise" d="M-0.5758720728980791 198.07850566645922 L4.424127927101921 202.4086326853814 L-12.896380148586871 207.4086326853814 L-17.89638014858687 203.07850566645922 L-0.5758720728980791 198.07850566645922"/>
		<text x="-17.89638014858687" y="198.74837864753704" font-family="calibri" font-size="6">10</text>
		<text x="-15.396380148586871" y="205.2435691759203" font-family="calibri" font-size="6">10</text>
		<text x="-9.236126110742475" y="191.91825162861483" font-family="calibri" font-size="6">20</text>

		<path opacity="0.5" fill="orange" d="M-4.120742351332154 172.08523553303058 L11.879257648667846 185.94164199358158 L11.879257648667846 213.65445491468364 L-4.120742351332154 199.7980484541326 L-4.120742351332154 172.08523553303058"/>
		<path opacity="0.5" fill="orange" d="M-21.441250427020947 177.08523553303058 L-5.441250427020947 190.94164199358158 L-5.441250427020947 218.65445491468364 L-21.441250427020947 204.7980484541326 L-21.441250427020947 177.08523553303058"/>
		<path opacity="0.5" fill="orange" d="M-4.120742351332154 172.08523553303058 L-21.441250427020947 177.08523553303058 L-21.441250427020947 204.7980484541326 L-4.120742351332154 199.7980484541326 L-4.120742351332154 172.08523553303058"/>
		<path opacity="0.5" fill="orange" d="M11.879257648667846 185.94164199358158 L-5.441250427020947 190.94164199358158 L-5.441250427020947 218.65445491468364 L11.879257648667846 213.65445491468364 L11.879257648667846 185.94164199358158"/>
		<path opacity="0.5" fill="orange" d="M-4.120742351332154 172.08523553303058 L11.879257648667846 185.94164199358158 L-5.441250427020947 190.94164199358158 L-21.441250427020947 177.08523553303058 L-4.120742351332154 172.08523553303058"/>
		<path opacity="0.5" fill="orange" d="M-4.120742351332154 199.7980484541326 L11.879257648667846 213.65445491468364 L-5.441250427020947 218.65445491468364 L-21.441250427020947 204.7980484541326 L-4.120742351332154 199.7980484541326"/>
		<text x="-21.441250427020947" y="190.94164199358158" font-family="calibri" font-size="6">32</text>
		<text x="-13.441250427020947" y="211.7262516844081" font-family="calibri" font-size="6">32</text>
		<text x="-12.78099638917655" y="174.58523553303058" font-family="calibri" font-size="6">20</text>

	 </g>
</svg>