<svg width="1000.0px" height="1000.0px" viewBox="-500.0 -500.0 1000.0 1000.0" xmlns="http://www.w3.org/2000/svg">
	<g stroke="black" stroke-width="0.3">
		<path opacity="0.75" fill="darkturquoise" d="M471.628750427021 -207.059485490365 L476.628750427021 -198.69432245298694 L476.628750427021 -146.93051343248288 L471.628750427021 -155.29567646986095 L471.628750427021 -207.059485490365"/>
		<path opacity="0.75" fill="darkturquoise" d="M462.9684963891766 -202.22985635891968 L467.9684963891766 -193.8646933215416 L467.9684963891766 -142.10088430103755 L462.9684963891766 -150.46604733841565 L462.9684963891766 -202.22985635891968"/>
		<path opacity="0.75" fill="darkturquoise" d="M471.628750427021 -207.059485490365 L462.9684963891766 -202.22985635891968 L462.9684963891766 -150.46604733841565 L471.628750427021 -155.29567646986095 L471.628750427021 -207.059485490365"/>
		<path opacity="0.75" fill="darkturquoise" d="M476.628750427021 -198.69432245298694 L467.9684963891766 -193.8646933215416 L467.9684963891766 -142.10088430103755 L476.628750427021 -146.93051343248288 L476.628750427021 -198.69432245298694"/>
		<path opacity="0.75" fill="darkturquoise" d="M471.628750427021 -207.059485490365 L476.628750427021 -198.69432245298694 L467.9684963891766 -193.8646933215416 L462.9684963891766 -202.22985635891968 L471.628750427021 -207.059485490365"/>
		<path opacity="0.75" fill="darkturquoise" d="M471.628750427021 -155.29567646986095 L476.628750427021 -146.93051343248288 L467.9684963891766 -142.10088430103755 L462.9684963891766 -150.46604733841565 L471.628750427021 -155.29567646986095"/>
		<text x="462.9684963891766" y="-176.34795184866766" font-family="calibri" font-size="4">200</text>
		<text x="465.4684963891766" y="-146.2834658197266" font-family="calibri" font-size="4">10</text>
		<text x="467.2986234080988" y="-204.64467092464236" font-family="calibri" font-size="4">10</text>

<!-- Arrow -->
		<path opacity="0.5" stroke="black" d="M422.16722619995465 -148.0172246727519 L465.4684963891766 -172.16537032997863"/>
		<circle opacity="0.5" cx="465.4684963891766" cy="-172.16537032997863" r="1" fill="black" />
		<path opacity="0.5" fill="orange" d="M297.1720588025886 -155.32906816512406 L301.1720588025886 -148.63693773522158 L301.1720588025886 -146.56638537440142 L297.1720588025886 -153.2585158043039 L297.1720588025886 -155.32906816512406"/>
		<path opacity="0.5" fill="orange" d="M241.74643296038454 -124.41944172387385 L245.74643296038454 -117.72731129397138 L245.74643296038454 -115.65675893315122 L241.74643296038454 -122.34888936305369 L241.74643296038454 -124.41944172387385"/>
		<path opacity="0.5" fill="orange" d="M297.1720588025886 -155.32906816512406 L241.74643296038454 -124.41944172387385 L241.74643296038454 -122.34888936305369 L297.1720588025886 -153.2585158043039 L297.1720588025886 -155.32906816512406"/>
		<path opacity="0.5" fill="orange" d="M301.1720588025886 -148.63693773522158 L245.74643296038454 -117.72731129397138 L245.74643296038454 -115.65675893315122 L301.1720588025886 -146.56638537440142 L301.1720588025886 -148.63693773522158"/>
		<path opacity="0.5" fill="orange" d="M297.1720588025886 -155.32906816512406 L301.1720588025886 -148.63693773522158 L245.74643296038454 -117.72731129397138 L241.74643296038454 -124.41944172387385 L297.1720588025886 -155.32906816512406"/>
		<path opacity="0.5" fill="orange" d="M297.1720588025886 -153.2585158043039 L301.1720588025886 -146.56638537440142 L245.74643296038454 -115.65675893315122 L241.74643296038454 -122.34888936305369 L297.1720588025886 -153.2585158043039"/>
		<text x="241.74643296038454" y="-123.38416554346377" font-family="calibri" font-size="4">8</text>
		<text x="243.74643296038454" y="-119.00282414810246" font-family="calibri" font-size="4">8</text>
		<text x="269.4592458814866" y="-139.87425494449894" font-family="calibri" font-size="4">64</text>

<!-- Arrow -->
		<path opacity="0.5" stroke="black" d="M299.1720588025886 -150.94772676976274 L361.54544793504397 -114.2098207526345"/>
		<circle opacity="0.5" cx="361.54544793504397" cy="-114.2098207526345" r="1" fill="black" />
<!-- Arrow -->
		<path opacity="0.5" stroke="black" d="M370.20570197288833 -119.03944988407986 L413.5069721621103 -143.18759554130656"/>
		<circle opacity="0.5" cx="413.5069721621103" cy="-143.18759554130656" r="1" fill="black" />
		<path opacity="0.75" fill="darkturquoise" d="M419.66722619995465 -178.08171070169294 L424.66722619995465 -169.71654766431487 L424.66722619995465 -117.95273864381082 L419.66722619995465 -126.3179016811889 L419.66722619995465 -178.08171070169294"/>
		<path opacity="0.75" fill="darkturquoise" d="M411.0069721621103 -173.2520815702476 L416.0069721621103 -164.88691853286954 L416.0069721621103 -113.12310951236549 L411.0069721621103 -121.48827254974357 L411.0069721621103 -173.2520815702476"/>
		<path opacity="0.75" fill="darkturquoise" d="M419.66722619995465 -178.08171070169294 L411.0069721621103 -173.2520815702476 L411.0069721621103 -121.48827254974357 L419.66722619995465 -126.3179016811889 L419.66722619995465 -178.08171070169294"/>
		<path opacity="0.75" fill="darkturquoise" d="M424.66722619995465 -169.71654766431487 L416.0069721621103 -164.88691853286954 L416.0069721621103 -113.12310951236549 L424.66722619995465 -117.95273864381082 L424.66722619995465 -169.71654766431487"/>
		<path opacity="0.75" fill="darkturquoise" d="M419.66722619995465 -178.08171070169294 L424.66722619995465 -169.71654766431487 L416.0069721621103 -164.88691853286954 L411.0069721621103 -173.2520815702476 L419.66722619995465 -178.08171070169294"/>
		<path opacity="0.75" fill="darkturquoise" d="M419.66722619995465 -126.3179016811889 L424.66722619995465 -117.95273864381082 L416.0069721621103 -113.12310951236549 L411.0069721621103 -121.48827254974357 L419.66722619995465 -126.3179016811889"/>
		<text x="411.0069721621103" y="-147.3701770599956" font-family="calibri" font-size="4">200</text>
		<text x="413.5069721621103" y="-117.30569103105452" font-family="calibri" font-size="4">10</text>
		<text x="415.3370991810325" y="-175.66689613597026" font-family="calibri" font-size="4">10</text>

		<path opacity="0.75" fill="darkturquoise" d="M367.70570197288833 -149.1039359130209 L372.70570197288833 -140.73877287564284 L372.70570197288833 -88.97496385513878 L367.70570197288833 -97.34012689251686 L367.70570197288833 -149.1039359130209"/>
		<path opacity="0.75" fill="darkturquoise" d="M359.04544793504397 -144.27430678157555 L364.04544793504397 -135.90914374419748 L364.04544793504397 -84.14533472369342 L359.04544793504397 -92.5104977610715 L359.04544793504397 -144.27430678157555"/>
		<path opacity="0.75" fill="darkturquoise" d="M367.70570197288833 -149.1039359130209 L359.04544793504397 -144.27430678157555 L359.04544793504397 -92.5104977610715 L367.70570197288833 -97.34012689251686 L367.70570197288833 -149.1039359130209"/>
		<path opacity="0.75" fill="darkturquoise" d="M372.70570197288833 -140.73877287564284 L364.04544793504397 -135.90914374419748 L364.04544793504397 -84.14533472369342 L372.70570197288833 -88.97496385513878 L372.70570197288833 -140.73877287564284"/>
		<path opacity="0.75" fill="darkturquoise" d="M367.70570197288833 -149.1039359130209 L372.70570197288833 -140.73877287564284 L364.04544793504397 -135.90914374419748 L359.04544793504397 -144.27430678157555 L367.70570197288833 -149.1039359130209"/>
		<path opacity="0.75" fill="darkturquoise" d="M367.70570197288833 -97.34012689251686 L372.70570197288833 -88.97496385513878 L364.04544793504397 -84.14533472369342 L359.04544793504397 -92.5104977610715 L367.70570197288833 -97.34012689251686"/>
		<text x="359.04544793504397" y="-118.39240227132353" font-family="calibri" font-size="4">200</text>
		<text x="361.54544793504397" y="-88.32791624238246" font-family="calibri" font-size="4">10</text>
		<text x="363.3755749539662" y="-146.68912134729823" font-family="calibri" font-size="4">10</text>

		<path opacity="0.75" fill="pink" d="M198.85605244770625 -99.31248514889873 L201.35605244770625 -95.1299036302097 L242.5513528088799 -122.63115967464054 L198.85605244770625 -99.31248514889873"/>
		<path opacity="0.75" fill="pink" d="M198.85605244770625 -99.31248514889873 L198.85605244770625 -98.01838992338611 L242.5513528088799 -122.63115967464054 L198.85605244770625 -99.31248514889873"/>
		<path opacity="0.75" fill="pink" d="M201.35605244770625 -95.1299036302097 L201.35605244770625 -93.83580840469708 L242.5513528088799 -122.63115967464054 L201.35605244770625 -95.1299036302097"/>
		<path opacity="0.75" fill="pink" d="M198.85605244770625 -98.01838992338611 L201.35605244770625 -93.83580840469708 L242.5513528088799 -122.63115967464054 L198.85605244770625 -98.01838992338611"/>

		<path opacity="0.75" fill="darkturquoise" d="M198.85605244770625 -99.31248514889873 L201.35605244770625 -95.1299036302097 L201.35605244770625 -93.83580840469708 L198.85605244770625 -98.01838992338611 L198.85605244770625 -99.31248514889873"/>
		<path opacity="0.75" fill="darkturquoise" d="M143.43042660550216 -68.40285870764853 L145.93042660550216 -64.2202771889595 L145.93042660550216 -62.92618196344689 L143.43042660550216 -67.10876348213593 L143.43042660550216 -68.40285870764853"/>
		<path opacity="0.75" fill="darkturquoise" d="M198.85605244770625 -99.31248514889873 L143.43042660550216 -68.40285870764853 L143.43042660550216 -67.10876348213593 L198.85605244770625 -98.01838992338611 L198.85605244770625 -99.31248514889873"/>
		<path opacity="0.75" fill="darkturquoise" d="M201.35605244770625 -95.1299036302097 L145.93042660550216 -64.2202771889595 L145.93042660550216 -62.92618196344689 L201.35605244770625 -93.83580840469708 L201.35605244770625 -95.1299036302097"/>
		<path opacity="0.75" fill="darkturquoise" d="M198.85605244770625 -99.31248514889873 L201.35605244770625 -95.1299036302097 L145.93042660550216 -64.2202771889595 L143.43042660550216 -68.40285870764853 L198.85605244770625 -99.31248514889873"/>
		<path opacity="0.75" fill="darkturquoise" d="M198.85605244770625 -98.01838992338611 L201.35605244770625 -93.83580840469708 L145.93042660550216 -62.92618196344689 L143.43042660550216 -67.10876348213593 L198.85605244770625 -98.01838992338611"/>
		<text x="143.43042660550216" y="-67.75581109489224" font-family="calibri" font-size="4">5</text>
		<text x="144.68042660550216" y="-65.01747272279141" font-family="calibri" font-size="4">5</text>
		<text x="171.1432395266042" y="-83.85767192827363" font-family="calibri" font-size="4">64</text>

		<path opacity="0.5" fill="orange" d="M198.4451627711626 -100.27129606664712 L202.4451627711626 -93.57916563674465 L202.4451627711626 -91.50861327592449 L198.4451627711626 -98.20074370582697 L198.4451627711626 -100.27129606664712"/>
		<path opacity="0.5" fill="orange" d="M143.01953692895853 -69.36166962539693 L147.01953692895853 -62.669539195494465 L147.01953692895853 -60.59898683467431 L143.01953692895853 -67.29111726457677 L143.01953692895853 -69.36166962539693"/>
		<path opacity="0.5" fill="orange" d="M198.4451627711626 -100.27129606664712 L143.01953692895853 -69.36166962539693 L143.01953692895853 -67.29111726457677 L198.4451627711626 -98.20074370582697 L198.4451627711626 -100.27129606664712"/>
		<path opacity="0.5" fill="orange" d="M202.4451627711626 -93.57916563674465 L147.01953692895853 -62.669539195494465 L147.01953692895853 -60.59898683467431 L202.4451627711626 -91.50861327592449 L202.4451627711626 -93.57916563674465"/>
		<path opacity="0.5" fill="orange" d="M198.4451627711626 -100.27129606664712 L202.4451627711626 -93.57916563674465 L147.01953692895853 -62.669539195494465 L143.01953692895853 -69.36166962539693 L198.4451627711626 -100.27129606664712"/>
		<path opacity="0.5" fill="orange" d="M198.4451627711626 -98.20074370582697 L202.4451627711626 -91.50861327592449 L147.01953692895853 -60.59898683467431 L143.01953692895853 -67.29111726457677 L198.4451627711626 -98.20074370582697"/>
		<text x="143.01953692895853" y="-68.32639344498685" font-family="calibri" font-size="4">8</text>
		<text x="145.01953692895853" y="-63.94505204962554" font-family="calibri" font-size="4">8</text>
		<text x="170.73234985006056" y="-84.81648284602203" font-family="calibri" font-size="4">64</text>

<!-- Arrow -->
		<path opacity="0.5" stroke="black" d="M93.33364779650317 -83.83769825476821 L145.01953692895853 -64.98032823003561"/>
		<circle opacity="0.5" cx="145.01953692895853" cy="-64.98032823003561" r="1" fill="black" />
		<path opacity="0.5" fill="orange" d="M91.33364779650317 -88.21903965012952 L95.33364779650317 -81.52690922022705 L95.33364779650317 -79.4563568594069 L91.33364779650317 -86.14848728930936 L91.33364779650317 -88.21903965012952"/>
		<path opacity="0.5" fill="orange" d="M35.9080219542991 -57.30941320887932 L39.9080219542991 -50.61728277897686 L39.9080219542991 -48.5467304181567 L35.9080219542991 -55.23886084805916 L35.9080219542991 -57.30941320887932"/>
		<path opacity="0.5" fill="orange" d="M91.33364779650317 -88.21903965012952 L35.9080219542991 -57.30941320887932 L35.9080219542991 -55.23886084805916 L91.33364779650317 -86.14848728930936 L91.33364779650317 -88.21903965012952"/>
		<path opacity="0.5" fill="orange" d="M95.33364779650317 -81.52690922022705 L39.9080219542991 -50.61728277897686 L39.9080219542991 -48.5467304181567 L95.33364779650317 -79.4563568594069 L95.33364779650317 -81.52690922022705"/>
		<path opacity="0.5" fill="orange" d="M91.33364779650317 -88.21903965012952 L95.33364779650317 -81.52690922022705 L39.9080219542991 -50.61728277897686 L35.9080219542991 -57.30941320887932 L91.33364779650317 -88.21903965012952"/>
		<path opacity="0.5" fill="orange" d="M91.33364779650317 -86.14848728930936 L95.33364779650317 -79.4563568594069 L39.9080219542991 -48.5467304181567 L35.9080219542991 -55.23886084805916 L91.33364779650317 -86.14848728930936"/>
		<text x="35.9080219542991" y="-56.27413702846924" font-family="calibri" font-size="4">8</text>
		<text x="37.9080219542991" y="-51.89279563310793" font-family="calibri" font-size="4">8</text>
		<text x="63.62083487540114" y="-72.76422642950442" font-family="calibri" font-size="4">64</text>

<!-- Arrow -->
		<path opacity="0.5" stroke="black" d="M277.5605438279292 4.148817585920035 L361.54544793504397 -114.2098207526345"/>
		<circle opacity="0.5" cx="361.54544793504397" cy="-114.2098207526345" r="1" fill="black" />
		<path opacity="0.75" fill="pink" d="M-4.010853096523775 -26.720664137737955 L-1.5108530965237748 -22.53808261904892 L38.62465457818392 -52.33451383857759 L-4.010853096523775 -26.720664137737955"/>
		<path opacity="0.75" fill="pink" d="M-4.010853096523775 -26.720664137737955 L-4.010853096523775 -25.42656891222535 L38.62465457818392 -52.33451383857759 L-4.010853096523775 -26.720664137737955"/>
		<path opacity="0.75" fill="pink" d="M-1.5108530965237748 -22.53808261904892 L-1.5108530965237748 -21.243987393536322 L38.62465457818392 -52.33451383857759 L-1.5108530965237748 -22.53808261904892"/>
		<path opacity="0.75" fill="pink" d="M-4.010853096523775 -25.42656891222535 L-1.5108530965237748 -21.243987393536322 L38.62465457818392 -52.33451383857759 L-4.010853096523775 -25.42656891222535"/>

<!-- Arrow -->
		<path opacity="0.5" stroke="black" d="M50.34713282184376 35.497774116123274 L145.01953692895853 -64.98032823003561"/>
		<circle opacity="0.5" cx="145.01953692895853" cy="-64.98032823003561" r="1" fill="black" />
		<path opacity="0.75" fill="darkturquoise" d="M-4.010853096523775 -26.720664137737955 L-1.5108530965237748 -22.53808261904892 L-1.5108530965237748 -21.243987393536322 L-4.010853096523775 -25.42656891222535 L-4.010853096523775 -26.720664137737955"/>
		<path opacity="0.75" fill="darkturquoise" d="M-59.43647893872782 4.188962303512241 L-56.93647893872782 8.371543822201275 L-56.93647893872782 9.665639047713874 L-59.43647893872782 5.4830575290248476 L-59.43647893872782 4.188962303512241"/>
		<path opacity="0.75" fill="darkturquoise" d="M-4.010853096523775 -26.720664137737955 L-59.43647893872782 4.188962303512241 L-59.43647893872782 5.4830575290248476 L-4.010853096523775 -25.42656891222535 L-4.010853096523775 -26.720664137737955"/>
		<path opacity="0.75" fill="darkturquoise" d="M-1.5108530965237748 -22.53808261904892 L-56.93647893872782 8.371543822201275 L-56.93647893872782 9.665639047713874 L-1.5108530965237748 -21.243987393536322 L-1.5108530965237748 -22.53808261904892"/>
		<path opacity="0.75" fill="darkturquoise" d="M-4.010853096523775 -26.720664137737955 L-1.5108530965237748 -22.53808261904892 L-56.93647893872782 8.371543822201275 L-59.43647893872782 4.188962303512241 L-4.010853096523775 -26.720664137737955"/>
		<path opacity="0.75" fill="darkturquoise" d="M-4.010853096523775 -25.42656891222535 L-1.5108530965237748 -21.243987393536322 L-56.93647893872782 9.665639047713874 L-59.43647893872782 5.4830575290248476 L-4.010853096523775 -25.42656891222535"/>
		<text x="-59.43647893872782" y="4.836009916268544" font-family="calibri" font-size="4">5</text>
		<text x="-58.18647893872782" y="7.574348288369361" font-family="calibri" font-size="4">5</text>
		<text x="-31.723666017625796" y="-11.265850917112857" font-family="calibri" font-size="4">64</text>

		<path opacity="0.5" fill="orange" d="M-9.393248234922822 -37.54260894701392 L-1.3932482349228223 -24.158348087208978 L-1.3932482349228223 -20.01724336556866 L-9.393248234922822 -33.4015042253736 L-9.393248234922822 -37.54260894701392"/>
		<path opacity="0.5" fill="orange" d="M-64.81887407712688 -6.632982505763721 L-56.81887407712688 6.751278354041219 L-56.81887407712688 10.892383075681536 L-64.81887407712688 -2.491877784123403 L-64.81887407712688 -6.632982505763721"/>
		<path opacity="0.5" fill="orange" d="M-9.393248234922822 -37.54260894701392 L-64.81887407712688 -6.632982505763721 L-64.81887407712688 -2.491877784123403 L-9.393248234922822 -33.4015042253736 L-9.393248234922822 -37.54260894701392"/>
		<path opacity="0.5" fill="orange" d="M-1.3932482349228223 -24.158348087208978 L-56.81887407712688 6.751278354041219 L-56.81887407712688 10.892383075681536 L-1.3932482349228223 -20.01724336556866 L-1.3932482349228223 -24.158348087208978"/>
		<path opacity="0.5" fill="orange" d="M-9.393248234922822 -37.54260894701392 L-1.3932482349228223 -24.158348087208978 L-56.81887407712688 6.751278354041219 L-64.81887407712688 -6.632982505763721 L-9.393248234922822 -37.54260894701392"/>
		<path opacity="0.5" fill="orange" d="M-9.393248234922822 -33.4015042253736 L-1.3932482349228223 -20.01724336556866 L-56.81887407712688 10.892383075681536 L-64.81887407712688 -2.491877784123403 L-9.393248234922822 -33.4015042253736"/>
		<text x="-64.81887407712688" y="-4.562430144943562" font-family="calibri" font-size="4">16</text>
		<text x="-60.81887407712688" y="4.2002526457790665" font-family="calibri" font-size="4">16</text>
		<text x="-37.10606115602485" y="-22.08779572638882" font-family="calibri" font-size="4">64</text>

<!-- Arrow -->
		<path opacity="0.5" stroke="black" d="M-105.37976320958228 -4.807312411509926 L-60.81887407712688 2.1297002849589077"/>
		<circle opacity="0.5" cx="-60.81887407712688" cy="2.1297002849589077" r="1" fill="black" />
		<path opacity="0.5" fill="orange" d="M-109.37976320958228 -13.569995202232548 L-101.37976320958228 -0.18573434242762232 L-101.37976320958228 3.9553703792126953 L-109.37976320958228 -9.42889048059223 L-109.37976320958228 -13.569995202232548"/>
		<path opacity="0.5" fill="orange" d="M-164.80538905178634 17.33963123901765 L-156.80538905178634 30.723892098822574 L-156.80538905178634 34.86499682046289 L-164.80538905178634 21.480735960657967 L-164.80538905178634 17.33963123901765"/>
		<path opacity="0.5" fill="orange" d="M-109.37976320958228 -13.569995202232548 L-164.80538905178634 17.33963123901765 L-164.80538905178634 21.480735960657967 L-109.37976320958228 -9.42889048059223 L-109.37976320958228 -13.569995202232548"/>
		<path opacity="0.5" fill="orange" d="M-101.37976320958228 -0.18573434242762232 L-156.80538905178634 30.723892098822574 L-156.80538905178634 34.86499682046289 L-101.37976320958228 3.9553703792126953 L-101.37976320958228 -0.18573434242762232"/>
		<path opacity="0.5" fill="orange" d="M-109.37976320958228 -13.569995202232548 L-101.37976320958228 -0.18573434242762232 L-156.80538905178634 30.723892098822574 L-164.80538905178634 17.33963123901765 L-109.37976320958228 -13.569995202232548"/>
		<path opacity="0.5" fill="orange" d="M-109.37976320958228 -9.42889048059223 L-101.37976320958228 3.9553703792126953 L-156.80538905178634 34.86499682046289 L-164.80538905178634 21.480735960657967 L-109.37976320958228 -9.42889048059223"/>
		<text x="-164.80538905178634" y="19.410183599837808" font-family="calibri" font-size="4">16</text>
		<text x="-160.80538905178634" y="28.17286639056043" font-family="calibri" font-size="4">16</text>
		<text x="-137.0925761306843" y="1.8848180183925507" font-family="calibri" font-size="4">64</text>

		<path opacity="0.5" fill="orange" d="M275.5605438279292 -0.23252380944127538 L279.5605438279292 6.459606620461187 L279.5605438279292 8.530158981281346 L275.5605438279292 1.8380285513788834 L275.5605438279292 -0.23252380944127538"/>
		<path opacity="0.5" fill="orange" d="M220.1349179857251 30.67710263180893 L224.1349179857251 37.36923306171139 L224.1349179857251 39.43978542253155 L220.1349179857251 32.74765499262909 L220.1349179857251 30.67710263180893"/>
		<path opacity="0.5" fill="orange" d="M275.5605438279292 -0.23252380944127538 L220.1349179857251 30.67710263180893 L220.1349179857251 32.74765499262909 L275.5605438279292 1.8380285513788834 L275.5605438279292 -0.23252380944127538"/>
		<path opacity="0.5" fill="orange" d="M279.5605438279292 6.459606620461187 L224.1349179857251 37.36923306171139 L224.1349179857251 39.43978542253155 L279.5605438279292 8.530158981281346 L279.5605438279292 6.459606620461187"/>
		<path opacity="0.5" fill="orange" d="M275.5605438279292 -0.23252380944127538 L279.5605438279292 6.459606620461187 L224.1349179857251 37.36923306171139 L220.1349179857251 30.67710263180893 L275.5605438279292 -0.23252380944127538"/>
		<path opacity="0.5" fill="orange" d="M275.5605438279292 1.8380285513788834 L279.5605438279292 8.530158981281346 L224.1349179857251 39.43978542253155 L220.1349179857251 32.74765499262909 L275.5605438279292 1.8380285513788834"/>
		<text x="220.1349179857251" y="31.712378812219008" font-family="calibri" font-size="4">8</text>
		<text x="222.1349179857251" y="36.09372020758032" font-family="calibri" font-size="4">8</text>
		<text x="247.84773090682717" y="15.222289411183827" font-family="calibri" font-size="4">64</text>

<!-- Arrow -->
		<path opacity="0.5" stroke="black" d="M-76.87976320958225 42.87411690154513 L-60.81887407712688 2.1297002849589077"/>
		<circle opacity="0.5" cx="-60.81887407712688" cy="2.1297002849589077" r="1" fill="black" />
		<path opacity="0.75" fill="pink" d="M-203.7489617520519 48.80372086091043 L-201.2489617520519 52.986302379599465 L-157.84362887399038 29.023647417702094 L-203.7489617520519 48.80372086091043"/>
		<path opacity="0.75" fill="pink" d="M-203.7489617520519 48.80372086091043 L-203.7489617520519 50.09781608642304 L-157.84362887399038 29.023647417702094 L-203.7489617520519 48.80372086091043"/>
		<path opacity="0.75" fill="pink" d="M-201.2489617520519 52.986302379599465 L-201.2489617520519 54.28039760511207 L-157.84362887399038 29.023647417702094 L-201.2489617520519 52.986302379599465"/>
		<path opacity="0.75" fill="pink" d="M-203.7489617520519 50.09781608642304 L-201.2489617520519 54.28039760511207 L-157.84362887399038 29.023647417702094 L-203.7489617520519 50.09781608642304"/>

		<path opacity="0.75" fill="pink" d="M176.9131042632821 55.53413868929535 L179.4131042632821 59.716720207984395 L220.93454867881016 33.57669940568697 L176.9131042632821 55.53413868929535"/>
		<path opacity="0.75" fill="pink" d="M176.9131042632821 55.53413868929535 L176.9131042632821 56.82823391480795 L220.93454867881016 33.57669940568697 L176.9131042632821 55.53413868929535"/>
		<path opacity="0.75" fill="pink" d="M179.4131042632821 59.716720207984395 L179.4131042632821 61.010815433497 L220.93454867881016 33.57669940568697 L179.4131042632821 59.716720207984395"/>
		<path opacity="0.75" fill="pink" d="M176.9131042632821 56.82823391480795 L179.4131042632821 61.010815433497 L220.93454867881016 33.57669940568697 L176.9131042632821 56.82823391480795"/>

		<path opacity="0.5" fill="orange" d="M48.34713282184376 31.116432720761964 L52.347132821843765 37.808563150664426 L52.347132821843765 39.879115511484585 L48.34713282184376 33.18698508158212 L48.34713282184376 31.116432720761964"/>
		<path opacity="0.5" fill="orange" d="M-7.0784930203603125 62.02605916201215 L-3.0784930203603125 68.71818959191461 L-3.0784930203603125 70.78874195273478 L-7.0784930203603125 64.09661152283232 L-7.0784930203603125 62.02605916201215"/>
		<path opacity="0.5" fill="orange" d="M48.34713282184376 31.116432720761964 L-7.0784930203603125 62.02605916201215 L-7.0784930203603125 64.09661152283232 L48.34713282184376 33.18698508158212 L48.34713282184376 31.116432720761964"/>
		<path opacity="0.5" fill="orange" d="M52.347132821843765 37.808563150664426 L-3.0784930203603125 68.71818959191461 L-3.0784930203603125 70.78874195273478 L52.347132821843765 39.879115511484585 L52.347132821843765 37.808563150664426"/>
		<path opacity="0.5" fill="orange" d="M48.34713282184376 31.116432720761964 L52.347132821843765 37.808563150664426 L-3.0784930203603125 68.71818959191461 L-7.0784930203603125 62.02605916201215 L48.34713282184376 31.116432720761964"/>
		<path opacity="0.5" fill="orange" d="M48.34713282184376 33.18698508158212 L52.347132821843765 39.879115511484585 L-3.0784930203603125 70.78874195273478 L-7.0784930203603125 64.09661152283232 L48.34713282184376 33.18698508158212"/>
		<text x="-7.0784930203603125" y="63.06133534242224" font-family="calibri" font-size="4">8</text>
		<text x="-5.0784930203603125" y="67.44267673778356" font-family="calibri" font-size="4">8</text>
		<text x="20.634319900741723" y="46.57124594138706" font-family="calibri" font-size="4">64</text>

		<path opacity="0.75" fill="darkturquoise" d="M-203.7489617520519 48.80372086091043 L-201.2489617520519 52.986302379599465 L-201.2489617520519 54.28039760511207 L-203.7489617520519 50.09781608642304 L-203.7489617520519 48.80372086091043"/>
		<path opacity="0.75" fill="darkturquoise" d="M-231.46177467315397 64.25853408153554 L-228.96177467315397 68.44111560022458 L-228.96177467315397 69.73521082573718 L-231.46177467315397 65.55262930704815 L-231.46177467315397 64.25853408153554"/>
		<path opacity="0.75" fill="darkturquoise" d="M-203.7489617520519 48.80372086091043 L-231.46177467315397 64.25853408153554 L-231.46177467315397 65.55262930704815 L-203.7489617520519 50.09781608642304 L-203.7489617520519 48.80372086091043"/>
		<path opacity="0.75" fill="darkturquoise" d="M-201.2489617520519 52.986302379599465 L-228.96177467315397 68.44111560022458 L-228.96177467315397 69.73521082573718 L-201.2489617520519 54.28039760511207 L-201.2489617520519 52.986302379599465"/>
		<path opacity="0.75" fill="darkturquoise" d="M-203.7489617520519 48.80372086091043 L-201.2489617520519 52.986302379599465 L-228.96177467315397 68.44111560022458 L-231.46177467315397 64.25853408153554 L-203.7489617520519 48.80372086091043"/>
		<path opacity="0.75" fill="darkturquoise" d="M-203.7489617520519 50.09781608642304 L-201.2489617520519 54.28039760511207 L-228.96177467315397 69.73521082573718 L-231.46177467315397 65.55262930704815 L-203.7489617520519 50.09781608642304"/>
		<text x="-231.46177467315397" y="64.90558169429184" font-family="calibri" font-size="4">5</text>
		<text x="-230.21177467315397" y="67.64392006639267" font-family="calibri" font-size="4">5</text>
		<text x="-217.60536821260294" y="56.53112747122299" font-family="calibri" font-size="4">32</text>

		<path opacity="0.5" fill="orange" d="M-212.10665924100823 32.72509410552172 L-196.10665924100823 59.49361582513157 L-196.10665924100823 67.77582526841223 L-212.10665924100823 41.00730354880238 L-212.10665924100823 32.72509410552172"/>
		<path opacity="0.5" fill="orange" d="M-239.8194721621103 48.17990732614683 L-223.8194721621103 74.94842904575668 L-223.8194721621103 83.23063848903735 L-239.8194721621103 56.462116769427496 L-239.8194721621103 48.17990732614683"/>
		<path opacity="0.5" fill="orange" d="M-212.10665924100823 32.72509410552172 L-239.8194721621103 48.17990732614683 L-239.8194721621103 56.462116769427496 L-212.10665924100823 41.00730354880238 L-212.10665924100823 32.72509410552172"/>
		<path opacity="0.5" fill="orange" d="M-196.10665924100823 59.49361582513157 L-223.8194721621103 74.94842904575668 L-223.8194721621103 83.23063848903735 L-196.10665924100823 67.77582526841223 L-196.10665924100823 59.49361582513157"/>
		<path opacity="0.5" fill="orange" d="M-212.10665924100823 32.72509410552172 L-196.10665924100823 59.49361582513157 L-223.8194721621103 74.94842904575668 L-239.8194721621103 48.17990732614683 L-212.10665924100823 32.72509410552172"/>
		<path opacity="0.5" fill="orange" d="M-212.10665924100823 41.00730354880238 L-196.10665924100823 67.77582526841223 L-223.8194721621103 83.23063848903735 L-239.8194721621103 56.462116769427496 L-212.10665924100823 41.00730354880238"/>
		<text x="-239.8194721621103" y="52.321012047787164" font-family="calibri" font-size="4">32</text>
		<text x="-231.8194721621103" y="69.84637762923242" font-family="calibri" font-size="4">32</text>
		<text x="-225.96306570155926" y="40.452500715834276" font-family="calibri" font-size="4">32</text>

		<path opacity="0.5" fill="orange" d="M-80.87976320958225 34.1114341108225 L-72.87976320958225 47.495694970627426 L-72.87976320958225 51.63679969226776 L-80.87976320958225 38.25253883246283 L-80.87976320958225 34.1114341108225"/>
		<path opacity="0.5" fill="orange" d="M-136.3053890517863 65.0210605520727 L-128.3053890517863 78.40532141187762 L-128.3053890517863 82.54642613351795 L-136.3053890517863 69.16216527371303 L-136.3053890517863 65.0210605520727"/>
		<path opacity="0.5" fill="orange" d="M-80.87976320958225 34.1114341108225 L-136.3053890517863 65.0210605520727 L-136.3053890517863 69.16216527371303 L-80.87976320958225 38.25253883246283 L-80.87976320958225 34.1114341108225"/>
		<path opacity="0.5" fill="orange" d="M-72.87976320958225 47.495694970627426 L-128.3053890517863 78.40532141187762 L-128.3053890517863 82.54642613351795 L-72.87976320958225 51.63679969226776 L-72.87976320958225 47.495694970627426"/>
		<path opacity="0.5" fill="orange" d="M-80.87976320958225 34.1114341108225 L-72.87976320958225 47.495694970627426 L-128.3053890517863 78.40532141187762 L-136.3053890517863 65.0210605520727 L-80.87976320958225 34.1114341108225"/>
		<path opacity="0.5" fill="orange" d="M-80.87976320958225 38.25253883246283 L-72.87976320958225 51.63679969226776 L-128.3053890517863 82.54642613351795 L-136.3053890517863 69.16216527371303 L-80.87976320958225 38.25253883246283"/>
		<text x="-136.3053890517863" y="67.09161291289286" font-family="calibri" font-size="4">16</text>
		<text x="-132.3053890517863" y="75.85429570361549" font-family="calibri" font-size="4">16</text>
		<text x="-108.59257613068428" y="49.5662473314476" font-family="calibri" font-size="4">64</text>

		<path opacity="0.75" fill="darkturquoise" d="M176.9131042632821 55.53413868929535 L179.4131042632821 59.716720207984395 L179.4131042632821 61.010815433497 L176.9131042632821 56.82823391480795 L176.9131042632821 55.53413868929535"/>
		<path opacity="0.75" fill="darkturquoise" d="M121.48747842107804 86.44376513054554 L123.98747842107804 90.62634664923459 L123.98747842107804 91.9204418747472 L121.48747842107804 87.73786035605815 L121.48747842107804 86.44376513054554"/>
		<path opacity="0.75" fill="darkturquoise" d="M176.9131042632821 55.53413868929535 L121.48747842107804 86.44376513054554 L121.48747842107804 87.73786035605815 L176.9131042632821 56.82823391480795 L176.9131042632821 55.53413868929535"/>
		<path opacity="0.75" fill="darkturquoise" d="M179.4131042632821 59.716720207984395 L123.98747842107804 90.62634664923459 L123.98747842107804 91.9204418747472 L179.4131042632821 61.010815433497 L179.4131042632821 59.716720207984395"/>
		<path opacity="0.75" fill="darkturquoise" d="M176.9131042632821 55.53413868929535 L179.4131042632821 59.716720207984395 L123.98747842107804 90.62634664923459 L121.48747842107804 86.44376513054554 L176.9131042632821 55.53413868929535"/>
		<path opacity="0.75" fill="darkturquoise" d="M176.9131042632821 56.82823391480795 L179.4131042632821 61.010815433497 L123.98747842107804 91.9204418747472 L121.48747842107804 87.73786035605815 L176.9131042632821 56.82823391480795"/>
		<text x="121.48747842107804" y="87.09081274330185" font-family="calibri" font-size="4">5</text>
		<text x="122.73747842107804" y="89.82915111540268" font-family="calibri" font-size="4">5</text>
		<text x="149.20029134218007" y="70.98895190992044" font-family="calibri" font-size="4">64</text>

		<path opacity="0.5" fill="orange" d="M176.8336477965032 54.82524828903564 L180.8336477965032 61.517378718938104 L180.8336477965032 63.58793107975826 L176.8336477965032 56.8958006498558 L176.8336477965032 54.82524828903564"/>
		<path opacity="0.5" fill="orange" d="M121.40802195429913 85.73487473028584 L125.40802195429913 92.4270051601883 L125.40802195429913 94.49755752100846 L121.40802195429913 87.805427091106 L121.40802195429913 85.73487473028584"/>
		<path opacity="0.5" fill="orange" d="M176.8336477965032 54.82524828903564 L121.40802195429913 85.73487473028584 L121.40802195429913 87.805427091106 L176.8336477965032 56.8958006498558 L176.8336477965032 54.82524828903564"/>
		<path opacity="0.5" fill="orange" d="M180.8336477965032 61.517378718938104 L125.40802195429913 92.4270051601883 L125.40802195429913 94.49755752100846 L180.8336477965032 63.58793107975826 L180.8336477965032 61.517378718938104"/>
		<path opacity="0.5" fill="orange" d="M176.8336477965032 54.82524828903564 L180.8336477965032 61.517378718938104 L125.40802195429913 92.4270051601883 L121.40802195429913 85.73487473028584 L176.8336477965032 54.82524828903564"/>
		<path opacity="0.5" fill="orange" d="M176.8336477965032 56.8958006498558 L180.8336477965032 63.58793107975826 L125.40802195429913 94.49755752100846 L121.40802195429913 87.805427091106 L176.8336477965032 56.8958006498558"/>
		<text x="121.40802195429913" y="86.77015091069592" font-family="calibri" font-size="4">8</text>
		<text x="123.40802195429913" y="91.15149230605724" font-family="calibri" font-size="4">8</text>
		<text x="149.12083487540116" y="70.28006150966074" font-family="calibri" font-size="4">64</text>

<!-- Arrow -->
		<path opacity="0.5" stroke="black" d="M78.84713282184377 83.17920342917833 L123.40802195429913 90.11621612564714"/>
		<circle opacity="0.5" cx="123.40802195429913" cy="90.11621612564714" r="1" fill="black" />
		<path opacity="0.75" fill="pink" d="M-51.28233053801347 84.67896936231324 L-48.78233053801347 88.86155088100229 L-5.216078055739416 65.38734317204185 L-51.28233053801347 84.67896936231324"/>
		<path opacity="0.75" fill="pink" d="M-51.28233053801347 84.67896936231324 L-51.28233053801347 85.97306458782585 L-5.216078055739416 65.38734317204185 L-51.28233053801347 84.67896936231324"/>
		<path opacity="0.75" fill="pink" d="M-48.78233053801347 88.86155088100229 L-48.78233053801347 90.15564610651488 L-5.216078055739416 65.38734317204185 L-48.78233053801347 88.86155088100229"/>
		<path opacity="0.75" fill="pink" d="M-51.28233053801347 85.97306458782585 L-48.78233053801347 90.15564610651488 L-5.216078055739416 65.38734317204185 L-51.28233053801347 85.97306458782585"/>

		<path opacity="0.75" fill="pink" d="M-276.40277112777665 84.10476530050511 L-271.40277112777665 92.46992833788318 L-232.08874511430366 63.70471680136539 L-276.40277112777665 84.10476530050511"/>
		<path opacity="0.75" fill="pink" d="M-276.40277112777665 84.10476530050511 L-276.40277112777665 86.6929557515303 L-232.08874511430366 63.70471680136539 L-276.40277112777665 84.10476530050511"/>
		<path opacity="0.75" fill="pink" d="M-271.40277112777665 92.46992833788318 L-271.40277112777665 95.05811878890837 L-232.08874511430366 63.70471680136539 L-271.40277112777665 92.46992833788318"/>
		<path opacity="0.75" fill="pink" d="M-276.40277112777665 86.6929557515303 L-271.40277112777665 95.05811878890837 L-232.08874511430366 63.70471680136539 L-276.40277112777665 86.6929557515303"/>

		<path opacity="0.75" fill="darkturquoise" d="M-276.40277112777665 84.10476530050511 L-271.40277112777665 92.46992833788318 L-271.40277112777665 95.05811878890837 L-276.40277112777665 86.6929557515303 L-276.40277112777665 84.10476530050511"/>
		<path opacity="0.75" fill="darkturquoise" d="M-293.72327920346544 93.7640235633958 L-288.72327920346544 102.12918660077386 L-288.72327920346544 104.71737705179906 L-293.72327920346544 96.352214014421 L-293.72327920346544 93.7640235633958"/>
		<path opacity="0.75" fill="darkturquoise" d="M-276.40277112777665 84.10476530050511 L-293.72327920346544 93.7640235633958 L-293.72327920346544 96.352214014421 L-276.40277112777665 86.6929557515303 L-276.40277112777665 84.10476530050511"/>
		<path opacity="0.75" fill="darkturquoise" d="M-271.40277112777665 92.46992833788318 L-288.72327920346544 102.12918660077386 L-288.72327920346544 104.71737705179906 L-271.40277112777665 95.05811878890837 L-271.40277112777665 92.46992833788318"/>
		<path opacity="0.75" fill="darkturquoise" d="M-276.40277112777665 84.10476530050511 L-271.40277112777665 92.46992833788318 L-288.72327920346544 102.12918660077386 L-293.72327920346544 93.7640235633958 L-276.40277112777665 84.10476530050511"/>
		<path opacity="0.75" fill="darkturquoise" d="M-276.40277112777665 86.6929557515303 L-271.40277112777665 95.05811878890837 L-288.72327920346544 104.71737705179906 L-293.72327920346544 96.352214014421 L-276.40277112777665 86.6929557515303"/>
		<text x="-293.72327920346544" y="95.05811878890839" font-family="calibri" font-size="4">10</text>
		<text x="-291.22327920346544" y="100.53479553311003" font-family="calibri" font-size="4">10</text>
		<text x="-285.06302516562107" y="88.93439443195045" font-family="calibri" font-size="4">20</text>

		<path opacity="0.5" fill="orange" d="M-283.1207423513322 72.32805298337354 L-267.1207423513322 99.09657470298339 L-267.1207423513322 107.37878414626405 L-283.1207423513322 80.6102624266542 L-283.1207423513322 72.32805298337354"/>
		<path opacity="0.5" fill="orange" d="M-300.441250427021 81.98731124626423 L-284.441250427021 108.75583296587408 L-284.441250427021 117.03804240915474 L-300.441250427021 90.26952068954489 L-300.441250427021 81.98731124626423"/>
		<path opacity="0.5" fill="orange" d="M-283.1207423513322 72.32805298337354 L-300.441250427021 81.98731124626423 L-300.441250427021 90.26952068954489 L-283.1207423513322 80.6102624266542 L-283.1207423513322 72.32805298337354"/>
		<path opacity="0.5" fill="orange" d="M-267.1207423513322 99.09657470298339 L-284.441250427021 108.75583296587408 L-284.441250427021 117.03804240915474 L-267.1207423513322 107.37878414626405 L-267.1207423513322 99.09657470298339"/>
		<path opacity="0.5" fill="orange" d="M-283.1207423513322 72.32805298337354 L-267.1207423513322 99.09657470298339 L-284.441250427021 108.75583296587408 L-300.441250427021 81.98731124626423 L-283.1207423513322 72.32805298337354"/>
		<path opacity="0.5" fill="orange" d="M-283.1207423513322 80.6102624266542 L-267.1207423513322 107.37878414626405 L-284.441250427021 117.03804240915474 L-300.441250427021 90.26952068954489 L-283.1207423513322 80.6102624266542"/>
		<text x="-300.441250427021" y="86.12841596790456" font-family="calibri" font-size="4">32</text>
		<text x="-292.441250427021" y="103.65378154934982" font-family="calibri" font-size="4">32</text>
		<text x="-291.7809963891766" y="77.15768211481888" font-family="calibri" font-size="4">20</text>

		<path opacity="0.75" fill="pink" d="M-176.62590752139533 92.9872842989499 L-174.12590752139533 97.16986581763894 L-134.95603441313605 68.10120392228504 L-176.62590752139533 92.9872842989499"/>
		<path opacity="0.75" fill="pink" d="M-176.62590752139533 92.9872842989499 L-176.62590752139533 94.2813795244625 L-134.95603441313605 68.10120392228504 L-176.62590752139533 92.9872842989499"/>
		<path opacity="0.75" fill="pink" d="M-174.12590752139533 97.16986581763894 L-174.12590752139533 98.46396104315154 L-134.95603441313605 68.10120392228504 L-174.12590752139533 97.16986581763894"/>
		<path opacity="0.75" fill="pink" d="M-176.62590752139533 94.2813795244625 L-174.12590752139533 98.46396104315154 L-134.95603441313605 68.10120392228504 L-176.62590752139533 94.2813795244625"/>

		<path opacity="0.5" fill="orange" d="M76.84713282184377 78.79786203381701 L80.84713282184377 85.48999246371949 L80.84713282184377 87.56054482453965 L76.84713282184377 80.86841439463717 L76.84713282184377 78.79786203381701"/>
		<path opacity="0.5" fill="orange" d="M21.4215069796397 109.70748847506721 L25.4215069796397 116.39961890496967 L25.4215069796397 118.47017126578983 L21.4215069796397 111.77804083588737 L21.4215069796397 109.70748847506721"/>
		<path opacity="0.5" fill="orange" d="M76.84713282184377 78.79786203381701 L21.4215069796397 109.70748847506721 L21.4215069796397 111.77804083588737 L76.84713282184377 80.86841439463717 L76.84713282184377 78.79786203381701"/>
		<path opacity="0.5" fill="orange" d="M80.84713282184377 85.48999246371949 L25.4215069796397 116.39961890496967 L25.4215069796397 118.47017126578983 L80.84713282184377 87.56054482453965 L80.84713282184377 85.48999246371949"/>
		<path opacity="0.5" fill="orange" d="M76.84713282184377 78.79786203381701 L80.84713282184377 85.48999246371949 L25.4215069796397 116.39961890496967 L21.4215069796397 109.70748847506721 L76.84713282184377 78.79786203381701"/>
		<path opacity="0.5" fill="orange" d="M76.84713282184377 80.86841439463717 L80.84713282184377 87.56054482453965 L25.4215069796397 118.47017126578983 L21.4215069796397 111.77804083588737 L76.84713282184377 80.86841439463717"/>
		<text x="21.4215069796397" y="110.74276465547729" font-family="calibri" font-size="4">8</text>
		<text x="23.4215069796397" y="115.1241060508386" font-family="calibri" font-size="4">8</text>
		<text x="49.13431990074174" y="94.25267525444211" font-family="calibri" font-size="4">64</text>

		<path opacity="0.75" fill="darkturquoise" d="M-176.62590752139533 92.9872842989499 L-174.12590752139533 97.16986581763894 L-174.12590752139533 98.46396104315154 L-176.62590752139533 94.2813795244625 L-176.62590752139533 92.9872842989499"/>
		<path opacity="0.75" fill="darkturquoise" d="M-204.3387204424974 108.44209751957501 L-201.8387204424974 112.62467903826405 L-201.8387204424974 113.91877426377665 L-204.3387204424974 109.7361927450876 L-204.3387204424974 108.44209751957501"/>
		<path opacity="0.75" fill="darkturquoise" d="M-176.62590752139533 92.9872842989499 L-204.3387204424974 108.44209751957501 L-204.3387204424974 109.7361927450876 L-176.62590752139533 94.2813795244625 L-176.62590752139533 92.9872842989499"/>
		<path opacity="0.75" fill="darkturquoise" d="M-174.12590752139533 97.16986581763894 L-201.8387204424974 112.62467903826405 L-201.8387204424974 113.91877426377665 L-174.12590752139533 98.46396104315154 L-174.12590752139533 97.16986581763894"/>
		<path opacity="0.75" fill="darkturquoise" d="M-176.62590752139533 92.9872842989499 L-174.12590752139533 97.16986581763894 L-201.8387204424974 112.62467903826405 L-204.3387204424974 108.44209751957501 L-176.62590752139533 92.9872842989499"/>
		<path opacity="0.75" fill="darkturquoise" d="M-176.62590752139533 94.2813795244625 L-174.12590752139533 98.46396104315154 L-201.8387204424974 113.91877426377665 L-204.3387204424974 109.7361927450876 L-176.62590752139533 94.2813795244625"/>
		<text x="-204.3387204424974" y="109.08914513233131" font-family="calibri" font-size="4">5</text>
		<text x="-203.0887204424974" y="111.82748350443214" font-family="calibri" font-size="4">5</text>
		<text x="-190.48231398194636" y="100.71469090926246" font-family="calibri" font-size="4">32</text>

		<path opacity="0.5" fill="orange" d="M-183.60665924100823 80.40652341857678 L-167.60665924100823 107.17504513818665 L-167.60665924100823 115.45725458146728 L-183.60665924100823 88.68873286185743 L-183.60665924100823 80.40652341857678"/>
		<path opacity="0.5" fill="orange" d="M-211.3194721621103 95.8613366392019 L-195.3194721621103 122.62985835881176 L-195.3194721621103 130.9120678020924 L-211.3194721621103 104.14354608248254 L-211.3194721621103 95.8613366392019"/>
		<path opacity="0.5" fill="orange" d="M-183.60665924100823 80.40652341857678 L-211.3194721621103 95.8613366392019 L-211.3194721621103 104.14354608248254 L-183.60665924100823 88.68873286185743 L-183.60665924100823 80.40652341857678"/>
		<path opacity="0.5" fill="orange" d="M-167.60665924100823 107.17504513818665 L-195.3194721621103 122.62985835881176 L-195.3194721621103 130.9120678020924 L-167.60665924100823 115.45725458146728 L-167.60665924100823 107.17504513818665"/>
		<path opacity="0.5" fill="orange" d="M-183.60665924100823 80.40652341857678 L-167.60665924100823 107.17504513818665 L-195.3194721621103 122.62985835881176 L-211.3194721621103 95.8613366392019 L-183.60665924100823 80.40652341857678"/>
		<path opacity="0.5" fill="orange" d="M-183.60665924100823 88.68873286185743 L-167.60665924100823 115.45725458146728 L-195.3194721621103 130.9120678020924 L-211.3194721621103 104.14354608248254 L-183.60665924100823 88.68873286185743"/>
		<text x="-211.3194721621103" y="100.00244136084223" font-family="calibri" font-size="4">32</text>
		<text x="-203.3194721621103" y="117.52780694228747" font-family="calibri" font-size="4">32</text>
		<text x="-197.46306570155926" y="88.13393002888934" font-family="calibri" font-size="4">32</text>

		<path opacity="0.75" fill="darkturquoise" d="M-51.28233053801347 84.67896936231324 L-48.78233053801347 88.86155088100229 L-48.78233053801347 90.15564610651488 L-51.28233053801347 85.97306458782585 L-51.28233053801347 84.67896936231324"/>
		<path opacity="0.75" fill="darkturquoise" d="M-106.70795638021752 115.58859580356344 L-104.20795638021752 119.77117732225248 L-104.20795638021752 121.06527254776508 L-106.70795638021752 116.88269102907604 L-106.70795638021752 115.58859580356344"/>
		<path opacity="0.75" fill="darkturquoise" d="M-51.28233053801347 84.67896936231324 L-106.70795638021752 115.58859580356344 L-106.70795638021752 116.88269102907604 L-51.28233053801347 85.97306458782585 L-51.28233053801347 84.67896936231324"/>
		<path opacity="0.75" fill="darkturquoise" d="M-48.78233053801347 88.86155088100229 L-104.20795638021752 119.77117732225248 L-104.20795638021752 121.06527254776508 L-48.78233053801347 90.15564610651488 L-48.78233053801347 88.86155088100229"/>
		<path opacity="0.75" fill="darkturquoise" d="M-51.28233053801347 84.67896936231324 L-48.78233053801347 88.86155088100229 L-104.20795638021752 119.77117732225248 L-106.70795638021752 115.58859580356344 L-51.28233053801347 84.67896936231324"/>
		<path opacity="0.75" fill="darkturquoise" d="M-51.28233053801347 85.97306458782585 L-48.78233053801347 90.15564610651488 L-104.20795638021752 121.06527254776508 L-106.70795638021752 116.88269102907604 L-51.28233053801347 85.97306458782585"/>
		<text x="-106.70795638021752" y="116.23564341631973" font-family="calibri" font-size="4">5</text>
		<text x="-105.45795638021752" y="118.97398178842056" font-family="calibri" font-size="4">5</text>
		<text x="-78.9951434591155" y="100.13378258293834" font-family="calibri" font-size="4">64</text>

		<path opacity="0.5" fill="orange" d="M-52.37976320958225 81.79286342387756 L-44.37976320958225 95.17712428368249 L-44.37976320958225 99.3182290053228 L-52.37976320958225 85.93396814551788 L-52.37976320958225 81.79286342387756"/>
		<path opacity="0.5" fill="orange" d="M-107.8053890517863 112.70248986512776 L-99.8053890517863 126.08675072493268 L-99.8053890517863 130.22785544657302 L-107.8053890517863 116.84359458676808 L-107.8053890517863 112.70248986512776"/>
		<path opacity="0.5" fill="orange" d="M-52.37976320958225 81.79286342387756 L-107.8053890517863 112.70248986512776 L-107.8053890517863 116.84359458676808 L-52.37976320958225 85.93396814551788 L-52.37976320958225 81.79286342387756"/>
		<path opacity="0.5" fill="orange" d="M-44.37976320958225 95.17712428368249 L-99.8053890517863 126.08675072493268 L-99.8053890517863 130.22785544657302 L-44.37976320958225 99.3182290053228 L-44.37976320958225 95.17712428368249"/>
		<path opacity="0.5" fill="orange" d="M-52.37976320958225 81.79286342387756 L-44.37976320958225 95.17712428368249 L-99.8053890517863 126.08675072493268 L-107.8053890517863 112.70248986512776 L-52.37976320958225 81.79286342387756"/>
		<path opacity="0.5" fill="orange" d="M-52.37976320958225 85.93396814551788 L-44.37976320958225 99.3182290053228 L-99.8053890517863 130.22785544657302 L-107.8053890517863 116.84359458676808 L-52.37976320958225 85.93396814551788"/>
		<text x="-107.8053890517863" y="114.77304222594792" font-family="calibri" font-size="4">16</text>
		<text x="-103.8053890517863" y="123.53572501667054" font-family="calibri" font-size="4">16</text>
		<text x="-80.09257613068428" y="97.24767664450266" font-family="calibri" font-size="4">64</text>

<!-- Arrow -->
		<path opacity="0.5" stroke="black" d="M107.34713282184379 130.86063274223338 L123.40802195429913 90.11621612564714"/>
		<circle opacity="0.5" cx="123.40802195429913" cy="90.11621612564714" r="1" fill="black" />
		<path opacity="0.75" fill="pink" d="M-249.95360734022523 129.5595146133396 L-244.95360734022523 137.92467765071768 L-205.76425911462218 110.67391343764311 L-249.95360734022523 129.5595146133396"/>
		<path opacity="0.75" fill="pink" d="M-249.95360734022523 129.5595146133396 L-249.95360734022523 132.1477050643648 L-205.76425911462218 110.67391343764311 L-249.95360734022523 129.5595146133396"/>
		<path opacity="0.75" fill="pink" d="M-244.95360734022523 137.92467765071768 L-244.95360734022523 140.51286810174287 L-205.76425911462218 110.67391343764311 L-244.95360734022523 137.92467765071768"/>
		<path opacity="0.75" fill="pink" d="M-249.95360734022523 132.1477050643648 L-244.95360734022523 140.51286810174287 L-205.76425911462218 110.67391343764311 L-249.95360734022523 132.1477050643648"/>

		<path opacity="0.75" fill="pink" d="M-21.902021034300247 133.92354496283903 L-19.402021034300247 138.10612648152807 L23.192265463924713 113.32005710170708 L-21.902021034300247 133.92354496283903"/>
		<path opacity="0.75" fill="pink" d="M-21.902021034300247 133.92354496283903 L-21.902021034300247 135.21764018835162 L23.192265463924713 113.32005710170708 L-21.902021034300247 133.92354496283903"/>
		<path opacity="0.75" fill="pink" d="M-19.402021034300247 138.10612648152807 L-19.402021034300247 139.40022170704066 L23.192265463924713 113.32005710170708 L-19.402021034300247 138.10612648152807"/>
		<path opacity="0.75" fill="pink" d="M-21.902021034300247 135.21764018835162 L-19.402021034300247 139.40022170704066 L23.192265463924713 113.32005710170708 L-21.902021034300247 135.21764018835162"/>

		<path opacity="0.75" fill="pink" d="M-152.87668468473026 135.84233954169824 L-150.37668468473026 140.0249210603873 L-104.81412898202885 120.75013954917182 L-152.87668468473026 135.84233954169824"/>
		<path opacity="0.75" fill="pink" d="M-152.87668468473026 135.84233954169824 L-152.87668468473026 137.13643476721086 L-104.81412898202885 120.75013954917182 L-152.87668468473026 135.84233954169824"/>
		<path opacity="0.75" fill="pink" d="M-150.37668468473026 140.0249210603873 L-150.37668468473026 141.3190162858999 L-104.81412898202885 120.75013954917182 L-150.37668468473026 140.0249210603873"/>
		<path opacity="0.75" fill="pink" d="M-152.87668468473026 137.13643476721086 L-150.37668468473026 141.3190162858999 L-104.81412898202885 120.75013954917182 L-152.87668468473026 137.13643476721086"/>

		<path opacity="0.75" fill="darkturquoise" d="M-249.95360734022523 129.5595146133396 L-244.95360734022523 137.92467765071768 L-244.95360734022523 140.51286810174287 L-249.95360734022523 132.1477050643648 L-249.95360734022523 129.5595146133396"/>
		<path opacity="0.75" fill="darkturquoise" d="M-267.274115415914 139.21877287623028 L-262.274115415914 147.58393591360834 L-262.274115415914 150.17212636463356 L-267.274115415914 141.8069633272555 L-267.274115415914 139.21877287623028"/>
		<path opacity="0.75" fill="darkturquoise" d="M-249.95360734022523 129.5595146133396 L-267.274115415914 139.21877287623028 L-267.274115415914 141.8069633272555 L-249.95360734022523 132.1477050643648 L-249.95360734022523 129.5595146133396"/>
		<path opacity="0.75" fill="darkturquoise" d="M-244.95360734022523 137.92467765071768 L-262.274115415914 147.58393591360834 L-262.274115415914 150.17212636463356 L-244.95360734022523 140.51286810174287 L-244.95360734022523 137.92467765071768"/>
		<path opacity="0.75" fill="darkturquoise" d="M-249.95360734022523 129.5595146133396 L-244.95360734022523 137.92467765071768 L-262.274115415914 147.58393591360834 L-267.274115415914 139.21877287623028 L-249.95360734022523 129.5595146133396"/>
		<path opacity="0.75" fill="darkturquoise" d="M-249.95360734022523 132.1477050643648 L-244.95360734022523 140.51286810174287 L-262.274115415914 150.17212636463356 L-267.274115415914 141.8069633272555 L-249.95360734022523 132.1477050643648"/>
		<text x="-267.274115415914" y="140.51286810174287" font-family="calibri" font-size="4">10</text>
		<text x="-264.774115415914" y="145.98954484594452" font-family="calibri" font-size="4">10</text>
		<text x="-258.6138613780696" y="134.38914374478492" font-family="calibri" font-size="4">20</text>

		<path opacity="0.5" fill="orange" d="M-254.62074235133218 120.0094822964286 L-238.62074235133218 146.77800401603847 L-238.62074235133218 155.0602134593191 L-254.62074235133218 128.29169173970925 L-254.62074235133218 120.0094822964286"/>
		<path opacity="0.5" fill="orange" d="M-271.941250427021 129.6687405593193 L-255.94125042702098 156.43726227892915 L-255.94125042702098 164.7194717222098 L-271.941250427021 137.95095000259994 L-271.941250427021 129.6687405593193"/>
		<path opacity="0.5" fill="orange" d="M-254.62074235133218 120.0094822964286 L-271.941250427021 129.6687405593193 L-271.941250427021 137.95095000259994 L-254.62074235133218 128.29169173970925 L-254.62074235133218 120.0094822964286"/>
		<path opacity="0.5" fill="orange" d="M-238.62074235133218 146.77800401603847 L-255.94125042702098 156.43726227892915 L-255.94125042702098 164.7194717222098 L-238.62074235133218 155.0602134593191 L-238.62074235133218 146.77800401603847"/>
		<path opacity="0.5" fill="orange" d="M-254.62074235133218 120.0094822964286 L-238.62074235133218 146.77800401603847 L-255.94125042702098 156.43726227892915 L-271.941250427021 129.6687405593193 L-254.62074235133218 120.0094822964286"/>
		<path opacity="0.5" fill="orange" d="M-254.62074235133218 128.29169173970925 L-238.62074235133218 155.0602134593191 L-255.94125042702098 164.7194717222098 L-271.941250427021 137.95095000259994 L-254.62074235133218 128.29169173970925"/>
		<text x="-271.941250427021" y="133.80984528095962" font-family="calibri" font-size="4">32</text>
		<text x="-263.941250427021" y="151.33521086240486" font-family="calibri" font-size="4">32</text>
		<text x="-263.2809963891766" y="124.83911142787395" font-family="calibri" font-size="4">20</text>

		<path opacity="0.5" fill="orange" d="M105.34713282184379 126.47929134687206 L109.34713282184379 133.17142177677454 L109.34713282184379 135.2419741375947 L105.34713282184379 128.54984370769222 L105.34713282184379 126.47929134687206"/>
		<path opacity="0.5" fill="orange" d="M49.9215069796397 157.38891778812226 L53.9215069796397 164.0810482180247 L53.9215069796397 166.15160057884486 L49.9215069796397 159.45947014894242 L49.9215069796397 157.38891778812226"/>
		<path opacity="0.5" fill="orange" d="M105.34713282184379 126.47929134687206 L49.9215069796397 157.38891778812226 L49.9215069796397 159.45947014894242 L105.34713282184379 128.54984370769222 L105.34713282184379 126.47929134687206"/>
		<path opacity="0.5" fill="orange" d="M109.34713282184379 133.17142177677454 L53.9215069796397 164.0810482180247 L53.9215069796397 166.15160057884486 L109.34713282184379 135.2419741375947 L109.34713282184379 133.17142177677454"/>
		<path opacity="0.5" fill="orange" d="M105.34713282184379 126.47929134687206 L109.34713282184379 133.17142177677454 L53.9215069796397 164.0810482180247 L49.9215069796397 157.38891778812226 L105.34713282184379 126.47929134687206"/>
		<path opacity="0.5" fill="orange" d="M105.34713282184379 128.54984370769222 L109.34713282184379 135.2419741375947 L53.9215069796397 166.15160057884486 L49.9215069796397 159.45947014894242 L105.34713282184379 128.54984370769222"/>
		<text x="49.9215069796397" y="158.42419396853234" font-family="calibri" font-size="4">8</text>
		<text x="51.9215069796397" y="162.80553536389363" font-family="calibri" font-size="4">8</text>
		<text x="77.63431990074174" y="141.93410456749717" font-family="calibri" font-size="4">64</text>

		<path opacity="0.75" fill="darkturquoise" d="M-21.902021034300247 133.92354496283903 L-19.402021034300247 138.10612648152807 L-19.402021034300247 139.40022170704066 L-21.902021034300247 135.21764018835162 L-21.902021034300247 133.92354496283903"/>
		<path opacity="0.75" fill="darkturquoise" d="M-77.3276468765043 164.83317140408923 L-74.8276468765043 169.01575292277826 L-74.8276468765043 170.30984814829088 L-77.3276468765043 166.12726662960182 L-77.3276468765043 164.83317140408923"/>
		<path opacity="0.75" fill="darkturquoise" d="M-21.902021034300247 133.92354496283903 L-77.3276468765043 164.83317140408923 L-77.3276468765043 166.12726662960182 L-21.902021034300247 135.21764018835162 L-21.902021034300247 133.92354496283903"/>
		<path opacity="0.75" fill="darkturquoise" d="M-19.402021034300247 138.10612648152807 L-74.8276468765043 169.01575292277826 L-74.8276468765043 170.30984814829088 L-19.402021034300247 139.40022170704066 L-19.402021034300247 138.10612648152807"/>
		<path opacity="0.75" fill="darkturquoise" d="M-21.902021034300247 133.92354496283903 L-19.402021034300247 138.10612648152807 L-74.8276468765043 169.01575292277826 L-77.3276468765043 164.83317140408923 L-21.902021034300247 133.92354496283903"/>
		<path opacity="0.75" fill="darkturquoise" d="M-21.902021034300247 135.21764018835162 L-19.402021034300247 139.40022170704066 L-74.8276468765043 170.30984814829088 L-77.3276468765043 166.12726662960182 L-21.902021034300247 135.21764018835162"/>
		<text x="-77.3276468765043" y="165.48021901684552" font-family="calibri" font-size="4">5</text>
		<text x="-76.0776468765043" y="168.21855738894635" font-family="calibri" font-size="4">5</text>
		<text x="-49.614833955402275" y="149.37835818346412" font-family="calibri" font-size="4">64</text>

		<path opacity="0.5" fill="orange" d="M-23.87976320958225 129.47429273693263 L-15.87976320958225 142.85855359673752 L-15.87976320958225 146.99965831837787 L-23.87976320958225 133.61539745857294 L-23.87976320958225 129.47429273693263"/>
		<path opacity="0.5" fill="orange" d="M-79.3053890517863 160.3839191781828 L-71.3053890517863 173.76818003798775 L-71.3053890517863 177.90928475962806 L-79.3053890517863 164.52502389982314 L-79.3053890517863 160.3839191781828"/>
		<path opacity="0.5" fill="orange" d="M-23.87976320958225 129.47429273693263 L-79.3053890517863 160.3839191781828 L-79.3053890517863 164.52502389982314 L-23.87976320958225 133.61539745857294 L-23.87976320958225 129.47429273693263"/>
		<path opacity="0.5" fill="orange" d="M-15.87976320958225 142.85855359673752 L-71.3053890517863 173.76818003798775 L-71.3053890517863 177.90928475962806 L-15.87976320958225 146.99965831837787 L-15.87976320958225 142.85855359673752"/>
		<path opacity="0.5" fill="orange" d="M-23.87976320958225 129.47429273693263 L-15.87976320958225 142.85855359673752 L-71.3053890517863 173.76818003798775 L-79.3053890517863 160.3839191781828 L-23.87976320958225 129.47429273693263"/>
		<path opacity="0.5" fill="orange" d="M-23.87976320958225 133.61539745857294 L-15.87976320958225 146.99965831837787 L-71.3053890517863 177.90928475962806 L-79.3053890517863 164.52502389982314 L-23.87976320958225 133.61539745857294"/>
		<text x="-79.3053890517863" y="162.45447153900295" font-family="calibri" font-size="4">16</text>
		<text x="-75.3053890517863" y="171.2171543297256" font-family="calibri" font-size="4">16</text>
		<text x="-51.59257613068428" y="144.9291059575577" font-family="calibri" font-size="4">64</text>

		<path opacity="0.75" fill="darkturquoise" d="M-152.87668468473026 135.84233954169824 L-150.37668468473026 140.0249210603873 L-150.37668468473026 141.3190162858999 L-152.87668468473026 137.13643476721086 L-152.87668468473026 135.84233954169824"/>
		<path opacity="0.75" fill="darkturquoise" d="M-180.58949760583232 151.29715276232335 L-178.08949760583232 155.4797342810124 L-178.08949760583232 156.773829506525 L-180.58949760583232 152.59124798783597 L-180.58949760583232 151.29715276232335"/>
		<path opacity="0.75" fill="darkturquoise" d="M-152.87668468473026 135.84233954169824 L-180.58949760583232 151.29715276232335 L-180.58949760583232 152.59124798783597 L-152.87668468473026 137.13643476721086 L-152.87668468473026 135.84233954169824"/>
		<path opacity="0.75" fill="darkturquoise" d="M-150.37668468473026 140.0249210603873 L-178.08949760583232 155.4797342810124 L-178.08949760583232 156.773829506525 L-150.37668468473026 141.3190162858999 L-150.37668468473026 140.0249210603873"/>
		<path opacity="0.75" fill="darkturquoise" d="M-152.87668468473026 135.84233954169824 L-150.37668468473026 140.0249210603873 L-178.08949760583232 155.4797342810124 L-180.58949760583232 151.29715276232335 L-152.87668468473026 135.84233954169824"/>
		<path opacity="0.75" fill="darkturquoise" d="M-152.87668468473026 137.13643476721086 L-150.37668468473026 141.3190162858999 L-178.08949760583232 156.773829506525 L-180.58949760583232 152.59124798783597 L-152.87668468473026 137.13643476721086"/>
		<text x="-180.58949760583232" y="151.94420037507967" font-family="calibri" font-size="4">5</text>
		<text x="-179.33949760583232" y="154.6825387471805" font-family="calibri" font-size="4">5</text>
		<text x="-166.7330911452813" y="143.5697461520108" font-family="calibri" font-size="4">32</text>

		<path opacity="0.5" fill="orange" d="M-155.10665924100823 128.08795273163184 L-139.10665924100823 154.8564744512417 L-139.10665924100823 163.13868389452233 L-155.10665924100823 136.37016217491248 L-155.10665924100823 128.08795273163184"/>
		<path opacity="0.5" fill="orange" d="M-182.8194721621103 143.54276595225696 L-166.8194721621103 170.3112876718668 L-166.8194721621103 178.59349711514744 L-182.8194721621103 151.8249753955376 L-182.8194721621103 143.54276595225696"/>
		<path opacity="0.5" fill="orange" d="M-155.10665924100823 128.08795273163184 L-182.8194721621103 143.54276595225696 L-182.8194721621103 151.8249753955376 L-155.10665924100823 136.37016217491248 L-155.10665924100823 128.08795273163184"/>
		<path opacity="0.5" fill="orange" d="M-139.10665924100823 154.8564744512417 L-166.8194721621103 170.3112876718668 L-166.8194721621103 178.59349711514744 L-139.10665924100823 163.13868389452233 L-139.10665924100823 154.8564744512417"/>
		<path opacity="0.5" fill="orange" d="M-155.10665924100823 128.08795273163184 L-139.10665924100823 154.8564744512417 L-166.8194721621103 170.3112876718668 L-182.8194721621103 143.54276595225696 L-155.10665924100823 128.08795273163184"/>
		<path opacity="0.5" fill="orange" d="M-155.10665924100823 136.37016217491248 L-139.10665924100823 163.13868389452233 L-166.8194721621103 178.59349711514744 L-182.8194721621103 151.8249753955376 L-155.10665924100823 136.37016217491248"/>
		<text x="-182.8194721621103" y="147.68387067389727" font-family="calibri" font-size="4">32</text>
		<text x="-174.8194721621103" y="165.20923625534252" font-family="calibri" font-size="4">32</text>
		<text x="-168.96306570155926" y="135.8153593419444" font-family="calibri" font-size="4">32</text>

		<path opacity="0.75" fill="pink" d="M6.187954187425248 181.98010939833148 L8.687954187425248 186.16269091702048 L52.25530036734028 163.2322434073157 L6.187954187425248 181.98010939833148"/>
		<path opacity="0.75" fill="pink" d="M6.187954187425248 181.98010939833148 L6.187954187425248 183.27420462384407 L52.25530036734028 163.2322434073157 L6.187954187425248 181.98010939833148"/>
		<path opacity="0.75" fill="pink" d="M8.687954187425248 186.16269091702048 L8.687954187425248 187.4567861425331 L52.25530036734028 163.2322434073157 L8.687954187425248 186.16269091702048"/>
		<path opacity="0.75" fill="pink" d="M6.187954187425248 183.27420462384407 L8.687954187425248 187.4567861425331 L52.25530036734028 163.2322434073157 L6.187954187425248 183.27420462384407"/>

		<path opacity="0.75" fill="pink" d="M-114.99392332452268 197.18844207060698 L-112.49392332452268 201.371023589296 L-72.69141868933863 174.8733139985689 L-114.99392332452268 197.18844207060698"/>
		<path opacity="0.75" fill="pink" d="M-114.99392332452268 197.18844207060698 L-114.99392332452268 198.48253729611957 L-72.69141868933863 174.8733139985689 L-114.99392332452268 197.18844207060698"/>
		<path opacity="0.75" fill="pink" d="M-112.49392332452268 201.371023589296 L-112.49392332452268 202.6651188148086 L-72.69141868933863 174.8733139985689 L-112.49392332452268 201.371023589296"/>
		<path opacity="0.75" fill="pink" d="M-114.99392332452268 198.48253729611957 L-112.49392332452268 202.6651188148086 L-72.69141868933863 174.8733139985689 L-114.99392332452268 198.48253729611957"/>

		<path opacity="0.75" fill="pink" d="M-225.36999325291674 173.40565611196067 L-220.36999325291674 181.77081914933873 L-175.17723609734963 157.52317003380247 L-225.36999325291674 173.40565611196067"/>
		<path opacity="0.75" fill="pink" d="M-225.36999325291674 173.40565611196067 L-225.36999325291674 175.99384656298585 L-175.17723609734963 157.52317003380247 L-225.36999325291674 173.40565611196067"/>
		<path opacity="0.75" fill="pink" d="M-220.36999325291674 181.77081914933873 L-220.36999325291674 184.35900960036395 L-175.17723609734963 157.52317003380247 L-220.36999325291674 181.77081914933873"/>
		<path opacity="0.75" fill="pink" d="M-225.36999325291674 175.99384656298585 L-220.36999325291674 184.35900960036395 L-175.17723609734963 157.52317003380247 L-225.36999325291674 175.99384656298585"/>

		<path opacity="0.75" fill="darkturquoise" d="M-225.36999325291674 173.40565611196067 L-220.36999325291674 181.77081914933873 L-220.36999325291674 184.35900960036395 L-225.36999325291674 175.99384656298585 L-225.36999325291674 173.40565611196067"/>
		<path opacity="0.75" fill="darkturquoise" d="M-242.69050132860554 183.06491437485136 L-237.69050132860554 191.43007741222942 L-237.69050132860554 194.01826786325464 L-242.69050132860554 185.65310482587654 L-242.69050132860554 183.06491437485136"/>
		<path opacity="0.75" fill="darkturquoise" d="M-225.36999325291674 173.40565611196067 L-242.69050132860554 183.06491437485136 L-242.69050132860554 185.65310482587654 L-225.36999325291674 175.99384656298585 L-225.36999325291674 173.40565611196067"/>
		<path opacity="0.75" fill="darkturquoise" d="M-220.36999325291674 181.77081914933873 L-237.69050132860554 191.43007741222942 L-237.69050132860554 194.01826786325464 L-220.36999325291674 184.35900960036395 L-220.36999325291674 181.77081914933873"/>
		<path opacity="0.75" fill="darkturquoise" d="M-225.36999325291674 173.40565611196067 L-220.36999325291674 181.77081914933873 L-237.69050132860554 191.43007741222942 L-242.69050132860554 183.06491437485136 L-225.36999325291674 173.40565611196067"/>
		<path opacity="0.75" fill="darkturquoise" d="M-225.36999325291674 175.99384656298585 L-220.36999325291674 184.35900960036395 L-237.69050132860554 194.01826786325464 L-242.69050132860554 185.65310482587654 L-225.36999325291674 175.99384656298585"/>
		<text x="-242.69050132860554" y="184.35900960036395" font-family="calibri" font-size="4">10</text>
		<text x="-240.19050132860554" y="189.8356863445656" font-family="calibri" font-size="4">10</text>
		<text x="-234.03024729076114" y="178.235285243406" font-family="calibri" font-size="4">20</text>

		<path opacity="0.5" fill="orange" d="M-226.12074235133218 167.69091160948366 L-210.12074235133218 194.4594333290935 L-210.12074235133218 202.74164277237415 L-226.12074235133218 175.9731210527643 L-226.12074235133218 167.69091160948366"/>
		<path opacity="0.5" fill="orange" d="M-243.44125042702098 177.35016987237435 L-227.44125042702098 204.1186915919842 L-227.44125042702098 212.40090103526484 L-243.44125042702098 185.632379315655 L-243.44125042702098 177.35016987237435"/>
		<path opacity="0.5" fill="orange" d="M-226.12074235133218 167.69091160948366 L-243.44125042702098 177.35016987237435 L-243.44125042702098 185.632379315655 L-226.12074235133218 175.9731210527643 L-226.12074235133218 167.69091160948366"/>
		<path opacity="0.5" fill="orange" d="M-210.12074235133218 194.4594333290935 L-227.44125042702098 204.1186915919842 L-227.44125042702098 212.40090103526484 L-210.12074235133218 202.74164277237415 L-210.12074235133218 194.4594333290935"/>
		<path opacity="0.5" fill="orange" d="M-226.12074235133218 167.69091160948366 L-210.12074235133218 194.4594333290935 L-227.44125042702098 204.1186915919842 L-243.44125042702098 177.35016987237435 L-226.12074235133218 167.69091160948366"/>
		<path opacity="0.5" fill="orange" d="M-226.12074235133218 175.9731210527643 L-210.12074235133218 202.74164277237415 L-227.44125042702098 212.40090103526484 L-243.44125042702098 185.632379315655 L-226.12074235133218 175.9731210527643"/>
		<text x="-243.44125042702098" y="181.49127459401467" font-family="calibri" font-size="4">32</text>
		<text x="-235.44125042702098" y="199.0166401754599" font-family="calibri" font-size="4">32</text>
		<text x="-234.78099638917658" y="172.520540740929" font-family="calibri" font-size="4">20</text>

		<path opacity="0.75" fill="darkturquoise" d="M6.187954187425248 181.98010939833148 L8.687954187425248 186.16269091702048 L8.687954187425248 187.4567861425331 L6.187954187425248 183.27420462384407 L6.187954187425248 181.98010939833148"/>
		<path opacity="0.75" fill="darkturquoise" d="M-49.23767165477881 212.88973583958165 L-46.73767165477881 217.0723173582707 L-46.73767165477881 218.3664125837833 L-49.23767165477881 214.18383106509427 L-49.23767165477881 212.88973583958165"/>
		<path opacity="0.75" fill="darkturquoise" d="M6.187954187425248 181.98010939833148 L-49.23767165477881 212.88973583958165 L-49.23767165477881 214.18383106509427 L6.187954187425248 183.27420462384407 L6.187954187425248 181.98010939833148"/>
		<path opacity="0.75" fill="darkturquoise" d="M8.687954187425248 186.16269091702048 L-46.73767165477881 217.0723173582707 L-46.73767165477881 218.3664125837833 L8.687954187425248 187.4567861425331 L8.687954187425248 186.16269091702048"/>
		<path opacity="0.75" fill="darkturquoise" d="M6.187954187425248 181.98010939833148 L8.687954187425248 186.16269091702048 L-46.73767165477881 217.0723173582707 L-49.23767165477881 212.88973583958165 L6.187954187425248 181.98010939833148"/>
		<path opacity="0.75" fill="darkturquoise" d="M6.187954187425248 183.27420462384407 L8.687954187425248 187.4567861425331 L-46.73767165477881 218.3664125837833 L-49.23767165477881 214.18383106509427 L6.187954187425248 183.27420462384407"/>
		<text x="-49.23767165477881" y="213.53678345233794" font-family="calibri" font-size="4">5</text>
		<text x="-47.98767165477881" y="216.27512182443877" font-family="calibri" font-size="4">5</text>
		<text x="-21.52485873367678" y="197.43492261895656" font-family="calibri" font-size="4">64</text>

		<path opacity="0.5" fill="orange" d="M4.6202367904177635 177.15572204998767 L12.620236790417763 190.5399829097926 L12.620236790417763 194.68108763143292 L4.6202367904177635 181.296826771628 L4.6202367904177635 177.15572204998767"/>
		<path opacity="0.5" fill="orange" d="M-50.80538905178628 208.06534849123787 L-42.80538905178628 221.4496093510428 L-42.80538905178628 225.5907140726831 L-50.80538905178628 212.2064532128782 L-50.80538905178628 208.06534849123787"/>
		<path opacity="0.5" fill="orange" d="M4.6202367904177635 177.15572204998767 L-50.80538905178628 208.06534849123787 L-50.80538905178628 212.2064532128782 L4.6202367904177635 181.296826771628 L4.6202367904177635 177.15572204998767"/>
		<path opacity="0.5" fill="orange" d="M12.620236790417763 190.5399829097926 L-42.80538905178628 221.4496093510428 L-42.80538905178628 225.5907140726831 L12.620236790417763 194.68108763143292 L12.620236790417763 190.5399829097926"/>
		<path opacity="0.5" fill="orange" d="M4.6202367904177635 177.15572204998767 L12.620236790417763 190.5399829097926 L-42.80538905178628 221.4496093510428 L-50.80538905178628 208.06534849123787 L4.6202367904177635 177.15572204998767"/>
		<path opacity="0.5" fill="orange" d="M4.6202367904177635 181.296826771628 L12.620236790417763 194.68108763143292 L-42.80538905178628 225.5907140726831 L-50.80538905178628 212.2064532128782 L4.6202367904177635 181.296826771628"/>
		<text x="-50.80538905178628" y="210.13590085205803" font-family="calibri" font-size="4">16</text>
		<text x="-46.80538905178628" y="218.89858364278064" font-family="calibri" font-size="4">16</text>
		<text x="-23.092576130684257" y="192.6105352706128" font-family="calibri" font-size="4">64</text>

		<path opacity="0.75" fill="darkturquoise" d="M-114.99392332452268 197.18844207060698 L-112.49392332452268 201.371023589296 L-112.49392332452268 202.6651188148086 L-114.99392332452268 198.48253729611957 L-114.99392332452268 197.18844207060698"/>
		<path opacity="0.75" fill="darkturquoise" d="M-142.7067362456247 212.6432552912321 L-140.20673624562474 216.8258368099211 L-140.20673624562474 218.11993203543372 L-142.7067362456247 213.9373505167447 L-142.7067362456247 212.6432552912321"/>
		<path opacity="0.75" fill="darkturquoise" d="M-114.99392332452268 197.18844207060698 L-142.7067362456247 212.6432552912321 L-142.7067362456247 213.9373505167447 L-114.99392332452268 198.48253729611957 L-114.99392332452268 197.18844207060698"/>
		<path opacity="0.75" fill="darkturquoise" d="M-112.49392332452268 201.371023589296 L-140.20673624562474 216.8258368099211 L-140.20673624562474 218.11993203543372 L-112.49392332452268 202.6651188148086 L-112.49392332452268 201.371023589296"/>
		<path opacity="0.75" fill="darkturquoise" d="M-114.99392332452268 197.18844207060698 L-112.49392332452268 201.371023589296 L-140.20673624562474 216.8258368099211 L-142.7067362456247 212.6432552912321 L-114.99392332452268 197.18844207060698"/>
		<path opacity="0.75" fill="darkturquoise" d="M-114.99392332452268 198.48253729611957 L-112.49392332452268 202.6651188148086 L-140.20673624562474 218.11993203543372 L-142.7067362456247 213.9373505167447 L-114.99392332452268 198.48253729611957"/>
		<text x="-142.7067362456247" y="213.2903029039884" font-family="calibri" font-size="4">5</text>
		<text x="-141.4567362456247" y="216.02864127608922" font-family="calibri" font-size="4">5</text>
		<text x="-128.8503297850737" y="204.91584868091954" font-family="calibri" font-size="4">32</text>

		<path opacity="0.5" fill="orange" d="M-126.60665924100823 175.7693820446869 L-110.60665924100823 202.53790376429674 L-110.60665924100823 210.82011320757738 L-126.60665924100823 184.05159148796753 L-126.60665924100823 175.7693820446869"/>
		<path opacity="0.5" fill="orange" d="M-154.3194721621103 191.224195265312 L-138.3194721621103 217.99271698492186 L-138.3194721621103 226.2749264282025 L-154.3194721621103 199.50640470859264 L-154.3194721621103 191.224195265312"/>
		<path opacity="0.5" fill="orange" d="M-126.60665924100823 175.7693820446869 L-154.3194721621103 191.224195265312 L-154.3194721621103 199.50640470859264 L-126.60665924100823 184.05159148796753 L-126.60665924100823 175.7693820446869"/>
		<path opacity="0.5" fill="orange" d="M-110.60665924100823 202.53790376429674 L-138.3194721621103 217.99271698492186 L-138.3194721621103 226.2749264282025 L-110.60665924100823 210.82011320757738 L-110.60665924100823 202.53790376429674"/>
		<path opacity="0.5" fill="orange" d="M-126.60665924100823 175.7693820446869 L-110.60665924100823 202.53790376429674 L-138.3194721621103 217.99271698492186 L-154.3194721621103 191.224195265312 L-126.60665924100823 175.7693820446869"/>
		<path opacity="0.5" fill="orange" d="M-126.60665924100823 184.05159148796753 L-110.60665924100823 210.82011320757738 L-138.3194721621103 226.2749264282025 L-154.3194721621103 199.50640470859264 L-126.60665924100823 184.05159148796753"/>
		<text x="-154.3194721621103" y="195.36529998695232" font-family="calibri" font-size="4">32</text>
		<text x="-146.3194721621103" y="212.89066556839757" font-family="calibri" font-size="4">32</text>
		<text x="-140.46306570155926" y="183.49678865499945" font-family="calibri" font-size="4">32</text>

		<path opacity="0.75" fill="pink" d="M-187.2201440338236 235.58739000521447 L-182.2201440338236 243.95255304259257 L-145.54201742670278 206.9248803676021 L-187.2201440338236 235.58739000521447"/>
		<path opacity="0.75" fill="pink" d="M-187.2201440338236 235.58739000521447 L-187.2201440338236 238.1755804562397 L-145.54201742670278 206.9248803676021 L-187.2201440338236 235.58739000521447"/>
		<path opacity="0.75" fill="pink" d="M-182.2201440338236 243.95255304259257 L-182.2201440338236 246.54074349361775 L-145.54201742670278 206.9248803676021 L-182.2201440338236 243.95255304259257"/>
		<path opacity="0.75" fill="pink" d="M-187.2201440338236 238.1755804562397 L-182.2201440338236 246.54074349361775 L-145.54201742670278 206.9248803676021 L-187.2201440338236 238.1755804562397"/>

		<path opacity="0.75" fill="darkturquoise" d="M-187.2201440338236 235.58739000521447 L-182.2201440338236 243.95255304259257 L-182.2201440338236 246.54074349361775 L-187.2201440338236 238.1755804562397 L-187.2201440338236 235.58739000521447"/>
		<path opacity="0.75" fill="darkturquoise" d="M-204.5406521095124 245.24664826810516 L-199.5406521095124 253.61181130548323 L-199.5406521095124 256.20000175650847 L-204.5406521095124 247.83483871913037 L-204.5406521095124 245.24664826810516"/>
		<path opacity="0.75" fill="darkturquoise" d="M-187.2201440338236 235.58739000521447 L-204.5406521095124 245.24664826810516 L-204.5406521095124 247.83483871913037 L-187.2201440338236 238.1755804562397 L-187.2201440338236 235.58739000521447"/>
		<path opacity="0.75" fill="darkturquoise" d="M-182.2201440338236 243.95255304259257 L-199.5406521095124 253.61181130548323 L-199.5406521095124 256.20000175650847 L-182.2201440338236 246.54074349361775 L-182.2201440338236 243.95255304259257"/>
		<path opacity="0.75" fill="darkturquoise" d="M-187.2201440338236 235.58739000521447 L-182.2201440338236 243.95255304259257 L-199.5406521095124 253.61181130548323 L-204.5406521095124 245.24664826810516 L-187.2201440338236 235.58739000521447"/>
		<path opacity="0.75" fill="darkturquoise" d="M-187.2201440338236 238.1755804562397 L-182.2201440338236 246.54074349361775 L-199.5406521095124 256.20000175650847 L-204.5406521095124 247.83483871913037 L-187.2201440338236 238.1755804562397"/>
		<text x="-204.5406521095124" y="246.54074349361775" font-family="calibri" font-size="4">10</text>
		<text x="-202.0406521095124" y="252.0174202378194" font-family="calibri" font-size="4">10</text>
		<text x="-195.880398071668" y="240.4170191366598" font-family="calibri" font-size="4">20</text>

		<path opacity="0.5" fill="orange" d="M-197.62074235133218 215.3723409225387 L-181.62074235133218 242.14086264214856 L-181.62074235133218 250.42307208542923 L-197.62074235133218 223.65455036581935 L-197.62074235133218 215.3723409225387"/>
		<path opacity="0.5" fill="orange" d="M-214.94125042702098 225.0315991854294 L-198.94125042702098 251.80012090503925 L-198.94125042702098 260.0823303483199 L-214.94125042702098 233.31380862871004 L-214.94125042702098 225.0315991854294"/>
		<path opacity="0.5" fill="orange" d="M-197.62074235133218 215.3723409225387 L-214.94125042702098 225.0315991854294 L-214.94125042702098 233.31380862871004 L-197.62074235133218 223.65455036581935 L-197.62074235133218 215.3723409225387"/>
		<path opacity="0.5" fill="orange" d="M-181.62074235133218 242.14086264214856 L-198.94125042702098 251.80012090503925 L-198.94125042702098 260.0823303483199 L-181.62074235133218 250.42307208542923 L-181.62074235133218 242.14086264214856"/>
		<path opacity="0.5" fill="orange" d="M-197.62074235133218 215.3723409225387 L-181.62074235133218 242.14086264214856 L-198.94125042702098 251.80012090503925 L-214.94125042702098 225.0315991854294 L-197.62074235133218 215.3723409225387"/>
		<path opacity="0.5" fill="orange" d="M-197.62074235133218 223.65455036581935 L-181.62074235133218 250.42307208542923 L-198.94125042702098 260.0823303483199 L-214.94125042702098 233.31380862871004 L-197.62074235133218 223.65455036581935"/>
		<text x="-214.94125042702098" y="229.17270390706972" font-family="calibri" font-size="4">32</text>
		<text x="-206.94125042702098" y="246.69806948851496" font-family="calibri" font-size="4">32</text>
		<text x="-206.28099638917658" y="220.20197005398404" font-family="calibri" font-size="4">20</text>

		<path opacity="0.75" fill="pink" d="M-91.44176091335385 237.37949078601673 L-88.94176091335385 241.5620723047058 L-48.96380335399917 211.5796989494627 L-91.44176091335385 237.37949078601673"/>
		<path opacity="0.75" fill="pink" d="M-91.44176091335385 237.37949078601673 L-91.44176091335385 238.67358601152932 L-48.96380335399917 211.5796989494627 L-91.44176091335385 237.37949078601673"/>
		<path opacity="0.75" fill="pink" d="M-88.94176091335385 241.5620723047058 L-88.94176091335385 242.85616753021839 L-48.96380335399917 211.5796989494627 L-88.94176091335385 241.5620723047058"/>
		<path opacity="0.75" fill="pink" d="M-91.44176091335385 238.67358601152932 L-88.94176091335385 242.85616753021839 L-48.96380335399917 211.5796989494627 L-91.44176091335385 238.67358601152932"/>

		<path opacity="0.75" fill="darkturquoise" d="M-91.44176091335385 237.37949078601673 L-88.94176091335385 241.5620723047058 L-88.94176091335385 242.85616753021839 L-91.44176091335385 238.67358601152932 L-91.44176091335385 237.37949078601673"/>
		<path opacity="0.75" fill="darkturquoise" d="M-119.1545738344559 252.83430400664184 L-116.6545738344559 257.0168855253309 L-116.6545738344559 258.3109807508435 L-119.1545738344559 254.12839923215444 L-119.1545738344559 252.83430400664184"/>
		<path opacity="0.75" fill="darkturquoise" d="M-91.44176091335385 237.37949078601673 L-119.1545738344559 252.83430400664184 L-119.1545738344559 254.12839923215444 L-91.44176091335385 238.67358601152932 L-91.44176091335385 237.37949078601673"/>
		<path opacity="0.75" fill="darkturquoise" d="M-88.94176091335385 241.5620723047058 L-116.6545738344559 257.0168855253309 L-116.6545738344559 258.3109807508435 L-88.94176091335385 242.85616753021839 L-88.94176091335385 241.5620723047058"/>
		<path opacity="0.75" fill="darkturquoise" d="M-91.44176091335385 237.37949078601673 L-88.94176091335385 241.5620723047058 L-116.6545738344559 257.0168855253309 L-119.1545738344559 252.83430400664184 L-91.44176091335385 237.37949078601673"/>
		<path opacity="0.75" fill="darkturquoise" d="M-91.44176091335385 238.67358601152932 L-88.94176091335385 242.85616753021839 L-116.6545738344559 258.3109807508435 L-119.1545738344559 254.12839923215444 L-91.44176091335385 238.67358601152932"/>
		<text x="-119.1545738344559" y="253.48135161939814" font-family="calibri" font-size="4">5</text>
		<text x="-117.9045738344559" y="256.21968999149897" font-family="calibri" font-size="4">5</text>
		<text x="-105.29816737390487" y="245.1068973963293" font-family="calibri" font-size="4">32</text>

		<path opacity="0.5" fill="orange" d="M-98.10665924100823 223.45081135774194 L-82.10665924100823 250.2193330773518 L-82.10665924100823 258.5015425206325 L-98.10665924100823 231.7330208010226 L-98.10665924100823 223.45081135774194"/>
		<path opacity="0.5" fill="orange" d="M-125.81947216211029 238.90562457836705 L-109.81947216211029 265.6741462979769 L-109.81947216211029 273.95635574125754 L-125.81947216211029 247.18783402164772 L-125.81947216211029 238.90562457836705"/>
		<path opacity="0.5" fill="orange" d="M-98.10665924100823 223.45081135774194 L-125.81947216211029 238.90562457836705 L-125.81947216211029 247.18783402164772 L-98.10665924100823 231.7330208010226 L-98.10665924100823 223.45081135774194"/>
		<path opacity="0.5" fill="orange" d="M-82.10665924100823 250.2193330773518 L-109.81947216211029 265.6741462979769 L-109.81947216211029 273.95635574125754 L-82.10665924100823 258.5015425206325 L-82.10665924100823 250.2193330773518"/>
		<path opacity="0.5" fill="orange" d="M-98.10665924100823 223.45081135774194 L-82.10665924100823 250.2193330773518 L-109.81947216211029 265.6741462979769 L-125.81947216211029 238.90562457836705 L-98.10665924100823 223.45081135774194"/>
		<path opacity="0.5" fill="orange" d="M-98.10665924100823 231.7330208010226 L-82.10665924100823 258.5015425206325 L-109.81947216211029 273.95635574125754 L-125.81947216211029 247.18783402164772 L-98.10665924100823 231.7330208010226"/>
		<text x="-125.81947216211029" y="243.04672930000737" font-family="calibri" font-size="4">32</text>
		<text x="-117.81947216211029" y="260.57209488145264" font-family="calibri" font-size="4">32</text>
		<text x="-111.96306570155926" y="231.1782179680545" font-family="calibri" font-size="4">32</text>

		<path opacity="0.75" fill="pink" d="M-166.73899972090481 269.1225113844267 L-161.73899972090481 277.48767442180474 L-125.64930699324921 242.7170916218504 L-166.73899972090481 269.1225113844267"/>
		<path opacity="0.75" fill="pink" d="M-166.73899972090481 269.1225113844267 L-166.73899972090481 271.7107018354519 L-125.64930699324921 242.7170916218504 L-166.73899972090481 269.1225113844267"/>
		<path opacity="0.75" fill="pink" d="M-161.73899972090481 277.48767442180474 L-161.73899972090481 280.0758648728299 L-125.64930699324921 242.7170916218504 L-161.73899972090481 277.48767442180474"/>
		<path opacity="0.75" fill="pink" d="M-166.73899972090481 271.7107018354519 L-161.73899972090481 280.0758648728299 L-125.64930699324921 242.7170916218504 L-166.73899972090481 271.7107018354519"/>

		<path opacity="0.75" fill="darkturquoise" d="M-166.73899972090481 269.1225113844267 L-161.73899972090481 277.48767442180474 L-161.73899972090481 280.0758648728299 L-166.73899972090481 271.7107018354519 L-166.73899972090481 269.1225113844267"/>
		<path opacity="0.75" fill="darkturquoise" d="M-184.0595077965936 278.78176964731733 L-179.0595077965936 287.14693268469546 L-179.0595077965936 289.73512313572064 L-184.0595077965936 281.3699600983426 L-184.0595077965936 278.78176964731733"/>
		<path opacity="0.75" fill="darkturquoise" d="M-166.73899972090481 269.1225113844267 L-184.0595077965936 278.78176964731733 L-184.0595077965936 281.3699600983426 L-166.73899972090481 271.7107018354519 L-166.73899972090481 269.1225113844267"/>
		<path opacity="0.75" fill="darkturquoise" d="M-161.73899972090481 277.48767442180474 L-179.0595077965936 287.14693268469546 L-179.0595077965936 289.73512313572064 L-161.73899972090481 280.0758648728299 L-161.73899972090481 277.48767442180474"/>
		<path opacity="0.75" fill="darkturquoise" d="M-166.73899972090481 269.1225113844267 L-161.73899972090481 277.48767442180474 L-179.0595077965936 287.14693268469546 L-184.0595077965936 278.78176964731733 L-166.73899972090481 269.1225113844267"/>
		<path opacity="0.75" fill="darkturquoise" d="M-166.73899972090481 271.7107018354519 L-161.73899972090481 280.0758648728299 L-179.0595077965936 289.73512313572064 L-184.0595077965936 281.3699600983426 L-166.73899972090481 271.7107018354519"/>
		<text x="-184.0595077965936" y="280.0758648728299" font-family="calibri" font-size="4">10</text>
		<text x="-181.5595077965936" y="285.5525416170316" font-family="calibri" font-size="4">10</text>
		<text x="-175.3992537587492" y="273.952140515872" font-family="calibri" font-size="4">20</text>

		<path opacity="0.5" fill="orange" d="M-169.12074235133218 263.0537702355938 L-153.12074235133218 289.8222919552036 L-153.12074235133218 298.1045013984843 L-169.12074235133218 271.3359796788744 L-169.12074235133218 263.0537702355938"/>
		<path opacity="0.5" fill="orange" d="M-186.44125042702098 272.71302849848445 L-170.44125042702098 299.4815502180943 L-170.44125042702098 307.76375966137493 L-186.44125042702098 280.99523794176514 L-186.44125042702098 272.71302849848445"/>
		<path opacity="0.5" fill="orange" d="M-169.12074235133218 263.0537702355938 L-186.44125042702098 272.71302849848445 L-186.44125042702098 280.99523794176514 L-169.12074235133218 271.3359796788744 L-169.12074235133218 263.0537702355938"/>
		<path opacity="0.5" fill="orange" d="M-153.12074235133218 289.8222919552036 L-170.44125042702098 299.4815502180943 L-170.44125042702098 307.76375966137493 L-153.12074235133218 298.1045013984843 L-153.12074235133218 289.8222919552036"/>
		<path opacity="0.5" fill="orange" d="M-169.12074235133218 263.0537702355938 L-153.12074235133218 289.8222919552036 L-170.44125042702098 299.4815502180943 L-186.44125042702098 272.71302849848445 L-169.12074235133218 263.0537702355938"/>
		<path opacity="0.5" fill="orange" d="M-169.12074235133218 271.3359796788744 L-153.12074235133218 298.1045013984843 L-170.44125042702098 307.76375966137493 L-186.44125042702098 280.99523794176514 L-169.12074235133218 271.3359796788744"/>
		<text x="-186.44125042702098" y="276.8541332201248" font-family="calibri" font-size="4">32</text>
		<text x="-178.44125042702098" y="294.37949880157004" font-family="calibri" font-size="4">32</text>
		<text x="-177.78099638917658" y="267.88339936703915" font-family="calibri" font-size="4">20</text>

	 </g>
</svg>