<svg width="100%" height="100%" viewBox="-101.20061658979718 -77.32883832488648 202.40123317959436 123.97818472546173" xmlns="http://www.w3.org/2000/svg">
	<g stroke="black" stroke-width="0.3">

		<path opacity="0.5" fill="orange" d="M83.20061658979718 -41.22372055837117 L95.20061658979718 -30.83141571295791 L95.20061658979718 -16.975009252406892 L83.20061658979718 -27.367314097820156 L83.20061658979718 -41.22372055837117" stroke-linecap="square"/>
		<path opacity="0.5" fill="orange" d="M27.774990747593108 -25.223720558371173 L39.77499074759311 -14.83141571295791 L39.77499074759311 -0.9750092524068918 L27.774990747593108 -11.367314097820156 L27.774990747593108 -25.223720558371173" stroke-linecap="square"/>
		<path opacity="0.5" fill="orange" d="M83.20061658979718 -41.22372055837117 L27.774990747593108 -25.223720558371173 L27.774990747593108 -11.367314097820156 L83.20061658979718 -27.367314097820156 L83.20061658979718 -41.22372055837117" stroke-linecap="square"/>
		<path opacity="0.5" fill="orange" d="M95.20061658979718 -30.83141571295791 L39.77499074759311 -14.83141571295791 L39.77499074759311 -0.9750092524068918 L95.20061658979718 -16.975009252406892 L95.20061658979718 -30.83141571295791" stroke-linecap="square"/>
		<path opacity="0.5" fill="orange" d="M83.20061658979718 -41.22372055837117 L95.20061658979718 -30.83141571295791 L39.77499074759311 -14.83141571295791 L27.774990747593108 -25.223720558371173 L83.20061658979718 -41.22372055837117" stroke-linecap="square"/>
		<path opacity="0.5" fill="orange" d="M83.20061658979718 -27.367314097820156 L95.20061658979718 -16.975009252406892 L39.77499074759311 -0.9750092524068918 L27.774990747593108 -11.367314097820156 L83.20061658979718 -27.367314097820156" stroke-linecap="square"/>
		<text style="fill:black;font-family:calibri;font-size:6" x="27.774990747593108" y="-18.295517328095663" >16</text>
		<text style="fill:black;font-family:calibri;font-size:6" x="33.77499074759311" y="-6.171161675113524" >24</text>
		<text style="fill:black;font-family:calibri;font-size:6" x="55.48780366869514" y="-33.22372055837117" >64</text>

		<path opacity="0.75" fill="pink" d="M-2.191431496240341 -4.099010220340528 L0.30856850375965905 -1.9339467108794324 L38.408131704753416 -9.741483831429893 L-2.191431496240341 -4.099010220340528"/>
		<path opacity="0.75" fill="pink" d="M-2.191431496240341 -4.099010220340528 L-2.191431496240341 0.23111679858166312 L38.408131704753416 -9.741483831429893 L-2.191431496240341 -4.099010220340528"/>
		<path opacity="0.75" fill="pink" d="M0.30856850375965905 -1.9339467108794324 L0.30856850375965905 2.3961803080427586 L38.408131704753416 -9.741483831429893 L0.30856850375965905 -1.9339467108794324"/>
		<path opacity="0.75" fill="pink" d="M-2.191431496240341 0.23111679858166312 L0.30856850375965905 2.3961803080427586 L38.408131704753416 -9.741483831429893 L-2.191431496240341 0.23111679858166312"/>

		<text style="fill:black;font-family:calibri;font-size:6" x="12.175089570757578" y="-11.42024702588521" >[5,5]</text>
		<path opacity="0.75" fill="darkturquoise" d="M-2.191431496240341 -4.099010220340528 L0.30856850375965905 -1.9339467108794324 L0.30856850375965905 2.3961803080427586 L-2.191431496240341 0.23111679858166312 L-2.191431496240341 -4.099010220340528" stroke-linecap="square"/>
		<path opacity="0.75" fill="darkturquoise" d="M-29.904244417342376 3.900989779659472 L-27.404244417342376 6.066053289120568 L-27.404244417342376 10.396180308042759 L-29.904244417342376 8.231116798581667 L-29.904244417342376 3.900989779659472" stroke-linecap="square"/>
		<path opacity="0.75" fill="darkturquoise" d="M-2.191431496240341 -4.099010220340528 L-29.904244417342376 3.900989779659472 L-29.904244417342376 8.231116798581667 L-2.191431496240341 0.23111679858166312 L-2.191431496240341 -4.099010220340528" stroke-linecap="square"/>
		<path opacity="0.75" fill="darkturquoise" d="M0.30856850375965905 -1.9339467108794324 L-27.404244417342376 6.066053289120568 L-27.404244417342376 10.396180308042759 L0.30856850375965905 2.3961803080427586 L0.30856850375965905 -1.9339467108794324" stroke-linecap="square"/>
		<path opacity="0.75" fill="darkturquoise" d="M-2.191431496240341 -4.099010220340528 L0.30856850375965905 -1.9339467108794324 L-27.404244417342376 6.066053289120568 L-29.904244417342376 3.900989779659472 L-2.191431496240341 -4.099010220340528" stroke-linecap="square"/>
		<path opacity="0.75" fill="darkturquoise" d="M-2.191431496240341 0.23111679858166312 L0.30856850375965905 2.3961803080427586 L-27.404244417342376 10.396180308042759 L-29.904244417342376 8.231116798581667 L-2.191431496240341 0.23111679858166312" stroke-linecap="square"/>
		<path opacity="0.5" fill="orange" d="M-21.52627944162883 -24.848076211353316 L2.4737205583711788 -4.063466520526788 L2.4737205583711788 23.649346400575254 L-21.52627944162883 2.864736709748726 L-21.52627944162883 -24.848076211353316" stroke-linecap="square"/>
		<path opacity="0.5" fill="orange" d="M-49.23909236273086 -16.848076211353316 L-25.239092362730855 3.936533479473212 L-25.239092362730855 31.649346400575254 L-49.23909236273086 10.864736709748726 L-49.23909236273086 -16.848076211353316" stroke-linecap="square"/>
		<path opacity="0.5" fill="orange" d="M-21.52627944162883 -24.848076211353316 L-49.23909236273086 -16.848076211353316 L-49.23909236273086 10.864736709748726 L-21.52627944162883 2.864736709748726 L-21.52627944162883 -24.848076211353316" stroke-linecap="square"/>
		<path opacity="0.5" fill="orange" d="M2.4737205583711788 -4.063466520526788 L-25.239092362730855 3.936533479473212 L-25.239092362730855 31.649346400575254 L2.4737205583711788 23.649346400575254 L2.4737205583711788 -4.063466520526788" stroke-linecap="square"/>
		<path opacity="0.5" fill="orange" d="M-21.52627944162883 -24.848076211353316 L2.4737205583711788 -4.063466520526788 L-25.239092362730855 3.936533479473212 L-49.23909236273086 -16.848076211353316 L-21.52627944162883 -24.848076211353316" stroke-linecap="square"/>
		<path opacity="0.5" fill="orange" d="M-21.52627944162883 2.864736709748726 L2.4737205583711788 23.649346400575254 L-25.239092362730855 31.649346400575254 L-49.23909236273086 10.864736709748726 L-21.52627944162883 2.864736709748726" stroke-linecap="square"/>
		<text style="fill:black;font-family:calibri;font-size:6" x="-49.23909236273086" y="-2.991669750802295" >32</text>
		<text style="fill:black;font-family:calibri;font-size:6" x="-37.23909236273086" y="21.25704155516199" >48</text>
		<text style="fill:black;font-family:calibri;font-size:6" x="-35.382685902179844" y="-20.848076211353316" >32</text>

		<path opacity="0.75" fill="pink" d="M-90.60341834583701 1.9162006927707438 L-85.60341834583701 6.246327711692938 L-35.84195269644506 8.616657894387387 L-90.60341834583701 1.9162006927707438"/>
		<path opacity="0.75" fill="pink" d="M-90.60341834583701 1.9162006927707438 L-90.60341834583701 10.576454730615133 L-35.84195269644506 8.616657894387387 L-90.60341834583701 1.9162006927707438"/>
		<path opacity="0.75" fill="pink" d="M-85.60341834583701 6.246327711692938 L-85.60341834583701 14.906581749537324 L-35.84195269644506 8.616657894387387 L-85.60341834583701 6.246327711692938"/>
		<path opacity="0.75" fill="pink" d="M-90.60341834583701 10.576454730615133 L-85.60341834583701 14.906581749537324 L-35.84195269644506 8.616657894387387 L-90.60341834583701 10.576454730615133"/>

		<text style="fill:black;font-family:calibri;font-size:6" x="-70.68292979603969" y="0.7664292935790655" >[10,10]</text>
		<path opacity="0.75" fill="darkturquoise" d="M-90.60341834583701 1.9162006927707438 L-85.60341834583701 6.246327711692938 L-85.60341834583701 14.906581749537324 L-90.60341834583701 10.576454730615133 L-90.60341834583701 1.9162006927707438" stroke-linecap="square"/>
		<path opacity="0.75" fill="darkturquoise" d="M-99.2636723836814 4.416200692770744 L-94.2636723836814 8.746327711692935 L-94.2636723836814 17.406581749537324 L-99.2636723836814 13.076454730615133 L-99.2636723836814 4.416200692770744" stroke-linecap="square"/>
		<path opacity="0.75" fill="darkturquoise" d="M-90.60341834583701 1.9162006927707438 L-99.2636723836814 4.416200692770744 L-99.2636723836814 13.076454730615133 L-90.60341834583701 10.576454730615133 L-90.60341834583701 1.9162006927707438" stroke-linecap="square"/>
		<path opacity="0.75" fill="darkturquoise" d="M-85.60341834583701 6.246327711692938 L-94.2636723836814 8.746327711692935 L-94.2636723836814 17.406581749537324 L-85.60341834583701 14.906581749537324 L-85.60341834583701 6.246327711692938" stroke-linecap="square"/>
		<path opacity="0.75" fill="darkturquoise" d="M-90.60341834583701 1.9162006927707438 L-85.60341834583701 6.246327711692938 L-94.2636723836814 8.746327711692935 L-99.2636723836814 4.416200692770744 L-90.60341834583701 1.9162006927707438" stroke-linecap="square"/>
		<path opacity="0.75" fill="darkturquoise" d="M-90.60341834583701 10.576454730615133 L-85.60341834583701 14.906581749537324 L-94.2636723836814 17.406581749537324 L-99.2636723836814 13.076454730615133 L-90.60341834583701 10.576454730615133" stroke-linecap="square"/>
		<path opacity="0.5" fill="lavender" d="M-92.5403625519528 -4.348076211353316 L-68.5403625519528 16.436533479473212 L-68.5403625519528 44.149346400575254 L-92.5403625519528 23.364736709748726 L-92.5403625519528 -4.348076211353316" stroke-linecap="square"/>
		<path opacity="0.5" fill="lavender" d="M-101.20061658979718 -1.848076211353316 L-77.20061658979718 18.936533479473212 L-77.20061658979718 46.649346400575254 L-101.20061658979718 25.864736709748726 L-101.20061658979718 -1.848076211353316" stroke-linecap="square"/>
		<path opacity="0.5" fill="lavender" d="M-92.5403625519528 -4.348076211353316 L-101.20061658979718 -1.848076211353316 L-101.20061658979718 25.864736709748726 L-92.5403625519528 23.364736709748726 L-92.5403625519528 -4.348076211353316" stroke-linecap="square"/>
		<path opacity="0.5" fill="lavender" d="M-68.5403625519528 16.436533479473212 L-77.20061658979718 18.936533479473212 L-77.20061658979718 46.649346400575254 L-68.5403625519528 44.149346400575254 L-68.5403625519528 16.436533479473212" stroke-linecap="square"/>
		<path opacity="0.5" fill="lavender" d="M-92.5403625519528 -4.348076211353316 L-68.5403625519528 16.436533479473212 L-77.20061658979718 18.936533479473212 L-101.20061658979718 -1.848076211353316 L-92.5403625519528 -4.348076211353316" stroke-linecap="square"/>
		<path opacity="0.5" fill="lavender" d="M-92.5403625519528 23.364736709748726 L-68.5403625519528 44.149346400575254 L-77.20061658979718 46.649346400575254 L-101.20061658979718 25.864736709748726 L-92.5403625519528 23.364736709748726" stroke-linecap="square"/>
		<text style="fill:black;font-family:calibri;font-size:6" x="-101.20061658979718" y="12.008330249197705" >32</text>
		<text style="fill:black;font-family:calibri;font-size:6" x="-89.20061658979718" y="36.25704155516199" >48</text>
		<text style="fill:black;font-family:calibri;font-size:6" x="-96.87048957087498" y="-3.098076211353316" >10</text>

	 </g>
</svg>