<svg width="2000.0px" height="1000.0px" viewBox="0.0 0.0 1000.0 1000.0" xmlns="http://www.w3.org/2000/svg">
	<g stroke="black" stroke-width="0.3">
		<path opacity="0.5" fill="orange" d="M386.5470588025886 -101.19421938165306 L390.5470588025886 -97.73011776651529 L390.5470588025886 -90.80191453623979 L386.5470588025886 -94.26601615137753 L386.5470588025886 -101.19421938165306"/>
		<path opacity="0.5" fill="orange" d="M331.12143296038454 -85.19421938165306 L335.12143296038454 -81.73011776651529 L335.12143296038454 -74.80191453623979 L331.12143296038454 -78.26601615137753 L331.12143296038454 -85.19421938165306"/>
		<path opacity="0.5" fill="orange" d="M386.5470588025886 -101.19421938165306 L331.12143296038454 -85.19421938165306 L331.12143296038454 -78.26601615137753 L386.5470588025886 -94.26601615137753 L386.5470588025886 -101.19421938165306"/>
		<path opacity="0.5" fill="orange" d="M390.5470588025886 -97.73011776651529 L335.12143296038454 -81.73011776651529 L335.12143296038454 -74.80191453623979 L390.5470588025886 -90.80191453623979 L390.5470588025886 -97.73011776651529"/>
		<path opacity="0.5" fill="orange" d="M386.5470588025886 -101.19421938165306 L390.5470588025886 -97.73011776651529 L335.12143296038454 -81.73011776651529 L331.12143296038454 -85.19421938165306 L386.5470588025886 -101.19421938165306"/>
		<path opacity="0.5" fill="orange" d="M386.5470588025886 -94.26601615137753 L390.5470588025886 -90.80191453623979 L335.12143296038454 -74.80191453623979 L331.12143296038454 -78.26601615137753 L386.5470588025886 -94.26601615137753"/>
		<text x="331.12143296038454" y="-81.73011776651529" font-family="calibri" font-size="4">8</text>
		<text x="333.12143296038454" y="-76.53396534380866" font-family="calibri" font-size="4">8</text>
		<text x="358.8342458814866" y="-93.19421938165306" font-family="calibri" font-size="4">64</text>

		<path opacity="0.75" fill="darkturquoise" d="M591.941250427021 -171.45607040843177 L596.941250427021 -167.1259433895096 L596.941250427021 6.079137367378181 L591.941250427021 1.7490103484559825 L591.941250427021 -171.45607040843177"/>
		<path opacity="0.75" fill="darkturquoise" d="M583.2809963891766 -168.95607040843177 L588.2809963891766 -164.6259433895096 L588.2809963891766 8.57913736737818 L583.2809963891766 4.2490103484559825 L583.2809963891766 -168.95607040843177"/>
		<path opacity="0.75" fill="darkturquoise" d="M591.941250427021 -171.45607040843177 L583.2809963891766 -168.95607040843177 L583.2809963891766 4.2490103484559825 L591.941250427021 1.7490103484559825 L591.941250427021 -171.45607040843177"/>
		<path opacity="0.75" fill="darkturquoise" d="M596.941250427021 -167.1259433895096 L588.2809963891766 -164.6259433895096 L588.2809963891766 8.57913736737818 L596.941250427021 6.079137367378181 L596.941250427021 -167.1259433895096"/>
		<path opacity="0.75" fill="darkturquoise" d="M591.941250427021 -171.45607040843177 L596.941250427021 -167.1259433895096 L588.2809963891766 -164.6259433895096 L583.2809963891766 -168.95607040843177 L591.941250427021 -171.45607040843177"/>
		<path opacity="0.75" fill="darkturquoise" d="M591.941250427021 1.7490103484559825 L596.941250427021 6.079137367378181 L588.2809963891766 8.57913736737818 L583.2809963891766 4.2490103484559825 L591.941250427021 1.7490103484559825"/>
		<text x="583.2809963891766" y="-82.3535300299879" font-family="calibri" font-size="4">200</text>
		<text x="585.7809963891766" y="6.4140738579170815" font-family="calibri" font-size="4">10</text>
		<text x="587.6111234080988" y="-170.20607040843177" font-family="calibri" font-size="4">10</text>

<!-- Arrow -->
		<path opacity="0.5" stroke="black" d="M542.4797261999547 -67.68846652052682 L585.7809963891766 -80.18846652052682"/>
		<circle opacity="0.5" cx="585.7809963891766" cy="-80.18846652052682" r="1" fill="black" />
<!-- Arrow -->
		<path opacity="0.5" stroke="black" d="M388.5470588025886 -95.99806695894642 L481.85794793504397 -50.1884665205268"/>
		<circle opacity="0.5" cx="481.85794793504397" cy="-50.1884665205268" r="1" fill="black" />
		<path opacity="0.75" fill="pink" d="M288.06984427941995 -70.31789573113096 L290.56984427941995 -68.15283222166985 L333.68214317024814 -81.35919497240242 L288.06984427941995 -70.31789573113096"/>
		<path opacity="0.75" fill="pink" d="M288.06984427941995 -70.31789573113096 L288.06984427941995 -65.98776871220876 L333.68214317024814 -81.35919497240242 L288.06984427941995 -70.31789573113096"/>
		<path opacity="0.75" fill="pink" d="M290.56984427941995 -68.15283222166985 L290.56984427941995 -63.82270520274766 L333.68214317024814 -81.35919497240242 L290.56984427941995 -68.15283222166985"/>
		<path opacity="0.75" fill="pink" d="M288.06984427941995 -65.98776871220876 L290.56984427941995 -63.82270520274766 L333.68214317024814 -81.35919497240242 L288.06984427941995 -65.98776871220876"/>

		<path opacity="0.5" fill="orange" d="M160.08364779650316 -84.31728634059947 L164.08364779650316 -80.8531847254617 L164.08364779650316 -73.9249814951862 L160.08364779650316 -77.38908311032397 L160.08364779650316 -84.31728634059947"/>
		<path opacity="0.5" fill="orange" d="M104.6580219542991 -68.31728634059947 L108.6580219542991 -64.8531847254617 L108.6580219542991 -57.9249814951862 L104.6580219542991 -61.389083110323966 L104.6580219542991 -68.31728634059947"/>
		<path opacity="0.5" fill="orange" d="M160.08364779650316 -84.31728634059947 L104.6580219542991 -68.31728634059947 L104.6580219542991 -61.389083110323966 L160.08364779650316 -77.38908311032397 L160.08364779650316 -84.31728634059947"/>
		<path opacity="0.5" fill="orange" d="M164.08364779650316 -80.8531847254617 L108.6580219542991 -64.8531847254617 L108.6580219542991 -57.9249814951862 L164.08364779650316 -73.9249814951862 L164.08364779650316 -80.8531847254617"/>
		<path opacity="0.5" fill="orange" d="M160.08364779650316 -84.31728634059947 L164.08364779650316 -80.8531847254617 L108.6580219542991 -64.8531847254617 L104.6580219542991 -68.31728634059947 L160.08364779650316 -84.31728634059947"/>
		<path opacity="0.5" fill="orange" d="M160.08364779650316 -77.38908311032397 L164.08364779650316 -73.9249814951862 L108.6580219542991 -57.9249814951862 L104.6580219542991 -61.389083110323966 L160.08364779650316 -77.38908311032397"/>
		<text x="104.6580219542991" y="-64.85318472546172" font-family="calibri" font-size="4">8</text>
		<text x="106.6580219542991" y="-59.657032302755084" font-family="calibri" font-size="4">8</text>
		<text x="132.37083487540113" y="-76.31728634059947" font-family="calibri" font-size="4">64</text>

		<path opacity="0.75" fill="darkturquoise" d="M539.9797261999547 -156.45607040843177 L544.9797261999547 -152.1259433895096 L544.9797261999547 21.07913736737818 L539.9797261999547 16.749010348455982 L539.9797261999547 -156.45607040843177"/>
		<path opacity="0.75" fill="darkturquoise" d="M531.3194721621103 -153.95607040843177 L536.3194721621103 -149.6259433895096 L536.3194721621103 23.57913736737818 L531.3194721621103 19.249010348455982 L531.3194721621103 -153.95607040843177"/>
		<path opacity="0.75" fill="darkturquoise" d="M539.9797261999547 -156.45607040843177 L531.3194721621103 -153.95607040843177 L531.3194721621103 19.249010348455982 L539.9797261999547 16.749010348455982 L539.9797261999547 -156.45607040843177"/>
		<path opacity="0.75" fill="darkturquoise" d="M544.9797261999547 -152.1259433895096 L536.3194721621103 -149.6259433895096 L536.3194721621103 23.57913736737818 L544.9797261999547 21.07913736737818 L544.9797261999547 -152.1259433895096"/>
		<path opacity="0.75" fill="darkturquoise" d="M539.9797261999547 -156.45607040843177 L544.9797261999547 -152.1259433895096 L536.3194721621103 -149.6259433895096 L531.3194721621103 -153.95607040843177 L539.9797261999547 -156.45607040843177"/>
		<path opacity="0.75" fill="darkturquoise" d="M539.9797261999547 16.749010348455982 L544.9797261999547 21.07913736737818 L536.3194721621103 23.57913736737818 L531.3194721621103 19.249010348455982 L539.9797261999547 16.749010348455982"/>
		<text x="531.3194721621103" y="-67.3535300299879" font-family="calibri" font-size="4">200</text>
		<text x="533.8194721621103" y="21.41407385791708" font-family="calibri" font-size="4">10</text>
		<text x="535.6495991810325" y="-155.20607040843177" font-family="calibri" font-size="4">10</text>

<!-- Arrow -->
		<path opacity="0.5" stroke="black" d="M162.08364779650316 -79.12113391789283 L234.39453692895853 -51.49806695894642"/>
		<circle opacity="0.5" cx="234.39453692895853" cy="-51.49806695894642" r="1" fill="black" />
<!-- Arrow -->
		<path opacity="0.5" stroke="black" d="M490.51820197288833 -52.6884665205268 L533.8194721621103 -65.18846652052682"/>
		<circle opacity="0.5" cx="533.8194721621103" cy="-65.18846652052682" r="1" fill="black" />
		<path opacity="0.75" fill="darkturquoise" d="M288.06984427941995 -70.31789573113096 L290.56984427941995 -68.15283222166985 L290.56984427941995 -63.82270520274766 L288.06984427941995 -65.98776871220876 L288.06984427941995 -70.31789573113096"/>
		<path opacity="0.75" fill="darkturquoise" d="M232.6442184372159 -54.31789573113095 L235.1442184372159 -52.152832221669854 L235.1442184372159 -47.82270520274766 L232.6442184372159 -49.98776871220876 L232.6442184372159 -54.31789573113095"/>
		<path opacity="0.75" fill="darkturquoise" d="M288.06984427941995 -70.31789573113096 L232.6442184372159 -54.31789573113095 L232.6442184372159 -49.98776871220876 L288.06984427941995 -65.98776871220876 L288.06984427941995 -70.31789573113096"/>
		<path opacity="0.75" fill="darkturquoise" d="M290.56984427941995 -68.15283222166985 L235.1442184372159 -52.152832221669854 L235.1442184372159 -47.82270520274766 L290.56984427941995 -63.82270520274766 L290.56984427941995 -68.15283222166985"/>
		<path opacity="0.75" fill="darkturquoise" d="M288.06984427941995 -70.31789573113096 L290.56984427941995 -68.15283222166985 L235.1442184372159 -52.152832221669854 L232.6442184372159 -54.31789573113095 L288.06984427941995 -70.31789573113096"/>
		<path opacity="0.75" fill="darkturquoise" d="M288.06984427941995 -65.98776871220876 L290.56984427941995 -63.82270520274766 L235.1442184372159 -47.82270520274766 L232.6442184372159 -49.98776871220876 L288.06984427941995 -65.98776871220876"/>
		<text x="232.6442184372159" y="-52.152832221669854" font-family="calibri" font-size="4">5</text>
		<text x="233.8942184372159" y="-48.90523695747821" font-family="calibri" font-size="4">5</text>
		<text x="260.35703135831795" y="-62.31789573113096" font-family="calibri" font-size="4">64</text>

		<path opacity="0.5" fill="orange" d="M287.8201627711626 -72.69421938165306 L291.8201627711626 -69.23011776651529 L291.8201627711626 -62.30191453623979 L287.8201627711626 -65.76601615137753 L287.8201627711626 -72.69421938165306"/>
		<path opacity="0.5" fill="orange" d="M232.39453692895853 -56.69421938165305 L236.39453692895853 -53.2301177665153 L236.39453692895853 -46.30191453623979 L232.39453692895853 -49.766016151377535 L232.39453692895853 -56.69421938165305"/>
		<path opacity="0.5" fill="orange" d="M287.8201627711626 -72.69421938165306 L232.39453692895853 -56.69421938165305 L232.39453692895853 -49.766016151377535 L287.8201627711626 -65.76601615137753 L287.8201627711626 -72.69421938165306"/>
		<path opacity="0.5" fill="orange" d="M291.8201627711626 -69.23011776651529 L236.39453692895853 -53.2301177665153 L236.39453692895853 -46.30191453623979 L291.8201627711626 -62.30191453623979 L291.8201627711626 -69.23011776651529"/>
		<path opacity="0.5" fill="orange" d="M287.8201627711626 -72.69421938165306 L291.8201627711626 -69.23011776651529 L236.39453692895853 -53.2301177665153 L232.39453692895853 -56.69421938165305 L287.8201627711626 -72.69421938165306"/>
		<path opacity="0.5" fill="orange" d="M287.8201627711626 -65.76601615137753 L291.8201627711626 -62.30191453623979 L236.39453692895853 -46.30191453623979 L232.39453692895853 -49.766016151377535 L287.8201627711626 -65.76601615137753"/>
		<text x="232.39453692895853" y="-53.23011776651529" font-family="calibri" font-size="4">8</text>
		<text x="234.39453692895853" y="-48.03396534380866" font-family="calibri" font-size="4">8</text>
		<text x="260.1073498500606" y="-64.69421938165306" font-family="calibri" font-size="4">64</text>

		<path opacity="0.75" fill="pink" d="M62.13184037339522 -55.439785460444796 L64.63184037339522 -53.274721950983704 L106.37204291402136 -62.05653885331276 L62.13184037339522 -55.439785460444796"/>
		<path opacity="0.75" fill="pink" d="M62.13184037339522 -55.439785460444796 L62.13184037339522 -51.10965844152261 L106.37204291402136 -62.05653885331276 L62.13184037339522 -55.439785460444796"/>
		<path opacity="0.75" fill="pink" d="M64.63184037339522 -53.274721950983704 L64.63184037339522 -48.94459493206152 L106.37204291402136 -62.05653885331276 L64.63184037339522 -53.274721950983704"/>
		<path opacity="0.75" fill="pink" d="M62.13184037339522 -51.10965844152261 L64.63184037339522 -48.94459493206152 L106.37204291402136 -62.05653885331276 L62.13184037339522 -51.10965844152261"/>

		<path opacity="0.75" fill="darkturquoise" d="M488.01820197288833 -141.45607040843177 L493.01820197288833 -137.1259433895096 L493.01820197288833 36.07913736737818 L488.01820197288833 31.749010348455982 L488.01820197288833 -141.45607040843177"/>
		<path opacity="0.75" fill="darkturquoise" d="M479.35794793504397 -138.95607040843177 L484.35794793504397 -134.6259433895096 L484.35794793504397 38.57913736737818 L479.35794793504397 34.24901034845598 L479.35794793504397 -138.95607040843177"/>
		<path opacity="0.75" fill="darkturquoise" d="M488.01820197288833 -141.45607040843177 L479.35794793504397 -138.95607040843177 L479.35794793504397 34.24901034845598 L488.01820197288833 31.749010348455982 L488.01820197288833 -141.45607040843177"/>
		<path opacity="0.75" fill="darkturquoise" d="M493.01820197288833 -137.1259433895096 L484.35794793504397 -134.6259433895096 L484.35794793504397 38.57913736737818 L493.01820197288833 36.07913736737818 L493.01820197288833 -137.1259433895096"/>
		<path opacity="0.75" fill="darkturquoise" d="M488.01820197288833 -141.45607040843177 L493.01820197288833 -137.1259433895096 L484.35794793504397 -134.6259433895096 L479.35794793504397 -138.95607040843177 L488.01820197288833 -141.45607040843177"/>
		<path opacity="0.75" fill="darkturquoise" d="M488.01820197288833 31.749010348455982 L493.01820197288833 36.07913736737818 L484.35794793504397 38.57913736737818 L479.35794793504397 34.24901034845598 L488.01820197288833 31.749010348455982"/>
		<text x="479.35794793504397" y="-52.353530029987894" font-family="calibri" font-size="4">200</text>
		<text x="481.85794793504397" y="36.41407385791708" font-family="calibri" font-size="4">10</text>
		<text x="483.6880749539662" y="-140.20607040843177" font-family="calibri" font-size="4">10</text>

<!-- Arrow -->
		<path opacity="0.5" stroke="black" d="M-50.37976320958228 -50.11984522385711 L7.931125922873093 -34.621133917892834"/>
		<circle opacity="0.5" cx="7.931125922873093" cy="-34.621133917892834" r="1" fill="black" />
		<path opacity="0.75" fill="darkturquoise" d="M62.13184037339522 -55.439785460444796 L64.63184037339522 -53.274721950983704 L64.63184037339522 -48.94459493206152 L62.13184037339522 -51.10965844152261 L62.13184037339522 -55.439785460444796"/>
		<path opacity="0.75" fill="darkturquoise" d="M6.706214531191165 -39.439785460444796 L9.206214531191165 -37.274721950983704 L9.206214531191165 -32.94459493206152 L6.706214531191165 -35.10965844152261 L6.706214531191165 -39.439785460444796"/>
		<path opacity="0.75" fill="darkturquoise" d="M62.13184037339522 -55.439785460444796 L6.706214531191165 -39.439785460444796 L6.706214531191165 -35.10965844152261 L62.13184037339522 -51.10965844152261 L62.13184037339522 -55.439785460444796"/>
		<path opacity="0.75" fill="darkturquoise" d="M64.63184037339522 -53.274721950983704 L9.206214531191165 -37.274721950983704 L9.206214531191165 -32.94459493206152 L64.63184037339522 -48.94459493206152 L64.63184037339522 -53.274721950983704"/>
		<path opacity="0.75" fill="darkturquoise" d="M62.13184037339522 -55.439785460444796 L64.63184037339522 -53.274721950983704 L9.206214531191165 -37.274721950983704 L6.706214531191165 -39.439785460444796 L62.13184037339522 -55.439785460444796"/>
		<path opacity="0.75" fill="darkturquoise" d="M62.13184037339522 -51.10965844152261 L64.63184037339522 -48.94459493206152 L9.206214531191165 -32.94459493206152 L6.706214531191165 -35.10965844152261 L62.13184037339522 -51.10965844152261"/>
		<text x="6.706214531191165" y="-37.274721950983704" font-family="calibri" font-size="4">5</text>
		<text x="7.956214531191165" y="-34.027126686792066" font-family="calibri" font-size="4">5</text>
		<text x="34.41902745229319" y="-47.439785460444796" font-family="calibri" font-size="4">64</text>

		<path opacity="0.5" fill="orange" d="M59.35675176507715 -61.0134387633061 L67.35675176507715 -54.0852355330306 L67.35675176507715 -40.22882907247958 L59.35675176507715 -47.15703230275507 L59.35675176507715 -61.0134387633061"/>
		<path opacity="0.5" fill="orange" d="M3.9311259228730933 -45.0134387633061 L11.931125922873093 -38.0852355330306 L11.931125922873093 -24.228829072479577 L3.9311259228730933 -31.15703230275507 L3.9311259228730933 -45.0134387633061"/>
		<path opacity="0.5" fill="orange" d="M59.35675176507715 -61.0134387633061 L3.9311259228730933 -45.0134387633061 L3.9311259228730933 -31.15703230275507 L59.35675176507715 -47.15703230275507 L59.35675176507715 -61.0134387633061"/>
		<path opacity="0.5" fill="orange" d="M67.35675176507715 -54.0852355330306 L11.931125922873093 -38.0852355330306 L11.931125922873093 -24.228829072479577 L67.35675176507715 -40.22882907247958 L67.35675176507715 -54.0852355330306"/>
		<path opacity="0.5" fill="orange" d="M59.35675176507715 -61.0134387633061 L67.35675176507715 -54.0852355330306 L11.931125922873093 -38.0852355330306 L3.9311259228730933 -45.0134387633061 L59.35675176507715 -61.0134387633061"/>
		<path opacity="0.5" fill="orange" d="M59.35675176507715 -47.15703230275507 L67.35675176507715 -40.22882907247958 L11.931125922873093 -24.228829072479577 L3.9311259228730933 -31.15703230275507 L59.35675176507715 -47.15703230275507"/>
		<text x="3.9311259228730933" y="-38.085235533030584" font-family="calibri" font-size="4">16</text>
		<text x="7.931125922873093" y="-27.692930687617324" font-family="calibri" font-size="4">16</text>
		<text x="31.64393884397512" y="-53.0134387633061" font-family="calibri" font-size="4">64</text>

		<path opacity="0.5" fill="orange" d="M-54.37976320958228 -60.512150069270376 L-46.37976320958228 -53.583946838994876 L-46.37976320958228 -39.72754037844385 L-54.37976320958228 -46.65574360871935 L-54.37976320958228 -60.512150069270376"/>
		<path opacity="0.5" fill="orange" d="M-109.80538905178634 -44.512150069270376 L-101.80538905178634 -37.583946838994876 L-101.80538905178634 -23.727540378443848 L-109.80538905178634 -30.655743608719348 L-109.80538905178634 -44.512150069270376"/>
		<path opacity="0.5" fill="orange" d="M-54.37976320958228 -60.512150069270376 L-109.80538905178634 -44.512150069270376 L-109.80538905178634 -30.655743608719348 L-54.37976320958228 -46.65574360871935 L-54.37976320958228 -60.512150069270376"/>
		<path opacity="0.5" fill="orange" d="M-46.37976320958228 -53.583946838994876 L-101.80538905178634 -37.583946838994876 L-101.80538905178634 -23.727540378443848 L-46.37976320958228 -39.72754037844385 L-46.37976320958228 -53.583946838994876"/>
		<path opacity="0.5" fill="orange" d="M-54.37976320958228 -60.512150069270376 L-46.37976320958228 -53.583946838994876 L-101.80538905178634 -37.583946838994876 L-109.80538905178634 -44.512150069270376 L-54.37976320958228 -60.512150069270376"/>
		<path opacity="0.5" fill="orange" d="M-54.37976320958228 -46.65574360871935 L-46.37976320958228 -39.72754037844385 L-101.80538905178634 -23.727540378443848 L-109.80538905178634 -30.655743608719348 L-54.37976320958228 -46.65574360871935"/>
		<text x="-109.80538905178634" y="-37.58394683899486" font-family="calibri" font-size="4">16</text>
		<text x="-105.80538905178634" y="-27.191641993581598" font-family="calibri" font-size="4">16</text>
		<text x="-82.09257613068431" y="-52.512150069270376" font-family="calibri" font-size="4">64</text>

<!-- Arrow -->
		<path opacity="0.5" stroke="black" d="M5.620236790417721 -1.6224226119285525 L234.39453692895853 -51.49806695894642"/>
		<circle opacity="0.5" cx="234.39453692895853" cy="-51.49806695894642" r="1" fill="black" />
<!-- Arrow -->
		<path opacity="0.5" stroke="black" d="M5.620236790417721 -1.6224226119285525 L481.85794793504397 -50.1884665205268"/>
		<circle opacity="0.5" cx="481.85794793504397" cy="-50.1884665205268" r="1" fill="black" />
		<path opacity="0.75" fill="pink" d="M-150.89230475617694 -28.1551228875595 L-148.39230475617694 -25.990059378098408 L-104.66190077108865 -28.478587613917085 L-150.89230475617694 -28.1551228875595"/>
		<path opacity="0.75" fill="pink" d="M-150.89230475617694 -28.1551228875595 L-150.89230475617694 -23.824995868637316 L-104.66190077108865 -28.478587613917085 L-150.89230475617694 -28.1551228875595"/>
		<path opacity="0.75" fill="pink" d="M-148.39230475617694 -25.990059378098408 L-148.39230475617694 -21.659932359176224 L-104.66190077108865 -28.478587613917085 L-148.39230475617694 -25.990059378098408"/>
		<path opacity="0.75" fill="pink" d="M-150.89230475617694 -23.824995868637316 L-148.39230475617694 -21.659932359176224 L-104.66190077108865 -28.478587613917085 L-150.89230475617694 -23.824995868637316"/>

<!-- Arrow -->
		<path opacity="0.5" stroke="black" d="M5.620236790417721 -1.6224226119285525 L7.931125922873093 -34.621133917892834"/>
		<circle opacity="0.5" cx="7.931125922873093" cy="-34.621133917892834" r="1" fill="black" />
		<path opacity="0.75" fill="darkturquoise" d="M-150.89230475617694 -28.1551228875595 L-148.39230475617694 -25.990059378098408 L-148.39230475617694 -21.659932359176224 L-150.89230475617694 -23.824995868637316 L-150.89230475617694 -28.1551228875595"/>
		<path opacity="0.75" fill="darkturquoise" d="M-178.60511767727905 -20.1551228875595 L-176.10511767727905 -17.990059378098408 L-176.10511767727905 -13.659932359176224 L-178.60511767727905 -15.824995868637316 L-178.60511767727905 -20.1551228875595"/>
		<path opacity="0.75" fill="darkturquoise" d="M-150.89230475617694 -28.1551228875595 L-178.60511767727905 -20.1551228875595 L-178.60511767727905 -15.824995868637316 L-150.89230475617694 -23.824995868637316 L-150.89230475617694 -28.1551228875595"/>
		<path opacity="0.75" fill="darkturquoise" d="M-148.39230475617694 -25.990059378098408 L-176.10511767727905 -17.990059378098408 L-176.10511767727905 -13.659932359176224 L-148.39230475617694 -21.659932359176224 L-148.39230475617694 -25.990059378098408"/>
		<path opacity="0.75" fill="darkturquoise" d="M-150.89230475617694 -28.1551228875595 L-148.39230475617694 -25.990059378098408 L-176.10511767727905 -17.990059378098408 L-178.60511767727905 -20.1551228875595 L-150.89230475617694 -28.1551228875595"/>
		<path opacity="0.75" fill="darkturquoise" d="M-150.89230475617694 -23.824995868637316 L-148.39230475617694 -21.659932359176224 L-176.10511767727905 -13.659932359176224 L-178.60511767727905 -15.824995868637316 L-150.89230475617694 -23.824995868637316"/>
		<text x="-178.60511767727905" y="-17.990059378098408" font-family="calibri" font-size="4">5</text>
		<text x="-177.35511767727905" y="-14.74246411390677" font-family="calibri" font-size="4">5</text>
		<text x="-164.748711216728" y="-24.1551228875595" font-family="calibri" font-size="4">32</text>

		<path opacity="0.5" fill="orange" d="M-157.1066592410083 -42.404454914683626 L-141.1066592410083 -28.548048454132612 L-141.1066592410083 -0.8352355330305841 L-157.1066592410083 -14.691641993581598 L-157.1066592410083 -42.404454914683626"/>
		<path opacity="0.5" fill="orange" d="M-184.8194721621103 -34.404454914683626 L-168.8194721621103 -20.548048454132612 L-168.8194721621103 7.164764466969416 L-184.8194721621103 -6.691641993581598 L-184.8194721621103 -34.404454914683626"/>
		<path opacity="0.5" fill="orange" d="M-157.1066592410083 -42.404454914683626 L-184.8194721621103 -34.404454914683626 L-184.8194721621103 -6.691641993581598 L-157.1066592410083 -14.691641993581598 L-157.1066592410083 -42.404454914683626"/>
		<path opacity="0.5" fill="orange" d="M-141.1066592410083 -28.548048454132612 L-168.8194721621103 -20.548048454132612 L-168.8194721621103 7.164764466969416 L-141.1066592410083 -0.8352355330305841 L-141.1066592410083 -28.548048454132612"/>
		<path opacity="0.5" fill="orange" d="M-157.1066592410083 -42.404454914683626 L-141.1066592410083 -28.548048454132612 L-168.8194721621103 -20.548048454132612 L-184.8194721621103 -34.404454914683626 L-157.1066592410083 -42.404454914683626"/>
		<path opacity="0.5" fill="orange" d="M-157.1066592410083 -14.691641993581598 L-141.1066592410083 -0.8352355330305841 L-168.8194721621103 7.164764466969416 L-184.8194721621103 -6.691641993581598 L-157.1066592410083 -14.691641993581598"/>
		<text x="-184.8194721621103" y="-20.548048454132612" font-family="calibri" font-size="4">32</text>
		<text x="-176.8194721621103" y="0.23656123669390894" font-family="calibri" font-size="4">32</text>
		<text x="-170.9630657015593" y="-38.404454914683626" font-family="calibri" font-size="4">32</text>

<!-- Arrow -->
		<path opacity="0.5" stroke="black" d="M160.34713282184376 18.375 L234.39453692895853 -51.49806695894642"/>
		<circle opacity="0.5" cx="234.39453692895853" cy="-51.49806695894642" r="1" fill="black" />
<!-- Arrow -->
		<path opacity="0.5" stroke="black" d="M428.8105438279292 37.871133917892834 L481.85794793504397 -50.1884665205268"/>
		<circle opacity="0.5" cx="481.85794793504397" cy="-50.1884665205268" r="1" fill="black" />
		<path opacity="0.75" fill="pink" d="M-224.0230548257128 -16.71687196595913 L-219.0230548257128 -12.386744947036945 L-184.49345543730306 -25.502100827601225 L-224.0230548257128 -16.71687196595913"/>
		<path opacity="0.75" fill="pink" d="M-224.0230548257128 -16.71687196595913 L-224.0230548257128 -8.056617928114747 L-184.49345543730306 -25.502100827601225 L-224.0230548257128 -16.71687196595913"/>
		<path opacity="0.75" fill="pink" d="M-219.0230548257128 -12.386744947036945 L-219.0230548257128 -3.726490909192563 L-184.49345543730306 -25.502100827601225 L-219.0230548257128 -12.386744947036945"/>
		<path opacity="0.75" fill="pink" d="M-224.0230548257128 -8.056617928114747 L-219.0230548257128 -3.726490909192563 L-184.49345543730306 -25.502100827601225 L-224.0230548257128 -8.056617928114747"/>

		<path opacity="0.75" fill="darkturquoise" d="M-224.0230548257128 -16.71687196595913 L-219.0230548257128 -12.386744947036945 L-219.0230548257128 -3.726490909192563 L-224.0230548257128 -8.056617928114747 L-224.0230548257128 -16.71687196595913"/>
		<path opacity="0.75" fill="darkturquoise" d="M-241.34356290140158 -11.716871965959129 L-236.34356290140158 -7.386744947036945 L-236.34356290140158 1.273509090807437 L-241.34356290140158 -3.056617928114747 L-241.34356290140158 -11.716871965959129"/>
		<path opacity="0.75" fill="darkturquoise" d="M-224.0230548257128 -16.71687196595913 L-241.34356290140158 -11.716871965959129 L-241.34356290140158 -3.056617928114747 L-224.0230548257128 -8.056617928114747 L-224.0230548257128 -16.71687196595913"/>
		<path opacity="0.75" fill="darkturquoise" d="M-219.0230548257128 -12.386744947036945 L-236.34356290140158 -7.386744947036945 L-236.34356290140158 1.273509090807437 L-219.0230548257128 -3.726490909192563 L-219.0230548257128 -12.386744947036945"/>
		<path opacity="0.75" fill="darkturquoise" d="M-224.0230548257128 -16.71687196595913 L-219.0230548257128 -12.386744947036945 L-236.34356290140158 -7.386744947036945 L-241.34356290140158 -11.716871965959129 L-224.0230548257128 -16.71687196595913"/>
		<path opacity="0.75" fill="darkturquoise" d="M-224.0230548257128 -8.056617928114747 L-219.0230548257128 -3.726490909192563 L-236.34356290140158 1.273509090807437 L-241.34356290140158 -3.056617928114747 L-224.0230548257128 -8.056617928114747"/>
		<text x="-241.34356290140158" y="-7.386744947036938" font-family="calibri" font-size="4">10</text>
		<text x="-238.84356290140158" y="-0.891554418653655" font-family="calibri" font-size="4">10</text>
		<text x="-232.6833088635572" y="-14.216871965959129" font-family="calibri" font-size="4">20</text>

		<path opacity="0.5" fill="orange" d="M-228.12074235133218 -21.904454914683626 L-212.12074235133218 -8.048048454132612 L-212.12074235133218 19.664764466969416 L-228.12074235133218 5.808358006418402 L-228.12074235133218 -21.904454914683626"/>
		<path opacity="0.5" fill="orange" d="M-245.44125042702103 -16.904454914683626 L-229.44125042702103 -3.048048454132612 L-229.44125042702103 24.664764466969416 L-245.44125042702103 10.808358006418402 L-245.44125042702103 -16.904454914683626"/>
		<path opacity="0.5" fill="orange" d="M-228.12074235133218 -21.904454914683626 L-245.44125042702103 -16.904454914683626 L-245.44125042702103 10.808358006418402 L-228.12074235133218 5.808358006418402 L-228.12074235133218 -21.904454914683626"/>
		<path opacity="0.5" fill="orange" d="M-212.12074235133218 -8.048048454132612 L-229.44125042702103 -3.048048454132612 L-229.44125042702103 24.664764466969416 L-212.12074235133218 19.664764466969416 L-212.12074235133218 -8.048048454132612"/>
		<path opacity="0.5" fill="orange" d="M-228.12074235133218 -21.904454914683626 L-212.12074235133218 -8.048048454132612 L-229.44125042702103 -3.048048454132612 L-245.44125042702103 -16.904454914683626 L-228.12074235133218 -21.904454914683626"/>
		<path opacity="0.5" fill="orange" d="M-228.12074235133218 5.808358006418402 L-212.12074235133218 19.664764466969416 L-229.44125042702103 24.664764466969416 L-245.44125042702103 10.808358006418402 L-228.12074235133218 5.808358006418402"/>
		<text x="-245.44125042702103" y="-3.048048454132612" font-family="calibri" font-size="4">32</text>
		<text x="-237.44125042702103" y="17.73656123669391" font-family="calibri" font-size="4">32</text>
		<text x="-236.7809963891766" y="-19.404454914683626" font-family="calibri" font-size="4">20</text>

		<path opacity="0.5" fill="orange" d="M1.6202367904177208 -12.014727457341813 L9.62023679041772 -5.086524227066306 L9.62023679041772 8.769882233484708 L1.6202367904177208 1.841679003209201 L1.6202367904177208 -12.014727457341813"/>
		<path opacity="0.5" fill="orange" d="M-53.805389051786335 3.985272542658187 L-45.805389051786335 10.913475772933694 L-45.805389051786335 24.769882233484708 L-53.805389051786335 17.8416790032092 L-53.805389051786335 3.985272542658187"/>
		<path opacity="0.5" fill="orange" d="M1.6202367904177208 -12.014727457341813 L-53.805389051786335 3.985272542658187 L-53.805389051786335 17.8416790032092 L1.6202367904177208 1.841679003209201 L1.6202367904177208 -12.014727457341813"/>
		<path opacity="0.5" fill="orange" d="M9.62023679041772 -5.086524227066306 L-45.805389051786335 10.913475772933694 L-45.805389051786335 24.769882233484708 L9.62023679041772 8.769882233484708 L9.62023679041772 -5.086524227066306"/>
		<path opacity="0.5" fill="orange" d="M1.6202367904177208 -12.014727457341813 L9.62023679041772 -5.086524227066306 L-45.805389051786335 10.913475772933694 L-53.805389051786335 3.985272542658187 L1.6202367904177208 -12.014727457341813"/>
		<path opacity="0.5" fill="orange" d="M1.6202367904177208 1.841679003209201 L9.62023679041772 8.769882233484708 L-45.805389051786335 24.769882233484708 L-53.805389051786335 17.8416790032092 L1.6202367904177208 1.841679003209201"/>
		<text x="-53.805389051786335" y="10.913475772933694" font-family="calibri" font-size="4">16</text>
		<text x="-49.805389051786335" y="21.305780618346954" font-family="calibri" font-size="4">16</text>
		<text x="-26.092576130684307" y="-4.014727457341813" font-family="calibri" font-size="4">64</text>

		<path opacity="0.75" fill="pink" d="M-89.63637459057156 33.350700729153665 L-87.13637459057156 35.515764238614764 L-50.14288505215404 8.50531739447289 L-89.63637459057156 33.350700729153665"/>
		<path opacity="0.75" fill="pink" d="M-89.63637459057156 33.350700729153665 L-89.63637459057156 37.680827748075856 L-50.14288505215404 8.50531739447289 L-89.63637459057156 33.350700729153665"/>
		<path opacity="0.75" fill="pink" d="M-87.13637459057156 35.515764238614764 L-87.13637459057156 39.84589125753696 L-50.14288505215404 8.50531739447289 L-87.13637459057156 35.515764238614764"/>
		<path opacity="0.75" fill="pink" d="M-89.63637459057156 37.680827748075856 L-87.13637459057156 39.84589125753696 L-50.14288505215404 8.50531739447289 L-89.63637459057156 37.680827748075856"/>

		<path opacity="0.5" fill="orange" d="M158.34713282184376 13.178847577293368 L162.34713282184376 16.64294919243112 L162.34713282184376 23.571152422706632 L158.34713282184376 20.10705080756888 L158.34713282184376 13.178847577293368"/>
		<path opacity="0.5" fill="orange" d="M102.92150697963969 29.178847577293368 L106.92150697963969 32.642949192431125 L106.92150697963969 39.57115242270663 L102.92150697963969 36.107050807568875 L102.92150697963969 29.178847577293368"/>
		<path opacity="0.5" fill="orange" d="M158.34713282184376 13.178847577293368 L102.92150697963969 29.178847577293368 L102.92150697963969 36.107050807568875 L158.34713282184376 20.10705080756888 L158.34713282184376 13.178847577293368"/>
		<path opacity="0.5" fill="orange" d="M162.34713282184376 16.64294919243112 L106.92150697963969 32.642949192431125 L106.92150697963969 39.57115242270663 L162.34713282184376 23.571152422706632 L162.34713282184376 16.64294919243112"/>
		<path opacity="0.5" fill="orange" d="M158.34713282184376 13.178847577293368 L162.34713282184376 16.64294919243112 L106.92150697963969 32.642949192431125 L102.92150697963969 29.178847577293368 L158.34713282184376 13.178847577293368"/>
		<path opacity="0.5" fill="orange" d="M158.34713282184376 20.10705080756888 L162.34713282184376 23.571152422706632 L106.92150697963969 39.57115242270663 L102.92150697963969 36.107050807568875 L158.34713282184376 20.10705080756888"/>
		<text x="102.92150697963969" y="32.64294919243112" font-family="calibri" font-size="4">8</text>
		<text x="104.92150697963969" y="37.83910161513775" font-family="calibri" font-size="4">8</text>
		<text x="130.63431990074173" y="21.178847577293368" font-family="calibri" font-size="4">64</text>

		<path opacity="0.75" fill="darkturquoise" d="M-89.63637459057156 33.350700729153665 L-87.13637459057156 35.515764238614764 L-87.13637459057156 39.84589125753696 L-89.63637459057156 37.680827748075856 L-89.63637459057156 33.350700729153665"/>
		<path opacity="0.75" fill="darkturquoise" d="M-117.34918751167356 41.350700729153665 L-114.84918751167356 43.515764238614764 L-114.84918751167356 47.84589125753696 L-117.34918751167356 45.680827748075856 L-117.34918751167356 41.350700729153665"/>
		<path opacity="0.75" fill="darkturquoise" d="M-89.63637459057156 33.350700729153665 L-117.34918751167356 41.350700729153665 L-117.34918751167356 45.680827748075856 L-89.63637459057156 37.680827748075856 L-89.63637459057156 33.350700729153665"/>
		<path opacity="0.75" fill="darkturquoise" d="M-87.13637459057156 35.515764238614764 L-114.84918751167356 43.515764238614764 L-114.84918751167356 47.84589125753696 L-87.13637459057156 39.84589125753696 L-87.13637459057156 35.515764238614764"/>
		<path opacity="0.75" fill="darkturquoise" d="M-89.63637459057156 33.350700729153665 L-87.13637459057156 35.515764238614764 L-114.84918751167356 43.515764238614764 L-117.34918751167356 41.350700729153665 L-89.63637459057156 33.350700729153665"/>
		<path opacity="0.75" fill="darkturquoise" d="M-89.63637459057156 37.680827748075856 L-87.13637459057156 39.84589125753696 L-114.84918751167356 47.84589125753696 L-117.34918751167356 45.680827748075856 L-89.63637459057156 37.680827748075856"/>
		<text x="-117.34918751167356" y="43.515764238614764" font-family="calibri" font-size="4">5</text>
		<text x="-116.09918751167356" y="46.76335950280641" font-family="calibri" font-size="4">5</text>
		<text x="-103.49278105112256" y="37.350700729153665" font-family="calibri" font-size="4">32</text>

		<path opacity="0.5" fill="orange" d="M-101.10665924100823 6.092967697244916 L-85.10665924100823 19.94937415779593 L-85.10665924100823 47.66218707889797 L-101.10665924100823 33.80578061834696 L-101.10665924100823 6.092967697244916"/>
		<path opacity="0.5" fill="orange" d="M-128.8194721621103 14.092967697244916 L-112.81947216211029 27.94937415779593 L-112.81947216211029 55.66218707889797 L-128.8194721621103 41.80578061834696 L-128.8194721621103 14.092967697244916"/>
		<path opacity="0.5" fill="orange" d="M-101.10665924100823 6.092967697244916 L-128.8194721621103 14.092967697244916 L-128.8194721621103 41.80578061834696 L-101.10665924100823 33.80578061834696 L-101.10665924100823 6.092967697244916"/>
		<path opacity="0.5" fill="orange" d="M-85.10665924100823 19.94937415779593 L-112.81947216211029 27.94937415779593 L-112.81947216211029 55.66218707889797 L-85.10665924100823 47.66218707889797 L-85.10665924100823 19.94937415779593"/>
		<path opacity="0.5" fill="orange" d="M-101.10665924100823 6.092967697244916 L-85.10665924100823 19.94937415779593 L-112.81947216211029 27.94937415779593 L-128.8194721621103 14.092967697244916 L-101.10665924100823 6.092967697244916"/>
		<path opacity="0.5" fill="orange" d="M-101.10665924100823 33.80578061834696 L-85.10665924100823 47.66218707889797 L-112.81947216211029 55.66218707889797 L-128.8194721621103 41.80578061834696 L-101.10665924100823 33.80578061834696"/>
		<text x="-128.8194721621103" y="27.949374157795937" font-family="calibri" font-size="4">32</text>
		<text x="-120.81947216211029" y="48.733983848622465" font-family="calibri" font-size="4">32</text>
		<text x="-114.96306570155926" y="10.092967697244916" font-family="calibri" font-size="4">32</text>

		<path opacity="0.75" fill="pink" d="M57.97990384353335 41.95768321875105 L60.47990384353335 44.12274672821215 L105.0369783618204 34.177861411751664 L57.97990384353335 41.95768321875105"/>
		<path opacity="0.75" fill="pink" d="M57.97990384353335 41.95768321875105 L57.97990384353335 46.28781023767325 L105.0369783618204 34.177861411751664 L57.97990384353335 41.95768321875105"/>
		<path opacity="0.75" fill="pink" d="M60.47990384353335 44.12274672821215 L60.47990384353335 48.45287374713434 L105.0369783618204 34.177861411751664 L60.47990384353335 44.12274672821215"/>
		<path opacity="0.75" fill="pink" d="M57.97990384353335 46.28781023767325 L60.47990384353335 48.45287374713434 L105.0369783618204 34.177861411751664 L57.97990384353335 46.28781023767325"/>

		<path opacity="0.75" fill="pink" d="M-168.56569436664495 33.235378733684314 L-163.56569436664495 37.565505752606505 L-118.10711038197803 49.720493593436125 L-168.56569436664495 33.235378733684314"/>
		<path opacity="0.75" fill="pink" d="M-168.56569436664495 33.235378733684314 L-168.56569436664495 41.8956327715287 L-118.10711038197803 49.720493593436125 L-168.56569436664495 33.235378733684314"/>
		<path opacity="0.75" fill="pink" d="M-163.56569436664495 37.565505752606505 L-163.56569436664495 46.225759790450894 L-118.10711038197803 49.720493593436125 L-163.56569436664495 37.565505752606505"/>
		<path opacity="0.75" fill="pink" d="M-168.56569436664495 41.8956327715287 L-163.56569436664495 46.225759790450894 L-118.10711038197803 49.720493593436125 L-168.56569436664495 41.8956327715287"/>

		<path opacity="0.5" fill="orange" d="M426.8105438279292 32.6749814951862 L430.8105438279292 36.139083110323966 L430.8105438279292 43.067286340599466 L426.8105438279292 39.6031847254617 L426.8105438279292 32.6749814951862"/>
		<path opacity="0.5" fill="orange" d="M371.3849179857251 48.6749814951862 L375.3849179857251 52.139083110323966 L375.3849179857251 59.067286340599466 L371.3849179857251 55.6031847254617 L371.3849179857251 48.6749814951862"/>
		<path opacity="0.5" fill="orange" d="M426.8105438279292 32.6749814951862 L371.3849179857251 48.6749814951862 L371.3849179857251 55.6031847254617 L426.8105438279292 39.6031847254617 L426.8105438279292 32.6749814951862"/>
		<path opacity="0.5" fill="orange" d="M430.8105438279292 36.139083110323966 L375.3849179857251 52.139083110323966 L375.3849179857251 59.067286340599466 L430.8105438279292 43.067286340599466 L430.8105438279292 36.139083110323966"/>
		<path opacity="0.5" fill="orange" d="M426.8105438279292 32.6749814951862 L430.8105438279292 36.139083110323966 L375.3849179857251 52.139083110323966 L371.3849179857251 48.6749814951862 L426.8105438279292 32.6749814951862"/>
		<path opacity="0.5" fill="orange" d="M426.8105438279292 39.6031847254617 L430.8105438279292 43.067286340599466 L375.3849179857251 59.067286340599466 L371.3849179857251 55.6031847254617 L426.8105438279292 39.6031847254617"/>
		<text x="371.3849179857251" y="52.13908311032395" font-family="calibri" font-size="4">8</text>
		<text x="373.3849179857251" y="57.335235533030584" font-family="calibri" font-size="4">8</text>
		<text x="399.09773090682717" y="40.6749814951862" font-family="calibri" font-size="4">64</text>

		<path opacity="0.75" fill="darkturquoise" d="M-168.56569436664495 33.235378733684314 L-163.56569436664495 37.565505752606505 L-163.56569436664495 46.225759790450894 L-168.56569436664495 41.8956327715287 L-168.56569436664495 33.235378733684314"/>
		<path opacity="0.75" fill="darkturquoise" d="M-185.88620244233374 38.235378733684314 L-180.88620244233374 42.565505752606505 L-180.88620244233374 51.225759790450894 L-185.88620244233374 46.8956327715287 L-185.88620244233374 38.235378733684314"/>
		<path opacity="0.75" fill="darkturquoise" d="M-168.56569436664495 33.235378733684314 L-185.88620244233374 38.235378733684314 L-185.88620244233374 46.8956327715287 L-168.56569436664495 41.8956327715287 L-168.56569436664495 33.235378733684314"/>
		<path opacity="0.75" fill="darkturquoise" d="M-163.56569436664495 37.565505752606505 L-180.88620244233374 42.565505752606505 L-180.88620244233374 51.225759790450894 L-163.56569436664495 46.225759790450894 L-163.56569436664495 37.565505752606505"/>
		<path opacity="0.75" fill="darkturquoise" d="M-168.56569436664495 33.235378733684314 L-163.56569436664495 37.565505752606505 L-180.88620244233374 42.565505752606505 L-185.88620244233374 38.235378733684314 L-168.56569436664495 33.235378733684314"/>
		<path opacity="0.75" fill="darkturquoise" d="M-168.56569436664495 41.8956327715287 L-163.56569436664495 46.225759790450894 L-180.88620244233374 51.225759790450894 L-185.88620244233374 46.8956327715287 L-168.56569436664495 41.8956327715287"/>
		<text x="-185.88620244233374" y="42.56550575260651" font-family="calibri" font-size="4">10</text>
		<text x="-183.38620244233374" y="49.0606962809898" font-family="calibri" font-size="4">10</text>
		<text x="-177.22594840448934" y="35.735378733684314" font-family="calibri" font-size="4">20</text>

		<path opacity="0.5" fill="orange" d="M-172.12074235133218 26.592967697244916 L-156.12074235133218 40.44937415779593 L-156.12074235133218 68.16218707889797 L-172.12074235133218 54.30578061834696 L-172.12074235133218 26.592967697244916"/>
		<path opacity="0.5" fill="orange" d="M-189.44125042702098 31.592967697244916 L-173.44125042702098 45.44937415779593 L-173.44125042702098 73.16218707889797 L-189.44125042702098 59.30578061834696 L-189.44125042702098 31.592967697244916"/>
		<path opacity="0.5" fill="orange" d="M-172.12074235133218 26.592967697244916 L-189.44125042702098 31.592967697244916 L-189.44125042702098 59.30578061834696 L-172.12074235133218 54.30578061834696 L-172.12074235133218 26.592967697244916"/>
		<path opacity="0.5" fill="orange" d="M-156.12074235133218 40.44937415779593 L-173.44125042702098 45.44937415779593 L-173.44125042702098 73.16218707889797 L-156.12074235133218 68.16218707889797 L-156.12074235133218 40.44937415779593"/>
		<path opacity="0.5" fill="orange" d="M-172.12074235133218 26.592967697244916 L-156.12074235133218 40.44937415779593 L-173.44125042702098 45.44937415779593 L-189.44125042702098 31.592967697244916 L-172.12074235133218 26.592967697244916"/>
		<path opacity="0.5" fill="orange" d="M-172.12074235133218 54.30578061834696 L-156.12074235133218 68.16218707889797 L-173.44125042702098 73.16218707889797 L-189.44125042702098 59.30578061834696 L-172.12074235133218 54.30578061834696"/>
		<text x="-189.44125042702098" y="45.44937415779594" font-family="calibri" font-size="4">32</text>
		<text x="-181.44125042702098" y="66.23398384862247" font-family="calibri" font-size="4">32</text>
		<text x="-180.78099638917658" y="29.092967697244916" font-family="calibri" font-size="4">20</text>

		<path opacity="0.75" fill="darkturquoise" d="M57.97990384353335 41.95768321875105 L60.47990384353335 44.12274672821215 L60.47990384353335 48.45287374713434 L57.97990384353335 46.28781023767325 L57.97990384353335 41.95768321875105"/>
		<path opacity="0.75" fill="darkturquoise" d="M2.554278001329294 57.95768321875105 L5.054278001329294 60.12274672821215 L5.054278001329294 64.45287374713435 L2.554278001329294 62.28781023767325 L2.554278001329294 57.95768321875105"/>
		<path opacity="0.75" fill="darkturquoise" d="M57.97990384353335 41.95768321875105 L2.554278001329294 57.95768321875105 L2.554278001329294 62.28781023767325 L57.97990384353335 46.28781023767325 L57.97990384353335 41.95768321875105"/>
		<path opacity="0.75" fill="darkturquoise" d="M60.47990384353335 44.12274672821215 L5.054278001329294 60.12274672821215 L5.054278001329294 64.45287374713435 L60.47990384353335 48.45287374713434 L60.47990384353335 44.12274672821215"/>
		<path opacity="0.75" fill="darkturquoise" d="M57.97990384353335 41.95768321875105 L60.47990384353335 44.12274672821215 L5.054278001329294 60.12274672821215 L2.554278001329294 57.95768321875105 L57.97990384353335 41.95768321875105"/>
		<path opacity="0.75" fill="darkturquoise" d="M57.97990384353335 46.28781023767325 L60.47990384353335 48.45287374713434 L5.054278001329294 64.45287374713435 L2.554278001329294 62.28781023767325 L57.97990384353335 46.28781023767325"/>
		<text x="2.554278001329294" y="60.12274672821215" font-family="calibri" font-size="4">5</text>
		<text x="3.804278001329294" y="63.370341992403795" font-family="calibri" font-size="4">5</text>
		<text x="30.267090922431322" y="49.95768321875105" font-family="calibri" font-size="4">64</text>

		<path opacity="0.5" fill="orange" d="M57.62023679041775 36.482695154586736 L65.62023679041775 43.41089838486224 L65.62023679041775 57.267304845413264 L57.62023679041775 50.33910161513776 L57.62023679041775 36.482695154586736"/>
		<path opacity="0.5" fill="orange" d="M2.1946109482136933 52.482695154586736 L10.194610948213693 59.41089838486224 L10.194610948213693 73.26730484541326 L2.1946109482136933 66.33910161513775 L2.1946109482136933 52.482695154586736"/>
		<path opacity="0.5" fill="orange" d="M57.62023679041775 36.482695154586736 L2.1946109482136933 52.482695154586736 L2.1946109482136933 66.33910161513775 L57.62023679041775 50.33910161513776 L57.62023679041775 36.482695154586736"/>
		<path opacity="0.5" fill="orange" d="M65.62023679041775 43.41089838486224 L10.194610948213693 59.41089838486224 L10.194610948213693 73.26730484541326 L65.62023679041775 57.267304845413264 L65.62023679041775 43.41089838486224"/>
		<path opacity="0.5" fill="orange" d="M57.62023679041775 36.482695154586736 L65.62023679041775 43.41089838486224 L10.194610948213693 59.41089838486224 L2.1946109482136933 52.482695154586736 L57.62023679041775 36.482695154586736"/>
		<path opacity="0.5" fill="orange" d="M57.62023679041775 50.33910161513776 L65.62023679041775 57.267304845413264 L10.194610948213693 73.26730484541326 L2.1946109482136933 66.33910161513775 L57.62023679041775 50.33910161513776"/>
		<text x="2.1946109482136933" y="59.41089838486224" font-family="calibri" font-size="4">16</text>
		<text x="6.194610948213693" y="69.8032032302755" font-family="calibri" font-size="4">16</text>
		<text x="29.90742386931572" y="44.482695154586736" font-family="calibri" font-size="4">64</text>

		<path opacity="0.75" fill="pink" d="M329.5032161503094 63.5160706808762 L332.0032161503094 65.68113419033729 L372.1538831762225 56.119948419009475 L329.5032161503094 63.5160706808762"/>
		<path opacity="0.75" fill="pink" d="M329.5032161503094 63.5160706808762 L329.5032161503094 67.8461976997984 L372.1538831762225 56.119948419009475 L329.5032161503094 63.5160706808762"/>
		<path opacity="0.75" fill="pink" d="M332.0032161503094 65.68113419033729 L332.0032161503094 70.01126120925949 L372.1538831762225 56.119948419009475 L332.0032161503094 65.68113419033729"/>
		<path opacity="0.75" fill="pink" d="M329.5032161503094 67.8461976997984 L332.0032161503094 70.01126120925949 L372.1538831762225 56.119948419009475 L329.5032161503094 67.8461976997984"/>

		<path opacity="0.75" fill="pink" d="M-35.190659873299126 82.31810138040453 L-32.690659873299126 84.48316488986563 L7.597675044085037 63.0864714121085 L-35.190659873299126 82.31810138040453"/>
		<path opacity="0.75" fill="pink" d="M-35.190659873299126 82.31810138040453 L-35.190659873299126 86.64822839932673 L7.597675044085037 63.0864714121085 L-35.190659873299126 82.31810138040453"/>
		<path opacity="0.75" fill="pink" d="M-32.690659873299126 84.48316488986563 L-32.690659873299126 88.81329190878782 L7.597675044085037 63.0864714121085 L-32.690659873299126 84.48316488986563"/>
		<path opacity="0.75" fill="pink" d="M-35.190659873299126 86.64822839932673 L-32.690659873299126 88.81329190878782 L7.597675044085037 63.0864714121085 L-35.190659873299126 86.64822839932673"/>

<!-- Arrow -->
		<path opacity="0.5" stroke="black" d="M216.3471328218438 66.87242261192856 L274.6580219542991 82.37113391789283"/>
		<circle opacity="0.5" cx="274.6580219542991" cy="82.37113391789283" r="1" fill="black" />
		<path opacity="0.75" fill="darkturquoise" d="M329.5032161503094 63.5160706808762 L332.0032161503094 65.68113419033729 L332.0032161503094 70.01126120925949 L329.5032161503094 67.8461976997984 L329.5032161503094 63.5160706808762"/>
		<path opacity="0.75" fill="darkturquoise" d="M274.0775903081053 79.5160706808762 L276.5775903081053 81.68113419033729 L276.5775903081053 86.01126120925949 L274.0775903081053 83.8461976997984 L274.0775903081053 79.5160706808762"/>
		<path opacity="0.75" fill="darkturquoise" d="M329.5032161503094 63.5160706808762 L274.0775903081053 79.5160706808762 L274.0775903081053 83.8461976997984 L329.5032161503094 67.8461976997984 L329.5032161503094 63.5160706808762"/>
		<path opacity="0.75" fill="darkturquoise" d="M332.0032161503094 65.68113419033729 L276.5775903081053 81.68113419033729 L276.5775903081053 86.01126120925949 L332.0032161503094 70.01126120925949 L332.0032161503094 65.68113419033729"/>
		<path opacity="0.75" fill="darkturquoise" d="M329.5032161503094 63.5160706808762 L332.0032161503094 65.68113419033729 L276.5775903081053 81.68113419033729 L274.0775903081053 79.5160706808762 L329.5032161503094 63.5160706808762"/>
		<path opacity="0.75" fill="darkturquoise" d="M329.5032161503094 67.8461976997984 L332.0032161503094 70.01126120925949 L276.5775903081053 86.01126120925949 L274.0775903081053 83.8461976997984 L329.5032161503094 67.8461976997984"/>
		<text x="274.0775903081053" y="81.6811341903373" font-family="calibri" font-size="4">5</text>
		<text x="275.3275903081053" y="84.92872945452893" font-family="calibri" font-size="4">5</text>
		<text x="301.79040322920736" y="71.5160706808762" font-family="calibri" font-size="4">64</text>

		<path opacity="0.5" fill="orange" d="M328.0836477965032 61.1749814951862 L332.0836477965032 64.63908311032397 L332.0836477965032 71.56728634059947 L328.0836477965032 68.1031847254617 L328.0836477965032 61.1749814951862"/>
		<path opacity="0.5" fill="orange" d="M272.6580219542991 77.1749814951862 L276.6580219542991 80.63908311032397 L276.6580219542991 87.56728634059947 L272.6580219542991 84.1031847254617 L272.6580219542991 77.1749814951862"/>
		<path opacity="0.5" fill="orange" d="M328.0836477965032 61.1749814951862 L272.6580219542991 77.1749814951862 L272.6580219542991 84.1031847254617 L328.0836477965032 68.1031847254617 L328.0836477965032 61.1749814951862"/>
		<path opacity="0.5" fill="orange" d="M332.0836477965032 64.63908311032397 L276.6580219542991 80.63908311032397 L276.6580219542991 87.56728634059947 L332.0836477965032 71.56728634059947 L332.0836477965032 64.63908311032397"/>
		<path opacity="0.5" fill="orange" d="M328.0836477965032 61.1749814951862 L332.0836477965032 64.63908311032397 L276.6580219542991 80.63908311032397 L272.6580219542991 77.1749814951862 L328.0836477965032 61.1749814951862"/>
		<path opacity="0.5" fill="orange" d="M328.0836477965032 68.1031847254617 L332.0836477965032 71.56728634059947 L276.6580219542991 87.56728634059947 L272.6580219542991 84.1031847254617 L328.0836477965032 68.1031847254617"/>
		<text x="272.6580219542991" y="80.63908311032395" font-family="calibri" font-size="4">8</text>
		<text x="274.6580219542991" y="85.83523553303058" font-family="calibri" font-size="4">8</text>
		<text x="300.37083487540116" y="69.1749814951862" font-family="calibri" font-size="4">64</text>

		<path opacity="0.5" fill="orange" d="M214.3471328218438 61.676270189221924 L218.3471328218438 65.14037180435967 L218.3471328218438 72.06857503463519 L214.3471328218438 68.60447341949744 L214.3471328218438 61.676270189221924"/>
		<path opacity="0.5" fill="orange" d="M158.9215069796397 77.67627018922192 L162.9215069796397 81.14037180435967 L162.9215069796397 88.06857503463519 L158.9215069796397 84.60447341949744 L158.9215069796397 77.67627018922192"/>
		<path opacity="0.5" fill="orange" d="M214.3471328218438 61.676270189221924 L158.9215069796397 77.67627018922192 L158.9215069796397 84.60447341949744 L214.3471328218438 68.60447341949744 L214.3471328218438 61.676270189221924"/>
		<path opacity="0.5" fill="orange" d="M218.3471328218438 65.14037180435967 L162.9215069796397 81.14037180435967 L162.9215069796397 88.06857503463519 L218.3471328218438 72.06857503463519 L218.3471328218438 65.14037180435967"/>
		<path opacity="0.5" fill="orange" d="M214.3471328218438 61.676270189221924 L218.3471328218438 65.14037180435967 L162.9215069796397 81.14037180435967 L158.9215069796397 77.67627018922192 L214.3471328218438 61.676270189221924"/>
		<path opacity="0.5" fill="orange" d="M214.3471328218438 68.60447341949744 L218.3471328218438 72.06857503463519 L162.9215069796397 88.06857503463519 L158.9215069796397 84.60447341949744 L214.3471328218438 68.60447341949744"/>
		<text x="158.9215069796397" y="81.14037180435969" font-family="calibri" font-size="4">8</text>
		<text x="160.9215069796397" y="86.33652422706632" font-family="calibri" font-size="4">8</text>
		<text x="186.63431990074173" y="69.67627018922192" font-family="calibri" font-size="4">64</text>

		<path opacity="0.75" fill="darkturquoise" d="M-35.190659873299126 82.31810138040453 L-32.690659873299126 84.48316488986563 L-32.690659873299126 88.81329190878782 L-35.190659873299126 86.64822839932673 L-35.190659873299126 82.31810138040453"/>
		<path opacity="0.75" fill="darkturquoise" d="M-62.90347279440118 90.31810138040453 L-60.40347279440118 92.48316488986563 L-60.40347279440118 96.81329190878782 L-62.90347279440118 94.64822839932673 L-62.90347279440118 90.31810138040453"/>
		<path opacity="0.75" fill="darkturquoise" d="M-35.190659873299126 82.31810138040453 L-62.90347279440118 90.31810138040453 L-62.90347279440118 94.64822839932673 L-35.190659873299126 86.64822839932673 L-35.190659873299126 82.31810138040453"/>
		<path opacity="0.75" fill="darkturquoise" d="M-32.690659873299126 84.48316488986563 L-60.40347279440118 92.48316488986563 L-60.40347279440118 96.81329190878782 L-32.690659873299126 88.81329190878782 L-32.690659873299126 84.48316488986563"/>
		<path opacity="0.75" fill="darkturquoise" d="M-35.190659873299126 82.31810138040453 L-32.690659873299126 84.48316488986563 L-60.40347279440118 92.48316488986563 L-62.90347279440118 90.31810138040453 L-35.190659873299126 82.31810138040453"/>
		<path opacity="0.75" fill="darkturquoise" d="M-35.190659873299126 86.64822839932673 L-32.690659873299126 88.81329190878782 L-60.40347279440118 96.81329190878782 L-62.90347279440118 94.64822839932673 L-35.190659873299126 86.64822839932673"/>
		<text x="-62.90347279440118" y="92.48316488986563" font-family="calibri" font-size="4">5</text>
		<text x="-61.65347279440118" y="95.73076015405726" font-family="calibri" font-size="4">5</text>
		<text x="-49.047066333850154" y="86.31810138040453" font-family="calibri" font-size="4">32</text>

		<path opacity="0.5" fill="orange" d="M-45.10665924100823 54.59039030917347 L-29.10665924100823 68.44679676972449 L-29.10665924100823 96.15960969082653 L-45.10665924100823 82.30320323027551 L-45.10665924100823 54.59039030917347"/>
		<path opacity="0.5" fill="orange" d="M-72.81947216211029 62.59039030917347 L-56.81947216211029 76.44679676972449 L-56.81947216211029 104.15960969082653 L-72.81947216211029 90.30320323027551 L-72.81947216211029 62.59039030917347"/>
		<path opacity="0.5" fill="orange" d="M-45.10665924100823 54.59039030917347 L-72.81947216211029 62.59039030917347 L-72.81947216211029 90.30320323027551 L-45.10665924100823 82.30320323027551 L-45.10665924100823 54.59039030917347"/>
		<path opacity="0.5" fill="orange" d="M-29.10665924100823 68.44679676972449 L-56.81947216211029 76.44679676972449 L-56.81947216211029 104.15960969082653 L-29.10665924100823 96.15960969082653 L-29.10665924100823 68.44679676972449"/>
		<path opacity="0.5" fill="orange" d="M-45.10665924100823 54.59039030917347 L-29.10665924100823 68.44679676972449 L-56.81947216211029 76.44679676972449 L-72.81947216211029 62.59039030917347 L-45.10665924100823 54.59039030917347"/>
		<path opacity="0.5" fill="orange" d="M-45.10665924100823 82.30320323027551 L-29.10665924100823 96.15960969082653 L-56.81947216211029 104.15960969082653 L-72.81947216211029 90.30320323027551 L-45.10665924100823 82.30320323027551"/>
		<text x="-72.81947216211029" y="76.4467967697245" font-family="calibri" font-size="4">32</text>
		<text x="-64.81947216211029" y="97.23140646055103" font-family="calibri" font-size="4">32</text>
		<text x="-58.96306570155926" y="58.59039030917347" font-family="calibri" font-size="4">32</text>

		<path opacity="0.75" fill="pink" d="M116.09212356704329 92.74710619828176 L118.59212356704329 94.91216970774286 L158.9710513961866 83.87780396159393 L116.09212356704329 92.74710619828176"/>
		<path opacity="0.75" fill="pink" d="M116.09212356704329 92.74710619828176 L116.09212356704329 97.07723321720395 L158.9710513961866 83.87780396159393 L116.09212356704329 92.74710619828176"/>
		<path opacity="0.75" fill="pink" d="M118.59212356704329 94.91216970774286 L118.59212356704329 99.24229672666505 L158.9710513961866 83.87780396159393 L118.59212356704329 94.91216970774286"/>
		<path opacity="0.75" fill="pink" d="M116.09212356704329 97.07723321720395 L118.59212356704329 99.24229672666505 L158.9710513961866 83.87780396159393 L116.09212356704329 97.07723321720395"/>

		<path opacity="0.75" fill="pink" d="M-106.56315389156572 102.19095271560975 L-101.56315389156572 106.52107973453194 L-65.80377980093579 89.2741752068552 L-106.56315389156572 102.19095271560975"/>
		<path opacity="0.75" fill="pink" d="M-106.56315389156572 102.19095271560975 L-106.56315389156572 110.85120675345414 L-65.80377980093579 89.2741752068552 L-106.56315389156572 102.19095271560975"/>
		<path opacity="0.75" fill="pink" d="M-101.56315389156572 106.52107973453194 L-101.56315389156572 115.18133377237632 L-65.80377980093579 89.2741752068552 L-101.56315389156572 106.52107973453194"/>
		<path opacity="0.75" fill="pink" d="M-106.56315389156572 110.85120675345414 L-101.56315389156572 115.18133377237632 L-65.80377980093579 89.2741752068552 L-106.56315389156572 110.85120675345414"/>

		<path opacity="0.75" fill="darkturquoise" d="M-106.56315389156572 102.19095271560975 L-101.56315389156572 106.52107973453194 L-101.56315389156572 115.18133377237632 L-106.56315389156572 110.85120675345414 L-106.56315389156572 102.19095271560975"/>
		<path opacity="0.75" fill="darkturquoise" d="M-123.88366196725451 107.19095271560975 L-118.88366196725451 111.52107973453194 L-118.88366196725451 120.18133377237632 L-123.88366196725451 115.85120675345414 L-123.88366196725451 107.19095271560975"/>
		<path opacity="0.75" fill="darkturquoise" d="M-106.56315389156572 102.19095271560975 L-123.88366196725451 107.19095271560975 L-123.88366196725451 115.85120675345414 L-106.56315389156572 110.85120675345414 L-106.56315389156572 102.19095271560975"/>
		<path opacity="0.75" fill="darkturquoise" d="M-101.56315389156572 106.52107973453194 L-118.88366196725451 111.52107973453194 L-118.88366196725451 120.18133377237632 L-101.56315389156572 115.18133377237632 L-101.56315389156572 106.52107973453194"/>
		<path opacity="0.75" fill="darkturquoise" d="M-106.56315389156572 102.19095271560975 L-101.56315389156572 106.52107973453194 L-118.88366196725451 111.52107973453194 L-123.88366196725451 107.19095271560975 L-106.56315389156572 102.19095271560975"/>
		<path opacity="0.75" fill="darkturquoise" d="M-106.56315389156572 110.85120675345414 L-101.56315389156572 115.18133377237632 L-118.88366196725451 120.18133377237632 L-123.88366196725451 115.85120675345414 L-106.56315389156572 110.85120675345414"/>
		<text x="-123.88366196725451" y="111.52107973453195" font-family="calibri" font-size="4">10</text>
		<text x="-121.38366196725451" y="118.01627026291523" font-family="calibri" font-size="4">10</text>
		<text x="-115.22340792941012" y="104.69095271560975" font-family="calibri" font-size="4">20</text>

		<path opacity="0.5" fill="orange" d="M-116.12074235133218 75.09039030917347 L-100.12074235133218 88.94679676972449 L-100.12074235133218 116.65960969082653 L-116.12074235133218 102.80320323027551 L-116.12074235133218 75.09039030917347"/>
		<path opacity="0.5" fill="orange" d="M-133.44125042702098 80.09039030917347 L-117.44125042702098 93.94679676972449 L-117.44125042702098 121.65960969082653 L-133.44125042702098 107.80320323027551 L-133.44125042702098 80.09039030917347"/>
		<path opacity="0.5" fill="orange" d="M-116.12074235133218 75.09039030917347 L-133.44125042702098 80.09039030917347 L-133.44125042702098 107.80320323027551 L-116.12074235133218 102.80320323027551 L-116.12074235133218 75.09039030917347"/>
		<path opacity="0.5" fill="orange" d="M-100.12074235133218 88.94679676972449 L-117.44125042702098 93.94679676972449 L-117.44125042702098 121.65960969082653 L-100.12074235133218 116.65960969082653 L-100.12074235133218 88.94679676972449"/>
		<path opacity="0.5" fill="orange" d="M-116.12074235133218 75.09039030917347 L-100.12074235133218 88.94679676972449 L-117.44125042702098 93.94679676972449 L-133.44125042702098 80.09039030917347 L-116.12074235133218 75.09039030917347"/>
		<path opacity="0.5" fill="orange" d="M-116.12074235133218 102.80320323027551 L-100.12074235133218 116.65960969082653 L-117.44125042702098 121.65960969082653 L-133.44125042702098 107.80320323027551 L-116.12074235133218 102.80320323027551"/>
		<text x="-133.44125042702098" y="93.9467967697245" font-family="calibri" font-size="4">32</text>
		<text x="-125.44125042702098" y="114.73140646055103" font-family="calibri" font-size="4">32</text>
		<text x="-124.78099638917658" y="77.59039030917347" font-family="calibri" font-size="4">20</text>

<!-- Arrow -->
		<path opacity="0.5" stroke="black" d="M272.3471328218438 115.36984522385711 L274.6580219542991 82.37113391789283"/>
		<circle opacity="0.5" cx="274.6580219542991" cy="82.37113391789283" r="1" fill="black" />
		<path opacity="0.75" fill="darkturquoise" d="M116.09212356704329 92.74710619828176 L118.59212356704329 94.91216970774286 L118.59212356704329 99.24229672666505 L116.09212356704329 97.07723321720395 L116.09212356704329 92.74710619828176"/>
		<path opacity="0.75" fill="darkturquoise" d="M60.666497724839246 108.74710619828176 L63.166497724839246 110.91216970774286 L63.166497724839246 115.24229672666505 L60.666497724839246 113.07723321720395 L60.666497724839246 108.74710619828176"/>
		<path opacity="0.75" fill="darkturquoise" d="M116.09212356704329 92.74710619828176 L60.666497724839246 108.74710619828176 L60.666497724839246 113.07723321720395 L116.09212356704329 97.07723321720395 L116.09212356704329 92.74710619828176"/>
		<path opacity="0.75" fill="darkturquoise" d="M118.59212356704329 94.91216970774286 L63.166497724839246 110.91216970774286 L63.166497724839246 115.24229672666505 L118.59212356704329 99.24229672666505 L118.59212356704329 94.91216970774286"/>
		<path opacity="0.75" fill="darkturquoise" d="M116.09212356704329 92.74710619828176 L118.59212356704329 94.91216970774286 L63.166497724839246 110.91216970774286 L60.666497724839246 108.74710619828176 L116.09212356704329 92.74710619828176"/>
		<path opacity="0.75" fill="darkturquoise" d="M116.09212356704329 97.07723321720395 L118.59212356704329 99.24229672666505 L63.166497724839246 115.24229672666505 L60.666497724839246 113.07723321720395 L116.09212356704329 97.07723321720395"/>
		<text x="60.666497724839246" y="110.91216970774286" font-family="calibri" font-size="4">5</text>
		<text x="61.916497724839246" y="114.1597649719345" font-family="calibri" font-size="4">5</text>
		<text x="88.37931064594127" y="100.74710619828176" font-family="calibri" font-size="4">64</text>

		<path opacity="0.5" fill="orange" d="M113.62023679041776 84.98011776651529 L121.62023679041776 91.90832099679079 L121.62023679041776 105.76472745734182 L113.62023679041776 98.8365242270663 L113.62023679041776 84.98011776651529"/>
		<path opacity="0.5" fill="orange" d="M58.19461094821372 100.98011776651529 L66.19461094821372 107.90832099679079 L66.19461094821372 121.76472745734182 L58.19461094821372 114.8365242270663 L58.19461094821372 100.98011776651529"/>
		<path opacity="0.5" fill="orange" d="M113.62023679041776 84.98011776651529 L58.19461094821372 100.98011776651529 L58.19461094821372 114.8365242270663 L113.62023679041776 98.8365242270663 L113.62023679041776 84.98011776651529"/>
		<path opacity="0.5" fill="orange" d="M121.62023679041776 91.90832099679079 L66.19461094821372 107.90832099679079 L66.19461094821372 121.76472745734182 L121.62023679041776 105.76472745734182 L121.62023679041776 91.90832099679079"/>
		<path opacity="0.5" fill="orange" d="M113.62023679041776 84.98011776651529 L121.62023679041776 91.90832099679079 L66.19461094821372 107.90832099679079 L58.19461094821372 100.98011776651529 L113.62023679041776 84.98011776651529"/>
		<path opacity="0.5" fill="orange" d="M113.62023679041776 98.8365242270663 L121.62023679041776 105.76472745734182 L66.19461094821372 121.76472745734182 L58.19461094821372 114.8365242270663 L113.62023679041776 98.8365242270663"/>
		<text x="58.19461094821372" y="107.90832099679079" font-family="calibri" font-size="4">16</text>
		<text x="62.19461094821372" y="118.30062584220406" font-family="calibri" font-size="4">16</text>
		<text x="85.90742386931575" y="92.98011776651529" font-family="calibri" font-size="4">64</text>

		<path opacity="0.75" fill="pink" d="M12.833613096822887 124.41077060403273 L15.333613096822887 126.57583411349384 L58.20239174457316 113.62181893177379 L12.833613096822887 124.41077060403273"/>
		<path opacity="0.75" fill="pink" d="M12.833613096822887 124.41077060403273 L12.833613096822887 128.74089762295495 L58.20239174457316 113.62181893177379 L12.833613096822887 124.41077060403273"/>
		<path opacity="0.75" fill="pink" d="M15.333613096822887 126.57583411349384 L15.333613096822887 130.90596113241602 L58.20239174457316 113.62181893177379 L15.333613096822887 126.57583411349384"/>
		<path opacity="0.75" fill="pink" d="M12.833613096822887 128.74089762295495 L15.333613096822887 130.90596113241602 L58.20239174457316 113.62181893177379 L12.833613096822887 128.74089762295495"/>

		<path opacity="0.5" fill="orange" d="M270.3471328218438 110.17369280115048 L274.3471328218438 113.63779441628824 L274.3471328218438 120.56599764656374 L270.3471328218438 117.10189603142598 L270.3471328218438 110.17369280115048"/>
		<path opacity="0.5" fill="orange" d="M214.92150697963973 126.17369280115048 L218.92150697963973 129.63779441628824 L218.92150697963973 136.56599764656374 L214.92150697963973 133.10189603142598 L214.92150697963973 126.17369280115048"/>
		<path opacity="0.5" fill="orange" d="M270.3471328218438 110.17369280115048 L214.92150697963973 126.17369280115048 L214.92150697963973 133.10189603142598 L270.3471328218438 117.10189603142598 L270.3471328218438 110.17369280115048"/>
		<path opacity="0.5" fill="orange" d="M274.3471328218438 113.63779441628824 L218.92150697963973 129.63779441628824 L218.92150697963973 136.56599764656374 L274.3471328218438 120.56599764656374 L274.3471328218438 113.63779441628824"/>
		<path opacity="0.5" fill="orange" d="M270.3471328218438 110.17369280115048 L274.3471328218438 113.63779441628824 L218.92150697963973 129.63779441628824 L214.92150697963973 126.17369280115048 L270.3471328218438 110.17369280115048"/>
		<path opacity="0.5" fill="orange" d="M270.3471328218438 117.10189603142598 L274.3471328218438 120.56599764656374 L218.92150697963973 136.56599764656374 L214.92150697963973 133.10189603142598 L270.3471328218438 117.10189603142598"/>
		<text x="214.92150697963973" y="129.63779441628822" font-family="calibri" font-size="4">8</text>
		<text x="216.92150697963973" y="134.83394683899485" font-family="calibri" font-size="4">8</text>
		<text x="242.63431990074176" y="118.17369280115048" font-family="calibri" font-size="4">64</text>

		<path opacity="0.75" fill="darkturquoise" d="M12.833613096822887 124.41077060403273 L15.333613096822887 126.57583411349384 L15.333613096822887 130.90596113241602 L12.833613096822887 128.74089762295495 L12.833613096822887 124.41077060403273"/>
		<path opacity="0.75" fill="darkturquoise" d="M-14.87919982427917 132.41077060403273 L-12.37919982427917 134.57583411349384 L-12.37919982427917 138.90596113241602 L-14.87919982427917 136.74089762295495 L-14.87919982427917 132.41077060403273"/>
		<path opacity="0.75" fill="darkturquoise" d="M12.833613096822887 124.41077060403273 L-14.87919982427917 132.41077060403273 L-14.87919982427917 136.74089762295495 L12.833613096822887 128.74089762295495 L12.833613096822887 124.41077060403273"/>
		<path opacity="0.75" fill="darkturquoise" d="M15.333613096822887 126.57583411349384 L-12.37919982427917 134.57583411349384 L-12.37919982427917 138.90596113241602 L15.333613096822887 130.90596113241602 L15.333613096822887 126.57583411349384"/>
		<path opacity="0.75" fill="darkturquoise" d="M12.833613096822887 124.41077060403273 L15.333613096822887 126.57583411349384 L-12.37919982427917 134.57583411349384 L-14.87919982427917 132.41077060403273 L12.833613096822887 124.41077060403273"/>
		<path opacity="0.75" fill="darkturquoise" d="M12.833613096822887 128.74089762295495 L15.333613096822887 130.90596113241602 L-12.37919982427917 138.90596113241602 L-14.87919982427917 136.74089762295495 L12.833613096822887 128.74089762295495"/>
		<text x="-14.87919982427917" y="134.57583411349384" font-family="calibri" font-size="4">5</text>
		<text x="-13.62919982427917" y="137.8234293776855" font-family="calibri" font-size="4">5</text>
		<text x="-1.022793363728141" y="128.41077060403273" font-family="calibri" font-size="4">32</text>

		<path opacity="0.5" fill="orange" d="M10.89334075899177 103.08781292110203 L26.89334075899177 116.94421938165304 L26.89334075899177 144.65703230275508 L10.89334075899177 130.80062584220406 L10.89334075899177 103.08781292110203"/>
		<path opacity="0.5" fill="orange" d="M-16.819472162110287 111.08781292110203 L-0.8194721621102872 124.94421938165304 L-0.8194721621102872 152.65703230275508 L-16.819472162110287 138.80062584220406 L-16.819472162110287 111.08781292110203"/>
		<path opacity="0.5" fill="orange" d="M10.89334075899177 103.08781292110203 L-16.819472162110287 111.08781292110203 L-16.819472162110287 138.80062584220406 L10.89334075899177 130.80062584220406 L10.89334075899177 103.08781292110203"/>
		<path opacity="0.5" fill="orange" d="M26.89334075899177 116.94421938165304 L-0.8194721621102872 124.94421938165304 L-0.8194721621102872 152.65703230275508 L26.89334075899177 144.65703230275508 L26.89334075899177 116.94421938165304"/>
		<path opacity="0.5" fill="orange" d="M10.89334075899177 103.08781292110203 L26.89334075899177 116.94421938165304 L-0.8194721621102872 124.94421938165304 L-16.819472162110287 111.08781292110203 L10.89334075899177 103.08781292110203"/>
		<path opacity="0.5" fill="orange" d="M10.89334075899177 130.80062584220406 L26.89334075899177 144.65703230275508 L-0.8194721621102872 152.65703230275508 L-16.819472162110287 138.80062584220406 L10.89334075899177 130.80062584220406"/>
		<text x="-16.819472162110287" y="124.94421938165304" font-family="calibri" font-size="4">32</text>
		<text x="-8.819472162110287" y="145.72882907247958" font-family="calibri" font-size="4">32</text>
		<text x="-2.963065701559259" y="107.08781292110203" font-family="calibri" font-size="4">32</text>

		<path opacity="0.75" fill="pink" d="M-57.09752544857815 136.96548023053376 L-52.09752544857815 141.29560724945594 L-15.659707912431486 133.55594085370763 L-57.09752544857815 136.96548023053376"/>
		<path opacity="0.75" fill="pink" d="M-57.09752544857815 136.96548023053376 L-57.09752544857815 145.62573426837815 L-15.659707912431486 133.55594085370763 L-57.09752544857815 136.96548023053376"/>
		<path opacity="0.75" fill="pink" d="M-52.09752544857815 141.29560724945594 L-52.09752544857815 149.95586128730034 L-15.659707912431486 133.55594085370763 L-52.09752544857815 141.29560724945594"/>
		<path opacity="0.75" fill="pink" d="M-57.09752544857815 145.62573426837815 L-52.09752544857815 149.95586128730034 L-15.659707912431486 133.55594085370763 L-57.09752544857815 145.62573426837815"/>

		<path opacity="0.75" fill="pink" d="M170.83002325798836 134.91964433964304 L173.33002325798836 137.08470784910415 L216.63163362712044 128.4810372631538 L170.83002325798836 134.91964433964304"/>
		<path opacity="0.75" fill="pink" d="M170.83002325798836 134.91964433964304 L170.83002325798836 139.24977135856523 L216.63163362712044 128.4810372631538 L170.83002325798836 134.91964433964304"/>
		<path opacity="0.75" fill="pink" d="M173.33002325798836 137.08470784910415 L173.33002325798836 141.41483486802633 L216.63163362712044 128.4810372631538 L173.33002325798836 137.08470784910415"/>
		<path opacity="0.75" fill="pink" d="M170.83002325798836 139.24977135856523 L173.33002325798836 141.41483486802633 L216.63163362712044 128.4810372631538 L170.83002325798836 139.24977135856523"/>

		<path opacity="0.75" fill="darkturquoise" d="M-57.09752544857815 136.96548023053376 L-52.09752544857815 141.29560724945594 L-52.09752544857815 149.95586128730034 L-57.09752544857815 145.62573426837815 L-57.09752544857815 136.96548023053376"/>
		<path opacity="0.75" fill="darkturquoise" d="M-74.41803352426695 141.96548023053376 L-69.41803352426695 146.29560724945594 L-69.41803352426695 154.95586128730034 L-74.41803352426695 150.62573426837815 L-74.41803352426695 141.96548023053376"/>
		<path opacity="0.75" fill="darkturquoise" d="M-57.09752544857815 136.96548023053376 L-74.41803352426695 141.96548023053376 L-74.41803352426695 150.62573426837815 L-57.09752544857815 145.62573426837815 L-57.09752544857815 136.96548023053376"/>
		<path opacity="0.75" fill="darkturquoise" d="M-52.09752544857815 141.29560724945594 L-69.41803352426695 146.29560724945594 L-69.41803352426695 154.95586128730034 L-52.09752544857815 149.95586128730034 L-52.09752544857815 141.29560724945594"/>
		<path opacity="0.75" fill="darkturquoise" d="M-57.09752544857815 136.96548023053376 L-52.09752544857815 141.29560724945594 L-69.41803352426695 146.29560724945594 L-74.41803352426695 141.96548023053376 L-57.09752544857815 136.96548023053376"/>
		<path opacity="0.75" fill="darkturquoise" d="M-57.09752544857815 145.62573426837815 L-52.09752544857815 149.95586128730034 L-69.41803352426695 154.95586128730034 L-74.41803352426695 150.62573426837815 L-57.09752544857815 145.62573426837815"/>
		<text x="-74.41803352426695" y="146.29560724945594" font-family="calibri" font-size="4">10</text>
		<text x="-71.91803352426695" y="152.79079777783926" font-family="calibri" font-size="4">10</text>
		<text x="-65.75777948642255" y="139.46548023053376" font-family="calibri" font-size="4">20</text>

		<path opacity="0.5" fill="orange" d="M-60.12074235133218 123.58781292110203 L-44.12074235133218 137.44421938165306 L-44.12074235133218 165.15703230275508 L-60.12074235133218 151.30062584220406 L-60.12074235133218 123.58781292110203"/>
		<path opacity="0.5" fill="orange" d="M-77.44125042702098 128.58781292110203 L-61.441250427020975 142.44421938165306 L-61.441250427020975 170.15703230275508 L-77.44125042702098 156.30062584220406 L-77.44125042702098 128.58781292110203"/>
		<path opacity="0.5" fill="orange" d="M-60.12074235133218 123.58781292110203 L-77.44125042702098 128.58781292110203 L-77.44125042702098 156.30062584220406 L-60.12074235133218 151.30062584220406 L-60.12074235133218 123.58781292110203"/>
		<path opacity="0.5" fill="orange" d="M-44.12074235133218 137.44421938165306 L-61.441250427020975 142.44421938165306 L-61.441250427020975 170.15703230275508 L-44.12074235133218 165.15703230275508 L-44.12074235133218 137.44421938165306"/>
		<path opacity="0.5" fill="orange" d="M-60.12074235133218 123.58781292110203 L-44.12074235133218 137.44421938165306 L-61.441250427020975 142.44421938165306 L-77.44125042702098 128.58781292110203 L-60.12074235133218 123.58781292110203"/>
		<path opacity="0.5" fill="orange" d="M-60.12074235133218 151.30062584220406 L-44.12074235133218 165.15703230275508 L-61.441250427020975 170.15703230275508 L-77.44125042702098 156.30062584220406 L-60.12074235133218 151.30062584220406"/>
		<text x="-77.44125042702098" y="142.44421938165306" font-family="calibri" font-size="4">32</text>
		<text x="-69.44125042702098" y="163.22882907247958" font-family="calibri" font-size="4">32</text>
		<text x="-68.78099638917658" y="126.08781292110203" font-family="calibri" font-size="4">20</text>

		<path opacity="0.75" fill="darkturquoise" d="M170.83002325798836 134.91964433964304 L173.33002325798836 137.08470784910415 L173.33002325798836 141.41483486802633 L170.83002325798836 139.24977135856523 L170.83002325798836 134.91964433964304"/>
		<path opacity="0.75" fill="darkturquoise" d="M115.4043974157843 150.91964433964304 L117.9043974157843 153.08470784910415 L117.9043974157843 157.41483486802633 L115.4043974157843 155.24977135856523 L115.4043974157843 150.91964433964304"/>
		<path opacity="0.75" fill="darkturquoise" d="M170.83002325798836 134.91964433964304 L115.4043974157843 150.91964433964304 L115.4043974157843 155.24977135856523 L170.83002325798836 139.24977135856523 L170.83002325798836 134.91964433964304"/>
		<path opacity="0.75" fill="darkturquoise" d="M173.33002325798836 137.08470784910415 L117.9043974157843 153.08470784910415 L117.9043974157843 157.41483486802633 L173.33002325798836 141.41483486802633 L173.33002325798836 137.08470784910415"/>
		<path opacity="0.75" fill="darkturquoise" d="M170.83002325798836 134.91964433964304 L173.33002325798836 137.08470784910415 L117.9043974157843 153.08470784910415 L115.4043974157843 150.91964433964304 L170.83002325798836 134.91964433964304"/>
		<path opacity="0.75" fill="darkturquoise" d="M170.83002325798836 139.24977135856523 L173.33002325798836 141.41483486802633 L117.9043974157843 157.41483486802633 L115.4043974157843 155.24977135856523 L170.83002325798836 139.24977135856523"/>
		<text x="115.4043974157843" y="153.08470784910412" font-family="calibri" font-size="4">5</text>
		<text x="116.6543974157843" y="156.33230311329578" font-family="calibri" font-size="4">5</text>
		<text x="143.11721033688633" y="142.91964433964304" font-family="calibri" font-size="4">64</text>

		<path opacity="0.5" fill="orange" d="M169.62023679041778 133.47754037844385 L177.62023679041778 140.40574360871935 L177.62023679041778 154.26215006927038 L169.62023679041778 147.33394683899488 L169.62023679041778 133.47754037844385"/>
		<path opacity="0.5" fill="orange" d="M114.19461094821372 149.47754037844385 L122.19461094821372 156.40574360871935 L122.19461094821372 170.26215006927038 L114.19461094821372 163.33394683899488 L114.19461094821372 149.47754037844385"/>
		<path opacity="0.5" fill="orange" d="M169.62023679041778 133.47754037844385 L114.19461094821372 149.47754037844385 L114.19461094821372 163.33394683899488 L169.62023679041778 147.33394683899488 L169.62023679041778 133.47754037844385"/>
		<path opacity="0.5" fill="orange" d="M177.62023679041778 140.40574360871935 L122.19461094821372 156.40574360871935 L122.19461094821372 170.26215006927038 L177.62023679041778 154.26215006927038 L177.62023679041778 140.40574360871935"/>
		<path opacity="0.5" fill="orange" d="M169.62023679041778 133.47754037844385 L177.62023679041778 140.40574360871935 L122.19461094821372 156.40574360871935 L114.19461094821372 149.47754037844385 L169.62023679041778 133.47754037844385"/>
		<path opacity="0.5" fill="orange" d="M169.62023679041778 147.33394683899488 L177.62023679041778 154.26215006927038 L122.19461094821372 170.26215006927038 L114.19461094821372 163.33394683899488 L169.62023679041778 147.33394683899488"/>
		<text x="114.19461094821372" y="156.40574360871938" font-family="calibri" font-size="4">16</text>
		<text x="118.19461094821372" y="166.79804845413264" font-family="calibri" font-size="4">16</text>
		<text x="141.90742386931575" y="141.47754037844385" font-family="calibri" font-size="4">64</text>

		<path opacity="0.75" fill="pink" d="M73.20863917686174 161.30206703161934 L75.70863917686174 163.46713054108042 L117.241435197248 152.454272636385 L73.20863917686174 161.30206703161934"/>
		<path opacity="0.75" fill="pink" d="M73.20863917686174 161.30206703161934 L73.20863917686174 165.63219405054153 L117.241435197248 152.454272636385 L73.20863917686174 161.30206703161934"/>
		<path opacity="0.75" fill="pink" d="M75.70863917686174 163.46713054108042 L75.70863917686174 167.7972575600026 L117.241435197248 152.454272636385 L75.70863917686174 163.46713054108042"/>
		<path opacity="0.75" fill="pink" d="M73.20863917686174 165.63219405054153 L75.70863917686174 167.7972575600026 L117.241435197248 152.454272636385 L73.20863917686174 165.63219405054153"/>

		<path opacity="0.75" fill="darkturquoise" d="M73.20863917686174 161.30206703161934 L75.70863917686174 163.46713054108042 L75.70863917686174 167.7972575600026 L73.20863917686174 165.63219405054153 L73.20863917686174 161.30206703161934"/>
		<path opacity="0.75" fill="darkturquoise" d="M45.49582625575968 169.30206703161934 L47.99582625575968 171.46713054108042 L47.99582625575968 175.7972575600026 L45.49582625575968 173.63219405054153 L45.49582625575968 169.30206703161934"/>
		<path opacity="0.75" fill="darkturquoise" d="M73.20863917686174 161.30206703161934 L45.49582625575968 169.30206703161934 L45.49582625575968 173.63219405054153 L73.20863917686174 165.63219405054153 L73.20863917686174 161.30206703161934"/>
		<path opacity="0.75" fill="darkturquoise" d="M75.70863917686174 163.46713054108042 L47.99582625575968 171.46713054108042 L47.99582625575968 175.7972575600026 L75.70863917686174 167.7972575600026 L75.70863917686174 163.46713054108042"/>
		<path opacity="0.75" fill="darkturquoise" d="M73.20863917686174 161.30206703161934 L75.70863917686174 163.46713054108042 L47.99582625575968 171.46713054108042 L45.49582625575968 169.30206703161934 L73.20863917686174 161.30206703161934"/>
		<path opacity="0.75" fill="darkturquoise" d="M73.20863917686174 165.63219405054153 L75.70863917686174 167.7972575600026 L47.99582625575968 175.7972575600026 L45.49582625575968 173.63219405054153 L73.20863917686174 165.63219405054153"/>
		<text x="45.49582625575968" y="171.46713054108045" font-family="calibri" font-size="4">5</text>
		<text x="46.74582625575968" y="174.71472580527205" font-family="calibri" font-size="4">5</text>
		<text x="59.35223271631071" y="165.30206703161934" font-family="calibri" font-size="4">32</text>

		<path opacity="0.5" fill="orange" d="M66.8933407589918 151.58523553303058 L82.8933407589918 165.44164199358158 L82.8933407589918 193.15445491468364 L66.8933407589918 179.2980484541326 L66.8933407589918 151.58523553303058"/>
		<path opacity="0.5" fill="orange" d="M39.18052783788974 159.58523553303058 L55.18052783788974 173.44164199358158 L55.18052783788974 201.15445491468364 L39.18052783788974 187.2980484541326 L39.18052783788974 159.58523553303058"/>
		<path opacity="0.5" fill="orange" d="M66.8933407589918 151.58523553303058 L39.18052783788974 159.58523553303058 L39.18052783788974 187.2980484541326 L66.8933407589918 179.2980484541326 L66.8933407589918 151.58523553303058"/>
		<path opacity="0.5" fill="orange" d="M82.8933407589918 165.44164199358158 L55.18052783788974 173.44164199358158 L55.18052783788974 201.15445491468364 L82.8933407589918 193.15445491468364 L82.8933407589918 165.44164199358158"/>
		<path opacity="0.5" fill="orange" d="M66.8933407589918 151.58523553303058 L82.8933407589918 165.44164199358158 L55.18052783788974 173.44164199358158 L39.18052783788974 159.58523553303058 L66.8933407589918 151.58523553303058"/>
		<path opacity="0.5" fill="orange" d="M66.8933407589918 179.2980484541326 L82.8933407589918 193.15445491468364 L55.18052783788974 201.15445491468364 L39.18052783788974 187.2980484541326 L66.8933407589918 179.2980484541326"/>
		<text x="39.18052783788974" y="173.44164199358158" font-family="calibri" font-size="4">32</text>
		<text x="47.18052783788974" y="194.2262516844081" font-family="calibri" font-size="4">32</text>
		<text x="53.03693429844077" y="155.58523553303058" font-family="calibri" font-size="4">32</text>

		<path opacity="0.75" fill="pink" d="M3.5483774350660156 186.60726145949295 L8.548377435066016 190.93738847841513 L44.86567187856019 189.9396648869406 L3.5483774350660156 186.60726145949295"/>
		<path opacity="0.75" fill="pink" d="M3.5483774350660156 186.60726145949295 L3.5483774350660156 195.26751549733734 L44.86567187856019 189.9396648869406 L3.5483774350660156 186.60726145949295"/>
		<path opacity="0.75" fill="pink" d="M8.548377435066016 190.93738847841513 L8.548377435066016 199.59764251625955 L44.86567187856019 189.9396648869406 L8.548377435066016 190.93738847841513"/>
		<path opacity="0.75" fill="pink" d="M3.5483774350660156 195.26751549733734 L8.548377435066016 199.59764251625955 L44.86567187856019 189.9396648869406 L3.5483774350660156 195.26751549733734"/>

		<path opacity="0.75" fill="darkturquoise" d="M3.5483774350660156 186.60726145949295 L8.548377435066016 190.93738847841513 L8.548377435066016 199.59764251625955 L3.5483774350660156 195.26751549733734 L3.5483774350660156 186.60726145949295"/>
		<path opacity="0.75" fill="darkturquoise" d="M-13.772130640622777 191.60726145949295 L-8.772130640622777 195.93738847841513 L-8.772130640622777 204.59764251625955 L-13.772130640622777 200.26751549733734 L-13.772130640622777 191.60726145949295"/>
		<path opacity="0.75" fill="darkturquoise" d="M3.5483774350660156 186.60726145949295 L-13.772130640622777 191.60726145949295 L-13.772130640622777 200.26751549733734 L3.5483774350660156 195.26751549733734 L3.5483774350660156 186.60726145949295"/>
		<path opacity="0.75" fill="darkturquoise" d="M8.548377435066016 190.93738847841513 L-8.772130640622777 195.93738847841513 L-8.772130640622777 204.59764251625955 L8.548377435066016 199.59764251625955 L8.548377435066016 190.93738847841513"/>
		<path opacity="0.75" fill="darkturquoise" d="M3.5483774350660156 186.60726145949295 L8.548377435066016 190.93738847841513 L-8.772130640622777 195.93738847841513 L-13.772130640622777 191.60726145949295 L3.5483774350660156 186.60726145949295"/>
		<path opacity="0.75" fill="darkturquoise" d="M3.5483774350660156 195.26751549733734 L8.548377435066016 199.59764251625955 L-8.772130640622777 204.59764251625955 L-13.772130640622777 200.26751549733734 L3.5483774350660156 195.26751549733734"/>
		<text x="-13.772130640622777" y="195.93738847841513" font-family="calibri" font-size="4">10</text>
		<text x="-11.272130640622777" y="202.43257900679845" font-family="calibri" font-size="4">10</text>
		<text x="-5.111876602778381" y="189.10726145949295" font-family="calibri" font-size="4">20</text>

		<path opacity="0.5" fill="orange" d="M-4.120742351332154 172.08523553303058 L11.879257648667846 185.94164199358158 L11.879257648667846 213.65445491468364 L-4.120742351332154 199.7980484541326 L-4.120742351332154 172.08523553303058"/>
		<path opacity="0.5" fill="orange" d="M-21.441250427020947 177.08523553303058 L-5.441250427020947 190.94164199358158 L-5.441250427020947 218.65445491468364 L-21.441250427020947 204.7980484541326 L-21.441250427020947 177.08523553303058"/>
		<path opacity="0.5" fill="orange" d="M-4.120742351332154 172.08523553303058 L-21.441250427020947 177.08523553303058 L-21.441250427020947 204.7980484541326 L-4.120742351332154 199.7980484541326 L-4.120742351332154 172.08523553303058"/>
		<path opacity="0.5" fill="orange" d="M11.879257648667846 185.94164199358158 L-5.441250427020947 190.94164199358158 L-5.441250427020947 218.65445491468364 L11.879257648667846 213.65445491468364 L11.879257648667846 185.94164199358158"/>
		<path opacity="0.5" fill="orange" d="M-4.120742351332154 172.08523553303058 L11.879257648667846 185.94164199358158 L-5.441250427020947 190.94164199358158 L-21.441250427020947 177.08523553303058 L-4.120742351332154 172.08523553303058"/>
		<path opacity="0.5" fill="orange" d="M-4.120742351332154 199.7980484541326 L11.879257648667846 213.65445491468364 L-5.441250427020947 218.65445491468364 L-21.441250427020947 204.7980484541326 L-4.120742351332154 199.7980484541326"/>
		<text x="-21.441250427020947" y="190.94164199358158" font-family="calibri" font-size="4">32</text>
		<text x="-13.441250427020947" y="211.7262516844081" font-family="calibri" font-size="4">32</text>
		<text x="-12.78099638917655" y="174.58523553303058" font-family="calibri" font-size="4">20</text>

	 </g>
</svg>