<svg width="100%" height="100%" viewBox="-300.352447854375 -239.06904672938998 1021.95489570875 493.31964481437336" xmlns="http://www.w3.org/2000/svg">
	<g stroke="black" stroke-width="0.3">

		<path opacity="0.5" fill="orange" d="M476.96787517317597 -139.30607966083863 L488.96787517317597 -128.91377481542537 L488.96787517317597 -108.12916512459884 L476.96787517317597 -118.5214699700121 L476.96787517317597 -139.30607966083863" stroke-linecap="square"/>
		<path opacity="0.5" fill="orange" d="M421.54224933097186 -123.30607966083863 L433.5422493309719 -112.91377481542537 L433.5422493309719 -92.12916512459884 L421.54224933097186 -102.5214699700121 L421.54224933097186 -123.30607966083863" stroke-linecap="square"/>
		<path opacity="0.5" fill="orange" d="M476.96787517317597 -139.30607966083863 L421.54224933097186 -123.30607966083863 L421.54224933097186 -102.5214699700121 L476.96787517317597 -118.5214699700121 L476.96787517317597 -139.30607966083863" stroke-linecap="square"/>
		<path opacity="0.5" fill="orange" d="M488.96787517317597 -128.91377481542537 L433.5422493309719 -112.91377481542537 L433.5422493309719 -92.12916512459884 L488.96787517317597 -108.12916512459884 L488.96787517317597 -128.91377481542537" stroke-linecap="square"/>
		<path opacity="0.5" fill="orange" d="M476.96787517317597 -139.30607966083863 L488.96787517317597 -128.91377481542537 L433.5422493309719 -112.91377481542537 L421.54224933097186 -123.30607966083863 L476.96787517317597 -139.30607966083863" stroke-linecap="square"/>
		<path opacity="0.5" fill="orange" d="M476.96787517317597 -118.5214699700121 L488.96787517317597 -108.12916512459884 L433.5422493309719 -92.12916512459884 L421.54224933097186 -102.5214699700121 L476.96787517317597 -118.5214699700121" stroke-linecap="square"/>
		<text style="fill:black;font-family:calibri;font-size:6" x="421.54224933097186" y="-112.91377481542537" >24</text>
		<text style="fill:black;font-family:calibri;font-size:6" x="427.5422493309719" y="-97.32531754730547" >24</text>
		<text style="fill:black;font-family:calibri;font-size:6" x="449.2550622520739" y="-131.30607966083863" >64</text>

<!-- Arrow -->
		<path opacity="0.5" stroke="black" d="M482.96787517317597 -123.71762239271874 L600.5191453623979 -71.91523616172418" stroke-linecap="square"/>
		<circle opacity="0.5" cx="600.5191453623979" cy="-71.91523616172418" r="1" fill="black" />
		<path opacity="0.75" fill="pink" d="M386.2931965529251 -96.19100103181411 L388.7931965529251 -94.02593752235302 L423.6526619206832 -108.78179502314718 L386.2931965529251 -96.19100103181411"/>
		<path opacity="0.75" fill="pink" d="M386.2931965529251 -96.19100103181411 L386.2931965529251 -91.86087401289191 L423.6526619206832 -108.78179502314718 L386.2931965529251 -96.19100103181411"/>
		<path opacity="0.75" fill="pink" d="M388.7931965529251 -94.02593752235302 L388.7931965529251 -89.69581050343082 L423.6526619206832 -108.78179502314718 L388.7931965529251 -94.02593752235302"/>
		<path opacity="0.75" fill="pink" d="M386.2931965529251 -91.86087401289191 L388.7931965529251 -89.69581050343082 L423.6526619206832 -108.78179502314718 L386.2931965529251 -91.86087401289191"/>

		<text style="fill:black;font-family:calibri;font-size:6" x="399.5796850088445" y="-106.98639802748065" >[5,5]</text>
<!-- Arrow -->
		<path opacity="0.5" stroke="black" d="M661.1409236273087 -89.41523616172418 L704.4421938165306 -101.91523616172418" stroke-linecap="square"/>
		<circle opacity="0.5" cx="704.4421938165306" cy="-101.91523616172418" r="1" fill="black" />
		<path opacity="0.75" fill="darkturquoise" d="M710.602447854375 -193.18284004962914 L715.602447854375 -188.85271303070695 L715.602447854375 -15.647632273819227 L710.602447854375 -19.97775929274141 L710.602447854375 -193.18284004962914" stroke-linecap="square"/>
		<path opacity="0.75" fill="darkturquoise" d="M701.9421938165306 -190.68284004962914 L706.9421938165306 -186.35271303070695 L706.9421938165306 -13.147632273819227 L701.9421938165306 -17.47775929274141 L701.9421938165306 -190.68284004962914" stroke-linecap="square"/>
		<path opacity="0.75" fill="darkturquoise" d="M710.602447854375 -193.18284004962914 L701.9421938165306 -190.68284004962914 L701.9421938165306 -17.47775929274141 L710.602447854375 -19.97775929274141 L710.602447854375 -193.18284004962914" stroke-linecap="square"/>
		<path opacity="0.75" fill="darkturquoise" d="M715.602447854375 -188.85271303070695 L706.9421938165306 -186.35271303070695 L706.9421938165306 -13.147632273819227 L715.602447854375 -15.647632273819227 L715.602447854375 -188.85271303070695" stroke-linecap="square"/>
		<path opacity="0.75" fill="darkturquoise" d="M710.602447854375 -193.18284004962914 L715.602447854375 -188.85271303070695 L706.9421938165306 -186.35271303070695 L701.9421938165306 -190.68284004962914 L710.602447854375 -193.18284004962914" stroke-linecap="square"/>
		<path opacity="0.75" fill="darkturquoise" d="M710.602447854375 -19.97775929274141 L715.602447854375 -15.647632273819227 L706.9421938165306 -13.147632273819227 L701.9421938165306 -17.47775929274141 L710.602447854375 -19.97775929274141" stroke-linecap="square"/>
		<text style="fill:black;font-family:calibri;font-size:6" x="701.9421938165306" y="-104.08029967118527" >200</text>
		<text style="fill:black;font-family:calibri;font-size:6" x="704.4421938165306" y="-15.312695783280319" >10</text>
		<text style="fill:black;font-family:calibri;font-size:6" x="706.2723208354528" y="-191.93284004962914" >10</text>

		<path opacity="0.5" fill="orange" d="M176.58845726811987 -103.9781847254617 L184.5884572681199 -97.04998149518619 L184.5884572681199 -83.19357503463517 L176.58845726811987 -90.12177826491069 L176.58845726811987 -103.9781847254617" stroke-linecap="square"/>
		<path opacity="0.5" fill="orange" d="M121.16283142591578 -87.9781847254617 L129.1628314259158 -81.04998149518619 L129.1628314259158 -67.19357503463517 L121.16283142591578 -74.12177826491069 L121.16283142591578 -87.9781847254617" stroke-linecap="square"/>
		<path opacity="0.5" fill="orange" d="M176.58845726811987 -103.9781847254617 L121.16283142591578 -87.9781847254617 L121.16283142591578 -74.12177826491069 L176.58845726811987 -90.12177826491069 L176.58845726811987 -103.9781847254617" stroke-linecap="square"/>
		<path opacity="0.5" fill="orange" d="M184.5884572681199 -97.04998149518619 L129.1628314259158 -81.04998149518619 L129.1628314259158 -67.19357503463517 L184.5884572681199 -83.19357503463517 L184.5884572681199 -97.04998149518619" stroke-linecap="square"/>
		<path opacity="0.5" fill="orange" d="M176.58845726811987 -103.9781847254617 L184.5884572681199 -97.04998149518619 L129.1628314259158 -81.04998149518619 L121.16283142591578 -87.9781847254617 L176.58845726811987 -103.9781847254617" stroke-linecap="square"/>
		<path opacity="0.5" fill="orange" d="M176.58845726811987 -90.12177826491069 L184.5884572681199 -83.19357503463517 L129.1628314259158 -67.19357503463517 L121.16283142591578 -74.12177826491069 L176.58845726811987 -90.12177826491069" stroke-linecap="square"/>
		<text style="fill:black;font-family:calibri;font-size:6" x="121.16283142591578" y="-81.04998149518619" >16</text>
		<text style="fill:black;font-family:calibri;font-size:6" x="125.1628314259158" y="-70.65767664977292" >16</text>
		<text style="fill:black;font-family:calibri;font-size:6" x="148.87564434701784" y="-95.9781847254617" >64</text>

		<path opacity="0.75" fill="darkturquoise" d="M658.6409236273087 -178.18284004962914 L663.6409236273087 -173.85271303070695 L663.6409236273087 -0.6476322738192266 L658.6409236273087 -4.9777592927414105 L658.6409236273087 -178.18284004962914" stroke-linecap="square"/>
		<path opacity="0.75" fill="darkturquoise" d="M649.9806695894642 -175.68284004962914 L654.9806695894642 -171.35271303070695 L654.9806695894642 1.8523677261807734 L649.9806695894642 -2.4777592927414105 L649.9806695894642 -175.68284004962914" stroke-linecap="square"/>
		<path opacity="0.75" fill="darkturquoise" d="M658.6409236273087 -178.18284004962914 L649.9806695894642 -175.68284004962914 L649.9806695894642 -2.4777592927414105 L658.6409236273087 -4.9777592927414105 L658.6409236273087 -178.18284004962914" stroke-linecap="square"/>
		<path opacity="0.75" fill="darkturquoise" d="M663.6409236273087 -173.85271303070695 L654.9806695894642 -171.35271303070695 L654.9806695894642 1.8523677261807734 L663.6409236273087 -0.6476322738192266 L663.6409236273087 -173.85271303070695" stroke-linecap="square"/>
		<path opacity="0.75" fill="darkturquoise" d="M658.6409236273087 -178.18284004962914 L663.6409236273087 -173.85271303070695 L654.9806695894642 -171.35271303070695 L649.9806695894642 -175.68284004962914 L658.6409236273087 -178.18284004962914" stroke-linecap="square"/>
		<path opacity="0.75" fill="darkturquoise" d="M658.6409236273087 -4.9777592927414105 L663.6409236273087 -0.6476322738192266 L654.9806695894642 1.8523677261807734 L649.9806695894642 -2.4777592927414105 L658.6409236273087 -4.9777592927414105" stroke-linecap="square"/>
		<text style="fill:black;font-family:calibri;font-size:6" x="649.9806695894642" y="-89.08029967118527" >200</text>
		<text style="fill:black;font-family:calibri;font-size:6" x="652.4806695894642" y="-0.31269578328031855" >10</text>
		<text style="fill:black;font-family:calibri;font-size:6" x="654.3107966083865" y="-176.93284004962914" >10</text>

<!-- Arrow -->
		<path opacity="0.5" stroke="black" d="M609.1793994002423 -74.41523616172418 L652.4806695894642 -86.91523616172418" stroke-linecap="square"/>
		<circle opacity="0.5" cx="652.4806695894642" cy="-86.91523616172418" r="1" fill="black" />
<!-- Arrow -->
		<path opacity="0.5" stroke="black" d="M180.5884572681199 -93.58587988004844 L273.3897274573418 -63.21762239271874" stroke-linecap="square"/>
		<circle opacity="0.5" cx="273.3897274573418" cy="-63.21762239271874" r="1" fill="black" />
		<path opacity="0.75" fill="darkturquoise" d="M386.2931965529251 -96.19100103181411 L388.7931965529251 -94.02593752235302 L388.7931965529251 -89.69581050343082 L386.2931965529251 -91.86087401289191 L386.2931965529251 -96.19100103181411" stroke-linecap="square"/>
		<path opacity="0.75" fill="darkturquoise" d="M275.44194486851694 -64.19100103181411 L277.94194486851694 -62.02593752235301 L277.94194486851694 -57.69581050343082 L275.44194486851694 -59.86087401289191 L275.44194486851694 -64.19100103181411" stroke-linecap="square"/>
		<path opacity="0.75" fill="darkturquoise" d="M386.2931965529251 -96.19100103181411 L275.44194486851694 -64.19100103181411 L275.44194486851694 -59.86087401289191 L386.2931965529251 -91.86087401289191 L386.2931965529251 -96.19100103181411" stroke-linecap="square"/>
		<path opacity="0.75" fill="darkturquoise" d="M388.7931965529251 -94.02593752235302 L277.94194486851694 -62.02593752235301 L277.94194486851694 -57.69581050343082 L388.7931965529251 -89.69581050343082 L388.7931965529251 -94.02593752235302" stroke-linecap="square"/>
		<path opacity="0.75" fill="darkturquoise" d="M386.2931965529251 -96.19100103181411 L388.7931965529251 -94.02593752235302 L277.94194486851694 -62.02593752235301 L275.44194486851694 -64.19100103181411 L386.2931965529251 -96.19100103181411" stroke-linecap="square"/>
		<path opacity="0.75" fill="darkturquoise" d="M386.2931965529251 -91.86087401289191 L388.7931965529251 -89.69581050343082 L277.94194486851694 -57.69581050343082 L275.44194486851694 -59.86087401289191 L386.2931965529251 -91.86087401289191" stroke-linecap="square"/>
		<path opacity="0.5" fill="orange" d="M378.24097914174996 -110.80607966083863 L390.24097914174996 -100.41377481542537 L390.24097914174996 -79.62916512459884 L378.24097914174996 -90.0214699700121 L378.24097914174996 -110.80607966083863" stroke-linecap="square"/>
		<path opacity="0.5" fill="orange" d="M267.3897274573418 -78.80607966083863 L279.3897274573418 -68.41377481542537 L279.3897274573418 -47.62916512459884 L267.3897274573418 -58.021469970012106 L267.3897274573418 -78.80607966083863" stroke-linecap="square"/>
		<path opacity="0.5" fill="orange" d="M378.24097914174996 -110.80607966083863 L267.3897274573418 -78.80607966083863 L267.3897274573418 -58.021469970012106 L378.24097914174996 -90.0214699700121 L378.24097914174996 -110.80607966083863" stroke-linecap="square"/>
		<path opacity="0.5" fill="orange" d="M390.24097914174996 -100.41377481542537 L279.3897274573418 -68.41377481542537 L279.3897274573418 -47.62916512459884 L390.24097914174996 -79.62916512459884 L390.24097914174996 -100.41377481542537" stroke-linecap="square"/>
		<path opacity="0.5" fill="orange" d="M378.24097914174996 -110.80607966083863 L390.24097914174996 -100.41377481542537 L279.3897274573418 -68.41377481542537 L267.3897274573418 -78.80607966083863 L378.24097914174996 -110.80607966083863" stroke-linecap="square"/>
		<path opacity="0.5" fill="orange" d="M378.24097914174996 -90.0214699700121 L390.24097914174996 -79.62916512459884 L279.3897274573418 -47.62916512459884 L267.3897274573418 -58.021469970012106 L378.24097914174996 -90.0214699700121" stroke-linecap="square"/>
		<text style="fill:black;font-family:calibri;font-size:6" x="267.3897274573418" y="-68.41377481542537" >24</text>
		<text style="fill:black;font-family:calibri;font-size:6" x="273.3897274573418" y="-52.825317547305474" >24</text>
		<text style="fill:black;font-family:calibri;font-size:6" x="322.8153532995459" y="-94.80607966083863" >128</text>

<!-- Arrow -->
		<path opacity="0.5" stroke="black" d="M328.8153532995459 -89.609927238132 L328.8153532995459 -132.91119742735395" stroke-linecap="square"/>
		<circle opacity="0.5" cx="328.8153532995459" cy="-132.91119742735395" r="1" fill="black" />
		<path opacity="0.75" fill="pink" d="M84.43397742159675 -56.05202798581183 L86.93397742159675 -53.88696447635074 L127.38778097229749 -79.69351559510129 L84.43397742159675 -56.05202798581183"/>
		<path opacity="0.75" fill="pink" d="M84.43397742159675 -56.05202798581183 L84.43397742159675 -51.721900966889635 L127.38778097229749 -79.69351559510129 L84.43397742159675 -56.05202798581183"/>
		<path opacity="0.75" fill="pink" d="M86.93397742159675 -53.88696447635074 L86.93397742159675 -49.55683745742854 L127.38778097229749 -79.69351559510129 L86.93397742159675 -53.88696447635074"/>
		<path opacity="0.75" fill="pink" d="M84.43397742159675 -51.721900966889635 L86.93397742159675 -49.55683745742854 L127.38778097229749 -79.69351559510129 L84.43397742159675 -51.721900966889635"/>

		<text style="fill:black;font-family:calibri;font-size:6" x="99.58524527183033" y="-72.37277179045657" >[5,5]</text>
		<path opacity="0.75" fill="darkturquoise" d="M606.6793994002423 -163.18284004962914 L611.6793994002423 -158.85271303070695 L611.6793994002423 14.352367726180773 L606.6793994002423 10.02224070725859 L606.6793994002423 -163.18284004962914" stroke-linecap="square"/>
		<path opacity="0.75" fill="darkturquoise" d="M598.0191453623979 -160.68284004962914 L603.0191453623979 -156.35271303070695 L603.0191453623979 16.852367726180773 L598.0191453623979 12.52224070725859 L598.0191453623979 -160.68284004962914" stroke-linecap="square"/>
		<path opacity="0.75" fill="darkturquoise" d="M606.6793994002423 -163.18284004962914 L598.0191453623979 -160.68284004962914 L598.0191453623979 12.52224070725859 L606.6793994002423 10.02224070725859 L606.6793994002423 -163.18284004962914" stroke-linecap="square"/>
		<path opacity="0.75" fill="darkturquoise" d="M611.6793994002423 -158.85271303070695 L603.0191453623979 -156.35271303070695 L603.0191453623979 16.852367726180773 L611.6793994002423 14.352367726180773 L611.6793994002423 -158.85271303070695" stroke-linecap="square"/>
		<path opacity="0.75" fill="darkturquoise" d="M606.6793994002423 -163.18284004962914 L611.6793994002423 -158.85271303070695 L603.0191453623979 -156.35271303070695 L598.0191453623979 -160.68284004962914 L606.6793994002423 -163.18284004962914" stroke-linecap="square"/>
		<path opacity="0.75" fill="darkturquoise" d="M606.6793994002423 10.02224070725859 L611.6793994002423 14.352367726180773 L603.0191453623979 16.852367726180773 L598.0191453623979 12.52224070725859 L606.6793994002423 10.02224070725859" stroke-linecap="square"/>
		<text style="fill:black;font-family:calibri;font-size:6" x="598.0191453623979" y="-74.08029967118527" >200</text>
		<text style="fill:black;font-family:calibri;font-size:6" x="600.5191453623979" y="14.687304216719681" >10</text>
		<text style="fill:black;font-family:calibri;font-size:6" x="602.3492723813201" y="-161.93284004962914" >10</text>

<!-- Arrow -->
		<path opacity="0.5" stroke="black" d="M26.435935394489803 -106.2435565298214 L328.8153532995459 -132.91119742735395" stroke-linecap="square"/>
		<circle opacity="0.5" cx="328.8153532995459" cy="-132.91119742735395" r="1" fill="black" />
		<path opacity="0.75" fill="darkturquoise" d="M84.43397742159675 -56.05202798581183 L86.93397742159675 -53.88696447635074 L86.93397742159675 -49.55683745742854 L84.43397742159675 -51.721900966889635 L84.43397742159675 -56.05202798581183" stroke-linecap="square"/>
		<path opacity="0.75" fill="darkturquoise" d="M-26.41727426281136 -24.052027985811833 L-23.91727426281136 -21.88696447635074 L-23.91727426281136 -17.556837457428543 L-26.41727426281136 -19.721900966889635 L-26.41727426281136 -24.052027985811833" stroke-linecap="square"/>
		<path opacity="0.75" fill="darkturquoise" d="M84.43397742159675 -56.05202798581183 L-26.41727426281136 -24.052027985811833 L-26.41727426281136 -19.721900966889635 L84.43397742159675 -51.721900966889635 L84.43397742159675 -56.05202798581183" stroke-linecap="square"/>
		<path opacity="0.75" fill="darkturquoise" d="M86.93397742159675 -53.88696447635074 L-23.91727426281136 -21.88696447635074 L-23.91727426281136 -17.556837457428543 L86.93397742159675 -49.55683745742854 L86.93397742159675 -53.88696447635074" stroke-linecap="square"/>
		<path opacity="0.75" fill="darkturquoise" d="M84.43397742159675 -56.05202798581183 L86.93397742159675 -53.88696447635074 L-23.91727426281136 -21.88696447635074 L-26.41727426281136 -24.052027985811833 L84.43397742159675 -56.05202798581183" stroke-linecap="square"/>
		<path opacity="0.75" fill="darkturquoise" d="M84.43397742159675 -51.721900966889635 L86.93397742159675 -49.55683745742854 L-23.91727426281136 -17.556837457428543 L-26.41727426281136 -19.721900966889635 L84.43397742159675 -51.721900966889635" stroke-linecap="square"/>
		<path opacity="0.5" fill="orange" d="M73.86156123669386 -85.87048957087497 L89.86156123669389 -72.01408311032395 L89.86156123669389 -44.30127018922191 L73.86156123669386 -58.157676649772924 L73.86156123669386 -85.87048957087497" stroke-linecap="square"/>
		<path opacity="0.5" fill="orange" d="M-36.98969044771428 -53.870489570874966 L-20.98969044771428 -40.01408311032395 L-20.98969044771428 -12.30127018922191 L-36.98969044771428 -26.157676649772924 L-36.98969044771428 -53.870489570874966" stroke-linecap="square"/>
		<path opacity="0.5" fill="orange" d="M73.86156123669386 -85.87048957087497 L-36.98969044771428 -53.870489570874966 L-36.98969044771428 -26.157676649772924 L73.86156123669386 -58.157676649772924 L73.86156123669386 -85.87048957087497" stroke-linecap="square"/>
		<path opacity="0.5" fill="orange" d="M89.86156123669389 -72.01408311032395 L-20.98969044771428 -40.01408311032395 L-20.98969044771428 -12.30127018922191 L89.86156123669389 -44.30127018922191 L89.86156123669389 -72.01408311032395" stroke-linecap="square"/>
		<path opacity="0.5" fill="orange" d="M73.86156123669386 -85.87048957087497 L89.86156123669389 -72.01408311032395 L-20.98969044771428 -40.01408311032395 L-36.98969044771428 -53.870489570874966 L73.86156123669386 -85.87048957087497" stroke-linecap="square"/>
		<path opacity="0.5" fill="orange" d="M73.86156123669386 -58.157676649772924 L89.86156123669389 -44.30127018922191 L-20.98969044771428 -12.30127018922191 L-36.98969044771428 -26.157676649772924 L73.86156123669386 -58.157676649772924" stroke-linecap="square"/>
		<text style="fill:black;font-family:calibri;font-size:6" x="-36.98969044771428" y="-40.014083110323945" >32</text>
		<text style="fill:black;font-family:calibri;font-size:6" x="-28.98969044771428" y="-19.229473419497417" >32</text>
		<text style="fill:black;font-family:calibri;font-size:6" x="18.43593539448979" y="-69.87048957087497" >128</text>

<!-- Arrow -->
		<path opacity="0.5" stroke="black" d="M-105.29096063693623 -49.164718204934914 L-28.98969044771428 -33.08587988004844" stroke-linecap="square"/>
		<circle opacity="0.5" cx="-28.98969044771428" cy="-33.08587988004844" r="1" fill="black" />
		<path opacity="0.5" fill="orange" d="M-109.29096063693623 -59.55702305034818 L-101.29096063693623 -52.628819820072664 L-101.29096063693623 -38.77241335952165 L-109.29096063693623 -45.700616589797164 L-109.29096063693623 -59.55702305034818" stroke-linecap="square"/>
		<path opacity="0.5" fill="orange" d="M-164.71658647914023 -43.55702305034818 L-156.71658647914023 -36.628819820072664 L-156.71658647914023 -22.77241335952165 L-164.71658647914023 -29.700616589797164 L-164.71658647914023 -43.55702305034818" stroke-linecap="square"/>
		<path opacity="0.5" fill="orange" d="M-109.29096063693623 -59.55702305034818 L-164.71658647914023 -43.55702305034818 L-164.71658647914023 -29.700616589797164 L-109.29096063693623 -45.700616589797164 L-109.29096063693623 -59.55702305034818" stroke-linecap="square"/>
		<path opacity="0.5" fill="orange" d="M-101.29096063693623 -52.628819820072664 L-156.71658647914023 -36.628819820072664 L-156.71658647914023 -22.77241335952165 L-101.29096063693623 -38.77241335952165 L-101.29096063693623 -52.628819820072664" stroke-linecap="square"/>
		<path opacity="0.5" fill="orange" d="M-109.29096063693623 -59.55702305034818 L-101.29096063693623 -52.628819820072664 L-156.71658647914023 -36.628819820072664 L-164.71658647914023 -43.55702305034818 L-109.29096063693623 -59.55702305034818" stroke-linecap="square"/>
		<path opacity="0.5" fill="orange" d="M-109.29096063693623 -45.700616589797164 L-101.29096063693623 -38.77241335952165 L-156.71658647914023 -22.77241335952165 L-164.71658647914023 -29.700616589797164 L-109.29096063693623 -45.700616589797164" stroke-linecap="square"/>
		<text style="fill:black;font-family:calibri;font-size:6" x="-164.71658647914023" y="-36.62881982007267" >16</text>
		<text style="fill:black;font-family:calibri;font-size:6" x="-160.71658647914023" y="-26.236514974659407" >16</text>
		<text style="fill:black;font-family:calibri;font-size:6" x="-137.00377355803823" y="-51.55702305034818" >64</text>

<!-- Arrow -->
		<path opacity="0.5" stroke="black" d="M26.435935394489803 -62.942286340599466 L26.435935394489803 -106.2435565298214" stroke-linecap="square"/>
		<circle opacity="0.5" cx="26.435935394489803" cy="-106.2435565298214" r="1" fill="black" />
<!-- Arrow -->
		<path opacity="0.5" stroke="black" d="M-39.29096063693618 7.992958444838026 L600.5191453623979 -71.91523616172418" stroke-linecap="square"/>
		<circle opacity="0.5" cx="600.5191453623979" cy="-71.91523616172418" r="1" fill="black" />
<!-- Arrow -->
		<path opacity="0.5" stroke="black" d="M-39.29096063693618 7.992958444838026 L273.3897274573418 -63.21762239271874" stroke-linecap="square"/>
		<circle opacity="0.5" cx="273.3897274573418" cy="-63.21762239271874" r="1" fill="black" />
		<path opacity="0.75" fill="pink" d="M-208.49123156105907 -18.946816803902266 L-205.99123156105907 -16.781753294441174 L-157.69773585490202 -36.232701043378995 L-208.49123156105907 -18.946816803902266"/>
		<path opacity="0.75" fill="pink" d="M-208.49123156105907 -18.946816803902266 L-208.49123156105907 -14.616689784980082 L-157.69773585490202 -36.232701043378995 L-208.49123156105907 -18.946816803902266"/>
		<path opacity="0.75" fill="pink" d="M-205.99123156105907 -16.781753294441174 L-205.99123156105907 -12.45162627551899 L-157.69773585490202 -36.232701043378995 L-205.99123156105907 -16.781753294441174"/>
		<path opacity="0.75" fill="pink" d="M-208.49123156105907 -14.616689784980082 L-205.99123156105907 -12.45162627551899 L-157.69773585490202 -36.232701043378995 L-208.49123156105907 -14.616689784980082"/>

		<text style="fill:black;font-family:calibri;font-size:6" x="-190.72673299234006" y="-32.08975892364063" >[5,5]</text>
<!-- Arrow -->
		<path opacity="0.5" stroke="black" d="M125.43593539448983 36.65063509461097 L600.5191453623979 -71.91523616172418" stroke-linecap="square"/>
		<circle opacity="0.5" cx="600.5191453623979" cy="-71.91523616172418" r="1" fill="black" />
		<path opacity="0.75" fill="darkturquoise" d="M-208.49123156105907 -18.946816803902266 L-205.99123156105907 -16.781753294441174 L-205.99123156105907 -12.45162627551899 L-208.49123156105907 -14.616689784980082 L-208.49123156105907 -18.946816803902266" stroke-linecap="square"/>
		<path opacity="0.75" fill="darkturquoise" d="M-236.20404448216107 -10.946816803902266 L-233.70404448216107 -8.781753294441174 L-233.70404448216107 -4.45162627551899 L-236.20404448216107 -6.616689784980082 L-236.20404448216107 -10.946816803902266" stroke-linecap="square"/>
		<path opacity="0.75" fill="darkturquoise" d="M-208.49123156105907 -18.946816803902266 L-236.20404448216107 -10.946816803902266 L-236.20404448216107 -6.616689784980082 L-208.49123156105907 -14.616689784980082 L-208.49123156105907 -18.946816803902266" stroke-linecap="square"/>
		<path opacity="0.75" fill="darkturquoise" d="M-205.99123156105907 -16.781753294441174 L-233.70404448216107 -8.781753294441174 L-233.70404448216107 -4.45162627551899 L-205.99123156105907 -12.45162627551899 L-205.99123156105907 -16.781753294441174" stroke-linecap="square"/>
		<path opacity="0.75" fill="darkturquoise" d="M-208.49123156105907 -18.946816803902266 L-205.99123156105907 -16.781753294441174 L-233.70404448216107 -8.781753294441174 L-236.20404448216107 -10.946816803902266 L-208.49123156105907 -18.946816803902266" stroke-linecap="square"/>
		<path opacity="0.75" fill="darkturquoise" d="M-208.49123156105907 -14.616689784980082 L-205.99123156105907 -12.45162627551899 L-233.70404448216107 -4.45162627551899 L-236.20404448216107 -6.616689784980082 L-208.49123156105907 -14.616689784980082" stroke-linecap="square"/>
		<path opacity="0.5" fill="orange" d="M-212.01785666836224 -41.44932789576144 L-196.01785666836224 -27.592921435210428 L-196.01785666836224 0.11989148589161402 L-212.01785666836224 -13.7365149746594 L-212.01785666836224 -41.44932789576144" stroke-linecap="square"/>
		<path opacity="0.5" fill="orange" d="M-239.73066958946424 -33.44932789576144 L-223.73066958946424 -19.592921435210428 L-223.73066958946424 8.119891485891614 L-239.73066958946424 -5.7365149746594 L-239.73066958946424 -33.44932789576144" stroke-linecap="square"/>
		<path opacity="0.5" fill="orange" d="M-212.01785666836224 -41.44932789576144 L-239.73066958946424 -33.44932789576144 L-239.73066958946424 -5.7365149746594 L-212.01785666836224 -13.7365149746594 L-212.01785666836224 -41.44932789576144" stroke-linecap="square"/>
		<path opacity="0.5" fill="orange" d="M-196.01785666836224 -27.592921435210428 L-223.73066958946424 -19.592921435210428 L-223.73066958946424 8.119891485891614 L-196.01785666836224 0.11989148589161402 L-196.01785666836224 -27.592921435210428" stroke-linecap="square"/>
		<path opacity="0.5" fill="orange" d="M-212.01785666836224 -41.44932789576144 L-196.01785666836224 -27.592921435210428 L-223.73066958946424 -19.592921435210428 L-239.73066958946424 -33.44932789576144 L-212.01785666836224 -41.44932789576144" stroke-linecap="square"/>
		<path opacity="0.5" fill="orange" d="M-212.01785666836224 -13.7365149746594 L-196.01785666836224 0.11989148589161402 L-223.73066958946424 8.119891485891614 L-239.73066958946424 -5.7365149746594 L-212.01785666836224 -13.7365149746594" stroke-linecap="square"/>
		<text style="fill:black;font-family:calibri;font-size:6" x="-239.73066958946424" y="-19.59292143521042" >32</text>
		<text style="fill:black;font-family:calibri;font-size:6" x="-231.73066958946424" y="1.191688255616107" >32</text>
		<text style="fill:black;font-family:calibri;font-size:6" x="-225.87426312891324" y="-37.44932789576144" >32</text>

<!-- Arrow -->
		<path opacity="0.5" stroke="black" d="M125.43593539448983 36.65063509461097 L273.3897274573418 -63.21762239271874" stroke-linecap="square"/>
		<circle opacity="0.5" cx="273.3897274573418" cy="-63.21762239271874" r="1" fill="black" />
<!-- Arrow -->
		<path opacity="0.5" stroke="black" d="M-39.29096063693618 7.992958444838026 L-28.98969044771428 -33.08587988004844" stroke-linecap="square"/>
		<circle opacity="0.5" cx="-28.98969044771428" cy="-33.08587988004844" r="1" fill="black" />
<!-- Arrow -->
		<path opacity="0.5" stroke="black" d="M477.3153532995459 49.387150069270376 L600.5191453623979 -71.91523616172418" stroke-linecap="square"/>
		<circle opacity="0.5" cx="600.5191453623979" cy="-71.91523616172418" r="1" fill="black" />
		<path opacity="0.75" fill="pink" d="M-276.7478869564916 -14.381181550311283 L-271.7478869564916 -10.051054531389084 L-225.29268054566228 -12.194194565570186 L-276.7478869564916 -14.381181550311283"/>
		<path opacity="0.75" fill="pink" d="M-276.7478869564916 -14.381181550311283 L-276.7478869564916 -5.720927512466886 L-225.29268054566228 -12.194194565570186 L-276.7478869564916 -14.381181550311283"/>
		<path opacity="0.75" fill="pink" d="M-271.7478869564916 -10.051054531389084 L-271.7478869564916 -1.3908004935447025 L-225.29268054566228 -12.194194565570186 L-271.7478869564916 -10.051054531389084"/>
		<path opacity="0.75" fill="pink" d="M-276.7478869564916 -5.720927512466886 L-271.7478869564916 -1.3908004935447025 L-225.29268054566228 -12.194194565570186 L-276.7478869564916 -5.720927512466886"/>

		<text style="fill:black;font-family:calibri;font-size:6" x="-257.92948481954846" y="-17.787688057940734" >[10,10]</text>
		<path opacity="0.75" fill="darkturquoise" d="M-276.7478869564916 -14.381181550311283 L-271.7478869564916 -10.051054531389084 L-271.7478869564916 -1.3908004935447025 L-276.7478869564916 -5.720927512466886 L-276.7478869564916 -14.381181550311283" stroke-linecap="square"/>
		<path opacity="0.75" fill="darkturquoise" d="M-294.0683950321803 -9.381181550311283 L-289.0683950321803 -5.0510545313890844 L-289.0683950321803 3.6091995064552975 L-294.0683950321803 -0.7209275124668864 L-294.0683950321803 -9.381181550311283" stroke-linecap="square"/>
		<path opacity="0.75" fill="darkturquoise" d="M-276.7478869564916 -14.381181550311283 L-294.0683950321803 -9.381181550311283 L-294.0683950321803 -0.7209275124668864 L-276.7478869564916 -5.720927512466886 L-276.7478869564916 -14.381181550311283" stroke-linecap="square"/>
		<path opacity="0.75" fill="darkturquoise" d="M-271.7478869564916 -10.051054531389084 L-289.0683950321803 -5.0510545313890844 L-289.0683950321803 3.6091995064552975 L-271.7478869564916 -1.3908004935447025 L-271.7478869564916 -10.051054531389084" stroke-linecap="square"/>
		<path opacity="0.75" fill="darkturquoise" d="M-276.7478869564916 -14.381181550311283 L-271.7478869564916 -10.051054531389084 L-289.0683950321803 -5.0510545313890844 L-294.0683950321803 -9.381181550311283 L-276.7478869564916 -14.381181550311283" stroke-linecap="square"/>
		<path opacity="0.75" fill="darkturquoise" d="M-276.7478869564916 -5.720927512466886 L-271.7478869564916 -1.3908004935447025 L-289.0683950321803 3.6091995064552975 L-294.0683950321803 -0.7209275124668864 L-276.7478869564916 -5.720927512466886" stroke-linecap="square"/>
		<path opacity="0.5" fill="lavender" d="M-283.03193977868614 -20.949327895761442 L-267.03193977868614 -7.092921435210428 L-267.03193977868614 20.619891485891614 L-283.03193977868614 6.7634850253406 L-283.03193977868614 -20.949327895761442" stroke-linecap="square"/>
		<path opacity="0.5" fill="lavender" d="M-300.352447854375 -15.949327895761442 L-284.352447854375 -2.092921435210428 L-284.352447854375 25.619891485891614 L-300.352447854375 11.7634850253406 L-300.352447854375 -15.949327895761442" stroke-linecap="square"/>
		<path opacity="0.5" fill="lavender" d="M-283.03193977868614 -20.949327895761442 L-300.352447854375 -15.949327895761442 L-300.352447854375 11.7634850253406 L-283.03193977868614 6.7634850253406 L-283.03193977868614 -20.949327895761442" stroke-linecap="square"/>
		<path opacity="0.5" fill="lavender" d="M-267.03193977868614 -7.092921435210428 L-284.352447854375 -2.092921435210428 L-284.352447854375 25.619891485891614 L-267.03193977868614 20.619891485891614 L-267.03193977868614 -7.092921435210428" stroke-linecap="square"/>
		<path opacity="0.5" fill="lavender" d="M-283.03193977868614 -20.949327895761442 L-267.03193977868614 -7.092921435210428 L-284.352447854375 -2.092921435210428 L-300.352447854375 -15.949327895761442 L-283.03193977868614 -20.949327895761442" stroke-linecap="square"/>
		<path opacity="0.5" fill="lavender" d="M-283.03193977868614 6.7634850253406 L-267.03193977868614 20.619891485891614 L-284.352447854375 25.619891485891614 L-300.352447854375 11.7634850253406 L-283.03193977868614 6.7634850253406" stroke-linecap="square"/>
		<text style="fill:black;font-family:calibri;font-size:6" x="-300.352447854375" y="-2.092921435210421" >32</text>
		<text style="fill:black;font-family:calibri;font-size:6" x="-292.352447854375" y="18.691688255616107" >32</text>
		<text style="fill:black;font-family:calibri;font-size:6" x="-291.69219381653056" y="-18.449327895761442" >20</text>

		<path opacity="0.5" fill="orange" d="M-43.29096063693618 -2.39934640057524 L-35.29096063693618 4.528856829700274 L-35.29096063693618 18.385263290251288 L-43.29096063693618 11.457060059975781 L-43.29096063693618 -2.39934640057524" stroke-linecap="square"/>
		<path opacity="0.5" fill="orange" d="M-98.71658647914023 13.60065359942476 L-90.71658647914023 20.528856829700274 L-90.71658647914023 34.38526329025129 L-98.71658647914023 27.45706005997578 L-98.71658647914023 13.60065359942476" stroke-linecap="square"/>
		<path opacity="0.5" fill="orange" d="M-43.29096063693618 -2.39934640057524 L-98.71658647914023 13.60065359942476 L-98.71658647914023 27.45706005997578 L-43.29096063693618 11.457060059975781 L-43.29096063693618 -2.39934640057524" stroke-linecap="square"/>
		<path opacity="0.5" fill="orange" d="M-35.29096063693618 4.528856829700274 L-90.71658647914023 20.528856829700274 L-90.71658647914023 34.38526329025129 L-35.29096063693618 18.385263290251288 L-35.29096063693618 4.528856829700274" stroke-linecap="square"/>
		<path opacity="0.5" fill="orange" d="M-43.29096063693618 -2.39934640057524 L-35.29096063693618 4.528856829700274 L-90.71658647914023 20.528856829700274 L-98.71658647914023 13.60065359942476 L-43.29096063693618 -2.39934640057524" stroke-linecap="square"/>
		<path opacity="0.5" fill="orange" d="M-43.29096063693618 11.457060059975781 L-35.29096063693618 18.385263290251288 L-90.71658647914023 34.38526329025129 L-98.71658647914023 27.45706005997578 L-43.29096063693618 11.457060059975781" stroke-linecap="square"/>
		<text style="fill:black;font-family:calibri;font-size:6" x="-98.71658647914023" y="20.52885682970027" >16</text>
		<text style="fill:black;font-family:calibri;font-size:6" x="-94.71658647914023" y="30.921161675113535" >16</text>
		<text style="fill:black;font-family:calibri;font-size:6" x="-71.0037735580382" y="5.60065359942476" >64</text>

		<path opacity="0.75" fill="pink" d="M-137.0762297305905 35.480836566737466 L-134.5762297305905 37.64590007619856 L-95.49206628857127 26.679972089724075 L-137.0762297305905 35.480836566737466"/>
		<path opacity="0.75" fill="pink" d="M-137.0762297305905 35.480836566737466 L-137.0762297305905 39.810963585659664 L-95.49206628857127 26.679972089724075 L-137.0762297305905 35.480836566737466"/>
		<path opacity="0.75" fill="pink" d="M-134.5762297305905 37.64590007619856 L-134.5762297305905 41.976027095120756 L-95.49206628857127 26.679972089724075 L-134.5762297305905 37.64590007619856"/>
		<path opacity="0.75" fill="pink" d="M-137.0762297305905 39.810963585659664 L-134.5762297305905 41.976027095120756 L-95.49206628857127 26.679972089724075 L-137.0762297305905 39.810963585659664"/>

		<text style="fill:black;font-family:calibri;font-size:6" x="-122.38150858325076" y="26.58040432823077" >[5,5]</text>
		<path opacity="0.75" fill="darkturquoise" d="M-137.0762297305905 35.480836566737466 L-134.5762297305905 37.64590007619856 L-134.5762297305905 41.976027095120756 L-137.0762297305905 39.810963585659664 L-137.0762297305905 35.480836566737466" stroke-linecap="square"/>
		<path opacity="0.75" fill="darkturquoise" d="M-164.7890426516925 43.480836566737466 L-162.2890426516925 45.64590007619856 L-162.2890426516925 49.976027095120756 L-164.7890426516925 47.810963585659664 L-164.7890426516925 43.480836566737466" stroke-linecap="square"/>
		<path opacity="0.75" fill="darkturquoise" d="M-137.0762297305905 35.480836566737466 L-164.7890426516925 43.480836566737466 L-164.7890426516925 47.810963585659664 L-137.0762297305905 39.810963585659664 L-137.0762297305905 35.480836566737466" stroke-linecap="square"/>
		<path opacity="0.75" fill="darkturquoise" d="M-134.5762297305905 37.64590007619856 L-162.2890426516925 45.64590007619856 L-162.2890426516925 49.976027095120756 L-134.5762297305905 41.976027095120756 L-134.5762297305905 37.64590007619856" stroke-linecap="square"/>
		<path opacity="0.75" fill="darkturquoise" d="M-137.0762297305905 35.480836566737466 L-134.5762297305905 37.64590007619856 L-162.2890426516925 45.64590007619856 L-164.7890426516925 43.480836566737466 L-137.0762297305905 35.480836566737466" stroke-linecap="square"/>
		<path opacity="0.75" fill="darkturquoise" d="M-137.0762297305905 39.810963585659664 L-134.5762297305905 41.976027095120756 L-162.2890426516925 49.976027095120756 L-164.7890426516925 47.810963585659664 L-137.0762297305905 39.810963585659664" stroke-linecap="square"/>
		<path opacity="0.5" fill="orange" d="M-146.01785666836219 15.708348754011496 L-130.01785666836219 29.564755214562517 L-130.01785666836219 57.27756813566455 L-146.01785666836219 43.42116167511354 L-146.01785666836219 15.708348754011496" stroke-linecap="square"/>
		<path opacity="0.5" fill="orange" d="M-173.73066958946418 23.708348754011496 L-157.73066958946418 37.56475521456252 L-157.73066958946418 65.27756813566455 L-173.73066958946418 51.42116167511354 L-173.73066958946418 23.708348754011496" stroke-linecap="square"/>
		<path opacity="0.5" fill="orange" d="M-146.01785666836219 15.708348754011496 L-173.73066958946418 23.708348754011496 L-173.73066958946418 51.42116167511354 L-146.01785666836219 43.42116167511354 L-146.01785666836219 15.708348754011496" stroke-linecap="square"/>
		<path opacity="0.5" fill="orange" d="M-130.01785666836219 29.564755214562517 L-157.73066958946418 37.56475521456252 L-157.73066958946418 65.27756813566455 L-130.01785666836219 57.27756813566455 L-130.01785666836219 29.564755214562517" stroke-linecap="square"/>
		<path opacity="0.5" fill="orange" d="M-146.01785666836219 15.708348754011496 L-130.01785666836219 29.564755214562517 L-157.73066958946418 37.56475521456252 L-173.73066958946418 23.708348754011496 L-146.01785666836219 15.708348754011496" stroke-linecap="square"/>
		<path opacity="0.5" fill="orange" d="M-146.01785666836219 43.42116167511354 L-130.01785666836219 57.27756813566455 L-157.73066958946418 65.27756813566455 L-173.73066958946418 51.42116167511354 L-146.01785666836219 43.42116167511354" stroke-linecap="square"/>
		<text style="fill:black;font-family:calibri;font-size:6" x="-173.73066958946418" y="37.56475521456252" >32</text>
		<text style="fill:black;font-family:calibri;font-size:6" x="-165.73066958946418" y="58.349364905389045" >32</text>
		<text style="fill:black;font-family:calibri;font-size:6" x="-159.87426312891319" y="19.708348754011496" >32</text>

		<path opacity="0.5" fill="orange" d="M123.43593539448983 31.45448267190433 L127.43593539448983 34.918584287042094 L127.43593539448983 41.84678751731761 L123.43593539448983 38.382685902179844 L123.43593539448983 31.45448267190433" stroke-linecap="square"/>
		<path opacity="0.5" fill="orange" d="M68.01030955228575 47.45448267190433 L72.01030955228575 50.918584287042094 L72.01030955228575 57.84678751731761 L68.01030955228575 54.382685902179844 L68.01030955228575 47.45448267190433" stroke-linecap="square"/>
		<path opacity="0.5" fill="orange" d="M123.43593539448983 31.45448267190433 L68.01030955228575 47.45448267190433 L68.01030955228575 54.382685902179844 L123.43593539448983 38.382685902179844 L123.43593539448983 31.45448267190433" stroke-linecap="square"/>
		<path opacity="0.5" fill="orange" d="M127.43593539448983 34.918584287042094 L72.01030955228575 50.918584287042094 L72.01030955228575 57.84678751731761 L127.43593539448983 41.84678751731761 L127.43593539448983 34.918584287042094" stroke-linecap="square"/>
		<path opacity="0.5" fill="orange" d="M123.43593539448983 31.45448267190433 L127.43593539448983 34.918584287042094 L72.01030955228575 50.918584287042094 L68.01030955228575 47.45448267190433 L123.43593539448983 31.45448267190433" stroke-linecap="square"/>
		<path opacity="0.5" fill="orange" d="M123.43593539448983 38.382685902179844 L127.43593539448983 41.84678751731761 L72.01030955228575 57.84678751731761 L68.01030955228575 54.382685902179844 L123.43593539448983 38.382685902179844" stroke-linecap="square"/>
		<text style="fill:black;font-family:calibri;font-size:6" x="68.01030955228575" y="50.91858428704209" >8</text>
		<text style="fill:black;font-family:calibri;font-size:6" x="70.01030955228575" y="56.114736709748726" >8</text>
		<text style="fill:black;font-family:calibri;font-size:6" x="95.72312247338779" y="39.45448267190433" >64</text>

		<path opacity="0.75" fill="pink" d="M-208.8348434879864 60.178283706441476 L-203.8348434879864 64.50841072536366 L-168.35882459036577 39.88158947976555 L-208.8348434879864 60.178283706441476"/>
		<path opacity="0.75" fill="pink" d="M-208.8348434879864 60.178283706441476 L-208.8348434879864 68.83853774428584 L-168.35882459036577 39.88158947976555 L-208.8348434879864 60.178283706441476"/>
		<path opacity="0.75" fill="pink" d="M-203.8348434879864 64.50841072536366 L-203.8348434879864 73.16866476320804 L-168.35882459036577 39.88158947976555 L-203.8348434879864 64.50841072536366"/>
		<path opacity="0.75" fill="pink" d="M-208.8348434879864 68.83853774428584 L-203.8348434879864 73.16866476320804 L-168.35882459036577 39.88158947976555 L-208.8348434879864 68.83853774428584"/>

		<text style="fill:black;font-family:calibri;font-size:6" x="-193.67617052211287" y="45.529936593103514" >[10,10]</text>
		<path opacity="0.5" fill="orange" d="M473.3153532995459 38.99484522385711 L481.3153532995459 45.923048454132626 L481.3153532995459 59.77945491468364 L473.3153532995459 52.851251684408126 L473.3153532995459 38.99484522385711" stroke-linecap="square"/>
		<path opacity="0.5" fill="orange" d="M417.88972745734185 54.99484522385711 L425.88972745734185 61.923048454132626 L425.88972745734185 75.77945491468364 L417.88972745734185 68.85125168440813 L417.88972745734185 54.99484522385711" stroke-linecap="square"/>
		<path opacity="0.5" fill="orange" d="M473.3153532995459 38.99484522385711 L417.88972745734185 54.99484522385711 L417.88972745734185 68.85125168440813 L473.3153532995459 52.851251684408126 L473.3153532995459 38.99484522385711" stroke-linecap="square"/>
		<path opacity="0.5" fill="orange" d="M481.3153532995459 45.923048454132626 L425.88972745734185 61.923048454132626 L425.88972745734185 75.77945491468364 L481.3153532995459 59.77945491468364 L481.3153532995459 45.923048454132626" stroke-linecap="square"/>
		<path opacity="0.5" fill="orange" d="M473.3153532995459 38.99484522385711 L481.3153532995459 45.923048454132626 L425.88972745734185 61.923048454132626 L417.88972745734185 54.99484522385711 L473.3153532995459 38.99484522385711" stroke-linecap="square"/>
		<path opacity="0.5" fill="orange" d="M473.3153532995459 52.851251684408126 L481.3153532995459 59.77945491468364 L425.88972745734185 75.77945491468364 L417.88972745734185 68.85125168440813 L473.3153532995459 52.851251684408126" stroke-linecap="square"/>
		<text style="fill:black;font-family:calibri;font-size:6" x="417.88972745734185" y="61.92304845413262" >16</text>
		<text style="fill:black;font-family:calibri;font-size:6" x="421.88972745734185" y="72.31535329954588" >16</text>
		<text style="fill:black;font-family:calibri;font-size:6" x="445.6025403784439" y="46.99484522385711" >64</text>

		<path opacity="0.75" fill="darkturquoise" d="M-208.8348434879864 60.178283706441476 L-203.8348434879864 64.50841072536366 L-203.8348434879864 73.16866476320804 L-208.8348434879864 68.83853774428584 L-208.8348434879864 60.178283706441476" stroke-linecap="square"/>
		<path opacity="0.75" fill="darkturquoise" d="M-226.1553515636752 65.17828370644148 L-221.1553515636752 69.50841072536366 L-221.1553515636752 78.16866476320804 L-226.1553515636752 73.83853774428584 L-226.1553515636752 65.17828370644148" stroke-linecap="square"/>
		<path opacity="0.75" fill="darkturquoise" d="M-208.8348434879864 60.178283706441476 L-226.1553515636752 65.17828370644148 L-226.1553515636752 73.83853774428584 L-208.8348434879864 68.83853774428584 L-208.8348434879864 60.178283706441476" stroke-linecap="square"/>
		<path opacity="0.75" fill="darkturquoise" d="M-203.8348434879864 64.50841072536366 L-221.1553515636752 69.50841072536366 L-221.1553515636752 78.16866476320804 L-203.8348434879864 73.16866476320804 L-203.8348434879864 64.50841072536366" stroke-linecap="square"/>
		<path opacity="0.75" fill="darkturquoise" d="M-208.8348434879864 60.178283706441476 L-203.8348434879864 64.50841072536366 L-221.1553515636752 69.50841072536366 L-226.1553515636752 65.17828370644148 L-208.8348434879864 60.178283706441476" stroke-linecap="square"/>
		<path opacity="0.75" fill="darkturquoise" d="M-208.8348434879864 68.83853774428584 L-203.8348434879864 73.16866476320804 L-221.1553515636752 78.16866476320804 L-226.1553515636752 73.83853774428584 L-208.8348434879864 68.83853774428584" stroke-linecap="square"/>
		<path opacity="0.5" fill="lavender" d="M-217.03193977868614 36.208348754011496 L-201.03193977868614 50.064755214562524 L-201.03193977868614 77.77756813566455 L-217.03193977868614 63.92116167511354 L-217.03193977868614 36.208348754011496" stroke-linecap="square"/>
		<path opacity="0.5" fill="lavender" d="M-234.35244785437493 41.208348754011496 L-218.35244785437493 55.064755214562524 L-218.35244785437493 82.77756813566455 L-234.35244785437493 68.92116167511354 L-234.35244785437493 41.208348754011496" stroke-linecap="square"/>
		<path opacity="0.5" fill="lavender" d="M-217.03193977868614 36.208348754011496 L-234.35244785437493 41.208348754011496 L-234.35244785437493 68.92116167511354 L-217.03193977868614 63.92116167511354 L-217.03193977868614 36.208348754011496" stroke-linecap="square"/>
		<path opacity="0.5" fill="lavender" d="M-201.03193977868614 50.064755214562524 L-218.35244785437493 55.064755214562524 L-218.35244785437493 82.77756813566455 L-201.03193977868614 77.77756813566455 L-201.03193977868614 50.064755214562524" stroke-linecap="square"/>
		<path opacity="0.5" fill="lavender" d="M-217.03193977868614 36.208348754011496 L-201.03193977868614 50.064755214562524 L-218.35244785437493 55.064755214562524 L-234.35244785437493 41.208348754011496 L-217.03193977868614 36.208348754011496" stroke-linecap="square"/>
		<path opacity="0.5" fill="lavender" d="M-217.03193977868614 63.92116167511354 L-201.03193977868614 77.77756813566455 L-218.35244785437493 82.77756813566455 L-234.35244785437493 68.92116167511354 L-217.03193977868614 63.92116167511354" stroke-linecap="square"/>
		<text style="fill:black;font-family:calibri;font-size:6" x="-234.35244785437493" y="55.06475521456252" >32</text>
		<text style="fill:black;font-family:calibri;font-size:6" x="-226.35244785437493" y="75.84936490538905" >32</text>
		<text style="fill:black;font-family:calibri;font-size:6" x="-225.69219381653053" y="38.708348754011496" >20</text>

		<path opacity="0.75" fill="pink" d="M27.01574246788249 59.19413439619322 L29.51574246788249 61.35919790565433 L69.04038184892764 48.83615373169356 L27.01574246788249 59.19413439619322"/>
		<path opacity="0.75" fill="pink" d="M27.01574246788249 59.19413439619322 L27.01574246788249 63.52426141511542 L69.04038184892764 48.83615373169356 L27.01574246788249 59.19413439619322"/>
		<path opacity="0.75" fill="pink" d="M29.51574246788249 61.35919790565433 L29.51574246788249 65.68932492457651 L69.04038184892764 48.83615373169356 L29.51574246788249 61.35919790565433"/>
		<path opacity="0.75" fill="pink" d="M27.01574246788249 63.52426141511542 L29.51574246788249 65.68932492457651 L69.04038184892764 48.83615373169356 L27.01574246788249 63.52426141511542"/>

		<text style="fill:black;font-family:calibri;font-size:6" x="41.85728892823087" y="49.51514406394339" >[5,5]</text>
		<path opacity="0.75" fill="pink" d="M375.2281843175382 69.40645005316671 L377.7281843175382 71.57151356262781 L422.84764601531333 69.8902824368931 L375.2281843175382 69.40645005316671"/>
		<path opacity="0.75" fill="pink" d="M375.2281843175382 69.40645005316671 L375.2281843175382 73.73657707208889 L422.84764601531333 69.8902824368931 L375.2281843175382 69.40645005316671"/>
		<path opacity="0.75" fill="pink" d="M377.7281843175382 71.57151356262781 L377.7281843175382 75.90164058155 L422.84764601531333 69.8902824368931 L377.7281843175382 71.57151356262781"/>
		<path opacity="0.75" fill="pink" d="M375.2281843175382 73.73657707208889 L377.7281843175382 75.90164058155 L422.84764601531333 69.8902824368931 L375.2281843175382 73.73657707208889"/>

		<text style="fill:black;font-family:calibri;font-size:6" x="391.9346715501299" y="65.1483662450299" >[5,5]</text>
		<path opacity="0.75" fill="darkturquoise" d="M27.01574246788249 59.19413439619322 L29.51574246788249 61.35919790565433 L29.51574246788249 65.68932492457651 L27.01574246788249 63.52426141511542 L27.01574246788249 59.19413439619322" stroke-linecap="square"/>
		<path opacity="0.75" fill="darkturquoise" d="M-28.409883374321566 75.19413439619322 L-25.909883374321566 77.35919790565433 L-25.909883374321566 81.68932492457651 L-28.409883374321566 79.52426141511542 L-28.409883374321566 75.19413439619322" stroke-linecap="square"/>
		<path opacity="0.75" fill="darkturquoise" d="M27.01574246788249 59.19413439619322 L-28.409883374321566 75.19413439619322 L-28.409883374321566 79.52426141511542 L27.01574246788249 63.52426141511542 L27.01574246788249 59.19413439619322" stroke-linecap="square"/>
		<path opacity="0.75" fill="darkturquoise" d="M29.51574246788249 61.35919790565433 L-25.909883374321566 77.35919790565433 L-25.909883374321566 81.68932492457651 L29.51574246788249 65.68932492457651 L29.51574246788249 61.35919790565433" stroke-linecap="square"/>
		<path opacity="0.75" fill="darkturquoise" d="M27.01574246788249 59.19413439619322 L29.51574246788249 61.35919790565433 L-25.909883374321566 77.35919790565433 L-28.409883374321566 75.19413439619322 L27.01574246788249 59.19413439619322" stroke-linecap="square"/>
		<path opacity="0.75" fill="darkturquoise" d="M27.01574246788249 63.52426141511542 L29.51574246788249 65.68932492457651 L-25.909883374321566 81.68932492457651 L-28.409883374321566 79.52426141511542 L27.01574246788249 63.52426141511542" stroke-linecap="square"/>
		<path opacity="0.5" fill="orange" d="M22.709039363063823 54.75833024919771 L30.709039363063823 61.68653347947321 L30.709039363063823 75.54293994002424 L22.709039363063823 68.61473670974873 L22.709039363063823 54.75833024919771" stroke-linecap="square"/>
		<path opacity="0.5" fill="orange" d="M-32.71658647914023 70.75833024919771 L-24.716586479140233 77.68653347947321 L-24.716586479140233 91.54293994002424 L-32.71658647914023 84.61473670974873 L-32.71658647914023 70.75833024919771" stroke-linecap="square"/>
		<path opacity="0.5" fill="orange" d="M22.709039363063823 54.75833024919771 L-32.71658647914023 70.75833024919771 L-32.71658647914023 84.61473670974873 L22.709039363063823 68.61473670974873 L22.709039363063823 54.75833024919771" stroke-linecap="square"/>
		<path opacity="0.5" fill="orange" d="M30.709039363063823 61.68653347947321 L-24.716586479140233 77.68653347947321 L-24.716586479140233 91.54293994002424 L30.709039363063823 75.54293994002424 L30.709039363063823 61.68653347947321" stroke-linecap="square"/>
		<path opacity="0.5" fill="orange" d="M22.709039363063823 54.75833024919771 L30.709039363063823 61.68653347947321 L-24.716586479140233 77.68653347947321 L-32.71658647914023 70.75833024919771 L22.709039363063823 54.75833024919771" stroke-linecap="square"/>
		<path opacity="0.5" fill="orange" d="M22.709039363063823 68.61473670974873 L30.709039363063823 75.54293994002424 L-24.716586479140233 91.54293994002424 L-32.71658647914023 84.61473670974873 L22.709039363063823 68.61473670974873" stroke-linecap="square"/>
		<text style="fill:black;font-family:calibri;font-size:6" x="-32.71658647914023" y="77.68653347947321" >16</text>
		<text style="fill:black;font-family:calibri;font-size:6" x="-28.716586479140233" y="88.07883832488648" >16</text>
		<text style="fill:black;font-family:calibri;font-size:6" x="-5.003773558038205" y="62.75833024919771" >64</text>

		<path opacity="0.75" fill="pink" d="M-72.54040383892271 84.30687393607664 L-70.04040383892266 86.47193744553773 L-27.200389735774934 81.69772043367243 L-72.54040383892271 84.30687393607664"/>
		<path opacity="0.75" fill="pink" d="M-72.54040383892271 84.30687393607664 L-72.54040383892271 88.63700095499884 L-27.200389735774934 81.69772043367243 L-72.54040383892271 84.30687393607664"/>
		<path opacity="0.75" fill="pink" d="M-70.04040383892266 86.47193744553773 L-70.04040383892266 90.80206446445993 L-27.200389735774934 81.69772043367243 L-70.04040383892266 86.47193744553773"/>
		<path opacity="0.75" fill="pink" d="M-72.54040383892271 88.63700095499884 L-70.04040383892266 90.80206446445993 L-27.200389735774934 81.69772043367243 L-72.54040383892271 88.63700095499884"/>

		<text style="fill:black;font-family:calibri;font-size:6" x="-56.59373247120677" y="78.50229718487454" >[5,5]</text>
		<path opacity="0.75" fill="darkturquoise" d="M375.2281843175382 69.40645005316671 L377.7281843175382 71.57151356262781 L377.7281843175382 75.90164058155 L375.2281843175382 73.73657707208889 L375.2281843175382 69.40645005316671" stroke-linecap="square"/>
		<path opacity="0.75" fill="darkturquoise" d="M264.37693263313 101.40645005316671 L266.8769326331301 103.57151356262781 L266.8769326331301 107.90164058155 L264.37693263313 105.73657707208889 L264.37693263313 101.40645005316671" stroke-linecap="square"/>
		<path opacity="0.75" fill="darkturquoise" d="M375.2281843175382 69.40645005316671 L264.37693263313 101.40645005316671 L264.37693263313 105.73657707208889 L375.2281843175382 73.73657707208889 L375.2281843175382 69.40645005316671" stroke-linecap="square"/>
		<path opacity="0.75" fill="darkturquoise" d="M377.7281843175382 71.57151356262781 L266.8769326331301 103.57151356262781 L266.8769326331301 107.90164058155 L377.7281843175382 75.90164058155 L377.7281843175382 71.57151356262781" stroke-linecap="square"/>
		<path opacity="0.75" fill="darkturquoise" d="M375.2281843175382 69.40645005316671 L377.7281843175382 71.57151356262781 L266.8769326331301 103.57151356262781 L264.37693263313 101.40645005316671 L375.2281843175382 69.40645005316671" stroke-linecap="square"/>
		<path opacity="0.75" fill="darkturquoise" d="M375.2281843175382 73.73657707208889 L377.7281843175382 75.90164058155 L266.8769326331301 107.90164058155 L264.37693263313 105.73657707208889 L375.2281843175382 73.73657707208889" stroke-linecap="square"/>
		<path opacity="0.5" fill="orange" d="M374.5884572681199 67.49484522385711 L382.5884572681199 74.42304845413263 L382.5884572681199 88.27945491468364 L374.5884572681199 81.35125168440813 L374.5884572681199 67.49484522385711" stroke-linecap="square"/>
		<path opacity="0.5" fill="orange" d="M263.7372055837118 99.49484522385711 L271.7372055837118 106.42304845413264 L271.7372055837118 120.27945491468364 L263.7372055837118 113.35125168440811 L263.7372055837118 99.49484522385711" stroke-linecap="square"/>
		<path opacity="0.5" fill="orange" d="M374.5884572681199 67.49484522385711 L263.7372055837118 99.49484522385711 L263.7372055837118 113.35125168440811 L374.5884572681199 81.35125168440813 L374.5884572681199 67.49484522385711" stroke-linecap="square"/>
		<path opacity="0.5" fill="orange" d="M382.5884572681199 74.42304845413263 L271.7372055837118 106.42304845413264 L271.7372055837118 120.27945491468364 L382.5884572681199 88.27945491468364 L382.5884572681199 74.42304845413263" stroke-linecap="square"/>
		<path opacity="0.5" fill="orange" d="M374.5884572681199 67.49484522385711 L382.5884572681199 74.42304845413263 L271.7372055837118 106.42304845413264 L263.7372055837118 99.49484522385711 L374.5884572681199 67.49484522385711" stroke-linecap="square"/>
		<path opacity="0.5" fill="orange" d="M374.5884572681199 81.35125168440813 L382.5884572681199 88.27945491468364 L271.7372055837118 120.27945491468364 L263.7372055837118 113.35125168440811 L374.5884572681199 81.35125168440813" stroke-linecap="square"/>
		<text style="fill:black;font-family:calibri;font-size:6" x="263.7372055837118" y="106.42304845413261" >16</text>
		<text style="fill:black;font-family:calibri;font-size:6" x="267.7372055837118" y="116.81535329954588" >16</text>
		<text style="fill:black;font-family:calibri;font-size:6" x="319.16283142591584" y="83.49484522385711" >128</text>

		<path opacity="0.75" fill="darkturquoise" d="M-72.54040383892271 84.30687393607664 L-70.04040383892266 86.47193744553773 L-70.04040383892266 90.80206446445993 L-72.54040383892271 88.63700095499884 L-72.54040383892271 84.30687393607664" stroke-linecap="square"/>
		<path opacity="0.75" fill="darkturquoise" d="M-100.25321676002471 92.30687393607664 L-97.75321676002466 94.47193744553773 L-97.75321676002466 98.80206446445993 L-100.25321676002471 96.63700095499884 L-100.25321676002471 92.30687393607664" stroke-linecap="square"/>
		<path opacity="0.75" fill="darkturquoise" d="M-72.54040383892271 84.30687393607664 L-100.25321676002471 92.30687393607664 L-100.25321676002471 96.63700095499884 L-72.54040383892271 88.63700095499884 L-72.54040383892271 84.30687393607664" stroke-linecap="square"/>
		<path opacity="0.75" fill="darkturquoise" d="M-70.04040383892266 86.47193744553773 L-97.75321676002466 94.47193744553773 L-97.75321676002466 98.80206446445993 L-70.04040383892266 90.80206446445993 L-70.04040383892266 86.47193744553773" stroke-linecap="square"/>
		<path opacity="0.75" fill="darkturquoise" d="M-72.54040383892271 84.30687393607664 L-70.04040383892266 86.47193744553773 L-97.75321676002466 94.47193744553773 L-100.25321676002471 92.30687393607664 L-72.54040383892271 84.30687393607664" stroke-linecap="square"/>
		<path opacity="0.75" fill="darkturquoise" d="M-72.54040383892271 88.63700095499884 L-70.04040383892266 90.80206446445993 L-97.75321676002466 98.80206446445993 L-100.25321676002471 96.63700095499884 L-72.54040383892271 88.63700095499884" stroke-linecap="square"/>
		<path opacity="0.5" fill="orange" d="M-80.01785666836219 72.86602540378443 L-64.01785666836219 86.72243186433545 L-64.01785666836219 114.4352447854375 L-80.01785666836219 100.57883832488648 L-80.01785666836219 72.86602540378443" stroke-linecap="square"/>
		<path opacity="0.5" fill="orange" d="M-107.73066958946418 80.86602540378443 L-91.73066958946418 94.72243186433545 L-91.73066958946418 122.4352447854375 L-107.73066958946418 108.57883832488648 L-107.73066958946418 80.86602540378443" stroke-linecap="square"/>
		<path opacity="0.5" fill="orange" d="M-80.01785666836219 72.86602540378443 L-107.73066958946418 80.86602540378443 L-107.73066958946418 108.57883832488648 L-80.01785666836219 100.57883832488648 L-80.01785666836219 72.86602540378443" stroke-linecap="square"/>
		<path opacity="0.5" fill="orange" d="M-64.01785666836219 86.72243186433545 L-91.73066958946418 94.72243186433545 L-91.73066958946418 122.4352447854375 L-64.01785666836219 114.4352447854375 L-64.01785666836219 86.72243186433545" stroke-linecap="square"/>
		<path opacity="0.5" fill="orange" d="M-80.01785666836219 72.86602540378443 L-64.01785666836219 86.72243186433545 L-91.73066958946418 94.72243186433545 L-107.73066958946418 80.86602540378443 L-80.01785666836219 72.86602540378443" stroke-linecap="square"/>
		<path opacity="0.5" fill="orange" d="M-80.01785666836219 100.57883832488648 L-64.01785666836219 114.4352447854375 L-91.73066958946418 122.4352447854375 L-107.73066958946418 108.57883832488648 L-80.01785666836219 100.57883832488648" stroke-linecap="square"/>
		<text style="fill:black;font-family:calibri;font-size:6" x="-107.73066958946418" y="94.72243186433545" >32</text>
		<text style="fill:black;font-family:calibri;font-size:6" x="-99.73066958946418" y="115.50704155516199" >32</text>
		<text style="fill:black;font-family:calibri;font-size:6" x="-93.87426312891319" y="76.86602540378443" >32</text>

<!-- Arrow -->
		<path opacity="0.5" stroke="black" d="M191.43593539448983 93.8083117443839 L267.7372055837118 109.88715006927038" stroke-linecap="square"/>
		<circle opacity="0.5" cx="267.7372055837118" cy="109.88715006927038" r="1" fill="black" />
<!-- Arrow -->
		<path opacity="0.5" stroke="black" d="M323.16283142591584 86.95894683899488 L323.16283142591584 43.65767664977294" stroke-linecap="square"/>
		<circle opacity="0.5" cx="323.16283142591584" cy="43.65767664977294" r="1" fill="black" />
		<path opacity="0.5" fill="orange" d="M189.43593539448983 88.61215932167727 L193.43593539448983 92.07626093681503 L193.43593539448983 99.00446416709055 L189.43593539448983 95.54036255195278 L189.43593539448983 88.61215932167727" stroke-linecap="square"/>
		<path opacity="0.5" fill="orange" d="M134.01030955228578 104.61215932167727 L138.01030955228578 108.07626093681503 L138.01030955228578 115.00446416709053 L134.01030955228578 111.5403625519528 L134.01030955228578 104.61215932167727" stroke-linecap="square"/>
		<path opacity="0.5" fill="orange" d="M189.43593539448983 88.61215932167727 L134.01030955228578 104.61215932167727 L134.01030955228578 111.5403625519528 L189.43593539448983 95.54036255195278 L189.43593539448983 88.61215932167727" stroke-linecap="square"/>
		<path opacity="0.5" fill="orange" d="M193.43593539448983 92.07626093681503 L138.01030955228578 108.07626093681503 L138.01030955228578 115.00446416709053 L193.43593539448983 99.00446416709055 L193.43593539448983 92.07626093681503" stroke-linecap="square"/>
		<path opacity="0.5" fill="orange" d="M189.43593539448983 88.61215932167727 L193.43593539448983 92.07626093681503 L138.01030955228578 108.07626093681503 L134.01030955228578 104.61215932167727 L189.43593539448983 88.61215932167727" stroke-linecap="square"/>
		<path opacity="0.5" fill="orange" d="M189.43593539448983 95.54036255195278 L193.43593539448983 99.00446416709055 L138.01030955228578 115.00446416709053 L134.01030955228578 111.5403625519528 L189.43593539448983 95.54036255195278" stroke-linecap="square"/>
		<text style="fill:black;font-family:calibri;font-size:6" x="134.01030955228578" y="108.07626093681503" >8</text>
		<text style="fill:black;font-family:calibri;font-size:6" x="136.01030955228578" y="113.27241335952166" >8</text>
		<text style="fill:black;font-family:calibri;font-size:6" x="161.7231224733878" y="96.61215932167727" >64</text>

		<path opacity="0.75" fill="pink" d="M-146.66271748276648 114.9783837826539 L-141.66271748276648 119.30851080157609 L-93.74631030569117 102.88916370640229 L-146.66271748276648 114.9783837826539"/>
		<path opacity="0.75" fill="pink" d="M-146.66271748276648 114.9783837826539 L-146.66271748276648 123.63863782049827 L-93.74631030569117 102.88916370640229 L-146.66271748276648 114.9783837826539"/>
		<path opacity="0.75" fill="pink" d="M-141.66271748276648 119.30851080157609 L-141.66271748276648 127.96876483942049 L-93.74631030569117 102.88916370640229 L-141.66271748276648 119.30851080157609"/>
		<path opacity="0.75" fill="pink" d="M-146.66271748276648 123.63863782049827 L-141.66271748276648 127.96876483942049 L-93.74631030569117 102.88916370640229 L-146.66271748276648 123.63863782049827"/>

		<text style="fill:black;font-family:calibri;font-size:6" x="-127.35724842374138" y="104.4337737445281" >[10,10]</text>
<!-- Arrow -->
		<path opacity="0.5" stroke="black" d="M163.72312247338778 98.34421012924615 L163.72312247338778 55.04293994002421" stroke-linecap="square"/>
		<circle opacity="0.5" cx="163.72312247338778" cy="55.04293994002421" r="1" fill="black" />
<!-- Arrow -->
		<path opacity="0.5" stroke="black" d="M323.16283142591584 43.65767664977294 L163.72312247338778 55.04293994002421" stroke-linecap="square"/>
		<circle opacity="0.5" cx="163.72312247338778" cy="55.04293994002421" r="1" fill="black" />
		<path opacity="0.75" fill="pink" d="M90.5116927251421 121.01335211107636 L93.0116927251421 123.17841562053746 L136.32598029685346 111.51164136469708 L90.5116927251421 121.01335211107636"/>
		<path opacity="0.75" fill="pink" d="M90.5116927251421 121.01335211107636 L90.5116927251421 125.34347912999857 L136.32598029685346 111.51164136469708 L90.5116927251421 121.01335211107636"/>
		<path opacity="0.75" fill="pink" d="M93.0116927251421 123.17841562053746 L93.0116927251421 127.50854263945965 L136.32598029685346 111.51164136469708 L93.0116927251421 123.17841562053746"/>
		<path opacity="0.75" fill="pink" d="M90.5116927251421 125.34347912999857 L93.0116927251421 127.50854263945965 L136.32598029685346 111.51164136469708 L90.5116927251421 125.34347912999857"/>

		<text style="fill:black;font-family:calibri;font-size:6" x="106.61645524904588" y="111.76249673788672" >[5,5]</text>
		<path opacity="0.75" fill="darkturquoise" d="M-146.66271748276648 114.9783837826539 L-141.66271748276648 119.30851080157609 L-141.66271748276648 127.96876483942049 L-146.66271748276648 123.63863782049827 L-146.66271748276648 114.9783837826539" stroke-linecap="square"/>
		<path opacity="0.75" fill="darkturquoise" d="M-163.98322555845527 119.9783837826539 L-158.98322555845527 124.30851080157609 L-158.98322555845527 132.9687648394205 L-163.98322555845527 128.63863782049827 L-163.98322555845527 119.9783837826539" stroke-linecap="square"/>
		<path opacity="0.75" fill="darkturquoise" d="M-146.66271748276648 114.9783837826539 L-163.98322555845527 119.9783837826539 L-163.98322555845527 128.63863782049827 L-146.66271748276648 123.63863782049827 L-146.66271748276648 114.9783837826539" stroke-linecap="square"/>
		<path opacity="0.75" fill="darkturquoise" d="M-141.66271748276648 119.30851080157609 L-158.98322555845527 124.30851080157609 L-158.98322555845527 132.9687648394205 L-141.66271748276648 127.96876483942049 L-141.66271748276648 119.30851080157609" stroke-linecap="square"/>
		<path opacity="0.75" fill="darkturquoise" d="M-146.66271748276648 114.9783837826539 L-141.66271748276648 119.30851080157609 L-158.98322555845527 124.30851080157609 L-163.98322555845527 119.9783837826539 L-146.66271748276648 114.9783837826539" stroke-linecap="square"/>
		<path opacity="0.75" fill="darkturquoise" d="M-146.66271748276648 123.63863782049827 L-141.66271748276648 127.96876483942049 L-158.98322555845527 132.9687648394205 L-163.98322555845527 128.63863782049827 L-146.66271748276648 123.63863782049827" stroke-linecap="square"/>
		<path opacity="0.5" fill="lavender" d="M-151.03193977868614 93.36602540378443 L-135.03193977868614 107.22243186433545 L-135.03193977868614 134.9352447854375 L-151.03193977868614 121.07883832488648 L-151.03193977868614 93.36602540378443" stroke-linecap="square"/>
		<path opacity="0.5" fill="lavender" d="M-168.35244785437493 98.36602540378443 L-152.35244785437493 112.22243186433545 L-152.35244785437493 139.9352447854375 L-168.35244785437493 126.07883832488648 L-168.35244785437493 98.36602540378443" stroke-linecap="square"/>
		<path opacity="0.5" fill="lavender" d="M-151.03193977868614 93.36602540378443 L-168.35244785437493 98.36602540378443 L-168.35244785437493 126.07883832488648 L-151.03193977868614 121.07883832488648 L-151.03193977868614 93.36602540378443" stroke-linecap="square"/>
		<path opacity="0.5" fill="lavender" d="M-135.03193977868614 107.22243186433545 L-152.35244785437493 112.22243186433545 L-152.35244785437493 139.9352447854375 L-135.03193977868614 134.9352447854375 L-135.03193977868614 107.22243186433545" stroke-linecap="square"/>
		<path opacity="0.5" fill="lavender" d="M-151.03193977868614 93.36602540378443 L-135.03193977868614 107.22243186433545 L-152.35244785437493 112.22243186433545 L-168.35244785437493 98.36602540378443 L-151.03193977868614 93.36602540378443" stroke-linecap="square"/>
		<path opacity="0.5" fill="lavender" d="M-151.03193977868614 121.07883832488648 L-135.03193977868614 134.9352447854375 L-152.35244785437493 139.9352447854375 L-168.35244785437493 126.07883832488648 L-151.03193977868614 121.07883832488648" stroke-linecap="square"/>
		<text style="fill:black;font-family:calibri;font-size:6" x="-168.35244785437493" y="112.22243186433545" >32</text>
		<text style="fill:black;font-family:calibri;font-size:6" x="-160.35244785437493" y="133.007041555162" >32</text>
		<text style="fill:black;font-family:calibri;font-size:6" x="-159.69219381653053" y="95.86602540378443" >20</text>

<!-- Arrow -->
		<path opacity="0.5" stroke="black" d="M257.4359353944899 150.96598839415685 L267.7372055837118 109.88715006927038" stroke-linecap="square"/>
		<circle opacity="0.5" cx="267.7372055837118" cy="109.88715006927038" r="1" fill="black" />
		<path opacity="0.75" fill="darkturquoise" d="M90.5116927251421 121.01335211107636 L93.0116927251421 123.17841562053746 L93.0116927251421 127.50854263945965 L90.5116927251421 125.34347912999857 L90.5116927251421 121.01335211107636" stroke-linecap="square"/>
		<path opacity="0.75" fill="darkturquoise" d="M35.08606688293804 137.01335211107636 L37.58606688293804 139.17841562053746 L37.58606688293804 143.50854263945965 L35.08606688293804 141.34347912999857 L35.08606688293804 137.01335211107636" stroke-linecap="square"/>
		<path opacity="0.75" fill="darkturquoise" d="M90.5116927251421 121.01335211107636 L35.08606688293804 137.01335211107636 L35.08606688293804 141.34347912999857 L90.5116927251421 125.34347912999857 L90.5116927251421 121.01335211107636" stroke-linecap="square"/>
		<path opacity="0.75" fill="darkturquoise" d="M93.0116927251421 123.17841562053746 L37.58606688293804 139.17841562053746 L37.58606688293804 143.50854263945965 L93.0116927251421 127.50854263945965 L93.0116927251421 123.17841562053746" stroke-linecap="square"/>
		<path opacity="0.75" fill="darkturquoise" d="M90.5116927251421 121.01335211107636 L93.0116927251421 123.17841562053746 L37.58606688293804 139.17841562053746 L35.08606688293804 137.01335211107636 L90.5116927251421 121.01335211107636" stroke-linecap="square"/>
		<path opacity="0.75" fill="darkturquoise" d="M90.5116927251421 125.34347912999857 L93.0116927251421 127.50854263945965 L37.58606688293804 143.50854263945965 L35.08606688293804 141.34347912999857 L90.5116927251421 125.34347912999857" stroke-linecap="square"/>
		<path opacity="0.5" fill="orange" d="M88.70903936306382 111.91600689897064 L96.70903936306382 118.84421012924616 L96.70903936306382 132.70061658979716 L88.70903936306382 125.77241335952166 L88.70903936306382 111.91600689897064" stroke-linecap="square"/>
		<path opacity="0.5" fill="orange" d="M33.28341352085977 127.91600689897064 L41.28341352085977 134.84421012924616 L41.28341352085977 148.70061658979716 L33.28341352085977 141.77241335952166 L33.28341352085977 127.91600689897064" stroke-linecap="square"/>
		<path opacity="0.5" fill="orange" d="M88.70903936306382 111.91600689897064 L33.28341352085977 127.91600689897064 L33.28341352085977 141.77241335952166 L88.70903936306382 125.77241335952166 L88.70903936306382 111.91600689897064" stroke-linecap="square"/>
		<path opacity="0.5" fill="orange" d="M96.70903936306382 118.84421012924616 L41.28341352085977 134.84421012924616 L41.28341352085977 148.70061658979716 L96.70903936306382 132.70061658979716 L96.70903936306382 118.84421012924616" stroke-linecap="square"/>
		<path opacity="0.5" fill="orange" d="M88.70903936306382 111.91600689897064 L96.70903936306382 118.84421012924616 L41.28341352085977 134.84421012924616 L33.28341352085977 127.91600689897064 L88.70903936306382 111.91600689897064" stroke-linecap="square"/>
		<path opacity="0.5" fill="orange" d="M88.70903936306382 125.77241335952166 L96.70903936306382 132.70061658979716 L41.28341352085977 148.70061658979716 L33.28341352085977 141.77241335952166 L88.70903936306382 125.77241335952166" stroke-linecap="square"/>
		<text style="fill:black;font-family:calibri;font-size:6" x="33.28341352085977" y="134.84421012924616" >16</text>
		<text style="fill:black;font-family:calibri;font-size:6" x="37.28341352085977" y="145.23651497465943" >16</text>
		<text style="fill:black;font-family:calibri;font-size:6" x="60.996226441961795" y="119.91600689897064" >64</text>

		<path opacity="0.75" fill="pink" d="M-12.952335479993394 150.1780120227143 L-10.452335479993394 152.34307553217542 L39.21156447543831 135.10544828165976 L-12.952335479993394 150.1780120227143"/>
		<path opacity="0.75" fill="pink" d="M-12.952335479993394 150.1780120227143 L-12.952335479993394 154.5081390416365 L39.21156447543831 135.10544828165976 L-12.952335479993394 150.1780120227143"/>
		<path opacity="0.75" fill="pink" d="M-10.452335479993394 152.34307553217542 L-10.452335479993394 156.6732025510976 L39.21156447543831 135.10544828165976 L-10.452335479993394 152.34307553217542"/>
		<path opacity="0.75" fill="pink" d="M-12.952335479993394 154.5081390416365 L-10.452335479993394 156.6732025510976 L39.21156447543831 135.10544828165976 L-12.952335479993394 154.5081390416365"/>

		<text style="fill:black;font-family:calibri;font-size:6" x="5.268964505150507" y="138.14173015218705" >[5,5]</text>
		<path opacity="0.75" fill="darkturquoise" d="M-12.952335479993394 150.1780120227143 L-10.452335479993394 152.34307553217542 L-10.452335479993394 156.6732025510976 L-12.952335479993394 154.5081390416365 L-12.952335479993394 150.1780120227143" stroke-linecap="square"/>
		<path opacity="0.75" fill="darkturquoise" d="M-40.665148401095394 158.1780120227143 L-38.165148401095394 160.34307553217542 L-38.165148401095394 164.6732025510976 L-40.665148401095394 162.5081390416365 L-40.665148401095394 158.1780120227143" stroke-linecap="square"/>
		<path opacity="0.75" fill="darkturquoise" d="M-12.952335479993394 150.1780120227143 L-40.665148401095394 158.1780120227143 L-40.665148401095394 162.5081390416365 L-12.952335479993394 154.5081390416365 L-12.952335479993394 150.1780120227143" stroke-linecap="square"/>
		<path opacity="0.75" fill="darkturquoise" d="M-10.452335479993394 152.34307553217542 L-38.165148401095394 160.34307553217542 L-38.165148401095394 164.6732025510976 L-10.452335479993394 156.6732025510976 L-10.452335479993394 152.34307553217542" stroke-linecap="square"/>
		<path opacity="0.75" fill="darkturquoise" d="M-12.952335479993394 150.1780120227143 L-10.452335479993394 152.34307553217542 L-38.165148401095394 160.34307553217542 L-40.665148401095394 158.1780120227143 L-12.952335479993394 150.1780120227143" stroke-linecap="square"/>
		<path opacity="0.75" fill="darkturquoise" d="M-12.952335479993394 154.5081390416365 L-10.452335479993394 156.6732025510976 L-38.165148401095394 164.6732025510976 L-40.665148401095394 162.5081390416365 L-12.952335479993394 154.5081390416365" stroke-linecap="square"/>
		<path opacity="0.5" fill="orange" d="M-14.017856668362185 130.02370205355737 L1.9821433316378148 143.8801085141084 L1.9821433316378148 171.59292143521043 L-14.017856668362185 157.73651497465943 L-14.017856668362185 130.02370205355737" stroke-linecap="square"/>
		<path opacity="0.5" fill="orange" d="M-41.730669589464185 138.02370205355737 L-25.730669589464185 151.8801085141084 L-25.730669589464185 179.59292143521043 L-41.730669589464185 165.73651497465943 L-41.730669589464185 138.02370205355737" stroke-linecap="square"/>
		<path opacity="0.5" fill="orange" d="M-14.017856668362185 130.02370205355737 L-41.730669589464185 138.02370205355737 L-41.730669589464185 165.73651497465943 L-14.017856668362185 157.73651497465943 L-14.017856668362185 130.02370205355737" stroke-linecap="square"/>
		<path opacity="0.5" fill="orange" d="M1.9821433316378148 143.8801085141084 L-25.730669589464185 151.8801085141084 L-25.730669589464185 179.59292143521043 L1.9821433316378148 171.59292143521043 L1.9821433316378148 143.8801085141084" stroke-linecap="square"/>
		<path opacity="0.5" fill="orange" d="M-14.017856668362185 130.02370205355737 L1.9821433316378148 143.8801085141084 L-25.730669589464185 151.8801085141084 L-41.730669589464185 138.02370205355737 L-14.017856668362185 130.02370205355737" stroke-linecap="square"/>
		<path opacity="0.5" fill="orange" d="M-14.017856668362185 157.73651497465943 L1.9821433316378148 171.59292143521043 L-25.730669589464185 179.59292143521043 L-41.730669589464185 165.73651497465943 L-14.017856668362185 157.73651497465943" stroke-linecap="square"/>
		<text style="fill:black;font-family:calibri;font-size:6" x="-41.730669589464185" y="151.8801085141084" >32</text>
		<text style="fill:black;font-family:calibri;font-size:6" x="-33.730669589464185" y="172.66471820493493" >32</text>
		<text style="fill:black;font-family:calibri;font-size:6" x="-27.874263128913185" y="134.02370205355737" >32</text>

		<path opacity="0.5" fill="orange" d="M255.43593539448986 145.76983597145022 L259.4359353944899 149.23393758658796 L259.4359353944899 156.16214081686348 L255.43593539448986 152.69803920172572 L255.43593539448986 145.76983597145022" stroke-linecap="square"/>
		<path opacity="0.5" fill="orange" d="M200.01030955228578 161.76983597145022 L204.01030955228578 165.23393758658796 L204.01030955228578 172.16214081686348 L200.01030955228578 168.69803920172572 L200.01030955228578 161.76983597145022" stroke-linecap="square"/>
		<path opacity="0.5" fill="orange" d="M255.43593539448986 145.76983597145022 L200.01030955228578 161.76983597145022 L200.01030955228578 168.69803920172572 L255.43593539448986 152.69803920172572 L255.43593539448986 145.76983597145022" stroke-linecap="square"/>
		<path opacity="0.5" fill="orange" d="M259.4359353944899 149.23393758658796 L204.01030955228578 165.23393758658796 L204.01030955228578 172.16214081686348 L259.4359353944899 156.16214081686348 L259.4359353944899 149.23393758658796" stroke-linecap="square"/>
		<path opacity="0.5" fill="orange" d="M255.43593539448986 145.76983597145022 L259.4359353944899 149.23393758658796 L204.01030955228578 165.23393758658796 L200.01030955228578 161.76983597145022 L255.43593539448986 145.76983597145022" stroke-linecap="square"/>
		<path opacity="0.5" fill="orange" d="M255.43593539448986 152.69803920172572 L259.4359353944899 156.16214081686348 L204.01030955228578 172.16214081686348 L200.01030955228578 168.69803920172572 L255.43593539448986 152.69803920172572" stroke-linecap="square"/>
		<text style="fill:black;font-family:calibri;font-size:6" x="200.01030955228578" y="165.23393758658796" >8</text>
		<text style="fill:black;font-family:calibri;font-size:6" x="202.01030955228578" y="170.4300900092946" >8</text>
		<text style="fill:black;font-family:calibri;font-size:6" x="227.72312247338783" y="153.76983597145022" >64</text>

		<path opacity="0.75" fill="pink" d="M-75.08206706918236 170.4162328064969 L-70.08206706918236 174.74635982541912 L-31.69033187558864 151.9564178889769 L-75.08206706918236 170.4162328064969"/>
		<path opacity="0.75" fill="pink" d="M-75.08206706918236 170.4162328064969 L-75.08206706918236 179.0764868443413 L-31.69033187558864 151.9564178889769 L-75.08206706918236 170.4162328064969"/>
		<path opacity="0.75" fill="pink" d="M-70.08206706918236 174.74635982541912 L-70.08206706918236 183.4066138632635 L-31.69033187558864 151.9564178889769 L-70.08206706918236 174.74635982541912"/>
		<path opacity="0.75" fill="pink" d="M-75.08206706918236 179.0764868443413 L-70.08206706918236 183.4066138632635 L-31.69033187558864 151.9564178889769 L-75.08206706918236 179.0764868443413"/>

		<text style="fill:black;font-family:calibri;font-size:6" x="-58.95148867131778" y="156.6863253477369" >[10,10]</text>
		<path opacity="0.75" fill="darkturquoise" d="M-75.08206706918236 170.4162328064969 L-70.08206706918236 174.74635982541912 L-70.08206706918236 183.4066138632635 L-75.08206706918236 179.0764868443413 L-75.08206706918236 170.4162328064969" stroke-linecap="square"/>
		<path opacity="0.75" fill="darkturquoise" d="M-92.40257514487115 175.4162328064969 L-87.40257514487115 179.74635982541912 L-87.40257514487115 188.4066138632635 L-92.40257514487115 184.0764868443413 L-92.40257514487115 175.4162328064969" stroke-linecap="square"/>
		<path opacity="0.75" fill="darkturquoise" d="M-75.08206706918236 170.4162328064969 L-92.40257514487115 175.4162328064969 L-92.40257514487115 184.0764868443413 L-75.08206706918236 179.0764868443413 L-75.08206706918236 170.4162328064969" stroke-linecap="square"/>
		<path opacity="0.75" fill="darkturquoise" d="M-70.08206706918236 174.74635982541912 L-87.40257514487115 179.74635982541912 L-87.40257514487115 188.4066138632635 L-70.08206706918236 183.4066138632635 L-70.08206706918236 174.74635982541912" stroke-linecap="square"/>
		<path opacity="0.75" fill="darkturquoise" d="M-75.08206706918236 170.4162328064969 L-70.08206706918236 174.74635982541912 L-87.40257514487115 179.74635982541912 L-92.40257514487115 175.4162328064969 L-75.08206706918236 170.4162328064969" stroke-linecap="square"/>
		<path opacity="0.75" fill="darkturquoise" d="M-75.08206706918236 179.0764868443413 L-70.08206706918236 183.4066138632635 L-87.40257514487115 188.4066138632635 L-92.40257514487115 184.0764868443413 L-75.08206706918236 179.0764868443413" stroke-linecap="square"/>
		<path opacity="0.5" fill="lavender" d="M-85.03193977868614 150.52370205355737 L-69.03193977868614 164.3801085141084 L-69.03193977868614 192.09292143521043 L-85.03193977868614 178.23651497465943 L-85.03193977868614 150.52370205355737" stroke-linecap="square"/>
		<path opacity="0.5" fill="lavender" d="M-102.35244785437493 155.52370205355737 L-86.35244785437493 169.3801085141084 L-86.35244785437493 197.09292143521043 L-102.35244785437493 183.23651497465943 L-102.35244785437493 155.52370205355737" stroke-linecap="square"/>
		<path opacity="0.5" fill="lavender" d="M-85.03193977868614 150.52370205355737 L-102.35244785437493 155.52370205355737 L-102.35244785437493 183.23651497465943 L-85.03193977868614 178.23651497465943 L-85.03193977868614 150.52370205355737" stroke-linecap="square"/>
		<path opacity="0.5" fill="lavender" d="M-69.03193977868614 164.3801085141084 L-86.35244785437493 169.3801085141084 L-86.35244785437493 197.09292143521043 L-69.03193977868614 192.09292143521043 L-69.03193977868614 164.3801085141084" stroke-linecap="square"/>
		<path opacity="0.5" fill="lavender" d="M-85.03193977868614 150.52370205355737 L-69.03193977868614 164.3801085141084 L-86.35244785437493 169.3801085141084 L-102.35244785437493 155.52370205355737 L-85.03193977868614 150.52370205355737" stroke-linecap="square"/>
		<path opacity="0.5" fill="lavender" d="M-85.03193977868614 178.23651497465943 L-69.03193977868614 192.09292143521043 L-86.35244785437493 197.09292143521043 L-102.35244785437493 183.23651497465943 L-85.03193977868614 178.23651497465943" stroke-linecap="square"/>
		<text style="fill:black;font-family:calibri;font-size:6" x="-102.35244785437493" y="169.3801085141084" >32</text>
		<text style="fill:black;font-family:calibri;font-size:6" x="-94.35244785437493" y="190.16471820493493" >32</text>
		<text style="fill:black;font-family:calibri;font-size:6" x="-93.69219381653053" y="153.02370205355737" >20</text>

		<path opacity="0.75" fill="pink" d="M159.62461152707706 180.37891343135794 L162.12461152707706 182.54397694081902 L201.4976465738941 164.96929868664105 L159.62461152707706 180.37891343135794"/>
		<path opacity="0.75" fill="pink" d="M159.62461152707706 180.37891343135794 L159.62461152707706 184.70904045028013 L201.4976465738941 164.96929868664105 L159.62461152707706 180.37891343135794"/>
		<path opacity="0.75" fill="pink" d="M162.12461152707706 182.54397694081902 L162.12461152707706 186.8741039597412 L201.4976465738941 164.96929868664105 L162.12461152707706 182.54397694081902"/>
		<path opacity="0.75" fill="pink" d="M159.62461152707706 184.70904045028013 L162.12461152707706 186.8741039597412 L201.4976465738941 164.96929868664105 L159.62461152707706 184.70904045028013"/>

		<text style="fill:black;font-family:calibri;font-size:6" x="174.4156232093494" y="168.17410605899948" >[5,5]</text>
		<path opacity="0.75" fill="darkturquoise" d="M159.62461152707706 180.37891343135794 L162.12461152707706 182.54397694081902 L162.12461152707706 186.8741039597412 L159.62461152707706 184.70904045028013 L159.62461152707706 180.37891343135794" stroke-linecap="square"/>
		<path opacity="0.75" fill="darkturquoise" d="M104.19898568487301 196.37891343135794 L106.69898568487301 198.54397694081902 L106.69898568487301 202.8741039597412 L104.19898568487301 200.70904045028013 L104.19898568487301 196.37891343135794" stroke-linecap="square"/>
		<path opacity="0.75" fill="darkturquoise" d="M159.62461152707706 180.37891343135794 L104.19898568487301 196.37891343135794 L104.19898568487301 200.70904045028013 L159.62461152707706 184.70904045028013 L159.62461152707706 180.37891343135794" stroke-linecap="square"/>
		<path opacity="0.75" fill="darkturquoise" d="M162.12461152707706 182.54397694081902 L106.69898568487301 198.54397694081902 L106.69898568487301 202.8741039597412 L162.12461152707706 186.8741039597412 L162.12461152707706 182.54397694081902" stroke-linecap="square"/>
		<path opacity="0.75" fill="darkturquoise" d="M159.62461152707706 180.37891343135794 L162.12461152707706 182.54397694081902 L106.69898568487301 198.54397694081902 L104.19898568487301 196.37891343135794 L159.62461152707706 180.37891343135794" stroke-linecap="square"/>
		<path opacity="0.75" fill="darkturquoise" d="M159.62461152707706 184.70904045028013 L162.12461152707706 186.8741039597412 L106.69898568487301 202.8741039597412 L104.19898568487301 200.70904045028013 L159.62461152707706 184.70904045028013" stroke-linecap="square"/>
		<path opacity="0.5" fill="orange" d="M154.70903936306385 169.0736835487436 L162.70903936306385 176.0018867790191 L162.70903936306385 189.85829323957012 L154.70903936306385 182.9300900092946 L154.70903936306385 169.0736835487436" stroke-linecap="square"/>
		<path opacity="0.5" fill="orange" d="M99.2834135208598 185.0736835487436 L107.2834135208598 192.0018867790191 L107.2834135208598 205.85829323957012 L99.2834135208598 198.9300900092946 L99.2834135208598 185.0736835487436" stroke-linecap="square"/>
		<path opacity="0.5" fill="orange" d="M154.70903936306385 169.0736835487436 L99.2834135208598 185.0736835487436 L99.2834135208598 198.9300900092946 L154.70903936306385 182.9300900092946 L154.70903936306385 169.0736835487436" stroke-linecap="square"/>
		<path opacity="0.5" fill="orange" d="M162.70903936306385 176.0018867790191 L107.2834135208598 192.0018867790191 L107.2834135208598 205.85829323957012 L162.70903936306385 189.85829323957012 L162.70903936306385 176.0018867790191" stroke-linecap="square"/>
		<path opacity="0.5" fill="orange" d="M154.70903936306385 169.0736835487436 L162.70903936306385 176.0018867790191 L107.2834135208598 192.0018867790191 L99.2834135208598 185.0736835487436 L154.70903936306385 169.0736835487436" stroke-linecap="square"/>
		<path opacity="0.5" fill="orange" d="M154.70903936306385 182.9300900092946 L162.70903936306385 189.85829323957012 L107.2834135208598 205.85829323957012 L99.2834135208598 198.9300900092946 L154.70903936306385 182.9300900092946" stroke-linecap="square"/>
		<text style="fill:black;font-family:calibri;font-size:6" x="99.2834135208598" y="192.0018867790191" >16</text>
		<text style="fill:black;font-family:calibri;font-size:6" x="103.2834135208598" y="202.39419162443235" >16</text>
		<text style="fill:black;font-family:calibri;font-size:6" x="126.99622644196182" y="177.0736835487436" >64</text>

		<path opacity="0.75" fill="pink" d="M63.096583360231335 200.54814100077454 L65.59658336023134 202.7132045102356 L103.2756734963937 197.76446201255897 L63.096583360231335 200.54814100077454"/>
		<path opacity="0.75" fill="pink" d="M63.096583360231335 200.54814100077454 L63.096583360231335 204.87826801969672 L103.2756734963937 197.76446201255897 L63.096583360231335 200.54814100077454"/>
		<path opacity="0.75" fill="pink" d="M65.59658336023134 202.7132045102356 L65.59658336023134 207.0433315291578 L103.2756734963937 197.76446201255897 L65.59658336023134 202.7132045102356"/>
		<path opacity="0.75" fill="pink" d="M63.096583360231335 204.87826801969672 L65.59658336023134 207.0433315291578 L103.2756734963937 197.76446201255897 L63.096583360231335 204.87826801969672"/>

		<text style="fill:black;font-family:calibri;font-size:6" x="77.32294673895213" y="194.65630150666675" >[5,5]</text>
		<path opacity="0.75" fill="darkturquoise" d="M63.096583360231335 200.54814100077454 L65.59658336023134 202.7132045102356 L65.59658336023134 207.0433315291578 L63.096583360231335 204.87826801969672 L63.096583360231335 200.54814100077454" stroke-linecap="square"/>
		<path opacity="0.75" fill="darkturquoise" d="M35.383770439129336 208.54814100077454 L37.883770439129336 210.7132045102356 L37.883770439129336 215.0433315291578 L35.383770439129336 212.87826801969672 L35.383770439129336 208.54814100077454" stroke-linecap="square"/>
		<path opacity="0.75" fill="darkturquoise" d="M63.096583360231335 200.54814100077454 L35.383770439129336 208.54814100077454 L35.383770439129336 212.87826801969672 L63.096583360231335 204.87826801969672 L63.096583360231335 200.54814100077454" stroke-linecap="square"/>
		<path opacity="0.75" fill="darkturquoise" d="M65.59658336023134 202.7132045102356 L37.883770439129336 210.7132045102356 L37.883770439129336 215.0433315291578 L65.59658336023134 207.0433315291578 L65.59658336023134 202.7132045102356" stroke-linecap="square"/>
		<path opacity="0.75" fill="darkturquoise" d="M63.096583360231335 200.54814100077454 L65.59658336023134 202.7132045102356 L37.883770439129336 210.7132045102356 L35.383770439129336 208.54814100077454 L63.096583360231335 200.54814100077454" stroke-linecap="square"/>
		<path opacity="0.75" fill="darkturquoise" d="M63.096583360231335 204.87826801969672 L65.59658336023134 207.0433315291578 L37.883770439129336 215.0433315291578 L35.383770439129336 212.87826801969672 L63.096583360231335 204.87826801969672" stroke-linecap="square"/>
		<path opacity="0.5" fill="orange" d="M51.98214333163784 187.18137870333032 L67.98214333163784 201.03778516388132 L67.98214333163784 228.75059808498338 L51.98214333163784 214.89419162443238 L51.98214333163784 187.18137870333032" stroke-linecap="square"/>
		<path opacity="0.5" fill="orange" d="M24.269330410535844 195.18137870333032 L40.269330410535844 209.03778516388132 L40.269330410535844 236.75059808498338 L24.269330410535844 222.89419162443238 L24.269330410535844 195.18137870333032" stroke-linecap="square"/>
		<path opacity="0.5" fill="orange" d="M51.98214333163784 187.18137870333032 L24.269330410535844 195.18137870333032 L24.269330410535844 222.89419162443238 L51.98214333163784 214.89419162443238 L51.98214333163784 187.18137870333032" stroke-linecap="square"/>
		<path opacity="0.5" fill="orange" d="M67.98214333163784 201.03778516388132 L40.269330410535844 209.03778516388132 L40.269330410535844 236.75059808498338 L67.98214333163784 228.75059808498338 L67.98214333163784 201.03778516388132" stroke-linecap="square"/>
		<path opacity="0.5" fill="orange" d="M51.98214333163784 187.18137870333032 L67.98214333163784 201.03778516388132 L40.269330410535844 209.03778516388132 L24.269330410535844 195.18137870333032 L51.98214333163784 187.18137870333032" stroke-linecap="square"/>
		<path opacity="0.5" fill="orange" d="M51.98214333163784 214.89419162443238 L67.98214333163784 228.75059808498338 L40.269330410535844 236.75059808498338 L24.269330410535844 222.89419162443238 L51.98214333163784 214.89419162443238" stroke-linecap="square"/>
		<text style="fill:black;font-family:calibri;font-size:6" x="24.269330410535844" y="209.03778516388135" >32</text>
		<text style="fill:black;font-family:calibri;font-size:6" x="32.269330410535844" y="229.82239485470788" >32</text>
		<text style="fill:black;font-family:calibri;font-size:6" x="38.12573687108684" y="191.18137870333032" >32</text>

		<path opacity="0.75" fill="pink" d="M-13.315929399555898 229.43716283109552 L-8.315929399555898 233.76728985001773 L29.621529384275135 210.37633742235803 L-13.315929399555898 229.43716283109552"/>
		<path opacity="0.75" fill="pink" d="M-13.315929399555898 229.43716283109552 L-13.315929399555898 238.09741686893994 L29.621529384275135 210.37633742235803 L-13.315929399555898 229.43716283109552"/>
		<path opacity="0.75" fill="pink" d="M-8.315929399555898 233.76728985001773 L-8.315929399555898 242.4275438878621 L29.621529384275135 210.37633742235803 L-8.315929399555898 233.76728985001773"/>
		<path opacity="0.75" fill="pink" d="M-13.315929399555898 238.09741686893994 L-8.315929399555898 242.4275438878621 L29.621529384275135 210.37633742235803 L-13.315929399555898 238.09741686893994"/>

		<text style="fill:black;font-family:calibri;font-size:6" x="2.6632235283877796" y="215.40675012672676" >[10,10]</text>
		<path opacity="0.75" fill="darkturquoise" d="M-13.315929399555898 229.43716283109552 L-8.315929399555898 233.76728985001773 L-8.315929399555898 242.4275438878621 L-13.315929399555898 238.09741686893994 L-13.315929399555898 229.43716283109552" stroke-linecap="square"/>
		<path opacity="0.75" fill="darkturquoise" d="M-30.636437475244747 234.43716283109552 L-25.636437475244747 238.76728985001773 L-25.636437475244747 247.4275438878621 L-30.636437475244747 243.09741686893994 L-30.636437475244747 234.43716283109552" stroke-linecap="square"/>
		<path opacity="0.75" fill="darkturquoise" d="M-13.315929399555898 229.43716283109552 L-30.636437475244747 234.43716283109552 L-30.636437475244747 243.09741686893994 L-13.315929399555898 238.09741686893994 L-13.315929399555898 229.43716283109552" stroke-linecap="square"/>
		<path opacity="0.75" fill="darkturquoise" d="M-8.315929399555898 233.76728985001773 L-25.636437475244747 238.76728985001773 L-25.636437475244747 247.4275438878621 L-8.315929399555898 242.4275438878621 L-8.315929399555898 233.76728985001773" stroke-linecap="square"/>
		<path opacity="0.75" fill="darkturquoise" d="M-13.315929399555898 229.43716283109552 L-8.315929399555898 233.76728985001773 L-25.636437475244747 238.76728985001773 L-30.636437475244747 234.43716283109552 L-13.315929399555898 229.43716283109552" stroke-linecap="square"/>
		<path opacity="0.75" fill="darkturquoise" d="M-13.315929399555898 238.09741686893994 L-8.315929399555898 242.4275438878621 L-25.636437475244747 247.4275438878621 L-30.636437475244747 243.09741686893994 L-13.315929399555898 238.09741686893994" stroke-linecap="square"/>
		<path opacity="0.5" fill="lavender" d="M-19.031939778686137 207.68137870333032 L-3.0319397786861373 221.53778516388132 L-3.0319397786861373 249.25059808498338 L-19.031939778686137 235.39419162443238 L-19.031939778686137 207.68137870333032" stroke-linecap="square"/>
		<path opacity="0.5" fill="lavender" d="M-36.35244785437487 212.68137870333032 L-20.352447854374873 226.53778516388132 L-20.352447854374873 254.25059808498338 L-36.35244785437487 240.39419162443238 L-36.35244785437487 212.68137870333032" stroke-linecap="square"/>
		<path opacity="0.5" fill="lavender" d="M-19.031939778686137 207.68137870333032 L-36.35244785437487 212.68137870333032 L-36.35244785437487 240.39419162443238 L-19.031939778686137 235.39419162443238 L-19.031939778686137 207.68137870333032" stroke-linecap="square"/>
		<path opacity="0.5" fill="lavender" d="M-3.0319397786861373 221.53778516388132 L-20.352447854374873 226.53778516388132 L-20.352447854374873 254.25059808498338 L-3.0319397786861373 249.25059808498338 L-3.0319397786861373 221.53778516388132" stroke-linecap="square"/>
		<path opacity="0.5" fill="lavender" d="M-19.031939778686137 207.68137870333032 L-3.0319397786861373 221.53778516388132 L-20.352447854374873 226.53778516388132 L-36.35244785437487 212.68137870333032 L-19.031939778686137 207.68137870333032" stroke-linecap="square"/>
		<path opacity="0.5" fill="lavender" d="M-19.031939778686137 235.39419162443238 L-3.0319397786861373 249.25059808498338 L-20.352447854374873 254.25059808498338 L-36.35244785437487 240.39419162443238 L-19.031939778686137 235.39419162443238" stroke-linecap="square"/>
		<text style="fill:black;font-family:calibri;font-size:6" x="-36.35244785437487" y="226.53778516388135" >32</text>
		<text style="fill:black;font-family:calibri;font-size:6" x="-28.352447854374873" y="247.32239485470788" >32</text>
		<text style="fill:black;font-family:calibri;font-size:6" x="-27.692193816530505" y="210.18137870333032" >20</text>

	 </g>
</svg>