<svg width="100%" height="100%" viewBox="-108.45894683899488 -68.84678751731761 222.91789367798975 116.62177826491072" xmlns="http://www.w3.org/2000/svg">
	<g stroke="black" stroke-width="0.3">

		<path opacity="0.5" fill="orange" d="M92.45894683899488 -51.79422863405995 L108.45894683899488 -37.937822173508934 L108.45894683899488 -10.225009252406892 L92.45894683899488 -24.081415712957906 L92.45894683899488 -51.79422863405995" stroke-linecap="square"/>
		<path opacity="0.5" fill="orange" d="M37.033320996790806 -35.79422863405995 L53.033320996790806 -21.93782217350893 L53.033320996790806 5.774990747593108 L37.033320996790806 -8.081415712957906 L37.033320996790806 -35.79422863405995" stroke-linecap="square"/>
		<path opacity="0.5" fill="orange" d="M92.45894683899488 -51.79422863405995 L37.033320996790806 -35.79422863405995 L37.033320996790806 -8.081415712957906 L92.45894683899488 -24.081415712957906 L92.45894683899488 -51.79422863405995" stroke-linecap="square"/>
		<path opacity="0.5" fill="orange" d="M108.45894683899488 -37.937822173508934 L53.033320996790806 -21.93782217350893 L53.033320996790806 5.774990747593108 L108.45894683899488 -10.225009252406892 L108.45894683899488 -37.937822173508934" stroke-linecap="square"/>
		<path opacity="0.5" fill="orange" d="M92.45894683899488 -51.79422863405995 L108.45894683899488 -37.937822173508934 L53.033320996790806 -21.93782217350893 L37.033320996790806 -35.79422863405995 L92.45894683899488 -51.79422863405995" stroke-linecap="square"/>
		<path opacity="0.5" fill="orange" d="M92.45894683899488 -24.081415712957906 L108.45894683899488 -10.225009252406892 L53.033320996790806 5.774990747593108 L37.033320996790806 -8.081415712957906 L92.45894683899488 -24.081415712957906" stroke-linecap="square"/>
		<text style="fill:black;font-family:calibri;font-size:6" x="37.033320996790806" y="-21.937822173508927" >32</text>
		<text style="fill:black;font-family:calibri;font-size:6" x="45.033320996790806" y="-1.1532124826823988" >32</text>
		<text style="fill:black;font-family:calibri;font-size:6" x="64.74613391789285" y="-43.79422863405995" >64</text>

<!-- Arrow -->
		<path opacity="0.5" stroke="black" d="M72.74613391789285 -36.866025403784434 L72.74613391789285 -62.8467875173176" stroke-linecap="square"/>
		<circle opacity="0.5" cx="72.74613391789285" cy="-62.8467875173176" r="1" fill="black" />
		<path opacity="0.75" fill="pink" d="M2.343000283126648 -10.775128114400614 L4.843000283126649 -8.610064604939518 L39.36476608065775 -23.723620034706705 L2.343000283126648 -10.775128114400614"/>
		<path opacity="0.75" fill="pink" d="M2.343000283126648 -10.775128114400614 L2.343000283126648 -6.445001095478419 L39.36476608065775 -23.723620034706705 L2.343000283126648 -10.775128114400614"/>
		<path opacity="0.75" fill="pink" d="M4.843000283126649 -8.610064604939518 L4.843000283126649 -4.279937586017324 L39.36476608065775 -23.723620034706705 L4.843000283126649 -8.610064604939518"/>
		<path opacity="0.75" fill="pink" d="M2.343000283126648 -6.445001095478419 L4.843000283126649 -4.279937586017324 L39.36476608065775 -23.723620034706705 L2.343000283126648 -6.445001095478419"/>

		<text style="fill:black;font-family:calibri;font-size:6" x="15.516922215637017" y="-21.74937407455366" >[5,5]</text>
		<path opacity="0.75" fill="darkturquoise" d="M2.343000283126648 -10.775128114400614 L4.843000283126649 -8.610064604939518 L4.843000283126649 -4.279937586017324 L2.343000283126648 -6.445001095478419 L2.343000283126648 -10.775128114400614" stroke-linecap="square"/>
		<path opacity="0.75" fill="darkturquoise" d="M-39.2262190985264 1.2248718855993843 L-36.7262190985264 3.3899353950604834 L-36.7262190985264 7.720062413982674 L-39.2262190985264 5.554998904521582 L-39.2262190985264 1.2248718855993843" stroke-linecap="square"/>
		<path opacity="0.75" fill="darkturquoise" d="M2.343000283126648 -10.775128114400614 L-39.2262190985264 1.2248718855993843 L-39.2262190985264 5.554998904521582 L2.343000283126648 -6.445001095478419 L2.343000283126648 -10.775128114400614" stroke-linecap="square"/>
		<path opacity="0.75" fill="darkturquoise" d="M4.843000283126649 -8.610064604939518 L-36.7262190985264 3.3899353950604834 L-36.7262190985264 7.720062413982674 L4.843000283126649 -4.279937586017324 L4.843000283126649 -8.610064604939518" stroke-linecap="square"/>
		<path opacity="0.75" fill="darkturquoise" d="M2.343000283126648 -10.775128114400614 L4.843000283126649 -8.610064604939518 L-36.7262190985264 3.3899353950604834 L-39.2262190985264 1.2248718855993843 L2.343000283126648 -10.775128114400614" stroke-linecap="square"/>
		<path opacity="0.75" fill="darkturquoise" d="M2.343000283126648 -6.445001095478419 L4.843000283126649 -4.279937586017324 L-36.7262190985264 7.720062413982674 L-39.2262190985264 5.554998904521582 L2.343000283126648 -6.445001095478419" stroke-linecap="square"/>
		<path opacity="0.5" fill="orange" d="M-6.267949192431125 -23.294228634059948 L9.732050807568879 -9.43782217350893 L9.732050807568879 18.274990747593108 L-6.267949192431125 4.418584287042094 L-6.267949192431125 -23.294228634059948" stroke-linecap="square"/>
		<path opacity="0.5" fill="orange" d="M-47.837168574084174 -11.294228634059946 L-31.837168574084174 2.5621778264910695 L-31.837168574084174 30.274990747593108 L-47.837168574084174 16.418584287042094 L-47.837168574084174 -11.294228634059946" stroke-linecap="square"/>
		<path opacity="0.5" fill="orange" d="M-6.267949192431125 -23.294228634059948 L-47.837168574084174 -11.294228634059946 L-47.837168574084174 16.418584287042094 L-6.267949192431125 4.418584287042094 L-6.267949192431125 -23.294228634059948" stroke-linecap="square"/>
		<path opacity="0.5" fill="orange" d="M9.732050807568879 -9.43782217350893 L-31.837168574084174 2.5621778264910695 L-31.837168574084174 30.274990747593108 L9.732050807568879 18.274990747593108 L9.732050807568879 -9.43782217350893" stroke-linecap="square"/>
		<path opacity="0.5" fill="orange" d="M-6.267949192431125 -23.294228634059948 L9.732050807568879 -9.43782217350893 L-31.837168574084174 2.5621778264910695 L-47.837168574084174 -11.294228634059946 L-6.267949192431125 -23.294228634059948" stroke-linecap="square"/>
		<path opacity="0.5" fill="orange" d="M-6.267949192431125 4.418584287042094 L9.732050807568879 18.274990747593108 L-31.837168574084174 30.274990747593108 L-47.837168574084174 16.418584287042094 L-6.267949192431125 4.418584287042094" stroke-linecap="square"/>
		<text style="fill:black;font-family:calibri;font-size:6" x="-47.837168574084174" y="2.562177826491074" >32</text>
		<text style="fill:black;font-family:calibri;font-size:6" x="-39.837168574084174" y="23.3467875173176" >32</text>
		<text style="fill:black;font-family:calibri;font-size:6" x="-27.05255888325765" y="-17.294228634059948" >48</text>

<!-- Arrow -->
		<path opacity="0.5" stroke="black" d="M-91.7986928011505 -15.346787517317601 L72.74613391789285 -62.8467875173176" stroke-linecap="square"/>
		<circle opacity="0.5" cx="72.74613391789285" cy="-62.8467875173176" r="1" fill="black" />
		<path opacity="0.75" fill="pink" d="M-85.55303721587575 17.147342572146883 L-80.55303721587575 21.477469591069074 L-38.649951078368694 -2.6869549393717023 L-85.55303721587575 17.147342572146883"/>
		<path opacity="0.75" fill="pink" d="M-85.55303721587575 17.147342572146883 L-85.55303721587575 25.807596609991265 L-38.649951078368694 -2.6869549393717023 L-85.55303721587575 17.147342572146883"/>
		<path opacity="0.75" fill="pink" d="M-80.55303721587575 21.477469591069074 L-80.55303721587575 30.137723628913463 L-38.649951078368694 -2.6869549393717023 L-80.55303721587575 21.477469591069074"/>
		<path opacity="0.75" fill="pink" d="M-85.55303721587575 25.807596609991265 L-80.55303721587575 30.137723628913463 L-38.649951078368694 -2.6869549393717023 L-85.55303721587575 25.807596609991265"/>

		<text style="fill:black;font-family:calibri;font-size:6" x="-68.2520085033734" y="2.7301938163875903" >[10,10]</text>
		<path opacity="0.75" fill="darkturquoise" d="M-85.55303721587575 17.147342572146883 L-80.55303721587575 21.477469591069074 L-80.55303721587575 30.137723628913463 L-85.55303721587575 25.807596609991265 L-85.55303721587575 17.147342572146883" stroke-linecap="square"/>
		<path opacity="0.75" fill="darkturquoise" d="M-102.87354529156451 22.147342572146883 L-97.87354529156451 26.477469591069074 L-97.87354529156451 35.13772362891346 L-102.87354529156451 30.807596609991265 L-102.87354529156451 22.147342572146883" stroke-linecap="square"/>
		<path opacity="0.75" fill="darkturquoise" d="M-85.55303721587575 17.147342572146883 L-102.87354529156451 22.147342572146883 L-102.87354529156451 30.807596609991265 L-85.55303721587575 25.807596609991265 L-85.55303721587575 17.147342572146883" stroke-linecap="square"/>
		<path opacity="0.75" fill="darkturquoise" d="M-80.55303721587575 21.477469591069074 L-97.87354529156451 26.477469591069074 L-97.87354529156451 35.13772362891346 L-80.55303721587575 30.137723628913463 L-80.55303721587575 21.477469591069074" stroke-linecap="square"/>
		<path opacity="0.75" fill="darkturquoise" d="M-85.55303721587575 17.147342572146883 L-80.55303721587575 21.477469591069074 L-97.87354529156451 26.477469591069074 L-102.87354529156451 22.147342572146883 L-85.55303721587575 17.147342572146883" stroke-linecap="square"/>
		<path opacity="0.75" fill="darkturquoise" d="M-85.55303721587575 25.807596609991265 L-80.55303721587575 30.137723628913463 L-97.87354529156451 35.13772362891346 L-102.87354529156451 30.807596609991265 L-85.55303721587575 25.807596609991265" stroke-linecap="square"/>
		<path opacity="0.5" fill="lavender" d="M-91.13843876330611 1.205771365940052 L-75.13843876330611 15.06217782649107 L-75.13843876330611 42.77499074759311 L-91.13843876330611 28.918584287042094 L-91.13843876330611 1.205771365940052" stroke-linecap="square"/>
		<path opacity="0.5" fill="lavender" d="M-108.45894683899488 6.205771365940052 L-92.45894683899488 20.062177826491066 L-92.45894683899488 47.77499074759311 L-108.45894683899488 33.918584287042094 L-108.45894683899488 6.205771365940052" stroke-linecap="square"/>
		<path opacity="0.5" fill="lavender" d="M-91.13843876330611 1.205771365940052 L-108.45894683899488 6.205771365940052 L-108.45894683899488 33.918584287042094 L-91.13843876330611 28.918584287042094 L-91.13843876330611 1.205771365940052" stroke-linecap="square"/>
		<path opacity="0.5" fill="lavender" d="M-75.13843876330611 15.06217782649107 L-92.45894683899488 20.062177826491066 L-92.45894683899488 47.77499074759311 L-75.13843876330611 42.77499074759311 L-75.13843876330611 15.06217782649107" stroke-linecap="square"/>
		<path opacity="0.5" fill="lavender" d="M-91.13843876330611 1.205771365940052 L-75.13843876330611 15.06217782649107 L-92.45894683899488 20.062177826491066 L-108.45894683899488 6.205771365940052 L-91.13843876330611 1.205771365940052" stroke-linecap="square"/>
		<path opacity="0.5" fill="lavender" d="M-91.13843876330611 28.918584287042094 L-75.13843876330611 42.77499074759311 L-92.45894683899488 47.77499074759311 L-108.45894683899488 33.918584287042094 L-91.13843876330611 28.918584287042094" stroke-linecap="square"/>
		<text style="fill:black;font-family:calibri;font-size:6" x="-108.45894683899488" y="20.062177826491073" >32</text>
		<text style="fill:black;font-family:calibri;font-size:6" x="-100.45894683899488" y="40.8467875173176" >32</text>
		<text style="fill:black;font-family:calibri;font-size:6" x="-99.7986928011505" y="3.705771365940052" >20</text>

<!-- Arrow -->
		<path opacity="0.5" stroke="black" d="M-91.7986928011505 10.633974596215563 L-91.7986928011505 -15.346787517317601" stroke-linecap="square"/>
		<circle opacity="0.5" cx="-91.7986928011505" cy="-15.346787517317601" r="1" fill="black" />
	 </g>
</svg>