<svg width="100%" height="100%" viewBox="-205.98969044771425 -237.30444566227678 408.4793808954285 314.203792062852" xmlns="http://www.w3.org/2000/svg">
	<g stroke="black" stroke-width="0.3">

		<path opacity="0.75" fill="darkturquoise" d="M191.48969044771425 -191.41823898251593 L196.48969044771425 -187.08811196359375 L196.48969044771425 72.71950917173788 L191.48969044771425 68.38938215281567 L191.48969044771425 -191.41823898251593" stroke-linecap="square"/>
		<path opacity="0.75" fill="darkturquoise" d="M182.82943640986986 -188.91823898251593 L187.82943640986986 -184.58811196359375 L187.82943640986986 75.21950917173788 L182.82943640986986 70.88938215281567 L182.82943640986986 -188.91823898251593" stroke-linecap="square"/>
		<path opacity="0.75" fill="darkturquoise" d="M191.48969044771425 -191.41823898251593 L182.82943640986986 -188.91823898251593 L182.82943640986986 70.88938215281567 L191.48969044771425 68.38938215281567 L191.48969044771425 -191.41823898251593" stroke-linecap="square"/>
		<path opacity="0.75" fill="darkturquoise" d="M196.48969044771425 -187.08811196359375 L187.82943640986986 -184.58811196359375 L187.82943640986986 75.21950917173788 L196.48969044771425 72.71950917173788 L196.48969044771425 -187.08811196359375" stroke-linecap="square"/>
		<path opacity="0.75" fill="darkturquoise" d="M191.48969044771425 -191.41823898251593 L196.48969044771425 -187.08811196359375 L187.82943640986986 -184.58811196359375 L182.82943640986986 -188.91823898251593 L191.48969044771425 -191.41823898251593" stroke-linecap="square"/>
		<path opacity="0.75" fill="darkturquoise" d="M191.48969044771425 68.38938215281567 L196.48969044771425 72.71950917173788 L187.82943640986986 75.21950917173788 L182.82943640986986 70.88938215281567 L191.48969044771425 68.38938215281567" stroke-linecap="square"/>
		<text style="fill:black;font-family:calibri;font-size:6" x="182.82943640986986" y="-59.01442841485013" >300</text>
		<text style="fill:black;font-family:calibri;font-size:6" x="185.32943640986986" y="73.05444566227678" >10</text>
		<text style="fill:black;font-family:calibri;font-size:6" x="187.15956342879207" y="-190.16823898251593" >10</text>

<!-- Arrow -->
		<path opacity="0.5" stroke="black" d="M142.02816622064793 -44.34936490538903 L185.32943640986986 -56.849364905389045" stroke-linecap="square"/>
		<circle opacity="0.5" cx="185.32943640986986" cy="-56.849364905389045" r="1" fill="black" />
<!-- Arrow -->
		<path opacity="0.5" stroke="black" d="M90.06664199358161 -29.34936490538903 L133.36791218280354 -41.84936490538903" stroke-linecap="square"/>
		<circle opacity="0.5" cx="133.36791218280354" cy="-41.84936490538903" r="1" fill="black" />
		<path opacity="0.75" fill="darkturquoise" d="M139.52816622064793 -133.116968793294 L144.52816622064793 -128.7868417743718 L144.52816622064793 44.41823898251593 L139.52816622064793 40.08811196359375 L139.52816622064793 -133.116968793294" stroke-linecap="square"/>
		<path opacity="0.75" fill="darkturquoise" d="M130.86791218280354 -130.616968793294 L135.86791218280354 -126.2868417743718 L135.86791218280354 46.91823898251593 L130.86791218280354 42.58811196359375 L130.86791218280354 -130.616968793294" stroke-linecap="square"/>
		<path opacity="0.75" fill="darkturquoise" d="M139.52816622064793 -133.116968793294 L130.86791218280354 -130.616968793294 L130.86791218280354 42.58811196359375 L139.52816622064793 40.08811196359375 L139.52816622064793 -133.116968793294" stroke-linecap="square"/>
		<path opacity="0.75" fill="darkturquoise" d="M144.52816622064793 -128.7868417743718 L135.86791218280354 -126.2868417743718 L135.86791218280354 46.91823898251593 L144.52816622064793 44.41823898251593 L144.52816622064793 -128.7868417743718" stroke-linecap="square"/>
		<path opacity="0.75" fill="darkturquoise" d="M139.52816622064793 -133.116968793294 L144.52816622064793 -128.7868417743718 L135.86791218280354 -126.2868417743718 L130.86791218280354 -130.616968793294 L139.52816622064793 -133.116968793294" stroke-linecap="square"/>
		<path opacity="0.75" fill="darkturquoise" d="M139.52816622064793 40.08811196359375 L144.52816622064793 44.41823898251593 L135.86791218280354 46.91823898251593 L130.86791218280354 42.58811196359375 L139.52816622064793 40.08811196359375" stroke-linecap="square"/>
		<text style="fill:black;font-family:calibri;font-size:6" x="130.86791218280354" y="-44.01442841485013" >200</text>
		<text style="fill:black;font-family:calibri;font-size:6" x="133.36791218280354" y="44.75317547305484" >10</text>
		<text style="fill:black;font-family:calibri;font-size:6" x="135.19803920172575" y="-131.866968793294" >10</text>

		<path opacity="0.5" fill="orange" d="M87.06664199358161 -35.411542731880104 L93.06664199358161 -30.215390309173472 L93.06664199358161 -23.28718707889796 L87.06664199358161 -28.483339501604593 L87.06664199358161 -35.411542731880104" stroke-linecap="square"/>
		<path opacity="0.5" fill="orange" d="M24.712812921102035 -17.411542731880104 L30.712812921102035 -12.215390309173472 L30.712812921102035 -5.287187078897961 L24.712812921102035 -10.483339501604593 L24.712812921102035 -17.411542731880104" stroke-linecap="square"/>
		<path opacity="0.5" fill="orange" d="M87.06664199358161 -35.411542731880104 L24.712812921102035 -17.411542731880104 L24.712812921102035 -10.483339501604593 L87.06664199358161 -28.483339501604593 L87.06664199358161 -35.411542731880104" stroke-linecap="square"/>
		<path opacity="0.5" fill="orange" d="M93.06664199358161 -30.215390309173472 L30.712812921102035 -12.215390309173472 L30.712812921102035 -5.287187078897961 L93.06664199358161 -23.28718707889796 L93.06664199358161 -30.215390309173472" stroke-linecap="square"/>
		<path opacity="0.5" fill="orange" d="M87.06664199358161 -35.411542731880104 L93.06664199358161 -30.215390309173472 L30.712812921102035 -12.215390309173472 L24.712812921102035 -17.411542731880104 L87.06664199358161 -35.411542731880104" stroke-linecap="square"/>
		<path opacity="0.5" fill="orange" d="M87.06664199358161 -28.483339501604593 L93.06664199358161 -23.28718707889796 L30.712812921102035 -5.287187078897961 L24.712812921102035 -10.483339501604593 L87.06664199358161 -28.483339501604593" stroke-linecap="square"/>
		<text style="fill:black;font-family:calibri;font-size:6" x="24.712812921102035" y="-13.947441116742349" >8</text>
		<text style="fill:black;font-family:calibri;font-size:6" x="27.712812921102035" y="-7.885263290251277" >12</text>
		<text style="fill:black;font-family:calibri;font-size:6" x="55.88972745734182" y="-26.411542731880104" >72</text>

		<path opacity="0.75" fill="pink" d="M-16.985396423492222 -6.527074809388608 L-11.985396423492219 -2.1969477904664174 L24.80473337154272 -16.22156237266805 L-16.985396423492222 -6.527074809388608"/>
		<path opacity="0.75" fill="pink" d="M-16.985396423492222 -6.527074809388608 L-16.985396423492222 2.133179228455777 L24.80473337154272 -16.22156237266805 L-16.985396423492222 -6.527074809388608"/>
		<path opacity="0.75" fill="pink" d="M-11.985396423492219 -2.1969477904664174 L-11.985396423492219 6.463306247377972 L24.80473337154272 -16.22156237266805 L-11.985396423492219 -2.1969477904664174"/>
		<path opacity="0.75" fill="pink" d="M-16.985396423492222 2.133179228455777 L-11.985396423492219 6.463306247377972 L24.80473337154272 -16.22156237266805 L-16.985396423492222 2.133179228455777"/>

		<text style="fill:black;font-family:calibri;font-size:6" x="-1.3886864918139068" y="-15.874318591028329" >[10,10]</text>
		<path opacity="0.75" fill="darkturquoise" d="M-16.985396423492222 -6.527074809388608 L-11.985396423492219 -2.1969477904664174 L-11.985396423492219 6.463306247377972 L-16.985396423492222 2.133179228455777 L-16.985396423492222 -6.527074809388608" stroke-linecap="square"/>
		<path opacity="0.75" fill="darkturquoise" d="M-72.41102226569629 9.472925190611392 L-67.41102226569629 13.803052209533583 L-67.41102226569629 22.46330624737797 L-72.41102226569629 18.133179228455774 L-72.41102226569629 9.472925190611392" stroke-linecap="square"/>
		<path opacity="0.75" fill="darkturquoise" d="M-16.985396423492222 -6.527074809388608 L-72.41102226569629 9.472925190611392 L-72.41102226569629 18.133179228455774 L-16.985396423492222 2.133179228455777 L-16.985396423492222 -6.527074809388608" stroke-linecap="square"/>
		<path opacity="0.75" fill="darkturquoise" d="M-11.985396423492219 -2.1969477904664174 L-67.41102226569629 13.803052209533583 L-67.41102226569629 22.46330624737797 L-11.985396423492219 6.463306247377972 L-11.985396423492219 -2.1969477904664174" stroke-linecap="square"/>
		<path opacity="0.75" fill="darkturquoise" d="M-16.985396423492222 -6.527074809388608 L-11.985396423492219 -2.1969477904664174 L-67.41102226569629 13.803052209533583 L-72.41102226569629 9.472925190611392 L-16.985396423492222 -6.527074809388608" stroke-linecap="square"/>
		<path opacity="0.75" fill="darkturquoise" d="M-16.985396423492222 2.133179228455777 L-11.985396423492219 6.463306247377972 L-67.41102226569629 22.46330624737797 L-72.41102226569629 18.133179228455774 L-16.985396423492222 2.133179228455777" stroke-linecap="square"/>
		<path opacity="0.5" fill="orange" d="M-21.588457268119896 -10.973720558371173 L-9.588457268119893 -0.5814157129579094 L-9.588457268119893 13.274990747593108 L-21.588457268119896 2.882685902179844 L-21.588457268119896 -10.973720558371173" stroke-linecap="square"/>
		<path opacity="0.5" fill="orange" d="M-77.01408311032397 5.026279441628827 L-65.01408311032397 15.418584287042094 L-65.01408311032397 29.274990747593108 L-77.01408311032397 18.882685902179844 L-77.01408311032397 5.026279441628827" stroke-linecap="square"/>
		<path opacity="0.5" fill="orange" d="M-21.588457268119896 -10.973720558371173 L-77.01408311032397 5.026279441628827 L-77.01408311032397 18.882685902179844 L-21.588457268119896 2.882685902179844 L-21.588457268119896 -10.973720558371173" stroke-linecap="square"/>
		<path opacity="0.5" fill="orange" d="M-9.588457268119893 -0.5814157129579094 L-65.01408311032397 15.418584287042094 L-65.01408311032397 29.274990747593108 L-9.588457268119893 13.274990747593108 L-9.588457268119893 -0.5814157129579094" stroke-linecap="square"/>
		<path opacity="0.5" fill="orange" d="M-21.588457268119896 -10.973720558371173 L-9.588457268119893 -0.5814157129579094 L-65.01408311032397 15.418584287042094 L-77.01408311032397 5.026279441628827 L-21.588457268119896 -10.973720558371173" stroke-linecap="square"/>
		<path opacity="0.5" fill="orange" d="M-21.588457268119896 2.882685902179844 L-9.588457268119893 13.274990747593108 L-65.01408311032397 29.274990747593108 L-77.01408311032397 18.882685902179844 L-21.588457268119896 2.882685902179844" stroke-linecap="square"/>
		<text style="fill:black;font-family:calibri;font-size:6" x="-77.01408311032397" y="11.954482671904335" >16</text>
		<text style="fill:black;font-family:calibri;font-size:6" x="-71.01408311032397" y="24.078838324886476" >24</text>
		<text style="fill:black;font-family:calibri;font-size:6" x="-49.30127018922193" y="-2.9737205583711734" >64</text>

		<path opacity="0.75" fill="pink" d="M-120.15674189895606 13.666144478961435 L-117.65674189895606 15.831207988422534 L-68.64376160744024 24.60413923360497 L-120.15674189895606 13.666144478961435"/>
		<path opacity="0.75" fill="pink" d="M-120.15674189895606 13.666144478961435 L-120.15674189895606 17.996271497883633 L-68.64376160744024 24.60413923360497 L-120.15674189895606 13.666144478961435"/>
		<path opacity="0.75" fill="pink" d="M-117.65674189895606 15.831207988422534 L-117.65674189895606 20.161335007344732 L-68.64376160744024 24.60413923360497 L-117.65674189895606 15.831207988422534"/>
		<path opacity="0.75" fill="pink" d="M-120.15674189895606 17.996271497883633 L-117.65674189895606 20.161335007344732 L-68.64376160744024 24.60413923360497 L-120.15674189895606 17.996271497883633"/>

		<text style="fill:black;font-family:calibri;font-size:6" x="-102.15241513511745" y="14.635141856283202" >[5,5]</text>
		<path opacity="0.75" fill="darkturquoise" d="M-120.15674189895606 13.666144478961435 L-117.65674189895606 15.831207988422534 L-117.65674189895606 20.161335007344732 L-120.15674189895606 17.996271497883633 L-120.15674189895606 13.666144478961435" stroke-linecap="square"/>
		<path opacity="0.75" fill="darkturquoise" d="M-147.8695548200581 21.666144478961435 L-145.3695548200581 23.831207988422534 L-145.3695548200581 28.161335007344732 L-147.8695548200581 25.996271497883633 L-147.8695548200581 21.666144478961435" stroke-linecap="square"/>
		<path opacity="0.75" fill="darkturquoise" d="M-120.15674189895606 13.666144478961435 L-147.8695548200581 21.666144478961435 L-147.8695548200581 25.996271497883633 L-120.15674189895606 17.996271497883633 L-120.15674189895606 13.666144478961435" stroke-linecap="square"/>
		<path opacity="0.75" fill="darkturquoise" d="M-117.65674189895606 15.831207988422534 L-145.3695548200581 23.831207988422534 L-145.3695548200581 28.161335007344732 L-117.65674189895606 20.161335007344732 L-117.65674189895606 15.831207988422534" stroke-linecap="square"/>
		<path opacity="0.75" fill="darkturquoise" d="M-120.15674189895606 13.666144478961435 L-117.65674189895606 15.831207988422534 L-145.3695548200581 23.831207988422534 L-147.8695548200581 21.666144478961435 L-120.15674189895606 13.666144478961435" stroke-linecap="square"/>
		<path opacity="0.75" fill="darkturquoise" d="M-120.15674189895606 17.996271497883633 L-117.65674189895606 20.161335007344732 L-145.3695548200581 28.161335007344732 L-147.8695548200581 25.996271497883633 L-120.15674189895606 17.996271497883633" stroke-linecap="square"/>
		<path opacity="0.5" fill="orange" d="M-126.31535329954589 5.401923788646684 L-102.31535329954589 26.186533479473212 L-102.31535329954589 53.899346400575254 L-126.31535329954589 33.114736709748726 L-126.31535329954589 5.401923788646684" stroke-linecap="square"/>
		<path opacity="0.5" fill="orange" d="M-154.02816622064793 13.401923788646684 L-130.02816622064793 34.18653347947321 L-130.02816622064793 61.899346400575254 L-154.02816622064793 41.114736709748726 L-154.02816622064793 13.401923788646684" stroke-linecap="square"/>
		<path opacity="0.5" fill="orange" d="M-126.31535329954589 5.401923788646684 L-154.02816622064793 13.401923788646684 L-154.02816622064793 41.114736709748726 L-126.31535329954589 33.114736709748726 L-126.31535329954589 5.401923788646684" stroke-linecap="square"/>
		<path opacity="0.5" fill="orange" d="M-102.31535329954589 26.186533479473212 L-130.02816622064793 34.18653347947321 L-130.02816622064793 61.899346400575254 L-102.31535329954589 53.899346400575254 L-102.31535329954589 26.186533479473212" stroke-linecap="square"/>
		<path opacity="0.5" fill="orange" d="M-126.31535329954589 5.401923788646684 L-102.31535329954589 26.186533479473212 L-130.02816622064793 34.18653347947321 L-154.02816622064793 13.401923788646684 L-126.31535329954589 5.401923788646684" stroke-linecap="square"/>
		<path opacity="0.5" fill="orange" d="M-126.31535329954589 33.114736709748726 L-102.31535329954589 53.899346400575254 L-130.02816622064793 61.899346400575254 L-154.02816622064793 41.114736709748726 L-126.31535329954589 33.114736709748726" stroke-linecap="square"/>
		<text style="fill:black;font-family:calibri;font-size:6" x="-154.02816622064793" y="27.258330249197705" >32</text>
		<text style="fill:black;font-family:calibri;font-size:6" x="-142.02816622064793" y="51.50704155516199" >48</text>
		<text style="fill:black;font-family:calibri;font-size:6" x="-140.1717597600969" y="9.401923788646684" >32</text>

		<path opacity="0.75" fill="pink" d="M-181.73861916559278 49.83065756004481 L-176.73861916559278 54.160784578967 L-150.64547207160936 31.94953813267427 L-181.73861916559278 49.83065756004481"/>
		<path opacity="0.75" fill="pink" d="M-181.73861916559278 49.83065756004481 L-181.73861916559278 58.49091159788918 L-150.64547207160936 31.94953813267427 L-181.73861916559278 49.83065756004481"/>
		<path opacity="0.75" fill="pink" d="M-176.73861916559278 54.160784578967 L-176.73861916559278 62.82103861681138 L-150.64547207160936 31.94953813267427 L-176.73861916559278 54.160784578967"/>
		<path opacity="0.75" fill="pink" d="M-181.73861916559278 58.49091159788918 L-176.73861916559278 62.82103861681138 L-150.64547207160936 31.94953813267427 L-181.73861916559278 58.49091159788918"/>

		<text style="fill:black;font-family:calibri;font-size:6" x="-169.70757013426498" y="36.39009784635954" >[10,10]</text>
		<path opacity="0.75" fill="darkturquoise" d="M-181.73861916559278 49.83065756004481 L-176.73861916559278 54.160784578967 L-176.73861916559278 62.82103861681138 L-181.73861916559278 58.49091159788918 L-181.73861916559278 49.83065756004481" stroke-linecap="square"/>
		<path opacity="0.75" fill="darkturquoise" d="M-190.39887320343718 52.33065756004481 L-185.39887320343718 56.660784578967 L-185.39887320343718 65.32103861681138 L-190.39887320343718 60.99091159788918 L-190.39887320343718 52.33065756004481" stroke-linecap="square"/>
		<path opacity="0.75" fill="darkturquoise" d="M-181.73861916559278 49.83065756004481 L-190.39887320343718 52.33065756004481 L-190.39887320343718 60.99091159788918 L-181.73861916559278 58.49091159788918 L-181.73861916559278 49.83065756004481" stroke-linecap="square"/>
		<path opacity="0.75" fill="darkturquoise" d="M-176.73861916559278 54.160784578967 L-185.39887320343718 56.660784578967 L-185.39887320343718 65.32103861681138 L-176.73861916559278 62.82103861681138 L-176.73861916559278 54.160784578967" stroke-linecap="square"/>
		<path opacity="0.75" fill="darkturquoise" d="M-181.73861916559278 49.83065756004481 L-176.73861916559278 54.160784578967 L-185.39887320343718 56.660784578967 L-190.39887320343718 52.33065756004481 L-181.73861916559278 49.83065756004481" stroke-linecap="square"/>
		<path opacity="0.75" fill="darkturquoise" d="M-181.73861916559278 58.49091159788918 L-176.73861916559278 62.82103861681138 L-185.39887320343718 65.32103861681138 L-190.39887320343718 60.99091159788918 L-181.73861916559278 58.49091159788918" stroke-linecap="square"/>
		<path opacity="0.5" fill="lavender" d="M-197.32943640986986 25.901923788646684 L-173.32943640986986 46.68653347947321 L-173.32943640986986 74.39934640057525 L-197.32943640986986 53.614736709748726 L-197.32943640986986 25.901923788646684" stroke-linecap="square"/>
		<path opacity="0.5" fill="lavender" d="M-205.98969044771425 28.401923788646684 L-181.98969044771425 49.18653347947321 L-181.98969044771425 76.89934640057525 L-205.98969044771425 56.114736709748726 L-205.98969044771425 28.401923788646684" stroke-linecap="square"/>
		<path opacity="0.5" fill="lavender" d="M-197.32943640986986 25.901923788646684 L-205.98969044771425 28.401923788646684 L-205.98969044771425 56.114736709748726 L-197.32943640986986 53.614736709748726 L-197.32943640986986 25.901923788646684" stroke-linecap="square"/>
		<path opacity="0.5" fill="lavender" d="M-173.32943640986986 46.68653347947321 L-181.98969044771425 49.18653347947321 L-181.98969044771425 76.89934640057525 L-173.32943640986986 74.39934640057525 L-173.32943640986986 46.68653347947321" stroke-linecap="square"/>
		<path opacity="0.5" fill="lavender" d="M-197.32943640986986 25.901923788646684 L-173.32943640986986 46.68653347947321 L-181.98969044771425 49.18653347947321 L-205.98969044771425 28.401923788646684 L-197.32943640986986 25.901923788646684" stroke-linecap="square"/>
		<path opacity="0.5" fill="lavender" d="M-197.32943640986986 53.614736709748726 L-173.32943640986986 74.39934640057525 L-181.98969044771425 76.89934640057525 L-205.98969044771425 56.114736709748726 L-197.32943640986986 53.614736709748726" stroke-linecap="square"/>
		<text style="fill:black;font-family:calibri;font-size:6" x="-205.98969044771425" y="42.258330249197705" >32</text>
		<text style="fill:black;font-family:calibri;font-size:6" x="-193.98969044771425" y="66.50704155516199" >48</text>
		<text style="fill:black;font-family:calibri;font-size:6" x="-201.65956342879207" y="27.151923788646684" >10</text>

	 </g>
</svg>