<svg width="1000.0px" height="1000.0px" viewBox="-500.0 -500.0 1000.0 1000.0" xmlns="http://www.w3.org/2000/svg">
	<g stroke="black" stroke-width="0.3">
		<path opacity="0.75" fill="darkturquoise" d="M471.628750427021 -180.3869573849588 L476.628750427021 -176.0568303660366 L476.628750427021 -2.8517496091488397 L471.628750427021 -7.181876628071038 L471.628750427021 -180.3869573849588"/>
		<path opacity="0.75" fill="darkturquoise" d="M462.9684963891766 -177.8869573849588 L467.9684963891766 -173.5568303660366 L467.9684963891766 -0.3517496091488397 L462.9684963891766 -4.681876628071038 L462.9684963891766 -177.8869573849588"/>
		<path opacity="0.75" fill="darkturquoise" d="M471.628750427021 -180.3869573849588 L462.9684963891766 -177.8869573849588 L462.9684963891766 -4.681876628071038 L471.628750427021 -7.181876628071038 L471.628750427021 -180.3869573849588"/>
		<path opacity="0.75" fill="darkturquoise" d="M476.628750427021 -176.0568303660366 L467.9684963891766 -173.5568303660366 L467.9684963891766 -0.3517496091488397 L476.628750427021 -2.8517496091488397 L476.628750427021 -176.0568303660366"/>
		<path opacity="0.75" fill="darkturquoise" d="M471.628750427021 -180.3869573849588 L476.628750427021 -176.0568303660366 L467.9684963891766 -173.5568303660366 L462.9684963891766 -177.8869573849588 L471.628750427021 -180.3869573849588"/>
		<path opacity="0.75" fill="darkturquoise" d="M471.628750427021 -7.181876628071038 L476.628750427021 -2.8517496091488397 L467.9684963891766 -0.3517496091488397 L462.9684963891766 -4.681876628071038 L471.628750427021 -7.181876628071038"/>
		<text x="462.9684963891766" y="-91.28441700651493" font-family="calibri" font-size="4">200</text>
		<text x="465.4684963891766" y="-2.5168131186099387" font-family="calibri" font-size="4">10</text>
		<text x="467.2986234080988" y="-179.1369573849588" font-family="calibri" font-size="4">10</text>

<!-- Arrow -->
		<path opacity="0.5" stroke="black" d="M422.16722619995465 -76.61935349705382 L465.4684963891766 -89.11935349705382"/>
		<circle opacity="0.5" cx="465.4684963891766" cy="-89.11935349705382" r="1" fill="black" />
		<path opacity="0.75" fill="darkturquoise" d="M419.66722619995465 -165.3869573849588 L424.66722619995465 -161.0568303660366 L424.66722619995465 12.14825039085116 L419.66722619995465 7.818123371928962 L419.66722619995465 -165.3869573849588"/>
		<path opacity="0.75" fill="darkturquoise" d="M411.0069721621103 -162.8869573849588 L416.0069721621103 -158.5568303660366 L416.0069721621103 14.64825039085116 L411.0069721621103 10.318123371928962 L411.0069721621103 -162.8869573849588"/>
		<path opacity="0.75" fill="darkturquoise" d="M419.66722619995465 -165.3869573849588 L411.0069721621103 -162.8869573849588 L411.0069721621103 10.318123371928962 L419.66722619995465 7.818123371928962 L419.66722619995465 -165.3869573849588"/>
		<path opacity="0.75" fill="darkturquoise" d="M424.66722619995465 -161.0568303660366 L416.0069721621103 -158.5568303660366 L416.0069721621103 14.64825039085116 L424.66722619995465 12.14825039085116 L424.66722619995465 -161.0568303660366"/>
		<path opacity="0.75" fill="darkturquoise" d="M419.66722619995465 -165.3869573849588 L424.66722619995465 -161.0568303660366 L416.0069721621103 -158.5568303660366 L411.0069721621103 -162.8869573849588 L419.66722619995465 -165.3869573849588"/>
		<path opacity="0.75" fill="darkturquoise" d="M419.66722619995465 7.818123371928962 L424.66722619995465 12.14825039085116 L416.0069721621103 14.64825039085116 L411.0069721621103 10.318123371928962 L419.66722619995465 7.818123371928962"/>
		<text x="411.0069721621103" y="-76.28441700651493" font-family="calibri" font-size="4">200</text>
		<text x="413.5069721621103" y="12.483186881390061" font-family="calibri" font-size="4">10</text>
		<text x="415.3370991810325" y="-164.1369573849588" font-family="calibri" font-size="4">10</text>

		<path opacity="0.5" fill="orange" d="M297.1720588025886 -83.332445428599 L301.1720588025886 -79.86834381346125 L301.1720588025886 -72.94014058318574 L297.1720588025886 -76.40424219832349 L297.1720588025886 -83.332445428599"/>
		<path opacity="0.5" fill="orange" d="M241.74643296038454 -67.332445428599 L245.74643296038454 -63.86834381346125 L245.74643296038454 -56.94014058318574 L241.74643296038454 -60.404242198323495 L241.74643296038454 -67.332445428599"/>
		<path opacity="0.5" fill="orange" d="M297.1720588025886 -83.332445428599 L241.74643296038454 -67.332445428599 L241.74643296038454 -60.404242198323495 L297.1720588025886 -76.40424219832349 L297.1720588025886 -83.332445428599"/>
		<path opacity="0.5" fill="orange" d="M301.1720588025886 -79.86834381346125 L245.74643296038454 -63.86834381346125 L245.74643296038454 -56.94014058318574 L301.1720588025886 -72.94014058318574 L301.1720588025886 -79.86834381346125"/>
		<path opacity="0.5" fill="orange" d="M297.1720588025886 -83.332445428599 L301.1720588025886 -79.86834381346125 L245.74643296038454 -63.86834381346125 L241.74643296038454 -67.332445428599 L297.1720588025886 -83.332445428599"/>
		<path opacity="0.5" fill="orange" d="M297.1720588025886 -76.40424219832349 L301.1720588025886 -72.94014058318574 L245.74643296038454 -56.94014058318574 L241.74643296038454 -60.404242198323495 L297.1720588025886 -76.40424219832349"/>
		<text x="241.74643296038454" y="-63.86834381346125" font-family="calibri" font-size="4">8</text>
		<text x="243.74643296038454" y="-58.67219139075462" font-family="calibri" font-size="4">8</text>
		<text x="269.4592458814866" y="-75.332445428599" font-family="calibri" font-size="4">64</text>

<!-- Arrow -->
		<path opacity="0.5" stroke="black" d="M299.1720588025886 -78.13629300589237 L361.54544793504397 -59.11935349705382"/>
		<circle opacity="0.5" cx="361.54544793504397" cy="-59.11935349705382" r="1" fill="black" />
<!-- Arrow -->
		<path opacity="0.5" stroke="black" d="M370.20570197288833 -61.61935349705382 L413.5069721621103 -74.11935349705382"/>
		<circle opacity="0.5" cx="413.5069721621103" cy="-74.11935349705382" r="1" fill="black" />
		<path opacity="0.75" fill="darkturquoise" d="M367.70570197288833 -150.3869573849588 L372.70570197288833 -146.0568303660366 L372.70570197288833 27.14825039085116 L367.70570197288833 22.818123371928962 L367.70570197288833 -150.3869573849588"/>
		<path opacity="0.75" fill="darkturquoise" d="M359.04544793504397 -147.8869573849588 L364.04544793504397 -143.5568303660366 L364.04544793504397 29.64825039085116 L359.04544793504397 25.318123371928962 L359.04544793504397 -147.8869573849588"/>
		<path opacity="0.75" fill="darkturquoise" d="M367.70570197288833 -150.3869573849588 L359.04544793504397 -147.8869573849588 L359.04544793504397 25.318123371928962 L367.70570197288833 22.818123371928962 L367.70570197288833 -150.3869573849588"/>
		<path opacity="0.75" fill="darkturquoise" d="M372.70570197288833 -146.0568303660366 L364.04544793504397 -143.5568303660366 L364.04544793504397 29.64825039085116 L372.70570197288833 27.14825039085116 L372.70570197288833 -146.0568303660366"/>
		<path opacity="0.75" fill="darkturquoise" d="M367.70570197288833 -150.3869573849588 L372.70570197288833 -146.0568303660366 L364.04544793504397 -143.5568303660366 L359.04544793504397 -147.8869573849588 L367.70570197288833 -150.3869573849588"/>
		<path opacity="0.75" fill="darkturquoise" d="M367.70570197288833 22.818123371928962 L372.70570197288833 27.14825039085116 L364.04544793504397 29.64825039085116 L359.04544793504397 25.318123371928962 L367.70570197288833 22.818123371928962"/>
		<text x="359.04544793504397" y="-61.28441700651492" font-family="calibri" font-size="4">200</text>
		<text x="361.54544793504397" y="27.48318688139006" font-family="calibri" font-size="4">10</text>
		<text x="363.3755749539662" y="-149.1369573849588" font-family="calibri" font-size="4">10</text>

		<path opacity="0.75" fill="pink" d="M199.18462496798395 -53.766860349315806 L201.68462496798395 -51.601796839854714 L243.6186376515564 -62.426689649894385 L199.18462496798395 -53.766860349315806"/>
		<path opacity="0.75" fill="pink" d="M199.18462496798395 -53.766860349315806 L199.18462496798395 -49.436733330393615 L243.6186376515564 -62.426689649894385 L199.18462496798395 -53.766860349315806"/>
		<path opacity="0.75" fill="pink" d="M201.68462496798395 -51.601796839854714 L201.68462496798395 -47.271669820932516 L243.6186376515564 -62.426689649894385 L201.68462496798395 -51.601796839854714"/>
		<path opacity="0.75" fill="pink" d="M199.18462496798395 -49.436733330393615 L201.68462496798395 -47.271669820932516 L243.6186376515564 -62.426689649894385 L199.18462496798395 -49.436733330393615"/>

		<path opacity="0.75" fill="darkturquoise" d="M199.18462496798395 -53.766860349315806 L201.68462496798395 -51.601796839854714 L201.68462496798395 -47.271669820932516 L199.18462496798395 -49.436733330393615 L199.18462496798395 -53.766860349315806"/>
		<path opacity="0.75" fill="darkturquoise" d="M143.75899912577987 -37.766860349315806 L146.2589991257799 -35.601796839854714 L146.2589991257799 -31.27166982093252 L143.75899912577987 -33.436733330393615 L143.75899912577987 -37.766860349315806"/>
		<path opacity="0.75" fill="darkturquoise" d="M199.18462496798395 -53.766860349315806 L143.75899912577987 -37.766860349315806 L143.75899912577987 -33.436733330393615 L199.18462496798395 -49.436733330393615 L199.18462496798395 -53.766860349315806"/>
		<path opacity="0.75" fill="darkturquoise" d="M201.68462496798395 -51.601796839854714 L146.2589991257799 -35.601796839854714 L146.2589991257799 -31.27166982093252 L201.68462496798395 -47.271669820932516 L201.68462496798395 -51.601796839854714"/>
		<path opacity="0.75" fill="darkturquoise" d="M199.18462496798395 -53.766860349315806 L201.68462496798395 -51.601796839854714 L146.2589991257799 -35.601796839854714 L143.75899912577987 -37.766860349315806 L199.18462496798395 -53.766860349315806"/>
		<path opacity="0.75" fill="darkturquoise" d="M199.18462496798395 -49.436733330393615 L201.68462496798395 -47.271669820932516 L146.2589991257799 -31.27166982093252 L143.75899912577987 -33.436733330393615 L199.18462496798395 -49.436733330393615"/>
		<text x="143.75899912577987" y="-35.601796839854714" font-family="calibri" font-size="4">5</text>
		<text x="145.0089991257799" y="-32.35420157566307" font-family="calibri" font-size="4">5</text>
		<text x="171.4718120468819" y="-45.766860349315806" font-family="calibri" font-size="4">64</text>

		<path opacity="0.5" fill="orange" d="M198.4451627711626 -54.832445428599 L202.4451627711626 -51.36834381346125 L202.4451627711626 -44.44014058318574 L198.4451627711626 -47.904242198323495 L198.4451627711626 -54.832445428599"/>
		<path opacity="0.5" fill="orange" d="M143.01953692895853 -38.832445428599 L147.01953692895853 -35.36834381346125 L147.01953692895853 -28.440140583185737 L143.01953692895853 -31.904242198323495 L143.01953692895853 -38.832445428599"/>
		<path opacity="0.5" fill="orange" d="M198.4451627711626 -54.832445428599 L143.01953692895853 -38.832445428599 L143.01953692895853 -31.904242198323495 L198.4451627711626 -47.904242198323495 L198.4451627711626 -54.832445428599"/>
		<path opacity="0.5" fill="orange" d="M202.4451627711626 -51.36834381346125 L147.01953692895853 -35.36834381346125 L147.01953692895853 -28.440140583185737 L202.4451627711626 -44.44014058318574 L202.4451627711626 -51.36834381346125"/>
		<path opacity="0.5" fill="orange" d="M198.4451627711626 -54.832445428599 L202.4451627711626 -51.36834381346125 L147.01953692895853 -35.36834381346125 L143.01953692895853 -38.832445428599 L198.4451627711626 -54.832445428599"/>
		<path opacity="0.5" fill="orange" d="M198.4451627711626 -47.904242198323495 L202.4451627711626 -44.44014058318574 L147.01953692895853 -28.440140583185737 L143.01953692895853 -31.904242198323495 L198.4451627711626 -47.904242198323495"/>
		<text x="143.01953692895853" y="-35.36834381346125" font-family="calibri" font-size="4">8</text>
		<text x="145.01953692895853" y="-30.172191390754616" font-family="calibri" font-size="4">8</text>
		<text x="170.73234985006056" y="-46.832445428599" font-family="calibri" font-size="4">64</text>

<!-- Arrow -->
		<path opacity="0.5" stroke="black" d="M93.33364779650317 -43.39758601178475 L145.01953692895853 -33.63629300589237"/>
		<circle opacity="0.5" cx="145.01953692895853" cy="-33.63629300589237" r="1" fill="black" />
		<path opacity="0.5" fill="orange" d="M91.33364779650317 -48.59373843449138 L95.33364779650317 -45.12963681935363 L95.33364779650317 -38.20143358907812 L91.33364779650317 -41.665535204215864 L91.33364779650317 -48.59373843449138"/>
		<path opacity="0.5" fill="orange" d="M35.9080219542991 -32.59373843449138 L39.9080219542991 -29.129636819353628 L39.9080219542991 -22.201433589078118 L35.9080219542991 -25.665535204215864 L35.9080219542991 -32.59373843449138"/>
		<path opacity="0.5" fill="orange" d="M91.33364779650317 -48.59373843449138 L35.9080219542991 -32.59373843449138 L35.9080219542991 -25.665535204215864 L91.33364779650317 -41.665535204215864 L91.33364779650317 -48.59373843449138"/>
		<path opacity="0.5" fill="orange" d="M95.33364779650317 -45.12963681935363 L39.9080219542991 -29.129636819353628 L39.9080219542991 -22.201433589078118 L95.33364779650317 -38.20143358907812 L95.33364779650317 -45.12963681935363"/>
		<path opacity="0.5" fill="orange" d="M91.33364779650317 -48.59373843449138 L95.33364779650317 -45.12963681935363 L39.9080219542991 -29.129636819353628 L35.9080219542991 -32.59373843449138 L91.33364779650317 -48.59373843449138"/>
		<path opacity="0.5" fill="orange" d="M91.33364779650317 -41.665535204215864 L95.33364779650317 -38.20143358907812 L39.9080219542991 -22.201433589078118 L35.9080219542991 -25.665535204215864 L91.33364779650317 -41.665535204215864"/>
		<text x="35.9080219542991" y="-29.12963681935362" font-family="calibri" font-size="4">8</text>
		<text x="37.9080219542991" y="-23.93348439664699" font-family="calibri" font-size="4">8</text>
		<text x="63.62083487540114" y="-40.59373843449138" font-family="calibri" font-size="4">64</text>

<!-- Arrow -->
		<path opacity="0.5" stroke="black" d="M277.5605438279292 2.147586011784747 L361.54544793504397 -59.11935349705382"/>
		<circle opacity="0.5" cx="361.54544793504397" cy="-59.11935349705382" r="1" fill="black" />
		<path opacity="0.75" fill="pink" d="M-5.225930298959781 -16.169501971243974 L-2.7259302989597813 -14.004438461782883 L36.08280243051988 -25.695640472104976 L-5.225930298959781 -16.169501971243974"/>
		<path opacity="0.75" fill="pink" d="M-5.225930298959781 -16.169501971243974 L-5.225930298959781 -11.839374952321783 L36.08280243051988 -25.695640472104976 L-5.225930298959781 -16.169501971243974"/>
		<path opacity="0.75" fill="pink" d="M-2.7259302989597813 -14.004438461782883 L-2.7259302989597813 -9.674311442860688 L36.08280243051988 -25.695640472104976 L-2.7259302989597813 -14.004438461782883"/>
		<path opacity="0.75" fill="pink" d="M-5.225930298959781 -11.839374952321783 L-2.7259302989597813 -9.674311442860688 L36.08280243051988 -25.695640472104976 L-5.225930298959781 -11.839374952321783"/>

<!-- Arrow -->
		<path opacity="0.5" stroke="black" d="M50.34713282184376 18.375 L145.01953692895853 -33.63629300589237"/>
		<circle opacity="0.5" cx="145.01953692895853" cy="-33.63629300589237" r="1" fill="black" />
		<path opacity="0.75" fill="darkturquoise" d="M-5.225930298959781 -16.169501971243974 L-2.7259302989597813 -14.004438461782883 L-2.7259302989597813 -9.674311442860688 L-5.225930298959781 -11.839374952321783 L-5.225930298959781 -16.169501971243974"/>
		<path opacity="0.75" fill="darkturquoise" d="M-60.65155614116384 -0.16950197124397448 L-58.15155614116384 1.9955615382171175 L-58.15155614116384 6.325688557139312 L-60.65155614116384 4.1606250476782165 L-60.65155614116384 -0.16950197124397448"/>
		<path opacity="0.75" fill="darkturquoise" d="M-5.225930298959781 -16.169501971243974 L-60.65155614116384 -0.16950197124397448 L-60.65155614116384 4.1606250476782165 L-5.225930298959781 -11.839374952321783 L-5.225930298959781 -16.169501971243974"/>
		<path opacity="0.75" fill="darkturquoise" d="M-2.7259302989597813 -14.004438461782883 L-58.15155614116384 1.9955615382171175 L-58.15155614116384 6.325688557139312 L-2.7259302989597813 -9.674311442860688 L-2.7259302989597813 -14.004438461782883"/>
		<path opacity="0.75" fill="darkturquoise" d="M-5.225930298959781 -16.169501971243974 L-2.7259302989597813 -14.004438461782883 L-58.15155614116384 1.9955615382171175 L-60.65155614116384 -0.16950197124397448 L-5.225930298959781 -16.169501971243974"/>
		<path opacity="0.75" fill="darkturquoise" d="M-5.225930298959781 -11.839374952321783 L-2.7259302989597813 -9.674311442860688 L-58.15155614116384 6.325688557139312 L-60.65155614116384 4.1606250476782165 L-5.225930298959781 -11.839374952321783"/>
		<text x="-60.65155614116384" y="1.995561538217121" font-family="calibri" font-size="4">5</text>
		<text x="-59.40155614116384" y="5.243156802408764" font-family="calibri" font-size="4">5</text>
		<text x="-32.93874322006181" y="-8.169501971243974" font-family="calibri" font-size="4">64</text>

		<path opacity="0.5" fill="orange" d="M-9.393248234922822 -25.289890857198003 L-1.3932482349228223 -18.361687626922496 L-1.3932482349228223 -4.5052811663714785 L-9.393248234922822 -11.433484396646989 L-9.393248234922822 -25.289890857198003"/>
		<path opacity="0.5" fill="orange" d="M-64.81887407712688 -9.289890857198003 L-56.81887407712688 -2.361687626922496 L-56.81887407712688 11.494718833628522 L-64.81887407712688 4.566515603353011 L-64.81887407712688 -9.289890857198003"/>
		<path opacity="0.5" fill="orange" d="M-9.393248234922822 -25.289890857198003 L-64.81887407712688 -9.289890857198003 L-64.81887407712688 4.566515603353011 L-9.393248234922822 -11.433484396646989 L-9.393248234922822 -25.289890857198003"/>
		<path opacity="0.5" fill="orange" d="M-1.3932482349228223 -18.361687626922496 L-56.81887407712688 -2.361687626922496 L-56.81887407712688 11.494718833628522 L-1.3932482349228223 -4.5052811663714785 L-1.3932482349228223 -18.361687626922496"/>
		<path opacity="0.5" fill="orange" d="M-9.393248234922822 -25.289890857198003 L-1.3932482349228223 -18.361687626922496 L-56.81887407712688 -2.361687626922496 L-64.81887407712688 -9.289890857198003 L-9.393248234922822 -25.289890857198003"/>
		<path opacity="0.5" fill="orange" d="M-9.393248234922822 -11.433484396646989 L-1.3932482349228223 -4.5052811663714785 L-56.81887407712688 11.494718833628522 L-64.81887407712688 4.566515603353011 L-9.393248234922822 -11.433484396646989"/>
		<text x="-64.81887407712688" y="-2.361687626922496" font-family="calibri" font-size="4">16</text>
		<text x="-60.81887407712688" y="8.030617218490766" font-family="calibri" font-size="4">16</text>
		<text x="-37.10606115602485" y="-17.289890857198003" font-family="calibri" font-size="4">64</text>

<!-- Arrow -->
		<path opacity="0.5" stroke="black" d="M-105.37976320958228 -2.4884480157129936 L-60.81887407712688 1.1024139882152584"/>
		<circle opacity="0.5" cx="-60.81887407712688" cy="1.1024139882152584" r="1" fill="black" />
		<path opacity="0.5" fill="orange" d="M-109.37976320958228 -12.880752861126254 L-101.37976320958228 -5.952549630850747 L-101.37976320958228 7.903856829700267 L-109.37976320958228 0.9756535994247599 L-109.37976320958228 -12.880752861126254"/>
		<path opacity="0.5" fill="orange" d="M-164.80538905178634 3.119247138873746 L-156.80538905178634 10.047450369149253 L-156.80538905178634 23.903856829700267 L-164.80538905178634 16.97565359942476 L-164.80538905178634 3.119247138873746"/>
		<path opacity="0.5" fill="orange" d="M-109.37976320958228 -12.880752861126254 L-164.80538905178634 3.119247138873746 L-164.80538905178634 16.97565359942476 L-109.37976320958228 0.9756535994247599 L-109.37976320958228 -12.880752861126254"/>
		<path opacity="0.5" fill="orange" d="M-101.37976320958228 -5.952549630850747 L-156.80538905178634 10.047450369149253 L-156.80538905178634 23.903856829700267 L-101.37976320958228 7.903856829700267 L-101.37976320958228 -5.952549630850747"/>
		<path opacity="0.5" fill="orange" d="M-109.37976320958228 -12.880752861126254 L-101.37976320958228 -5.952549630850747 L-156.80538905178634 10.047450369149253 L-164.80538905178634 3.119247138873746 L-109.37976320958228 -12.880752861126254"/>
		<path opacity="0.5" fill="orange" d="M-109.37976320958228 0.9756535994247599 L-101.37976320958228 7.903856829700267 L-156.80538905178634 23.903856829700267 L-164.80538905178634 16.97565359942476 L-109.37976320958228 0.9756535994247599"/>
		<text x="-164.80538905178634" y="10.047450369149253" font-family="calibri" font-size="4">16</text>
		<text x="-160.80538905178634" y="20.439755214562513" font-family="calibri" font-size="4">16</text>
		<text x="-137.0925761306843" y="-4.880752861126254" font-family="calibri" font-size="4">64</text>

		<path opacity="0.5" fill="orange" d="M275.5605438279292 -3.0485664109218824 L279.5605438279292 0.415535204215864 L279.5605438279292 7.343738434491378 L275.5605438279292 3.879636819353628 L275.5605438279292 -3.0485664109218824"/>
		<path opacity="0.5" fill="orange" d="M220.1349179857251 12.951433589078118 L224.1349179857251 16.415535204215864 L224.1349179857251 23.343738434491378 L220.1349179857251 19.879636819353628 L220.1349179857251 12.951433589078118"/>
		<path opacity="0.5" fill="orange" d="M275.5605438279292 -3.0485664109218824 L220.1349179857251 12.951433589078118 L220.1349179857251 19.879636819353628 L275.5605438279292 3.879636819353628 L275.5605438279292 -3.0485664109218824"/>
		<path opacity="0.5" fill="orange" d="M279.5605438279292 0.415535204215864 L224.1349179857251 16.415535204215864 L224.1349179857251 23.343738434491378 L279.5605438279292 7.343738434491378 L279.5605438279292 0.415535204215864"/>
		<path opacity="0.5" fill="orange" d="M275.5605438279292 -3.0485664109218824 L279.5605438279292 0.415535204215864 L224.1349179857251 16.415535204215864 L220.1349179857251 12.951433589078118 L275.5605438279292 -3.0485664109218824"/>
		<path opacity="0.5" fill="orange" d="M275.5605438279292 3.879636819353628 L279.5605438279292 7.343738434491378 L224.1349179857251 23.343738434491378 L220.1349179857251 19.879636819353628 L275.5605438279292 3.879636819353628"/>
		<text x="220.1349179857251" y="16.41553520421587" font-family="calibri" font-size="4">8</text>
		<text x="222.1349179857251" y="21.611687626922503" font-family="calibri" font-size="4">8</text>
		<text x="247.84773090682717" y="4.951433589078118" font-family="calibri" font-size="4">64</text>

<!-- Arrow -->
		<path opacity="0.5" stroke="black" d="M-76.87976320958225 22.193275992143505 L-60.81887407712688 1.1024139882152584"/>
		<circle opacity="0.5" cx="-60.81887407712688" cy="1.1024139882152584" r="1" fill="black" />
		<path opacity="0.5" fill="orange" d="M48.34713282184376 13.178847577293368 L52.347132821843765 16.64294919243112 L52.347132821843765 23.571152422706632 L48.34713282184376 20.10705080756888 L48.34713282184376 13.178847577293368"/>
		<path opacity="0.5" fill="orange" d="M-7.0784930203603125 29.178847577293368 L-3.0784930203603125 32.642949192431125 L-3.0784930203603125 39.57115242270663 L-7.0784930203603125 36.107050807568875 L-7.0784930203603125 29.178847577293368"/>
		<path opacity="0.5" fill="orange" d="M48.34713282184376 13.178847577293368 L-7.0784930203603125 29.178847577293368 L-7.0784930203603125 36.107050807568875 L48.34713282184376 20.10705080756888 L48.34713282184376 13.178847577293368"/>
		<path opacity="0.5" fill="orange" d="M52.347132821843765 16.64294919243112 L-3.0784930203603125 32.642949192431125 L-3.0784930203603125 39.57115242270663 L52.347132821843765 23.571152422706632 L52.347132821843765 16.64294919243112"/>
		<path opacity="0.5" fill="orange" d="M48.34713282184376 13.178847577293368 L52.347132821843765 16.64294919243112 L-3.0784930203603125 32.642949192431125 L-7.0784930203603125 29.178847577293368 L48.34713282184376 13.178847577293368"/>
		<path opacity="0.5" fill="orange" d="M48.34713282184376 20.10705080756888 L52.347132821843765 23.571152422706632 L-3.0784930203603125 39.57115242270663 L-7.0784930203603125 36.107050807568875 L48.34713282184376 20.10705080756888"/>
		<text x="-7.0784930203603125" y="32.64294919243112" font-family="calibri" font-size="4">8</text>
		<text x="-5.0784930203603125" y="37.83910161513775" font-family="calibri" font-size="4">8</text>
		<text x="20.634319900741723" y="21.178847577293368" font-family="calibri" font-size="4">64</text>

		<path opacity="0.75" fill="pink" d="M-199.0018959735305 29.328055138669896 L-196.5018959735305 31.493118648130995 L-158.59518055879755 11.724936571301981 L-199.0018959735305 29.328055138669896"/>
		<path opacity="0.75" fill="pink" d="M-199.0018959735305 29.328055138669896 L-199.0018959735305 33.65818215759209 L-158.59518055879755 11.724936571301981 L-199.0018959735305 29.328055138669896"/>
		<path opacity="0.75" fill="pink" d="M-196.5018959735305 31.493118648130995 L-196.5018959735305 35.823245667053186 L-158.59518055879755 11.724936571301981 L-196.5018959735305 31.493118648130995"/>
		<path opacity="0.75" fill="pink" d="M-199.0018959735305 33.65818215759209 L-196.5018959735305 35.823245667053186 L-158.59518055879755 11.724936571301981 L-199.0018959735305 33.65818215759209"/>

		<path opacity="0.75" fill="pink" d="M177.44557434375295 28.052132821750668 L179.94557434375295 30.217196331211767 L224.00296310260083 17.157406898402478 L177.44557434375295 28.052132821750668"/>
		<path opacity="0.75" fill="pink" d="M177.44557434375295 28.052132821750668 L177.44557434375295 32.38225984067286 L224.00296310260083 17.157406898402478 L177.44557434375295 28.052132821750668"/>
		<path opacity="0.75" fill="pink" d="M179.94557434375295 30.217196331211767 L179.94557434375295 34.54732335013396 L224.00296310260083 17.157406898402478 L179.94557434375295 30.217196331211767"/>
		<path opacity="0.75" fill="pink" d="M177.44557434375295 32.38225984067286 L179.94557434375295 34.54732335013396 L224.00296310260083 17.157406898402478 L177.44557434375295 32.38225984067286"/>

		<path opacity="0.5" fill="orange" d="M-80.87976320958225 11.800971146730241 L-72.87976320958225 18.729174377005748 L-72.87976320958225 32.58558083755677 L-80.87976320958225 25.65737760728126 L-80.87976320958225 11.800971146730241"/>
		<path opacity="0.5" fill="orange" d="M-136.3053890517863 27.80097114673024 L-128.3053890517863 34.72917437700575 L-128.3053890517863 48.58558083755677 L-136.3053890517863 41.65737760728126 L-136.3053890517863 27.80097114673024"/>
		<path opacity="0.5" fill="orange" d="M-80.87976320958225 11.800971146730241 L-136.3053890517863 27.80097114673024 L-136.3053890517863 41.65737760728126 L-80.87976320958225 25.65737760728126 L-80.87976320958225 11.800971146730241"/>
		<path opacity="0.5" fill="orange" d="M-72.87976320958225 18.729174377005748 L-128.3053890517863 34.72917437700575 L-128.3053890517863 48.58558083755677 L-72.87976320958225 32.58558083755677 L-72.87976320958225 18.729174377005748"/>
		<path opacity="0.5" fill="orange" d="M-80.87976320958225 11.800971146730241 L-72.87976320958225 18.729174377005748 L-128.3053890517863 34.72917437700575 L-136.3053890517863 27.80097114673024 L-80.87976320958225 11.800971146730241"/>
		<path opacity="0.5" fill="orange" d="M-80.87976320958225 25.65737760728126 L-72.87976320958225 32.58558083755677 L-128.3053890517863 48.58558083755677 L-136.3053890517863 41.65737760728126 L-80.87976320958225 25.65737760728126"/>
		<text x="-136.3053890517863" y="34.72917437700575" font-family="calibri" font-size="4">16</text>
		<text x="-132.3053890517863" y="45.12147922241901" font-family="calibri" font-size="4">16</text>
		<text x="-108.59257613068428" y="19.80097114673024" font-family="calibri" font-size="4">64</text>

		<path opacity="0.75" fill="darkturquoise" d="M-199.0018959735305 29.328055138669896 L-196.5018959735305 31.493118648130995 L-196.5018959735305 35.823245667053186 L-199.0018959735305 33.65818215759209 L-199.0018959735305 29.328055138669896"/>
		<path opacity="0.75" fill="darkturquoise" d="M-226.71470889463257 37.328055138669896 L-224.21470889463257 39.493118648130995 L-224.21470889463257 43.823245667053186 L-226.71470889463257 41.65818215759209 L-226.71470889463257 37.328055138669896"/>
		<path opacity="0.75" fill="darkturquoise" d="M-199.0018959735305 29.328055138669896 L-226.71470889463257 37.328055138669896 L-226.71470889463257 41.65818215759209 L-199.0018959735305 33.65818215759209 L-199.0018959735305 29.328055138669896"/>
		<path opacity="0.75" fill="darkturquoise" d="M-196.5018959735305 31.493118648130995 L-224.21470889463257 39.493118648130995 L-224.21470889463257 43.823245667053186 L-196.5018959735305 35.823245667053186 L-196.5018959735305 31.493118648130995"/>
		<path opacity="0.75" fill="darkturquoise" d="M-199.0018959735305 29.328055138669896 L-196.5018959735305 31.493118648130995 L-224.21470889463257 39.493118648130995 L-226.71470889463257 37.328055138669896 L-199.0018959735305 29.328055138669896"/>
		<path opacity="0.75" fill="darkturquoise" d="M-199.0018959735305 33.65818215759209 L-196.5018959735305 35.823245667053186 L-224.21470889463257 43.823245667053186 L-226.71470889463257 41.65818215759209 L-199.0018959735305 33.65818215759209"/>
		<text x="-226.71470889463257" y="39.49311864813099" font-family="calibri" font-size="4">5</text>
		<text x="-225.46470889463257" y="42.74071391232263" font-family="calibri" font-size="4">5</text>
		<text x="-212.85830243408154" y="33.328055138669896" font-family="calibri" font-size="4">32</text>

		<path opacity="0.5" fill="orange" d="M-212.10665924100823 5.226942293460482 L-196.10665924100823 19.083348754011496 L-196.10665924100823 46.79616167511354 L-212.10665924100823 32.93975521456252 L-212.10665924100823 5.226942293460482"/>
		<path opacity="0.5" fill="orange" d="M-239.8194721621103 13.226942293460482 L-223.8194721621103 27.083348754011496 L-223.8194721621103 54.79616167511354 L-239.8194721621103 40.93975521456252 L-239.8194721621103 13.226942293460482"/>
		<path opacity="0.5" fill="orange" d="M-212.10665924100823 5.226942293460482 L-239.8194721621103 13.226942293460482 L-239.8194721621103 40.93975521456252 L-212.10665924100823 32.93975521456252 L-212.10665924100823 5.226942293460482"/>
		<path opacity="0.5" fill="orange" d="M-196.10665924100823 19.083348754011496 L-223.8194721621103 27.083348754011496 L-223.8194721621103 54.79616167511354 L-196.10665924100823 46.79616167511354 L-196.10665924100823 19.083348754011496"/>
		<path opacity="0.5" fill="orange" d="M-212.10665924100823 5.226942293460482 L-196.10665924100823 19.083348754011496 L-223.8194721621103 27.083348754011496 L-239.8194721621103 13.226942293460482 L-212.10665924100823 5.226942293460482"/>
		<path opacity="0.5" fill="orange" d="M-212.10665924100823 32.93975521456252 L-196.10665924100823 46.79616167511354 L-223.8194721621103 54.79616167511354 L-239.8194721621103 40.93975521456252 L-212.10665924100823 32.93975521456252"/>
		<text x="-239.8194721621103" y="27.0833487540115" font-family="calibri" font-size="4">32</text>
		<text x="-231.8194721621103" y="47.867958444838024" font-family="calibri" font-size="4">32</text>
		<text x="-225.96306570155926" y="9.226942293460482" font-family="calibri" font-size="4">32</text>

		<path opacity="0.75" fill="darkturquoise" d="M177.44557434375295 28.052132821750668 L179.94557434375295 30.217196331211767 L179.94557434375295 34.54732335013396 L177.44557434375295 32.38225984067286 L177.44557434375295 28.052132821750668"/>
		<path opacity="0.75" fill="darkturquoise" d="M122.0199485015489 44.05213282175067 L124.5199485015489 46.21719633121177 L124.5199485015489 50.54732335013396 L122.0199485015489 48.38225984067286 L122.0199485015489 44.05213282175067"/>
		<path opacity="0.75" fill="darkturquoise" d="M177.44557434375295 28.052132821750668 L122.0199485015489 44.05213282175067 L122.0199485015489 48.38225984067286 L177.44557434375295 32.38225984067286 L177.44557434375295 28.052132821750668"/>
		<path opacity="0.75" fill="darkturquoise" d="M179.94557434375295 30.217196331211767 L124.5199485015489 46.21719633121177 L124.5199485015489 50.54732335013396 L179.94557434375295 34.54732335013396 L179.94557434375295 30.217196331211767"/>
		<path opacity="0.75" fill="darkturquoise" d="M177.44557434375295 28.052132821750668 L179.94557434375295 30.217196331211767 L124.5199485015489 46.21719633121177 L122.0199485015489 44.05213282175067 L177.44557434375295 28.052132821750668"/>
		<path opacity="0.75" fill="darkturquoise" d="M177.44557434375295 32.38225984067286 L179.94557434375295 34.54732335013396 L124.5199485015489 50.54732335013396 L122.0199485015489 48.38225984067286 L177.44557434375295 32.38225984067286"/>
		<text x="122.0199485015489" y="46.21719633121177" font-family="calibri" font-size="4">5</text>
		<text x="123.2699485015489" y="49.46479159540341" font-family="calibri" font-size="4">5</text>
		<text x="149.73276142265092" y="36.05213282175067" font-family="calibri" font-size="4">64</text>

		<path opacity="0.5" fill="orange" d="M176.8336477965032 25.451433589078118 L180.8336477965032 28.915535204215864 L180.8336477965032 35.84373843449138 L176.8336477965032 32.37963681935363 L176.8336477965032 25.451433589078118"/>
		<path opacity="0.5" fill="orange" d="M121.40802195429913 41.45143358907812 L125.40802195429913 44.915535204215864 L125.40802195429913 51.84373843449138 L121.40802195429913 48.37963681935363 L121.40802195429913 41.45143358907812"/>
		<path opacity="0.5" fill="orange" d="M176.8336477965032 25.451433589078118 L121.40802195429913 41.45143358907812 L121.40802195429913 48.37963681935363 L176.8336477965032 32.37963681935363 L176.8336477965032 25.451433589078118"/>
		<path opacity="0.5" fill="orange" d="M180.8336477965032 28.915535204215864 L125.40802195429913 44.915535204215864 L125.40802195429913 51.84373843449138 L180.8336477965032 35.84373843449138 L180.8336477965032 28.915535204215864"/>
		<path opacity="0.5" fill="orange" d="M176.8336477965032 25.451433589078118 L180.8336477965032 28.915535204215864 L125.40802195429913 44.915535204215864 L121.40802195429913 41.45143358907812 L176.8336477965032 25.451433589078118"/>
		<path opacity="0.5" fill="orange" d="M176.8336477965032 32.37963681935363 L180.8336477965032 35.84373843449138 L125.40802195429913 51.84373843449138 L121.40802195429913 48.37963681935363 L176.8336477965032 32.37963681935363"/>
		<text x="121.40802195429913" y="44.91553520421587" font-family="calibri" font-size="4">8</text>
		<text x="123.40802195429913" y="50.1116876269225" font-family="calibri" font-size="4">8</text>
		<text x="149.12083487540116" y="33.45143358907812" font-family="calibri" font-size="4">64</text>

		<path opacity="0.75" fill="pink" d="M-183.10273849870202 45.41910183745674 L-180.60273849870202 47.58416534691784 L-133.11967157664802 42.19367382762826 L-183.10273849870202 45.41910183745674"/>
		<path opacity="0.75" fill="pink" d="M-183.10273849870202 45.41910183745674 L-183.10273849870202 49.749228856378934 L-133.11967157664802 42.19367382762826 L-183.10273849870202 45.41910183745674"/>
		<path opacity="0.75" fill="pink" d="M-180.60273849870202 47.58416534691784 L-180.60273849870202 51.91429236584003 L-133.11967157664802 42.19367382762826 L-180.60273849870202 47.58416534691784"/>
		<path opacity="0.75" fill="pink" d="M-183.10273849870202 49.749228856378934 L-180.60273849870202 51.91429236584003 L-133.11967157664802 42.19367382762826 L-183.10273849870202 49.749228856378934"/>

		<path opacity="0.75" fill="pink" d="M-281.0371447076336 30.158358626377577 L-276.0371447076336 34.48848564529977 L-230.8286672308073 21.942420302990598 L-281.0371447076336 30.158358626377577"/>
		<path opacity="0.75" fill="pink" d="M-281.0371447076336 30.158358626377577 L-281.0371447076336 38.81861266422196 L-230.8286672308073 21.942420302990598 L-281.0371447076336 30.158358626377577"/>
		<path opacity="0.75" fill="pink" d="M-276.0371447076336 34.48848564529977 L-276.0371447076336 43.14873968314415 L-230.8286672308073 21.942420302990598 L-276.0371447076336 34.48848564529977"/>
		<path opacity="0.75" fill="pink" d="M-281.0371447076336 38.81861266422196 L-276.0371447076336 43.14873968314415 L-230.8286672308073 21.942420302990598 L-281.0371447076336 38.81861266422196"/>

		<path opacity="0.75" fill="pink" d="M-49.75722959915316 42.79015391759504 L-47.257229599153135 44.955217427056134 L-3.6895580034919107 34.23019422143412 L-49.75722959915316 42.79015391759504"/>
		<path opacity="0.75" fill="pink" d="M-49.75722959915316 42.79015391759504 L-49.75722959915316 47.12028093651723 L-3.6895580034919107 34.23019422143412 L-49.75722959915316 42.79015391759504"/>
		<path opacity="0.75" fill="pink" d="M-47.257229599153135 44.955217427056134 L-47.257229599153135 49.28534444597833 L-3.6895580034919107 34.23019422143412 L-47.257229599153135 44.955217427056134"/>
		<path opacity="0.75" fill="pink" d="M-49.75722959915316 47.12028093651723 L-47.257229599153135 49.28534444597833 L-3.6895580034919107 34.23019422143412 L-49.75722959915316 47.12028093651723"/>

<!-- Arrow -->
		<path opacity="0.5" stroke="black" d="M78.84713282184377 43.056724007856495 L123.40802195429913 46.647586011784746"/>
		<circle opacity="0.5" cx="123.40802195429913" cy="46.647586011784746" r="1" fill="black" />
		<path opacity="0.75" fill="darkturquoise" d="M-281.0371447076336 30.158358626377577 L-276.0371447076336 34.48848564529977 L-276.0371447076336 43.14873968314415 L-281.0371447076336 38.81861266422196 L-281.0371447076336 30.158358626377577"/>
		<path opacity="0.75" fill="darkturquoise" d="M-298.3576527833224 35.15835862637758 L-293.3576527833224 39.48848564529977 L-293.3576527833224 48.14873968314415 L-298.3576527833224 43.81861266422196 L-298.3576527833224 35.15835862637758"/>
		<path opacity="0.75" fill="darkturquoise" d="M-281.0371447076336 30.158358626377577 L-298.3576527833224 35.15835862637758 L-298.3576527833224 43.81861266422196 L-281.0371447076336 38.81861266422196 L-281.0371447076336 30.158358626377577"/>
		<path opacity="0.75" fill="darkturquoise" d="M-276.0371447076336 34.48848564529977 L-293.3576527833224 39.48848564529977 L-293.3576527833224 48.14873968314415 L-276.0371447076336 43.14873968314415 L-276.0371447076336 34.48848564529977"/>
		<path opacity="0.75" fill="darkturquoise" d="M-281.0371447076336 30.158358626377577 L-276.0371447076336 34.48848564529977 L-293.3576527833224 39.48848564529977 L-298.3576527833224 35.15835862637758 L-281.0371447076336 30.158358626377577"/>
		<path opacity="0.75" fill="darkturquoise" d="M-281.0371447076336 38.81861266422196 L-276.0371447076336 43.14873968314415 L-293.3576527833224 48.14873968314415 L-298.3576527833224 43.81861266422196 L-281.0371447076336 38.81861266422196"/>
		<text x="-298.3576527833224" y="39.48848564529977" font-family="calibri" font-size="4">10</text>
		<text x="-295.8576527833224" y="45.98367617368305" font-family="calibri" font-size="4">10</text>
		<text x="-289.69739874547804" y="32.65835862637758" font-family="calibri" font-size="4">20</text>

		<path opacity="0.5" fill="orange" d="M-283.1207423513322 25.726942293460482 L-267.1207423513322 39.583348754011496 L-267.1207423513322 67.29616167511354 L-283.1207423513322 53.43975521456252 L-283.1207423513322 25.726942293460482"/>
		<path opacity="0.5" fill="orange" d="M-300.441250427021 30.726942293460482 L-284.441250427021 44.583348754011496 L-284.441250427021 72.29616167511354 L-300.441250427021 58.43975521456252 L-300.441250427021 30.726942293460482"/>
		<path opacity="0.5" fill="orange" d="M-283.1207423513322 25.726942293460482 L-300.441250427021 30.726942293460482 L-300.441250427021 58.43975521456252 L-283.1207423513322 53.43975521456252 L-283.1207423513322 25.726942293460482"/>
		<path opacity="0.5" fill="orange" d="M-267.1207423513322 39.583348754011496 L-284.441250427021 44.583348754011496 L-284.441250427021 72.29616167511354 L-267.1207423513322 67.29616167511354 L-267.1207423513322 39.583348754011496"/>
		<path opacity="0.5" fill="orange" d="M-283.1207423513322 25.726942293460482 L-267.1207423513322 39.583348754011496 L-284.441250427021 44.583348754011496 L-300.441250427021 30.726942293460482 L-283.1207423513322 25.726942293460482"/>
		<path opacity="0.5" fill="orange" d="M-283.1207423513322 53.43975521456252 L-267.1207423513322 67.29616167511354 L-284.441250427021 72.29616167511354 L-300.441250427021 58.43975521456252 L-283.1207423513322 53.43975521456252"/>
		<text x="-300.441250427021" y="44.583348754011496" font-family="calibri" font-size="4">32</text>
		<text x="-292.441250427021" y="65.36795844483802" font-family="calibri" font-size="4">32</text>
		<text x="-291.7809963891766" y="28.226942293460482" font-family="calibri" font-size="4">20</text>

		<path opacity="0.5" fill="orange" d="M76.84713282184377 37.86057158514987 L80.84713282184377 41.32467320028762 L80.84713282184377 48.25287643056313 L76.84713282184377 44.78877481542537 L76.84713282184377 37.86057158514987"/>
		<path opacity="0.5" fill="orange" d="M21.4215069796397 53.86057158514987 L25.4215069796397 57.32467320028762 L25.4215069796397 64.25287643056313 L21.4215069796397 60.78877481542537 L21.4215069796397 53.86057158514987"/>
		<path opacity="0.5" fill="orange" d="M76.84713282184377 37.86057158514987 L21.4215069796397 53.86057158514987 L21.4215069796397 60.78877481542537 L76.84713282184377 44.78877481542537 L76.84713282184377 37.86057158514987"/>
		<path opacity="0.5" fill="orange" d="M80.84713282184377 41.32467320028762 L25.4215069796397 57.32467320028762 L25.4215069796397 64.25287643056313 L80.84713282184377 48.25287643056313 L80.84713282184377 41.32467320028762"/>
		<path opacity="0.5" fill="orange" d="M76.84713282184377 37.86057158514987 L80.84713282184377 41.32467320028762 L25.4215069796397 57.32467320028762 L21.4215069796397 53.86057158514987 L76.84713282184377 37.86057158514987"/>
		<path opacity="0.5" fill="orange" d="M76.84713282184377 44.78877481542537 L80.84713282184377 48.25287643056313 L25.4215069796397 64.25287643056313 L21.4215069796397 60.78877481542537 L76.84713282184377 44.78877481542537"/>
		<text x="21.4215069796397" y="57.32467320028762" font-family="calibri" font-size="4">8</text>
		<text x="23.4215069796397" y="62.52082562299425" font-family="calibri" font-size="4">8</text>
		<text x="49.13431990074174" y="45.86057158514987" font-family="calibri" font-size="4">64</text>

		<path opacity="0.75" fill="darkturquoise" d="M-183.10273849870202 45.41910183745674 L-180.60273849870202 47.58416534691784 L-180.60273849870202 51.91429236584003 L-183.10273849870202 49.749228856378934 L-183.10273849870202 45.41910183745674"/>
		<path opacity="0.75" fill="darkturquoise" d="M-210.81555141980408 53.41910183745674 L-208.31555141980408 55.58416534691784 L-208.31555141980408 59.91429236584003 L-210.81555141980408 57.749228856378934 L-210.81555141980408 53.41910183745674"/>
		<path opacity="0.75" fill="darkturquoise" d="M-183.10273849870202 45.41910183745674 L-210.81555141980408 53.41910183745674 L-210.81555141980408 57.749228856378934 L-183.10273849870202 49.749228856378934 L-183.10273849870202 45.41910183745674"/>
		<path opacity="0.75" fill="darkturquoise" d="M-180.60273849870202 47.58416534691784 L-208.31555141980408 55.58416534691784 L-208.31555141980408 59.91429236584003 L-180.60273849870202 51.91429236584003 L-180.60273849870202 47.58416534691784"/>
		<path opacity="0.75" fill="darkturquoise" d="M-183.10273849870202 45.41910183745674 L-180.60273849870202 47.58416534691784 L-208.31555141980408 55.58416534691784 L-210.81555141980408 53.41910183745674 L-183.10273849870202 45.41910183745674"/>
		<path opacity="0.75" fill="darkturquoise" d="M-183.10273849870202 49.749228856378934 L-180.60273849870202 51.91429236584003 L-208.31555141980408 59.91429236584003 L-210.81555141980408 57.749228856378934 L-183.10273849870202 49.749228856378934"/>
		<text x="-210.81555141980408" y="55.58416534691784" font-family="calibri" font-size="4">5</text>
		<text x="-209.56555141980408" y="58.83176061110949" font-family="calibri" font-size="4">5</text>
		<text x="-196.95914495925305" y="49.41910183745674" font-family="calibri" font-size="4">32</text>

		<path opacity="0.5" fill="orange" d="M-183.60665924100823 29.908666301316977 L-167.60665924100823 43.76507276186799 L-167.60665924100823 71.47788568297003 L-183.60665924100823 57.62147922241901 L-183.60665924100823 29.908666301316977"/>
		<path opacity="0.5" fill="orange" d="M-211.3194721621103 37.90866630131698 L-195.3194721621103 51.76507276186799 L-195.3194721621103 79.47788568297003 L-211.3194721621103 65.62147922241901 L-211.3194721621103 37.90866630131698"/>
		<path opacity="0.5" fill="orange" d="M-183.60665924100823 29.908666301316977 L-211.3194721621103 37.90866630131698 L-211.3194721621103 65.62147922241901 L-183.60665924100823 57.62147922241901 L-183.60665924100823 29.908666301316977"/>
		<path opacity="0.5" fill="orange" d="M-167.60665924100823 43.76507276186799 L-195.3194721621103 51.76507276186799 L-195.3194721621103 79.47788568297003 L-167.60665924100823 71.47788568297003 L-167.60665924100823 43.76507276186799"/>
		<path opacity="0.5" fill="orange" d="M-183.60665924100823 29.908666301316977 L-167.60665924100823 43.76507276186799 L-195.3194721621103 51.76507276186799 L-211.3194721621103 37.90866630131698 L-183.60665924100823 29.908666301316977"/>
		<path opacity="0.5" fill="orange" d="M-183.60665924100823 57.62147922241901 L-167.60665924100823 71.47788568297003 L-195.3194721621103 79.47788568297003 L-211.3194721621103 65.62147922241901 L-183.60665924100823 57.62147922241901"/>
		<text x="-211.3194721621103" y="51.765072761868" font-family="calibri" font-size="4">32</text>
		<text x="-203.3194721621103" y="72.54968245269453" font-family="calibri" font-size="4">32</text>
		<text x="-197.46306570155926" y="33.90866630131698" font-family="calibri" font-size="4">32</text>

		<path opacity="0.75" fill="darkturquoise" d="M-49.75722959915316 42.79015391759504 L-47.257229599153135 44.955217427056134 L-47.257229599153135 49.28534444597833 L-49.75722959915316 47.12028093651723 L-49.75722959915316 42.79015391759504"/>
		<path opacity="0.75" fill="darkturquoise" d="M-105.18285544135722 58.79015391759504 L-102.68285544135719 60.955217427056134 L-102.68285544135719 65.28534444597832 L-105.18285544135722 63.12028093651723 L-105.18285544135722 58.79015391759504"/>
		<path opacity="0.75" fill="darkturquoise" d="M-49.75722959915316 42.79015391759504 L-105.18285544135722 58.79015391759504 L-105.18285544135722 63.12028093651723 L-49.75722959915316 47.12028093651723 L-49.75722959915316 42.79015391759504"/>
		<path opacity="0.75" fill="darkturquoise" d="M-47.257229599153135 44.955217427056134 L-102.68285544135719 60.955217427056134 L-102.68285544135719 65.28534444597832 L-47.257229599153135 49.28534444597833 L-47.257229599153135 44.955217427056134"/>
		<path opacity="0.75" fill="darkturquoise" d="M-49.75722959915316 42.79015391759504 L-47.257229599153135 44.955217427056134 L-102.68285544135719 60.955217427056134 L-105.18285544135722 58.79015391759504 L-49.75722959915316 42.79015391759504"/>
		<path opacity="0.75" fill="darkturquoise" d="M-49.75722959915316 47.12028093651723 L-47.257229599153135 49.28534444597833 L-102.68285544135719 65.28534444597832 L-105.18285544135722 63.12028093651723 L-49.75722959915316 47.12028093651723"/>
		<text x="-105.18285544135722" y="60.95521742705614" font-family="calibri" font-size="4">5</text>
		<text x="-103.9328554413572" y="64.20281269124777" font-family="calibri" font-size="4">5</text>
		<text x="-77.47004252025519" y="50.79015391759504" font-family="calibri" font-size="4">64</text>

		<path opacity="0.5" fill="orange" d="M-52.37976320958225 36.482695154586736 L-44.37976320958225 43.41089838486224 L-44.37976320958225 57.267304845413264 L-52.37976320958225 50.33910161513776 L-52.37976320958225 36.482695154586736"/>
		<path opacity="0.5" fill="orange" d="M-107.8053890517863 52.482695154586736 L-99.8053890517863 59.41089838486224 L-99.8053890517863 73.26730484541326 L-107.8053890517863 66.33910161513775 L-107.8053890517863 52.482695154586736"/>
		<path opacity="0.5" fill="orange" d="M-52.37976320958225 36.482695154586736 L-107.8053890517863 52.482695154586736 L-107.8053890517863 66.33910161513775 L-52.37976320958225 50.33910161513776 L-52.37976320958225 36.482695154586736"/>
		<path opacity="0.5" fill="orange" d="M-44.37976320958225 43.41089838486224 L-99.8053890517863 59.41089838486224 L-99.8053890517863 73.26730484541326 L-44.37976320958225 57.267304845413264 L-44.37976320958225 43.41089838486224"/>
		<path opacity="0.5" fill="orange" d="M-52.37976320958225 36.482695154586736 L-44.37976320958225 43.41089838486224 L-99.8053890517863 59.41089838486224 L-107.8053890517863 52.482695154586736 L-52.37976320958225 36.482695154586736"/>
		<path opacity="0.5" fill="orange" d="M-52.37976320958225 50.33910161513776 L-44.37976320958225 57.267304845413264 L-99.8053890517863 73.26730484541326 L-107.8053890517863 66.33910161513775 L-52.37976320958225 50.33910161513776"/>
		<text x="-107.8053890517863" y="59.41089838486224" font-family="calibri" font-size="4">16</text>
		<text x="-103.8053890517863" y="69.8032032302755" font-family="calibri" font-size="4">16</text>
		<text x="-80.09257613068428" y="44.482695154586736" font-family="calibri" font-size="4">64</text>

<!-- Arrow -->
		<path opacity="0.5" stroke="black" d="M107.34713282184379 67.738448015713 L123.40802195429913 46.647586011784746"/>
		<circle opacity="0.5" cx="123.40802195429913" cy="46.647586011784746" r="1" fill="black" />
		<path opacity="0.75" fill="pink" d="M-18.632005866353325 74.1799799975043 L-16.132005866353325 76.3450435069654 L22.12957317171376 60.1950840063361 L-18.632005866353325 74.1799799975043"/>
		<path opacity="0.75" fill="pink" d="M-18.632005866353325 74.1799799975043 L-18.632005866353325 78.5101070164265 L22.12957317171376 60.1950840063361 L-18.632005866353325 74.1799799975043"/>
		<path opacity="0.75" fill="pink" d="M-16.132005866353325 76.3450435069654 L-16.132005866353325 80.6751705258876 L22.12957317171376 60.1950840063361 L-16.132005866353325 76.3450435069654"/>
		<path opacity="0.75" fill="pink" d="M-18.632005866353325 78.5101070164265 L-16.132005866353325 80.6751705258876 L22.12957317171376 60.1950840063361 L-18.632005866353325 78.5101070164265"/>

		<path opacity="0.75" fill="pink" d="M-145.81830749741096 85.67621911242189 L-143.31830749741096 87.841282621883 L-99.97919048265186 72.42485740702216 L-145.81830749741096 85.67621911242189"/>
		<path opacity="0.75" fill="pink" d="M-145.81830749741096 85.67621911242189 L-145.81830749741096 90.00634613134409 L-99.97919048265186 72.42485740702216 L-145.81830749741096 85.67621911242189"/>
		<path opacity="0.75" fill="pink" d="M-143.31830749741096 87.841282621883 L-143.31830749741096 92.17140964080518 L-99.97919048265186 72.42485740702216 L-143.31830749741096 87.841282621883"/>
		<path opacity="0.75" fill="pink" d="M-145.81830749741096 90.00634613134409 L-143.31830749741096 92.17140964080518 L-99.97919048265186 72.42485740702216 L-145.81830749741096 90.00634613134409"/>

		<path opacity="0.75" fill="pink" d="M-244.92073775793972 64.09212371272638 L-239.92073775793972 68.42225073164857 L-202.79412906042336 56.86765245771758 L-244.92073775793972 64.09212371272638"/>
		<path opacity="0.75" fill="pink" d="M-244.92073775793972 64.09212371272638 L-244.92073775793972 72.75237775057076 L-202.79412906042336 56.86765245771758 L-244.92073775793972 64.09212371272638"/>
		<path opacity="0.75" fill="pink" d="M-239.92073775793972 68.42225073164857 L-239.92073775793972 77.08250476949296 L-202.79412906042336 56.86765245771758 L-239.92073775793972 68.42225073164857"/>
		<path opacity="0.75" fill="pink" d="M-244.92073775793972 72.75237775057076 L-239.92073775793972 77.08250476949296 L-202.79412906042336 56.86765245771758 L-244.92073775793972 72.75237775057076"/>

		<path opacity="0.75" fill="darkturquoise" d="M-244.92073775793972 64.09212371272638 L-239.92073775793972 68.42225073164857 L-239.92073775793972 77.08250476949296 L-244.92073775793972 72.75237775057076 L-244.92073775793972 64.09212371272638"/>
		<path opacity="0.75" fill="darkturquoise" d="M-262.2412458336285 69.09212371272638 L-257.2412458336285 73.42225073164857 L-257.2412458336285 82.08250476949296 L-262.2412458336285 77.75237775057076 L-262.2412458336285 69.09212371272638"/>
		<path opacity="0.75" fill="darkturquoise" d="M-244.92073775793972 64.09212371272638 L-262.2412458336285 69.09212371272638 L-262.2412458336285 77.75237775057076 L-244.92073775793972 72.75237775057076 L-244.92073775793972 64.09212371272638"/>
		<path opacity="0.75" fill="darkturquoise" d="M-239.92073775793972 68.42225073164857 L-257.2412458336285 73.42225073164857 L-257.2412458336285 82.08250476949296 L-239.92073775793972 77.08250476949296 L-239.92073775793972 68.42225073164857"/>
		<path opacity="0.75" fill="darkturquoise" d="M-244.92073775793972 64.09212371272638 L-239.92073775793972 68.42225073164857 L-257.2412458336285 73.42225073164857 L-262.2412458336285 69.09212371272638 L-244.92073775793972 64.09212371272638"/>
		<path opacity="0.75" fill="darkturquoise" d="M-244.92073775793972 72.75237775057076 L-239.92073775793972 77.08250476949296 L-257.2412458336285 82.08250476949296 L-262.2412458336285 77.75237775057076 L-244.92073775793972 72.75237775057076"/>
		<text x="-262.2412458336285" y="73.42225073164857" font-family="calibri" font-size="4">10</text>
		<text x="-259.7412458336285" y="79.91744126003186" font-family="calibri" font-size="4">10</text>
		<text x="-253.58099179578412" y="66.59212371272638" font-family="calibri" font-size="4">20</text>

		<path opacity="0.5" fill="orange" d="M-254.62074235133218 50.40866630131698 L-238.62074235133218 64.265072761868 L-238.62074235133218 91.97788568297003 L-254.62074235133218 78.12147922241901 L-254.62074235133218 50.40866630131698"/>
		<path opacity="0.5" fill="orange" d="M-271.941250427021 55.40866630131698 L-255.94125042702098 69.265072761868 L-255.94125042702098 96.97788568297003 L-271.941250427021 83.12147922241901 L-271.941250427021 55.40866630131698"/>
		<path opacity="0.5" fill="orange" d="M-254.62074235133218 50.40866630131698 L-271.941250427021 55.40866630131698 L-271.941250427021 83.12147922241901 L-254.62074235133218 78.12147922241901 L-254.62074235133218 50.40866630131698"/>
		<path opacity="0.5" fill="orange" d="M-238.62074235133218 64.265072761868 L-255.94125042702098 69.265072761868 L-255.94125042702098 96.97788568297003 L-238.62074235133218 91.97788568297003 L-238.62074235133218 64.265072761868"/>
		<path opacity="0.5" fill="orange" d="M-254.62074235133218 50.40866630131698 L-238.62074235133218 64.265072761868 L-255.94125042702098 69.265072761868 L-271.941250427021 55.40866630131698 L-254.62074235133218 50.40866630131698"/>
		<path opacity="0.5" fill="orange" d="M-254.62074235133218 78.12147922241901 L-238.62074235133218 91.97788568297003 L-255.94125042702098 96.97788568297003 L-271.941250427021 83.12147922241901 L-254.62074235133218 78.12147922241901"/>
		<text x="-271.941250427021" y="69.265072761868" font-family="calibri" font-size="4">32</text>
		<text x="-263.941250427021" y="90.04968245269453" font-family="calibri" font-size="4">32</text>
		<text x="-263.2809963891766" y="52.90866630131698" font-family="calibri" font-size="4">20</text>

		<path opacity="0.5" fill="orange" d="M105.34713282184379 62.54229559300636 L109.34713282184379 66.00639720814411 L109.34713282184379 72.93460043841964 L105.34713282184379 69.47049882328187 L105.34713282184379 62.54229559300636"/>
		<path opacity="0.5" fill="orange" d="M49.9215069796397 78.54229559300636 L53.9215069796397 82.00639720814411 L53.9215069796397 88.93460043841964 L49.9215069796397 85.47049882328187 L49.9215069796397 78.54229559300636"/>
		<path opacity="0.5" fill="orange" d="M105.34713282184379 62.54229559300636 L49.9215069796397 78.54229559300636 L49.9215069796397 85.47049882328187 L105.34713282184379 69.47049882328187 L105.34713282184379 62.54229559300636"/>
		<path opacity="0.5" fill="orange" d="M109.34713282184379 66.00639720814411 L53.9215069796397 82.00639720814411 L53.9215069796397 88.93460043841964 L109.34713282184379 72.93460043841964 L109.34713282184379 66.00639720814411"/>
		<path opacity="0.5" fill="orange" d="M105.34713282184379 62.54229559300636 L109.34713282184379 66.00639720814411 L53.9215069796397 82.00639720814411 L49.9215069796397 78.54229559300636 L105.34713282184379 62.54229559300636"/>
		<path opacity="0.5" fill="orange" d="M105.34713282184379 69.47049882328187 L109.34713282184379 72.93460043841964 L53.9215069796397 88.93460043841964 L49.9215069796397 85.47049882328187 L105.34713282184379 69.47049882328187"/>
		<text x="49.9215069796397" y="82.00639720814411" font-family="calibri" font-size="4">8</text>
		<text x="51.9215069796397" y="87.20254963085075" font-family="calibri" font-size="4">8</text>
		<text x="77.63431990074174" y="70.54229559300636" font-family="calibri" font-size="4">64</text>

		<path opacity="0.75" fill="darkturquoise" d="M-145.81830749741096 85.67621911242189 L-143.31830749741096 87.841282621883 L-143.31830749741096 92.17140964080518 L-145.81830749741096 90.00634613134409 L-145.81830749741096 85.67621911242189"/>
		<path opacity="0.75" fill="darkturquoise" d="M-173.531120418513 93.67621911242189 L-171.031120418513 95.841282621883 L-171.031120418513 100.17140964080518 L-173.531120418513 98.00634613134409 L-173.531120418513 93.67621911242189"/>
		<path opacity="0.75" fill="darkturquoise" d="M-145.81830749741096 85.67621911242189 L-173.531120418513 93.67621911242189 L-173.531120418513 98.00634613134409 L-145.81830749741096 90.00634613134409 L-145.81830749741096 85.67621911242189"/>
		<path opacity="0.75" fill="darkturquoise" d="M-143.31830749741096 87.841282621883 L-171.031120418513 95.841282621883 L-171.031120418513 100.17140964080518 L-143.31830749741096 92.17140964080518 L-143.31830749741096 87.841282621883"/>
		<path opacity="0.75" fill="darkturquoise" d="M-145.81830749741096 85.67621911242189 L-143.31830749741096 87.841282621883 L-171.031120418513 95.841282621883 L-173.531120418513 93.67621911242189 L-145.81830749741096 85.67621911242189"/>
		<path opacity="0.75" fill="darkturquoise" d="M-145.81830749741096 90.00634613134409 L-143.31830749741096 92.17140964080518 L-171.031120418513 100.17140964080518 L-173.531120418513 98.00634613134409 L-145.81830749741096 90.00634613134409"/>
		<text x="-173.531120418513" y="95.84128262188298" font-family="calibri" font-size="4">5</text>
		<text x="-172.281120418513" y="99.08887788607464" font-family="calibri" font-size="4">5</text>
		<text x="-159.67471395796198" y="89.67621911242189" font-family="calibri" font-size="4">32</text>

		<path opacity="0.5" fill="orange" d="M-155.10665924100823 54.59039030917347 L-139.10665924100823 68.44679676972449 L-139.10665924100823 96.15960969082653 L-155.10665924100823 82.30320323027551 L-155.10665924100823 54.59039030917347"/>
		<path opacity="0.5" fill="orange" d="M-182.8194721621103 62.59039030917347 L-166.8194721621103 76.44679676972449 L-166.8194721621103 104.15960969082653 L-182.8194721621103 90.30320323027551 L-182.8194721621103 62.59039030917347"/>
		<path opacity="0.5" fill="orange" d="M-155.10665924100823 54.59039030917347 L-182.8194721621103 62.59039030917347 L-182.8194721621103 90.30320323027551 L-155.10665924100823 82.30320323027551 L-155.10665924100823 54.59039030917347"/>
		<path opacity="0.5" fill="orange" d="M-139.10665924100823 68.44679676972449 L-166.8194721621103 76.44679676972449 L-166.8194721621103 104.15960969082653 L-139.10665924100823 96.15960969082653 L-139.10665924100823 68.44679676972449"/>
		<path opacity="0.5" fill="orange" d="M-155.10665924100823 54.59039030917347 L-139.10665924100823 68.44679676972449 L-166.8194721621103 76.44679676972449 L-182.8194721621103 62.59039030917347 L-155.10665924100823 54.59039030917347"/>
		<path opacity="0.5" fill="orange" d="M-155.10665924100823 82.30320323027551 L-139.10665924100823 96.15960969082653 L-166.8194721621103 104.15960969082653 L-182.8194721621103 90.30320323027551 L-155.10665924100823 82.30320323027551"/>
		<text x="-182.8194721621103" y="76.4467967697245" font-family="calibri" font-size="4">32</text>
		<text x="-174.8194721621103" y="97.23140646055103" font-family="calibri" font-size="4">32</text>
		<text x="-168.96306570155926" y="58.59039030917347" font-family="calibri" font-size="4">32</text>

		<path opacity="0.75" fill="darkturquoise" d="M-18.632005866353325 74.1799799975043 L-16.132005866353325 76.3450435069654 L-16.132005866353325 80.6751705258876 L-18.632005866353325 78.5101070164265 L-18.632005866353325 74.1799799975043"/>
		<path opacity="0.75" fill="darkturquoise" d="M-74.05763170855738 90.1799799975043 L-71.55763170855738 92.3450435069654 L-71.55763170855738 96.6751705258876 L-74.05763170855738 94.5101070164265 L-74.05763170855738 90.1799799975043"/>
		<path opacity="0.75" fill="darkturquoise" d="M-18.632005866353325 74.1799799975043 L-74.05763170855738 90.1799799975043 L-74.05763170855738 94.5101070164265 L-18.632005866353325 78.5101070164265 L-18.632005866353325 74.1799799975043"/>
		<path opacity="0.75" fill="darkturquoise" d="M-16.132005866353325 76.3450435069654 L-71.55763170855738 92.3450435069654 L-71.55763170855738 96.6751705258876 L-16.132005866353325 80.6751705258876 L-16.132005866353325 76.3450435069654"/>
		<path opacity="0.75" fill="darkturquoise" d="M-18.632005866353325 74.1799799975043 L-16.132005866353325 76.3450435069654 L-71.55763170855738 92.3450435069654 L-74.05763170855738 90.1799799975043 L-18.632005866353325 74.1799799975043"/>
		<path opacity="0.75" fill="darkturquoise" d="M-18.632005866353325 78.5101070164265 L-16.132005866353325 80.6751705258876 L-71.55763170855738 96.6751705258876 L-74.05763170855738 94.5101070164265 L-18.632005866353325 78.5101070164265"/>
		<text x="-74.05763170855738" y="92.3450435069654" font-family="calibri" font-size="4">5</text>
		<text x="-72.80763170855738" y="95.59263877115706" font-family="calibri" font-size="4">5</text>
		<text x="-46.34481878745535" y="82.1799799975043" font-family="calibri" font-size="4">64</text>

		<path opacity="0.5" fill="orange" d="M-23.87976320958225 61.16441916244323 L-15.87976320958225 68.09262239271874 L-15.87976320958225 81.94902885326977 L-23.87976320958225 75.02082562299425 L-23.87976320958225 61.16441916244323"/>
		<path opacity="0.5" fill="orange" d="M-79.3053890517863 77.16441916244324 L-71.3053890517863 84.09262239271874 L-71.3053890517863 97.94902885326977 L-79.3053890517863 91.02082562299425 L-79.3053890517863 77.16441916244324"/>
		<path opacity="0.5" fill="orange" d="M-23.87976320958225 61.16441916244323 L-79.3053890517863 77.16441916244324 L-79.3053890517863 91.02082562299425 L-23.87976320958225 75.02082562299425 L-23.87976320958225 61.16441916244323"/>
		<path opacity="0.5" fill="orange" d="M-15.87976320958225 68.09262239271874 L-71.3053890517863 84.09262239271874 L-71.3053890517863 97.94902885326977 L-15.87976320958225 81.94902885326977 L-15.87976320958225 68.09262239271874"/>
		<path opacity="0.5" fill="orange" d="M-23.87976320958225 61.16441916244323 L-15.87976320958225 68.09262239271874 L-71.3053890517863 84.09262239271874 L-79.3053890517863 77.16441916244324 L-23.87976320958225 61.16441916244323"/>
		<path opacity="0.5" fill="orange" d="M-23.87976320958225 75.02082562299425 L-15.87976320958225 81.94902885326977 L-71.3053890517863 97.94902885326977 L-79.3053890517863 91.02082562299425 L-23.87976320958225 75.02082562299425"/>
		<text x="-79.3053890517863" y="84.09262239271874" font-family="calibri" font-size="4">16</text>
		<text x="-75.3053890517863" y="94.484927238132" font-family="calibri" font-size="4">16</text>
		<text x="-51.59257613068428" y="69.16441916244324" font-family="calibri" font-size="4">64</text>

		<path opacity="0.75" fill="pink" d="M-216.5584786258405 99.71495830836119 L-211.5584786258405 104.04508532728339 L-176.9784787045561 84.86849008789414 L-216.5584786258405 99.71495830836119"/>
		<path opacity="0.75" fill="pink" d="M-216.5584786258405 99.71495830836119 L-216.5584786258405 108.37521234620559 L-176.9784787045561 84.86849008789414 L-216.5584786258405 99.71495830836119"/>
		<path opacity="0.75" fill="pink" d="M-211.5584786258405 104.04508532728339 L-211.5584786258405 112.70533936512777 L-176.9784787045561 84.86849008789414 L-211.5584786258405 104.04508532728339"/>
		<path opacity="0.75" fill="pink" d="M-216.5584786258405 108.37521234620559 L-211.5584786258405 112.70533936512777 L-176.9784787045561 84.86849008789414 L-216.5584786258405 108.37521234620559"/>

		<path opacity="0.75" fill="pink" d="M8.406236259601954 91.86597458743387 L10.906236259601954 94.03103809689496 L52.013540350517545 83.52837566553663 L8.406236259601954 91.86597458743387"/>
		<path opacity="0.75" fill="pink" d="M8.406236259601954 91.86597458743387 L8.406236259601954 96.19610160635605 L52.013540350517545 83.52837566553663 L8.406236259601954 91.86597458743387"/>
		<path opacity="0.75" fill="pink" d="M10.906236259601954 94.03103809689496 L10.906236259601954 98.36116511581716 L52.013540350517545 83.52837566553663 L10.906236259601954 94.03103809689496"/>
		<path opacity="0.75" fill="pink" d="M8.406236259601954 96.19610160635605 L10.906236259601954 98.36116511581716 L52.013540350517545 83.52837566553663 L8.406236259601954 96.19610160635605"/>

		<path opacity="0.75" fill="pink" d="M-124.86934024680275 82.64003849282321 L-122.36934024680275 84.8051020022843 L-75.01956922847185 82.3877955090627 L-124.86934024680275 82.64003849282321"/>
		<path opacity="0.75" fill="pink" d="M-124.86934024680275 82.64003849282321 L-124.86934024680275 86.97016551174539 L-75.01956922847185 82.3877955090627 L-124.86934024680275 82.64003849282321"/>
		<path opacity="0.75" fill="pink" d="M-122.36934024680275 84.8051020022843 L-122.36934024680275 89.1352290212065 L-75.01956922847185 82.3877955090627 L-122.36934024680275 84.8051020022843"/>
		<path opacity="0.75" fill="pink" d="M-124.86934024680275 86.97016551174539 L-122.36934024680275 89.1352290212065 L-75.01956922847185 82.3877955090627 L-124.86934024680275 86.97016551174539"/>

		<path opacity="0.75" fill="darkturquoise" d="M-216.5584786258405 99.71495830836119 L-211.5584786258405 104.04508532728339 L-211.5584786258405 112.70533936512777 L-216.5584786258405 108.37521234620559 L-216.5584786258405 99.71495830836119"/>
		<path opacity="0.75" fill="darkturquoise" d="M-233.8789867015293 104.71495830836119 L-228.8789867015293 109.04508532728339 L-228.8789867015293 117.70533936512777 L-233.8789867015293 113.37521234620559 L-233.8789867015293 104.71495830836119"/>
		<path opacity="0.75" fill="darkturquoise" d="M-216.5584786258405 99.71495830836119 L-233.8789867015293 104.71495830836119 L-233.8789867015293 113.37521234620559 L-216.5584786258405 108.37521234620559 L-216.5584786258405 99.71495830836119"/>
		<path opacity="0.75" fill="darkturquoise" d="M-211.5584786258405 104.04508532728339 L-228.8789867015293 109.04508532728339 L-228.8789867015293 117.70533936512777 L-211.5584786258405 112.70533936512777 L-211.5584786258405 104.04508532728339"/>
		<path opacity="0.75" fill="darkturquoise" d="M-216.5584786258405 99.71495830836119 L-211.5584786258405 104.04508532728339 L-228.8789867015293 109.04508532728339 L-233.8789867015293 104.71495830836119 L-216.5584786258405 99.71495830836119"/>
		<path opacity="0.75" fill="darkturquoise" d="M-216.5584786258405 108.37521234620559 L-211.5584786258405 112.70533936512777 L-228.8789867015293 117.70533936512777 L-233.8789867015293 113.37521234620559 L-216.5584786258405 108.37521234620559"/>
		<text x="-233.8789867015293" y="109.04508532728339" font-family="calibri" font-size="4">10</text>
		<text x="-231.3789867015293" y="115.54027585566668" font-family="calibri" font-size="4">10</text>
		<text x="-225.2187326636849" y="102.21495830836119" font-family="calibri" font-size="4">20</text>

		<path opacity="0.5" fill="orange" d="M-226.12074235133218 75.09039030917347 L-210.12074235133218 88.94679676972449 L-210.12074235133218 116.65960969082653 L-226.12074235133218 102.80320323027551 L-226.12074235133218 75.09039030917347"/>
		<path opacity="0.5" fill="orange" d="M-243.44125042702098 80.09039030917347 L-227.44125042702098 93.94679676972449 L-227.44125042702098 121.65960969082653 L-243.44125042702098 107.80320323027551 L-243.44125042702098 80.09039030917347"/>
		<path opacity="0.5" fill="orange" d="M-226.12074235133218 75.09039030917347 L-243.44125042702098 80.09039030917347 L-243.44125042702098 107.80320323027551 L-226.12074235133218 102.80320323027551 L-226.12074235133218 75.09039030917347"/>
		<path opacity="0.5" fill="orange" d="M-210.12074235133218 88.94679676972449 L-227.44125042702098 93.94679676972449 L-227.44125042702098 121.65960969082653 L-210.12074235133218 116.65960969082653 L-210.12074235133218 88.94679676972449"/>
		<path opacity="0.5" fill="orange" d="M-226.12074235133218 75.09039030917347 L-210.12074235133218 88.94679676972449 L-227.44125042702098 93.94679676972449 L-243.44125042702098 80.09039030917347 L-226.12074235133218 75.09039030917347"/>
		<path opacity="0.5" fill="orange" d="M-226.12074235133218 102.80320323027551 L-210.12074235133218 116.65960969082653 L-227.44125042702098 121.65960969082653 L-243.44125042702098 107.80320323027551 L-226.12074235133218 102.80320323027551"/>
		<text x="-243.44125042702098" y="93.9467967697245" font-family="calibri" font-size="4">32</text>
		<text x="-235.44125042702098" y="114.73140646055103" font-family="calibri" font-size="4">32</text>
		<text x="-234.78099638917658" y="77.59039030917347" font-family="calibri" font-size="4">20</text>

		<path opacity="0.75" fill="darkturquoise" d="M-124.86934024680275 82.64003849282321 L-122.36934024680275 84.8051020022843 L-122.36934024680275 89.1352290212065 L-124.86934024680275 86.97016551174539 L-124.86934024680275 82.64003849282321"/>
		<path opacity="0.75" fill="darkturquoise" d="M-152.58215316790478 90.64003849282321 L-150.08215316790478 92.8051020022843 L-150.08215316790478 97.1352290212065 L-152.58215316790478 94.97016551174539 L-152.58215316790478 90.64003849282321"/>
		<path opacity="0.75" fill="darkturquoise" d="M-124.86934024680275 82.64003849282321 L-152.58215316790478 90.64003849282321 L-152.58215316790478 94.97016551174539 L-124.86934024680275 86.97016551174539 L-124.86934024680275 82.64003849282321"/>
		<path opacity="0.75" fill="darkturquoise" d="M-122.36934024680275 84.8051020022843 L-150.08215316790478 92.8051020022843 L-150.08215316790478 97.1352290212065 L-122.36934024680275 89.1352290212065 L-122.36934024680275 84.8051020022843"/>
		<path opacity="0.75" fill="darkturquoise" d="M-124.86934024680275 82.64003849282321 L-122.36934024680275 84.8051020022843 L-150.08215316790478 92.8051020022843 L-152.58215316790478 90.64003849282321 L-124.86934024680275 82.64003849282321"/>
		<path opacity="0.75" fill="darkturquoise" d="M-124.86934024680275 86.97016551174539 L-122.36934024680275 89.1352290212065 L-150.08215316790478 97.1352290212065 L-152.58215316790478 94.97016551174539 L-124.86934024680275 86.97016551174539"/>
		<text x="-152.58215316790478" y="92.8051020022843" font-family="calibri" font-size="4">5</text>
		<text x="-151.33215316790478" y="96.05269726647595" font-family="calibri" font-size="4">5</text>
		<text x="-138.72574670735378" y="86.64003849282321" font-family="calibri" font-size="4">32</text>

		<path opacity="0.5" fill="orange" d="M-126.60665924100823 79.27211431702997 L-110.60665924100823 93.12852077758099 L-110.60665924100823 120.84133369868303 L-126.60665924100823 106.984927238132 L-126.60665924100823 79.27211431702997"/>
		<path opacity="0.5" fill="orange" d="M-154.3194721621103 87.27211431702997 L-138.3194721621103 101.12852077758099 L-138.3194721621103 128.84133369868303 L-154.3194721621103 114.984927238132 L-154.3194721621103 87.27211431702997"/>
		<path opacity="0.5" fill="orange" d="M-126.60665924100823 79.27211431702997 L-154.3194721621103 87.27211431702997 L-154.3194721621103 114.984927238132 L-126.60665924100823 106.984927238132 L-126.60665924100823 79.27211431702997"/>
		<path opacity="0.5" fill="orange" d="M-110.60665924100823 93.12852077758099 L-138.3194721621103 101.12852077758099 L-138.3194721621103 128.84133369868303 L-110.60665924100823 120.84133369868303 L-110.60665924100823 93.12852077758099"/>
		<path opacity="0.5" fill="orange" d="M-126.60665924100823 79.27211431702997 L-110.60665924100823 93.12852077758099 L-138.3194721621103 101.12852077758099 L-154.3194721621103 87.27211431702997 L-126.60665924100823 79.27211431702997"/>
		<path opacity="0.5" fill="orange" d="M-126.60665924100823 106.984927238132 L-110.60665924100823 120.84133369868303 L-138.3194721621103 128.84133369868303 L-154.3194721621103 114.984927238132 L-126.60665924100823 106.984927238132"/>
		<text x="-154.3194721621103" y="101.12852077758099" font-family="calibri" font-size="4">32</text>
		<text x="-146.3194721621103" y="121.91313046840752" font-family="calibri" font-size="4">32</text>
		<text x="-140.46306570155926" y="83.27211431702997" font-family="calibri" font-size="4">32</text>

		<path opacity="0.75" fill="darkturquoise" d="M8.406236259601954 91.86597458743387 L10.906236259601954 94.03103809689496 L10.906236259601954 98.36116511581716 L8.406236259601954 96.19610160635605 L8.406236259601954 91.86597458743387"/>
		<path opacity="0.75" fill="darkturquoise" d="M-47.019389582602116 107.86597458743387 L-44.519389582602116 110.03103809689496 L-44.519389582602116 114.36116511581716 L-47.019389582602116 112.19610160635605 L-47.019389582602116 107.86597458743387"/>
		<path opacity="0.75" fill="darkturquoise" d="M8.406236259601954 91.86597458743387 L-47.019389582602116 107.86597458743387 L-47.019389582602116 112.19610160635605 L8.406236259601954 96.19610160635605 L8.406236259601954 91.86597458743387"/>
		<path opacity="0.75" fill="darkturquoise" d="M10.906236259601954 94.03103809689496 L-44.519389582602116 110.03103809689496 L-44.519389582602116 114.36116511581716 L10.906236259601954 98.36116511581716 L10.906236259601954 94.03103809689496"/>
		<path opacity="0.75" fill="darkturquoise" d="M8.406236259601954 91.86597458743387 L10.906236259601954 94.03103809689496 L-44.519389582602116 110.03103809689496 L-47.019389582602116 107.86597458743387 L8.406236259601954 91.86597458743387"/>
		<path opacity="0.75" fill="darkturquoise" d="M8.406236259601954 96.19610160635605 L10.906236259601954 98.36116511581716 L-44.519389582602116 114.36116511581716 L-47.019389582602116 112.19610160635605 L8.406236259601954 96.19610160635605"/>
		<text x="-47.019389582602116" y="110.03103809689496" font-family="calibri" font-size="4">5</text>
		<text x="-45.769389582602116" y="113.2786333610866" font-family="calibri" font-size="4">5</text>
		<text x="-19.30657666150008" y="99.86597458743387" font-family="calibri" font-size="4">64</text>

		<path opacity="0.5" fill="orange" d="M4.6202367904177635 85.84614317029974 L12.620236790417763 92.77434640057524 L12.620236790417763 106.63075286112625 L4.6202367904177635 99.70254963085074 L4.6202367904177635 85.84614317029974"/>
		<path opacity="0.5" fill="orange" d="M-50.80538905178628 101.84614317029974 L-42.80538905178628 108.77434640057524 L-42.80538905178628 122.63075286112625 L-50.80538905178628 115.70254963085074 L-50.80538905178628 101.84614317029974"/>
		<path opacity="0.5" fill="orange" d="M4.6202367904177635 85.84614317029974 L-50.80538905178628 101.84614317029974 L-50.80538905178628 115.70254963085074 L4.6202367904177635 99.70254963085074 L4.6202367904177635 85.84614317029974"/>
		<path opacity="0.5" fill="orange" d="M12.620236790417763 92.77434640057524 L-42.80538905178628 108.77434640057524 L-42.80538905178628 122.63075286112625 L12.620236790417763 106.63075286112625 L12.620236790417763 92.77434640057524"/>
		<path opacity="0.5" fill="orange" d="M4.6202367904177635 85.84614317029974 L12.620236790417763 92.77434640057524 L-42.80538905178628 108.77434640057524 L-50.80538905178628 101.84614317029974 L4.6202367904177635 85.84614317029974"/>
		<path opacity="0.5" fill="orange" d="M4.6202367904177635 99.70254963085074 L12.620236790417763 106.63075286112625 L-42.80538905178628 122.63075286112625 L-50.80538905178628 115.70254963085074 L4.6202367904177635 99.70254963085074"/>
		<text x="-50.80538905178628" y="108.77434640057524" font-family="calibri" font-size="4">16</text>
		<text x="-46.80538905178628" y="119.1666512459885" font-family="calibri" font-size="4">16</text>
		<text x="-23.092576130684257" y="93.84614317029974" font-family="calibri" font-size="4">64</text>

		<path opacity="0.75" fill="pink" d="M-192.75238285848735 107.78276616525152 L-187.75238285848735 112.11289318417371 L-139.19295592679538 125.16246001814665 L-192.75238285848735 107.78276616525152"/>
		<path opacity="0.75" fill="pink" d="M-192.75238285848735 107.78276616525152 L-192.75238285848735 116.44302020309591 L-139.19295592679538 125.16246001814665 L-192.75238285848735 107.78276616525152"/>
		<path opacity="0.75" fill="pink" d="M-187.75238285848735 112.11289318417371 L-187.75238285848735 120.77314722201811 L-139.19295592679538 125.16246001814665 L-187.75238285848735 112.11289318417371"/>
		<path opacity="0.75" fill="pink" d="M-192.75238285848735 116.44302020309591 L-187.75238285848735 120.77314722201811 L-139.19295592679538 125.16246001814665 L-192.75238285848735 116.44302020309591"/>

		<path opacity="0.75" fill="darkturquoise" d="M-192.75238285848735 107.78276616525152 L-187.75238285848735 112.11289318417371 L-187.75238285848735 120.77314722201811 L-192.75238285848735 116.44302020309591 L-192.75238285848735 107.78276616525152"/>
		<path opacity="0.75" fill="darkturquoise" d="M-210.07289093417614 112.78276616525152 L-205.07289093417614 117.11289318417371 L-205.07289093417614 125.77314722201811 L-210.07289093417614 121.44302020309591 L-210.07289093417614 112.78276616525152"/>
		<path opacity="0.75" fill="darkturquoise" d="M-192.75238285848735 107.78276616525152 L-210.07289093417614 112.78276616525152 L-210.07289093417614 121.44302020309591 L-192.75238285848735 116.44302020309591 L-192.75238285848735 107.78276616525152"/>
		<path opacity="0.75" fill="darkturquoise" d="M-187.75238285848735 112.11289318417371 L-205.07289093417614 117.11289318417371 L-205.07289093417614 125.77314722201811 L-187.75238285848735 120.77314722201811 L-187.75238285848735 112.11289318417371"/>
		<path opacity="0.75" fill="darkturquoise" d="M-192.75238285848735 107.78276616525152 L-187.75238285848735 112.11289318417371 L-205.07289093417614 117.11289318417371 L-210.07289093417614 112.78276616525152 L-192.75238285848735 107.78276616525152"/>
		<path opacity="0.75" fill="darkturquoise" d="M-192.75238285848735 116.44302020309591 L-187.75238285848735 120.77314722201811 L-205.07289093417614 125.77314722201811 L-210.07289093417614 121.44302020309591 L-192.75238285848735 116.44302020309591"/>
		<text x="-210.07289093417614" y="117.11289318417371" font-family="calibri" font-size="4">10</text>
		<text x="-207.57289093417614" y="123.608083712557" font-family="calibri" font-size="4">10</text>
		<text x="-201.41263689633175" y="110.28276616525152" font-family="calibri" font-size="4">20</text>

		<path opacity="0.5" fill="orange" d="M-197.62074235133218 99.77211431702997 L-181.62074235133218 113.62852077758099 L-181.62074235133218 141.34133369868303 L-197.62074235133218 127.484927238132 L-197.62074235133218 99.77211431702997"/>
		<path opacity="0.5" fill="orange" d="M-214.94125042702098 104.77211431702997 L-198.94125042702098 118.62852077758099 L-198.94125042702098 146.34133369868303 L-214.94125042702098 132.484927238132 L-214.94125042702098 104.77211431702997"/>
		<path opacity="0.5" fill="orange" d="M-197.62074235133218 99.77211431702997 L-214.94125042702098 104.77211431702997 L-214.94125042702098 132.484927238132 L-197.62074235133218 127.484927238132 L-197.62074235133218 99.77211431702997"/>
		<path opacity="0.5" fill="orange" d="M-181.62074235133218 113.62852077758099 L-198.94125042702098 118.62852077758099 L-198.94125042702098 146.34133369868303 L-181.62074235133218 141.34133369868303 L-181.62074235133218 113.62852077758099"/>
		<path opacity="0.5" fill="orange" d="M-197.62074235133218 99.77211431702997 L-181.62074235133218 113.62852077758099 L-198.94125042702098 118.62852077758099 L-214.94125042702098 104.77211431702997 L-197.62074235133218 99.77211431702997"/>
		<path opacity="0.5" fill="orange" d="M-197.62074235133218 127.484927238132 L-181.62074235133218 141.34133369868303 L-198.94125042702098 146.34133369868303 L-214.94125042702098 132.484927238132 L-197.62074235133218 127.484927238132"/>
		<text x="-214.94125042702098" y="118.62852077758099" font-family="calibri" font-size="4">32</text>
		<text x="-206.94125042702098" y="139.41313046840753" font-family="calibri" font-size="4">32</text>
		<text x="-206.28099638917658" y="102.27211431702997" font-family="calibri" font-size="4">20</text>

		<path opacity="0.75" fill="pink" d="M-87.96015351644277 128.0035664097708 L-85.46015351644277 130.1686299192319 L-46.248452353234626 113.83287985065255 L-87.96015351644277 128.0035664097708"/>
		<path opacity="0.75" fill="pink" d="M-87.96015351644277 128.0035664097708 L-87.96015351644277 132.33369342869298 L-46.248452353234626 113.83287985065255 L-87.96015351644277 128.0035664097708"/>
		<path opacity="0.75" fill="pink" d="M-85.46015351644277 130.1686299192319 L-85.46015351644277 134.4987569381541 L-46.248452353234626 113.83287985065255 L-85.46015351644277 130.1686299192319"/>
		<path opacity="0.75" fill="pink" d="M-87.96015351644277 132.33369342869298 L-85.46015351644277 134.4987569381541 L-46.248452353234626 113.83287985065255 L-87.96015351644277 132.33369342869298"/>

		<path opacity="0.75" fill="darkturquoise" d="M-87.96015351644277 128.0035664097708 L-85.46015351644277 130.1686299192319 L-85.46015351644277 134.4987569381541 L-87.96015351644277 132.33369342869298 L-87.96015351644277 128.0035664097708"/>
		<path opacity="0.75" fill="darkturquoise" d="M-115.67296643754483 136.0035664097708 L-113.17296643754483 138.1686299192319 L-113.17296643754483 142.4987569381541 L-115.67296643754483 140.33369342869298 L-115.67296643754483 136.0035664097708"/>
		<path opacity="0.75" fill="darkturquoise" d="M-87.96015351644277 128.0035664097708 L-115.67296643754483 136.0035664097708 L-115.67296643754483 140.33369342869298 L-87.96015351644277 132.33369342869298 L-87.96015351644277 128.0035664097708"/>
		<path opacity="0.75" fill="darkturquoise" d="M-85.46015351644277 130.1686299192319 L-113.17296643754483 138.1686299192319 L-113.17296643754483 142.4987569381541 L-85.46015351644277 134.4987569381541 L-85.46015351644277 130.1686299192319"/>
		<path opacity="0.75" fill="darkturquoise" d="M-87.96015351644277 128.0035664097708 L-85.46015351644277 130.1686299192319 L-113.17296643754483 138.1686299192319 L-115.67296643754483 136.0035664097708 L-87.96015351644277 128.0035664097708"/>
		<path opacity="0.75" fill="darkturquoise" d="M-87.96015351644277 132.33369342869298 L-85.46015351644277 134.4987569381541 L-113.17296643754483 142.4987569381541 L-115.67296643754483 140.33369342869298 L-87.96015351644277 132.33369342869298"/>
		<text x="-115.67296643754483" y="138.16862991923188" font-family="calibri" font-size="4">5</text>
		<text x="-114.42296643754483" y="141.41622518342353" font-family="calibri" font-size="4">5</text>
		<text x="-101.8165599769938" y="132.0035664097708" font-family="calibri" font-size="4">32</text>

		<path opacity="0.5" fill="orange" d="M-98.10665924100823 103.95383832488646 L-82.10665924100823 117.81024478543748 L-82.10665924100823 145.52305770653953 L-98.10665924100823 131.6666512459885 L-98.10665924100823 103.95383832488646"/>
		<path opacity="0.5" fill="orange" d="M-125.81947216211029 111.95383832488646 L-109.81947216211029 125.81024478543748 L-109.81947216211029 153.52305770653953 L-125.81947216211029 139.6666512459885 L-125.81947216211029 111.95383832488646"/>
		<path opacity="0.5" fill="orange" d="M-98.10665924100823 103.95383832488646 L-125.81947216211029 111.95383832488646 L-125.81947216211029 139.6666512459885 L-98.10665924100823 131.6666512459885 L-98.10665924100823 103.95383832488646"/>
		<path opacity="0.5" fill="orange" d="M-82.10665924100823 117.81024478543748 L-109.81947216211029 125.81024478543748 L-109.81947216211029 153.52305770653953 L-82.10665924100823 145.52305770653953 L-82.10665924100823 117.81024478543748"/>
		<path opacity="0.5" fill="orange" d="M-98.10665924100823 103.95383832488646 L-82.10665924100823 117.81024478543748 L-109.81947216211029 125.81024478543748 L-125.81947216211029 111.95383832488646 L-98.10665924100823 103.95383832488646"/>
		<path opacity="0.5" fill="orange" d="M-98.10665924100823 131.6666512459885 L-82.10665924100823 145.52305770653953 L-109.81947216211029 153.52305770653953 L-125.81947216211029 139.6666512459885 L-98.10665924100823 131.6666512459885"/>
		<text x="-125.81947216211029" y="125.81024478543748" font-family="calibri" font-size="4">32</text>
		<text x="-117.81947216211029" y="146.594854476264" font-family="calibri" font-size="4">32</text>
		<text x="-111.96306570155926" y="107.95383832488646" font-family="calibri" font-size="4">32</text>

		<path opacity="0.75" fill="darkturquoise" d="M-158.48547185959785 134.81517849766732 L-153.48547185959785 139.1453055165895 L-153.48547185959785 147.8055595544339 L-158.48547185959785 143.4754325355117 L-158.48547185959785 134.81517849766732"/>
		<path opacity="0.75" fill="darkturquoise" d="M-175.80597993528664 139.81517849766732 L-170.80597993528664 144.1453055165895 L-170.80597993528664 152.8055595544339 L-175.80597993528664 148.4754325355117 L-175.80597993528664 139.81517849766732"/>
		<path opacity="0.75" fill="darkturquoise" d="M-158.48547185959785 134.81517849766732 L-175.80597993528664 139.81517849766732 L-175.80597993528664 148.4754325355117 L-158.48547185959785 143.4754325355117 L-158.48547185959785 134.81517849766732"/>
		<path opacity="0.75" fill="darkturquoise" d="M-153.48547185959785 139.1453055165895 L-170.80597993528664 144.1453055165895 L-170.80597993528664 152.8055595544339 L-153.48547185959785 147.8055595544339 L-153.48547185959785 139.1453055165895"/>
		<path opacity="0.75" fill="darkturquoise" d="M-158.48547185959785 134.81517849766732 L-153.48547185959785 139.1453055165895 L-170.80597993528664 144.1453055165895 L-175.80597993528664 139.81517849766732 L-158.48547185959785 134.81517849766732"/>
		<path opacity="0.75" fill="darkturquoise" d="M-158.48547185959785 143.4754325355117 L-153.48547185959785 147.8055595544339 L-170.80597993528664 152.8055595544339 L-175.80597993528664 148.4754325355117 L-158.48547185959785 143.4754325355117"/>
		<text x="-175.80597993528664" y="144.1453055165895" font-family="calibri" font-size="4">10</text>
		<text x="-173.30597993528664" y="150.6404960449728" font-family="calibri" font-size="4">10</text>
		<text x="-167.14572589744225" y="137.31517849766732" font-family="calibri" font-size="4">20</text>

		<path opacity="0.5" fill="orange" d="M-169.12074235133218 124.45383832488646 L-153.12074235133218 138.31024478543748 L-153.12074235133218 166.02305770653953 L-169.12074235133218 152.1666512459885 L-169.12074235133218 124.45383832488646"/>
		<path opacity="0.5" fill="orange" d="M-186.44125042702098 129.45383832488648 L-170.44125042702098 143.31024478543748 L-170.44125042702098 171.02305770653953 L-186.44125042702098 157.1666512459885 L-186.44125042702098 129.45383832488648"/>
		<path opacity="0.5" fill="orange" d="M-169.12074235133218 124.45383832488646 L-186.44125042702098 129.45383832488648 L-186.44125042702098 157.1666512459885 L-169.12074235133218 152.1666512459885 L-169.12074235133218 124.45383832488646"/>
		<path opacity="0.5" fill="orange" d="M-153.12074235133218 138.31024478543748 L-170.44125042702098 143.31024478543748 L-170.44125042702098 171.02305770653953 L-153.12074235133218 166.02305770653953 L-153.12074235133218 138.31024478543748"/>
		<path opacity="0.5" fill="orange" d="M-169.12074235133218 124.45383832488646 L-153.12074235133218 138.31024478543748 L-170.44125042702098 143.31024478543748 L-186.44125042702098 129.45383832488648 L-169.12074235133218 124.45383832488646"/>
		<path opacity="0.5" fill="orange" d="M-169.12074235133218 152.1666512459885 L-153.12074235133218 166.02305770653953 L-170.44125042702098 171.02305770653953 L-186.44125042702098 157.1666512459885 L-169.12074235133218 152.1666512459885"/>
		<text x="-186.44125042702098" y="143.31024478543748" font-family="calibri" font-size="4">32</text>
		<text x="-178.44125042702098" y="164.094854476264" font-family="calibri" font-size="4">32</text>
		<text x="-177.78099638917658" y="126.95383832488648" font-family="calibri" font-size="4">20</text>

		<path opacity="0.75" fill="pink" d="M-158.48547185959785 134.81517849766732 L-153.48547185959785 139.1453055165895 L-118.66286512723386 132.60539597661872 L-158.48547185959785 134.81517849766732"/>
		<path opacity="0.75" fill="pink" d="M-158.48547185959785 134.81517849766732 L-158.48547185959785 143.4754325355117 L-118.66286512723386 132.60539597661872 L-158.48547185959785 134.81517849766732"/>
		<path opacity="0.75" fill="pink" d="M-153.48547185959785 139.1453055165895 L-153.48547185959785 147.8055595544339 L-118.66286512723386 132.60539597661872 L-153.48547185959785 139.1453055165895"/>
		<path opacity="0.75" fill="pink" d="M-158.48547185959785 143.4754325355117 L-153.48547185959785 147.8055595544339 L-118.66286512723386 132.60539597661872 L-158.48547185959785 143.4754325355117"/>

	 </g>
</svg>