<svg width="100%" height="100%" viewBox="-260.4871130596428 -186.35254037844388 511.4742261192856 299.76854727741454" xmlns="http://www.w3.org/2000/svg">
	<g stroke="black" stroke-width="0.3">

		<path opacity="0.75" fill="darkturquoise" d="M239.9871130596428 -140.46633369868303 L244.9871130596428 -136.13620667976085 L244.9871130596428 -6.2323961120950315 L239.9871130596428 -10.562523131017215 L239.9871130596428 -140.46633369868303" stroke-linecap="square"/>
		<path opacity="0.75" fill="darkturquoise" d="M231.3268590217984 -137.96633369868303 L236.3268590217984 -133.63620667976085 L236.3268590217984 -3.7323961120950315 L231.3268590217984 -8.062523131017215 L231.3268590217984 -137.96633369868303" stroke-linecap="square"/>
		<path opacity="0.75" fill="darkturquoise" d="M239.9871130596428 -140.46633369868303 L231.3268590217984 -137.96633369868303 L231.3268590217984 -8.062523131017215 L239.9871130596428 -10.562523131017215 L239.9871130596428 -140.46633369868303" stroke-linecap="square"/>
		<path opacity="0.75" fill="darkturquoise" d="M244.9871130596428 -136.13620667976085 L236.3268590217984 -133.63620667976085 L236.3268590217984 -3.7323961120950315 L244.9871130596428 -6.2323961120950315 L244.9871130596428 -136.13620667976085" stroke-linecap="square"/>
		<path opacity="0.75" fill="darkturquoise" d="M239.9871130596428 -140.46633369868303 L244.9871130596428 -136.13620667976085 L236.3268590217984 -133.63620667976085 L231.3268590217984 -137.96633369868303 L239.9871130596428 -140.46633369868303" stroke-linecap="square"/>
		<path opacity="0.75" fill="darkturquoise" d="M239.9871130596428 -10.562523131017215 L244.9871130596428 -6.2323961120950315 L236.3268590217984 -3.7323961120950315 L231.3268590217984 -8.062523131017215 L239.9871130596428 -10.562523131017215" stroke-linecap="square"/>
		<text style="fill:black;font-family:calibri;font-size:6" x="231.3268590217984" y="-73.01442841485013" >150</text>
		<text style="fill:black;font-family:calibri;font-size:6" x="233.8268590217984" y="-5.8974596215561235" >10</text>
		<text style="fill:black;font-family:calibri;font-size:6" x="235.6569860407206" y="-139.21633369868303" >10</text>

<!-- Arrow -->
		<path opacity="0.5" stroke="black" d="M190.5255888325765 -58.349364905389024 L233.8268590217984 -70.84936490538904" stroke-linecap="square"/>
		<circle opacity="0.5" cx="233.8268590217984" cy="-70.84936490538904" r="1" fill="black" />
		<path opacity="0.5" fill="orange" d="M181.5255888325765 -81.73205080756887 L199.5255888325765 -66.14359353944899 L199.5255888325765 -34.96667900320919 L181.5255888325765 -50.55513627132908 L181.5255888325765 -81.73205080756887" stroke-linecap="square"/>
		<path opacity="0.5" fill="orange" d="M107.04740410711477 -60.232050807568875 L125.04740410711477 -44.643593539448986 L125.04740410711477 -13.466679003209187 L107.04740410711477 -29.055136271329083 L107.04740410711477 -60.232050807568875" stroke-linecap="square"/>
		<path opacity="0.5" fill="orange" d="M181.5255888325765 -81.73205080756887 L107.04740410711477 -60.232050807568875 L107.04740410711477 -29.055136271329083 L181.5255888325765 -50.55513627132908 L181.5255888325765 -81.73205080756887" stroke-linecap="square"/>
		<path opacity="0.5" fill="orange" d="M199.5255888325765 -66.14359353944899 L125.04740410711477 -44.643593539448986 L125.04740410711477 -13.466679003209187 L199.5255888325765 -34.96667900320919 L199.5255888325765 -66.14359353944899" stroke-linecap="square"/>
		<path opacity="0.5" fill="orange" d="M181.5255888325765 -81.73205080756887 L199.5255888325765 -66.14359353944899 L125.04740410711477 -44.643593539448986 L107.04740410711477 -60.232050807568875 L181.5255888325765 -81.73205080756887" stroke-linecap="square"/>
		<path opacity="0.5" fill="orange" d="M181.5255888325765 -50.55513627132908 L199.5255888325765 -34.96667900320919 L125.04740410711477 -13.466679003209187 L107.04740410711477 -29.055136271329083 L181.5255888325765 -50.55513627132908" stroke-linecap="square"/>
		<text style="fill:black;font-family:calibri;font-size:6" x="107.04740410711477" y="-44.64359353944898" >36</text>
		<text style="fill:black;font-family:calibri;font-size:6" x="116.04740410711477" y="-21.260907637269135" >36</text>
		<text style="fill:black;font-family:calibri;font-size:6" x="144.28649646984564" y="-70.98205080756887" >86</text>

<!-- Arrow -->
		<path opacity="0.5" stroke="black" d="M153.28649646984564 -63.18782217350893 L153.28649646984564 -116.48909236273087" stroke-linecap="square"/>
		<circle opacity="0.5" cx="153.28649646984564" cy="-116.48909236273087" r="1" fill="black" />
		<path opacity="0.75" fill="pink" d="M64.55762891273639 -41.01793260161763 L67.05762891273639 -38.85286909215653 L114.35061487509655 -31.725942398149478 L64.55762891273639 -41.01793260161763"/>
		<path opacity="0.75" fill="pink" d="M64.55762891273639 -41.01793260161763 L64.55762891273639 -36.68780558269543 L114.35061487509655 -31.725942398149478 L64.55762891273639 -41.01793260161763"/>
		<path opacity="0.75" fill="pink" d="M67.05762891273639 -38.85286909215653 L67.05762891273639 -34.52274207323434 L114.35061487509655 -31.725942398149478 L67.05762891273639 -38.85286909215653"/>
		<path opacity="0.75" fill="pink" d="M64.55762891273639 -36.68780558269543 L67.05762891273639 -34.52274207323434 L114.35061487509655 -31.725942398149478 L64.55762891273639 -36.68780558269543"/>

		<text style="fill:black;font-family:calibri;font-size:6" x="81.98862423352311" y="-40.87193749988356" >[5,5]</text>
		<path opacity="0.75" fill="darkturquoise" d="M64.55762891273639 -41.01793260161763 L67.05762891273639 -38.85286909215653 L67.05762891273639 -34.52274207323434 L64.55762891273639 -36.68780558269543 L64.55762891273639 -41.01793260161763" stroke-linecap="square"/>
		<path opacity="0.75" fill="darkturquoise" d="M2.203799840256801 -23.017932601617627 L4.703799840256801 -20.85286909215653 L4.703799840256801 -16.52274207323434 L2.203799840256801 -18.687805582695436 L2.203799840256801 -23.017932601617627" stroke-linecap="square"/>
		<path opacity="0.75" fill="darkturquoise" d="M64.55762891273639 -41.01793260161763 L2.203799840256801 -23.017932601617627 L2.203799840256801 -18.687805582695436 L64.55762891273639 -36.68780558269543 L64.55762891273639 -41.01793260161763" stroke-linecap="square"/>
		<path opacity="0.75" fill="darkturquoise" d="M67.05762891273639 -38.85286909215653 L4.703799840256801 -20.85286909215653 L4.703799840256801 -16.52274207323434 L67.05762891273639 -34.52274207323434 L67.05762891273639 -38.85286909215653" stroke-linecap="square"/>
		<path opacity="0.75" fill="darkturquoise" d="M64.55762891273639 -41.01793260161763 L67.05762891273639 -38.85286909215653 L4.703799840256801 -20.85286909215653 L2.203799840256801 -23.017932601617627 L64.55762891273639 -41.01793260161763" stroke-linecap="square"/>
		<path opacity="0.75" fill="darkturquoise" d="M64.55762891273639 -36.68780558269543 L67.05762891273639 -34.52274207323434 L4.703799840256801 -16.52274207323434 L2.203799840256801 -18.687805582695436 L64.55762891273639 -36.68780558269543" stroke-linecap="square"/>
		<path opacity="0.5" fill="orange" d="M63.74613391789285 -47.732050807568875 L81.74613391789285 -32.143593539448986 L81.74613391789285 -0.9666790032091868 L63.74613391789285 -16.555136271329083 L63.74613391789285 -47.732050807568875" stroke-linecap="square"/>
		<path opacity="0.5" fill="orange" d="M1.3923048454132623 -29.732050807568875 L19.392304845413264 -14.143593539448982 L19.392304845413264 17.033320996790813 L1.3923048454132623 1.4448637286709172 L1.3923048454132623 -29.732050807568875" stroke-linecap="square"/>
		<path opacity="0.5" fill="orange" d="M63.74613391789285 -47.732050807568875 L1.3923048454132623 -29.732050807568875 L1.3923048454132623 1.4448637286709172 L63.74613391789285 -16.555136271329083 L63.74613391789285 -47.732050807568875" stroke-linecap="square"/>
		<path opacity="0.5" fill="orange" d="M81.74613391789285 -32.143593539448986 L19.392304845413264 -14.143593539448982 L19.392304845413264 17.033320996790813 L81.74613391789285 -0.9666790032091868 L81.74613391789285 -32.143593539448986" stroke-linecap="square"/>
		<path opacity="0.5" fill="orange" d="M63.74613391789285 -47.732050807568875 L81.74613391789285 -32.143593539448986 L19.392304845413264 -14.143593539448982 L1.3923048454132623 -29.732050807568875 L63.74613391789285 -47.732050807568875" stroke-linecap="square"/>
		<path opacity="0.5" fill="orange" d="M63.74613391789285 -16.555136271329083 L81.74613391789285 -0.9666790032091868 L19.392304845413264 17.033320996790813 L1.3923048454132623 1.4448637286709172 L63.74613391789285 -16.555136271329083" stroke-linecap="square"/>
		<text style="fill:black;font-family:calibri;font-size:6" x="1.3923048454132623" y="-14.143593539448979" >36</text>
		<text style="fill:black;font-family:calibri;font-size:6" x="10.392304845413264" y="9.239092362730865" >36</text>
		<text style="fill:black;font-family:calibri;font-size:6" x="32.569219381653056" y="-38.732050807568875" >72</text>

<!-- Arrow -->
		<path opacity="0.5" stroke="black" d="M41.569219381653056 -30.937822173508927 L41.569219381653056 -74.23909236273087" stroke-linecap="square"/>
		<circle opacity="0.5" cx="41.569219381653056" cy="-74.23909236273087" r="1" fill="black" />
		<path opacity="0.75" fill="pink" d="M-39.60561774358663 -18.749822541084622 L-37.10561774358663 -16.584759031623527 L8.542090223228056 -14.260241171270945 L-39.60561774358663 -18.749822541084622"/>
		<path opacity="0.75" fill="pink" d="M-39.60561774358663 -18.749822541084622 L-39.60561774358663 -14.419695522162428 L8.542090223228056 -14.260241171270945 L-39.60561774358663 -18.749822541084622"/>
		<path opacity="0.75" fill="pink" d="M-37.10561774358663 -16.584759031623527 L-37.10561774358663 -12.254632012701332 L8.542090223228056 -14.260241171270945 L-37.10561774358663 -16.584759031623527"/>
		<path opacity="0.75" fill="pink" d="M-39.60561774358663 -14.419695522162428 L-37.10561774358663 -12.254632012701332 L8.542090223228056 -14.260241171270945 L-39.60561774358663 -14.419695522162428"/>

		<text style="fill:black;font-family:calibri;font-size:6" x="-22.723048421315067" y="-21.005031856177784" >[5,5]</text>
<!-- Arrow -->
		<path opacity="0.5" stroke="black" d="M-60.6217782649107 -70.32754963085077 L153.28649646984564 -116.48909236273087" stroke-linecap="square"/>
		<circle opacity="0.5" cx="153.28649646984564" cy="-116.48909236273087" r="1" fill="black" />
		<path opacity="0.75" fill="darkturquoise" d="M-39.60561774358663 -18.749822541084622 L-37.10561774358663 -16.584759031623527 L-37.10561774358663 -12.254632012701332 L-39.60561774358663 -14.419695522162428 L-39.60561774358663 -18.749822541084622" stroke-linecap="square"/>
		<path opacity="0.75" fill="darkturquoise" d="M-95.03124358579069 -2.7498225410846224 L-92.53124358579069 -0.5847590316235269 L-92.53124358579069 3.7453679872986676 L-95.03124358579069 1.580304477837572 L-95.03124358579069 -2.7498225410846224" stroke-linecap="square"/>
		<path opacity="0.75" fill="darkturquoise" d="M-39.60561774358663 -18.749822541084622 L-95.03124358579069 -2.7498225410846224 L-95.03124358579069 1.580304477837572 L-39.60561774358663 -14.419695522162428 L-39.60561774358663 -18.749822541084622" stroke-linecap="square"/>
		<path opacity="0.75" fill="darkturquoise" d="M-37.10561774358663 -16.584759031623527 L-92.53124358579069 -0.5847590316235269 L-92.53124358579069 3.7453679872986676 L-37.10561774358663 -12.254632012701332 L-37.10561774358663 -16.584759031623527" stroke-linecap="square"/>
		<path opacity="0.75" fill="darkturquoise" d="M-39.60561774358663 -18.749822541084622 L-37.10561774358663 -16.584759031623527 L-92.53124358579069 -0.5847590316235269 L-95.03124358579069 -2.7498225410846224 L-39.60561774358663 -18.749822541084622" stroke-linecap="square"/>
		<path opacity="0.75" fill="darkturquoise" d="M-39.60561774358663 -14.419695522162428 L-37.10561774358663 -12.254632012701332 L-92.53124358579069 3.7453679872986676 L-95.03124358579069 1.580304477837572 L-39.60561774358663 -14.419695522162428" stroke-linecap="square"/>
		<path opacity="0.5" fill="orange" d="M-50.908965343808674 -40.61473670974872 L-14.908965343808664 -9.437822173508934 L-14.908965343808664 52.91600689897065 L-50.908965343808674 21.739092362730872 L-50.908965343808674 -40.61473670974872" stroke-linecap="square"/>
		<path opacity="0.5" fill="orange" d="M-106.33459118601273 -24.61473670974872 L-70.33459118601273 6.562177826491066 L-70.33459118601273 68.91600689897065 L-106.33459118601273 37.73909236273087 L-106.33459118601273 -24.61473670974872" stroke-linecap="square"/>
		<path opacity="0.5" fill="orange" d="M-50.908965343808674 -40.61473670974872 L-106.33459118601273 -24.61473670974872 L-106.33459118601273 37.73909236273087 L-50.908965343808674 21.739092362730872 L-50.908965343808674 -40.61473670974872" stroke-linecap="square"/>
		<path opacity="0.5" fill="orange" d="M-14.908965343808664 -9.437822173508934 L-70.33459118601273 6.562177826491066 L-70.33459118601273 68.91600689897065 L-14.908965343808664 52.91600689897065 L-14.908965343808664 -9.437822173508934" stroke-linecap="square"/>
		<path opacity="0.5" fill="orange" d="M-50.908965343808674 -40.61473670974872 L-14.908965343808664 -9.437822173508934 L-70.33459118601273 6.562177826491066 L-106.33459118601273 -24.61473670974872 L-50.908965343808674 -40.61473670974872" stroke-linecap="square"/>
		<path opacity="0.5" fill="orange" d="M-50.908965343808674 21.739092362730872 L-14.908965343808664 52.91600689897065 L-70.33459118601273 68.91600689897065 L-106.33459118601273 37.73909236273087 L-50.908965343808674 21.739092362730872" stroke-linecap="square"/>
		<text style="fill:black;font-family:calibri;font-size:6" x="-106.33459118601273" y="6.562177826491077" >72</text>
		<text style="fill:black;font-family:calibri;font-size:6" x="-88.33459118601273" y="53.32754963085076" >72</text>
		<text style="fill:black;font-family:calibri;font-size:6" x="-78.6217782649107" y="-32.61473670974872" >64</text>

		<path opacity="0.75" fill="pink" d="M-140.06160799290558 32.650591943853115 L-137.56160799290558 34.815655453314214 L-77.76149790483582 43.650395379286465 L-140.06160799290558 32.650591943853115"/>
		<path opacity="0.75" fill="pink" d="M-140.06160799290558 32.650591943853115 L-140.06160799290558 36.98071896277531 L-77.76149790483582 43.650395379286465 L-140.06160799290558 32.650591943853115"/>
		<path opacity="0.75" fill="pink" d="M-137.56160799290558 34.815655453314214 L-137.56160799290558 39.145782472236405 L-77.76149790483582 43.650395379286465 L-137.56160799290558 34.815655453314214"/>
		<path opacity="0.75" fill="pink" d="M-140.06160799290558 36.98071896277531 L-137.56160799290558 39.145782472236405 L-77.76149790483582 43.650395379286465 L-140.06160799290558 36.98071896277531"/>

		<text style="fill:black;font-family:calibri;font-size:6" x="-118.46157129688233" y="33.65049366156979" >[5,5]</text>
<!-- Arrow -->
		<path opacity="0.5" stroke="black" d="M-60.6217782649107 -17.026279441628827 L-60.6217782649107 -70.32754963085077" stroke-linecap="square"/>
		<circle opacity="0.5" cx="-60.6217782649107" cy="-70.32754963085077" r="1" fill="black" />
<!-- Arrow -->
		<path opacity="0.5" stroke="black" d="M-152.4204710660612 -33.82754963085076 L41.569219381653056 -74.23909236273087" stroke-linecap="square"/>
		<circle opacity="0.5" cx="41.569219381653056" cy="-74.23909236273087" r="1" fill="black" />
		<path opacity="0.75" fill="darkturquoise" d="M-140.06160799290558 32.650591943853115 L-137.56160799290558 34.815655453314214 L-137.56160799290558 39.145782472236405 L-140.06160799290558 36.98071896277531 L-140.06160799290558 32.650591943853115" stroke-linecap="square"/>
		<path opacity="0.75" fill="darkturquoise" d="M-181.63082737455863 44.650591943853115 L-179.13082737455863 46.81565545331421 L-179.13082737455863 51.145782472236405 L-181.63082737455863 48.98071896277531 L-181.63082737455863 44.650591943853115" stroke-linecap="square"/>
		<path opacity="0.75" fill="darkturquoise" d="M-140.06160799290558 32.650591943853115 L-181.63082737455863 44.650591943853115 L-181.63082737455863 48.98071896277531 L-140.06160799290558 36.98071896277531 L-140.06160799290558 32.650591943853115" stroke-linecap="square"/>
		<path opacity="0.75" fill="darkturquoise" d="M-137.56160799290558 34.815655453314214 L-179.13082737455863 46.81565545331421 L-179.13082737455863 51.145782472236405 L-137.56160799290558 39.145782472236405 L-137.56160799290558 34.815655453314214" stroke-linecap="square"/>
		<path opacity="0.75" fill="darkturquoise" d="M-140.06160799290558 32.650591943853115 L-137.56160799290558 34.815655453314214 L-179.13082737455863 46.81565545331421 L-181.63082737455863 44.650591943853115 L-140.06160799290558 32.650591943853115" stroke-linecap="square"/>
		<path opacity="0.75" fill="darkturquoise" d="M-140.06160799290558 36.98071896277531 L-137.56160799290558 39.145782472236405 L-179.13082737455863 51.145782472236405 L-181.63082737455863 48.98071896277531 L-140.06160799290558 36.98071896277531" stroke-linecap="square"/>
		<path opacity="0.5" fill="orange" d="M-149.63586137523467 -12.114736709748719 L-113.63586137523467 19.062177826491066 L-113.63586137523467 81.41600689897065 L-149.63586137523467 50.23909236273087 L-149.63586137523467 -12.114736709748719" stroke-linecap="square"/>
		<path opacity="0.5" fill="orange" d="M-191.20508075688772 -0.11473670974871908 L-155.20508075688772 31.062177826491066 L-155.20508075688772 93.41600689897065 L-191.20508075688772 62.23909236273087 L-191.20508075688772 -0.11473670974871908" stroke-linecap="square"/>
		<path opacity="0.5" fill="orange" d="M-149.63586137523467 -12.114736709748719 L-191.20508075688772 -0.11473670974871908 L-191.20508075688772 62.23909236273087 L-149.63586137523467 50.23909236273087 L-149.63586137523467 -12.114736709748719" stroke-linecap="square"/>
		<path opacity="0.5" fill="orange" d="M-113.63586137523467 19.062177826491066 L-155.20508075688772 31.062177826491066 L-155.20508075688772 93.41600689897065 L-113.63586137523467 81.41600689897065 L-113.63586137523467 19.062177826491066" stroke-linecap="square"/>
		<path opacity="0.5" fill="orange" d="M-149.63586137523467 -12.114736709748719 L-113.63586137523467 19.062177826491066 L-155.20508075688772 31.062177826491066 L-191.20508075688772 -0.11473670974871908 L-149.63586137523467 -12.114736709748719" stroke-linecap="square"/>
		<path opacity="0.5" fill="orange" d="M-149.63586137523467 50.23909236273087 L-113.63586137523467 81.41600689897065 L-155.20508075688772 93.41600689897065 L-191.20508075688772 62.23909236273087 L-149.63586137523467 50.23909236273087" stroke-linecap="square"/>
		<text style="fill:black;font-family:calibri;font-size:6" x="-191.20508075688772" y="31.062177826491077" >72</text>
		<text style="fill:black;font-family:calibri;font-size:6" x="-173.20508075688772" y="77.82754963085077" >72</text>
		<text style="fill:black;font-family:calibri;font-size:6" x="-170.4204710660612" y="-6.114736709748719" >48</text>

		<path opacity="0.75" fill="pink" d="M-222.38743073124562 58.40563201097174 L-217.38743073124562 62.73575902989393 L-174.51657394161097 18.08784762204965 L-222.38743073124562 58.40563201097174"/>
		<path opacity="0.75" fill="pink" d="M-222.38743073124562 58.40563201097174 L-222.38743073124562 67.06588604881613 L-174.51657394161097 18.08784762204965 L-222.38743073124562 58.40563201097174"/>
		<path opacity="0.75" fill="pink" d="M-217.38743073124562 62.73575902989393 L-217.38743073124562 71.39601306773832 L-174.51657394161097 18.08784762204965 L-217.38743073124562 62.73575902989393"/>
		<path opacity="0.75" fill="pink" d="M-222.38743073124562 67.06588604881613 L-217.38743073124562 71.39601306773832 L-174.51657394161097 18.08784762204965 L-222.38743073124562 67.06588604881613"/>

		<text style="fill:black;font-family:calibri;font-size:6" x="-204.7638118013674" y="33.7467398165107" >[10,10]</text>
<!-- Arrow -->
		<path opacity="0.5" stroke="black" d="M-152.4204710660612 9.47372055837117 L-152.4204710660612 -33.82754963085076" stroke-linecap="square"/>
		<circle opacity="0.5" cx="-152.4204710660612" cy="-33.82754963085076" r="1" fill="black" />
		<path opacity="0.75" fill="darkturquoise" d="M-222.38743073124562 58.40563201097174 L-217.38743073124562 62.73575902989393 L-217.38743073124562 71.39601306773832 L-222.38743073124562 67.06588604881613 L-222.38743073124562 58.40563201097174" stroke-linecap="square"/>
		<path opacity="0.75" fill="darkturquoise" d="M-248.36819284477878 65.90563201097174 L-243.36819284477878 70.23575902989393 L-243.36819284477878 78.89601306773832 L-248.36819284477878 74.56588604881613 L-248.36819284477878 65.90563201097174" stroke-linecap="square"/>
		<path opacity="0.75" fill="darkturquoise" d="M-222.38743073124562 58.40563201097174 L-248.36819284477878 65.90563201097174 L-248.36819284477878 74.56588604881613 L-222.38743073124562 67.06588604881613 L-222.38743073124562 58.40563201097174" stroke-linecap="square"/>
		<path opacity="0.75" fill="darkturquoise" d="M-217.38743073124562 62.73575902989393 L-243.36819284477878 70.23575902989393 L-243.36819284477878 78.89601306773832 L-217.38743073124562 71.39601306773832 L-217.38743073124562 62.73575902989393" stroke-linecap="square"/>
		<path opacity="0.75" fill="darkturquoise" d="M-222.38743073124562 58.40563201097174 L-217.38743073124562 62.73575902989393 L-243.36819284477878 70.23575902989393 L-248.36819284477878 65.90563201097174 L-222.38743073124562 58.40563201097174" stroke-linecap="square"/>
		<path opacity="0.75" fill="darkturquoise" d="M-222.38743073124562 67.06588604881613 L-217.38743073124562 71.39601306773832 L-243.36819284477878 78.89601306773832 L-248.36819284477878 74.56588604881613 L-222.38743073124562 67.06588604881613" stroke-linecap="square"/>
		<path opacity="0.5" fill="lavender" d="M-234.50635094610965 12.385263290251281 L-198.50635094610965 43.562177826491066 L-198.50635094610965 105.91600689897064 L-234.50635094610965 74.73909236273087 L-234.50635094610965 12.385263290251281" stroke-linecap="square"/>
		<path opacity="0.5" fill="lavender" d="M-260.4871130596428 19.88526329025128 L-224.4871130596428 51.062177826491066 L-224.4871130596428 113.41600689897064 L-260.4871130596428 82.23909236273087 L-260.4871130596428 19.88526329025128" stroke-linecap="square"/>
		<path opacity="0.5" fill="lavender" d="M-234.50635094610965 12.385263290251281 L-260.4871130596428 19.88526329025128 L-260.4871130596428 82.23909236273087 L-234.50635094610965 74.73909236273087 L-234.50635094610965 12.385263290251281" stroke-linecap="square"/>
		<path opacity="0.5" fill="lavender" d="M-198.50635094610965 43.562177826491066 L-224.4871130596428 51.062177826491066 L-224.4871130596428 113.41600689897064 L-198.50635094610965 105.91600689897064 L-198.50635094610965 43.562177826491066" stroke-linecap="square"/>
		<path opacity="0.5" fill="lavender" d="M-234.50635094610965 12.385263290251281 L-198.50635094610965 43.562177826491066 L-224.4871130596428 51.062177826491066 L-260.4871130596428 19.88526329025128 L-234.50635094610965 12.385263290251281" stroke-linecap="square"/>
		<path opacity="0.5" fill="lavender" d="M-234.50635094610965 74.73909236273087 L-198.50635094610965 105.91600689897064 L-224.4871130596428 113.41600689897064 L-260.4871130596428 82.23909236273087 L-234.50635094610965 74.73909236273087" stroke-linecap="square"/>
		<text style="fill:black;font-family:calibri;font-size:6" x="-260.4871130596428" y="51.06217782649108" >72</text>
		<text style="fill:black;font-family:calibri;font-size:6" x="-242.4871130596428" y="97.82754963085075" >72</text>
		<text style="fill:black;font-family:calibri;font-size:6" x="-247.49673200287623" y="16.13526329025128" >30</text>

	 </g>
</svg>