<svg width="100%" height="100%" viewBox="-316.2514117646116 -172.71800913129738 1018.6824403084214 334.68954608524575" xmlns="http://www.w3.org/2000/svg">
	<g stroke="black" stroke-width="0.3">

		<path opacity="0.75" fill="darkturquoise" d="M693.2135561035104 -6.5670884393016244 L696.4310285438098 -0.7879993159264096 L637.1914019986051 161.97153695394834 L633.9739295583056 156.19244783057314 L693.2135561035104 -6.5670884393016244"/>
		<path opacity="0.75" fill="darkturquoise" d="M684.2205289317026 -7.1798382145970905 L687.438001372002 -1.4007490912218756 L628.1983748267971 161.35878717865288 L624.9809023864977 155.57969805527767 L684.2205289317026 -7.1798382145970905"/>
		<path opacity="0.75" fill="darkturquoise" d="M693.2135561035104 -6.5670884393016244 L684.2205289317026 -7.1798382145970905 L624.9809023864977 155.57969805527767 L633.9739295583056 156.19244783057314 L693.2135561035104 -6.5670884393016244"/>
		<path opacity="0.75" fill="darkturquoise" d="M696.4310285438098 -0.7879993159264096 L687.438001372002 -1.4007490912218756 L628.1983748267971 161.35878717865288 L637.1914019986051 161.97153695394834 L696.4310285438098 -0.7879993159264096"/>
		<path opacity="0.75" fill="darkturquoise" d="M693.2135561035104 -6.5670884393016244 L696.4310285438098 -0.7879993159264096 L687.438001372002 -1.4007490912218756 L684.2205289317026 -7.1798382145970905 L693.2135561035104 -6.5670884393016244"/>
		<path opacity="0.75" fill="darkturquoise" d="M633.9739295583056 156.19244783057314 L637.1914019986051 161.97153695394834 L628.1983748267971 161.35878717865288 L624.9809023864977 155.57969805527767 L633.9739295583056 156.19244783057314"/>
		<text style="fill:black;font-family:calibri;font-size:6" x="654.6007156591002" y="74.1999299203403" >200</text>
		<text style="fill:black;font-family:calibri;font-size:6" x="626.5896386066474" y="158.4692426169653" >10</text>
		<text style="fill:black;font-family:calibri;font-size:6" x="688.7170425176065" y="-6.8734633269493575" >10</text>

		<path opacity="0.5" fill="orange" d="M465.85959393741007 -16.776230197221473 L473.5815277941287 -2.906416301120963 L466.47277260870413 16.624728051264007 L458.7508387519855 2.7549141551634975 L465.85959393741007 -16.776230197221473"/>
		<path opacity="0.5" fill="orange" d="M408.3042200378394 -20.697828759112458 L416.0261538945581 -6.828014863011948 L408.9173987091335 12.703129489373021 L401.19546485241483 -1.1666844067274873 L408.3042200378394 -20.697828759112458"/>
		<path opacity="0.5" fill="orange" d="M465.85959393741007 -16.776230197221473 L408.3042200378394 -20.697828759112458 L401.19546485241483 -1.1666844067274873 L458.7508387519855 2.7549141551634975 L465.85959393741007 -16.776230197221473"/>
		<path opacity="0.5" fill="orange" d="M473.5815277941287 -2.906416301120963 L416.0261538945581 -6.828014863011948 L408.9173987091335 12.703129489373021 L466.47277260870413 16.624728051264007 L473.5815277941287 -2.906416301120963"/>
		<path opacity="0.5" fill="orange" d="M465.85959393741007 -16.776230197221473 L473.5815277941287 -2.906416301120963 L416.0261538945581 -6.828014863011948 L408.3042200378394 -20.697828759112458 L465.85959393741007 -16.776230197221473"/>
		<path opacity="0.5" fill="orange" d="M458.7508387519855 2.7549141551634975 L466.47277260870413 16.624728051264007 L408.9173987091335 12.703129489373021 L401.19546485241483 -1.1666844067274873 L458.7508387519855 2.7549141551634975"/>
		<text style="fill:black;font-family:calibri;font-size:6" x="404.7498424451271" y="-10.932256582919972" >24</text>
		<text style="fill:black;font-family:calibri;font-size:6" x="405.0564317807742" y="5.768222541322767" >24</text>
		<text style="fill:black;font-family:calibri;font-size:6" x="437.08190698762473" y="-18.737029478166967" >64</text>

<!-- Arrow -->
		<path opacity="0.5" stroke="black" d="M611.2443160202104 74.02572560555056 L656.2094518792499 77.0894744820279"/>
		<circle opacity="0.5" cx="656.2094518792499" cy="77.0894744820279" r="1" fill="black" />
<!-- Arrow -->
		<path opacity="0.5" stroke="black" d="M466.16618327305713 -0.07575107297873274 L548.2931258175549 69.73647717848229"/>
		<circle opacity="0.5" cx="548.2931258175549" cy="69.73647717848229" r="1" fill="black" />
		<path opacity="0.75" fill="darkturquoise" d="M639.255393072663 -10.243587091074424 L642.4728655129625 -4.464497967699209 L583.2332389677576 158.29503830217556 L580.0157665274583 152.51594917880033 L639.255393072663 -10.243587091074424"/>
		<path opacity="0.75" fill="darkturquoise" d="M630.2623659008551 -10.85633686636989 L633.4798383411546 -5.077247742994675 L574.2402117959498 157.6822885268801 L571.0227393556504 151.90319940350489 L630.2623659008551 -10.85633686636989"/>
		<path opacity="0.75" fill="darkturquoise" d="M639.255393072663 -10.243587091074424 L630.2623659008551 -10.85633686636989 L571.0227393556504 151.90319940350489 L580.0157665274583 152.51594917880033 L639.255393072663 -10.243587091074424"/>
		<path opacity="0.75" fill="darkturquoise" d="M642.4728655129625 -4.464497967699209 L633.4798383411546 -5.077247742994675 L574.2402117959498 157.6822885268801 L583.2332389677576 158.29503830217556 L642.4728655129625 -4.464497967699209"/>
		<path opacity="0.75" fill="darkturquoise" d="M639.255393072663 -10.243587091074424 L642.4728655129625 -4.464497967699209 L633.4798383411546 -5.077247742994675 L630.2623659008551 -10.85633686636989 L639.255393072663 -10.243587091074424"/>
		<path opacity="0.75" fill="darkturquoise" d="M580.0157665274583 152.51594917880033 L583.2332389677576 158.29503830217556 L574.2402117959498 157.6822885268801 L571.0227393556504 151.90319940350489 L580.0157665274583 152.51594917880033"/>
		<text style="fill:black;font-family:calibri;font-size:6" x="600.6425526282528" y="70.52343126856749" >200</text>
		<text style="fill:black;font-family:calibri;font-size:6" x="572.6314755758001" y="154.79274396519247" >10</text>
		<text style="fill:black;font-family:calibri;font-size:6" x="634.758879486759" y="-10.549961978722157" >10</text>

		<path opacity="0.75" fill="darkturquoise" d="M639.255393072663 -10.243587091074424 L642.4728655129625 -4.464497967699209 L583.2332389677576 158.29503830217556 L580.0157665274583 152.51594917880033 L639.255393072663 -10.243587091074424"/>
		<path opacity="0.75" fill="darkturquoise" d="M630.2623659008551 -10.85633686636989 L633.4798383411546 -5.077247742994675 L574.2402117959498 157.6822885268801 L571.0227393556504 151.90319940350489 L630.2623659008551 -10.85633686636989"/>
		<path opacity="0.75" fill="darkturquoise" d="M639.255393072663 -10.243587091074424 L630.2623659008551 -10.85633686636989 L571.0227393556504 151.90319940350489 L580.0157665274583 152.51594917880033 L639.255393072663 -10.243587091074424"/>
		<path opacity="0.75" fill="darkturquoise" d="M642.4728655129625 -4.464497967699209 L633.4798383411546 -5.077247742994675 L574.2402117959498 157.6822885268801 L583.2332389677576 158.29503830217556 L642.4728655129625 -4.464497967699209"/>
		<path opacity="0.75" fill="darkturquoise" d="M639.255393072663 -10.243587091074424 L642.4728655129625 -4.464497967699209 L633.4798383411546 -5.077247742994675 L630.2623659008551 -10.85633686636989 L639.255393072663 -10.243587091074424"/>
		<path opacity="0.75" fill="darkturquoise" d="M580.0157665274583 152.51594917880033 L583.2332389677576 158.29503830217556 L574.2402117959498 157.6822885268801 L571.0227393556504 151.90319940350489 L580.0157665274583 152.51594917880033"/>
		<text style="fill:black;font-family:calibri;font-size:6" x="600.6425526282528" y="70.52343126856749" >200</text>
		<text style="fill:black;font-family:calibri;font-size:6" x="572.6314755758001" y="154.79274396519247" >10</text>
		<text style="fill:black;font-family:calibri;font-size:6" x="634.758879486759" y="-10.549961978722157" >10</text>

<!-- Arrow -->
		<path opacity="0.5" stroke="black" d="M557.2861529893628 70.34922695377776 L602.2512888484025 73.4129758302551"/>
		<circle opacity="0.5" cx="602.2512888484025" cy="73.4129758302551" r="1" fill="black" />
		<path opacity="0.75" fill="pink" d="M366.2642952953099 -12.560929913668193 L367.8730315154596 -9.67138535198059 L412.0642571599502 3.6920876034359598 L366.2642952953099 -12.560929913668193"/>
		<path opacity="0.75" fill="pink" d="M366.2642952953099 -12.560929913668193 L364.7833046316798 -8.491941506921325 L412.0642571599502 3.6920876034359598 L366.2642952953099 -12.560929913668193"/>
		<path opacity="0.75" fill="pink" d="M367.8730315154596 -9.67138535198059 L366.3920408518295 -5.602396945233718 L412.0642571599502 3.6920876034359598 L367.8730315154596 -9.67138535198059"/>
		<path opacity="0.75" fill="pink" d="M364.7833046316798 -8.491941506921325 L366.3920408518295 -5.602396945233718 L412.0642571599502 3.6920876034359598 L364.7833046316798 -8.491941506921325"/>

		<text style="fill:black;font-family:calibri;font-size:6" x="382.06719465690657" y="-8.934421155116116" >[5,5]</text>
		<path opacity="0.5" fill="orange" d="M171.51241980687047 -86.31467958251612 L176.66037571134956 -77.06813698511579 L171.9212055877332 -64.0473740835258 L166.7732496832541 -73.29391668092613 L171.51241980687047 -86.31467958251612"/>
		<path opacity="0.5" fill="orange" d="M113.95704590729986 -90.23627814440711 L119.10500181177895 -80.98973554700677 L114.36583168816256 -67.96897264541678 L109.21787578368348 -77.21551524281712 L113.95704590729986 -90.23627814440711"/>
		<path opacity="0.5" fill="orange" d="M171.51241980687047 -86.31467958251612 L113.95704590729986 -90.23627814440711 L109.21787578368348 -77.21551524281712 L166.7732496832541 -73.29391668092613 L171.51241980687047 -86.31467958251612"/>
		<path opacity="0.5" fill="orange" d="M176.66037571134956 -77.06813698511579 L119.10500181177895 -80.98973554700677 L114.36583168816256 -67.96897264541678 L171.9212055877332 -64.0473740835258 L176.66037571134956 -77.06813698511579"/>
		<path opacity="0.5" fill="orange" d="M171.51241980687047 -86.31467958251612 L176.66037571134956 -77.06813698511579 L119.10500181177895 -80.98973554700677 L113.95704590729986 -90.23627814440711 L171.51241980687047 -86.31467958251612"/>
		<path opacity="0.5" fill="orange" d="M166.7732496832541 -73.29391668092613 L171.9212055877332 -64.0473740835258 L114.36583168816256 -67.96897264541678 L109.21787578368348 -77.21551524281712 L166.7732496832541 -73.29391668092613"/>
		<text style="fill:black;font-family:calibri;font-size:6" x="111.58746084549168" y="-83.72589669361211" >16</text>
		<text style="fill:black;font-family:calibri;font-size:6" x="111.79185373592301" y="-72.59224394411694" >16</text>
		<text style="fill:black;font-family:calibri;font-size:6" x="142.73473285708516" y="-88.27547886346161" >64</text>

		<path opacity="0.75" fill="darkturquoise" d="M585.2972300418155 -13.920085742847224 L588.514702482115 -8.14099661947201 L529.2750759369103 154.61853965040274 L526.0576034966108 148.83945052702754 L585.2972300418155 -13.920085742847224"/>
		<path opacity="0.75" fill="darkturquoise" d="M576.3042028700077 -14.53283551814269 L579.521675310307 -8.753746394767475 L520.2820487651023 154.00578987510727 L517.0645763248028 148.22670075173207 L576.3042028700077 -14.53283551814269"/>
		<path opacity="0.75" fill="darkturquoise" d="M585.2972300418155 -13.920085742847224 L576.3042028700077 -14.53283551814269 L517.0645763248028 148.22670075173207 L526.0576034966108 148.83945052702754 L585.2972300418155 -13.920085742847224"/>
		<path opacity="0.75" fill="darkturquoise" d="M588.514702482115 -8.14099661947201 L579.521675310307 -8.753746394767475 L520.2820487651023 154.00578987510727 L529.2750759369103 154.61853965040274 L588.514702482115 -8.14099661947201"/>
		<path opacity="0.75" fill="darkturquoise" d="M585.2972300418155 -13.920085742847224 L588.514702482115 -8.14099661947201 L579.521675310307 -8.753746394767475 L576.3042028700077 -14.53283551814269 L585.2972300418155 -13.920085742847224"/>
		<path opacity="0.75" fill="darkturquoise" d="M526.0576034966108 148.83945052702754 L529.2750759369103 154.61853965040274 L520.2820487651023 154.00578987510727 L517.0645763248028 148.22670075173207 L526.0576034966108 148.83945052702754"/>
		<text style="fill:black;font-family:calibri;font-size:6" x="546.6843895974052" y="66.84693261679469" >200</text>
		<text style="fill:black;font-family:calibri;font-size:6" x="518.6733125449525" y="151.11624531341965" >10</text>
		<text style="fill:black;font-family:calibri;font-size:6" x="580.8007164559116" y="-14.226460630494957" >10</text>

		<path opacity="0.75" fill="darkturquoise" d="M585.2972300418155 -13.920085742847224 L588.514702482115 -8.14099661947201 L529.2750759369103 154.61853965040274 L526.0576034966108 148.83945052702754 L585.2972300418155 -13.920085742847224"/>
		<path opacity="0.75" fill="darkturquoise" d="M576.3042028700077 -14.53283551814269 L579.521675310307 -8.753746394767475 L520.2820487651023 154.00578987510727 L517.0645763248028 148.22670075173207 L576.3042028700077 -14.53283551814269"/>
		<path opacity="0.75" fill="darkturquoise" d="M585.2972300418155 -13.920085742847224 L576.3042028700077 -14.53283551814269 L517.0645763248028 148.22670075173207 L526.0576034966108 148.83945052702754 L585.2972300418155 -13.920085742847224"/>
		<path opacity="0.75" fill="darkturquoise" d="M588.514702482115 -8.14099661947201 L579.521675310307 -8.753746394767475 L520.2820487651023 154.00578987510727 L529.2750759369103 154.61853965040274 L588.514702482115 -8.14099661947201"/>
		<path opacity="0.75" fill="darkturquoise" d="M585.2972300418155 -13.920085742847224 L588.514702482115 -8.14099661947201 L579.521675310307 -8.753746394767475 L576.3042028700077 -14.53283551814269 L585.2972300418155 -13.920085742847224"/>
		<path opacity="0.75" fill="darkturquoise" d="M526.0576034966108 148.83945052702754 L529.2750759369103 154.61853965040274 L520.2820487651023 154.00578987510727 L517.0645763248028 148.22670075173207 L526.0576034966108 148.83945052702754"/>
		<text style="fill:black;font-family:calibri;font-size:6" x="546.6843895974052" y="66.84693261679469" >200</text>
		<text style="fill:black;font-family:calibri;font-size:6" x="518.6733125449525" y="151.11624531341965" >10</text>
		<text style="fill:black;font-family:calibri;font-size:6" x="580.8007164559116" y="-14.226460630494957" >10</text>

<!-- Arrow -->
		<path opacity="0.5" stroke="black" d="M171.71681269730183 -75.18102683302095 L248.5349257153057 -14.904295635129024"/>
		<circle opacity="0.5" cx="248.5349257153057" cy="-14.904295635129024" r="1" fill="black" />
		<path opacity="0.75" fill="darkturquoise" d="M366.2642952953099 -12.560929913668193 L367.8730315154596 -9.67138535198059 L366.3920408518295 -5.602396945233718 L364.7833046316798 -8.491941506921325 L366.2642952953099 -12.560929913668193"/>
		<path opacity="0.75" fill="darkturquoise" d="M251.15354749616867 -20.404127037450166 L252.7622837163184 -17.514582475762563 L251.28129305268828 -13.44559406901569 L249.67255683253856 -16.335138630703298 L251.15354749616867 -20.404127037450166"/>
		<path opacity="0.75" fill="darkturquoise" d="M366.2642952953099 -12.560929913668193 L251.15354749616867 -20.404127037450166 L249.67255683253856 -16.335138630703298 L364.7833046316798 -8.491941506921325 L366.2642952953099 -12.560929913668193"/>
		<path opacity="0.75" fill="darkturquoise" d="M367.8730315154596 -9.67138535198059 L252.7622837163184 -17.514582475762563 L251.28129305268828 -13.44559406901569 L366.3920408518295 -5.602396945233718 L367.8730315154596 -9.67138535198059"/>
		<path opacity="0.75" fill="darkturquoise" d="M366.2642952953099 -12.560929913668193 L367.8730315154596 -9.67138535198059 L252.7622837163184 -17.514582475762563 L251.15354749616867 -20.404127037450166 L366.2642952953099 -12.560929913668193"/>
		<path opacity="0.75" fill="darkturquoise" d="M364.7833046316798 -8.491941506921325 L366.3920408518295 -5.602396945233718 L251.28129305268828 -13.44559406901569 L249.67255683253856 -16.335138630703298 L364.7833046316798 -8.491941506921325"/>
		<path opacity="0.5" fill="orange" d="M363.3390841787999 -23.76157763558979 L371.0610180355185 -9.891763739489281 L363.9522628500939 9.639380612895687 L356.23032899337534 -4.230433283204821 L363.3390841787999 -23.76157763558979"/>
		<path opacity="0.5" fill="orange" d="M248.22833637965866 -31.604774759371765 L255.95027023637726 -17.734960863271255 L248.8415150509527 1.796183489113714 L241.1195811942341 -12.073630406986794 L248.22833637965866 -31.604774759371765"/>
		<path opacity="0.5" fill="orange" d="M363.3390841787999 -23.76157763558979 L248.22833637965866 -31.604774759371765 L241.1195811942341 -12.073630406986794 L356.23032899337534 -4.230433283204821 L363.3390841787999 -23.76157763558979"/>
		<path opacity="0.5" fill="orange" d="M371.0610180355185 -9.891763739489281 L255.95027023637726 -17.734960863271255 L248.8415150509527 1.796183489113714 L363.9522628500939 9.639380612895687 L371.0610180355185 -9.891763739489281"/>
		<path opacity="0.5" fill="orange" d="M363.3390841787999 -23.76157763558979 L371.0610180355185 -9.891763739489281 L255.95027023637726 -17.734960863271255 L248.22833637965866 -31.604774759371765 L363.3390841787999 -23.76157763558979"/>
		<path opacity="0.5" fill="orange" d="M356.23032899337534 -4.230433283204821 L363.9522628500939 9.639380612895687 L248.8415150509527 1.796183489113714 L241.1195811942341 -12.073630406986794 L356.23032899337534 -4.230433283204821"/>
		<text style="fill:black;font-family:calibri;font-size:6" x="244.67395878694637" y="-21.83920258317928" >24</text>
		<text style="fill:black;font-family:calibri;font-size:6" x="244.9805481225934" y="-5.13872345893654" >24</text>
		<text style="fill:black;font-family:calibri;font-size:6" x="305.7837102792293" y="-27.683176197480776" >128</text>

		<path opacity="0.75" fill="pink" d="M71.64274525163921 -98.54705981450917 L73.25148147178894 -95.65751525282157 L113.398438965109 -87.54243654127208 L71.64274525163921 -98.54705981450917"/>
		<path opacity="0.75" fill="pink" d="M71.64274525163921 -98.54705981450917 L70.1617545880091 -94.4780714077623 L113.398438965109 -87.54243654127208 L71.64274525163921 -98.54705981450917"/>
		<path opacity="0.75" fill="pink" d="M73.25148147178894 -95.65751525282157 L71.77049080815881 -91.5885268460747 L113.398438965109 -87.54243654127208 L73.25148147178894 -95.65751525282157"/>
		<path opacity="0.75" fill="pink" d="M70.1617545880091 -94.4780714077623 L71.77049080815881 -91.5885268460747 L113.398438965109 -87.54243654127208 L70.1617545880091 -94.4780714077623"/>

		<text style="fill:black;font-family:calibri;font-size:6" x="86.09755522951237" y="-97.54474817789063" >[5,5]</text>
		<path opacity="0.75" fill="darkturquoise" d="M71.64274525163921 -98.54705981450917 L73.25148147178894 -95.65751525282157 L71.77049080815881 -91.5885268460747 L70.1617545880091 -94.4780714077623 L71.64274525163921 -98.54705981450917"/>
		<path opacity="0.75" fill="darkturquoise" d="M-43.46800254750201 -106.39025693829115 L-41.859266327352316 -103.50071237660353 L-43.340256990982425 -99.43172396985668 L-44.94899321113215 -102.32126853154426 L-43.46800254750201 -106.39025693829115"/>
		<path opacity="0.75" fill="darkturquoise" d="M71.64274525163921 -98.54705981450917 L-43.46800254750201 -106.39025693829115 L-44.94899321113215 -102.32126853154426 L70.1617545880091 -94.4780714077623 L71.64274525163921 -98.54705981450917"/>
		<path opacity="0.75" fill="darkturquoise" d="M73.25148147178894 -95.65751525282157 L-41.859266327352316 -103.50071237660353 L-43.340256990982425 -99.43172396985668 L71.77049080815881 -91.5885268460747 L73.25148147178894 -95.65751525282157"/>
		<path opacity="0.75" fill="darkturquoise" d="M71.64274525163921 -98.54705981450917 L73.25148147178894 -95.65751525282157 L-41.859266327352316 -103.50071237660353 L-43.46800254750201 -106.39025693829115 L71.64274525163921 -98.54705981450917"/>
		<path opacity="0.75" fill="darkturquoise" d="M70.1617545880091 -94.4780714077623 L71.77049080815881 -91.5885268460747 L-43.340256990982425 -99.43172396985668 L-44.94899321113215 -102.32126853154426 L70.1617545880091 -94.4780714077623"/>
		<path opacity="0.5" fill="orange" d="M68.78751715782897 -104.4336797703796 L79.08342896678712 -85.94059457557891 L69.60508871955437 -59.899068772398955 L59.30917691059619 -78.39215396719965 L68.78751715782897 -104.4336797703796"/>
		<path opacity="0.5" fill="orange" d="M-46.32323064131228 -112.27687689416157 L-36.027318832354126 -93.78379169936088 L-45.50565907958688 -67.74226589618092 L-55.80157088854503 -86.23535109098162 L-46.32323064131228 -112.27687689416157"/>
		<path opacity="0.5" fill="orange" d="M68.78751715782897 -104.4336797703796 L-46.32323064131228 -112.27687689416157 L-55.80157088854503 -86.23535109098162 L59.30917691059619 -78.39215396719965 L68.78751715782897 -104.4336797703796"/>
		<path opacity="0.5" fill="orange" d="M79.08342896678712 -85.94059457557891 L-36.027318832354126 -93.78379169936088 L-45.50565907958688 -67.74226589618092 L69.60508871955437 -59.899068772398955 L79.08342896678712 -85.94059457557891"/>
		<path opacity="0.5" fill="orange" d="M68.78751715782897 -104.4336797703796 L79.08342896678712 -85.94059457557891 L-36.027318832354126 -93.78379169936088 L-46.32323064131228 -112.27687689416157 L68.78751715782897 -104.4336797703796"/>
		<path opacity="0.5" fill="orange" d="M59.30917691059619 -78.39215396719965 L69.60508871955437 -59.899068772398955 L-45.50565907958688 -67.74226589618092 L-55.80157088854503 -86.23535109098162 L59.30917691059619 -78.39215396719965"/>
		<text style="fill:black;font-family:calibri;font-size:6" x="-51.062400764928654" y="-99.2561139925716" >32</text>
		<text style="fill:black;font-family:calibri;font-size:6" x="-50.65361498406595" y="-76.98880849358127" >32</text>
		<text style="fill:black;font-family:calibri;font-size:6" x="11.232143258258347" y="-108.35527833227059" >128</text>

<!-- Arrow -->
		<path opacity="0.5" stroke="black" d="M-112.11489882546532 -131.215308485925 L-45.91444486044958 -90.00957139517125"/>
		<circle opacity="0.5" cx="-45.91444486044958" cy="-90.00957139517125" r="1" fill="black" />
		<path opacity="0.5" fill="orange" d="M-112.31929171589667 -142.34896123542015 L-107.17133581141758 -133.1024186380198 L-111.910505935034 -120.08165573642981 L-117.05846183951303 -129.32819833383016 L-112.31929171589667 -142.34896123542015"/>
		<path opacity="0.5" fill="orange" d="M-169.87466561546728 -146.27055979731114 L-164.7267097109882 -137.0240171999108 L-169.4658798346046 -124.0032542983208 L-174.6138357390837 -133.24979689572115 L-169.87466561546728 -146.27055979731114"/>
		<path opacity="0.5" fill="orange" d="M-112.31929171589667 -142.34896123542015 L-169.87466561546728 -146.27055979731114 L-174.6138357390837 -133.24979689572115 L-117.05846183951303 -129.32819833383016 L-112.31929171589667 -142.34896123542015"/>
		<path opacity="0.5" fill="orange" d="M-107.17133581141758 -133.1024186380198 L-164.7267097109882 -137.0240171999108 L-169.4658798346046 -124.0032542983208 L-111.910505935034 -120.08165573642981 L-107.17133581141758 -133.1024186380198"/>
		<path opacity="0.5" fill="orange" d="M-112.31929171589667 -142.34896123542015 L-107.17133581141758 -133.1024186380198 L-164.7267097109882 -137.0240171999108 L-169.87466561546728 -146.27055979731114 L-112.31929171589667 -142.34896123542015"/>
		<path opacity="0.5" fill="orange" d="M-117.05846183951303 -129.32819833383016 L-111.910505935034 -120.08165573642981 L-169.4658798346046 -124.0032542983208 L-174.6138357390837 -133.24979689572115 L-117.05846183951303 -129.32819833383016"/>
		<text style="fill:black;font-family:calibri;font-size:6" x="-172.2442506772755" y="-139.76017834651614" >16</text>
		<text style="fill:black;font-family:calibri;font-size:6" x="-172.03985778684415" y="-128.626525597021" >16</text>
		<text style="fill:black;font-family:calibri;font-size:6" x="-141.09697866568197" y="-144.30976051636566" >64</text>

		<path opacity="0.75" fill="pink" d="M-214.4259391362939 -135.52494281239748 L-212.8172029161442 -132.63539825070987 L-168.78077085636568 -132.85331480404412 L-214.4259391362939 -135.52494281239748"/>
		<path opacity="0.75" fill="pink" d="M-214.4259391362939 -135.52494281239748 L-215.906929799924 -131.4559544056506 L-168.78077085636568 -132.85331480404412 L-214.4259391362939 -135.52494281239748"/>
		<path opacity="0.75" fill="pink" d="M-212.8172029161442 -132.63539825070987 L-214.2981935797743 -128.566409843963 L-168.78077085636568 -132.85331480404412 L-212.8172029161442 -132.63539825070987"/>
		<path opacity="0.75" fill="pink" d="M-215.906929799924 -131.4559544056506 L-214.2981935797743 -128.566409843963 L-168.78077085636568 -132.85331480404412 L-215.906929799924 -131.4559544056506"/>

		<text style="fill:black;font-family:calibri;font-size:6" x="-198.67463763626793" y="-138.6891288082208" >[5,5]</text>
		<path opacity="0.75" fill="darkturquoise" d="M-214.4259391362939 -135.52494281239748 L-212.8172029161442 -132.63539825070987 L-214.2981935797743 -128.566409843963 L-215.906929799924 -131.4559544056506 L-214.4259391362939 -135.52494281239748"/>
		<path opacity="0.75" fill="darkturquoise" d="M-243.20362608607923 -137.48574209334296 L-241.59488986592953 -134.59619753165535 L-243.07588052955964 -130.5272091249085 L-244.68461674970933 -133.4167536865961 L-243.20362608607923 -137.48574209334296"/>
		<path opacity="0.75" fill="darkturquoise" d="M-214.4259391362939 -135.52494281239748 L-243.20362608607923 -137.48574209334296 L-244.68461674970933 -133.4167536865961 L-215.906929799924 -131.4559544056506 L-214.4259391362939 -135.52494281239748"/>
		<path opacity="0.75" fill="darkturquoise" d="M-212.8172029161442 -132.63539825070987 L-241.59488986592953 -134.59619753165535 L-243.07588052955964 -130.5272091249085 L-214.2981935797743 -128.566409843963 L-212.8172029161442 -132.63539825070987"/>
		<path opacity="0.75" fill="darkturquoise" d="M-214.4259391362939 -135.52494281239748 L-212.8172029161442 -132.63539825070987 L-241.59488986592953 -134.59619753165535 L-243.20362608607923 -137.48574209334296 L-214.4259391362939 -135.52494281239748"/>
		<path opacity="0.75" fill="darkturquoise" d="M-215.906929799924 -131.4559544056506 L-214.2981935797743 -128.566409843963 L-243.07588052955964 -130.5272091249085 L-244.68461674970933 -133.4167536865961 L-215.906929799924 -131.4559544056506"/>
		<path opacity="0.5" fill="orange" d="M-215.04419436493822 -160.4679614232836 L-204.74828255598004 -141.97487622848294 L-214.22662280321276 -115.93335042530298 L-224.52253461217094 -134.42643562010366 L-215.04419436493822 -160.4679614232836"/>
		<path opacity="0.5" fill="orange" d="M-243.82188131472356 -162.42876070422912 L-233.52596950576537 -143.93567550942842 L-243.0043097529981 -117.89414970624847 L-253.30022156195628 -136.38723490104917 L-243.82188131472356 -162.42876070422912"/>
		<path opacity="0.5" fill="orange" d="M-215.04419436493822 -160.4679614232836 L-243.82188131472356 -162.42876070422912 L-253.30022156195628 -136.38723490104917 L-224.52253461217094 -134.42643562010366 L-215.04419436493822 -160.4679614232836"/>
		<path opacity="0.5" fill="orange" d="M-204.74828255598004 -141.97487622848294 L-233.52596950576537 -143.93567550942842 L-243.0043097529981 -117.89414970624847 L-214.22662280321276 -115.93335042530298 L-204.74828255598004 -141.97487622848294"/>
		<path opacity="0.5" fill="orange" d="M-215.04419436493822 -160.4679614232836 L-204.74828255598004 -141.97487622848294 L-233.52596950576537 -143.93567550942842 L-243.82188131472356 -162.42876070422912 L-215.04419436493822 -160.4679614232836"/>
		<path opacity="0.5" fill="orange" d="M-224.52253461217094 -134.42643562010366 L-214.22662280321276 -115.93335042530298 L-243.0043097529981 -117.89414970624847 L-253.30022156195628 -136.38723490104917 L-224.52253461217094 -134.42643562010366"/>
		<text style="fill:black;font-family:calibri;font-size:6" x="-248.56105143833992" y="-149.40799780263916" >32</text>
		<text style="fill:black;font-family:calibri;font-size:6" x="-248.1522656574772" y="-127.14069230364882" >32</text>
		<text style="fill:black;font-family:calibri;font-size:6" x="-229.4330378398309" y="-161.44836106375635" >32</text>

<!-- Arrow -->
		<path opacity="0.5" stroke="black" d="M75.34688335704965 28.33799180954893 L248.5349257153057 -14.904295635129024"/>
		<circle opacity="0.5" cx="248.5349257153057" cy="-14.904295635129024" r="1" fill="black" />
<!-- Arrow -->
		<path opacity="0.5" stroke="black" d="M-69.64426261351292 -54.93133205737218 L-45.91444486044958 -90.00957139517125"/>
		<circle opacity="0.5" cx="-45.91444486044958" cy="-90.00957139517125" r="1" fill="black" />
		<path opacity="0.75" fill="pink" d="M-289.32601756723443 -140.50588619606708 L-286.10854512693504 -134.72679707269188 L-243.11306194361026 -122.19168309531287 L-289.32601756723443 -140.50588619606708"/>
		<path opacity="0.75" fill="pink" d="M-289.32601756723443 -140.50588619606708 L-292.2879988944947 -132.36790938257334 L-243.11306194361026 -122.19168309531287 L-289.32601756723443 -140.50588619606708"/>
		<path opacity="0.75" fill="pink" d="M-286.10854512693504 -134.72679707269188 L-289.07052645419526 -126.58882025919813 L-243.11306194361026 -122.19168309531287 L-286.10854512693504 -134.72679707269188"/>
		<path opacity="0.75" fill="pink" d="M-292.2879988944947 -132.36790938257334 L-289.07052645419526 -126.58882025919813 L-243.11306194361026 -122.19168309531287 L-292.2879988944947 -132.36790938257334"/>

		<text style="fill:black;font-family:calibri;font-size:6" x="-272.8492082125933" y="-135.84878464569" >[10,10]</text>
		<path opacity="0.75" fill="darkturquoise" d="M-289.32601756723443 -140.50588619606708 L-286.10854512693504 -134.72679707269188 L-289.07052645419526 -126.58882025919813 L-292.2879988944947 -132.36790938257334 L-289.32601756723443 -140.50588619606708"/>
		<path opacity="0.75" fill="darkturquoise" d="M-307.31207191085025 -141.73138574665802 L-304.09459947055086 -135.9522966232828 L-307.0565807978111 -127.81431980978907 L-310.2740532381105 -133.59340893316428 L-307.31207191085025 -141.73138574665802"/>
		<path opacity="0.75" fill="darkturquoise" d="M-289.32601756723443 -140.50588619606708 L-307.31207191085025 -141.73138574665802 L-310.2740532381105 -133.59340893316428 L-292.2879988944947 -132.36790938257334 L-289.32601756723443 -140.50588619606708"/>
		<path opacity="0.75" fill="darkturquoise" d="M-286.10854512693504 -134.72679707269188 L-304.09459947055086 -135.9522966232828 L-307.0565807978111 -127.81431980978907 L-289.07052645419526 -126.58882025919813 L-286.10854512693504 -134.72679707269188"/>
		<path opacity="0.75" fill="darkturquoise" d="M-289.32601756723443 -140.50588619606708 L-286.10854512693504 -134.72679707269188 L-304.09459947055086 -135.9522966232828 L-307.31207191085025 -141.73138574665802 L-289.32601756723443 -140.50588619606708"/>
		<path opacity="0.75" fill="darkturquoise" d="M-292.2879988944947 -132.36790938257334 L-289.07052645419526 -126.58882025919813 L-307.0565807978111 -127.81431980978907 L-310.2740532381105 -133.59340893316428 L-292.2879988944947 -132.36790938257334"/>
		<path opacity="0.5" fill="lavender" d="M-288.78701717376305 -165.49250958070644 L-278.49110536480487 -146.99942438590577 L-287.9694456120376 -120.9578985827258 L-298.26535742099577 -139.4509837775265 L-288.78701717376305 -165.49250958070644"/>
		<path opacity="0.5" fill="lavender" d="M-306.77307151737887 -166.71800913129738 L-296.4771597084207 -148.22492393649668 L-305.9554999556534 -122.18339813331674 L-316.2514117646116 -140.67648332811743 L-306.77307151737887 -166.71800913129738"/>
		<path opacity="0.5" fill="lavender" d="M-288.78701717376305 -165.49250958070644 L-306.77307151737887 -166.71800913129738 L-316.2514117646116 -140.67648332811743 L-298.26535742099577 -139.4509837775265 L-288.78701717376305 -165.49250958070644"/>
		<path opacity="0.5" fill="lavender" d="M-278.49110536480487 -146.99942438590577 L-296.4771597084207 -148.22492393649668 L-305.9554999556534 -122.18339813331674 L-287.9694456120376 -120.9578985827258 L-278.49110536480487 -146.99942438590577"/>
		<path opacity="0.5" fill="lavender" d="M-288.78701717376305 -165.49250958070644 L-278.49110536480487 -146.99942438590577 L-296.4771597084207 -148.22492393649668 L-306.77307151737887 -166.71800913129738 L-288.78701717376305 -165.49250958070644"/>
		<path opacity="0.5" fill="lavender" d="M-298.26535742099577 -139.4509837775265 L-287.9694456120376 -120.9578985827258 L-305.9554999556534 -122.18339813331674 L-316.2514117646116 -140.67648332811743 L-298.26535742099577 -139.4509837775265"/>
		<text style="fill:black;font-family:calibri;font-size:6" x="-311.5122416409952" y="-153.6972462297074" >32</text>
		<text style="fill:black;font-family:calibri;font-size:6" x="-311.1034558601325" y="-131.42994073071708" >32</text>
		<text style="fill:black;font-family:calibri;font-size:6" x="-297.78004434557096" y="-166.1052593560019" >20</text>

<!-- Arrow -->
		<path opacity="0.5" stroke="black" d="M117.81751956900206 104.62196823810172 L548.2931258175549 69.73647717848229"/>
		<circle opacity="0.5" cx="548.2931258175549" cy="69.73647717848229" r="1" fill="black" />
		<path opacity="0.5" fill="orange" d="M-69.84865550394426 -66.06498480686734 L-64.70069959946517 -56.818442209467 L-69.43986972308159 -43.79767930787702 L-74.58782562756068 -53.04422190527737 L-69.84865550394426 -66.06498480686734"/>
		<path opacity="0.5" fill="orange" d="M-127.40402940351487 -69.98658336875833 L-122.25607349903578 -60.74004077135799 L-126.9952436226522 -47.71927786976801 L-132.1431995271313 -56.965820467168356 L-127.40402940351487 -69.98658336875833"/>
		<path opacity="0.5" fill="orange" d="M-69.84865550394426 -66.06498480686734 L-127.40402940351487 -69.98658336875833 L-132.1431995271313 -56.965820467168356 L-74.58782562756068 -53.04422190527737 L-69.84865550394426 -66.06498480686734"/>
		<path opacity="0.5" fill="orange" d="M-64.70069959946517 -56.818442209467 L-122.25607349903578 -60.74004077135799 L-126.9952436226522 -47.71927786976801 L-69.43986972308159 -43.79767930787702 L-64.70069959946517 -56.818442209467"/>
		<path opacity="0.5" fill="orange" d="M-69.84865550394426 -66.06498480686734 L-64.70069959946517 -56.818442209467 L-122.25607349903578 -60.74004077135799 L-127.40402940351487 -69.98658336875833 L-69.84865550394426 -66.06498480686734"/>
		<path opacity="0.5" fill="orange" d="M-74.58782562756068 -53.04422190527737 L-69.43986972308159 -43.79767930787702 L-126.9952436226522 -47.71927786976801 L-132.1431995271313 -56.965820467168356 L-74.58782562756068 -53.04422190527737"/>
		<text style="fill:black;font-family:calibri;font-size:6" x="-129.77361446532308" y="-63.476201917963344" >16</text>
		<text style="fill:black;font-family:calibri;font-size:6" x="-129.56922157489174" y="-52.34254916846818" >16</text>
		<text style="fill:black;font-family:calibri;font-size:6" x="-98.62634245372956" y="-68.02578408781284" >64</text>

		<path opacity="0.75" fill="pink" d="M-165.86037735306235 -68.19403107426429 L-164.25164113291265 -65.30448651257667 L-127.38338668747986 -60.26705716639168 L-165.86037735306235 -68.19403107426429"/>
		<path opacity="0.75" fill="pink" d="M-165.86037735306235 -68.19403107426429 L-167.34136801669246 -64.12504266751742 L-127.38338668747986 -60.26705716639168 L-165.86037735306235 -68.19403107426429"/>
		<path opacity="0.75" fill="pink" d="M-164.25164113291265 -65.30448651257667 L-165.73263179654276 -61.235498105829805 L-127.38338668747986 -60.26705716639168 L-164.25164113291265 -65.30448651257667"/>
		<path opacity="0.75" fill="pink" d="M-167.34136801669246 -64.12504266751742 L-165.73263179654276 -61.235498105829805 L-127.38338668747986 -60.26705716639168 L-167.34136801669246 -64.12504266751742"/>

		<text style="fill:black;font-family:calibri;font-size:6" x="-152.49846839115162" y="-68.73054412032798" >[5,5]</text>
		<path opacity="0.75" fill="darkturquoise" d="M-165.86037735306235 -68.19403107426429 L-164.25164113291265 -65.30448651257667 L-165.73263179654276 -61.235498105829805 L-167.34136801669246 -64.12504266751742 L-165.86037735306235 -68.19403107426429"/>
		<path opacity="0.75" fill="darkturquoise" d="M-194.63806430284768 -70.15483035520978 L-193.029328082698 -67.26528579352217 L-194.5103187463281 -63.1962973867753 L-196.1190549664778 -66.08584194846291 L-194.63806430284768 -70.15483035520978"/>
		<path opacity="0.75" fill="darkturquoise" d="M-165.86037735306235 -68.19403107426429 L-194.63806430284768 -70.15483035520978 L-196.1190549664778 -66.08584194846291 L-167.34136801669246 -64.12504266751742 L-165.86037735306235 -68.19403107426429"/>
		<path opacity="0.75" fill="darkturquoise" d="M-164.25164113291265 -65.30448651257667 L-193.029328082698 -67.26528579352217 L-194.5103187463281 -63.1962973867753 L-165.73263179654276 -61.235498105829805 L-164.25164113291265 -65.30448651257667"/>
		<path opacity="0.75" fill="darkturquoise" d="M-165.86037735306235 -68.19403107426429 L-164.25164113291265 -65.30448651257667 L-193.029328082698 -67.26528579352217 L-194.63806430284768 -70.15483035520978 L-165.86037735306235 -68.19403107426429"/>
		<path opacity="0.75" fill="darkturquoise" d="M-167.34136801669246 -64.12504266751742 L-165.73263179654276 -61.235498105829805 L-194.5103187463281 -63.1962973867753 L-196.1190549664778 -66.08584194846291 L-167.34136801669246 -64.12504266751742"/>
		<path opacity="0.5" fill="orange" d="M-172.57355815298575 -84.18398499473082 L-162.27764634402763 -65.69089979993015 L-171.7559865912604 -39.649373996750185 L-182.05189840021853 -58.142459191550856 L-172.57355815298575 -84.18398499473082"/>
		<path opacity="0.5" fill="orange" d="M-201.3512451027711 -86.14478427567632 L-191.05533329381296 -67.65169908087564 L-200.53367354104574 -41.61017327769568 L-210.82958535000387 -60.10325847249635 L-201.3512451027711 -86.14478427567632"/>
		<path opacity="0.5" fill="orange" d="M-172.57355815298575 -84.18398499473082 L-201.3512451027711 -86.14478427567632 L-210.82958535000387 -60.10325847249635 L-182.05189840021853 -58.142459191550856 L-172.57355815298575 -84.18398499473082"/>
		<path opacity="0.5" fill="orange" d="M-162.27764634402763 -65.69089979993015 L-191.05533329381296 -67.65169908087564 L-200.53367354104574 -41.61017327769568 L-171.7559865912604 -39.649373996750185 L-162.27764634402763 -65.69089979993015"/>
		<path opacity="0.5" fill="orange" d="M-172.57355815298575 -84.18398499473082 L-162.27764634402763 -65.69089979993015 L-191.05533329381296 -67.65169908087564 L-201.3512451027711 -86.14478427567632 L-172.57355815298575 -84.18398499473082"/>
		<path opacity="0.5" fill="orange" d="M-182.05189840021853 -58.142459191550856 L-171.7559865912604 -39.649373996750185 L-200.53367354104574 -41.61017327769568 L-210.82958535000387 -60.10325847249635 L-182.05189840021853 -58.142459191550856"/>
		<text style="fill:black;font-family:calibri;font-size:6" x="-206.09041522638748" y="-73.12402137408634" >32</text>
		<text style="fill:black;font-family:calibri;font-size:6" x="-205.6816294455248" y="-50.856715875096015" >32</text>
		<text style="fill:black;font-family:calibri;font-size:6" x="-186.96240162787842" y="-85.16438463520356" >32</text>

		<path opacity="0.5" fill="orange" d="M75.24468691183397 22.77116543480135 L77.81866486407351 27.394436733501518 L75.44907980226532 33.904818184296516 L72.87510185002579 29.281546885596345 L75.24468691183397 22.77116543480135"/>
		<path opacity="0.5" fill="orange" d="M17.68931301226337 18.849566872910366 L20.263290964502914 23.472838171610533 L17.893705902694705 29.983219622405528 L15.31972795045516 25.35994832370536 L17.68931301226337 18.849566872910366"/>
		<path opacity="0.5" fill="orange" d="M75.24468691183397 22.77116543480135 L17.68931301226337 18.849566872910366 L15.31972795045516 25.35994832370536 L72.87510185002579 29.281546885596345 L75.24468691183397 22.77116543480135"/>
		<path opacity="0.5" fill="orange" d="M77.81866486407351 27.394436733501518 L20.263290964502914 23.472838171610533 L17.893705902694705 29.983219622405528 L75.44907980226532 33.904818184296516 L77.81866486407351 27.394436733501518"/>
		<path opacity="0.5" fill="orange" d="M75.24468691183397 22.77116543480135 L77.81866486407351 27.394436733501518 L20.263290964502914 23.472838171610533 L17.68931301226337 18.849566872910366 L75.24468691183397 22.77116543480135"/>
		<path opacity="0.5" fill="orange" d="M72.87510185002579 29.281546885596345 L75.44907980226532 33.904818184296516 L17.893705902694705 29.983219622405528 L15.31972795045516 25.35994832370536 L72.87510185002579 29.281546885596345"/>
		<text style="fill:black;font-family:calibri;font-size:6" x="16.504520481359265" y="22.104757598307863" >8</text>
		<text style="fill:black;font-family:calibri;font-size:6" x="16.606716926574933" y="27.671583973055444" >8</text>
		<text style="fill:black;font-family:calibri;font-size:6" x="46.46699996204867" y="20.81036615385586" >64</text>

		<path opacity="0.75" fill="pink" d="M-247.37982394447948 -78.96419105889426 L-244.16235150418004 -73.18510193551904 L-195.84847152990977 -62.92200435021235 L-247.37982394447948 -78.96419105889426"/>
		<path opacity="0.75" fill="pink" d="M-247.37982394447948 -78.96419105889426 L-250.3418052717397 -70.82621424540052 L-195.84847152990977 -62.92200435021235 L-247.37982394447948 -78.96419105889426"/>
		<path opacity="0.75" fill="pink" d="M-244.16235150418004 -73.18510193551904 L-247.12433283144026 -65.0471251220253 L-195.84847152990977 -62.92200435021235 L-244.16235150418004 -73.18510193551904"/>
		<path opacity="0.75" fill="pink" d="M-250.3418052717397 -70.82621424540052 L-247.12433283144026 -65.0471251220253 L-195.84847152990977 -62.92200435021235 L-250.3418052717397 -70.82621424540052"/>

		<text style="fill:black;font-family:calibri;font-size:6" x="-229.1302156595231" y="-75.44309770455331" >[10,10]</text>
		<path opacity="0.75" fill="darkturquoise" d="M-247.37982394447948 -78.96419105889426 L-244.16235150418004 -73.18510193551904 L-247.12433283144026 -65.0471251220253 L-250.3418052717397 -70.82621424540052 L-247.37982394447948 -78.96419105889426"/>
		<path opacity="0.75" fill="darkturquoise" d="M-265.3658782880953 -80.18969060948518 L-262.14840584779586 -74.41060148610998 L-265.1103871750561 -66.27262467261625 L-268.3278596153555 -72.05171379599145 L-265.3658782880953 -80.18969060948518"/>
		<path opacity="0.75" fill="darkturquoise" d="M-247.37982394447948 -78.96419105889426 L-265.3658782880953 -80.18969060948518 L-268.3278596153555 -72.05171379599145 L-250.3418052717397 -70.82621424540052 L-247.37982394447948 -78.96419105889426"/>
		<path opacity="0.75" fill="darkturquoise" d="M-244.16235150418004 -73.18510193551904 L-262.14840584779586 -74.41060148610998 L-265.1103871750561 -66.27262467261625 L-247.12433283144026 -65.0471251220253 L-244.16235150418004 -73.18510193551904"/>
		<path opacity="0.75" fill="darkturquoise" d="M-247.37982394447948 -78.96419105889426 L-244.16235150418004 -73.18510193551904 L-262.14840584779586 -74.41060148610998 L-265.3658782880953 -80.18969060948518 L-247.37982394447948 -78.96419105889426"/>
		<path opacity="0.75" fill="darkturquoise" d="M-250.3418052717397 -70.82621424540052 L-247.12433283144026 -65.0471251220253 L-265.1103871750561 -66.27262467261625 L-268.3278596153555 -72.05171379599145 L-250.3418052717397 -70.82621424540052"/>
		<path opacity="0.5" fill="lavender" d="M-246.31638096181058 -89.20853315215365 L-236.02046915285246 -70.71544795735298 L-245.49880940008524 -44.67392215417301 L-255.79472120904336 -63.167007348973684 L-246.31638096181058 -89.20853315215365"/>
		<path opacity="0.5" fill="lavender" d="M-264.3024353054264 -90.43403270274459 L-254.00652349646828 -71.9409475079439 L-263.48486374370106 -45.899421704763945 L-273.7807755526592 -64.39250689956462 L-264.3024353054264 -90.43403270274459"/>
		<path opacity="0.5" fill="lavender" d="M-246.31638096181058 -89.20853315215365 L-264.3024353054264 -90.43403270274459 L-273.7807755526592 -64.39250689956462 L-255.79472120904336 -63.167007348973684 L-246.31638096181058 -89.20853315215365"/>
		<path opacity="0.5" fill="lavender" d="M-236.02046915285246 -70.71544795735298 L-254.00652349646828 -71.9409475079439 L-263.48486374370106 -45.899421704763945 L-245.49880940008524 -44.67392215417301 L-236.02046915285246 -70.71544795735298"/>
		<path opacity="0.5" fill="lavender" d="M-246.31638096181058 -89.20853315215365 L-236.02046915285246 -70.71544795735298 L-254.00652349646828 -71.9409475079439 L-264.3024353054264 -90.43403270274459 L-246.31638096181058 -89.20853315215365"/>
		<path opacity="0.5" fill="lavender" d="M-255.79472120904336 -63.167007348973684 L-245.49880940008524 -44.67392215417301 L-263.48486374370106 -45.899421704763945 L-273.7807755526592 -64.39250689956462 L-255.79472120904336 -63.167007348973684"/>
		<text style="fill:black;font-family:calibri;font-size:6" x="-269.04160542904276" y="-77.4132698011546" >32</text>
		<text style="fill:black;font-family:calibri;font-size:6" x="-268.6328196481801" y="-55.14596430216429" >32</text>
		<text style="fill:black;font-family:calibri;font-size:6" x="-255.3094081336185" y="-89.82128292744912" >20</text>

		<path opacity="0.75" fill="pink" d="M-27.02658709785834 24.234947574760085 L-25.417850877708645 27.124492136447692 L17.316301950758373 20.895393753419036 L-27.02658709785834 24.234947574760085"/>
		<path opacity="0.75" fill="pink" d="M-27.02658709785834 24.234947574760085 L-28.507577761488477 28.303935981506953 L17.316301950758373 20.895393753419036 L-27.02658709785834 24.234947574760085"/>
		<path opacity="0.75" fill="pink" d="M-25.417850877708645 27.124492136447692 L-26.898841541338754 31.19348054319456 L17.316301950758373 20.895393753419036 L-25.417850877708645 27.124492136447692"/>
		<path opacity="0.75" fill="pink" d="M-28.507577761488477 28.303935981506953 L-26.898841541338754 31.19348054319456 L17.316301950758373 20.895393753419036 L-28.507577761488477 28.303935981506953"/>

		<text style="fill:black;font-family:calibri;font-size:6" x="-11.709378674936204" y="18.06517066408956" >[5,5]</text>
		<path opacity="0.75" fill="darkturquoise" d="M-27.02658709785834 24.234947574760085 L-25.417850877708645 27.124492136447692 L-26.898841541338754 31.19348054319456 L-28.507577761488477 28.303935981506953 L-27.02658709785834 24.234947574760085"/>
		<path opacity="0.75" fill="darkturquoise" d="M-84.58196099742895 20.313349012869097 L-82.97322477727926 23.202893574556704 L-84.45421544090937 27.271881981303572 L-86.06295166105906 24.382337419615965 L-84.58196099742895 20.313349012869097"/>
		<path opacity="0.75" fill="darkturquoise" d="M-27.02658709785834 24.234947574760085 L-84.58196099742895 20.313349012869097 L-86.06295166105906 24.382337419615965 L-28.507577761488477 28.303935981506953 L-27.02658709785834 24.234947574760085"/>
		<path opacity="0.75" fill="darkturquoise" d="M-25.417850877708645 27.124492136447692 L-82.97322477727926 23.202893574556704 L-84.45421544090937 27.271881981303572 L-26.898841541338754 31.19348054319456 L-25.417850877708645 27.124492136447692"/>
		<path opacity="0.75" fill="darkturquoise" d="M-27.02658709785834 24.234947574760085 L-25.417850877708645 27.124492136447692 L-82.97322477727926 23.202893574556704 L-84.58196099742895 20.313349012869097 L-27.02658709785834 24.234947574760085"/>
		<path opacity="0.75" fill="darkturquoise" d="M-28.507577761488477 28.303935981506953 L-26.898841541338754 31.19348054319456 L-84.45421544090937 27.271881981303572 L-86.06295166105906 24.382337419615965 L-28.507577761488477 28.303935981506953"/>
		<path opacity="0.5" fill="orange" d="M-27.378019291991848 10.21899162168545 L-22.230063387512786 19.465534219085797 L-26.969233511129175 32.48629712067577 L-32.11718941560824 23.23975452327543 L-27.378019291991848 10.21899162168545"/>
		<path opacity="0.5" fill="orange" d="M-84.93339319156246 6.297393059794462 L-79.78543728708337 15.543935657194808 L-84.52460741069979 28.564698558784784 L-89.67256331517888 19.31815596138444 L-84.93339319156246 6.297393059794462"/>
		<path opacity="0.5" fill="orange" d="M-27.378019291991848 10.21899162168545 L-84.93339319156246 6.297393059794462 L-89.67256331517888 19.31815596138444 L-32.11718941560824 23.23975452327543 L-27.378019291991848 10.21899162168545"/>
		<path opacity="0.5" fill="orange" d="M-22.230063387512786 19.465534219085797 L-79.78543728708337 15.543935657194808 L-84.52460741069979 28.564698558784784 L-26.969233511129175 32.48629712067577 L-22.230063387512786 19.465534219085797"/>
		<path opacity="0.5" fill="orange" d="M-27.378019291991848 10.21899162168545 L-22.230063387512786 19.465534219085797 L-79.78543728708337 15.543935657194808 L-84.93339319156246 6.297393059794462 L-27.378019291991848 10.21899162168545"/>
		<path opacity="0.5" fill="orange" d="M-32.11718941560824 23.23975452327543 L-26.969233511129175 32.48629712067577 L-84.52460741069979 28.564698558784784 L-89.67256331517888 19.31815596138444 L-32.11718941560824 23.23975452327543"/>
		<text style="fill:black;font-family:calibri;font-size:6" x="-87.30297825337067" y="12.807774510589452" >16</text>
		<text style="fill:black;font-family:calibri;font-size:6" x="-87.09858536293933" y="23.941427260084613" >16</text>
		<text style="fill:black;font-family:calibri;font-size:6" x="-56.15570624177715" y="8.258192340739956" >64</text>

		<path opacity="0.75" fill="pink" d="M-127.90063396350695 -2.2747817910021304 L-126.29189774335725 0.6147627706854699 L-86.14749709173879 17.156373598070488 L-127.90063396350695 -2.2747817910021304"/>
		<path opacity="0.75" fill="pink" d="M-127.90063396350695 -2.2747817910021304 L-129.38162462713706 1.7942066157447378 L-86.14749709173879 17.156373598070488 L-127.90063396350695 -2.2747817910021304"/>
		<path opacity="0.75" fill="pink" d="M-126.29189774335725 0.6147627706854699 L-127.77288840698736 4.683751177432338 L-86.14749709173879 17.156373598070488 L-126.29189774335725 0.6147627706854699"/>
		<path opacity="0.75" fill="pink" d="M-129.38162462713706 1.7942066157447378 L-127.77288840698736 4.683751177432338 L-86.14749709173879 17.156373598070488 L-129.38162462713706 1.7942066157447378"/>

		<text style="fill:black;font-family:calibri;font-size:6" x="-113.446676266201" y="2.9407959035341786" >[5,5]</text>
		<path opacity="0.75" fill="darkturquoise" d="M-127.90063396350695 -2.2747817910021304 L-126.29189774335725 0.6147627706854699 L-127.77288840698736 4.683751177432338 L-129.38162462713706 1.7942066157447378 L-127.90063396350695 -2.2747817910021304"/>
		<path opacity="0.75" fill="darkturquoise" d="M-156.67832091329228 -4.235581071947625 L-155.0695846931426 -1.3460365102600242 L-156.5505753567727 2.722951896486844 L-158.1593115769224 -0.16659266520075633 L-156.67832091329228 -4.235581071947625"/>
		<path opacity="0.75" fill="darkturquoise" d="M-127.90063396350695 -2.2747817910021304 L-156.67832091329228 -4.235581071947625 L-158.1593115769224 -0.16659266520075633 L-129.38162462713706 1.7942066157447378 L-127.90063396350695 -2.2747817910021304"/>
		<path opacity="0.75" fill="darkturquoise" d="M-126.29189774335725 0.6147627706854699 L-155.0695846931426 -1.3460365102600242 L-156.5505753567727 2.722951896486844 L-127.77288840698736 4.683751177432338 L-126.29189774335725 0.6147627706854699"/>
		<path opacity="0.75" fill="darkturquoise" d="M-127.90063396350695 -2.2747817910021304 L-126.29189774335725 0.6147627706854699 L-155.0695846931426 -1.3460365102600242 L-156.67832091329228 -4.235581071947625 L-127.90063396350695 -2.2747817910021304"/>
		<path opacity="0.75" fill="darkturquoise" d="M-129.38162462713706 1.7942066157447378 L-127.77288840698736 4.683751177432338 L-156.5505753567727 2.722951896486844 L-158.1593115769224 -0.16659266520075633 L-129.38162462713706 1.7942066157447378"/>
		<path opacity="0.5" fill="orange" d="M-130.10292194103334 -7.900008566178025 L-119.80701013207522 10.59307662862265 L-129.285350379308 36.63460243180262 L-139.58126218826612 18.14151723700194 L-130.10292194103334 -7.900008566178025"/>
		<path opacity="0.5" fill="orange" d="M-158.88060889081868 -9.86080784712352 L-148.58469708186055 8.632277347677157 L-158.06303732909333 34.673803150857125 L-168.35894913805146 16.180717956056444 L-158.88060889081868 -9.86080784712352"/>
		<path opacity="0.5" fill="orange" d="M-130.10292194103334 -7.900008566178025 L-158.88060889081868 -9.86080784712352 L-168.35894913805146 16.180717956056444 L-139.58126218826612 18.14151723700194 L-130.10292194103334 -7.900008566178025"/>
		<path opacity="0.5" fill="orange" d="M-119.80701013207522 10.59307662862265 L-148.58469708186055 8.632277347677157 L-158.06303732909333 34.673803150857125 L-129.285350379308 36.63460243180262 L-119.80701013207522 10.59307662862265"/>
		<path opacity="0.5" fill="orange" d="M-130.10292194103334 -7.900008566178025 L-119.80701013207522 10.59307662862265 L-148.58469708186055 8.632277347677157 L-158.88060889081868 -9.86080784712352 L-130.10292194103334 -7.900008566178025"/>
		<path opacity="0.5" fill="orange" d="M-139.58126218826612 18.14151723700194 L-129.285350379308 36.63460243180262 L-158.06303732909333 34.673803150857125 L-168.35894913805146 16.180717956056444 L-139.58126218826612 18.14151723700194"/>
		<text style="fill:black;font-family:calibri;font-size:6" x="-163.61977901443507" y="3.1599550544664625" >32</text>
		<text style="fill:black;font-family:calibri;font-size:6" x="-163.2109932335724" y="25.427260553456783" >32</text>
		<text style="fill:black;font-family:calibri;font-size:6" x="-144.491765415926" y="-8.880408206650772" >32</text>

		<path opacity="0.5" fill="orange" d="M117.71532312378639 99.05514186335414 L120.28930107602592 103.67841316205431 L117.91971601421773 110.1887946128493 L115.34573806197818 105.56552331414913 L117.71532312378639 99.05514186335414"/>
		<path opacity="0.5" fill="orange" d="M60.15994922421578 95.13354330146316 L62.733927176455325 99.75681460016332 L60.364342114647116 106.26719605095832 L57.79036416240757 101.64392475225816 L60.15994922421578 95.13354330146316"/>
		<path opacity="0.5" fill="orange" d="M117.71532312378639 99.05514186335414 L60.15994922421578 95.13354330146316 L57.79036416240757 101.64392475225816 L115.34573806197818 105.56552331414913 L117.71532312378639 99.05514186335414"/>
		<path opacity="0.5" fill="orange" d="M120.28930107602592 103.67841316205431 L62.733927176455325 99.75681460016332 L60.364342114647116 106.26719605095832 L117.91971601421773 110.1887946128493 L120.28930107602592 103.67841316205431"/>
		<path opacity="0.5" fill="orange" d="M117.71532312378639 99.05514186335414 L120.28930107602592 103.67841316205431 L62.733927176455325 99.75681460016332 L60.15994922421578 95.13354330146316 L117.71532312378639 99.05514186335414"/>
		<path opacity="0.5" fill="orange" d="M115.34573806197818 105.56552331414913 L117.91971601421773 110.1887946128493 L60.364342114647116 106.26719605095832 L57.79036416240757 101.64392475225816 L115.34573806197818 105.56552331414913"/>
		<text style="fill:black;font-family:calibri;font-size:6" x="58.975156693311675" y="98.38873402686066" >8</text>
		<text style="fill:black;font-family:calibri;font-size:6" x="59.07735313852734" y="103.95556040160824" >8</text>
		<text style="fill:black;font-family:calibri;font-size:6" x="88.93763617400109" y="97.09434258240864" >64</text>

		<path opacity="0.75" fill="pink" d="M-204.9897511426061 4.517960198536247 L-201.77227870230672 10.297049321911462 L-158.79332333785868 -2.492961310801828 L-204.9897511426061 4.517960198536247"/>
		<path opacity="0.75" fill="pink" d="M-204.9897511426061 4.517960198536247 L-207.95173246986639 12.655937012029984 L-158.79332333785868 -2.492961310801828 L-204.9897511426061 4.517960198536247"/>
		<path opacity="0.75" fill="pink" d="M-201.77227870230672 10.297049321911462 L-204.73426002956694 18.4350261354052 L-158.79332333785868 -2.492961310801828 L-201.77227870230672 10.297049321911462"/>
		<path opacity="0.75" fill="pink" d="M-207.95173246986639 12.655937012029984 L-204.73426002956694 18.4350261354052 L-158.79332333785868 -2.492961310801828 L-207.95173246986639 12.655937012029984"/>

		<text style="fill:black;font-family:calibri;font-size:6" x="-188.51845106092387" y="-3.4875005561327903" >[10,10]</text>
		<path opacity="0.75" fill="darkturquoise" d="M-204.9897511426061 4.517960198536247 L-201.77227870230672 10.297049321911462 L-204.73426002956694 18.4350261354052 L-207.95173246986639 12.655937012029984 L-204.9897511426061 4.517960198536247"/>
		<path opacity="0.75" fill="darkturquoise" d="M-222.97580548622193 3.2924606479453153 L-219.75833304592254 9.07154977132053 L-222.72031437318276 17.209526584814267 L-225.9377868134822 11.430437461439052 L-222.97580548622193 3.2924606479453153"/>
		<path opacity="0.75" fill="darkturquoise" d="M-204.9897511426061 4.517960198536247 L-222.97580548622193 3.2924606479453153 L-225.9377868134822 11.430437461439052 L-207.95173246986639 12.655937012029984 L-204.9897511426061 4.517960198536247"/>
		<path opacity="0.75" fill="darkturquoise" d="M-201.77227870230672 10.297049321911462 L-219.75833304592254 9.07154977132053 L-222.72031437318276 17.209526584814267 L-204.73426002956694 18.4350261354052 L-201.77227870230672 10.297049321911462"/>
		<path opacity="0.75" fill="darkturquoise" d="M-204.9897511426061 4.517960198536247 L-201.77227870230672 10.297049321911462 L-219.75833304592254 9.07154977132053 L-222.97580548622193 3.2924606479453153 L-204.9897511426061 4.517960198536247"/>
		<path opacity="0.75" fill="darkturquoise" d="M-207.95173246986639 12.655937012029984 L-204.73426002956694 18.4350261354052 L-222.72031437318276 17.209526584814267 L-225.9377868134822 11.430437461439052 L-207.95173246986639 12.655937012029984"/>
		<path opacity="0.5" fill="lavender" d="M-203.84574474985817 -12.924556723600853 L-193.54983294090005 5.568528471199823 L-203.02817318813283 31.610054274379788 L-213.32408499709095 13.11696907957911 L-203.84574474985817 -12.924556723600853"/>
		<path opacity="0.5" fill="lavender" d="M-221.831799093474 -14.150056274191785 L-211.53588728451587 4.343028920608891 L-221.01422753174865 30.384554723788856 L-231.31013934070677 11.891469528988178 L-221.831799093474 -14.150056274191785"/>
		<path opacity="0.5" fill="lavender" d="M-203.84574474985817 -12.924556723600853 L-221.831799093474 -14.150056274191785 L-231.31013934070677 11.891469528988178 L-213.32408499709095 13.11696907957911 L-203.84574474985817 -12.924556723600853"/>
		<path opacity="0.5" fill="lavender" d="M-193.54983294090005 5.568528471199823 L-211.53588728451587 4.343028920608891 L-221.01422753174865 30.384554723788856 L-203.02817318813283 31.610054274379788 L-193.54983294090005 5.568528471199823"/>
		<path opacity="0.5" fill="lavender" d="M-203.84574474985817 -12.924556723600853 L-193.54983294090005 5.568528471199823 L-211.53588728451587 4.343028920608891 L-221.831799093474 -14.150056274191785 L-203.84574474985817 -12.924556723600853"/>
		<path opacity="0.5" fill="lavender" d="M-213.32408499709095 13.11696907957911 L-203.02817318813283 31.610054274379788 L-221.01422753174865 30.384554723788856 L-231.31013934070677 11.891469528988178 L-213.32408499709095 13.11696907957911"/>
		<text style="fill:black;font-family:calibri;font-size:6" x="-226.57096921709038" y="-1.1292933726018033" >32</text>
		<text style="fill:black;font-family:calibri;font-size:6" x="-226.1621834362277" y="21.138012126388517" >32</text>
		<text style="fill:black;font-family:calibri;font-size:6" x="-212.83877192166608" y="-13.537306498896319" >20</text>

		<path opacity="0.75" fill="pink" d="M15.655149669199687 97.36908343025331 L17.26388588934941 100.25862799194093 L58.886926178838735 102.08070448900764 L15.655149669199687 97.36908343025331"/>
		<path opacity="0.75" fill="pink" d="M15.655149669199687 97.36908343025331 L14.174159005569578 101.4380718370002 L58.886926178838735 102.08070448900764 L15.655149669199687 97.36908343025331"/>
		<path opacity="0.75" fill="pink" d="M17.26388588934941 100.25862799194093 L15.782895225719301 104.32761639868781 L58.886926178838735 102.08070448900764 L17.26388588934941 100.25862799194093"/>
		<path opacity="0.75" fill="pink" d="M14.174159005569578 101.4380718370002 L15.782895225719301 104.32761639868781 L58.886926178838735 102.08070448900764 L14.174159005569578 101.4380718370002"/>

		<text style="fill:black;font-family:calibri;font-size:6" x="30.601987245795943" y="95.22489395963048" >[5,5]</text>
		<path opacity="0.75" fill="darkturquoise" d="M15.655149669199687 97.36908343025331 L17.26388588934941 100.25862799194093 L15.782895225719301 104.32761639868781 L14.174159005569578 101.4380718370002 L15.655149669199687 97.36908343025331"/>
		<path opacity="0.75" fill="darkturquoise" d="M-41.900224230370924 93.44748486836232 L-40.2914880102212 96.33702943004994 L-41.77247867385131 100.40601783679682 L-43.38121489400103 97.5164732751092 L-41.900224230370924 93.44748486836232"/>
		<path opacity="0.75" fill="darkturquoise" d="M15.655149669199687 97.36908343025331 L-41.900224230370924 93.44748486836232 L-43.38121489400103 97.5164732751092 L14.174159005569578 101.4380718370002 L15.655149669199687 97.36908343025331"/>
		<path opacity="0.75" fill="darkturquoise" d="M17.26388588934941 100.25862799194093 L-40.2914880102212 96.33702943004994 L-41.77247867385131 100.40601783679682 L15.782895225719301 104.32761639868781 L17.26388588934941 100.25862799194093"/>
		<path opacity="0.75" fill="darkturquoise" d="M15.655149669199687 97.36908343025331 L17.26388588934941 100.25862799194093 L-40.2914880102212 96.33702943004994 L-41.900224230370924 93.44748486836232 L15.655149669199687 97.36908343025331"/>
		<path opacity="0.75" fill="darkturquoise" d="M14.174159005569578 101.4380718370002 L15.782895225719301 104.32761639868781 L-41.77247867385131 100.40601783679682 L-43.38121489400103 97.5164732751092 L14.174159005569578 101.4380718370002"/>
		<path opacity="0.5" fill="orange" d="M15.092616919960534 86.50296805023825 L20.240572824439624 95.74951064763857 L15.501402700823235 108.77027354922856 L10.353446796344173 99.52373095182824 L15.092616919960534 86.50296805023825"/>
		<path opacity="0.5" fill="orange" d="M-42.46275697961008 82.58136948834726 L-37.31480107513099 91.82791208574758 L-42.05397119874738 104.84867498733757 L-47.20192710322644 95.60213238993725 L-42.46275697961008 82.58136948834726"/>
		<path opacity="0.5" fill="orange" d="M15.092616919960534 86.50296805023825 L-42.46275697961008 82.58136948834726 L-47.20192710322644 95.60213238993725 L10.353446796344173 99.52373095182824 L15.092616919960534 86.50296805023825"/>
		<path opacity="0.5" fill="orange" d="M20.240572824439624 95.74951064763857 L-37.31480107513099 91.82791208574758 L-42.05397119874738 104.84867498733757 L15.501402700823235 108.77027354922856 L20.240572824439624 95.74951064763857"/>
		<path opacity="0.5" fill="orange" d="M15.092616919960534 86.50296805023825 L20.240572824439624 95.74951064763857 L-37.31480107513099 91.82791208574758 L-42.46275697961008 82.58136948834726 L15.092616919960534 86.50296805023825"/>
		<path opacity="0.5" fill="orange" d="M10.353446796344173 99.52373095182824 L15.501402700823235 108.77027354922856 L-42.05397119874738 104.84867498733757 L-47.20192710322644 95.60213238993725 L10.353446796344173 99.52373095182824"/>
		<text style="fill:black;font-family:calibri;font-size:6" x="-44.83234204141826" y="89.09175093914226" >16</text>
		<text style="fill:black;font-family:calibri;font-size:6" x="-44.62794915098691" y="100.22540368863741" >16</text>
		<text style="fill:black;font-family:calibri;font-size:6" x="-13.685070029824772" y="84.54216876929276" >64</text>

		<path opacity="0.75" fill="pink" d="M-83.1858700265771 79.75823533603744 L-81.57713380642736 82.64777989772504 L-46.37817843164805 96.67748298506714 L-83.1858700265771 79.75823533603744"/>
		<path opacity="0.75" fill="pink" d="M-83.1858700265771 79.75823533603744 L-84.66686069020722 83.82722374278433 L-46.37817843164805 96.67748298506714 L-83.1858700265771 79.75823533603744"/>
		<path opacity="0.75" fill="pink" d="M-81.57713380642736 82.64777989772504 L-83.05812447005746 86.71676830447191 L-46.37817843164805 96.67748298506714 L-81.57713380642736 82.64777989772504"/>
		<path opacity="0.75" fill="pink" d="M-84.66686069020722 83.82722374278433 L-83.05812447005746 86.71676830447191 L-46.37817843164805 96.67748298506714 L-84.66686069020722 83.82722374278433"/>

		<text style="fill:black;font-family:calibri;font-size:6" x="-70.3803940882175" y="83.7178591605523" >[5,5]</text>
		<path opacity="0.75" fill="darkturquoise" d="M-83.1858700265771 79.75823533603744 L-81.57713380642736 82.64777989772504 L-83.05812447005746 86.71676830447191 L-84.66686069020722 83.82722374278433 L-83.1858700265771 79.75823533603744"/>
		<path opacity="0.75" fill="darkturquoise" d="M-111.96355697636244 77.79743605509195 L-110.35482075621269 80.68698061677955 L-111.8358114198428 84.75596902352642 L-113.44454763999255 81.86642446183883 L-111.96355697636244 77.79743605509195"/>
		<path opacity="0.75" fill="darkturquoise" d="M-83.1858700265771 79.75823533603744 L-111.96355697636244 77.79743605509195 L-113.44454763999255 81.86642446183883 L-84.66686069020722 83.82722374278433 L-83.1858700265771 79.75823533603744"/>
		<path opacity="0.75" fill="darkturquoise" d="M-81.57713380642736 82.64777989772504 L-110.35482075621269 80.68698061677955 L-111.8358114198428 84.75596902352642 L-83.05812447005746 86.71676830447191 L-81.57713380642736 82.64777989772504"/>
		<path opacity="0.75" fill="darkturquoise" d="M-83.1858700265771 79.75823533603744 L-81.57713380642736 82.64777989772504 L-110.35482075621269 80.68698061677955 L-111.96355697636244 77.79743605509195 L-83.1858700265771 79.75823533603744"/>
		<path opacity="0.75" fill="darkturquoise" d="M-84.66686069020722 83.82722374278433 L-83.05812447005746 86.71676830447191 L-111.8358114198428 84.75596902352642 L-113.44454763999255 81.86642446183883 L-84.66686069020722 83.82722374278433"/>
		<path opacity="0.5" fill="orange" d="M-87.63228572908099 68.38396786237477 L-77.33637392012281 86.87705305717546 L-86.81471416735553 112.91857886035541 L-97.11062597631371 94.42549366555473 L-87.63228572908099 68.38396786237477"/>
		<path opacity="0.5" fill="orange" d="M-116.40997267886632 66.42316858142928 L-106.11406086990814 84.91625377622996 L-115.59240111714087 110.95777957940992 L-125.88831292609905 92.46469438460923 L-116.40997267886632 66.42316858142928"/>
		<path opacity="0.5" fill="orange" d="M-87.63228572908099 68.38396786237477 L-116.40997267886632 66.42316858142928 L-125.88831292609905 92.46469438460923 L-97.11062597631371 94.42549366555473 L-87.63228572908099 68.38396786237477"/>
		<path opacity="0.5" fill="orange" d="M-77.33637392012281 86.87705305717546 L-106.11406086990814 84.91625377622996 L-115.59240111714087 110.95777957940992 L-86.81471416735553 112.91857886035541 L-77.33637392012281 86.87705305717546"/>
		<path opacity="0.5" fill="orange" d="M-87.63228572908099 68.38396786237477 L-77.33637392012281 86.87705305717546 L-106.11406086990814 84.91625377622996 L-116.40997267886632 66.42316858142928 L-87.63228572908099 68.38396786237477"/>
		<path opacity="0.5" fill="orange" d="M-97.11062597631371 94.42549366555473 L-86.81471416735553 112.91857886035541 L-115.59240111714087 110.95777957940992 L-125.88831292609905 92.46469438460923 L-97.11062597631371 94.42549366555473"/>
		<text style="fill:black;font-family:calibri;font-size:6" x="-121.14914280248269" y="79.44393148301926" >32</text>
		<text style="fill:black;font-family:calibri;font-size:6" x="-120.74035702161996" y="101.71123698200958" >32</text>
		<text style="fill:black;font-family:calibri;font-size:6" x="-102.02112920397366" y="67.40356822190202" >32</text>

		<path opacity="0.75" fill="darkturquoise" d="M-154.82108854225555 75.65471044404633 L-151.60361610195616 81.43379956742154 L-154.56559742921638 89.57177638091528 L-157.78306986951583 83.79268725754007 L-154.82108854225555 75.65471044404633"/>
		<path opacity="0.75" fill="darkturquoise" d="M-172.80714288587137 74.42921089345539 L-169.58967044557198 80.2083000168306 L-172.5516517728322 88.34627683032434 L-175.76912421313165 82.56718770694913 L-172.80714288587137 74.42921089345539"/>
		<path opacity="0.75" fill="darkturquoise" d="M-154.82108854225555 75.65471044404633 L-172.80714288587137 74.42921089345539 L-175.76912421313165 82.56718770694913 L-157.78306986951583 83.79268725754007 L-154.82108854225555 75.65471044404633"/>
		<path opacity="0.75" fill="darkturquoise" d="M-151.60361610195616 81.43379956742154 L-169.58967044557198 80.2083000168306 L-172.5516517728322 88.34627683032434 L-154.56559742921638 89.57177638091528 L-151.60361610195616 81.43379956742154"/>
		<path opacity="0.75" fill="darkturquoise" d="M-154.82108854225555 75.65471044404633 L-151.60361610195616 81.43379956742154 L-169.58967044557198 80.2083000168306 L-172.80714288587137 74.42921089345539 L-154.82108854225555 75.65471044404633"/>
		<path opacity="0.75" fill="darkturquoise" d="M-157.78306986951583 83.79268725754007 L-154.56559742921638 89.57177638091528 L-172.5516517728322 88.34627683032434 L-175.76912421313165 82.56718770694913 L-157.78306986951583 83.79268725754007"/>
		<path opacity="0.5" fill="lavender" d="M-161.37510853790582 63.35941970495195 L-151.07919672894764 81.85250489975263 L-160.55753697618036 107.89403070293258 L-170.85344878513854 89.4009455081319 L-161.37510853790582 63.35941970495195"/>
		<path opacity="0.5" fill="lavender" d="M-179.36116288152164 62.13392015436101 L-169.06525107256346 80.62700534916169 L-178.54359131979618 106.66853115234164 L-188.83950312875436 88.17544595754096 L-179.36116288152164 62.13392015436101"/>
		<path opacity="0.5" fill="lavender" d="M-161.37510853790582 63.35941970495195 L-179.36116288152164 62.13392015436101 L-188.83950312875436 88.17544595754096 L-170.85344878513854 89.4009455081319 L-161.37510853790582 63.35941970495195"/>
		<path opacity="0.5" fill="lavender" d="M-151.07919672894764 81.85250489975263 L-169.06525107256346 80.62700534916169 L-178.54359131979618 106.66853115234164 L-160.55753697618036 107.89403070293258 L-151.07919672894764 81.85250489975263"/>
		<path opacity="0.5" fill="lavender" d="M-161.37510853790582 63.35941970495195 L-151.07919672894764 81.85250489975263 L-169.06525107256346 80.62700534916169 L-179.36116288152164 62.13392015436101 L-161.37510853790582 63.35941970495195"/>
		<path opacity="0.5" fill="lavender" d="M-170.85344878513854 89.4009455081319 L-160.55753697618036 107.89403070293258 L-178.54359131979618 106.66853115234164 L-188.83950312875436 88.17544595754096 L-170.85344878513854 89.4009455081319"/>
		<text style="fill:black;font-family:calibri;font-size:6" x="-184.100333005138" y="75.15468305595098" >32</text>
		<text style="fill:black;font-family:calibri;font-size:6" x="-183.69154722427527" y="97.4219885549413" >32</text>
		<text style="fill:black;font-family:calibri;font-size:6" x="-170.36813570971373" y="62.74666992965648" >20</text>

		<path opacity="0.75" fill="pink" d="M-154.82108854225555 75.65471044404633 L-151.60361610195616 81.43379956742154 L-107.52003399552268 84.9076962955305 L-154.82108854225555 75.65471044404633"/>
		<path opacity="0.75" fill="pink" d="M-154.82108854225555 75.65471044404633 L-157.78306986951583 83.79268725754007 L-107.52003399552268 84.9076962955305 L-154.82108854225555 75.65471044404633"/>
		<path opacity="0.75" fill="pink" d="M-151.60361610195616 81.43379956742154 L-154.56559742921638 89.57177638091528 L-107.52003399552268 84.9076962955305 L-151.60361610195616 81.43379956742154"/>
		<path opacity="0.75" fill="pink" d="M-157.78306986951583 83.79268725754007 L-154.56559742921638 89.57177638091528 L-107.52003399552268 84.9076962955305 L-157.78306986951583 83.79268725754007"/>

		<text style="fill:black;font-family:calibri;font-size:6" x="-137.98157954657813" y="75.78120336978841" >[10,10]</text>
	 </g>
</svg>