<svg width="100%" height="100%" viewBox="-300.352447854375 -239.06904672938998 1021.95489570875 493.31964481437336" xmlns="http://www.w3.org/2000/svg">
	<g stroke="black" stroke-width="0.3">

		<path opacity="0.5" fill="orange" d="M476.96787517317597 -139.30607966083863 L488.96787517317597 -128.91377481542537 L488.96787517317597 -108.12916512459884 L476.96787517317597 -118.5214699700121 L476.96787517317597 -139.30607966083863"/>
		<path opacity="0.5" fill="orange" d="M421.54224933097186 -123.30607966083863 L433.5422493309719 -112.91377481542537 L433.5422493309719 -92.12916512459884 L421.54224933097186 -102.5214699700121 L421.54224933097186 -123.30607966083863"/>
		<path opacity="0.5" fill="orange" d="M476.96787517317597 -139.30607966083863 L421.54224933097186 -123.30607966083863 L421.54224933097186 -102.5214699700121 L476.96787517317597 -118.5214699700121 L476.96787517317597 -139.30607966083863"/>
		<path opacity="0.5" fill="orange" d="M488.96787517317597 -128.91377481542537 L433.5422493309719 -112.91377481542537 L433.5422493309719 -92.12916512459884 L488.96787517317597 -108.12916512459884 L488.96787517317597 -128.91377481542537"/>
		<path opacity="0.5" fill="orange" d="M476.96787517317597 -139.30607966083863 L488.96787517317597 -128.91377481542537 L433.5422493309719 -112.91377481542537 L421.54224933097186 -123.30607966083863 L476.96787517317597 -139.30607966083863"/>
		<path opacity="0.5" fill="orange" d="M476.96787517317597 -118.5214699700121 L488.96787517317597 -108.12916512459884 L433.5422493309719 -92.12916512459884 L421.54224933097186 -102.5214699700121 L476.96787517317597 -118.5214699700121"/>
		<text style="fill:black;font-family:calibri;font-size:6" x="421.54224933097186" y="-112.91377481542537" >24</text>
		<text style="fill:black;font-family:calibri;font-size:6" x="427.5422493309719" y="-97.32531754730547" >24</text>
		<text style="fill:black;font-family:calibri;font-size:6" x="449.2550622520739" y="-131.30607966083863" >64</text>

<!-- Arrow -->
		<path opacity="0.5" stroke="black" d="M482.96787517317597 -123.71762239271874 L600.5191453623979 -71.91523616172418"/>
		<circle opacity="0.5" cx="600.5191453623979" cy="-71.91523616172418" r="1" fill="black" />
		<path opacity="0.75" fill="darkturquoise" d="M710.602447854375 -193.18284004962914 L715.602447854375 -188.85271303070695 L715.602447854375 -15.647632273819227 L710.602447854375 -19.97775929274141 L710.602447854375 -193.18284004962914"/>
		<path opacity="0.75" fill="darkturquoise" d="M701.9421938165306 -190.68284004962914 L706.9421938165306 -186.35271303070695 L706.9421938165306 -13.147632273819227 L701.9421938165306 -17.47775929274141 L701.9421938165306 -190.68284004962914"/>
		<path opacity="0.75" fill="darkturquoise" d="M710.602447854375 -193.18284004962914 L701.9421938165306 -190.68284004962914 L701.9421938165306 -17.47775929274141 L710.602447854375 -19.97775929274141 L710.602447854375 -193.18284004962914"/>
		<path opacity="0.75" fill="darkturquoise" d="M715.602447854375 -188.85271303070695 L706.9421938165306 -186.35271303070695 L706.9421938165306 -13.147632273819227 L715.602447854375 -15.647632273819227 L715.602447854375 -188.85271303070695"/>
		<path opacity="0.75" fill="darkturquoise" d="M710.602447854375 -193.18284004962914 L715.602447854375 -188.85271303070695 L706.9421938165306 -186.35271303070695 L701.9421938165306 -190.68284004962914 L710.602447854375 -193.18284004962914"/>
		<path opacity="0.75" fill="darkturquoise" d="M710.602447854375 -19.97775929274141 L715.602447854375 -15.647632273819227 L706.9421938165306 -13.147632273819227 L701.9421938165306 -17.47775929274141 L710.602447854375 -19.97775929274141"/>
		<text style="fill:black;font-family:calibri;font-size:6" x="701.9421938165306" y="-104.08029967118527" >200</text>
		<text style="fill:black;font-family:calibri;font-size:6" x="704.4421938165306" y="-15.312695783280319" >10</text>
		<text style="fill:black;font-family:calibri;font-size:6" x="706.2723208354528" y="-191.93284004962914" >10</text>

		<path opacity="0.75" fill="pink" d="M385.6353985982379 -93.41885243967224 L388.1353985982379 -91.25378893021114 L429.7379468520387 -110.94814075398828 L385.6353985982379 -93.41885243967224"/>
		<path opacity="0.75" fill="pink" d="M385.6353985982379 -93.41885243967224 L385.6353985982379 -89.08872542075005 L429.7379468520387 -110.94814075398828 L385.6353985982379 -93.41885243967224"/>
		<path opacity="0.75" fill="pink" d="M388.1353985982379 -91.25378893021114 L388.1353985982379 -86.92366191128895 L429.7379468520387 -110.94814075398828 L388.1353985982379 -91.25378893021114"/>
		<path opacity="0.75" fill="pink" d="M385.6353985982379 -89.08872542075005 L388.1353985982379 -86.92366191128895 L429.7379468520387 -110.94814075398828 L385.6353985982379 -89.08872542075005"/>

		<text style="fill:black;font-family:calibri;font-size:6" x="401.1695813495048" y="-106.68349659683025" >[5,5]</text>
<!-- Arrow -->
		<path opacity="0.5" stroke="black" d="M661.1409236273087 -89.41523616172418 L704.4421938165306 -101.91523616172418"/>
		<circle opacity="0.5" cx="704.4421938165306" cy="-101.91523616172418" r="1" fill="black" />
		<path opacity="0.5" fill="orange" d="M176.58845726811987 -103.9781847254617 L184.5884572681199 -97.04998149518619 L184.5884572681199 -83.19357503463517 L176.58845726811987 -90.12177826491069 L176.58845726811987 -103.9781847254617"/>
		<path opacity="0.5" fill="orange" d="M121.16283142591578 -87.9781847254617 L129.1628314259158 -81.04998149518619 L129.1628314259158 -67.19357503463517 L121.16283142591578 -74.12177826491069 L121.16283142591578 -87.9781847254617"/>
		<path opacity="0.5" fill="orange" d="M176.58845726811987 -103.9781847254617 L121.16283142591578 -87.9781847254617 L121.16283142591578 -74.12177826491069 L176.58845726811987 -90.12177826491069 L176.58845726811987 -103.9781847254617"/>
		<path opacity="0.5" fill="orange" d="M184.5884572681199 -97.04998149518619 L129.1628314259158 -81.04998149518619 L129.1628314259158 -67.19357503463517 L184.5884572681199 -83.19357503463517 L184.5884572681199 -97.04998149518619"/>
		<path opacity="0.5" fill="orange" d="M176.58845726811987 -103.9781847254617 L184.5884572681199 -97.04998149518619 L129.1628314259158 -81.04998149518619 L121.16283142591578 -87.9781847254617 L176.58845726811987 -103.9781847254617"/>
		<path opacity="0.5" fill="orange" d="M176.58845726811987 -90.12177826491069 L184.5884572681199 -83.19357503463517 L129.1628314259158 -67.19357503463517 L121.16283142591578 -74.12177826491069 L176.58845726811987 -90.12177826491069"/>
		<text style="fill:black;font-family:calibri;font-size:6" x="121.16283142591578" y="-81.04998149518619" >16</text>
		<text style="fill:black;font-family:calibri;font-size:6" x="125.1628314259158" y="-70.65767664977292" >16</text>
		<text style="fill:black;font-family:calibri;font-size:6" x="148.87564434701784" y="-95.9781847254617" >64</text>

		<path opacity="0.75" fill="darkturquoise" d="M658.6409236273087 -178.18284004962914 L663.6409236273087 -173.85271303070695 L663.6409236273087 -0.6476322738192266 L658.6409236273087 -4.9777592927414105 L658.6409236273087 -178.18284004962914"/>
		<path opacity="0.75" fill="darkturquoise" d="M649.9806695894642 -175.68284004962914 L654.9806695894642 -171.35271303070695 L654.9806695894642 1.8523677261807734 L649.9806695894642 -2.4777592927414105 L649.9806695894642 -175.68284004962914"/>
		<path opacity="0.75" fill="darkturquoise" d="M658.6409236273087 -178.18284004962914 L649.9806695894642 -175.68284004962914 L649.9806695894642 -2.4777592927414105 L658.6409236273087 -4.9777592927414105 L658.6409236273087 -178.18284004962914"/>
		<path opacity="0.75" fill="darkturquoise" d="M663.6409236273087 -173.85271303070695 L654.9806695894642 -171.35271303070695 L654.9806695894642 1.8523677261807734 L663.6409236273087 -0.6476322738192266 L663.6409236273087 -173.85271303070695"/>
		<path opacity="0.75" fill="darkturquoise" d="M658.6409236273087 -178.18284004962914 L663.6409236273087 -173.85271303070695 L654.9806695894642 -171.35271303070695 L649.9806695894642 -175.68284004962914 L658.6409236273087 -178.18284004962914"/>
		<path opacity="0.75" fill="darkturquoise" d="M658.6409236273087 -4.9777592927414105 L663.6409236273087 -0.6476322738192266 L654.9806695894642 1.8523677261807734 L649.9806695894642 -2.4777592927414105 L658.6409236273087 -4.9777592927414105"/>
		<text style="fill:black;font-family:calibri;font-size:6" x="649.9806695894642" y="-89.08029967118527" >200</text>
		<text style="fill:black;font-family:calibri;font-size:6" x="652.4806695894642" y="-0.31269578328031855" >10</text>
		<text style="fill:black;font-family:calibri;font-size:6" x="654.3107966083865" y="-176.93284004962914" >10</text>

		<path opacity="0.75" fill="darkturquoise" d="M658.6409236273087 -178.18284004962914 L663.6409236273087 -173.85271303070695 L663.6409236273087 -0.6476322738192266 L658.6409236273087 -4.9777592927414105 L658.6409236273087 -178.18284004962914"/>
		<path opacity="0.75" fill="darkturquoise" d="M649.9806695894642 -175.68284004962914 L654.9806695894642 -171.35271303070695 L654.9806695894642 1.8523677261807734 L649.9806695894642 -2.4777592927414105 L649.9806695894642 -175.68284004962914"/>
		<path opacity="0.75" fill="darkturquoise" d="M658.6409236273087 -178.18284004962914 L649.9806695894642 -175.68284004962914 L649.9806695894642 -2.4777592927414105 L658.6409236273087 -4.9777592927414105 L658.6409236273087 -178.18284004962914"/>
		<path opacity="0.75" fill="darkturquoise" d="M663.6409236273087 -173.85271303070695 L654.9806695894642 -171.35271303070695 L654.9806695894642 1.8523677261807734 L663.6409236273087 -0.6476322738192266 L663.6409236273087 -173.85271303070695"/>
		<path opacity="0.75" fill="darkturquoise" d="M658.6409236273087 -178.18284004962914 L663.6409236273087 -173.85271303070695 L654.9806695894642 -171.35271303070695 L649.9806695894642 -175.68284004962914 L658.6409236273087 -178.18284004962914"/>
		<path opacity="0.75" fill="darkturquoise" d="M658.6409236273087 -4.9777592927414105 L663.6409236273087 -0.6476322738192266 L654.9806695894642 1.8523677261807734 L649.9806695894642 -2.4777592927414105 L658.6409236273087 -4.9777592927414105"/>
		<text style="fill:black;font-family:calibri;font-size:6" x="649.9806695894642" y="-89.08029967118527" >200</text>
		<text style="fill:black;font-family:calibri;font-size:6" x="652.4806695894642" y="-0.31269578328031855" >10</text>
		<text style="fill:black;font-family:calibri;font-size:6" x="654.3107966083865" y="-176.93284004962914" >10</text>

<!-- Arrow -->
		<path opacity="0.5" stroke="black" d="M609.1793994002423 -74.41523616172418 L652.4806695894642 -86.91523616172418"/>
		<circle opacity="0.5" cx="652.4806695894642" cy="-86.91523616172418" r="1" fill="black" />
<!-- Arrow -->
		<path opacity="0.5" stroke="black" d="M180.5884572681199 -93.58587988004844 L273.3897274573418 -63.21762239271874"/>
		<circle opacity="0.5" cx="273.3897274573418" cy="-63.21762239271874" r="1" fill="black" />
		<path opacity="0.75" fill="darkturquoise" d="M385.6353985982379 -93.41885243967224 L388.1353985982379 -91.25378893021114 L388.1353985982379 -86.92366191128895 L385.6353985982379 -89.08872542075005 L385.6353985982379 -93.41885243967224"/>
		<path opacity="0.75" fill="darkturquoise" d="M274.7841469138298 -61.418852439672236 L277.2841469138298 -59.253788930211144 L277.2841469138298 -54.923661911288946 L274.7841469138298 -57.088725420750045 L274.7841469138298 -61.418852439672236"/>
		<path opacity="0.75" fill="darkturquoise" d="M385.6353985982379 -93.41885243967224 L274.7841469138298 -61.418852439672236 L274.7841469138298 -57.088725420750045 L385.6353985982379 -89.08872542075005 L385.6353985982379 -93.41885243967224"/>
		<path opacity="0.75" fill="darkturquoise" d="M388.1353985982379 -91.25378893021114 L277.2841469138298 -59.253788930211144 L277.2841469138298 -54.923661911288946 L388.1353985982379 -86.92366191128895 L388.1353985982379 -91.25378893021114"/>
		<path opacity="0.75" fill="darkturquoise" d="M385.6353985982379 -93.41885243967224 L388.1353985982379 -91.25378893021114 L277.2841469138298 -59.253788930211144 L274.7841469138298 -61.418852439672236 L385.6353985982379 -93.41885243967224"/>
		<path opacity="0.75" fill="darkturquoise" d="M385.6353985982379 -89.08872542075005 L388.1353985982379 -86.92366191128895 L277.2841469138298 -54.923661911288946 L274.7841469138298 -57.088725420750045 L385.6353985982379 -89.08872542075005"/>
		<path opacity="0.5" fill="orange" d="M378.24097914174996 -110.80607966083863 L390.24097914174996 -100.41377481542537 L390.24097914174996 -79.62916512459884 L378.24097914174996 -90.0214699700121 L378.24097914174996 -110.80607966083863"/>
		<path opacity="0.5" fill="orange" d="M267.3897274573418 -78.80607966083863 L279.3897274573418 -68.41377481542537 L279.3897274573418 -47.62916512459884 L267.3897274573418 -58.021469970012106 L267.3897274573418 -78.80607966083863"/>
		<path opacity="0.5" fill="orange" d="M378.24097914174996 -110.80607966083863 L267.3897274573418 -78.80607966083863 L267.3897274573418 -58.021469970012106 L378.24097914174996 -90.0214699700121 L378.24097914174996 -110.80607966083863"/>
		<path opacity="0.5" fill="orange" d="M390.24097914174996 -100.41377481542537 L279.3897274573418 -68.41377481542537 L279.3897274573418 -47.62916512459884 L390.24097914174996 -79.62916512459884 L390.24097914174996 -100.41377481542537"/>
		<path opacity="0.5" fill="orange" d="M378.24097914174996 -110.80607966083863 L390.24097914174996 -100.41377481542537 L279.3897274573418 -68.41377481542537 L267.3897274573418 -78.80607966083863 L378.24097914174996 -110.80607966083863"/>
		<path opacity="0.5" fill="orange" d="M378.24097914174996 -90.0214699700121 L390.24097914174996 -79.62916512459884 L279.3897274573418 -47.62916512459884 L267.3897274573418 -58.021469970012106 L378.24097914174996 -90.0214699700121"/>
		<text style="fill:black;font-family:calibri;font-size:6" x="267.3897274573418" y="-68.41377481542537" >24</text>
		<text style="fill:black;font-family:calibri;font-size:6" x="273.3897274573418" y="-52.825317547305474" >24</text>
		<text style="fill:black;font-family:calibri;font-size:6" x="322.8153532995459" y="-94.80607966083863" >128</text>

		<path opacity="0.75" fill="pink" d="M80.29789985562442 -58.178475712935374 L82.79789985562442 -56.01341220347428 L123.9486922520268 -84.42643083020485 L80.29789985562442 -58.178475712935374"/>
		<path opacity="0.75" fill="pink" d="M80.29789985562442 -58.178475712935374 L80.29789985562442 -53.84834869401318 L123.9486922520268 -84.42643083020485 L80.29789985562442 -58.178475712935374"/>
		<path opacity="0.75" fill="pink" d="M82.79789985562442 -56.01341220347428 L82.79789985562442 -51.68328518455209 L123.9486922520268 -84.42643083020485 L82.79789985562442 -56.01341220347428"/>
		<path opacity="0.75" fill="pink" d="M80.29789985562442 -53.84834869401318 L82.79789985562442 -51.68328518455209 L123.9486922520268 -84.42643083020485 L80.29789985562442 -53.84834869401318"/>

		<text style="fill:black;font-family:calibri;font-size:6" x="95.68149732109187" y="-75.80245327157012" >[5,5]</text>
<!-- Arrow -->
		<path opacity="0.5" stroke="black" d="M328.8153532995459 -89.609927238132 L328.8153532995459 -132.91119742735395"/>
		<circle opacity="0.5" cx="328.8153532995459" cy="-132.91119742735395" r="1" fill="black" />
		<path opacity="0.75" fill="darkturquoise" d="M606.6793994002423 -163.18284004962914 L611.6793994002423 -158.85271303070695 L611.6793994002423 14.352367726180773 L606.6793994002423 10.02224070725859 L606.6793994002423 -163.18284004962914"/>
		<path opacity="0.75" fill="darkturquoise" d="M598.0191453623979 -160.68284004962914 L603.0191453623979 -156.35271303070695 L603.0191453623979 16.852367726180773 L598.0191453623979 12.52224070725859 L598.0191453623979 -160.68284004962914"/>
		<path opacity="0.75" fill="darkturquoise" d="M606.6793994002423 -163.18284004962914 L598.0191453623979 -160.68284004962914 L598.0191453623979 12.52224070725859 L606.6793994002423 10.02224070725859 L606.6793994002423 -163.18284004962914"/>
		<path opacity="0.75" fill="darkturquoise" d="M611.6793994002423 -158.85271303070695 L603.0191453623979 -156.35271303070695 L603.0191453623979 16.852367726180773 L611.6793994002423 14.352367726180773 L611.6793994002423 -158.85271303070695"/>
		<path opacity="0.75" fill="darkturquoise" d="M606.6793994002423 -163.18284004962914 L611.6793994002423 -158.85271303070695 L603.0191453623979 -156.35271303070695 L598.0191453623979 -160.68284004962914 L606.6793994002423 -163.18284004962914"/>
		<path opacity="0.75" fill="darkturquoise" d="M606.6793994002423 10.02224070725859 L611.6793994002423 14.352367726180773 L603.0191453623979 16.852367726180773 L598.0191453623979 12.52224070725859 L606.6793994002423 10.02224070725859"/>
		<text style="fill:black;font-family:calibri;font-size:6" x="598.0191453623979" y="-74.08029967118527" >200</text>
		<text style="fill:black;font-family:calibri;font-size:6" x="600.5191453623979" y="14.687304216719681" >10</text>
		<text style="fill:black;font-family:calibri;font-size:6" x="602.3492723813201" y="-161.93284004962914" >10</text>

		<path opacity="0.75" fill="darkturquoise" d="M606.6793994002423 -163.18284004962914 L611.6793994002423 -158.85271303070695 L611.6793994002423 14.352367726180773 L606.6793994002423 10.02224070725859 L606.6793994002423 -163.18284004962914"/>
		<path opacity="0.75" fill="darkturquoise" d="M598.0191453623979 -160.68284004962914 L603.0191453623979 -156.35271303070695 L603.0191453623979 16.852367726180773 L598.0191453623979 12.52224070725859 L598.0191453623979 -160.68284004962914"/>
		<path opacity="0.75" fill="darkturquoise" d="M606.6793994002423 -163.18284004962914 L598.0191453623979 -160.68284004962914 L598.0191453623979 12.52224070725859 L606.6793994002423 10.02224070725859 L606.6793994002423 -163.18284004962914"/>
		<path opacity="0.75" fill="darkturquoise" d="M611.6793994002423 -158.85271303070695 L603.0191453623979 -156.35271303070695 L603.0191453623979 16.852367726180773 L611.6793994002423 14.352367726180773 L611.6793994002423 -158.85271303070695"/>
		<path opacity="0.75" fill="darkturquoise" d="M606.6793994002423 -163.18284004962914 L611.6793994002423 -158.85271303070695 L603.0191453623979 -156.35271303070695 L598.0191453623979 -160.68284004962914 L606.6793994002423 -163.18284004962914"/>
		<path opacity="0.75" fill="darkturquoise" d="M606.6793994002423 10.02224070725859 L611.6793994002423 14.352367726180773 L603.0191453623979 16.852367726180773 L598.0191453623979 12.52224070725859 L606.6793994002423 10.02224070725859"/>
		<text style="fill:black;font-family:calibri;font-size:6" x="598.0191453623979" y="-74.08029967118527" >200</text>
		<text style="fill:black;font-family:calibri;font-size:6" x="600.5191453623979" y="14.687304216719681" >10</text>
		<text style="fill:black;font-family:calibri;font-size:6" x="602.3492723813201" y="-161.93284004962914" >10</text>

<!-- Arrow -->
		<path opacity="0.5" stroke="black" d="M26.435935394489803 -106.2435565298214 L328.8153532995459 -132.91119742735395"/>
		<circle opacity="0.5" cx="328.8153532995459" cy="-132.91119742735395" r="1" fill="black" />
		<path opacity="0.75" fill="darkturquoise" d="M80.29789985562442 -58.178475712935374 L82.79789985562442 -56.01341220347428 L82.79789985562442 -51.68328518455209 L80.29789985562442 -53.84834869401318 L80.29789985562442 -58.178475712935374"/>
		<path opacity="0.75" fill="darkturquoise" d="M-30.55335182878372 -26.178475712935374 L-28.05335182878372 -24.01341220347428 L-28.05335182878372 -19.68328518455209 L-30.55335182878372 -21.848348694013183 L-30.55335182878372 -26.178475712935374"/>
		<path opacity="0.75" fill="darkturquoise" d="M80.29789985562442 -58.178475712935374 L-30.55335182878372 -26.178475712935374 L-30.55335182878372 -21.848348694013183 L80.29789985562442 -53.84834869401318 L80.29789985562442 -58.178475712935374"/>
		<path opacity="0.75" fill="darkturquoise" d="M82.79789985562442 -56.01341220347428 L-28.05335182878372 -24.01341220347428 L-28.05335182878372 -19.68328518455209 L82.79789985562442 -51.68328518455209 L82.79789985562442 -56.01341220347428"/>
		<path opacity="0.75" fill="darkturquoise" d="M80.29789985562442 -58.178475712935374 L82.79789985562442 -56.01341220347428 L-28.05335182878372 -24.01341220347428 L-30.55335182878372 -26.178475712935374 L80.29789985562442 -58.178475712935374"/>
		<path opacity="0.75" fill="darkturquoise" d="M80.29789985562442 -53.84834869401318 L82.79789985562442 -51.68328518455209 L-28.05335182878372 -19.68328518455209 L-30.55335182878372 -21.848348694013183 L80.29789985562442 -53.84834869401318"/>
		<path opacity="0.5" fill="orange" d="M73.86156123669386 -85.87048957087497 L89.86156123669389 -72.01408311032395 L89.86156123669389 -44.30127018922191 L73.86156123669386 -58.157676649772924 L73.86156123669386 -85.87048957087497"/>
		<path opacity="0.5" fill="orange" d="M-36.98969044771428 -53.870489570874966 L-20.98969044771428 -40.01408311032395 L-20.98969044771428 -12.30127018922191 L-36.98969044771428 -26.157676649772924 L-36.98969044771428 -53.870489570874966"/>
		<path opacity="0.5" fill="orange" d="M73.86156123669386 -85.87048957087497 L-36.98969044771428 -53.870489570874966 L-36.98969044771428 -26.157676649772924 L73.86156123669386 -58.157676649772924 L73.86156123669386 -85.87048957087497"/>
		<path opacity="0.5" fill="orange" d="M89.86156123669389 -72.01408311032395 L-20.98969044771428 -40.01408311032395 L-20.98969044771428 -12.30127018922191 L89.86156123669389 -44.30127018922191 L89.86156123669389 -72.01408311032395"/>
		<path opacity="0.5" fill="orange" d="M73.86156123669386 -85.87048957087497 L89.86156123669389 -72.01408311032395 L-20.98969044771428 -40.01408311032395 L-36.98969044771428 -53.870489570874966 L73.86156123669386 -85.87048957087497"/>
		<path opacity="0.5" fill="orange" d="M73.86156123669386 -58.157676649772924 L89.86156123669389 -44.30127018922191 L-20.98969044771428 -12.30127018922191 L-36.98969044771428 -26.157676649772924 L73.86156123669386 -58.157676649772924"/>
		<text style="fill:black;font-family:calibri;font-size:6" x="-36.98969044771428" y="-40.014083110323945" >32</text>
		<text style="fill:black;font-family:calibri;font-size:6" x="-28.98969044771428" y="-19.229473419497417" >32</text>
		<text style="fill:black;font-family:calibri;font-size:6" x="18.43593539448979" y="-69.87048957087497" >128</text>

<!-- Arrow -->
		<path opacity="0.5" stroke="black" d="M-105.29096063693623 -49.164718204934914 L-28.98969044771428 -33.08587988004844"/>
		<circle opacity="0.5" cx="-28.98969044771428" cy="-33.08587988004844" r="1" fill="black" />
		<path opacity="0.5" fill="orange" d="M-109.29096063693623 -59.55702305034818 L-101.29096063693623 -52.628819820072664 L-101.29096063693623 -38.77241335952165 L-109.29096063693623 -45.700616589797164 L-109.29096063693623 -59.55702305034818"/>
		<path opacity="0.5" fill="orange" d="M-164.71658647914023 -43.55702305034818 L-156.71658647914023 -36.628819820072664 L-156.71658647914023 -22.77241335952165 L-164.71658647914023 -29.700616589797164 L-164.71658647914023 -43.55702305034818"/>
		<path opacity="0.5" fill="orange" d="M-109.29096063693623 -59.55702305034818 L-164.71658647914023 -43.55702305034818 L-164.71658647914023 -29.700616589797164 L-109.29096063693623 -45.700616589797164 L-109.29096063693623 -59.55702305034818"/>
		<path opacity="0.5" fill="orange" d="M-101.29096063693623 -52.628819820072664 L-156.71658647914023 -36.628819820072664 L-156.71658647914023 -22.77241335952165 L-101.29096063693623 -38.77241335952165 L-101.29096063693623 -52.628819820072664"/>
		<path opacity="0.5" fill="orange" d="M-109.29096063693623 -59.55702305034818 L-101.29096063693623 -52.628819820072664 L-156.71658647914023 -36.628819820072664 L-164.71658647914023 -43.55702305034818 L-109.29096063693623 -59.55702305034818"/>
		<path opacity="0.5" fill="orange" d="M-109.29096063693623 -45.700616589797164 L-101.29096063693623 -38.77241335952165 L-156.71658647914023 -22.77241335952165 L-164.71658647914023 -29.700616589797164 L-109.29096063693623 -45.700616589797164"/>
		<text style="fill:black;font-family:calibri;font-size:6" x="-164.71658647914023" y="-36.62881982007267" >16</text>
		<text style="fill:black;font-family:calibri;font-size:6" x="-160.71658647914023" y="-26.236514974659407" >16</text>
		<text style="fill:black;font-family:calibri;font-size:6" x="-137.00377355803823" y="-51.55702305034818" >64</text>

<!-- Arrow -->
		<path opacity="0.5" stroke="black" d="M26.435935394489803 -62.942286340599466 L26.435935394489803 -106.2435565298214"/>
		<circle opacity="0.5" cx="26.435935394489803" cy="-106.2435565298214" r="1" fill="black" />
<!-- Arrow -->
		<path opacity="0.5" stroke="black" d="M-39.29096063693618 7.992958444838026 L600.5191453623979 -71.91523616172418"/>
		<circle opacity="0.5" cx="600.5191453623979" cy="-71.91523616172418" r="1" fill="black" />
<!-- Arrow -->
		<path opacity="0.5" stroke="black" d="M-39.29096063693618 7.992958444838026 L273.3897274573418 -63.21762239271874"/>
		<circle opacity="0.5" cx="273.3897274573418" cy="-63.21762239271874" r="1" fill="black" />
		<path opacity="0.75" fill="pink" d="M-203.55108357405896 -14.588059979612183 L-201.05108357405896 -12.422996470151105 L-161.03489657662112 -34.44118512347006 L-203.55108357405896 -14.588059979612183"/>
		<path opacity="0.75" fill="pink" d="M-203.55108357405896 -14.588059979612183 L-203.55108357405896 -10.257932960689999 L-161.03489657662112 -34.44118512347006 L-203.55108357405896 -14.588059979612183"/>
		<path opacity="0.75" fill="pink" d="M-201.05108357405896 -12.422996470151105 L-201.05108357405896 -8.092869451228907 L-161.03489657662112 -34.44118512347006 L-201.05108357405896 -12.422996470151105"/>
		<path opacity="0.75" fill="pink" d="M-203.55108357405896 -10.257932960689999 L-201.05108357405896 -8.092869451228907 L-161.03489657662112 -34.44118512347006 L-203.55108357405896 -10.257932960689999"/>

		<text style="fill:black;font-family:calibri;font-size:6" x="-188.54568790824635" y="-29.014622551541123" >[5,5]</text>
<!-- Arrow -->
		<path opacity="0.5" stroke="black" d="M125.43593539448983 36.65063509461097 L600.5191453623979 -71.91523616172418"/>
		<circle opacity="0.5" cx="600.5191453623979" cy="-71.91523616172418" r="1" fill="black" />
		<path opacity="0.75" fill="darkturquoise" d="M-203.55108357405896 -14.588059979612183 L-201.05108357405896 -12.422996470151105 L-201.05108357405896 -8.092869451228907 L-203.55108357405896 -10.257932960689999 L-203.55108357405896 -14.588059979612183"/>
		<path opacity="0.75" fill="darkturquoise" d="M-231.26389649516096 -6.588059979612183 L-228.76389649516096 -4.422996470151105 L-228.76389649516096 -0.092869451228907 L-231.26389649516096 -2.257932960689999 L-231.26389649516096 -6.588059979612183"/>
		<path opacity="0.75" fill="darkturquoise" d="M-203.55108357405896 -14.588059979612183 L-231.26389649516096 -6.588059979612183 L-231.26389649516096 -2.257932960689999 L-203.55108357405896 -10.257932960689999 L-203.55108357405896 -14.588059979612183"/>
		<path opacity="0.75" fill="darkturquoise" d="M-201.05108357405896 -12.422996470151105 L-228.76389649516096 -4.422996470151105 L-228.76389649516096 -0.092869451228907 L-201.05108357405896 -8.092869451228907 L-201.05108357405896 -12.422996470151105"/>
		<path opacity="0.75" fill="darkturquoise" d="M-203.55108357405896 -14.588059979612183 L-201.05108357405896 -12.422996470151105 L-228.76389649516096 -4.422996470151105 L-231.26389649516096 -6.588059979612183 L-203.55108357405896 -14.588059979612183"/>
		<path opacity="0.75" fill="darkturquoise" d="M-203.55108357405896 -10.257932960689999 L-201.05108357405896 -8.092869451228907 L-228.76389649516096 -0.092869451228907 L-231.26389649516096 -2.257932960689999 L-203.55108357405896 -10.257932960689999"/>
		<path opacity="0.5" fill="orange" d="M-212.01785666836224 -41.44932789576144 L-196.01785666836224 -27.592921435210428 L-196.01785666836224 0.11989148589161402 L-212.01785666836224 -13.7365149746594 L-212.01785666836224 -41.44932789576144"/>
		<path opacity="0.5" fill="orange" d="M-239.73066958946424 -33.44932789576144 L-223.73066958946424 -19.592921435210428 L-223.73066958946424 8.119891485891614 L-239.73066958946424 -5.7365149746594 L-239.73066958946424 -33.44932789576144"/>
		<path opacity="0.5" fill="orange" d="M-212.01785666836224 -41.44932789576144 L-239.73066958946424 -33.44932789576144 L-239.73066958946424 -5.7365149746594 L-212.01785666836224 -13.7365149746594 L-212.01785666836224 -41.44932789576144"/>
		<path opacity="0.5" fill="orange" d="M-196.01785666836224 -27.592921435210428 L-223.73066958946424 -19.592921435210428 L-223.73066958946424 8.119891485891614 L-196.01785666836224 0.11989148589161402 L-196.01785666836224 -27.592921435210428"/>
		<path opacity="0.5" fill="orange" d="M-212.01785666836224 -41.44932789576144 L-196.01785666836224 -27.592921435210428 L-223.73066958946424 -19.592921435210428 L-239.73066958946424 -33.44932789576144 L-212.01785666836224 -41.44932789576144"/>
		<path opacity="0.5" fill="orange" d="M-212.01785666836224 -13.7365149746594 L-196.01785666836224 0.11989148589161402 L-223.73066958946424 8.119891485891614 L-239.73066958946424 -5.7365149746594 L-212.01785666836224 -13.7365149746594"/>
		<text style="fill:black;font-family:calibri;font-size:6" x="-239.73066958946424" y="-19.59292143521042" >32</text>
		<text style="fill:black;font-family:calibri;font-size:6" x="-231.73066958946424" y="1.191688255616107" >32</text>
		<text style="fill:black;font-family:calibri;font-size:6" x="-225.87426312891324" y="-37.44932789576144" >32</text>

<!-- Arrow -->
		<path opacity="0.5" stroke="black" d="M125.43593539448983 36.65063509461097 L273.3897274573418 -63.21762239271874"/>
		<circle opacity="0.5" cx="273.3897274573418" cy="-63.21762239271874" r="1" fill="black" />
<!-- Arrow -->
		<path opacity="0.5" stroke="black" d="M-39.29096063693618 7.992958444838026 L-28.98969044771428 -33.08587988004844"/>
		<circle opacity="0.5" cx="-28.98969044771428" cy="-33.08587988004844" r="1" fill="black" />
<!-- Arrow -->
		<path opacity="0.5" stroke="black" d="M477.3153532995459 49.387150069270376 L600.5191453623979 -71.91523616172418"/>
		<circle opacity="0.5" cx="600.5191453623979" cy="-71.91523616172418" r="1" fill="black" />
		<path opacity="0.75" fill="pink" d="M-279.8156887753705 -5.981327232898707 L-274.8156887753705 -1.651200213976523 L-224.1412834121423 0.2525744077615002 L-279.8156887753705 -5.981327232898707"/>
		<path opacity="0.75" fill="pink" d="M-279.8156887753705 -5.981327232898707 L-279.8156887753705 2.6789268049456894 L-224.1412834121423 0.2525744077615002 L-279.8156887753705 -5.981327232898707"/>
		<path opacity="0.75" fill="pink" d="M-274.8156887753705 -1.651200213976523 L-274.8156887753705 7.009053823867873 L-224.1412834121423 0.2525744077615002 L-274.8156887753705 -1.651200213976523"/>
		<path opacity="0.75" fill="pink" d="M-279.8156887753705 2.6789268049456894 L-274.8156887753705 7.009053823867873 L-224.1412834121423 0.2525744077615002 L-279.8156887753705 2.6789268049456894"/>

		<text style="fill:black;font-family:calibri;font-size:6" x="-259.59088698762775" y="-7.364376412568603" >[10,10]</text>
		<path opacity="0.75" fill="darkturquoise" d="M-279.8156887753705 -5.981327232898707 L-274.8156887753705 -1.651200213976523 L-274.8156887753705 7.009053823867873 L-279.8156887753705 2.6789268049456894 L-279.8156887753705 -5.981327232898707"/>
		<path opacity="0.75" fill="darkturquoise" d="M-297.13619685105937 -0.9813272328987068 L-292.13619685105937 3.348799786023477 L-292.13619685105937 12.009053823867873 L-297.13619685105937 7.678926804945689 L-297.13619685105937 -0.9813272328987068"/>
		<path opacity="0.75" fill="darkturquoise" d="M-279.8156887753705 -5.981327232898707 L-297.13619685105937 -0.9813272328987068 L-297.13619685105937 7.678926804945689 L-279.8156887753705 2.6789268049456894 L-279.8156887753705 -5.981327232898707"/>
		<path opacity="0.75" fill="darkturquoise" d="M-274.8156887753705 -1.651200213976523 L-292.13619685105937 3.348799786023477 L-292.13619685105937 12.009053823867873 L-274.8156887753705 7.009053823867873 L-274.8156887753705 -1.651200213976523"/>
		<path opacity="0.75" fill="darkturquoise" d="M-279.8156887753705 -5.981327232898707 L-274.8156887753705 -1.651200213976523 L-292.13619685105937 3.348799786023477 L-297.13619685105937 -0.9813272328987068 L-279.8156887753705 -5.981327232898707"/>
		<path opacity="0.75" fill="darkturquoise" d="M-279.8156887753705 2.6789268049456894 L-274.8156887753705 7.009053823867873 L-292.13619685105937 12.009053823867873 L-297.13619685105937 7.678926804945689 L-279.8156887753705 2.6789268049456894"/>
		<path opacity="0.5" fill="lavender" d="M-283.03193977868614 -20.949327895761442 L-267.03193977868614 -7.092921435210428 L-267.03193977868614 20.619891485891614 L-283.03193977868614 6.7634850253406 L-283.03193977868614 -20.949327895761442"/>
		<path opacity="0.5" fill="lavender" d="M-300.352447854375 -15.949327895761442 L-284.352447854375 -2.092921435210428 L-284.352447854375 25.619891485891614 L-300.352447854375 11.7634850253406 L-300.352447854375 -15.949327895761442"/>
		<path opacity="0.5" fill="lavender" d="M-283.03193977868614 -20.949327895761442 L-300.352447854375 -15.949327895761442 L-300.352447854375 11.7634850253406 L-283.03193977868614 6.7634850253406 L-283.03193977868614 -20.949327895761442"/>
		<path opacity="0.5" fill="lavender" d="M-267.03193977868614 -7.092921435210428 L-284.352447854375 -2.092921435210428 L-284.352447854375 25.619891485891614 L-267.03193977868614 20.619891485891614 L-267.03193977868614 -7.092921435210428"/>
		<path opacity="0.5" fill="lavender" d="M-283.03193977868614 -20.949327895761442 L-267.03193977868614 -7.092921435210428 L-284.352447854375 -2.092921435210428 L-300.352447854375 -15.949327895761442 L-283.03193977868614 -20.949327895761442"/>
		<path opacity="0.5" fill="lavender" d="M-283.03193977868614 6.7634850253406 L-267.03193977868614 20.619891485891614 L-284.352447854375 25.619891485891614 L-300.352447854375 11.7634850253406 L-283.03193977868614 6.7634850253406"/>
		<text style="fill:black;font-family:calibri;font-size:6" x="-300.352447854375" y="-2.092921435210421" >32</text>
		<text style="fill:black;font-family:calibri;font-size:6" x="-292.352447854375" y="18.691688255616107" >32</text>
		<text style="fill:black;font-family:calibri;font-size:6" x="-291.69219381653056" y="-18.449327895761442" >20</text>

		<path opacity="0.5" fill="orange" d="M-43.29096063693618 -2.39934640057524 L-35.29096063693618 4.528856829700274 L-35.29096063693618 18.385263290251288 L-43.29096063693618 11.457060059975781 L-43.29096063693618 -2.39934640057524"/>
		<path opacity="0.5" fill="orange" d="M-98.71658647914023 13.60065359942476 L-90.71658647914023 20.528856829700274 L-90.71658647914023 34.38526329025129 L-98.71658647914023 27.45706005997578 L-98.71658647914023 13.60065359942476"/>
		<path opacity="0.5" fill="orange" d="M-43.29096063693618 -2.39934640057524 L-98.71658647914023 13.60065359942476 L-98.71658647914023 27.45706005997578 L-43.29096063693618 11.457060059975781 L-43.29096063693618 -2.39934640057524"/>
		<path opacity="0.5" fill="orange" d="M-35.29096063693618 4.528856829700274 L-90.71658647914023 20.528856829700274 L-90.71658647914023 34.38526329025129 L-35.29096063693618 18.385263290251288 L-35.29096063693618 4.528856829700274"/>
		<path opacity="0.5" fill="orange" d="M-43.29096063693618 -2.39934640057524 L-35.29096063693618 4.528856829700274 L-90.71658647914023 20.528856829700274 L-98.71658647914023 13.60065359942476 L-43.29096063693618 -2.39934640057524"/>
		<path opacity="0.5" fill="orange" d="M-43.29096063693618 11.457060059975781 L-35.29096063693618 18.385263290251288 L-90.71658647914023 34.38526329025129 L-98.71658647914023 27.45706005997578 L-43.29096063693618 11.457060059975781"/>
		<text style="fill:black;font-family:calibri;font-size:6" x="-98.71658647914023" y="20.52885682970027" >16</text>
		<text style="fill:black;font-family:calibri;font-size:6" x="-94.71658647914023" y="30.921161675113535" >16</text>
		<text style="fill:black;font-family:calibri;font-size:6" x="-71.0037735580382" y="5.60065359942476" >64</text>

		<path opacity="0.75" fill="pink" d="M-144.50802559996418 23.354794153567234 L-142.00802559996418 25.519857663028333 L-97.97221866416737 15.624793090690758 L-144.50802559996418 23.354794153567234"/>
		<path opacity="0.75" fill="pink" d="M-144.50802559996418 23.354794153567234 L-144.50802559996418 27.684921172489425 L-97.97221866416737 15.624793090690758 L-144.50802559996418 23.354794153567234"/>
		<path opacity="0.75" fill="pink" d="M-142.00802559996418 25.519857663028333 L-142.00802559996418 29.849984681950524 L-97.97221866416737 15.624793090690758 L-142.00802559996418 25.519857663028333"/>
		<path opacity="0.75" fill="pink" d="M-144.50802559996418 27.684921172489425 L-142.00802559996418 29.849984681950524 L-97.97221866416737 15.624793090690758 L-144.50802559996418 27.684921172489425"/>

		<text style="fill:black;font-family:calibri;font-size:6" x="-128.16275662136525" y="14.989793622128996" >[5,5]</text>
		<path opacity="0.75" fill="darkturquoise" d="M-144.50802559996418 23.354794153567234 L-142.00802559996418 25.519857663028333 L-142.00802559996418 29.849984681950524 L-144.50802559996418 27.684921172489425 L-144.50802559996418 23.354794153567234"/>
		<path opacity="0.75" fill="darkturquoise" d="M-172.22083852106618 31.354794153567234 L-169.72083852106618 33.51985766302833 L-169.72083852106618 37.849984681950524 L-172.22083852106618 35.684921172489425 L-172.22083852106618 31.354794153567234"/>
		<path opacity="0.75" fill="darkturquoise" d="M-144.50802559996418 23.354794153567234 L-172.22083852106618 31.354794153567234 L-172.22083852106618 35.684921172489425 L-144.50802559996418 27.684921172489425 L-144.50802559996418 23.354794153567234"/>
		<path opacity="0.75" fill="darkturquoise" d="M-142.00802559996418 25.519857663028333 L-169.72083852106618 33.51985766302833 L-169.72083852106618 37.849984681950524 L-142.00802559996418 29.849984681950524 L-142.00802559996418 25.519857663028333"/>
		<path opacity="0.75" fill="darkturquoise" d="M-144.50802559996418 23.354794153567234 L-142.00802559996418 25.519857663028333 L-169.72083852106618 33.51985766302833 L-172.22083852106618 31.354794153567234 L-144.50802559996418 23.354794153567234"/>
		<path opacity="0.75" fill="darkturquoise" d="M-144.50802559996418 27.684921172489425 L-142.00802559996418 29.849984681950524 L-169.72083852106618 37.849984681950524 L-172.22083852106618 35.684921172489425 L-144.50802559996418 27.684921172489425"/>
		<path opacity="0.5" fill="orange" d="M-146.01785666836219 15.708348754011496 L-130.01785666836219 29.564755214562517 L-130.01785666836219 57.27756813566455 L-146.01785666836219 43.42116167511354 L-146.01785666836219 15.708348754011496"/>
		<path opacity="0.5" fill="orange" d="M-173.73066958946418 23.708348754011496 L-157.73066958946418 37.56475521456252 L-157.73066958946418 65.27756813566455 L-173.73066958946418 51.42116167511354 L-173.73066958946418 23.708348754011496"/>
		<path opacity="0.5" fill="orange" d="M-146.01785666836219 15.708348754011496 L-173.73066958946418 23.708348754011496 L-173.73066958946418 51.42116167511354 L-146.01785666836219 43.42116167511354 L-146.01785666836219 15.708348754011496"/>
		<path opacity="0.5" fill="orange" d="M-130.01785666836219 29.564755214562517 L-157.73066958946418 37.56475521456252 L-157.73066958946418 65.27756813566455 L-130.01785666836219 57.27756813566455 L-130.01785666836219 29.564755214562517"/>
		<path opacity="0.5" fill="orange" d="M-146.01785666836219 15.708348754011496 L-130.01785666836219 29.564755214562517 L-157.73066958946418 37.56475521456252 L-173.73066958946418 23.708348754011496 L-146.01785666836219 15.708348754011496"/>
		<path opacity="0.5" fill="orange" d="M-146.01785666836219 43.42116167511354 L-130.01785666836219 57.27756813566455 L-157.73066958946418 65.27756813566455 L-173.73066958946418 51.42116167511354 L-146.01785666836219 43.42116167511354"/>
		<text style="fill:black;font-family:calibri;font-size:6" x="-173.73066958946418" y="37.56475521456252" >32</text>
		<text style="fill:black;font-family:calibri;font-size:6" x="-165.73066958946418" y="58.349364905389045" >32</text>
		<text style="fill:black;font-family:calibri;font-size:6" x="-159.87426312891319" y="19.708348754011496" >32</text>

		<path opacity="0.5" fill="orange" d="M123.43593539448983 31.45448267190433 L127.43593539448983 34.918584287042094 L127.43593539448983 41.84678751731761 L123.43593539448983 38.382685902179844 L123.43593539448983 31.45448267190433"/>
		<path opacity="0.5" fill="orange" d="M68.01030955228575 47.45448267190433 L72.01030955228575 50.918584287042094 L72.01030955228575 57.84678751731761 L68.01030955228575 54.382685902179844 L68.01030955228575 47.45448267190433"/>
		<path opacity="0.5" fill="orange" d="M123.43593539448983 31.45448267190433 L68.01030955228575 47.45448267190433 L68.01030955228575 54.382685902179844 L123.43593539448983 38.382685902179844 L123.43593539448983 31.45448267190433"/>
		<path opacity="0.5" fill="orange" d="M127.43593539448983 34.918584287042094 L72.01030955228575 50.918584287042094 L72.01030955228575 57.84678751731761 L127.43593539448983 41.84678751731761 L127.43593539448983 34.918584287042094"/>
		<path opacity="0.5" fill="orange" d="M123.43593539448983 31.45448267190433 L127.43593539448983 34.918584287042094 L72.01030955228575 50.918584287042094 L68.01030955228575 47.45448267190433 L123.43593539448983 31.45448267190433"/>
		<path opacity="0.5" fill="orange" d="M123.43593539448983 38.382685902179844 L127.43593539448983 41.84678751731761 L72.01030955228575 57.84678751731761 L68.01030955228575 54.382685902179844 L123.43593539448983 38.382685902179844"/>
		<text style="fill:black;font-family:calibri;font-size:6" x="68.01030955228575" y="50.91858428704209" >8</text>
		<text style="fill:black;font-family:calibri;font-size:6" x="70.01030955228575" y="56.114736709748726" >8</text>
		<text style="fill:black;font-family:calibri;font-size:6" x="95.72312247338779" y="39.45448267190433" >64</text>

		<path opacity="0.5" fill="orange" d="M473.3153532995459 38.99484522385711 L481.3153532995459 45.923048454132626 L481.3153532995459 59.77945491468364 L473.3153532995459 52.851251684408126 L473.3153532995459 38.99484522385711"/>
		<path opacity="0.5" fill="orange" d="M417.88972745734185 54.99484522385711 L425.88972745734185 61.923048454132626 L425.88972745734185 75.77945491468364 L417.88972745734185 68.85125168440813 L417.88972745734185 54.99484522385711"/>
		<path opacity="0.5" fill="orange" d="M473.3153532995459 38.99484522385711 L417.88972745734185 54.99484522385711 L417.88972745734185 68.85125168440813 L473.3153532995459 52.851251684408126 L473.3153532995459 38.99484522385711"/>
		<path opacity="0.5" fill="orange" d="M481.3153532995459 45.923048454132626 L425.88972745734185 61.923048454132626 L425.88972745734185 75.77945491468364 L481.3153532995459 59.77945491468364 L481.3153532995459 45.923048454132626"/>
		<path opacity="0.5" fill="orange" d="M473.3153532995459 38.99484522385711 L481.3153532995459 45.923048454132626 L425.88972745734185 61.923048454132626 L417.88972745734185 54.99484522385711 L473.3153532995459 38.99484522385711"/>
		<path opacity="0.5" fill="orange" d="M473.3153532995459 52.851251684408126 L481.3153532995459 59.77945491468364 L425.88972745734185 75.77945491468364 L417.88972745734185 68.85125168440813 L473.3153532995459 52.851251684408126"/>
		<text style="fill:black;font-family:calibri;font-size:6" x="417.88972745734185" y="61.92304845413262" >16</text>
		<text style="fill:black;font-family:calibri;font-size:6" x="421.88972745734185" y="72.31535329954588" >16</text>
		<text style="fill:black;font-family:calibri;font-size:6" x="445.6025403784439" y="46.99484522385711" >64</text>

		<path opacity="0.75" fill="pink" d="M-206.3894566040716 46.58651489430878 L-201.3894566040716 50.91664191323096 L-162.0325452369798 53.89315567361757 L-206.3894566040716 46.58651489430878"/>
		<path opacity="0.75" fill="pink" d="M-206.3894566040716 46.58651489430878 L-206.3894566040716 55.24676893215316 L-162.0325452369798 53.89315567361757 L-206.3894566040716 46.58651489430878"/>
		<path opacity="0.75" fill="pink" d="M-201.3894566040716 50.91664191323096 L-201.3894566040716 59.57689595107534 L-162.0325452369798 53.89315567361757 L-201.3894566040716 50.91664191323096"/>
		<path opacity="0.75" fill="pink" d="M-206.3894566040716 55.24676893215316 L-201.3894566040716 59.57689595107534 L-162.0325452369798 53.89315567361757 L-206.3894566040716 55.24676893215316"/>

		<text style="fill:black;font-family:calibri;font-size:6" x="-189.937152815041" y="45.739835283963174" >[10,10]</text>
		<path opacity="0.75" fill="pink" d="M23.749031409819708 58.9214487849392 L26.249031409819708 61.08651229440029 L69.19591175272973 52.42698319198861 L23.749031409819708 58.9214487849392"/>
		<path opacity="0.75" fill="pink" d="M23.749031409819708 58.9214487849392 L23.749031409819708 63.251575803861385 L69.19591175272973 52.42698319198861 L23.749031409819708 58.9214487849392"/>
		<path opacity="0.75" fill="pink" d="M26.249031409819708 61.08651229440029 L26.249031409819708 65.41663931332249 L69.19591175272973 52.42698319198861 L26.249031409819708 61.08651229440029"/>
		<path opacity="0.75" fill="pink" d="M23.749031409819708 63.251575803861385 L26.249031409819708 65.41663931332249 L69.19591175272973 52.42698319198861 L23.749031409819708 63.251575803861385"/>

		<text style="fill:black;font-family:calibri;font-size:6" x="39.73132485745638" y="51.17421598846391" >[5,5]</text>
		<path opacity="0.75" fill="darkturquoise" d="M-206.3894566040716 46.58651489430878 L-201.3894566040716 50.91664191323096 L-201.3894566040716 59.57689595107534 L-206.3894566040716 55.24676893215316 L-206.3894566040716 46.58651489430878"/>
		<path opacity="0.75" fill="darkturquoise" d="M-223.7099646797604 51.58651489430878 L-218.7099646797604 55.91664191323096 L-218.7099646797604 64.57689595107534 L-223.7099646797604 60.24676893215316 L-223.7099646797604 51.58651489430878"/>
		<path opacity="0.75" fill="darkturquoise" d="M-206.3894566040716 46.58651489430878 L-223.7099646797604 51.58651489430878 L-223.7099646797604 60.24676893215316 L-206.3894566040716 55.24676893215316 L-206.3894566040716 46.58651489430878"/>
		<path opacity="0.75" fill="darkturquoise" d="M-201.3894566040716 50.91664191323096 L-218.7099646797604 55.91664191323096 L-218.7099646797604 64.57689595107534 L-201.3894566040716 59.57689595107534 L-201.3894566040716 50.91664191323096"/>
		<path opacity="0.75" fill="darkturquoise" d="M-206.3894566040716 46.58651489430878 L-201.3894566040716 50.91664191323096 L-218.7099646797604 55.91664191323096 L-223.7099646797604 51.58651489430878 L-206.3894566040716 46.58651489430878"/>
		<path opacity="0.75" fill="darkturquoise" d="M-206.3894566040716 55.24676893215316 L-201.3894566040716 59.57689595107534 L-218.7099646797604 64.57689595107534 L-223.7099646797604 60.24676893215316 L-206.3894566040716 55.24676893215316"/>
		<path opacity="0.5" fill="lavender" d="M-217.03193977868614 36.208348754011496 L-201.03193977868614 50.064755214562524 L-201.03193977868614 77.77756813566455 L-217.03193977868614 63.92116167511354 L-217.03193977868614 36.208348754011496"/>
		<path opacity="0.5" fill="lavender" d="M-234.35244785437493 41.208348754011496 L-218.35244785437493 55.064755214562524 L-218.35244785437493 82.77756813566455 L-234.35244785437493 68.92116167511354 L-234.35244785437493 41.208348754011496"/>
		<path opacity="0.5" fill="lavender" d="M-217.03193977868614 36.208348754011496 L-234.35244785437493 41.208348754011496 L-234.35244785437493 68.92116167511354 L-217.03193977868614 63.92116167511354 L-217.03193977868614 36.208348754011496"/>
		<path opacity="0.5" fill="lavender" d="M-201.03193977868614 50.064755214562524 L-218.35244785437493 55.064755214562524 L-218.35244785437493 82.77756813566455 L-201.03193977868614 77.77756813566455 L-201.03193977868614 50.064755214562524"/>
		<path opacity="0.5" fill="lavender" d="M-217.03193977868614 36.208348754011496 L-201.03193977868614 50.064755214562524 L-218.35244785437493 55.064755214562524 L-234.35244785437493 41.208348754011496 L-217.03193977868614 36.208348754011496"/>
		<path opacity="0.5" fill="lavender" d="M-217.03193977868614 63.92116167511354 L-201.03193977868614 77.77756813566455 L-218.35244785437493 82.77756813566455 L-234.35244785437493 68.92116167511354 L-217.03193977868614 63.92116167511354"/>
		<text style="fill:black;font-family:calibri;font-size:6" x="-234.35244785437493" y="55.06475521456252" >32</text>
		<text style="fill:black;font-family:calibri;font-size:6" x="-226.35244785437493" y="75.84936490538905" >32</text>
		<text style="fill:black;font-family:calibri;font-size:6" x="-225.69219381653053" y="38.708348754011496" >20</text>

		<path opacity="0.75" fill="pink" d="M375.1682231282253 75.73503769574113 L377.6682231282253 77.90010120520222 L424.0228173401123 60.63707414869651 L375.1682231282253 75.73503769574113"/>
		<path opacity="0.75" fill="pink" d="M375.1682231282253 75.73503769574113 L375.1682231282253 80.06516471466333 L424.0228173401123 60.63707414869651 L375.1682231282253 75.73503769574113"/>
		<path opacity="0.75" fill="pink" d="M377.6682231282253 77.90010120520222 L377.6682231282253 82.2302282241244 L424.0228173401123 60.63707414869651 L377.6682231282253 77.90010120520222"/>
		<path opacity="0.75" fill="pink" d="M375.1682231282253 80.06516471466333 L377.6682231282253 82.2302282241244 L424.0228173401123 60.63707414869651 L375.1682231282253 80.06516471466333"/>

		<text style="fill:black;font-family:calibri;font-size:6" x="392.28642119885427" y="63.68605592221882" >[5,5]</text>
		<path opacity="0.75" fill="darkturquoise" d="M23.749031409819708 58.9214487849392 L26.249031409819708 61.08651229440029 L26.249031409819708 65.41663931332249 L23.749031409819708 63.251575803861385 L23.749031409819708 58.9214487849392"/>
		<path opacity="0.75" fill="darkturquoise" d="M-31.676594432384377 74.9214487849392 L-29.176594432384377 77.0865122944003 L-29.176594432384377 81.41663931332249 L-31.676594432384377 79.25157580386139 L-31.676594432384377 74.9214487849392"/>
		<path opacity="0.75" fill="darkturquoise" d="M23.749031409819708 58.9214487849392 L-31.676594432384377 74.9214487849392 L-31.676594432384377 79.25157580386139 L23.749031409819708 63.251575803861385 L23.749031409819708 58.9214487849392"/>
		<path opacity="0.75" fill="darkturquoise" d="M26.249031409819708 61.08651229440029 L-29.176594432384377 77.0865122944003 L-29.176594432384377 81.41663931332249 L26.249031409819708 65.41663931332249 L26.249031409819708 61.08651229440029"/>
		<path opacity="0.75" fill="darkturquoise" d="M23.749031409819708 58.9214487849392 L26.249031409819708 61.08651229440029 L-29.176594432384377 77.0865122944003 L-31.676594432384377 74.9214487849392 L23.749031409819708 58.9214487849392"/>
		<path opacity="0.75" fill="darkturquoise" d="M23.749031409819708 63.251575803861385 L26.249031409819708 65.41663931332249 L-29.176594432384377 81.41663931332249 L-31.676594432384377 79.25157580386139 L23.749031409819708 63.251575803861385"/>
		<path opacity="0.5" fill="orange" d="M22.709039363063823 54.75833024919771 L30.709039363063823 61.68653347947321 L30.709039363063823 75.54293994002424 L22.709039363063823 68.61473670974873 L22.709039363063823 54.75833024919771"/>
		<path opacity="0.5" fill="orange" d="M-32.71658647914023 70.75833024919771 L-24.716586479140233 77.68653347947321 L-24.716586479140233 91.54293994002424 L-32.71658647914023 84.61473670974873 L-32.71658647914023 70.75833024919771"/>
		<path opacity="0.5" fill="orange" d="M22.709039363063823 54.75833024919771 L-32.71658647914023 70.75833024919771 L-32.71658647914023 84.61473670974873 L22.709039363063823 68.61473670974873 L22.709039363063823 54.75833024919771"/>
		<path opacity="0.5" fill="orange" d="M30.709039363063823 61.68653347947321 L-24.716586479140233 77.68653347947321 L-24.716586479140233 91.54293994002424 L30.709039363063823 75.54293994002424 L30.709039363063823 61.68653347947321"/>
		<path opacity="0.5" fill="orange" d="M22.709039363063823 54.75833024919771 L30.709039363063823 61.68653347947321 L-24.716586479140233 77.68653347947321 L-32.71658647914023 70.75833024919771 L22.709039363063823 54.75833024919771"/>
		<path opacity="0.5" fill="orange" d="M22.709039363063823 68.61473670974873 L30.709039363063823 75.54293994002424 L-24.716586479140233 91.54293994002424 L-32.71658647914023 84.61473670974873 L22.709039363063823 68.61473670974873"/>
		<text style="fill:black;font-family:calibri;font-size:6" x="-32.71658647914023" y="77.68653347947321" >16</text>
		<text style="fill:black;font-family:calibri;font-size:6" x="-28.716586479140233" y="88.07883832488648" >16</text>
		<text style="fill:black;font-family:calibri;font-size:6" x="-5.003773558038205" y="62.75833024919771" >64</text>

		<path opacity="0.75" fill="pink" d="M-74.03022090017464 101.16751645894195 L-71.53022090017458 103.33257996840305 L-31.389671818885063 80.31380002844287 L-74.03022090017464 101.16751645894195"/>
		<path opacity="0.75" fill="pink" d="M-74.03022090017464 101.16751645894195 L-74.03022090017464 105.49764347786413 L-31.389671818885063 80.31380002844287 L-74.03022090017464 101.16751645894195"/>
		<path opacity="0.75" fill="pink" d="M-71.53022090017458 103.33257996840305 L-71.53022090017458 107.66270698732524 L-31.389671818885063 80.31380002844287 L-71.53022090017458 103.33257996840305"/>
		<path opacity="0.75" fill="pink" d="M-74.03022090017464 105.49764347786413 L-71.53022090017458 107.66270698732524 L-31.389671818885063 80.31380002844287 L-74.03022090017464 105.49764347786413"/>

		<text style="fill:black;font-family:calibri;font-size:6" x="-58.98337120641143" y="86.24065824369241" >[5,5]</text>
		<path opacity="0.75" fill="darkturquoise" d="M375.1682231282253 75.73503769574113 L377.6682231282253 77.90010120520222 L377.6682231282253 82.2302282241244 L375.1682231282253 80.06516471466333 L375.1682231282253 75.73503769574113"/>
		<path opacity="0.75" fill="darkturquoise" d="M264.3169714438171 107.73503769574114 L266.8169714438171 109.90010120520222 L266.8169714438171 114.2302282241244 L264.3169714438171 112.06516471466333 L264.3169714438171 107.73503769574114"/>
		<path opacity="0.75" fill="darkturquoise" d="M375.1682231282253 75.73503769574113 L264.3169714438171 107.73503769574114 L264.3169714438171 112.06516471466333 L375.1682231282253 80.06516471466333 L375.1682231282253 75.73503769574113"/>
		<path opacity="0.75" fill="darkturquoise" d="M377.6682231282253 77.90010120520222 L266.8169714438171 109.90010120520222 L266.8169714438171 114.2302282241244 L377.6682231282253 82.2302282241244 L377.6682231282253 77.90010120520222"/>
		<path opacity="0.75" fill="darkturquoise" d="M375.1682231282253 75.73503769574113 L377.6682231282253 77.90010120520222 L266.8169714438171 109.90010120520222 L264.3169714438171 107.73503769574114 L375.1682231282253 75.73503769574113"/>
		<path opacity="0.75" fill="darkturquoise" d="M375.1682231282253 80.06516471466333 L377.6682231282253 82.2302282241244 L266.8169714438171 114.2302282241244 L264.3169714438171 112.06516471466333 L375.1682231282253 80.06516471466333"/>
		<path opacity="0.5" fill="orange" d="M374.5884572681199 67.49484522385711 L382.5884572681199 74.42304845413263 L382.5884572681199 88.27945491468364 L374.5884572681199 81.35125168440813 L374.5884572681199 67.49484522385711"/>
		<path opacity="0.5" fill="orange" d="M263.7372055837118 99.49484522385711 L271.7372055837118 106.42304845413264 L271.7372055837118 120.27945491468364 L263.7372055837118 113.35125168440811 L263.7372055837118 99.49484522385711"/>
		<path opacity="0.5" fill="orange" d="M374.5884572681199 67.49484522385711 L263.7372055837118 99.49484522385711 L263.7372055837118 113.35125168440811 L374.5884572681199 81.35125168440813 L374.5884572681199 67.49484522385711"/>
		<path opacity="0.5" fill="orange" d="M382.5884572681199 74.42304845413263 L271.7372055837118 106.42304845413264 L271.7372055837118 120.27945491468364 L382.5884572681199 88.27945491468364 L382.5884572681199 74.42304845413263"/>
		<path opacity="0.5" fill="orange" d="M374.5884572681199 67.49484522385711 L382.5884572681199 74.42304845413263 L271.7372055837118 106.42304845413264 L263.7372055837118 99.49484522385711 L374.5884572681199 67.49484522385711"/>
		<path opacity="0.5" fill="orange" d="M374.5884572681199 81.35125168440813 L382.5884572681199 88.27945491468364 L271.7372055837118 120.27945491468364 L263.7372055837118 113.35125168440811 L374.5884572681199 81.35125168440813"/>
		<text style="fill:black;font-family:calibri;font-size:6" x="263.7372055837118" y="106.42304845413261" >16</text>
		<text style="fill:black;font-family:calibri;font-size:6" x="267.7372055837118" y="116.81535329954588" >16</text>
		<text style="fill:black;font-family:calibri;font-size:6" x="319.16283142591584" y="83.49484522385711" >128</text>

		<path opacity="0.75" fill="darkturquoise" d="M-74.03022090017464 101.16751645894195 L-71.53022090017458 103.33257996840305 L-71.53022090017458 107.66270698732524 L-74.03022090017464 105.49764347786413 L-74.03022090017464 101.16751645894195"/>
		<path opacity="0.75" fill="darkturquoise" d="M-101.74303382127664 109.16751645894195 L-99.24303382127658 111.33257996840305 L-99.24303382127658 115.66270698732524 L-101.74303382127664 113.49764347786413 L-101.74303382127664 109.16751645894195"/>
		<path opacity="0.75" fill="darkturquoise" d="M-74.03022090017464 101.16751645894195 L-101.74303382127664 109.16751645894195 L-101.74303382127664 113.49764347786413 L-74.03022090017464 105.49764347786413 L-74.03022090017464 101.16751645894195"/>
		<path opacity="0.75" fill="darkturquoise" d="M-71.53022090017458 103.33257996840305 L-99.24303382127658 111.33257996840305 L-99.24303382127658 115.66270698732524 L-71.53022090017458 107.66270698732524 L-71.53022090017458 103.33257996840305"/>
		<path opacity="0.75" fill="darkturquoise" d="M-74.03022090017464 101.16751645894195 L-71.53022090017458 103.33257996840305 L-99.24303382127658 111.33257996840305 L-101.74303382127664 109.16751645894195 L-74.03022090017464 101.16751645894195"/>
		<path opacity="0.75" fill="darkturquoise" d="M-74.03022090017464 105.49764347786413 L-71.53022090017458 107.66270698732524 L-99.24303382127658 115.66270698732524 L-101.74303382127664 113.49764347786413 L-74.03022090017464 105.49764347786413"/>
		<path opacity="0.5" fill="orange" d="M-80.01785666836219 72.86602540378443 L-64.01785666836219 86.72243186433545 L-64.01785666836219 114.4352447854375 L-80.01785666836219 100.57883832488648 L-80.01785666836219 72.86602540378443"/>
		<path opacity="0.5" fill="orange" d="M-107.73066958946418 80.86602540378443 L-91.73066958946418 94.72243186433545 L-91.73066958946418 122.4352447854375 L-107.73066958946418 108.57883832488648 L-107.73066958946418 80.86602540378443"/>
		<path opacity="0.5" fill="orange" d="M-80.01785666836219 72.86602540378443 L-107.73066958946418 80.86602540378443 L-107.73066958946418 108.57883832488648 L-80.01785666836219 100.57883832488648 L-80.01785666836219 72.86602540378443"/>
		<path opacity="0.5" fill="orange" d="M-64.01785666836219 86.72243186433545 L-91.73066958946418 94.72243186433545 L-91.73066958946418 122.4352447854375 L-64.01785666836219 114.4352447854375 L-64.01785666836219 86.72243186433545"/>
		<path opacity="0.5" fill="orange" d="M-80.01785666836219 72.86602540378443 L-64.01785666836219 86.72243186433545 L-91.73066958946418 94.72243186433545 L-107.73066958946418 80.86602540378443 L-80.01785666836219 72.86602540378443"/>
		<path opacity="0.5" fill="orange" d="M-80.01785666836219 100.57883832488648 L-64.01785666836219 114.4352447854375 L-91.73066958946418 122.4352447854375 L-107.73066958946418 108.57883832488648 L-80.01785666836219 100.57883832488648"/>
		<text style="fill:black;font-family:calibri;font-size:6" x="-107.73066958946418" y="94.72243186433545" >32</text>
		<text style="fill:black;font-family:calibri;font-size:6" x="-99.73066958946418" y="115.50704155516199" >32</text>
		<text style="fill:black;font-family:calibri;font-size:6" x="-93.87426312891319" y="76.86602540378443" >32</text>

<!-- Arrow -->
		<path opacity="0.5" stroke="black" d="M191.43593539448983 93.8083117443839 L267.7372055837118 109.88715006927038"/>
		<circle opacity="0.5" cx="267.7372055837118" cy="109.88715006927038" r="1" fill="black" />
<!-- Arrow -->
		<path opacity="0.5" stroke="black" d="M323.16283142591584 86.95894683899488 L323.16283142591584 43.65767664977294"/>
		<circle opacity="0.5" cx="323.16283142591584" cy="43.65767664977294" r="1" fill="black" />
		<path opacity="0.5" fill="orange" d="M189.43593539448983 88.61215932167727 L193.43593539448983 92.07626093681503 L193.43593539448983 99.00446416709055 L189.43593539448983 95.54036255195278 L189.43593539448983 88.61215932167727"/>
		<path opacity="0.5" fill="orange" d="M134.01030955228578 104.61215932167727 L138.01030955228578 108.07626093681503 L138.01030955228578 115.00446416709053 L134.01030955228578 111.5403625519528 L134.01030955228578 104.61215932167727"/>
		<path opacity="0.5" fill="orange" d="M189.43593539448983 88.61215932167727 L134.01030955228578 104.61215932167727 L134.01030955228578 111.5403625519528 L189.43593539448983 95.54036255195278 L189.43593539448983 88.61215932167727"/>
		<path opacity="0.5" fill="orange" d="M193.43593539448983 92.07626093681503 L138.01030955228578 108.07626093681503 L138.01030955228578 115.00446416709053 L193.43593539448983 99.00446416709055 L193.43593539448983 92.07626093681503"/>
		<path opacity="0.5" fill="orange" d="M189.43593539448983 88.61215932167727 L193.43593539448983 92.07626093681503 L138.01030955228578 108.07626093681503 L134.01030955228578 104.61215932167727 L189.43593539448983 88.61215932167727"/>
		<path opacity="0.5" fill="orange" d="M189.43593539448983 95.54036255195278 L193.43593539448983 99.00446416709055 L138.01030955228578 115.00446416709053 L134.01030955228578 111.5403625519528 L189.43593539448983 95.54036255195278"/>
		<text style="fill:black;font-family:calibri;font-size:6" x="134.01030955228578" y="108.07626093681503" >8</text>
		<text style="fill:black;font-family:calibri;font-size:6" x="136.01030955228578" y="113.27241335952166" >8</text>
		<text style="fill:black;font-family:calibri;font-size:6" x="161.7231224733878" y="96.61215932167727" >64</text>

		<path opacity="0.75" fill="pink" d="M-146.9562098457463 111.5520990855673 L-141.9562098457463 115.88222610448949 L-93.11461360923249 117.42936111830107 L-146.9562098457463 111.5520990855673"/>
		<path opacity="0.75" fill="pink" d="M-146.9562098457463 111.5520990855673 L-146.9562098457463 120.21235312341167 L-93.11461360923249 117.42936111830107 L-146.9562098457463 111.5520990855673"/>
		<path opacity="0.75" fill="pink" d="M-141.9562098457463 115.88222610448949 L-141.9562098457463 124.54248014233389 L-93.11461360923249 117.42936111830107 L-141.9562098457463 115.88222610448949"/>
		<path opacity="0.75" fill="pink" d="M-146.9562098457463 120.21235312341167 L-141.9562098457463 124.54248014233389 L-93.11461360923249 117.42936111830107 L-146.9562098457463 120.21235312341167"/>

		<text style="fill:black;font-family:calibri;font-size:6" x="-127.34234443357502" y="109.99073010193419" >[10,10]</text>
<!-- Arrow -->
		<path opacity="0.5" stroke="black" d="M163.72312247338778 98.34421012924615 L163.72312247338778 55.04293994002421"/>
		<circle opacity="0.5" cx="163.72312247338778" cy="55.04293994002421" r="1" fill="black" />
<!-- Arrow -->
		<path opacity="0.5" stroke="black" d="M323.16283142591584 43.65767664977294 L163.72312247338778 55.04293994002421"/>
		<circle opacity="0.5" cx="163.72312247338778" cy="55.04293994002421" r="1" fill="black" />
		<path opacity="0.75" fill="pink" d="M89.33718319211738 119.10610242574373 L91.83718319211738 121.27116593520483 L137.55486730065996 110.7300831023071 L89.33718319211738 119.10610242574373"/>
		<path opacity="0.75" fill="pink" d="M89.33718319211738 119.10610242574373 L89.33718319211738 123.43622944466591 L137.55486730065996 110.7300831023071 L89.33718319211738 119.10610242574373"/>
		<path opacity="0.75" fill="pink" d="M91.83718319211738 121.27116593520483 L91.83718319211738 125.60129295412702 L137.55486730065996 110.7300831023071 L91.83718319211738 121.27116593520483"/>
		<path opacity="0.75" fill="pink" d="M89.33718319211738 123.43622944466591 L91.83718319211738 125.60129295412702 L137.55486730065996 110.7300831023071 L89.33718319211738 123.43622944466591"/>

		<text style="fill:black;font-family:calibri;font-size:6" x="106.24307789496491" y="110.41809276402542" >[5,5]</text>
		<path opacity="0.75" fill="darkturquoise" d="M-146.9562098457463 111.5520990855673 L-141.9562098457463 115.88222610448949 L-141.9562098457463 124.54248014233389 L-146.9562098457463 120.21235312341167 L-146.9562098457463 111.5520990855673"/>
		<path opacity="0.75" fill="darkturquoise" d="M-164.27671792143508 116.5520990855673 L-159.27671792143508 120.88222610448949 L-159.27671792143508 129.5424801423339 L-164.27671792143508 125.21235312341167 L-164.27671792143508 116.5520990855673"/>
		<path opacity="0.75" fill="darkturquoise" d="M-146.9562098457463 111.5520990855673 L-164.27671792143508 116.5520990855673 L-164.27671792143508 125.21235312341167 L-146.9562098457463 120.21235312341167 L-146.9562098457463 111.5520990855673"/>
		<path opacity="0.75" fill="darkturquoise" d="M-141.9562098457463 115.88222610448949 L-159.27671792143508 120.88222610448949 L-159.27671792143508 129.5424801423339 L-141.9562098457463 124.54248014233389 L-141.9562098457463 115.88222610448949"/>
		<path opacity="0.75" fill="darkturquoise" d="M-146.9562098457463 111.5520990855673 L-141.9562098457463 115.88222610448949 L-159.27671792143508 120.88222610448949 L-164.27671792143508 116.5520990855673 L-146.9562098457463 111.5520990855673"/>
		<path opacity="0.75" fill="darkturquoise" d="M-146.9562098457463 120.21235312341167 L-141.9562098457463 124.54248014233389 L-159.27671792143508 129.5424801423339 L-164.27671792143508 125.21235312341167 L-146.9562098457463 120.21235312341167"/>
		<path opacity="0.5" fill="lavender" d="M-151.03193977868614 93.36602540378443 L-135.03193977868614 107.22243186433545 L-135.03193977868614 134.9352447854375 L-151.03193977868614 121.07883832488648 L-151.03193977868614 93.36602540378443"/>
		<path opacity="0.5" fill="lavender" d="M-168.35244785437493 98.36602540378443 L-152.35244785437493 112.22243186433545 L-152.35244785437493 139.9352447854375 L-168.35244785437493 126.07883832488648 L-168.35244785437493 98.36602540378443"/>
		<path opacity="0.5" fill="lavender" d="M-151.03193977868614 93.36602540378443 L-168.35244785437493 98.36602540378443 L-168.35244785437493 126.07883832488648 L-151.03193977868614 121.07883832488648 L-151.03193977868614 93.36602540378443"/>
		<path opacity="0.5" fill="lavender" d="M-135.03193977868614 107.22243186433545 L-152.35244785437493 112.22243186433545 L-152.35244785437493 139.9352447854375 L-135.03193977868614 134.9352447854375 L-135.03193977868614 107.22243186433545"/>
		<path opacity="0.5" fill="lavender" d="M-151.03193977868614 93.36602540378443 L-135.03193977868614 107.22243186433545 L-152.35244785437493 112.22243186433545 L-168.35244785437493 98.36602540378443 L-151.03193977868614 93.36602540378443"/>
		<path opacity="0.5" fill="lavender" d="M-151.03193977868614 121.07883832488648 L-135.03193977868614 134.9352447854375 L-152.35244785437493 139.9352447854375 L-168.35244785437493 126.07883832488648 L-151.03193977868614 121.07883832488648"/>
		<text style="fill:black;font-family:calibri;font-size:6" x="-168.35244785437493" y="112.22243186433545" >32</text>
		<text style="fill:black;font-family:calibri;font-size:6" x="-160.35244785437493" y="133.007041555162" >32</text>
		<text style="fill:black;font-family:calibri;font-size:6" x="-159.69219381653053" y="95.86602540378443" >20</text>

<!-- Arrow -->
		<path opacity="0.5" stroke="black" d="M257.4359353944899 150.96598839415685 L267.7372055837118 109.88715006927038"/>
		<circle opacity="0.5" cx="267.7372055837118" cy="109.88715006927038" r="1" fill="black" />
		<path opacity="0.75" fill="darkturquoise" d="M89.33718319211738 119.10610242574373 L91.83718319211738 121.27116593520483 L91.83718319211738 125.60129295412702 L89.33718319211738 123.43622944466591 L89.33718319211738 119.10610242574373"/>
		<path opacity="0.75" fill="darkturquoise" d="M33.91155734991332 135.10610242574373 L36.41155734991332 137.27116593520483 L36.41155734991332 141.60129295412702 L33.91155734991332 139.4362294446659 L33.91155734991332 135.10610242574373"/>
		<path opacity="0.75" fill="darkturquoise" d="M89.33718319211738 119.10610242574373 L33.91155734991332 135.10610242574373 L33.91155734991332 139.4362294446659 L89.33718319211738 123.43622944466591 L89.33718319211738 119.10610242574373"/>
		<path opacity="0.75" fill="darkturquoise" d="M91.83718319211738 121.27116593520483 L36.41155734991332 137.27116593520483 L36.41155734991332 141.60129295412702 L91.83718319211738 125.60129295412702 L91.83718319211738 121.27116593520483"/>
		<path opacity="0.75" fill="darkturquoise" d="M89.33718319211738 119.10610242574373 L91.83718319211738 121.27116593520483 L36.41155734991332 137.27116593520483 L33.91155734991332 135.10610242574373 L89.33718319211738 119.10610242574373"/>
		<path opacity="0.75" fill="darkturquoise" d="M89.33718319211738 123.43622944466591 L91.83718319211738 125.60129295412702 L36.41155734991332 141.60129295412702 L33.91155734991332 139.4362294446659 L89.33718319211738 123.43622944466591"/>
		<path opacity="0.5" fill="orange" d="M88.70903936306382 111.91600689897064 L96.70903936306382 118.84421012924616 L96.70903936306382 132.70061658979716 L88.70903936306382 125.77241335952166 L88.70903936306382 111.91600689897064"/>
		<path opacity="0.5" fill="orange" d="M33.28341352085977 127.91600689897064 L41.28341352085977 134.84421012924616 L41.28341352085977 148.70061658979716 L33.28341352085977 141.77241335952166 L33.28341352085977 127.91600689897064"/>
		<path opacity="0.5" fill="orange" d="M88.70903936306382 111.91600689897064 L33.28341352085977 127.91600689897064 L33.28341352085977 141.77241335952166 L88.70903936306382 125.77241335952166 L88.70903936306382 111.91600689897064"/>
		<path opacity="0.5" fill="orange" d="M96.70903936306382 118.84421012924616 L41.28341352085977 134.84421012924616 L41.28341352085977 148.70061658979716 L96.70903936306382 132.70061658979716 L96.70903936306382 118.84421012924616"/>
		<path opacity="0.5" fill="orange" d="M88.70903936306382 111.91600689897064 L96.70903936306382 118.84421012924616 L41.28341352085977 134.84421012924616 L33.28341352085977 127.91600689897064 L88.70903936306382 111.91600689897064"/>
		<path opacity="0.5" fill="orange" d="M88.70903936306382 125.77241335952166 L96.70903936306382 132.70061658979716 L41.28341352085977 148.70061658979716 L33.28341352085977 141.77241335952166 L88.70903936306382 125.77241335952166"/>
		<text style="fill:black;font-family:calibri;font-size:6" x="33.28341352085977" y="134.84421012924616" >16</text>
		<text style="fill:black;font-family:calibri;font-size:6" x="37.28341352085977" y="145.23651497465943" >16</text>
		<text style="fill:black;font-family:calibri;font-size:6" x="60.996226441961795" y="119.91600689897064" >64</text>

		<path opacity="0.75" fill="pink" d="M-12.535190829367309 146.87044114971462 L-10.035190829367309 149.0355046591757 L34.919557839451954 134.44084336308245 L-12.535190829367309 146.87044114971462"/>
		<path opacity="0.75" fill="pink" d="M-12.535190829367309 146.87044114971462 L-12.535190829367309 151.2005681686368 L34.919557839451954 134.44084336308245 L-12.535190829367309 146.87044114971462"/>
		<path opacity="0.75" fill="pink" d="M-10.035190829367309 149.0355046591757 L-10.035190829367309 153.36563167809788 L34.919557839451954 134.44084336308245 L-10.035190829367309 149.0355046591757"/>
		<path opacity="0.75" fill="pink" d="M-12.535190829367309 151.2005681686368 L-10.035190829367309 153.36563167809788 L34.919557839451954 134.44084336308245 L-12.535190829367309 151.2005681686368"/>

		<text style="fill:black;font-family:calibri;font-size:6" x="4.116392060239112" y="136.15564225639855" >[5,5]</text>
		<path opacity="0.75" fill="darkturquoise" d="M-12.535190829367309 146.87044114971462 L-10.035190829367309 149.0355046591757 L-10.035190829367309 153.36563167809788 L-12.535190829367309 151.2005681686368 L-12.535190829367309 146.87044114971462"/>
		<path opacity="0.75" fill="darkturquoise" d="M-40.24800375046931 154.87044114971462 L-37.74800375046931 157.0355046591757 L-37.74800375046931 161.36563167809788 L-40.24800375046931 159.2005681686368 L-40.24800375046931 154.87044114971462"/>
		<path opacity="0.75" fill="darkturquoise" d="M-12.535190829367309 146.87044114971462 L-40.24800375046931 154.87044114971462 L-40.24800375046931 159.2005681686368 L-12.535190829367309 151.2005681686368 L-12.535190829367309 146.87044114971462"/>
		<path opacity="0.75" fill="darkturquoise" d="M-10.035190829367309 149.0355046591757 L-37.74800375046931 157.0355046591757 L-37.74800375046931 161.36563167809788 L-10.035190829367309 153.36563167809788 L-10.035190829367309 149.0355046591757"/>
		<path opacity="0.75" fill="darkturquoise" d="M-12.535190829367309 146.87044114971462 L-10.035190829367309 149.0355046591757 L-37.74800375046931 157.0355046591757 L-40.24800375046931 154.87044114971462 L-12.535190829367309 146.87044114971462"/>
		<path opacity="0.75" fill="darkturquoise" d="M-12.535190829367309 151.2005681686368 L-10.035190829367309 153.36563167809788 L-37.74800375046931 161.36563167809788 L-40.24800375046931 159.2005681686368 L-12.535190829367309 151.2005681686368"/>
		<path opacity="0.5" fill="orange" d="M-14.017856668362185 130.02370205355737 L1.9821433316378148 143.8801085141084 L1.9821433316378148 171.59292143521043 L-14.017856668362185 157.73651497465943 L-14.017856668362185 130.02370205355737"/>
		<path opacity="0.5" fill="orange" d="M-41.730669589464185 138.02370205355737 L-25.730669589464185 151.8801085141084 L-25.730669589464185 179.59292143521043 L-41.730669589464185 165.73651497465943 L-41.730669589464185 138.02370205355737"/>
		<path opacity="0.5" fill="orange" d="M-14.017856668362185 130.02370205355737 L-41.730669589464185 138.02370205355737 L-41.730669589464185 165.73651497465943 L-14.017856668362185 157.73651497465943 L-14.017856668362185 130.02370205355737"/>
		<path opacity="0.5" fill="orange" d="M1.9821433316378148 143.8801085141084 L-25.730669589464185 151.8801085141084 L-25.730669589464185 179.59292143521043 L1.9821433316378148 171.59292143521043 L1.9821433316378148 143.8801085141084"/>
		<path opacity="0.5" fill="orange" d="M-14.017856668362185 130.02370205355737 L1.9821433316378148 143.8801085141084 L-25.730669589464185 151.8801085141084 L-41.730669589464185 138.02370205355737 L-14.017856668362185 130.02370205355737"/>
		<path opacity="0.5" fill="orange" d="M-14.017856668362185 157.73651497465943 L1.9821433316378148 171.59292143521043 L-25.730669589464185 179.59292143521043 L-41.730669589464185 165.73651497465943 L-14.017856668362185 157.73651497465943"/>
		<text style="fill:black;font-family:calibri;font-size:6" x="-41.730669589464185" y="151.8801085141084" >32</text>
		<text style="fill:black;font-family:calibri;font-size:6" x="-33.730669589464185" y="172.66471820493493" >32</text>
		<text style="fill:black;font-family:calibri;font-size:6" x="-27.874263128913185" y="134.02370205355737" >32</text>

		<path opacity="0.5" fill="orange" d="M255.43593539448986 145.76983597145022 L259.4359353944899 149.23393758658796 L259.4359353944899 156.16214081686348 L255.43593539448986 152.69803920172572 L255.43593539448986 145.76983597145022"/>
		<path opacity="0.5" fill="orange" d="M200.01030955228578 161.76983597145022 L204.01030955228578 165.23393758658796 L204.01030955228578 172.16214081686348 L200.01030955228578 168.69803920172572 L200.01030955228578 161.76983597145022"/>
		<path opacity="0.5" fill="orange" d="M255.43593539448986 145.76983597145022 L200.01030955228578 161.76983597145022 L200.01030955228578 168.69803920172572 L255.43593539448986 152.69803920172572 L255.43593539448986 145.76983597145022"/>
		<path opacity="0.5" fill="orange" d="M259.4359353944899 149.23393758658796 L204.01030955228578 165.23393758658796 L204.01030955228578 172.16214081686348 L259.4359353944899 156.16214081686348 L259.4359353944899 149.23393758658796"/>
		<path opacity="0.5" fill="orange" d="M255.43593539448986 145.76983597145022 L259.4359353944899 149.23393758658796 L204.01030955228578 165.23393758658796 L200.01030955228578 161.76983597145022 L255.43593539448986 145.76983597145022"/>
		<path opacity="0.5" fill="orange" d="M255.43593539448986 152.69803920172572 L259.4359353944899 156.16214081686348 L204.01030955228578 172.16214081686348 L200.01030955228578 168.69803920172572 L255.43593539448986 152.69803920172572"/>
		<text style="fill:black;font-family:calibri;font-size:6" x="200.01030955228578" y="165.23393758658796" >8</text>
		<text style="fill:black;font-family:calibri;font-size:6" x="202.01030955228578" y="170.4300900092946" >8</text>
		<text style="fill:black;font-family:calibri;font-size:6" x="227.72312247338783" y="153.76983597145022" >64</text>

		<path opacity="0.75" fill="pink" d="M-77.7306631207847 160.65170271408005 L-72.7306631207847 164.98182973300223 L-29.696964905636094 165.22529251528434 L-77.7306631207847 160.65170271408005"/>
		<path opacity="0.75" fill="pink" d="M-77.7306631207847 160.65170271408005 L-77.7306631207847 169.3119567519244 L-29.696964905636094 165.22529251528434 L-77.7306631207847 160.65170271408005"/>
		<path opacity="0.75" fill="pink" d="M-72.7306631207847 164.98182973300223 L-72.7306631207847 173.64208377084663 L-29.696964905636094 165.22529251528434 L-72.7306631207847 164.98182973300223"/>
		<path opacity="0.75" fill="pink" d="M-77.7306631207847 169.3119567519244 L-72.7306631207847 173.64208377084663 L-29.696964905636094 165.22529251528434 L-77.7306631207847 169.3119567519244"/>

		<text style="fill:black;font-family:calibri;font-size:6" x="-60.05276371573516" y="158.4384976146822" >[10,10]</text>
		<path opacity="0.75" fill="pink" d="M156.68957813093724 175.11143765694132 L159.18957813093724 177.2765011664024 L200.18926951094795 165.038869105337 L156.68957813093724 175.11143765694132"/>
		<path opacity="0.75" fill="pink" d="M156.68957813093724 175.11143765694132 L156.68957813093724 179.4415646758635 L200.18926951094795 165.038869105337 L156.68957813093724 175.11143765694132"/>
		<path opacity="0.75" fill="pink" d="M159.18957813093724 177.2765011664024 L159.18957813093724 181.6066281853246 L200.18926951094795 165.038869105337 L159.18957813093724 177.2765011664024"/>
		<path opacity="0.75" fill="pink" d="M156.68957813093724 179.4415646758635 L159.18957813093724 181.6066281853246 L200.18926951094795 165.038869105337 L156.68957813093724 179.4415646758635"/>

		<text style="fill:black;font-family:calibri;font-size:6" x="172.0228085909408" y="165.57515338113916" >[5,5]</text>
		<path opacity="0.75" fill="darkturquoise" d="M-77.7306631207847 160.65170271408005 L-72.7306631207847 164.98182973300223 L-72.7306631207847 173.64208377084663 L-77.7306631207847 169.3119567519244 L-77.7306631207847 160.65170271408005"/>
		<path opacity="0.75" fill="darkturquoise" d="M-95.05117119647349 165.65170271408005 L-90.05117119647349 169.98182973300223 L-90.05117119647349 178.64208377084663 L-95.05117119647349 174.3119567519244 L-95.05117119647349 165.65170271408005"/>
		<path opacity="0.75" fill="darkturquoise" d="M-77.7306631207847 160.65170271408005 L-95.05117119647349 165.65170271408005 L-95.05117119647349 174.3119567519244 L-77.7306631207847 169.3119567519244 L-77.7306631207847 160.65170271408005"/>
		<path opacity="0.75" fill="darkturquoise" d="M-72.7306631207847 164.98182973300223 L-90.05117119647349 169.98182973300223 L-90.05117119647349 178.64208377084663 L-72.7306631207847 173.64208377084663 L-72.7306631207847 164.98182973300223"/>
		<path opacity="0.75" fill="darkturquoise" d="M-77.7306631207847 160.65170271408005 L-72.7306631207847 164.98182973300223 L-90.05117119647349 169.98182973300223 L-95.05117119647349 165.65170271408005 L-77.7306631207847 160.65170271408005"/>
		<path opacity="0.75" fill="darkturquoise" d="M-77.7306631207847 169.3119567519244 L-72.7306631207847 173.64208377084663 L-90.05117119647349 178.64208377084663 L-95.05117119647349 174.3119567519244 L-77.7306631207847 169.3119567519244"/>
		<path opacity="0.5" fill="lavender" d="M-85.03193977868614 150.52370205355737 L-69.03193977868614 164.3801085141084 L-69.03193977868614 192.09292143521043 L-85.03193977868614 178.23651497465943 L-85.03193977868614 150.52370205355737"/>
		<path opacity="0.5" fill="lavender" d="M-102.35244785437493 155.52370205355737 L-86.35244785437493 169.3801085141084 L-86.35244785437493 197.09292143521043 L-102.35244785437493 183.23651497465943 L-102.35244785437493 155.52370205355737"/>
		<path opacity="0.5" fill="lavender" d="M-85.03193977868614 150.52370205355737 L-102.35244785437493 155.52370205355737 L-102.35244785437493 183.23651497465943 L-85.03193977868614 178.23651497465943 L-85.03193977868614 150.52370205355737"/>
		<path opacity="0.5" fill="lavender" d="M-69.03193977868614 164.3801085141084 L-86.35244785437493 169.3801085141084 L-86.35244785437493 197.09292143521043 L-69.03193977868614 192.09292143521043 L-69.03193977868614 164.3801085141084"/>
		<path opacity="0.5" fill="lavender" d="M-85.03193977868614 150.52370205355737 L-69.03193977868614 164.3801085141084 L-86.35244785437493 169.3801085141084 L-102.35244785437493 155.52370205355737 L-85.03193977868614 150.52370205355737"/>
		<path opacity="0.5" fill="lavender" d="M-85.03193977868614 178.23651497465943 L-69.03193977868614 192.09292143521043 L-86.35244785437493 197.09292143521043 L-102.35244785437493 183.23651497465943 L-85.03193977868614 178.23651497465943"/>
		<text style="fill:black;font-family:calibri;font-size:6" x="-102.35244785437493" y="169.3801085141084" >32</text>
		<text style="fill:black;font-family:calibri;font-size:6" x="-94.35244785437493" y="190.16471820493493" >32</text>
		<text style="fill:black;font-family:calibri;font-size:6" x="-93.69219381653053" y="153.02370205355737" >20</text>

		<path opacity="0.75" fill="darkturquoise" d="M156.68957813093724 175.11143765694132 L159.18957813093724 177.2765011664024 L159.18957813093724 181.6066281853246 L156.68957813093724 179.4415646758635 L156.68957813093724 175.11143765694132"/>
		<path opacity="0.75" fill="darkturquoise" d="M101.26395228873318 191.11143765694132 L103.76395228873318 193.2765011664024 L103.76395228873318 197.6066281853246 L101.26395228873318 195.4415646758635 L101.26395228873318 191.11143765694132"/>
		<path opacity="0.75" fill="darkturquoise" d="M156.68957813093724 175.11143765694132 L101.26395228873318 191.11143765694132 L101.26395228873318 195.4415646758635 L156.68957813093724 179.4415646758635 L156.68957813093724 175.11143765694132"/>
		<path opacity="0.75" fill="darkturquoise" d="M159.18957813093724 177.2765011664024 L103.76395228873318 193.2765011664024 L103.76395228873318 197.6066281853246 L159.18957813093724 181.6066281853246 L159.18957813093724 177.2765011664024"/>
		<path opacity="0.75" fill="darkturquoise" d="M156.68957813093724 175.11143765694132 L159.18957813093724 177.2765011664024 L103.76395228873318 193.2765011664024 L101.26395228873318 191.11143765694132 L156.68957813093724 175.11143765694132"/>
		<path opacity="0.75" fill="darkturquoise" d="M156.68957813093724 179.4415646758635 L159.18957813093724 181.6066281853246 L103.76395228873318 197.6066281853246 L101.26395228873318 195.4415646758635 L156.68957813093724 179.4415646758635"/>
		<path opacity="0.5" fill="orange" d="M154.70903936306385 169.0736835487436 L162.70903936306385 176.0018867790191 L162.70903936306385 189.85829323957012 L154.70903936306385 182.9300900092946 L154.70903936306385 169.0736835487436"/>
		<path opacity="0.5" fill="orange" d="M99.2834135208598 185.0736835487436 L107.2834135208598 192.0018867790191 L107.2834135208598 205.85829323957012 L99.2834135208598 198.9300900092946 L99.2834135208598 185.0736835487436"/>
		<path opacity="0.5" fill="orange" d="M154.70903936306385 169.0736835487436 L99.2834135208598 185.0736835487436 L99.2834135208598 198.9300900092946 L154.70903936306385 182.9300900092946 L154.70903936306385 169.0736835487436"/>
		<path opacity="0.5" fill="orange" d="M162.70903936306385 176.0018867790191 L107.2834135208598 192.0018867790191 L107.2834135208598 205.85829323957012 L162.70903936306385 189.85829323957012 L162.70903936306385 176.0018867790191"/>
		<path opacity="0.5" fill="orange" d="M154.70903936306385 169.0736835487436 L162.70903936306385 176.0018867790191 L107.2834135208598 192.0018867790191 L99.2834135208598 185.0736835487436 L154.70903936306385 169.0736835487436"/>
		<path opacity="0.5" fill="orange" d="M154.70903936306385 182.9300900092946 L162.70903936306385 189.85829323957012 L107.2834135208598 205.85829323957012 L99.2834135208598 198.9300900092946 L154.70903936306385 182.9300900092946"/>
		<text style="fill:black;font-family:calibri;font-size:6" x="99.2834135208598" y="192.0018867790191" >16</text>
		<text style="fill:black;font-family:calibri;font-size:6" x="103.2834135208598" y="202.39419162443235" >16</text>
		<text style="fill:black;font-family:calibri;font-size:6" x="126.99622644196182" y="177.0736835487436" >64</text>

		<path opacity="0.75" fill="pink" d="M53.962707015186794 201.11209999718005 L56.462707015186794 203.27716350664113 L105.57872777872566 194.02461315080976 L53.962707015186794 201.11209999718005"/>
		<path opacity="0.75" fill="pink" d="M53.962707015186794 201.11209999718005 L53.962707015186794 205.44222701610224 L105.57872777872566 194.02461315080976 L53.962707015186794 201.11209999718005"/>
		<path opacity="0.75" fill="pink" d="M56.462707015186794 203.27716350664113 L56.462707015186794 207.60729052556331 L105.57872777872566 194.02461315080976 L56.462707015186794 203.27716350664113"/>
		<path opacity="0.75" fill="pink" d="M53.962707015186794 205.44222701610224 L56.462707015186794 207.60729052556331 L105.57872777872566 194.02461315080976 L53.962707015186794 205.44222701610224"/>

		<text style="fill:black;font-family:calibri;font-size:6" x="72.00138060303308" y="193.0683565739949" >[5,5]</text>
		<path opacity="0.75" fill="darkturquoise" d="M53.962707015186794 201.11209999718005 L56.462707015186794 203.27716350664113 L56.462707015186794 207.60729052556331 L53.962707015186794 205.44222701610224 L53.962707015186794 201.11209999718005"/>
		<path opacity="0.75" fill="darkturquoise" d="M26.249894094084794 209.11209999718005 L28.749894094084794 211.27716350664113 L28.749894094084794 215.60729052556331 L26.249894094084794 213.44222701610224 L26.249894094084794 209.11209999718005"/>
		<path opacity="0.75" fill="darkturquoise" d="M53.962707015186794 201.11209999718005 L26.249894094084794 209.11209999718005 L26.249894094084794 213.44222701610224 L53.962707015186794 205.44222701610224 L53.962707015186794 201.11209999718005"/>
		<path opacity="0.75" fill="darkturquoise" d="M56.462707015186794 203.27716350664113 L28.749894094084794 211.27716350664113 L28.749894094084794 215.60729052556331 L56.462707015186794 207.60729052556331 L56.462707015186794 203.27716350664113"/>
		<path opacity="0.75" fill="darkturquoise" d="M53.962707015186794 201.11209999718005 L56.462707015186794 203.27716350664113 L28.749894094084794 211.27716350664113 L26.249894094084794 209.11209999718005 L53.962707015186794 201.11209999718005"/>
		<path opacity="0.75" fill="darkturquoise" d="M53.962707015186794 205.44222701610224 L56.462707015186794 207.60729052556331 L28.749894094084794 215.60729052556331 L26.249894094084794 213.44222701610224 L53.962707015186794 205.44222701610224"/>
		<path opacity="0.5" fill="orange" d="M51.98214333163784 187.18137870333032 L67.98214333163784 201.03778516388132 L67.98214333163784 228.75059808498338 L51.98214333163784 214.89419162443238 L51.98214333163784 187.18137870333032"/>
		<path opacity="0.5" fill="orange" d="M24.269330410535844 195.18137870333032 L40.269330410535844 209.03778516388132 L40.269330410535844 236.75059808498338 L24.269330410535844 222.89419162443238 L24.269330410535844 195.18137870333032"/>
		<path opacity="0.5" fill="orange" d="M51.98214333163784 187.18137870333032 L24.269330410535844 195.18137870333032 L24.269330410535844 222.89419162443238 L51.98214333163784 214.89419162443238 L51.98214333163784 187.18137870333032"/>
		<path opacity="0.5" fill="orange" d="M67.98214333163784 201.03778516388132 L40.269330410535844 209.03778516388132 L40.269330410535844 236.75059808498338 L67.98214333163784 228.75059808498338 L67.98214333163784 201.03778516388132"/>
		<path opacity="0.5" fill="orange" d="M51.98214333163784 187.18137870333032 L67.98214333163784 201.03778516388132 L40.269330410535844 209.03778516388132 L24.269330410535844 195.18137870333032 L51.98214333163784 187.18137870333032"/>
		<path opacity="0.5" fill="orange" d="M51.98214333163784 214.89419162443238 L67.98214333163784 228.75059808498338 L40.269330410535844 236.75059808498338 L24.269330410535844 222.89419162443238 L51.98214333163784 214.89419162443238"/>
		<text style="fill:black;font-family:calibri;font-size:6" x="24.269330410535844" y="209.03778516388135" >32</text>
		<text style="fill:black;font-family:calibri;font-size:6" x="32.269330410535844" y="229.82239485470788" >32</text>
		<text style="fill:black;font-family:calibri;font-size:6" x="38.12573687108684" y="191.18137870333032" >32</text>

		<path opacity="0.75" fill="pink" d="M-10.826077166581968 229.80046555023517 L-5.8260771665819675 234.13059256915733 L25.748265475988177 197.0976532966869 L-10.826077166581968 229.80046555023517"/>
		<path opacity="0.75" fill="pink" d="M-10.826077166581968 229.80046555023517 L-10.826077166581968 238.46071958807954 L25.748265475988177 197.0976532966869 L-10.826077166581968 229.80046555023517"/>
		<path opacity="0.75" fill="pink" d="M-5.8260771665819675 234.13059256915733 L-5.8260771665819675 242.79084660700175 L25.748265475988177 197.0976532966869 L-5.8260771665819675 234.13059256915733"/>
		<path opacity="0.75" fill="pink" d="M-10.826077166581968 238.46071958807954 L-5.8260771665819675 242.79084660700175 L25.748265475988177 197.0976532966869 L-10.826077166581968 238.46071958807954"/>

		<text style="fill:black;font-family:calibri;font-size:6" x="3.0320370476080805" y="208.94905942346105" >[10,10]</text>
		<path opacity="0.75" fill="darkturquoise" d="M-10.826077166581968 229.80046555023517 L-5.8260771665819675 234.13059256915733 L-5.8260771665819675 242.79084660700175 L-10.826077166581968 238.46071958807954 L-10.826077166581968 229.80046555023517"/>
		<path opacity="0.75" fill="darkturquoise" d="M-28.146585242270817 234.80046555023517 L-23.146585242270817 239.13059256915733 L-23.146585242270817 247.79084660700175 L-28.146585242270817 243.46071958807954 L-28.146585242270817 234.80046555023517"/>
		<path opacity="0.75" fill="darkturquoise" d="M-10.826077166581968 229.80046555023517 L-28.146585242270817 234.80046555023517 L-28.146585242270817 243.46071958807954 L-10.826077166581968 238.46071958807954 L-10.826077166581968 229.80046555023517"/>
		<path opacity="0.75" fill="darkturquoise" d="M-5.8260771665819675 234.13059256915733 L-23.146585242270817 239.13059256915733 L-23.146585242270817 247.79084660700175 L-5.8260771665819675 242.79084660700175 L-5.8260771665819675 234.13059256915733"/>
		<path opacity="0.75" fill="darkturquoise" d="M-10.826077166581968 229.80046555023517 L-5.8260771665819675 234.13059256915733 L-23.146585242270817 239.13059256915733 L-28.146585242270817 234.80046555023517 L-10.826077166581968 229.80046555023517"/>
		<path opacity="0.75" fill="darkturquoise" d="M-10.826077166581968 238.46071958807954 L-5.8260771665819675 242.79084660700175 L-23.146585242270817 247.79084660700175 L-28.146585242270817 243.46071958807954 L-10.826077166581968 238.46071958807954"/>
		<path opacity="0.5" fill="lavender" d="M-19.031939778686137 207.68137870333032 L-3.0319397786861373 221.53778516388132 L-3.0319397786861373 249.25059808498338 L-19.031939778686137 235.39419162443238 L-19.031939778686137 207.68137870333032"/>
		<path opacity="0.5" fill="lavender" d="M-36.35244785437487 212.68137870333032 L-20.352447854374873 226.53778516388132 L-20.352447854374873 254.25059808498338 L-36.35244785437487 240.39419162443238 L-36.35244785437487 212.68137870333032"/>
		<path opacity="0.5" fill="lavender" d="M-19.031939778686137 207.68137870333032 L-36.35244785437487 212.68137870333032 L-36.35244785437487 240.39419162443238 L-19.031939778686137 235.39419162443238 L-19.031939778686137 207.68137870333032"/>
		<path opacity="0.5" fill="lavender" d="M-3.0319397786861373 221.53778516388132 L-20.352447854374873 226.53778516388132 L-20.352447854374873 254.25059808498338 L-3.0319397786861373 249.25059808498338 L-3.0319397786861373 221.53778516388132"/>
		<path opacity="0.5" fill="lavender" d="M-19.031939778686137 207.68137870333032 L-3.0319397786861373 221.53778516388132 L-20.352447854374873 226.53778516388132 L-36.35244785437487 212.68137870333032 L-19.031939778686137 207.68137870333032"/>
		<path opacity="0.5" fill="lavender" d="M-19.031939778686137 235.39419162443238 L-3.0319397786861373 249.25059808498338 L-20.352447854374873 254.25059808498338 L-36.35244785437487 240.39419162443238 L-19.031939778686137 235.39419162443238"/>
		<text style="fill:black;font-family:calibri;font-size:6" x="-36.35244785437487" y="226.53778516388135" >32</text>
		<text style="fill:black;font-family:calibri;font-size:6" x="-28.352447854374873" y="247.32239485470788" >32</text>
		<text style="fill:black;font-family:calibri;font-size:6" x="-27.692193816530505" y="210.18137870333032" >20</text>

	 </g>
</svg>