<svg width="1000.0px" height="1000.0px" viewBox="-500.0 -500.0 1000.0 1000.0" xmlns="http://www.w3.org/2000/svg">
	<g stroke="black" stroke-width="0.3">
		<path opacity="0.75" fill="darkturquoise" d="M471.628750427021 -180.3869573849588 L476.628750427021 -176.0568303660366 L476.628750427021 -2.8517496091488397 L471.628750427021 -7.181876628071038 L471.628750427021 -180.3869573849588"/>
		<path opacity="0.75" fill="darkturquoise" d="M462.9684963891766 -177.8869573849588 L467.9684963891766 -173.5568303660366 L467.9684963891766 -0.3517496091488397 L462.9684963891766 -4.681876628071038 L462.9684963891766 -177.8869573849588"/>
		<path opacity="0.75" fill="darkturquoise" d="M471.628750427021 -180.3869573849588 L462.9684963891766 -177.8869573849588 L462.9684963891766 -4.681876628071038 L471.628750427021 -7.181876628071038 L471.628750427021 -180.3869573849588"/>
		<path opacity="0.75" fill="darkturquoise" d="M476.628750427021 -176.0568303660366 L467.9684963891766 -173.5568303660366 L467.9684963891766 -0.3517496091488397 L476.628750427021 -2.8517496091488397 L476.628750427021 -176.0568303660366"/>
		<path opacity="0.75" fill="darkturquoise" d="M471.628750427021 -180.3869573849588 L476.628750427021 -176.0568303660366 L467.9684963891766 -173.5568303660366 L462.9684963891766 -177.8869573849588 L471.628750427021 -180.3869573849588"/>
		<path opacity="0.75" fill="darkturquoise" d="M471.628750427021 -7.181876628071038 L476.628750427021 -2.8517496091488397 L467.9684963891766 -0.3517496091488397 L462.9684963891766 -4.681876628071038 L471.628750427021 -7.181876628071038"/>
		<text x="462.9684963891766" y="-91.28441700651493" font-family="calibri" font-size="4">200</text>
		<text x="465.4684963891766" y="-2.5168131186099387" font-family="calibri" font-size="4">10</text>
		<text x="467.2986234080988" y="-179.1369573849588" font-family="calibri" font-size="4">10</text>

<!-- Arrow -->
		<path opacity="0.5" stroke="black" d="M422.16722619995465 -76.61935349705382 L465.4684963891766 -89.11935349705382"/>
		<circle opacity="0.5" cx="465.4684963891766" cy="-89.11935349705382" r="1" fill="black" />
		<path opacity="0.75" fill="darkturquoise" d="M419.66722619995465 -165.3869573849588 L424.66722619995465 -161.0568303660366 L424.66722619995465 12.14825039085116 L419.66722619995465 7.818123371928962 L419.66722619995465 -165.3869573849588"/>
		<path opacity="0.75" fill="darkturquoise" d="M411.0069721621103 -162.8869573849588 L416.0069721621103 -158.5568303660366 L416.0069721621103 14.64825039085116 L411.0069721621103 10.318123371928962 L411.0069721621103 -162.8869573849588"/>
		<path opacity="0.75" fill="darkturquoise" d="M419.66722619995465 -165.3869573849588 L411.0069721621103 -162.8869573849588 L411.0069721621103 10.318123371928962 L419.66722619995465 7.818123371928962 L419.66722619995465 -165.3869573849588"/>
		<path opacity="0.75" fill="darkturquoise" d="M424.66722619995465 -161.0568303660366 L416.0069721621103 -158.5568303660366 L416.0069721621103 14.64825039085116 L424.66722619995465 12.14825039085116 L424.66722619995465 -161.0568303660366"/>
		<path opacity="0.75" fill="darkturquoise" d="M419.66722619995465 -165.3869573849588 L424.66722619995465 -161.0568303660366 L416.0069721621103 -158.5568303660366 L411.0069721621103 -162.8869573849588 L419.66722619995465 -165.3869573849588"/>
		<path opacity="0.75" fill="darkturquoise" d="M419.66722619995465 7.818123371928962 L424.66722619995465 12.14825039085116 L416.0069721621103 14.64825039085116 L411.0069721621103 10.318123371928962 L419.66722619995465 7.818123371928962"/>
		<text x="411.0069721621103" y="-76.28441700651493" font-family="calibri" font-size="4">200</text>
		<text x="413.5069721621103" y="12.483186881390061" font-family="calibri" font-size="4">10</text>
		<text x="415.3370991810325" y="-164.1369573849588" font-family="calibri" font-size="4">10</text>

		<path opacity="0.5" fill="orange" d="M297.1720588025886 -83.332445428599 L301.1720588025886 -79.86834381346125 L301.1720588025886 -72.94014058318574 L297.1720588025886 -76.40424219832349 L297.1720588025886 -83.332445428599"/>
		<path opacity="0.5" fill="orange" d="M241.74643296038454 -67.332445428599 L245.74643296038454 -63.86834381346125 L245.74643296038454 -56.94014058318574 L241.74643296038454 -60.404242198323495 L241.74643296038454 -67.332445428599"/>
		<path opacity="0.5" fill="orange" d="M297.1720588025886 -83.332445428599 L241.74643296038454 -67.332445428599 L241.74643296038454 -60.404242198323495 L297.1720588025886 -76.40424219832349 L297.1720588025886 -83.332445428599"/>
		<path opacity="0.5" fill="orange" d="M301.1720588025886 -79.86834381346125 L245.74643296038454 -63.86834381346125 L245.74643296038454 -56.94014058318574 L301.1720588025886 -72.94014058318574 L301.1720588025886 -79.86834381346125"/>
		<path opacity="0.5" fill="orange" d="M297.1720588025886 -83.332445428599 L301.1720588025886 -79.86834381346125 L245.74643296038454 -63.86834381346125 L241.74643296038454 -67.332445428599 L297.1720588025886 -83.332445428599"/>
		<path opacity="0.5" fill="orange" d="M297.1720588025886 -76.40424219832349 L301.1720588025886 -72.94014058318574 L245.74643296038454 -56.94014058318574 L241.74643296038454 -60.404242198323495 L297.1720588025886 -76.40424219832349"/>
		<text x="241.74643296038454" y="-63.86834381346125" font-family="calibri" font-size="4">8</text>
		<text x="243.74643296038454" y="-58.67219139075462" font-family="calibri" font-size="4">8</text>
		<text x="269.4592458814866" y="-75.332445428599" font-family="calibri" font-size="4">64</text>

<!-- Arrow -->
		<path opacity="0.5" stroke="black" d="M299.1720588025886 -78.13629300589237 L361.54544793504397 -59.11935349705382"/>
		<circle opacity="0.5" cx="361.54544793504397" cy="-59.11935349705382" r="1" fill="black" />
<!-- Arrow -->
		<path opacity="0.5" stroke="black" d="M370.20570197288833 -61.61935349705382 L413.5069721621103 -74.11935349705382"/>
		<circle opacity="0.5" cx="413.5069721621103" cy="-74.11935349705382" r="1" fill="black" />
		<path opacity="0.75" fill="darkturquoise" d="M367.70570197288833 -150.3869573849588 L372.70570197288833 -146.0568303660366 L372.70570197288833 27.14825039085116 L367.70570197288833 22.818123371928962 L367.70570197288833 -150.3869573849588"/>
		<path opacity="0.75" fill="darkturquoise" d="M359.04544793504397 -147.8869573849588 L364.04544793504397 -143.5568303660366 L364.04544793504397 29.64825039085116 L359.04544793504397 25.318123371928962 L359.04544793504397 -147.8869573849588"/>
		<path opacity="0.75" fill="darkturquoise" d="M367.70570197288833 -150.3869573849588 L359.04544793504397 -147.8869573849588 L359.04544793504397 25.318123371928962 L367.70570197288833 22.818123371928962 L367.70570197288833 -150.3869573849588"/>
		<path opacity="0.75" fill="darkturquoise" d="M372.70570197288833 -146.0568303660366 L364.04544793504397 -143.5568303660366 L364.04544793504397 29.64825039085116 L372.70570197288833 27.14825039085116 L372.70570197288833 -146.0568303660366"/>
		<path opacity="0.75" fill="darkturquoise" d="M367.70570197288833 -150.3869573849588 L372.70570197288833 -146.0568303660366 L364.04544793504397 -143.5568303660366 L359.04544793504397 -147.8869573849588 L367.70570197288833 -150.3869573849588"/>
		<path opacity="0.75" fill="darkturquoise" d="M367.70570197288833 22.818123371928962 L372.70570197288833 27.14825039085116 L364.04544793504397 29.64825039085116 L359.04544793504397 25.318123371928962 L367.70570197288833 22.818123371928962"/>
		<text x="359.04544793504397" y="-61.28441700651492" font-family="calibri" font-size="4">200</text>
		<text x="361.54544793504397" y="27.48318688139006" font-family="calibri" font-size="4">10</text>
		<text x="363.3755749539662" y="-149.1369573849588" font-family="calibri" font-size="4">10</text>

		<path opacity="0.75" fill="pink" d="M198.97402557700403 -54.357550767294896 L201.47402557700403 -52.192487257833804 L243.13742386908538 -63.806784349854865 L198.97402557700403 -54.357550767294896"/>
		<path opacity="0.75" fill="pink" d="M198.97402557700403 -54.357550767294896 L198.97402557700403 -50.027423748372705 L243.13742386908538 -63.806784349854865 L198.97402557700403 -54.357550767294896"/>
		<path opacity="0.75" fill="pink" d="M201.47402557700403 -52.192487257833804 L201.47402557700403 -47.862360238911606 L243.13742386908538 -63.806784349854865 L201.47402557700403 -52.192487257833804"/>
		<path opacity="0.75" fill="pink" d="M198.97402557700403 -50.027423748372705 L201.47402557700403 -47.862360238911606 L243.13742386908538 -63.806784349854865 L198.97402557700403 -50.027423748372705"/>

		<path opacity="0.75" fill="darkturquoise" d="M198.97402557700403 -54.357550767294896 L201.47402557700403 -52.192487257833804 L201.47402557700403 -47.862360238911606 L198.97402557700403 -50.027423748372705 L198.97402557700403 -54.357550767294896"/>
		<path opacity="0.75" fill="darkturquoise" d="M143.54839973479997 -38.357550767294896 L146.04839973479997 -36.192487257833804 L146.04839973479997 -31.86236023891161 L143.54839973479997 -34.027423748372705 L143.54839973479997 -38.357550767294896"/>
		<path opacity="0.75" fill="darkturquoise" d="M198.97402557700403 -54.357550767294896 L143.54839973479997 -38.357550767294896 L143.54839973479997 -34.027423748372705 L198.97402557700403 -50.027423748372705 L198.97402557700403 -54.357550767294896"/>
		<path opacity="0.75" fill="darkturquoise" d="M201.47402557700403 -52.192487257833804 L146.04839973479997 -36.192487257833804 L146.04839973479997 -31.86236023891161 L201.47402557700403 -47.862360238911606 L201.47402557700403 -52.192487257833804"/>
		<path opacity="0.75" fill="darkturquoise" d="M198.97402557700403 -54.357550767294896 L201.47402557700403 -52.192487257833804 L146.04839973479997 -36.192487257833804 L143.54839973479997 -38.357550767294896 L198.97402557700403 -54.357550767294896"/>
		<path opacity="0.75" fill="darkturquoise" d="M198.97402557700403 -50.027423748372705 L201.47402557700403 -47.862360238911606 L146.04839973479997 -31.86236023891161 L143.54839973479997 -34.027423748372705 L198.97402557700403 -50.027423748372705"/>
		<text x="143.54839973479997" y="-36.192487257833804" font-family="calibri" font-size="4">5</text>
		<text x="144.79839973479997" y="-32.94489199364216" font-family="calibri" font-size="4">5</text>
		<text x="171.261212655902" y="-46.357550767294896" font-family="calibri" font-size="4">64</text>

		<path opacity="0.5" fill="orange" d="M198.4451627711626 -54.832445428599 L202.4451627711626 -51.36834381346125 L202.4451627711626 -44.44014058318574 L198.4451627711626 -47.904242198323495 L198.4451627711626 -54.832445428599"/>
		<path opacity="0.5" fill="orange" d="M143.01953692895853 -38.832445428599 L147.01953692895853 -35.36834381346125 L147.01953692895853 -28.440140583185737 L143.01953692895853 -31.904242198323495 L143.01953692895853 -38.832445428599"/>
		<path opacity="0.5" fill="orange" d="M198.4451627711626 -54.832445428599 L143.01953692895853 -38.832445428599 L143.01953692895853 -31.904242198323495 L198.4451627711626 -47.904242198323495 L198.4451627711626 -54.832445428599"/>
		<path opacity="0.5" fill="orange" d="M202.4451627711626 -51.36834381346125 L147.01953692895853 -35.36834381346125 L147.01953692895853 -28.440140583185737 L202.4451627711626 -44.44014058318574 L202.4451627711626 -51.36834381346125"/>
		<path opacity="0.5" fill="orange" d="M198.4451627711626 -54.832445428599 L202.4451627711626 -51.36834381346125 L147.01953692895853 -35.36834381346125 L143.01953692895853 -38.832445428599 L198.4451627711626 -54.832445428599"/>
		<path opacity="0.5" fill="orange" d="M198.4451627711626 -47.904242198323495 L202.4451627711626 -44.44014058318574 L147.01953692895853 -28.440140583185737 L143.01953692895853 -31.904242198323495 L198.4451627711626 -47.904242198323495"/>
		<text x="143.01953692895853" y="-35.36834381346125" font-family="calibri" font-size="4">8</text>
		<text x="145.01953692895853" y="-30.172191390754616" font-family="calibri" font-size="4">8</text>
		<text x="170.73234985006056" y="-46.832445428599" font-family="calibri" font-size="4">64</text>

<!-- Arrow -->
		<path opacity="0.5" stroke="black" d="M93.33364779650317 -43.39758601178475 L145.01953692895853 -33.63629300589237"/>
		<circle opacity="0.5" cx="145.01953692895853" cy="-33.63629300589237" r="1" fill="black" />
		<path opacity="0.5" fill="orange" d="M91.33364779650317 -48.59373843449138 L95.33364779650317 -45.12963681935363 L95.33364779650317 -38.20143358907812 L91.33364779650317 -41.665535204215864 L91.33364779650317 -48.59373843449138"/>
		<path opacity="0.5" fill="orange" d="M35.9080219542991 -32.59373843449138 L39.9080219542991 -29.129636819353628 L39.9080219542991 -22.201433589078118 L35.9080219542991 -25.665535204215864 L35.9080219542991 -32.59373843449138"/>
		<path opacity="0.5" fill="orange" d="M91.33364779650317 -48.59373843449138 L35.9080219542991 -32.59373843449138 L35.9080219542991 -25.665535204215864 L91.33364779650317 -41.665535204215864 L91.33364779650317 -48.59373843449138"/>
		<path opacity="0.5" fill="orange" d="M95.33364779650317 -45.12963681935363 L39.9080219542991 -29.129636819353628 L39.9080219542991 -22.201433589078118 L95.33364779650317 -38.20143358907812 L95.33364779650317 -45.12963681935363"/>
		<path opacity="0.5" fill="orange" d="M91.33364779650317 -48.59373843449138 L95.33364779650317 -45.12963681935363 L39.9080219542991 -29.129636819353628 L35.9080219542991 -32.59373843449138 L91.33364779650317 -48.59373843449138"/>
		<path opacity="0.5" fill="orange" d="M91.33364779650317 -41.665535204215864 L95.33364779650317 -38.20143358907812 L39.9080219542991 -22.201433589078118 L35.9080219542991 -25.665535204215864 L91.33364779650317 -41.665535204215864"/>
		<text x="35.9080219542991" y="-29.12963681935362" font-family="calibri" font-size="4">8</text>
		<text x="37.9080219542991" y="-23.93348439664699" font-family="calibri" font-size="4">8</text>
		<text x="63.62083487540114" y="-40.59373843449138" font-family="calibri" font-size="4">64</text>

<!-- Arrow -->
		<path opacity="0.5" stroke="black" d="M277.5605438279292 2.147586011784747 L361.54544793504397 -59.11935349705382"/>
		<circle opacity="0.5" cx="361.54544793504397" cy="-59.11935349705382" r="1" fill="black" />
		<path opacity="0.75" fill="pink" d="M-8.10091141889373 -21.94094804833931 L-5.60091141889373 -19.775884538878216 L36.84254679896057 -28.8842237095922 L-8.10091141889373 -21.94094804833931"/>
		<path opacity="0.75" fill="pink" d="M-8.10091141889373 -21.94094804833931 L-8.10091141889373 -17.610821029417117 L36.84254679896057 -28.8842237095922 L-8.10091141889373 -21.94094804833931"/>
		<path opacity="0.75" fill="pink" d="M-5.60091141889373 -19.775884538878216 L-5.60091141889373 -15.445757519956018 L36.84254679896057 -28.8842237095922 L-5.60091141889373 -19.775884538878216"/>
		<path opacity="0.75" fill="pink" d="M-8.10091141889373 -17.610821029417117 L-5.60091141889373 -15.445757519956018 L36.84254679896057 -28.8842237095922 L-8.10091141889373 -17.610821029417117"/>

<!-- Arrow -->
		<path opacity="0.5" stroke="black" d="M50.34713282184376 18.375 L145.01953692895853 -33.63629300589237"/>
		<circle opacity="0.5" cx="145.01953692895853" cy="-33.63629300589237" r="1" fill="black" />
		<path opacity="0.75" fill="darkturquoise" d="M-8.10091141889373 -21.94094804833931 L-5.60091141889373 -19.775884538878216 L-5.60091141889373 -15.445757519956018 L-8.10091141889373 -17.610821029417117 L-8.10091141889373 -21.94094804833931"/>
		<path opacity="0.75" fill="darkturquoise" d="M-63.526537261097786 -5.940948048339308 L-61.026537261097786 -3.7758845388782163 L-61.026537261097786 0.5542424800439818 L-63.526537261097786 -1.6108210294171172 L-63.526537261097786 -5.940948048339308"/>
		<path opacity="0.75" fill="darkturquoise" d="M-8.10091141889373 -21.94094804833931 L-63.526537261097786 -5.940948048339308 L-63.526537261097786 -1.6108210294171172 L-8.10091141889373 -17.610821029417117 L-8.10091141889373 -21.94094804833931"/>
		<path opacity="0.75" fill="darkturquoise" d="M-5.60091141889373 -19.775884538878216 L-61.026537261097786 -3.7758845388782163 L-61.026537261097786 0.5542424800439818 L-5.60091141889373 -15.445757519956018 L-5.60091141889373 -19.775884538878216"/>
		<path opacity="0.75" fill="darkturquoise" d="M-8.10091141889373 -21.94094804833931 L-5.60091141889373 -19.775884538878216 L-61.026537261097786 -3.7758845388782163 L-63.526537261097786 -5.940948048339308 L-8.10091141889373 -21.94094804833931"/>
		<path opacity="0.75" fill="darkturquoise" d="M-8.10091141889373 -17.610821029417117 L-5.60091141889373 -15.445757519956018 L-61.026537261097786 0.5542424800439818 L-63.526537261097786 -1.6108210294171172 L-8.10091141889373 -17.610821029417117"/>
		<text x="-63.526537261097786" y="-3.7758845388782127" font-family="calibri" font-size="4">5</text>
		<text x="-62.276537261097786" y="-0.5282892746865677" font-family="calibri" font-size="4">5</text>
		<text x="-35.81372433999576" y="-13.940948048339308" font-family="calibri" font-size="4">64</text>

		<path opacity="0.5" fill="orange" d="M-9.393248234922822 -25.289890857198003 L-1.3932482349228223 -18.361687626922496 L-1.3932482349228223 -4.5052811663714785 L-9.393248234922822 -11.433484396646989 L-9.393248234922822 -25.289890857198003"/>
		<path opacity="0.5" fill="orange" d="M-64.81887407712688 -9.289890857198003 L-56.81887407712688 -2.361687626922496 L-56.81887407712688 11.494718833628522 L-64.81887407712688 4.566515603353011 L-64.81887407712688 -9.289890857198003"/>
		<path opacity="0.5" fill="orange" d="M-9.393248234922822 -25.289890857198003 L-64.81887407712688 -9.289890857198003 L-64.81887407712688 4.566515603353011 L-9.393248234922822 -11.433484396646989 L-9.393248234922822 -25.289890857198003"/>
		<path opacity="0.5" fill="orange" d="M-1.3932482349228223 -18.361687626922496 L-56.81887407712688 -2.361687626922496 L-56.81887407712688 11.494718833628522 L-1.3932482349228223 -4.5052811663714785 L-1.3932482349228223 -18.361687626922496"/>
		<path opacity="0.5" fill="orange" d="M-9.393248234922822 -25.289890857198003 L-1.3932482349228223 -18.361687626922496 L-56.81887407712688 -2.361687626922496 L-64.81887407712688 -9.289890857198003 L-9.393248234922822 -25.289890857198003"/>
		<path opacity="0.5" fill="orange" d="M-9.393248234922822 -11.433484396646989 L-1.3932482349228223 -4.5052811663714785 L-56.81887407712688 11.494718833628522 L-64.81887407712688 4.566515603353011 L-9.393248234922822 -11.433484396646989"/>
		<text x="-64.81887407712688" y="-2.361687626922496" font-family="calibri" font-size="4">16</text>
		<text x="-60.81887407712688" y="8.030617218490766" font-family="calibri" font-size="4">16</text>
		<text x="-37.10606115602485" y="-17.289890857198003" font-family="calibri" font-size="4">64</text>

<!-- Arrow -->
		<path opacity="0.5" stroke="black" d="M-105.37976320958228 -2.4884480157129936 L-60.81887407712688 1.1024139882152584"/>
		<circle opacity="0.5" cx="-60.81887407712688" cy="1.1024139882152584" r="1" fill="black" />
		<path opacity="0.5" fill="orange" d="M-109.37976320958228 -12.880752861126254 L-101.37976320958228 -5.952549630850747 L-101.37976320958228 7.903856829700267 L-109.37976320958228 0.9756535994247599 L-109.37976320958228 -12.880752861126254"/>
		<path opacity="0.5" fill="orange" d="M-164.80538905178634 3.119247138873746 L-156.80538905178634 10.047450369149253 L-156.80538905178634 23.903856829700267 L-164.80538905178634 16.97565359942476 L-164.80538905178634 3.119247138873746"/>
		<path opacity="0.5" fill="orange" d="M-109.37976320958228 -12.880752861126254 L-164.80538905178634 3.119247138873746 L-164.80538905178634 16.97565359942476 L-109.37976320958228 0.9756535994247599 L-109.37976320958228 -12.880752861126254"/>
		<path opacity="0.5" fill="orange" d="M-101.37976320958228 -5.952549630850747 L-156.80538905178634 10.047450369149253 L-156.80538905178634 23.903856829700267 L-101.37976320958228 7.903856829700267 L-101.37976320958228 -5.952549630850747"/>
		<path opacity="0.5" fill="orange" d="M-109.37976320958228 -12.880752861126254 L-101.37976320958228 -5.952549630850747 L-156.80538905178634 10.047450369149253 L-164.80538905178634 3.119247138873746 L-109.37976320958228 -12.880752861126254"/>
		<path opacity="0.5" fill="orange" d="M-109.37976320958228 0.9756535994247599 L-101.37976320958228 7.903856829700267 L-156.80538905178634 23.903856829700267 L-164.80538905178634 16.97565359942476 L-109.37976320958228 0.9756535994247599"/>
		<text x="-164.80538905178634" y="10.047450369149253" font-family="calibri" font-size="4">16</text>
		<text x="-160.80538905178634" y="20.439755214562513" font-family="calibri" font-size="4">16</text>
		<text x="-137.0925761306843" y="-4.880752861126254" font-family="calibri" font-size="4">64</text>

		<path opacity="0.5" fill="orange" d="M275.5605438279292 -3.0485664109218824 L279.5605438279292 0.415535204215864 L279.5605438279292 7.343738434491378 L275.5605438279292 3.879636819353628 L275.5605438279292 -3.0485664109218824"/>
		<path opacity="0.5" fill="orange" d="M220.1349179857251 12.951433589078118 L224.1349179857251 16.415535204215864 L224.1349179857251 23.343738434491378 L220.1349179857251 19.879636819353628 L220.1349179857251 12.951433589078118"/>
		<path opacity="0.5" fill="orange" d="M275.5605438279292 -3.0485664109218824 L220.1349179857251 12.951433589078118 L220.1349179857251 19.879636819353628 L275.5605438279292 3.879636819353628 L275.5605438279292 -3.0485664109218824"/>
		<path opacity="0.5" fill="orange" d="M279.5605438279292 0.415535204215864 L224.1349179857251 16.415535204215864 L224.1349179857251 23.343738434491378 L279.5605438279292 7.343738434491378 L279.5605438279292 0.415535204215864"/>
		<path opacity="0.5" fill="orange" d="M275.5605438279292 -3.0485664109218824 L279.5605438279292 0.415535204215864 L224.1349179857251 16.415535204215864 L220.1349179857251 12.951433589078118 L275.5605438279292 -3.0485664109218824"/>
		<path opacity="0.5" fill="orange" d="M275.5605438279292 3.879636819353628 L279.5605438279292 7.343738434491378 L224.1349179857251 23.343738434491378 L220.1349179857251 19.879636819353628 L275.5605438279292 3.879636819353628"/>
		<text x="220.1349179857251" y="16.41553520421587" font-family="calibri" font-size="4">8</text>
		<text x="222.1349179857251" y="21.611687626922503" font-family="calibri" font-size="4">8</text>
		<text x="247.84773090682717" y="4.951433589078118" font-family="calibri" font-size="4">64</text>

<!-- Arrow -->
		<path opacity="0.5" stroke="black" d="M-76.87976320958225 22.193275992143505 L-60.81887407712688 1.1024139882152584"/>
		<circle opacity="0.5" cx="-60.81887407712688" cy="1.1024139882152584" r="1" fill="black" />
		<path opacity="0.75" fill="pink" d="M-206.95110139289977 31.75140259839005 L-204.45110139289977 33.91646610785115 L-162.16863189538674 12.7083312141106 L-206.95110139289977 31.75140259839005"/>
		<path opacity="0.75" fill="pink" d="M-206.95110139289977 31.75140259839005 L-206.95110139289977 36.08152961731224 L-162.16863189538674 12.7083312141106 L-206.95110139289977 31.75140259839005"/>
		<path opacity="0.75" fill="pink" d="M-204.45110139289977 33.91646610785115 L-204.45110139289977 38.24659312677334 L-162.16863189538674 12.7083312141106 L-204.45110139289977 33.91646610785115"/>
		<path opacity="0.75" fill="pink" d="M-206.95110139289977 36.08152961731224 L-204.45110139289977 38.24659312677334 L-162.16863189538674 12.7083312141106 L-206.95110139289977 36.08152961731224"/>

		<path opacity="0.5" fill="orange" d="M48.34713282184376 13.178847577293368 L52.347132821843765 16.64294919243112 L52.347132821843765 23.571152422706632 L48.34713282184376 20.10705080756888 L48.34713282184376 13.178847577293368"/>
		<path opacity="0.5" fill="orange" d="M-7.0784930203603125 29.178847577293368 L-3.0784930203603125 32.642949192431125 L-3.0784930203603125 39.57115242270663 L-7.0784930203603125 36.107050807568875 L-7.0784930203603125 29.178847577293368"/>
		<path opacity="0.5" fill="orange" d="M48.34713282184376 13.178847577293368 L-7.0784930203603125 29.178847577293368 L-7.0784930203603125 36.107050807568875 L48.34713282184376 20.10705080756888 L48.34713282184376 13.178847577293368"/>
		<path opacity="0.5" fill="orange" d="M52.347132821843765 16.64294919243112 L-3.0784930203603125 32.642949192431125 L-3.0784930203603125 39.57115242270663 L52.347132821843765 23.571152422706632 L52.347132821843765 16.64294919243112"/>
		<path opacity="0.5" fill="orange" d="M48.34713282184376 13.178847577293368 L52.347132821843765 16.64294919243112 L-3.0784930203603125 32.642949192431125 L-7.0784930203603125 29.178847577293368 L48.34713282184376 13.178847577293368"/>
		<path opacity="0.5" fill="orange" d="M48.34713282184376 20.10705080756888 L52.347132821843765 23.571152422706632 L-3.0784930203603125 39.57115242270663 L-7.0784930203603125 36.107050807568875 L48.34713282184376 20.10705080756888"/>
		<text x="-7.0784930203603125" y="32.64294919243112" font-family="calibri" font-size="4">8</text>
		<text x="-5.0784930203603125" y="37.83910161513775" font-family="calibri" font-size="4">8</text>
		<text x="20.634319900741723" y="21.178847577293368" font-family="calibri" font-size="4">64</text>

		<path opacity="0.75" fill="pink" d="M177.78586018999255 28.16695088562787 L180.28586018999255 30.33201439508897 L223.3353301616017 18.648978539127363 L177.78586018999255 28.16695088562787"/>
		<path opacity="0.75" fill="pink" d="M177.78586018999255 28.16695088562787 L177.78586018999255 32.49707790455007 L223.3353301616017 18.648978539127363 L177.78586018999255 28.16695088562787"/>
		<path opacity="0.75" fill="pink" d="M180.28586018999255 30.33201439508897 L180.28586018999255 34.66214141401116 L223.3353301616017 18.648978539127363 L180.28586018999255 30.33201439508897"/>
		<path opacity="0.75" fill="pink" d="M177.78586018999255 32.49707790455007 L180.28586018999255 34.66214141401116 L223.3353301616017 18.648978539127363 L177.78586018999255 32.49707790455007"/>

		<path opacity="0.75" fill="darkturquoise" d="M-206.95110139289977 31.75140259839005 L-204.45110139289977 33.91646610785115 L-204.45110139289977 38.24659312677334 L-206.95110139289977 36.08152961731224 L-206.95110139289977 31.75140259839005"/>
		<path opacity="0.75" fill="darkturquoise" d="M-234.66391431400183 39.75140259839005 L-232.16391431400183 41.91646610785115 L-232.16391431400183 46.24659312677334 L-234.66391431400183 44.08152961731224 L-234.66391431400183 39.75140259839005"/>
		<path opacity="0.75" fill="darkturquoise" d="M-206.95110139289977 31.75140259839005 L-234.66391431400183 39.75140259839005 L-234.66391431400183 44.08152961731224 L-206.95110139289977 36.08152961731224 L-206.95110139289977 31.75140259839005"/>
		<path opacity="0.75" fill="darkturquoise" d="M-204.45110139289977 33.91646610785115 L-232.16391431400183 41.91646610785115 L-232.16391431400183 46.24659312677334 L-204.45110139289977 38.24659312677334 L-204.45110139289977 33.91646610785115"/>
		<path opacity="0.75" fill="darkturquoise" d="M-206.95110139289977 31.75140259839005 L-204.45110139289977 33.91646610785115 L-232.16391431400183 41.91646610785115 L-234.66391431400183 39.75140259839005 L-206.95110139289977 31.75140259839005"/>
		<path opacity="0.75" fill="darkturquoise" d="M-206.95110139289977 36.08152961731224 L-204.45110139289977 38.24659312677334 L-232.16391431400183 46.24659312677334 L-234.66391431400183 44.08152961731224 L-206.95110139289977 36.08152961731224"/>
		<text x="-234.66391431400183" y="41.91646610785115" font-family="calibri" font-size="4">5</text>
		<text x="-233.41391431400183" y="45.164061372042795" font-family="calibri" font-size="4">5</text>
		<text x="-220.8075078534508" y="35.75140259839005" font-family="calibri" font-size="4">32</text>

		<path opacity="0.5" fill="orange" d="M-212.10665924100823 5.226942293460482 L-196.10665924100823 19.083348754011496 L-196.10665924100823 46.79616167511354 L-212.10665924100823 32.93975521456252 L-212.10665924100823 5.226942293460482"/>
		<path opacity="0.5" fill="orange" d="M-239.8194721621103 13.226942293460482 L-223.8194721621103 27.083348754011496 L-223.8194721621103 54.79616167511354 L-239.8194721621103 40.93975521456252 L-239.8194721621103 13.226942293460482"/>
		<path opacity="0.5" fill="orange" d="M-212.10665924100823 5.226942293460482 L-239.8194721621103 13.226942293460482 L-239.8194721621103 40.93975521456252 L-212.10665924100823 32.93975521456252 L-212.10665924100823 5.226942293460482"/>
		<path opacity="0.5" fill="orange" d="M-196.10665924100823 19.083348754011496 L-223.8194721621103 27.083348754011496 L-223.8194721621103 54.79616167511354 L-196.10665924100823 46.79616167511354 L-196.10665924100823 19.083348754011496"/>
		<path opacity="0.5" fill="orange" d="M-212.10665924100823 5.226942293460482 L-196.10665924100823 19.083348754011496 L-223.8194721621103 27.083348754011496 L-239.8194721621103 13.226942293460482 L-212.10665924100823 5.226942293460482"/>
		<path opacity="0.5" fill="orange" d="M-212.10665924100823 32.93975521456252 L-196.10665924100823 46.79616167511354 L-223.8194721621103 54.79616167511354 L-239.8194721621103 40.93975521456252 L-212.10665924100823 32.93975521456252"/>
		<text x="-239.8194721621103" y="27.0833487540115" font-family="calibri" font-size="4">32</text>
		<text x="-231.8194721621103" y="47.867958444838024" font-family="calibri" font-size="4">32</text>
		<text x="-225.96306570155926" y="9.226942293460482" font-family="calibri" font-size="4">32</text>

		<path opacity="0.5" fill="orange" d="M-80.87976320958225 11.800971146730241 L-72.87976320958225 18.729174377005748 L-72.87976320958225 32.58558083755677 L-80.87976320958225 25.65737760728126 L-80.87976320958225 11.800971146730241"/>
		<path opacity="0.5" fill="orange" d="M-136.3053890517863 27.80097114673024 L-128.3053890517863 34.72917437700575 L-128.3053890517863 48.58558083755677 L-136.3053890517863 41.65737760728126 L-136.3053890517863 27.80097114673024"/>
		<path opacity="0.5" fill="orange" d="M-80.87976320958225 11.800971146730241 L-136.3053890517863 27.80097114673024 L-136.3053890517863 41.65737760728126 L-80.87976320958225 25.65737760728126 L-80.87976320958225 11.800971146730241"/>
		<path opacity="0.5" fill="orange" d="M-72.87976320958225 18.729174377005748 L-128.3053890517863 34.72917437700575 L-128.3053890517863 48.58558083755677 L-72.87976320958225 32.58558083755677 L-72.87976320958225 18.729174377005748"/>
		<path opacity="0.5" fill="orange" d="M-80.87976320958225 11.800971146730241 L-72.87976320958225 18.729174377005748 L-128.3053890517863 34.72917437700575 L-136.3053890517863 27.80097114673024 L-80.87976320958225 11.800971146730241"/>
		<path opacity="0.5" fill="orange" d="M-80.87976320958225 25.65737760728126 L-72.87976320958225 32.58558083755677 L-128.3053890517863 48.58558083755677 L-136.3053890517863 41.65737760728126 L-80.87976320958225 25.65737760728126"/>
		<text x="-136.3053890517863" y="34.72917437700575" font-family="calibri" font-size="4">16</text>
		<text x="-132.3053890517863" y="45.12147922241901" font-family="calibri" font-size="4">16</text>
		<text x="-108.59257613068428" y="19.80097114673024" font-family="calibri" font-size="4">64</text>

		<path opacity="0.75" fill="darkturquoise" d="M177.78586018999255 28.16695088562787 L180.28586018999255 30.33201439508897 L180.28586018999255 34.66214141401116 L177.78586018999255 32.49707790455007 L177.78586018999255 28.16695088562787"/>
		<path opacity="0.75" fill="darkturquoise" d="M122.36023434778846 44.16695088562787 L124.86023434778846 46.33201439508897 L124.86023434778846 50.66214141401116 L122.36023434778846 48.49707790455007 L122.36023434778846 44.16695088562787"/>
		<path opacity="0.75" fill="darkturquoise" d="M177.78586018999255 28.16695088562787 L122.36023434778846 44.16695088562787 L122.36023434778846 48.49707790455007 L177.78586018999255 32.49707790455007 L177.78586018999255 28.16695088562787"/>
		<path opacity="0.75" fill="darkturquoise" d="M180.28586018999255 30.33201439508897 L124.86023434778846 46.33201439508897 L124.86023434778846 50.66214141401116 L180.28586018999255 34.66214141401116 L180.28586018999255 30.33201439508897"/>
		<path opacity="0.75" fill="darkturquoise" d="M177.78586018999255 28.16695088562787 L180.28586018999255 30.33201439508897 L124.86023434778846 46.33201439508897 L122.36023434778846 44.16695088562787 L177.78586018999255 28.16695088562787"/>
		<path opacity="0.75" fill="darkturquoise" d="M177.78586018999255 32.49707790455007 L180.28586018999255 34.66214141401116 L124.86023434778846 50.66214141401116 L122.36023434778846 48.49707790455007 L177.78586018999255 32.49707790455007"/>
		<text x="122.36023434778846" y="46.33201439508897" font-family="calibri" font-size="4">5</text>
		<text x="123.61023434778846" y="49.579609659280614" font-family="calibri" font-size="4">5</text>
		<text x="150.0730472688905" y="36.16695088562787" font-family="calibri" font-size="4">64</text>

		<path opacity="0.5" fill="orange" d="M176.8336477965032 25.451433589078118 L180.8336477965032 28.915535204215864 L180.8336477965032 35.84373843449138 L176.8336477965032 32.37963681935363 L176.8336477965032 25.451433589078118"/>
		<path opacity="0.5" fill="orange" d="M121.40802195429913 41.45143358907812 L125.40802195429913 44.915535204215864 L125.40802195429913 51.84373843449138 L121.40802195429913 48.37963681935363 L121.40802195429913 41.45143358907812"/>
		<path opacity="0.5" fill="orange" d="M176.8336477965032 25.451433589078118 L121.40802195429913 41.45143358907812 L121.40802195429913 48.37963681935363 L176.8336477965032 32.37963681935363 L176.8336477965032 25.451433589078118"/>
		<path opacity="0.5" fill="orange" d="M180.8336477965032 28.915535204215864 L125.40802195429913 44.915535204215864 L125.40802195429913 51.84373843449138 L180.8336477965032 35.84373843449138 L180.8336477965032 28.915535204215864"/>
		<path opacity="0.5" fill="orange" d="M176.8336477965032 25.451433589078118 L180.8336477965032 28.915535204215864 L125.40802195429913 44.915535204215864 L121.40802195429913 41.45143358907812 L176.8336477965032 25.451433589078118"/>
		<path opacity="0.5" fill="orange" d="M176.8336477965032 32.37963681935363 L180.8336477965032 35.84373843449138 L125.40802195429913 51.84373843449138 L121.40802195429913 48.37963681935363 L176.8336477965032 32.37963681935363"/>
		<text x="121.40802195429913" y="44.91553520421587" font-family="calibri" font-size="4">8</text>
		<text x="123.40802195429913" y="50.1116876269225" font-family="calibri" font-size="4">8</text>
		<text x="149.12083487540116" y="33.45143358907812" font-family="calibri" font-size="4">64</text>

		<path opacity="0.75" fill="pink" d="M-49.560678275975704 46.18270984337653 L-47.060678275975704 48.34777335283763 L-6.1044173368142935 30.421357286052523 L-49.560678275975704 46.18270984337653"/>
		<path opacity="0.75" fill="pink" d="M-49.560678275975704 46.18270984337653 L-49.560678275975704 50.51283686229873 L-6.1044173368142935 30.421357286052523 L-49.560678275975704 46.18270984337653"/>
		<path opacity="0.75" fill="pink" d="M-47.060678275975704 48.34777335283763 L-47.060678275975704 52.67790037175982 L-6.1044173368142935 30.421357286052523 L-47.060678275975704 48.34777335283763"/>
		<path opacity="0.75" fill="pink" d="M-49.560678275975704 50.51283686229873 L-47.060678275975704 52.67790037175982 L-6.1044173368142935 30.421357286052523 L-49.560678275975704 50.51283686229873"/>

<!-- Arrow -->
		<path opacity="0.5" stroke="black" d="M78.84713282184377 43.056724007856495 L123.40802195429913 46.647586011784746"/>
		<circle opacity="0.5" cx="123.40802195429913" cy="46.647586011784746" r="1" fill="black" />
		<path opacity="0.75" fill="pink" d="M-273.9660259863512 42.74127654884148 L-268.9660259863512 47.07140356776368 L-228.67718067320646 23.82665886467111 L-273.9660259863512 42.74127654884148"/>
		<path opacity="0.75" fill="pink" d="M-273.9660259863512 42.74127654884148 L-273.9660259863512 51.40153058668587 L-228.67718067320646 23.82665886467111 L-273.9660259863512 42.74127654884148"/>
		<path opacity="0.75" fill="pink" d="M-268.9660259863512 47.07140356776368 L-268.9660259863512 55.73165760560806 L-228.67718067320646 23.82665886467111 L-268.9660259863512 47.07140356776368"/>
		<path opacity="0.75" fill="pink" d="M-273.9660259863512 51.40153058668587 L-268.9660259863512 55.73165760560806 L-228.67718067320646 23.82665886467111 L-273.9660259863512 51.40153058668587"/>

		<path opacity="0.75" fill="darkturquoise" d="M-273.9660259863512 42.74127654884148 L-268.9660259863512 47.07140356776368 L-268.9660259863512 55.73165760560806 L-273.9660259863512 51.40153058668587 L-273.9660259863512 42.74127654884148"/>
		<path opacity="0.75" fill="darkturquoise" d="M-291.28653406204 47.74127654884148 L-286.28653406204 52.07140356776368 L-286.28653406204 60.73165760560806 L-291.28653406204 56.40153058668587 L-291.28653406204 47.74127654884148"/>
		<path opacity="0.75" fill="darkturquoise" d="M-273.9660259863512 42.74127654884148 L-291.28653406204 47.74127654884148 L-291.28653406204 56.40153058668587 L-273.9660259863512 51.40153058668587 L-273.9660259863512 42.74127654884148"/>
		<path opacity="0.75" fill="darkturquoise" d="M-268.9660259863512 47.07140356776368 L-286.28653406204 52.07140356776368 L-286.28653406204 60.73165760560806 L-268.9660259863512 55.73165760560806 L-268.9660259863512 47.07140356776368"/>
		<path opacity="0.75" fill="darkturquoise" d="M-273.9660259863512 42.74127654884148 L-268.9660259863512 47.07140356776368 L-286.28653406204 52.07140356776368 L-291.28653406204 47.74127654884148 L-273.9660259863512 42.74127654884148"/>
		<path opacity="0.75" fill="darkturquoise" d="M-273.9660259863512 51.40153058668587 L-268.9660259863512 55.73165760560806 L-286.28653406204 60.73165760560806 L-291.28653406204 56.40153058668587 L-273.9660259863512 51.40153058668587"/>
		<text x="-291.28653406204" y="52.07140356776368" font-family="calibri" font-size="4">10</text>
		<text x="-288.78653406204" y="58.56659409614697" font-family="calibri" font-size="4">10</text>
		<text x="-282.6262800241956" y="45.24127654884148" font-family="calibri" font-size="4">20</text>

		<path opacity="0.5" fill="orange" d="M-283.1207423513322 25.726942293460482 L-267.1207423513322 39.583348754011496 L-267.1207423513322 67.29616167511354 L-283.1207423513322 53.43975521456252 L-283.1207423513322 25.726942293460482"/>
		<path opacity="0.5" fill="orange" d="M-300.441250427021 30.726942293460482 L-284.441250427021 44.583348754011496 L-284.441250427021 72.29616167511354 L-300.441250427021 58.43975521456252 L-300.441250427021 30.726942293460482"/>
		<path opacity="0.5" fill="orange" d="M-283.1207423513322 25.726942293460482 L-300.441250427021 30.726942293460482 L-300.441250427021 58.43975521456252 L-283.1207423513322 53.43975521456252 L-283.1207423513322 25.726942293460482"/>
		<path opacity="0.5" fill="orange" d="M-267.1207423513322 39.583348754011496 L-284.441250427021 44.583348754011496 L-284.441250427021 72.29616167511354 L-267.1207423513322 67.29616167511354 L-267.1207423513322 39.583348754011496"/>
		<path opacity="0.5" fill="orange" d="M-283.1207423513322 25.726942293460482 L-267.1207423513322 39.583348754011496 L-284.441250427021 44.583348754011496 L-300.441250427021 30.726942293460482 L-283.1207423513322 25.726942293460482"/>
		<path opacity="0.5" fill="orange" d="M-283.1207423513322 53.43975521456252 L-267.1207423513322 67.29616167511354 L-284.441250427021 72.29616167511354 L-300.441250427021 58.43975521456252 L-283.1207423513322 53.43975521456252"/>
		<text x="-300.441250427021" y="44.583348754011496" font-family="calibri" font-size="4">32</text>
		<text x="-292.441250427021" y="65.36795844483802" font-family="calibri" font-size="4">32</text>
		<text x="-291.7809963891766" y="28.226942293460482" font-family="calibri" font-size="4">20</text>

		<path opacity="0.5" fill="orange" d="M76.84713282184377 37.86057158514987 L80.84713282184377 41.32467320028762 L80.84713282184377 48.25287643056313 L76.84713282184377 44.78877481542537 L76.84713282184377 37.86057158514987"/>
		<path opacity="0.5" fill="orange" d="M21.4215069796397 53.86057158514987 L25.4215069796397 57.32467320028762 L25.4215069796397 64.25287643056313 L21.4215069796397 60.78877481542537 L21.4215069796397 53.86057158514987"/>
		<path opacity="0.5" fill="orange" d="M76.84713282184377 37.86057158514987 L21.4215069796397 53.86057158514987 L21.4215069796397 60.78877481542537 L76.84713282184377 44.78877481542537 L76.84713282184377 37.86057158514987"/>
		<path opacity="0.5" fill="orange" d="M80.84713282184377 41.32467320028762 L25.4215069796397 57.32467320028762 L25.4215069796397 64.25287643056313 L80.84713282184377 48.25287643056313 L80.84713282184377 41.32467320028762"/>
		<path opacity="0.5" fill="orange" d="M76.84713282184377 37.86057158514987 L80.84713282184377 41.32467320028762 L25.4215069796397 57.32467320028762 L21.4215069796397 53.86057158514987 L76.84713282184377 37.86057158514987"/>
		<path opacity="0.5" fill="orange" d="M76.84713282184377 44.78877481542537 L80.84713282184377 48.25287643056313 L25.4215069796397 64.25287643056313 L21.4215069796397 60.78877481542537 L76.84713282184377 44.78877481542537"/>
		<text x="21.4215069796397" y="57.32467320028762" font-family="calibri" font-size="4">8</text>
		<text x="23.4215069796397" y="62.52082562299425" font-family="calibri" font-size="4">8</text>
		<text x="49.13431990074174" y="45.86057158514987" font-family="calibri" font-size="4">64</text>

		<path opacity="0.75" fill="pink" d="M-171.2354547032739 52.341261224889536 L-168.7354547032739 54.50632473435063 L-128.9134201044755 43.86446829735919 L-171.2354547032739 52.341261224889536"/>
		<path opacity="0.75" fill="pink" d="M-171.2354547032739 52.341261224889536 L-171.2354547032739 56.67138824381173 L-128.9134201044755 43.86446829735919 L-171.2354547032739 52.341261224889536"/>
		<path opacity="0.75" fill="pink" d="M-168.7354547032739 54.50632473435063 L-168.7354547032739 58.836451753272826 L-128.9134201044755 43.86446829735919 L-168.7354547032739 54.50632473435063"/>
		<path opacity="0.75" fill="pink" d="M-171.2354547032739 56.67138824381173 L-168.7354547032739 58.836451753272826 L-128.9134201044755 43.86446829735919 L-171.2354547032739 56.67138824381173"/>

		<path opacity="0.75" fill="darkturquoise" d="M-49.560678275975704 46.18270984337653 L-47.060678275975704 48.34777335283763 L-47.060678275975704 52.67790037175982 L-49.560678275975704 50.51283686229873 L-49.560678275975704 46.18270984337653"/>
		<path opacity="0.75" fill="darkturquoise" d="M-104.98630411817976 62.18270984337653 L-102.48630411817976 64.34777335283762 L-102.48630411817976 68.67790037175982 L-104.98630411817976 66.51283686229873 L-104.98630411817976 62.18270984337653"/>
		<path opacity="0.75" fill="darkturquoise" d="M-49.560678275975704 46.18270984337653 L-104.98630411817976 62.18270984337653 L-104.98630411817976 66.51283686229873 L-49.560678275975704 50.51283686229873 L-49.560678275975704 46.18270984337653"/>
		<path opacity="0.75" fill="darkturquoise" d="M-47.060678275975704 48.34777335283763 L-102.48630411817976 64.34777335283762 L-102.48630411817976 68.67790037175982 L-47.060678275975704 52.67790037175982 L-47.060678275975704 48.34777335283763"/>
		<path opacity="0.75" fill="darkturquoise" d="M-49.560678275975704 46.18270984337653 L-47.060678275975704 48.34777335283763 L-102.48630411817976 64.34777335283762 L-104.98630411817976 62.18270984337653 L-49.560678275975704 46.18270984337653"/>
		<path opacity="0.75" fill="darkturquoise" d="M-49.560678275975704 50.51283686229873 L-47.060678275975704 52.67790037175982 L-102.48630411817976 68.67790037175982 L-104.98630411817976 66.51283686229873 L-49.560678275975704 50.51283686229873"/>
		<text x="-104.98630411817976" y="64.34777335283763" font-family="calibri" font-size="4">5</text>
		<text x="-103.73630411817976" y="67.59536861702927" font-family="calibri" font-size="4">5</text>
		<text x="-77.27349119707773" y="54.18270984337653" font-family="calibri" font-size="4">64</text>

		<path opacity="0.5" fill="orange" d="M-52.37976320958225 36.482695154586736 L-44.37976320958225 43.41089838486224 L-44.37976320958225 57.267304845413264 L-52.37976320958225 50.33910161513776 L-52.37976320958225 36.482695154586736"/>
		<path opacity="0.5" fill="orange" d="M-107.8053890517863 52.482695154586736 L-99.8053890517863 59.41089838486224 L-99.8053890517863 73.26730484541326 L-107.8053890517863 66.33910161513775 L-107.8053890517863 52.482695154586736"/>
		<path opacity="0.5" fill="orange" d="M-52.37976320958225 36.482695154586736 L-107.8053890517863 52.482695154586736 L-107.8053890517863 66.33910161513775 L-52.37976320958225 50.33910161513776 L-52.37976320958225 36.482695154586736"/>
		<path opacity="0.5" fill="orange" d="M-44.37976320958225 43.41089838486224 L-99.8053890517863 59.41089838486224 L-99.8053890517863 73.26730484541326 L-44.37976320958225 57.267304845413264 L-44.37976320958225 43.41089838486224"/>
		<path opacity="0.5" fill="orange" d="M-52.37976320958225 36.482695154586736 L-44.37976320958225 43.41089838486224 L-99.8053890517863 59.41089838486224 L-107.8053890517863 52.482695154586736 L-52.37976320958225 36.482695154586736"/>
		<path opacity="0.5" fill="orange" d="M-52.37976320958225 50.33910161513776 L-44.37976320958225 57.267304845413264 L-99.8053890517863 73.26730484541326 L-107.8053890517863 66.33910161513775 L-52.37976320958225 50.33910161513776"/>
		<text x="-107.8053890517863" y="59.41089838486224" font-family="calibri" font-size="4">16</text>
		<text x="-103.8053890517863" y="69.8032032302755" font-family="calibri" font-size="4">16</text>
		<text x="-80.09257613068428" y="44.482695154586736" font-family="calibri" font-size="4">64</text>

		<path opacity="0.75" fill="darkturquoise" d="M-171.2354547032739 52.341261224889536 L-168.7354547032739 54.50632473435063 L-168.7354547032739 58.836451753272826 L-171.2354547032739 56.67138824381173 L-171.2354547032739 52.341261224889536"/>
		<path opacity="0.75" fill="darkturquoise" d="M-198.94826762437594 60.341261224889536 L-196.44826762437594 62.50632473435063 L-196.44826762437594 66.83645175327283 L-198.94826762437594 64.67138824381172 L-198.94826762437594 60.341261224889536"/>
		<path opacity="0.75" fill="darkturquoise" d="M-171.2354547032739 52.341261224889536 L-198.94826762437594 60.341261224889536 L-198.94826762437594 64.67138824381172 L-171.2354547032739 56.67138824381173 L-171.2354547032739 52.341261224889536"/>
		<path opacity="0.75" fill="darkturquoise" d="M-168.7354547032739 54.50632473435063 L-196.44826762437594 62.50632473435063 L-196.44826762437594 66.83645175327283 L-168.7354547032739 58.836451753272826 L-168.7354547032739 54.50632473435063"/>
		<path opacity="0.75" fill="darkturquoise" d="M-171.2354547032739 52.341261224889536 L-168.7354547032739 54.50632473435063 L-196.44826762437594 62.50632473435063 L-198.94826762437594 60.341261224889536 L-171.2354547032739 52.341261224889536"/>
		<path opacity="0.75" fill="darkturquoise" d="M-171.2354547032739 56.67138824381173 L-168.7354547032739 58.836451753272826 L-196.44826762437594 66.83645175327283 L-198.94826762437594 64.67138824381172 L-171.2354547032739 56.67138824381173"/>
		<text x="-198.94826762437594" y="62.50632473435063" font-family="calibri" font-size="4">5</text>
		<text x="-197.69826762437594" y="65.75391999854227" font-family="calibri" font-size="4">5</text>
		<text x="-185.09186116382492" y="56.341261224889536" font-family="calibri" font-size="4">32</text>

		<path opacity="0.5" fill="orange" d="M-183.60665924100823 29.908666301316977 L-167.60665924100823 43.76507276186799 L-167.60665924100823 71.47788568297003 L-183.60665924100823 57.62147922241901 L-183.60665924100823 29.908666301316977"/>
		<path opacity="0.5" fill="orange" d="M-211.3194721621103 37.90866630131698 L-195.3194721621103 51.76507276186799 L-195.3194721621103 79.47788568297003 L-211.3194721621103 65.62147922241901 L-211.3194721621103 37.90866630131698"/>
		<path opacity="0.5" fill="orange" d="M-183.60665924100823 29.908666301316977 L-211.3194721621103 37.90866630131698 L-211.3194721621103 65.62147922241901 L-183.60665924100823 57.62147922241901 L-183.60665924100823 29.908666301316977"/>
		<path opacity="0.5" fill="orange" d="M-167.60665924100823 43.76507276186799 L-195.3194721621103 51.76507276186799 L-195.3194721621103 79.47788568297003 L-167.60665924100823 71.47788568297003 L-167.60665924100823 43.76507276186799"/>
		<path opacity="0.5" fill="orange" d="M-183.60665924100823 29.908666301316977 L-167.60665924100823 43.76507276186799 L-195.3194721621103 51.76507276186799 L-211.3194721621103 37.90866630131698 L-183.60665924100823 29.908666301316977"/>
		<path opacity="0.5" fill="orange" d="M-183.60665924100823 57.62147922241901 L-167.60665924100823 71.47788568297003 L-195.3194721621103 79.47788568297003 L-211.3194721621103 65.62147922241901 L-183.60665924100823 57.62147922241901"/>
		<text x="-211.3194721621103" y="51.765072761868" font-family="calibri" font-size="4">32</text>
		<text x="-203.3194721621103" y="72.54968245269453" font-family="calibri" font-size="4">32</text>
		<text x="-197.46306570155926" y="33.90866630131698" font-family="calibri" font-size="4">32</text>

<!-- Arrow -->
		<path opacity="0.5" stroke="black" d="M107.34713282184379 67.738448015713 L123.40802195429913 46.647586011784746"/>
		<circle opacity="0.5" cx="123.40802195429913" cy="46.647586011784746" r="1" fill="black" />
		<path opacity="0.75" fill="pink" d="M-251.9561399354904 58.54953863187833 L-246.9561399354904 62.87966565080052 L-198.94967719606615 51.13059336941505 L-251.9561399354904 58.54953863187833"/>
		<path opacity="0.75" fill="pink" d="M-251.9561399354904 58.54953863187833 L-251.9561399354904 67.20979266972272 L-198.94967719606615 51.13059336941505 L-251.9561399354904 58.54953863187833"/>
		<path opacity="0.75" fill="pink" d="M-246.9561399354904 62.87966565080052 L-246.9561399354904 71.53991968864491 L-198.94967719606615 51.13059336941505 L-246.9561399354904 62.87966565080052"/>
		<path opacity="0.75" fill="pink" d="M-251.9561399354904 67.20979266972272 L-246.9561399354904 71.53991968864491 L-198.94967719606615 51.13059336941505 L-251.9561399354904 67.20979266972272"/>

		<path opacity="0.75" fill="pink" d="M-20.43315352251787 64.84535277918647 L-17.93315352251787 67.01041628864756 L22.01462893295343 58.09485179998533 L-20.43315352251787 64.84535277918647"/>
		<path opacity="0.75" fill="pink" d="M-20.43315352251787 64.84535277918647 L-20.43315352251787 69.17547979810865 L22.01462893295343 58.09485179998533 L-20.43315352251787 64.84535277918647"/>
		<path opacity="0.75" fill="pink" d="M-17.93315352251787 67.01041628864756 L-17.93315352251787 71.34054330756976 L22.01462893295343 58.09485179998533 L-17.93315352251787 67.01041628864756"/>
		<path opacity="0.75" fill="pink" d="M-20.43315352251787 69.17547979810865 L-17.93315352251787 71.34054330756976 L22.01462893295343 58.09485179998533 L-20.43315352251787 69.17547979810865"/>

		<path opacity="0.75" fill="pink" d="M-147.68716364623185 70.9396544801594 L-145.18716364623185 73.1047179896205 L-105.54002937231934 63.817482246497725 L-147.68716364623185 70.9396544801594"/>
		<path opacity="0.75" fill="pink" d="M-147.68716364623185 70.9396544801594 L-147.68716364623185 75.2697814990816 L-105.54002937231934 63.817482246497725 L-147.68716364623185 70.9396544801594"/>
		<path opacity="0.75" fill="pink" d="M-145.18716364623185 73.1047179896205 L-145.18716364623185 77.4348450085427 L-105.54002937231934 63.817482246497725 L-145.18716364623185 73.1047179896205"/>
		<path opacity="0.75" fill="pink" d="M-147.68716364623185 75.2697814990816 L-145.18716364623185 77.4348450085427 L-105.54002937231934 63.817482246497725 L-147.68716364623185 75.2697814990816"/>

		<path opacity="0.75" fill="darkturquoise" d="M-251.9561399354904 58.54953863187833 L-246.9561399354904 62.87966565080052 L-246.9561399354904 71.53991968864491 L-251.9561399354904 67.20979266972272 L-251.9561399354904 58.54953863187833"/>
		<path opacity="0.75" fill="darkturquoise" d="M-269.2766480111792 63.54953863187833 L-264.2766480111792 67.87966565080052 L-264.2766480111792 76.53991968864491 L-269.2766480111792 72.20979266972272 L-269.2766480111792 63.54953863187833"/>
		<path opacity="0.75" fill="darkturquoise" d="M-251.9561399354904 58.54953863187833 L-269.2766480111792 63.54953863187833 L-269.2766480111792 72.20979266972272 L-251.9561399354904 67.20979266972272 L-251.9561399354904 58.54953863187833"/>
		<path opacity="0.75" fill="darkturquoise" d="M-246.9561399354904 62.87966565080052 L-264.2766480111792 67.87966565080052 L-264.2766480111792 76.53991968864491 L-246.9561399354904 71.53991968864491 L-246.9561399354904 62.87966565080052"/>
		<path opacity="0.75" fill="darkturquoise" d="M-251.9561399354904 58.54953863187833 L-246.9561399354904 62.87966565080052 L-264.2766480111792 67.87966565080052 L-269.2766480111792 63.54953863187833 L-251.9561399354904 58.54953863187833"/>
		<path opacity="0.75" fill="darkturquoise" d="M-251.9561399354904 67.20979266972272 L-246.9561399354904 71.53991968864491 L-264.2766480111792 76.53991968864491 L-269.2766480111792 72.20979266972272 L-251.9561399354904 67.20979266972272"/>
		<text x="-269.2766480111792" y="67.87966565080052" font-family="calibri" font-size="4">10</text>
		<text x="-266.7766480111792" y="74.37485617918381" font-family="calibri" font-size="4">10</text>
		<text x="-260.61639397333477" y="61.04953863187833" font-family="calibri" font-size="4">20</text>

		<path opacity="0.5" fill="orange" d="M-254.62074235133218 50.40866630131698 L-238.62074235133218 64.265072761868 L-238.62074235133218 91.97788568297003 L-254.62074235133218 78.12147922241901 L-254.62074235133218 50.40866630131698"/>
		<path opacity="0.5" fill="orange" d="M-271.941250427021 55.40866630131698 L-255.94125042702098 69.265072761868 L-255.94125042702098 96.97788568297003 L-271.941250427021 83.12147922241901 L-271.941250427021 55.40866630131698"/>
		<path opacity="0.5" fill="orange" d="M-254.62074235133218 50.40866630131698 L-271.941250427021 55.40866630131698 L-271.941250427021 83.12147922241901 L-254.62074235133218 78.12147922241901 L-254.62074235133218 50.40866630131698"/>
		<path opacity="0.5" fill="orange" d="M-238.62074235133218 64.265072761868 L-255.94125042702098 69.265072761868 L-255.94125042702098 96.97788568297003 L-238.62074235133218 91.97788568297003 L-238.62074235133218 64.265072761868"/>
		<path opacity="0.5" fill="orange" d="M-254.62074235133218 50.40866630131698 L-238.62074235133218 64.265072761868 L-255.94125042702098 69.265072761868 L-271.941250427021 55.40866630131698 L-254.62074235133218 50.40866630131698"/>
		<path opacity="0.5" fill="orange" d="M-254.62074235133218 78.12147922241901 L-238.62074235133218 91.97788568297003 L-255.94125042702098 96.97788568297003 L-271.941250427021 83.12147922241901 L-254.62074235133218 78.12147922241901"/>
		<text x="-271.941250427021" y="69.265072761868" font-family="calibri" font-size="4">32</text>
		<text x="-263.941250427021" y="90.04968245269453" font-family="calibri" font-size="4">32</text>
		<text x="-263.2809963891766" y="52.90866630131698" font-family="calibri" font-size="4">20</text>

		<path opacity="0.5" fill="orange" d="M105.34713282184379 62.54229559300636 L109.34713282184379 66.00639720814411 L109.34713282184379 72.93460043841964 L105.34713282184379 69.47049882328187 L105.34713282184379 62.54229559300636"/>
		<path opacity="0.5" fill="orange" d="M49.9215069796397 78.54229559300636 L53.9215069796397 82.00639720814411 L53.9215069796397 88.93460043841964 L49.9215069796397 85.47049882328187 L49.9215069796397 78.54229559300636"/>
		<path opacity="0.5" fill="orange" d="M105.34713282184379 62.54229559300636 L49.9215069796397 78.54229559300636 L49.9215069796397 85.47049882328187 L105.34713282184379 69.47049882328187 L105.34713282184379 62.54229559300636"/>
		<path opacity="0.5" fill="orange" d="M109.34713282184379 66.00639720814411 L53.9215069796397 82.00639720814411 L53.9215069796397 88.93460043841964 L109.34713282184379 72.93460043841964 L109.34713282184379 66.00639720814411"/>
		<path opacity="0.5" fill="orange" d="M105.34713282184379 62.54229559300636 L109.34713282184379 66.00639720814411 L53.9215069796397 82.00639720814411 L49.9215069796397 78.54229559300636 L105.34713282184379 62.54229559300636"/>
		<path opacity="0.5" fill="orange" d="M105.34713282184379 69.47049882328187 L109.34713282184379 72.93460043841964 L53.9215069796397 88.93460043841964 L49.9215069796397 85.47049882328187 L105.34713282184379 69.47049882328187"/>
		<text x="49.9215069796397" y="82.00639720814411" font-family="calibri" font-size="4">8</text>
		<text x="51.9215069796397" y="87.20254963085075" font-family="calibri" font-size="4">8</text>
		<text x="77.63431990074174" y="70.54229559300636" font-family="calibri" font-size="4">64</text>

		<path opacity="0.75" fill="darkturquoise" d="M-147.68716364623185 70.9396544801594 L-145.18716364623185 73.1047179896205 L-145.18716364623185 77.4348450085427 L-147.68716364623185 75.2697814990816 L-147.68716364623185 70.9396544801594"/>
		<path opacity="0.75" fill="darkturquoise" d="M-175.3999765673339 78.9396544801594 L-172.8999765673339 81.1047179896205 L-172.8999765673339 85.4348450085427 L-175.3999765673339 83.2697814990816 L-175.3999765673339 78.9396544801594"/>
		<path opacity="0.75" fill="darkturquoise" d="M-147.68716364623185 70.9396544801594 L-175.3999765673339 78.9396544801594 L-175.3999765673339 83.2697814990816 L-147.68716364623185 75.2697814990816 L-147.68716364623185 70.9396544801594"/>
		<path opacity="0.75" fill="darkturquoise" d="M-145.18716364623185 73.1047179896205 L-172.8999765673339 81.1047179896205 L-172.8999765673339 85.4348450085427 L-145.18716364623185 77.4348450085427 L-145.18716364623185 73.1047179896205"/>
		<path opacity="0.75" fill="darkturquoise" d="M-147.68716364623185 70.9396544801594 L-145.18716364623185 73.1047179896205 L-172.8999765673339 81.1047179896205 L-175.3999765673339 78.9396544801594 L-147.68716364623185 70.9396544801594"/>
		<path opacity="0.75" fill="darkturquoise" d="M-147.68716364623185 75.2697814990816 L-145.18716364623185 77.4348450085427 L-172.8999765673339 85.4348450085427 L-175.3999765673339 83.2697814990816 L-147.68716364623185 75.2697814990816"/>
		<text x="-175.3999765673339" y="81.1047179896205" font-family="calibri" font-size="4">5</text>
		<text x="-174.1499765673339" y="84.35231325381216" font-family="calibri" font-size="4">5</text>
		<text x="-161.54357010678288" y="74.9396544801594" font-family="calibri" font-size="4">32</text>

		<path opacity="0.5" fill="orange" d="M-155.10665924100823 54.59039030917347 L-139.10665924100823 68.44679676972449 L-139.10665924100823 96.15960969082653 L-155.10665924100823 82.30320323027551 L-155.10665924100823 54.59039030917347"/>
		<path opacity="0.5" fill="orange" d="M-182.8194721621103 62.59039030917347 L-166.8194721621103 76.44679676972449 L-166.8194721621103 104.15960969082653 L-182.8194721621103 90.30320323027551 L-182.8194721621103 62.59039030917347"/>
		<path opacity="0.5" fill="orange" d="M-155.10665924100823 54.59039030917347 L-182.8194721621103 62.59039030917347 L-182.8194721621103 90.30320323027551 L-155.10665924100823 82.30320323027551 L-155.10665924100823 54.59039030917347"/>
		<path opacity="0.5" fill="orange" d="M-139.10665924100823 68.44679676972449 L-166.8194721621103 76.44679676972449 L-166.8194721621103 104.15960969082653 L-139.10665924100823 96.15960969082653 L-139.10665924100823 68.44679676972449"/>
		<path opacity="0.5" fill="orange" d="M-155.10665924100823 54.59039030917347 L-139.10665924100823 68.44679676972449 L-166.8194721621103 76.44679676972449 L-182.8194721621103 62.59039030917347 L-155.10665924100823 54.59039030917347"/>
		<path opacity="0.5" fill="orange" d="M-155.10665924100823 82.30320323027551 L-139.10665924100823 96.15960969082653 L-166.8194721621103 104.15960969082653 L-182.8194721621103 90.30320323027551 L-155.10665924100823 82.30320323027551"/>
		<text x="-182.8194721621103" y="76.4467967697245" font-family="calibri" font-size="4">32</text>
		<text x="-174.8194721621103" y="97.23140646055103" font-family="calibri" font-size="4">32</text>
		<text x="-168.96306570155926" y="58.59039030917347" font-family="calibri" font-size="4">32</text>

		<path opacity="0.75" fill="darkturquoise" d="M-20.43315352251787 64.84535277918647 L-17.93315352251787 67.01041628864756 L-17.93315352251787 71.34054330756976 L-20.43315352251787 69.17547979810865 L-20.43315352251787 64.84535277918647"/>
		<path opacity="0.75" fill="darkturquoise" d="M-75.85877936472193 80.84535277918647 L-73.35877936472193 83.01041628864756 L-73.35877936472193 87.34054330756976 L-75.85877936472193 85.17547979810865 L-75.85877936472193 80.84535277918647"/>
		<path opacity="0.75" fill="darkturquoise" d="M-20.43315352251787 64.84535277918647 L-75.85877936472193 80.84535277918647 L-75.85877936472193 85.17547979810865 L-20.43315352251787 69.17547979810865 L-20.43315352251787 64.84535277918647"/>
		<path opacity="0.75" fill="darkturquoise" d="M-17.93315352251787 67.01041628864756 L-73.35877936472193 83.01041628864756 L-73.35877936472193 87.34054330756976 L-17.93315352251787 71.34054330756976 L-17.93315352251787 67.01041628864756"/>
		<path opacity="0.75" fill="darkturquoise" d="M-20.43315352251787 64.84535277918647 L-17.93315352251787 67.01041628864756 L-73.35877936472193 83.01041628864756 L-75.85877936472193 80.84535277918647 L-20.43315352251787 64.84535277918647"/>
		<path opacity="0.75" fill="darkturquoise" d="M-20.43315352251787 69.17547979810865 L-17.93315352251787 71.34054330756976 L-73.35877936472193 87.34054330756976 L-75.85877936472193 85.17547979810865 L-20.43315352251787 69.17547979810865"/>
		<text x="-75.85877936472193" y="83.01041628864756" font-family="calibri" font-size="4">5</text>
		<text x="-74.60877936472193" y="86.2580115528392" font-family="calibri" font-size="4">5</text>
		<text x="-48.1459664436199" y="72.84535277918647" font-family="calibri" font-size="4">64</text>

		<path opacity="0.5" fill="orange" d="M-23.87976320958225 61.16441916244323 L-15.87976320958225 68.09262239271874 L-15.87976320958225 81.94902885326977 L-23.87976320958225 75.02082562299425 L-23.87976320958225 61.16441916244323"/>
		<path opacity="0.5" fill="orange" d="M-79.3053890517863 77.16441916244324 L-71.3053890517863 84.09262239271874 L-71.3053890517863 97.94902885326977 L-79.3053890517863 91.02082562299425 L-79.3053890517863 77.16441916244324"/>
		<path opacity="0.5" fill="orange" d="M-23.87976320958225 61.16441916244323 L-79.3053890517863 77.16441916244324 L-79.3053890517863 91.02082562299425 L-23.87976320958225 75.02082562299425 L-23.87976320958225 61.16441916244323"/>
		<path opacity="0.5" fill="orange" d="M-15.87976320958225 68.09262239271874 L-71.3053890517863 84.09262239271874 L-71.3053890517863 97.94902885326977 L-15.87976320958225 81.94902885326977 L-15.87976320958225 68.09262239271874"/>
		<path opacity="0.5" fill="orange" d="M-23.87976320958225 61.16441916244323 L-15.87976320958225 68.09262239271874 L-71.3053890517863 84.09262239271874 L-79.3053890517863 77.16441916244324 L-23.87976320958225 61.16441916244323"/>
		<path opacity="0.5" fill="orange" d="M-23.87976320958225 75.02082562299425 L-15.87976320958225 81.94902885326977 L-71.3053890517863 97.94902885326977 L-79.3053890517863 91.02082562299425 L-23.87976320958225 75.02082562299425"/>
		<text x="-79.3053890517863" y="84.09262239271874" font-family="calibri" font-size="4">16</text>
		<text x="-75.3053890517863" y="94.484927238132" font-family="calibri" font-size="4">16</text>
		<text x="-51.59257613068428" y="69.16441916244324" font-family="calibri" font-size="4">64</text>

		<path opacity="0.75" fill="pink" d="M8.991081753548954 98.867398792915 L11.491081753548954 101.0324623023761 L51.03978813601532 81.23714334829187 L8.991081753548954 98.867398792915"/>
		<path opacity="0.75" fill="pink" d="M8.991081753548954 98.867398792915 L8.991081753548954 103.1975258118372 L51.03978813601532 81.23714334829187 L8.991081753548954 98.867398792915"/>
		<path opacity="0.75" fill="pink" d="M11.491081753548954 101.0324623023761 L11.491081753548954 105.36258932129829 L51.03978813601532 81.23714334829187 L11.491081753548954 101.0324623023761"/>
		<path opacity="0.75" fill="pink" d="M8.991081753548954 103.1975258118372 L11.491081753548954 105.36258932129829 L51.03978813601532 81.23714334829187 L8.991081753548954 103.1975258118372"/>

		<path opacity="0.75" fill="pink" d="M-222.55495003355225 79.35422151946302 L-217.5549500335522 83.68434853838522 L-169.6873506417241 94.78925535363553 L-222.55495003355225 79.35422151946302"/>
		<path opacity="0.75" fill="pink" d="M-222.55495003355225 79.35422151946302 L-222.55495003355225 88.0144755573074 L-169.6873506417241 94.78925535363553 L-222.55495003355225 79.35422151946302"/>
		<path opacity="0.75" fill="pink" d="M-217.5549500335522 83.68434853838522 L-217.5549500335522 92.3446025762296 L-169.6873506417241 94.78925535363553 L-217.5549500335522 83.68434853838522"/>
		<path opacity="0.75" fill="pink" d="M-222.55495003355225 88.0144755573074 L-217.5549500335522 92.3446025762296 L-169.6873506417241 94.78925535363553 L-222.55495003355225 88.0144755573074"/>

		<path opacity="0.75" fill="pink" d="M-118.32574590679616 100.20721922555155 L-115.82574590679616 102.37228273501265 L-74.60450794057544 86.26465699118218 L-118.32574590679616 100.20721922555155"/>
		<path opacity="0.75" fill="pink" d="M-118.32574590679616 100.20721922555155 L-118.32574590679616 104.53734624447375 L-74.60450794057544 86.26465699118218 L-118.32574590679616 100.20721922555155"/>
		<path opacity="0.75" fill="pink" d="M-115.82574590679616 102.37228273501265 L-115.82574590679616 106.70240975393483 L-74.60450794057544 86.26465699118218 L-115.82574590679616 102.37228273501265"/>
		<path opacity="0.75" fill="pink" d="M-118.32574590679616 104.53734624447375 L-115.82574590679616 106.70240975393483 L-74.60450794057544 86.26465699118218 L-118.32574590679616 104.53734624447375"/>

		<path opacity="0.75" fill="darkturquoise" d="M-222.55495003355225 79.35422151946302 L-217.5549500335522 83.68434853838522 L-217.5549500335522 92.3446025762296 L-222.55495003355225 88.0144755573074 L-222.55495003355225 79.35422151946302"/>
		<path opacity="0.75" fill="darkturquoise" d="M-239.87545810924104 84.35422151946302 L-234.87545810924098 88.68434853838522 L-234.87545810924098 97.3446025762296 L-239.87545810924104 93.0144755573074 L-239.87545810924104 84.35422151946302"/>
		<path opacity="0.75" fill="darkturquoise" d="M-222.55495003355225 79.35422151946302 L-239.87545810924104 84.35422151946302 L-239.87545810924104 93.0144755573074 L-222.55495003355225 88.0144755573074 L-222.55495003355225 79.35422151946302"/>
		<path opacity="0.75" fill="darkturquoise" d="M-217.5549500335522 83.68434853838522 L-234.87545810924098 88.68434853838522 L-234.87545810924098 97.3446025762296 L-217.5549500335522 92.3446025762296 L-217.5549500335522 83.68434853838522"/>
		<path opacity="0.75" fill="darkturquoise" d="M-222.55495003355225 79.35422151946302 L-217.5549500335522 83.68434853838522 L-234.87545810924098 88.68434853838522 L-239.87545810924104 84.35422151946302 L-222.55495003355225 79.35422151946302"/>
		<path opacity="0.75" fill="darkturquoise" d="M-222.55495003355225 88.0144755573074 L-217.5549500335522 92.3446025762296 L-234.87545810924098 97.3446025762296 L-239.87545810924104 93.0144755573074 L-222.55495003355225 88.0144755573074"/>
		<text x="-239.87545810924104" y="88.68434853838522" font-family="calibri" font-size="4">10</text>
		<text x="-237.375458109241" y="95.17953906676851" font-family="calibri" font-size="4">10</text>
		<text x="-231.21520407139664" y="81.85422151946302" font-family="calibri" font-size="4">20</text>

		<path opacity="0.5" fill="orange" d="M-226.12074235133218 75.09039030917347 L-210.12074235133218 88.94679676972449 L-210.12074235133218 116.65960969082653 L-226.12074235133218 102.80320323027551 L-226.12074235133218 75.09039030917347"/>
		<path opacity="0.5" fill="orange" d="M-243.44125042702098 80.09039030917347 L-227.44125042702098 93.94679676972449 L-227.44125042702098 121.65960969082653 L-243.44125042702098 107.80320323027551 L-243.44125042702098 80.09039030917347"/>
		<path opacity="0.5" fill="orange" d="M-226.12074235133218 75.09039030917347 L-243.44125042702098 80.09039030917347 L-243.44125042702098 107.80320323027551 L-226.12074235133218 102.80320323027551 L-226.12074235133218 75.09039030917347"/>
		<path opacity="0.5" fill="orange" d="M-210.12074235133218 88.94679676972449 L-227.44125042702098 93.94679676972449 L-227.44125042702098 121.65960969082653 L-210.12074235133218 116.65960969082653 L-210.12074235133218 88.94679676972449"/>
		<path opacity="0.5" fill="orange" d="M-226.12074235133218 75.09039030917347 L-210.12074235133218 88.94679676972449 L-227.44125042702098 93.94679676972449 L-243.44125042702098 80.09039030917347 L-226.12074235133218 75.09039030917347"/>
		<path opacity="0.5" fill="orange" d="M-226.12074235133218 102.80320323027551 L-210.12074235133218 116.65960969082653 L-227.44125042702098 121.65960969082653 L-243.44125042702098 107.80320323027551 L-226.12074235133218 102.80320323027551"/>
		<text x="-243.44125042702098" y="93.9467967697245" font-family="calibri" font-size="4">32</text>
		<text x="-235.44125042702098" y="114.73140646055103" font-family="calibri" font-size="4">32</text>
		<text x="-234.78099638917658" y="77.59039030917347" font-family="calibri" font-size="4">20</text>

		<path opacity="0.75" fill="darkturquoise" d="M-118.32574590679616 100.20721922555155 L-115.82574590679616 102.37228273501265 L-115.82574590679616 106.70240975393483 L-118.32574590679616 104.53734624447375 L-118.32574590679616 100.20721922555155"/>
		<path opacity="0.75" fill="darkturquoise" d="M-146.0385588278982 108.20721922555155 L-143.5385588278982 110.37228273501265 L-143.5385588278982 114.70240975393483 L-146.0385588278982 112.53734624447375 L-146.0385588278982 108.20721922555155"/>
		<path opacity="0.75" fill="darkturquoise" d="M-118.32574590679616 100.20721922555155 L-146.0385588278982 108.20721922555155 L-146.0385588278982 112.53734624447375 L-118.32574590679616 104.53734624447375 L-118.32574590679616 100.20721922555155"/>
		<path opacity="0.75" fill="darkturquoise" d="M-115.82574590679616 102.37228273501265 L-143.5385588278982 110.37228273501265 L-143.5385588278982 114.70240975393483 L-115.82574590679616 106.70240975393483 L-115.82574590679616 102.37228273501265"/>
		<path opacity="0.75" fill="darkturquoise" d="M-118.32574590679616 100.20721922555155 L-115.82574590679616 102.37228273501265 L-143.5385588278982 110.37228273501265 L-146.0385588278982 108.20721922555155 L-118.32574590679616 100.20721922555155"/>
		<path opacity="0.75" fill="darkturquoise" d="M-118.32574590679616 104.53734624447375 L-115.82574590679616 106.70240975393483 L-143.5385588278982 114.70240975393483 L-146.0385588278982 112.53734624447375 L-118.32574590679616 104.53734624447375"/>
		<text x="-146.0385588278982" y="110.37228273501265" font-family="calibri" font-size="4">5</text>
		<text x="-144.7885588278982" y="113.61987799920429" font-family="calibri" font-size="4">5</text>
		<text x="-132.1821523673472" y="104.20721922555155" font-family="calibri" font-size="4">32</text>

		<path opacity="0.5" fill="orange" d="M-126.60665924100823 79.27211431702997 L-110.60665924100823 93.12852077758099 L-110.60665924100823 120.84133369868303 L-126.60665924100823 106.984927238132 L-126.60665924100823 79.27211431702997"/>
		<path opacity="0.5" fill="orange" d="M-154.3194721621103 87.27211431702997 L-138.3194721621103 101.12852077758099 L-138.3194721621103 128.84133369868303 L-154.3194721621103 114.984927238132 L-154.3194721621103 87.27211431702997"/>
		<path opacity="0.5" fill="orange" d="M-126.60665924100823 79.27211431702997 L-154.3194721621103 87.27211431702997 L-154.3194721621103 114.984927238132 L-126.60665924100823 106.984927238132 L-126.60665924100823 79.27211431702997"/>
		<path opacity="0.5" fill="orange" d="M-110.60665924100823 93.12852077758099 L-138.3194721621103 101.12852077758099 L-138.3194721621103 128.84133369868303 L-110.60665924100823 120.84133369868303 L-110.60665924100823 93.12852077758099"/>
		<path opacity="0.5" fill="orange" d="M-126.60665924100823 79.27211431702997 L-110.60665924100823 93.12852077758099 L-138.3194721621103 101.12852077758099 L-154.3194721621103 87.27211431702997 L-126.60665924100823 79.27211431702997"/>
		<path opacity="0.5" fill="orange" d="M-126.60665924100823 106.984927238132 L-110.60665924100823 120.84133369868303 L-138.3194721621103 128.84133369868303 L-154.3194721621103 114.984927238132 L-126.60665924100823 106.984927238132"/>
		<text x="-154.3194721621103" y="101.12852077758099" font-family="calibri" font-size="4">32</text>
		<text x="-146.3194721621103" y="121.91313046840752" font-family="calibri" font-size="4">32</text>
		<text x="-140.46306570155926" y="83.27211431702997" font-family="calibri" font-size="4">32</text>

		<path opacity="0.75" fill="darkturquoise" d="M8.991081753548954 98.867398792915 L11.491081753548954 101.0324623023761 L11.491081753548954 105.36258932129829 L8.991081753548954 103.1975258118372 L8.991081753548954 98.867398792915"/>
		<path opacity="0.75" fill="darkturquoise" d="M-46.434544088655116 114.867398792915 L-43.934544088655116 117.0324623023761 L-43.934544088655116 121.36258932129829 L-46.434544088655116 119.1975258118372 L-46.434544088655116 114.867398792915"/>
		<path opacity="0.75" fill="darkturquoise" d="M8.991081753548954 98.867398792915 L-46.434544088655116 114.867398792915 L-46.434544088655116 119.1975258118372 L8.991081753548954 103.1975258118372 L8.991081753548954 98.867398792915"/>
		<path opacity="0.75" fill="darkturquoise" d="M11.491081753548954 101.0324623023761 L-43.934544088655116 117.0324623023761 L-43.934544088655116 121.36258932129829 L11.491081753548954 105.36258932129829 L11.491081753548954 101.0324623023761"/>
		<path opacity="0.75" fill="darkturquoise" d="M8.991081753548954 98.867398792915 L11.491081753548954 101.0324623023761 L-43.934544088655116 117.0324623023761 L-46.434544088655116 114.867398792915 L8.991081753548954 98.867398792915"/>
		<path opacity="0.75" fill="darkturquoise" d="M8.991081753548954 103.1975258118372 L11.491081753548954 105.36258932129829 L-43.934544088655116 121.36258932129829 L-46.434544088655116 119.1975258118372 L8.991081753548954 103.1975258118372"/>
		<text x="-46.434544088655116" y="117.0324623023761" font-family="calibri" font-size="4">5</text>
		<text x="-45.184544088655116" y="120.28005756656773" font-family="calibri" font-size="4">5</text>
		<text x="-18.72173116755308" y="106.867398792915" font-family="calibri" font-size="4">64</text>

		<path opacity="0.5" fill="orange" d="M4.6202367904177635 85.84614317029974 L12.620236790417763 92.77434640057524 L12.620236790417763 106.63075286112625 L4.6202367904177635 99.70254963085074 L4.6202367904177635 85.84614317029974"/>
		<path opacity="0.5" fill="orange" d="M-50.80538905178628 101.84614317029974 L-42.80538905178628 108.77434640057524 L-42.80538905178628 122.63075286112625 L-50.80538905178628 115.70254963085074 L-50.80538905178628 101.84614317029974"/>
		<path opacity="0.5" fill="orange" d="M4.6202367904177635 85.84614317029974 L-50.80538905178628 101.84614317029974 L-50.80538905178628 115.70254963085074 L4.6202367904177635 99.70254963085074 L4.6202367904177635 85.84614317029974"/>
		<path opacity="0.5" fill="orange" d="M12.620236790417763 92.77434640057524 L-42.80538905178628 108.77434640057524 L-42.80538905178628 122.63075286112625 L12.620236790417763 106.63075286112625 L12.620236790417763 92.77434640057524"/>
		<path opacity="0.5" fill="orange" d="M4.6202367904177635 85.84614317029974 L12.620236790417763 92.77434640057524 L-42.80538905178628 108.77434640057524 L-50.80538905178628 101.84614317029974 L4.6202367904177635 85.84614317029974"/>
		<path opacity="0.5" fill="orange" d="M4.6202367904177635 99.70254963085074 L12.620236790417763 106.63075286112625 L-42.80538905178628 122.63075286112625 L-50.80538905178628 115.70254963085074 L4.6202367904177635 99.70254963085074"/>
		<text x="-50.80538905178628" y="108.77434640057524" font-family="calibri" font-size="4">16</text>
		<text x="-46.80538905178628" y="119.1666512459885" font-family="calibri" font-size="4">16</text>
		<text x="-23.092576130684257" y="93.84614317029974" font-family="calibri" font-size="4">64</text>

		<path opacity="0.75" fill="pink" d="M-96.23669193343176 127.47521366838714 L-93.73669193343176 129.64027717784822 L-44.30660082850744 114.45392358804186 L-96.23669193343176 127.47521366838714"/>
		<path opacity="0.75" fill="pink" d="M-96.23669193343176 127.47521366838714 L-96.23669193343176 131.80534068730933 L-44.30660082850744 114.45392358804186 L-96.23669193343176 127.47521366838714"/>
		<path opacity="0.75" fill="pink" d="M-93.73669193343176 129.64027717784822 L-93.73669193343176 133.9704041967704 L-44.30660082850744 114.45392358804186 L-93.73669193343176 129.64027717784822"/>
		<path opacity="0.75" fill="pink" d="M-96.23669193343176 131.80534068730933 L-93.73669193343176 133.9704041967704 L-44.30660082850744 114.45392358804186 L-96.23669193343176 131.80534068730933"/>

		<path opacity="0.75" fill="pink" d="M-194.02485459511274 106.81302911498528 L-189.02485459511274 111.14315613390748 L-146.83244360812074 113.43577179778649 L-194.02485459511274 106.81302911498528"/>
		<path opacity="0.75" fill="pink" d="M-194.02485459511274 106.81302911498528 L-194.02485459511274 115.47328315282968 L-146.83244360812074 113.43577179778649 L-194.02485459511274 106.81302911498528"/>
		<path opacity="0.75" fill="pink" d="M-189.02485459511274 111.14315613390748 L-189.02485459511274 119.80341017175186 L-146.83244360812074 113.43577179778649 L-189.02485459511274 111.14315613390748"/>
		<path opacity="0.75" fill="pink" d="M-194.02485459511274 115.47328315282968 L-189.02485459511274 119.80341017175186 L-146.83244360812074 113.43577179778649 L-194.02485459511274 115.47328315282968"/>

		<path opacity="0.75" fill="darkturquoise" d="M-194.02485459511274 106.81302911498528 L-189.02485459511274 111.14315613390748 L-189.02485459511274 119.80341017175186 L-194.02485459511274 115.47328315282968 L-194.02485459511274 106.81302911498528"/>
		<path opacity="0.75" fill="darkturquoise" d="M-211.34536267080153 111.81302911498528 L-206.34536267080153 116.14315613390748 L-206.34536267080153 124.80341017175186 L-211.34536267080153 120.47328315282968 L-211.34536267080153 111.81302911498528"/>
		<path opacity="0.75" fill="darkturquoise" d="M-194.02485459511274 106.81302911498528 L-211.34536267080153 111.81302911498528 L-211.34536267080153 120.47328315282968 L-194.02485459511274 115.47328315282968 L-194.02485459511274 106.81302911498528"/>
		<path opacity="0.75" fill="darkturquoise" d="M-189.02485459511274 111.14315613390748 L-206.34536267080153 116.14315613390748 L-206.34536267080153 124.80341017175186 L-189.02485459511274 119.80341017175186 L-189.02485459511274 111.14315613390748"/>
		<path opacity="0.75" fill="darkturquoise" d="M-194.02485459511274 106.81302911498528 L-189.02485459511274 111.14315613390748 L-206.34536267080153 116.14315613390748 L-211.34536267080153 111.81302911498528 L-194.02485459511274 106.81302911498528"/>
		<path opacity="0.75" fill="darkturquoise" d="M-194.02485459511274 115.47328315282968 L-189.02485459511274 119.80341017175186 L-206.34536267080153 124.80341017175186 L-211.34536267080153 120.47328315282968 L-194.02485459511274 115.47328315282968"/>
		<text x="-211.34536267080153" y="116.14315613390748" font-family="calibri" font-size="4">10</text>
		<text x="-208.84536267080153" y="122.63834666229077" font-family="calibri" font-size="4">10</text>
		<text x="-202.68510863295714" y="109.31302911498528" font-family="calibri" font-size="4">20</text>

		<path opacity="0.5" fill="orange" d="M-197.62074235133218 99.77211431702997 L-181.62074235133218 113.62852077758099 L-181.62074235133218 141.34133369868303 L-197.62074235133218 127.484927238132 L-197.62074235133218 99.77211431702997"/>
		<path opacity="0.5" fill="orange" d="M-214.94125042702098 104.77211431702997 L-198.94125042702098 118.62852077758099 L-198.94125042702098 146.34133369868303 L-214.94125042702098 132.484927238132 L-214.94125042702098 104.77211431702997"/>
		<path opacity="0.5" fill="orange" d="M-197.62074235133218 99.77211431702997 L-214.94125042702098 104.77211431702997 L-214.94125042702098 132.484927238132 L-197.62074235133218 127.484927238132 L-197.62074235133218 99.77211431702997"/>
		<path opacity="0.5" fill="orange" d="M-181.62074235133218 113.62852077758099 L-198.94125042702098 118.62852077758099 L-198.94125042702098 146.34133369868303 L-181.62074235133218 141.34133369868303 L-181.62074235133218 113.62852077758099"/>
		<path opacity="0.5" fill="orange" d="M-197.62074235133218 99.77211431702997 L-181.62074235133218 113.62852077758099 L-198.94125042702098 118.62852077758099 L-214.94125042702098 104.77211431702997 L-197.62074235133218 99.77211431702997"/>
		<path opacity="0.5" fill="orange" d="M-197.62074235133218 127.484927238132 L-181.62074235133218 141.34133369868303 L-198.94125042702098 146.34133369868303 L-214.94125042702098 132.484927238132 L-197.62074235133218 127.484927238132"/>
		<text x="-214.94125042702098" y="118.62852077758099" font-family="calibri" font-size="4">32</text>
		<text x="-206.94125042702098" y="139.41313046840753" font-family="calibri" font-size="4">32</text>
		<text x="-206.28099638917658" y="102.27211431702997" font-family="calibri" font-size="4">20</text>

		<path opacity="0.75" fill="darkturquoise" d="M-96.23669193343176 127.47521366838714 L-93.73669193343176 129.64027717784822 L-93.73669193343176 133.9704041967704 L-96.23669193343176 131.80534068730933 L-96.23669193343176 127.47521366838714"/>
		<path opacity="0.75" fill="darkturquoise" d="M-123.94950485453381 135.47521366838714 L-121.44950485453381 137.64027717784822 L-121.44950485453381 141.9704041967704 L-123.94950485453381 139.80534068730933 L-123.94950485453381 135.47521366838714"/>
		<path opacity="0.75" fill="darkturquoise" d="M-96.23669193343176 127.47521366838714 L-123.94950485453381 135.47521366838714 L-123.94950485453381 139.80534068730933 L-96.23669193343176 131.80534068730933 L-96.23669193343176 127.47521366838714"/>
		<path opacity="0.75" fill="darkturquoise" d="M-93.73669193343176 129.64027717784822 L-121.44950485453381 137.64027717784822 L-121.44950485453381 141.9704041967704 L-93.73669193343176 133.9704041967704 L-93.73669193343176 129.64027717784822"/>
		<path opacity="0.75" fill="darkturquoise" d="M-96.23669193343176 127.47521366838714 L-93.73669193343176 129.64027717784822 L-121.44950485453381 137.64027717784822 L-123.94950485453381 135.47521366838714 L-96.23669193343176 127.47521366838714"/>
		<path opacity="0.75" fill="darkturquoise" d="M-96.23669193343176 131.80534068730933 L-93.73669193343176 133.9704041967704 L-121.44950485453381 141.9704041967704 L-123.94950485453381 139.80534068730933 L-96.23669193343176 131.80534068730933"/>
		<text x="-123.94950485453381" y="137.64027717784825" font-family="calibri" font-size="4">5</text>
		<text x="-122.69950485453381" y="140.88787244203985" font-family="calibri" font-size="4">5</text>
		<text x="-110.09309839398279" y="131.47521366838714" font-family="calibri" font-size="4">32</text>

		<path opacity="0.5" fill="orange" d="M-98.10665924100823 103.95383832488646 L-82.10665924100823 117.81024478543748 L-82.10665924100823 145.52305770653953 L-98.10665924100823 131.6666512459885 L-98.10665924100823 103.95383832488646"/>
		<path opacity="0.5" fill="orange" d="M-125.81947216211029 111.95383832488646 L-109.81947216211029 125.81024478543748 L-109.81947216211029 153.52305770653953 L-125.81947216211029 139.6666512459885 L-125.81947216211029 111.95383832488646"/>
		<path opacity="0.5" fill="orange" d="M-98.10665924100823 103.95383832488646 L-125.81947216211029 111.95383832488646 L-125.81947216211029 139.6666512459885 L-98.10665924100823 131.6666512459885 L-98.10665924100823 103.95383832488646"/>
		<path opacity="0.5" fill="orange" d="M-82.10665924100823 117.81024478543748 L-109.81947216211029 125.81024478543748 L-109.81947216211029 153.52305770653953 L-82.10665924100823 145.52305770653953 L-82.10665924100823 117.81024478543748"/>
		<path opacity="0.5" fill="orange" d="M-98.10665924100823 103.95383832488646 L-82.10665924100823 117.81024478543748 L-109.81947216211029 125.81024478543748 L-125.81947216211029 111.95383832488646 L-98.10665924100823 103.95383832488646"/>
		<path opacity="0.5" fill="orange" d="M-98.10665924100823 131.6666512459885 L-82.10665924100823 145.52305770653953 L-109.81947216211029 153.52305770653953 L-125.81947216211029 139.6666512459885 L-98.10665924100823 131.6666512459885"/>
		<text x="-125.81947216211029" y="125.81024478543748" font-family="calibri" font-size="4">32</text>
		<text x="-117.81947216211029" y="146.594854476264" font-family="calibri" font-size="4">32</text>
		<text x="-111.96306570155926" y="107.95383832488646" font-family="calibri" font-size="4">32</text>

		<path opacity="0.75" fill="pink" d="M-168.48238783723866 131.32607228173742 L-163.48238783723866 135.6561993006596 L-114.04303186652896 133.99848646901248 L-168.48238783723866 131.32607228173742"/>
		<path opacity="0.75" fill="pink" d="M-168.48238783723866 131.32607228173742 L-168.48238783723866 139.98632631958182 L-114.04303186652896 133.99848646901248 L-168.48238783723866 131.32607228173742"/>
		<path opacity="0.75" fill="pink" d="M-163.48238783723866 135.6561993006596 L-163.48238783723866 144.316453338504 L-114.04303186652896 133.99848646901248 L-163.48238783723866 135.6561993006596"/>
		<path opacity="0.75" fill="pink" d="M-168.48238783723866 139.98632631958182 L-163.48238783723866 144.316453338504 L-114.04303186652896 133.99848646901248 L-168.48238783723866 139.98632631958182"/>

		<path opacity="0.75" fill="darkturquoise" d="M-168.48238783723866 131.32607228173742 L-163.48238783723866 135.6561993006596 L-163.48238783723866 144.316453338504 L-168.48238783723866 139.98632631958182 L-168.48238783723866 131.32607228173742"/>
		<path opacity="0.75" fill="darkturquoise" d="M-185.80289591292745 136.32607228173742 L-180.80289591292745 140.6561993006596 L-180.80289591292745 149.316453338504 L-185.80289591292745 144.98632631958182 L-185.80289591292745 136.32607228173742"/>
		<path opacity="0.75" fill="darkturquoise" d="M-168.48238783723866 131.32607228173742 L-185.80289591292745 136.32607228173742 L-185.80289591292745 144.98632631958182 L-168.48238783723866 139.98632631958182 L-168.48238783723866 131.32607228173742"/>
		<path opacity="0.75" fill="darkturquoise" d="M-163.48238783723866 135.6561993006596 L-180.80289591292745 140.6561993006596 L-180.80289591292745 149.316453338504 L-163.48238783723866 144.316453338504 L-163.48238783723866 135.6561993006596"/>
		<path opacity="0.75" fill="darkturquoise" d="M-168.48238783723866 131.32607228173742 L-163.48238783723866 135.6561993006596 L-180.80289591292745 140.6561993006596 L-185.80289591292745 136.32607228173742 L-168.48238783723866 131.32607228173742"/>
		<path opacity="0.75" fill="darkturquoise" d="M-168.48238783723866 139.98632631958182 L-163.48238783723866 144.316453338504 L-180.80289591292745 149.316453338504 L-185.80289591292745 144.98632631958182 L-168.48238783723866 139.98632631958182"/>
		<text x="-185.80289591292745" y="140.65619930065964" font-family="calibri" font-size="4">10</text>
		<text x="-183.30289591292745" y="147.1513898290429" font-family="calibri" font-size="4">10</text>
		<text x="-177.14264187508306" y="133.82607228173742" font-family="calibri" font-size="4">20</text>

		<path opacity="0.5" fill="orange" d="M-169.12074235133218 124.45383832488646 L-153.12074235133218 138.31024478543748 L-153.12074235133218 166.02305770653953 L-169.12074235133218 152.1666512459885 L-169.12074235133218 124.45383832488646"/>
		<path opacity="0.5" fill="orange" d="M-186.44125042702098 129.45383832488648 L-170.44125042702098 143.31024478543748 L-170.44125042702098 171.02305770653953 L-186.44125042702098 157.1666512459885 L-186.44125042702098 129.45383832488648"/>
		<path opacity="0.5" fill="orange" d="M-169.12074235133218 124.45383832488646 L-186.44125042702098 129.45383832488648 L-186.44125042702098 157.1666512459885 L-169.12074235133218 152.1666512459885 L-169.12074235133218 124.45383832488646"/>
		<path opacity="0.5" fill="orange" d="M-153.12074235133218 138.31024478543748 L-170.44125042702098 143.31024478543748 L-170.44125042702098 171.02305770653953 L-153.12074235133218 166.02305770653953 L-153.12074235133218 138.31024478543748"/>
		<path opacity="0.5" fill="orange" d="M-169.12074235133218 124.45383832488646 L-153.12074235133218 138.31024478543748 L-170.44125042702098 143.31024478543748 L-186.44125042702098 129.45383832488648 L-169.12074235133218 124.45383832488646"/>
		<path opacity="0.5" fill="orange" d="M-169.12074235133218 152.1666512459885 L-153.12074235133218 166.02305770653953 L-170.44125042702098 171.02305770653953 L-186.44125042702098 157.1666512459885 L-169.12074235133218 152.1666512459885"/>
		<text x="-186.44125042702098" y="143.31024478543748" font-family="calibri" font-size="4">32</text>
		<text x="-178.44125042702098" y="164.094854476264" font-family="calibri" font-size="4">32</text>
		<text x="-177.78099638917658" y="126.95383832488648" font-family="calibri" font-size="4">20</text>

	 </g>
</svg>