<svg width="1000.0px" height="1000.0px" viewBox="-500.0 -500.0 1000.0 1000.0" xmlns="http://www.w3.org/2000/svg">
	<g stroke="black" stroke-width="0.3">
		<path opacity="0.75" fill="darkturquoise" d="M471.628750427021 -180.3869573849588 L476.628750427021 -176.0568303660366 L476.628750427021 -2.8517496091488397 L471.628750427021 -7.181876628071038 L471.628750427021 -180.3869573849588"/>
		<path opacity="0.75" fill="darkturquoise" d="M462.9684963891766 -177.8869573849588 L467.9684963891766 -173.5568303660366 L467.9684963891766 -0.3517496091488397 L462.9684963891766 -4.681876628071038 L462.9684963891766 -177.8869573849588"/>
		<path opacity="0.75" fill="darkturquoise" d="M471.628750427021 -180.3869573849588 L462.9684963891766 -177.8869573849588 L462.9684963891766 -4.681876628071038 L471.628750427021 -7.181876628071038 L471.628750427021 -180.3869573849588"/>
		<path opacity="0.75" fill="darkturquoise" d="M476.628750427021 -176.0568303660366 L467.9684963891766 -173.5568303660366 L467.9684963891766 -0.3517496091488397 L476.628750427021 -2.8517496091488397 L476.628750427021 -176.0568303660366"/>
		<path opacity="0.75" fill="darkturquoise" d="M471.628750427021 -180.3869573849588 L476.628750427021 -176.0568303660366 L467.9684963891766 -173.5568303660366 L462.9684963891766 -177.8869573849588 L471.628750427021 -180.3869573849588"/>
		<path opacity="0.75" fill="darkturquoise" d="M471.628750427021 -7.181876628071038 L476.628750427021 -2.8517496091488397 L467.9684963891766 -0.3517496091488397 L462.9684963891766 -4.681876628071038 L471.628750427021 -7.181876628071038"/>
		<text x="462.9684963891766" y="-91.28441700651493" font-family="calibri" font-size="4">200</text>
		<text x="465.4684963891766" y="-2.5168131186099387" font-family="calibri" font-size="4">10</text>
		<text x="467.2986234080988" y="-179.1369573849588" font-family="calibri" font-size="4">10</text>

<!-- Arrow -->
		<path opacity="0.5" stroke="black" d="M422.16722619995465 -76.61935349705382 L465.4684963891766 -89.11935349705382"/>
		<circle opacity="0.5" cx="465.4684963891766" cy="-89.11935349705382" r="1" fill="black" />
		<path opacity="0.75" fill="darkturquoise" d="M419.66722619995465 -165.3869573849588 L424.66722619995465 -161.0568303660366 L424.66722619995465 12.14825039085116 L419.66722619995465 7.818123371928962 L419.66722619995465 -165.3869573849588"/>
		<path opacity="0.75" fill="darkturquoise" d="M411.0069721621103 -162.8869573849588 L416.0069721621103 -158.5568303660366 L416.0069721621103 14.64825039085116 L411.0069721621103 10.318123371928962 L411.0069721621103 -162.8869573849588"/>
		<path opacity="0.75" fill="darkturquoise" d="M419.66722619995465 -165.3869573849588 L411.0069721621103 -162.8869573849588 L411.0069721621103 10.318123371928962 L419.66722619995465 7.818123371928962 L419.66722619995465 -165.3869573849588"/>
		<path opacity="0.75" fill="darkturquoise" d="M424.66722619995465 -161.0568303660366 L416.0069721621103 -158.5568303660366 L416.0069721621103 14.64825039085116 L424.66722619995465 12.14825039085116 L424.66722619995465 -161.0568303660366"/>
		<path opacity="0.75" fill="darkturquoise" d="M419.66722619995465 -165.3869573849588 L424.66722619995465 -161.0568303660366 L416.0069721621103 -158.5568303660366 L411.0069721621103 -162.8869573849588 L419.66722619995465 -165.3869573849588"/>
		<path opacity="0.75" fill="darkturquoise" d="M419.66722619995465 7.818123371928962 L424.66722619995465 12.14825039085116 L416.0069721621103 14.64825039085116 L411.0069721621103 10.318123371928962 L419.66722619995465 7.818123371928962"/>
		<text x="411.0069721621103" y="-76.28441700651493" font-family="calibri" font-size="4">200</text>
		<text x="413.5069721621103" y="12.483186881390061" font-family="calibri" font-size="4">10</text>
		<text x="415.3370991810325" y="-164.1369573849588" font-family="calibri" font-size="4">10</text>

		<path opacity="0.5" fill="orange" d="M297.1720588025886 -83.332445428599 L301.1720588025886 -79.86834381346125 L301.1720588025886 -72.94014058318574 L297.1720588025886 -76.40424219832349 L297.1720588025886 -83.332445428599"/>
		<path opacity="0.5" fill="orange" d="M241.74643296038454 -67.332445428599 L245.74643296038454 -63.86834381346125 L245.74643296038454 -56.94014058318574 L241.74643296038454 -60.404242198323495 L241.74643296038454 -67.332445428599"/>
		<path opacity="0.5" fill="orange" d="M297.1720588025886 -83.332445428599 L241.74643296038454 -67.332445428599 L241.74643296038454 -60.404242198323495 L297.1720588025886 -76.40424219832349 L297.1720588025886 -83.332445428599"/>
		<path opacity="0.5" fill="orange" d="M301.1720588025886 -79.86834381346125 L245.74643296038454 -63.86834381346125 L245.74643296038454 -56.94014058318574 L301.1720588025886 -72.94014058318574 L301.1720588025886 -79.86834381346125"/>
		<path opacity="0.5" fill="orange" d="M297.1720588025886 -83.332445428599 L301.1720588025886 -79.86834381346125 L245.74643296038454 -63.86834381346125 L241.74643296038454 -67.332445428599 L297.1720588025886 -83.332445428599"/>
		<path opacity="0.5" fill="orange" d="M297.1720588025886 -76.40424219832349 L301.1720588025886 -72.94014058318574 L245.74643296038454 -56.94014058318574 L241.74643296038454 -60.404242198323495 L297.1720588025886 -76.40424219832349"/>
		<text x="241.74643296038454" y="-63.86834381346125" font-family="calibri" font-size="4">8</text>
		<text x="243.74643296038454" y="-58.67219139075462" font-family="calibri" font-size="4">8</text>
		<text x="269.4592458814866" y="-75.332445428599" font-family="calibri" font-size="4">64</text>

<!-- Arrow -->
		<path opacity="0.5" stroke="black" d="M299.1720588025886 -78.13629300589237 L361.54544793504397 -59.11935349705382"/>
		<circle opacity="0.5" cx="361.54544793504397" cy="-59.11935349705382" r="1" fill="black" />
<!-- Arrow -->
		<path opacity="0.5" stroke="black" d="M370.20570197288833 -61.61935349705382 L413.5069721621103 -74.11935349705382"/>
		<circle opacity="0.5" cx="413.5069721621103" cy="-74.11935349705382" r="1" fill="black" />
		<path opacity="0.75" fill="darkturquoise" d="M367.70570197288833 -150.3869573849588 L372.70570197288833 -146.0568303660366 L372.70570197288833 27.14825039085116 L367.70570197288833 22.818123371928962 L367.70570197288833 -150.3869573849588"/>
		<path opacity="0.75" fill="darkturquoise" d="M359.04544793504397 -147.8869573849588 L364.04544793504397 -143.5568303660366 L364.04544793504397 29.64825039085116 L359.04544793504397 25.318123371928962 L359.04544793504397 -147.8869573849588"/>
		<path opacity="0.75" fill="darkturquoise" d="M367.70570197288833 -150.3869573849588 L359.04544793504397 -147.8869573849588 L359.04544793504397 25.318123371928962 L367.70570197288833 22.818123371928962 L367.70570197288833 -150.3869573849588"/>
		<path opacity="0.75" fill="darkturquoise" d="M372.70570197288833 -146.0568303660366 L364.04544793504397 -143.5568303660366 L364.04544793504397 29.64825039085116 L372.70570197288833 27.14825039085116 L372.70570197288833 -146.0568303660366"/>
		<path opacity="0.75" fill="darkturquoise" d="M367.70570197288833 -150.3869573849588 L372.70570197288833 -146.0568303660366 L364.04544793504397 -143.5568303660366 L359.04544793504397 -147.8869573849588 L367.70570197288833 -150.3869573849588"/>
		<path opacity="0.75" fill="darkturquoise" d="M367.70570197288833 22.818123371928962 L372.70570197288833 27.14825039085116 L364.04544793504397 29.64825039085116 L359.04544793504397 25.318123371928962 L367.70570197288833 22.818123371928962"/>
		<text x="359.04544793504397" y="-61.28441700651492" font-family="calibri" font-size="4">200</text>
		<text x="361.54544793504397" y="27.48318688139006" font-family="calibri" font-size="4">10</text>
		<text x="363.3755749539662" y="-149.1369573849588" font-family="calibri" font-size="4">10</text>

		<path opacity="0.75" fill="pink" d="M199.30861220826696 -52.67018459449894 L201.80861220826696 -50.50512108503784 L243.77829767880098 -64.5219947587774 L199.30861220826696 -52.67018459449894"/>
		<path opacity="0.75" fill="pink" d="M199.30861220826696 -52.67018459449894 L199.30861220826696 -48.34005757557675 L243.77829767880098 -64.5219947587774 L199.30861220826696 -52.67018459449894"/>
		<path opacity="0.75" fill="pink" d="M201.80861220826696 -50.50512108503784 L201.80861220826696 -46.17499406611565 L243.77829767880098 -64.5219947587774 L201.80861220826696 -50.50512108503784"/>
		<path opacity="0.75" fill="pink" d="M199.30861220826696 -48.34005757557675 L201.80861220826696 -46.17499406611565 L243.77829767880098 -64.5219947587774 L199.30861220826696 -48.34005757557675"/>

		<path opacity="0.75" fill="darkturquoise" d="M199.30861220826696 -52.67018459449894 L201.80861220826696 -50.50512108503784 L201.80861220826696 -46.17499406611565 L199.30861220826696 -48.34005757557675 L199.30861220826696 -52.67018459449894"/>
		<path opacity="0.75" fill="darkturquoise" d="M143.8829863660629 -36.67018459449894 L146.38298636606288 -34.50512108503784 L146.38298636606288 -30.17499406611565 L143.8829863660629 -32.34005757557675 L143.8829863660629 -36.67018459449894"/>
		<path opacity="0.75" fill="darkturquoise" d="M199.30861220826696 -52.67018459449894 L143.8829863660629 -36.67018459449894 L143.8829863660629 -32.34005757557675 L199.30861220826696 -48.34005757557675 L199.30861220826696 -52.67018459449894"/>
		<path opacity="0.75" fill="darkturquoise" d="M201.80861220826696 -50.50512108503784 L146.38298636606288 -34.50512108503784 L146.38298636606288 -30.17499406611565 L201.80861220826696 -46.17499406611565 L201.80861220826696 -50.50512108503784"/>
		<path opacity="0.75" fill="darkturquoise" d="M199.30861220826696 -52.67018459449894 L201.80861220826696 -50.50512108503784 L146.38298636606288 -34.50512108503784 L143.8829863660629 -36.67018459449894 L199.30861220826696 -52.67018459449894"/>
		<path opacity="0.75" fill="darkturquoise" d="M199.30861220826696 -48.34005757557675 L201.80861220826696 -46.17499406611565 L146.38298636606288 -30.17499406611565 L143.8829863660629 -32.34005757557675 L199.30861220826696 -48.34005757557675"/>
		<text x="143.8829863660629" y="-34.50512108503784" font-family="calibri" font-size="4">5</text>
		<text x="145.13298636606288" y="-31.2575258208462" font-family="calibri" font-size="4">5</text>
		<text x="171.59579928716494" y="-44.67018459449894" font-family="calibri" font-size="4">64</text>

		<path opacity="0.5" fill="orange" d="M198.4451627711626 -54.832445428599 L202.4451627711626 -51.36834381346125 L202.4451627711626 -44.44014058318574 L198.4451627711626 -47.904242198323495 L198.4451627711626 -54.832445428599"/>
		<path opacity="0.5" fill="orange" d="M143.01953692895853 -38.832445428599 L147.01953692895853 -35.36834381346125 L147.01953692895853 -28.440140583185737 L143.01953692895853 -31.904242198323495 L143.01953692895853 -38.832445428599"/>
		<path opacity="0.5" fill="orange" d="M198.4451627711626 -54.832445428599 L143.01953692895853 -38.832445428599 L143.01953692895853 -31.904242198323495 L198.4451627711626 -47.904242198323495 L198.4451627711626 -54.832445428599"/>
		<path opacity="0.5" fill="orange" d="M202.4451627711626 -51.36834381346125 L147.01953692895853 -35.36834381346125 L147.01953692895853 -28.440140583185737 L202.4451627711626 -44.44014058318574 L202.4451627711626 -51.36834381346125"/>
		<path opacity="0.5" fill="orange" d="M198.4451627711626 -54.832445428599 L202.4451627711626 -51.36834381346125 L147.01953692895853 -35.36834381346125 L143.01953692895853 -38.832445428599 L198.4451627711626 -54.832445428599"/>
		<path opacity="0.5" fill="orange" d="M198.4451627711626 -47.904242198323495 L202.4451627711626 -44.44014058318574 L147.01953692895853 -28.440140583185737 L143.01953692895853 -31.904242198323495 L198.4451627711626 -47.904242198323495"/>
		<text x="143.01953692895853" y="-35.36834381346125" font-family="calibri" font-size="4">8</text>
		<text x="145.01953692895853" y="-30.172191390754616" font-family="calibri" font-size="4">8</text>
		<text x="170.73234985006056" y="-46.832445428599" font-family="calibri" font-size="4">64</text>

<!-- Arrow -->
		<path opacity="0.5" stroke="black" d="M93.33364779650317 -43.39758601178475 L145.01953692895853 -33.63629300589237"/>
		<circle opacity="0.5" cx="145.01953692895853" cy="-33.63629300589237" r="1" fill="black" />
		<path opacity="0.5" fill="orange" d="M91.33364779650317 -48.59373843449138 L95.33364779650317 -45.12963681935363 L95.33364779650317 -38.20143358907812 L91.33364779650317 -41.665535204215864 L91.33364779650317 -48.59373843449138"/>
		<path opacity="0.5" fill="orange" d="M35.9080219542991 -32.59373843449138 L39.9080219542991 -29.129636819353628 L39.9080219542991 -22.201433589078118 L35.9080219542991 -25.665535204215864 L35.9080219542991 -32.59373843449138"/>
		<path opacity="0.5" fill="orange" d="M91.33364779650317 -48.59373843449138 L35.9080219542991 -32.59373843449138 L35.9080219542991 -25.665535204215864 L91.33364779650317 -41.665535204215864 L91.33364779650317 -48.59373843449138"/>
		<path opacity="0.5" fill="orange" d="M95.33364779650317 -45.12963681935363 L39.9080219542991 -29.129636819353628 L39.9080219542991 -22.201433589078118 L95.33364779650317 -38.20143358907812 L95.33364779650317 -45.12963681935363"/>
		<path opacity="0.5" fill="orange" d="M91.33364779650317 -48.59373843449138 L95.33364779650317 -45.12963681935363 L39.9080219542991 -29.129636819353628 L35.9080219542991 -32.59373843449138 L91.33364779650317 -48.59373843449138"/>
		<path opacity="0.5" fill="orange" d="M91.33364779650317 -41.665535204215864 L95.33364779650317 -38.20143358907812 L39.9080219542991 -22.201433589078118 L35.9080219542991 -25.665535204215864 L91.33364779650317 -41.665535204215864"/>
		<text x="35.9080219542991" y="-29.12963681935362" font-family="calibri" font-size="4">8</text>
		<text x="37.9080219542991" y="-23.93348439664699" font-family="calibri" font-size="4">8</text>
		<text x="63.62083487540114" y="-40.59373843449138" font-family="calibri" font-size="4">64</text>

<!-- Arrow -->
		<path opacity="0.5" stroke="black" d="M277.5605438279292 2.147586011784747 L361.54544793504397 -59.11935349705382"/>
		<circle opacity="0.5" cx="361.54544793504397" cy="-59.11935349705382" r="1" fill="black" />
		<path opacity="0.75" fill="pink" d="M-5.433641470879039 -20.445824590177203 L-2.9336414708790386 -18.28076108071611 L37.39832574762755 -30.26014850383455 L-5.433641470879039 -20.445824590177203"/>
		<path opacity="0.75" fill="pink" d="M-5.433641470879039 -20.445824590177203 L-5.433641470879039 -16.115697571255005 L37.39832574762755 -30.26014850383455 L-5.433641470879039 -20.445824590177203"/>
		<path opacity="0.75" fill="pink" d="M-2.9336414708790386 -18.28076108071611 L-2.9336414708790386 -13.950634061793913 L37.39832574762755 -30.26014850383455 L-2.9336414708790386 -18.28076108071611"/>
		<path opacity="0.75" fill="pink" d="M-5.433641470879039 -16.115697571255005 L-2.9336414708790386 -13.950634061793913 L37.39832574762755 -30.26014850383455 L-5.433641470879039 -16.115697571255005"/>

<!-- Arrow -->
		<path opacity="0.5" stroke="black" d="M50.34713282184376 18.375 L145.01953692895853 -33.63629300589237"/>
		<circle opacity="0.5" cx="145.01953692895853" cy="-33.63629300589237" r="1" fill="black" />
		<path opacity="0.75" fill="darkturquoise" d="M-5.433641470879039 -20.445824590177203 L-2.9336414708790386 -18.28076108071611 L-2.9336414708790386 -13.950634061793913 L-5.433641470879039 -16.115697571255005 L-5.433641470879039 -20.445824590177203"/>
		<path opacity="0.75" fill="darkturquoise" d="M-60.85926731308308 -4.445824590177203 L-58.35926731308308 -2.280761080716111 L-58.35926731308308 2.049365938206087 L-60.85926731308308 -0.11569757125500502 L-60.85926731308308 -4.445824590177203"/>
		<path opacity="0.75" fill="darkturquoise" d="M-5.433641470879039 -20.445824590177203 L-60.85926731308308 -4.445824590177203 L-60.85926731308308 -0.11569757125500502 L-5.433641470879039 -16.115697571255005 L-5.433641470879039 -20.445824590177203"/>
		<path opacity="0.75" fill="darkturquoise" d="M-2.9336414708790386 -18.28076108071611 L-58.35926731308308 -2.280761080716111 L-58.35926731308308 2.049365938206087 L-2.9336414708790386 -13.950634061793913 L-2.9336414708790386 -18.28076108071611"/>
		<path opacity="0.75" fill="darkturquoise" d="M-5.433641470879039 -20.445824590177203 L-2.9336414708790386 -18.28076108071611 L-58.35926731308308 -2.280761080716111 L-60.85926731308308 -4.445824590177203 L-5.433641470879039 -20.445824590177203"/>
		<path opacity="0.75" fill="darkturquoise" d="M-5.433641470879039 -16.115697571255005 L-2.9336414708790386 -13.950634061793913 L-58.35926731308308 2.049365938206087 L-60.85926731308308 -0.11569757125500502 L-5.433641470879039 -16.115697571255005"/>
		<text x="-60.85926731308308" y="-2.280761080716104" font-family="calibri" font-size="4">5</text>
		<text x="-59.60926731308308" y="0.966834183475541" font-family="calibri" font-size="4">5</text>
		<text x="-33.14645439198106" y="-12.445824590177203" font-family="calibri" font-size="4">64</text>

		<path opacity="0.5" fill="orange" d="M-9.393248234922822 -25.289890857198003 L-1.3932482349228223 -18.361687626922496 L-1.3932482349228223 -4.5052811663714785 L-9.393248234922822 -11.433484396646989 L-9.393248234922822 -25.289890857198003"/>
		<path opacity="0.5" fill="orange" d="M-64.81887407712688 -9.289890857198003 L-56.81887407712688 -2.361687626922496 L-56.81887407712688 11.494718833628522 L-64.81887407712688 4.566515603353011 L-64.81887407712688 -9.289890857198003"/>
		<path opacity="0.5" fill="orange" d="M-9.393248234922822 -25.289890857198003 L-64.81887407712688 -9.289890857198003 L-64.81887407712688 4.566515603353011 L-9.393248234922822 -11.433484396646989 L-9.393248234922822 -25.289890857198003"/>
		<path opacity="0.5" fill="orange" d="M-1.3932482349228223 -18.361687626922496 L-56.81887407712688 -2.361687626922496 L-56.81887407712688 11.494718833628522 L-1.3932482349228223 -4.5052811663714785 L-1.3932482349228223 -18.361687626922496"/>
		<path opacity="0.5" fill="orange" d="M-9.393248234922822 -25.289890857198003 L-1.3932482349228223 -18.361687626922496 L-56.81887407712688 -2.361687626922496 L-64.81887407712688 -9.289890857198003 L-9.393248234922822 -25.289890857198003"/>
		<path opacity="0.5" fill="orange" d="M-9.393248234922822 -11.433484396646989 L-1.3932482349228223 -4.5052811663714785 L-56.81887407712688 11.494718833628522 L-64.81887407712688 4.566515603353011 L-9.393248234922822 -11.433484396646989"/>
		<text x="-64.81887407712688" y="-2.361687626922496" font-family="calibri" font-size="4">16</text>
		<text x="-60.81887407712688" y="8.030617218490766" font-family="calibri" font-size="4">16</text>
		<text x="-37.10606115602485" y="-17.289890857198003" font-family="calibri" font-size="4">64</text>

<!-- Arrow -->
		<path opacity="0.5" stroke="black" d="M-105.37976320958228 -2.4884480157129936 L-60.81887407712688 1.1024139882152584"/>
		<circle opacity="0.5" cx="-60.81887407712688" cy="1.1024139882152584" r="1" fill="black" />
		<path opacity="0.5" fill="orange" d="M-109.37976320958228 -12.880752861126254 L-101.37976320958228 -5.952549630850747 L-101.37976320958228 7.903856829700267 L-109.37976320958228 0.9756535994247599 L-109.37976320958228 -12.880752861126254"/>
		<path opacity="0.5" fill="orange" d="M-164.80538905178634 3.119247138873746 L-156.80538905178634 10.047450369149253 L-156.80538905178634 23.903856829700267 L-164.80538905178634 16.97565359942476 L-164.80538905178634 3.119247138873746"/>
		<path opacity="0.5" fill="orange" d="M-109.37976320958228 -12.880752861126254 L-164.80538905178634 3.119247138873746 L-164.80538905178634 16.97565359942476 L-109.37976320958228 0.9756535994247599 L-109.37976320958228 -12.880752861126254"/>
		<path opacity="0.5" fill="orange" d="M-101.37976320958228 -5.952549630850747 L-156.80538905178634 10.047450369149253 L-156.80538905178634 23.903856829700267 L-101.37976320958228 7.903856829700267 L-101.37976320958228 -5.952549630850747"/>
		<path opacity="0.5" fill="orange" d="M-109.37976320958228 -12.880752861126254 L-101.37976320958228 -5.952549630850747 L-156.80538905178634 10.047450369149253 L-164.80538905178634 3.119247138873746 L-109.37976320958228 -12.880752861126254"/>
		<path opacity="0.5" fill="orange" d="M-109.37976320958228 0.9756535994247599 L-101.37976320958228 7.903856829700267 L-156.80538905178634 23.903856829700267 L-164.80538905178634 16.97565359942476 L-109.37976320958228 0.9756535994247599"/>
		<text x="-164.80538905178634" y="10.047450369149253" font-family="calibri" font-size="4">16</text>
		<text x="-160.80538905178634" y="20.439755214562513" font-family="calibri" font-size="4">16</text>
		<text x="-137.0925761306843" y="-4.880752861126254" font-family="calibri" font-size="4">64</text>

		<path opacity="0.5" fill="orange" d="M275.5605438279292 -3.0485664109218824 L279.5605438279292 0.415535204215864 L279.5605438279292 7.343738434491378 L275.5605438279292 3.879636819353628 L275.5605438279292 -3.0485664109218824"/>
		<path opacity="0.5" fill="orange" d="M220.1349179857251 12.951433589078118 L224.1349179857251 16.415535204215864 L224.1349179857251 23.343738434491378 L220.1349179857251 19.879636819353628 L220.1349179857251 12.951433589078118"/>
		<path opacity="0.5" fill="orange" d="M275.5605438279292 -3.0485664109218824 L220.1349179857251 12.951433589078118 L220.1349179857251 19.879636819353628 L275.5605438279292 3.879636819353628 L275.5605438279292 -3.0485664109218824"/>
		<path opacity="0.5" fill="orange" d="M279.5605438279292 0.415535204215864 L224.1349179857251 16.415535204215864 L224.1349179857251 23.343738434491378 L279.5605438279292 7.343738434491378 L279.5605438279292 0.415535204215864"/>
		<path opacity="0.5" fill="orange" d="M275.5605438279292 -3.0485664109218824 L279.5605438279292 0.415535204215864 L224.1349179857251 16.415535204215864 L220.1349179857251 12.951433589078118 L275.5605438279292 -3.0485664109218824"/>
		<path opacity="0.5" fill="orange" d="M275.5605438279292 3.879636819353628 L279.5605438279292 7.343738434491378 L224.1349179857251 23.343738434491378 L220.1349179857251 19.879636819353628 L275.5605438279292 3.879636819353628"/>
		<text x="220.1349179857251" y="16.41553520421587" font-family="calibri" font-size="4">8</text>
		<text x="222.1349179857251" y="21.611687626922503" font-family="calibri" font-size="4">8</text>
		<text x="247.84773090682717" y="4.951433589078118" font-family="calibri" font-size="4">64</text>

<!-- Arrow -->
		<path opacity="0.5" stroke="black" d="M-76.87976320958225 22.193275992143505 L-60.81887407712688 1.1024139882152584"/>
		<circle opacity="0.5" cx="-60.81887407712688" cy="1.1024139882152584" r="1" fill="black" />
		<path opacity="0.75" fill="pink" d="M-205.9647846587825 27.338931181822964 L-203.4647846587825 29.503994691284063 L-159.90677716910892 10.093631116759916 L-205.9647846587825 27.338931181822964"/>
		<path opacity="0.75" fill="pink" d="M-205.9647846587825 27.338931181822964 L-205.9647846587825 31.669058200745162 L-159.90677716910892 10.093631116759916 L-205.9647846587825 27.338931181822964"/>
		<path opacity="0.75" fill="pink" d="M-203.4647846587825 29.503994691284063 L-203.4647846587825 33.83412171020626 L-159.90677716910892 10.093631116759916 L-203.4647846587825 29.503994691284063"/>
		<path opacity="0.75" fill="pink" d="M-205.9647846587825 31.669058200745162 L-203.4647846587825 33.83412171020626 L-159.90677716910892 10.093631116759916 L-205.9647846587825 31.669058200745162"/>

		<path opacity="0.5" fill="orange" d="M48.34713282184376 13.178847577293368 L52.347132821843765 16.64294919243112 L52.347132821843765 23.571152422706632 L48.34713282184376 20.10705080756888 L48.34713282184376 13.178847577293368"/>
		<path opacity="0.5" fill="orange" d="M-7.0784930203603125 29.178847577293368 L-3.0784930203603125 32.642949192431125 L-3.0784930203603125 39.57115242270663 L-7.0784930203603125 36.107050807568875 L-7.0784930203603125 29.178847577293368"/>
		<path opacity="0.5" fill="orange" d="M48.34713282184376 13.178847577293368 L-7.0784930203603125 29.178847577293368 L-7.0784930203603125 36.107050807568875 L48.34713282184376 20.10705080756888 L48.34713282184376 13.178847577293368"/>
		<path opacity="0.5" fill="orange" d="M52.347132821843765 16.64294919243112 L-3.0784930203603125 32.642949192431125 L-3.0784930203603125 39.57115242270663 L52.347132821843765 23.571152422706632 L52.347132821843765 16.64294919243112"/>
		<path opacity="0.5" fill="orange" d="M48.34713282184376 13.178847577293368 L52.347132821843765 16.64294919243112 L-3.0784930203603125 32.642949192431125 L-7.0784930203603125 29.178847577293368 L48.34713282184376 13.178847577293368"/>
		<path opacity="0.5" fill="orange" d="M48.34713282184376 20.10705080756888 L52.347132821843765 23.571152422706632 L-3.0784930203603125 39.57115242270663 L-7.0784930203603125 36.107050807568875 L48.34713282184376 20.10705080756888"/>
		<text x="-7.0784930203603125" y="32.64294919243112" font-family="calibri" font-size="4">8</text>
		<text x="-5.0784930203603125" y="37.83910161513775" font-family="calibri" font-size="4">8</text>
		<text x="20.634319900741723" y="21.178847577293368" font-family="calibri" font-size="4">64</text>

		<path opacity="0.75" fill="pink" d="M178.03543659325354 27.2871059168372 L180.53543659325354 29.45216942629829 L223.6093592902817 16.745429646723558 L178.03543659325354 27.2871059168372"/>
		<path opacity="0.75" fill="pink" d="M178.03543659325354 27.2871059168372 L178.03543659325354 31.617232935759397 L223.6093592902817 16.745429646723558 L178.03543659325354 27.2871059168372"/>
		<path opacity="0.75" fill="pink" d="M180.53543659325354 29.45216942629829 L180.53543659325354 33.78229644522049 L223.6093592902817 16.745429646723558 L180.53543659325354 29.45216942629829"/>
		<path opacity="0.75" fill="pink" d="M178.03543659325354 31.617232935759397 L180.53543659325354 33.78229644522049 L223.6093592902817 16.745429646723558 L178.03543659325354 31.617232935759397"/>

		<path opacity="0.75" fill="darkturquoise" d="M-205.9647846587825 27.338931181822964 L-203.4647846587825 29.503994691284063 L-203.4647846587825 33.83412171020626 L-205.9647846587825 31.669058200745162 L-205.9647846587825 27.338931181822964"/>
		<path opacity="0.75" fill="darkturquoise" d="M-233.67759757988455 35.338931181822964 L-231.17759757988455 37.50399469128406 L-231.17759757988455 41.83412171020626 L-233.67759757988455 39.66905820074516 L-233.67759757988455 35.338931181822964"/>
		<path opacity="0.75" fill="darkturquoise" d="M-205.9647846587825 27.338931181822964 L-233.67759757988455 35.338931181822964 L-233.67759757988455 39.66905820074516 L-205.9647846587825 31.669058200745162 L-205.9647846587825 27.338931181822964"/>
		<path opacity="0.75" fill="darkturquoise" d="M-203.4647846587825 29.503994691284063 L-231.17759757988455 37.50399469128406 L-231.17759757988455 41.83412171020626 L-203.4647846587825 33.83412171020626 L-203.4647846587825 29.503994691284063"/>
		<path opacity="0.75" fill="darkturquoise" d="M-205.9647846587825 27.338931181822964 L-203.4647846587825 29.503994691284063 L-231.17759757988455 37.50399469128406 L-233.67759757988455 35.338931181822964 L-205.9647846587825 27.338931181822964"/>
		<path opacity="0.75" fill="darkturquoise" d="M-205.9647846587825 31.669058200745162 L-203.4647846587825 33.83412171020626 L-231.17759757988455 41.83412171020626 L-233.67759757988455 39.66905820074516 L-205.9647846587825 31.669058200745162"/>
		<text x="-233.67759757988455" y="37.50399469128406" font-family="calibri" font-size="4">5</text>
		<text x="-232.42759757988455" y="40.75158995547571" font-family="calibri" font-size="4">5</text>
		<text x="-219.82119111933352" y="31.338931181822964" font-family="calibri" font-size="4">32</text>

		<path opacity="0.5" fill="orange" d="M-212.10665924100823 5.226942293460482 L-196.10665924100823 19.083348754011496 L-196.10665924100823 46.79616167511354 L-212.10665924100823 32.93975521456252 L-212.10665924100823 5.226942293460482"/>
		<path opacity="0.5" fill="orange" d="M-239.8194721621103 13.226942293460482 L-223.8194721621103 27.083348754011496 L-223.8194721621103 54.79616167511354 L-239.8194721621103 40.93975521456252 L-239.8194721621103 13.226942293460482"/>
		<path opacity="0.5" fill="orange" d="M-212.10665924100823 5.226942293460482 L-239.8194721621103 13.226942293460482 L-239.8194721621103 40.93975521456252 L-212.10665924100823 32.93975521456252 L-212.10665924100823 5.226942293460482"/>
		<path opacity="0.5" fill="orange" d="M-196.10665924100823 19.083348754011496 L-223.8194721621103 27.083348754011496 L-223.8194721621103 54.79616167511354 L-196.10665924100823 46.79616167511354 L-196.10665924100823 19.083348754011496"/>
		<path opacity="0.5" fill="orange" d="M-212.10665924100823 5.226942293460482 L-196.10665924100823 19.083348754011496 L-223.8194721621103 27.083348754011496 L-239.8194721621103 13.226942293460482 L-212.10665924100823 5.226942293460482"/>
		<path opacity="0.5" fill="orange" d="M-212.10665924100823 32.93975521456252 L-196.10665924100823 46.79616167511354 L-223.8194721621103 54.79616167511354 L-239.8194721621103 40.93975521456252 L-212.10665924100823 32.93975521456252"/>
		<text x="-239.8194721621103" y="27.0833487540115" font-family="calibri" font-size="4">32</text>
		<text x="-231.8194721621103" y="47.867958444838024" font-family="calibri" font-size="4">32</text>
		<text x="-225.96306570155926" y="9.226942293460482" font-family="calibri" font-size="4">32</text>

		<path opacity="0.5" fill="orange" d="M-80.87976320958225 11.800971146730241 L-72.87976320958225 18.729174377005748 L-72.87976320958225 32.58558083755677 L-80.87976320958225 25.65737760728126 L-80.87976320958225 11.800971146730241"/>
		<path opacity="0.5" fill="orange" d="M-136.3053890517863 27.80097114673024 L-128.3053890517863 34.72917437700575 L-128.3053890517863 48.58558083755677 L-136.3053890517863 41.65737760728126 L-136.3053890517863 27.80097114673024"/>
		<path opacity="0.5" fill="orange" d="M-80.87976320958225 11.800971146730241 L-136.3053890517863 27.80097114673024 L-136.3053890517863 41.65737760728126 L-80.87976320958225 25.65737760728126 L-80.87976320958225 11.800971146730241"/>
		<path opacity="0.5" fill="orange" d="M-72.87976320958225 18.729174377005748 L-128.3053890517863 34.72917437700575 L-128.3053890517863 48.58558083755677 L-72.87976320958225 32.58558083755677 L-72.87976320958225 18.729174377005748"/>
		<path opacity="0.5" fill="orange" d="M-80.87976320958225 11.800971146730241 L-72.87976320958225 18.729174377005748 L-128.3053890517863 34.72917437700575 L-136.3053890517863 27.80097114673024 L-80.87976320958225 11.800971146730241"/>
		<path opacity="0.5" fill="orange" d="M-80.87976320958225 25.65737760728126 L-72.87976320958225 32.58558083755677 L-128.3053890517863 48.58558083755677 L-136.3053890517863 41.65737760728126 L-80.87976320958225 25.65737760728126"/>
		<text x="-136.3053890517863" y="34.72917437700575" font-family="calibri" font-size="4">16</text>
		<text x="-132.3053890517863" y="45.12147922241901" font-family="calibri" font-size="4">16</text>
		<text x="-108.59257613068428" y="19.80097114673024" font-family="calibri" font-size="4">64</text>

		<path opacity="0.75" fill="darkturquoise" d="M178.03543659325354 27.2871059168372 L180.53543659325354 29.45216942629829 L180.53543659325354 33.78229644522049 L178.03543659325354 31.617232935759397 L178.03543659325354 27.2871059168372"/>
		<path opacity="0.75" fill="darkturquoise" d="M122.60981075104948 43.2871059168372 L125.10981075104948 45.45216942629829 L125.10981075104948 49.78229644522049 L122.60981075104948 47.6172329357594 L122.60981075104948 43.2871059168372"/>
		<path opacity="0.75" fill="darkturquoise" d="M178.03543659325354 27.2871059168372 L122.60981075104948 43.2871059168372 L122.60981075104948 47.6172329357594 L178.03543659325354 31.617232935759397 L178.03543659325354 27.2871059168372"/>
		<path opacity="0.75" fill="darkturquoise" d="M180.53543659325354 29.45216942629829 L125.10981075104948 45.45216942629829 L125.10981075104948 49.78229644522049 L180.53543659325354 33.78229644522049 L180.53543659325354 29.45216942629829"/>
		<path opacity="0.75" fill="darkturquoise" d="M178.03543659325354 27.2871059168372 L180.53543659325354 29.45216942629829 L125.10981075104948 45.45216942629829 L122.60981075104948 43.2871059168372 L178.03543659325354 27.2871059168372"/>
		<path opacity="0.75" fill="darkturquoise" d="M178.03543659325354 31.617232935759397 L180.53543659325354 33.78229644522049 L125.10981075104948 49.78229644522049 L122.60981075104948 47.6172329357594 L178.03543659325354 31.617232935759397"/>
		<text x="122.60981075104948" y="45.4521694262983" font-family="calibri" font-size="4">5</text>
		<text x="123.85981075104948" y="48.69976469048994" font-family="calibri" font-size="4">5</text>
		<text x="150.3226236721515" y="35.2871059168372" font-family="calibri" font-size="4">64</text>

		<path opacity="0.5" fill="orange" d="M176.8336477965032 25.451433589078118 L180.8336477965032 28.915535204215864 L180.8336477965032 35.84373843449138 L176.8336477965032 32.37963681935363 L176.8336477965032 25.451433589078118"/>
		<path opacity="0.5" fill="orange" d="M121.40802195429913 41.45143358907812 L125.40802195429913 44.915535204215864 L125.40802195429913 51.84373843449138 L121.40802195429913 48.37963681935363 L121.40802195429913 41.45143358907812"/>
		<path opacity="0.5" fill="orange" d="M176.8336477965032 25.451433589078118 L121.40802195429913 41.45143358907812 L121.40802195429913 48.37963681935363 L176.8336477965032 32.37963681935363 L176.8336477965032 25.451433589078118"/>
		<path opacity="0.5" fill="orange" d="M180.8336477965032 28.915535204215864 L125.40802195429913 44.915535204215864 L125.40802195429913 51.84373843449138 L180.8336477965032 35.84373843449138 L180.8336477965032 28.915535204215864"/>
		<path opacity="0.5" fill="orange" d="M176.8336477965032 25.451433589078118 L180.8336477965032 28.915535204215864 L125.40802195429913 44.915535204215864 L121.40802195429913 41.45143358907812 L176.8336477965032 25.451433589078118"/>
		<path opacity="0.5" fill="orange" d="M176.8336477965032 32.37963681935363 L180.8336477965032 35.84373843449138 L125.40802195429913 51.84373843449138 L121.40802195429913 48.37963681935363 L176.8336477965032 32.37963681935363"/>
		<text x="121.40802195429913" y="44.91553520421587" font-family="calibri" font-size="4">8</text>
		<text x="123.40802195429913" y="50.1116876269225" font-family="calibri" font-size="4">8</text>
		<text x="149.12083487540116" y="33.45143358907812" font-family="calibri" font-size="4">64</text>

		<path opacity="0.75" fill="pink" d="M-183.29131599600822 38.53655465913279 L-180.79131599600822 40.70161816859389 L-133.8254515146669 40.24222255984959 L-183.29131599600822 38.53655465913279"/>
		<path opacity="0.75" fill="pink" d="M-183.29131599600822 38.53655465913279 L-183.29131599600822 42.86668167805499 L-133.8254515146669 40.24222255984959 L-183.29131599600822 38.53655465913279"/>
		<path opacity="0.75" fill="pink" d="M-180.79131599600822 40.70161816859389 L-180.79131599600822 45.03174518751608 L-133.8254515146669 40.24222255984959 L-180.79131599600822 40.70161816859389"/>
		<path opacity="0.75" fill="pink" d="M-183.29131599600822 42.86668167805499 L-180.79131599600822 45.03174518751608 L-133.8254515146669 40.24222255984959 L-183.29131599600822 42.86668167805499"/>

<!-- Arrow -->
		<path opacity="0.5" stroke="black" d="M78.84713282184377 43.056724007856495 L123.40802195429913 46.647586011784746"/>
		<circle opacity="0.5" cx="123.40802195429913" cy="46.647586011784746" r="1" fill="black" />
		<path opacity="0.75" fill="pink" d="M-48.669197376611066 41.87426849142989 L-46.16919737661104 44.03933200089098 L-4.749988961017451 32.31579079597377 L-48.669197376611066 41.87426849142989"/>
		<path opacity="0.75" fill="pink" d="M-48.669197376611066 41.87426849142989 L-48.669197376611066 46.20439551035208 L-4.749988961017451 32.31579079597377 L-48.669197376611066 41.87426849142989"/>
		<path opacity="0.75" fill="pink" d="M-46.16919737661104 44.03933200089098 L-46.16919737661104 48.36945901981318 L-4.749988961017451 32.31579079597377 L-46.16919737661104 44.03933200089098"/>
		<path opacity="0.75" fill="pink" d="M-48.669197376611066 46.20439551035208 L-46.16919737661104 48.36945901981318 L-4.749988961017451 32.31579079597377 L-48.669197376611066 46.20439551035208"/>

		<path opacity="0.75" fill="pink" d="M-272.88251532003807 42.23539896713554 L-267.88251532003807 46.56552598605773 L-238.3567435333095 20.791258228462922 L-272.88251532003807 42.23539896713554"/>
		<path opacity="0.75" fill="pink" d="M-272.88251532003807 42.23539896713554 L-272.88251532003807 50.89565300497993 L-238.3567435333095 20.791258228462922 L-272.88251532003807 42.23539896713554"/>
		<path opacity="0.75" fill="pink" d="M-267.88251532003807 46.56552598605773 L-267.88251532003807 55.22578002390212 L-238.3567435333095 20.791258228462922 L-267.88251532003807 46.56552598605773"/>
		<path opacity="0.75" fill="pink" d="M-272.88251532003807 50.89565300497993 L-267.88251532003807 55.22578002390212 L-238.3567435333095 20.791258228462922 L-272.88251532003807 50.89565300497993"/>

		<path opacity="0.75" fill="darkturquoise" d="M-272.88251532003807 42.23539896713554 L-267.88251532003807 46.56552598605773 L-267.88251532003807 55.22578002390212 L-272.88251532003807 50.89565300497993 L-272.88251532003807 42.23539896713554"/>
		<path opacity="0.75" fill="darkturquoise" d="M-290.20302339572686 47.23539896713554 L-285.20302339572686 51.56552598605773 L-285.20302339572686 60.22578002390212 L-290.20302339572686 55.89565300497993 L-290.20302339572686 47.23539896713554"/>
		<path opacity="0.75" fill="darkturquoise" d="M-272.88251532003807 42.23539896713554 L-290.20302339572686 47.23539896713554 L-290.20302339572686 55.89565300497993 L-272.88251532003807 50.89565300497993 L-272.88251532003807 42.23539896713554"/>
		<path opacity="0.75" fill="darkturquoise" d="M-267.88251532003807 46.56552598605773 L-285.20302339572686 51.56552598605773 L-285.20302339572686 60.22578002390212 L-267.88251532003807 55.22578002390212 L-267.88251532003807 46.56552598605773"/>
		<path opacity="0.75" fill="darkturquoise" d="M-272.88251532003807 42.23539896713554 L-267.88251532003807 46.56552598605773 L-285.20302339572686 51.56552598605773 L-290.20302339572686 47.23539896713554 L-272.88251532003807 42.23539896713554"/>
		<path opacity="0.75" fill="darkturquoise" d="M-272.88251532003807 50.89565300497993 L-267.88251532003807 55.22578002390212 L-285.20302339572686 60.22578002390212 L-290.20302339572686 55.89565300497993 L-272.88251532003807 50.89565300497993"/>
		<text x="-290.20302339572686" y="51.565525986057736" font-family="calibri" font-size="4">10</text>
		<text x="-287.70302339572686" y="58.060716514441026" font-family="calibri" font-size="4">10</text>
		<text x="-281.54276935788243" y="44.73539896713554" font-family="calibri" font-size="4">20</text>

		<path opacity="0.5" fill="orange" d="M-283.1207423513322 25.726942293460482 L-267.1207423513322 39.583348754011496 L-267.1207423513322 67.29616167511354 L-283.1207423513322 53.43975521456252 L-283.1207423513322 25.726942293460482"/>
		<path opacity="0.5" fill="orange" d="M-300.441250427021 30.726942293460482 L-284.441250427021 44.583348754011496 L-284.441250427021 72.29616167511354 L-300.441250427021 58.43975521456252 L-300.441250427021 30.726942293460482"/>
		<path opacity="0.5" fill="orange" d="M-283.1207423513322 25.726942293460482 L-300.441250427021 30.726942293460482 L-300.441250427021 58.43975521456252 L-283.1207423513322 53.43975521456252 L-283.1207423513322 25.726942293460482"/>
		<path opacity="0.5" fill="orange" d="M-267.1207423513322 39.583348754011496 L-284.441250427021 44.583348754011496 L-284.441250427021 72.29616167511354 L-267.1207423513322 67.29616167511354 L-267.1207423513322 39.583348754011496"/>
		<path opacity="0.5" fill="orange" d="M-283.1207423513322 25.726942293460482 L-267.1207423513322 39.583348754011496 L-284.441250427021 44.583348754011496 L-300.441250427021 30.726942293460482 L-283.1207423513322 25.726942293460482"/>
		<path opacity="0.5" fill="orange" d="M-283.1207423513322 53.43975521456252 L-267.1207423513322 67.29616167511354 L-284.441250427021 72.29616167511354 L-300.441250427021 58.43975521456252 L-283.1207423513322 53.43975521456252"/>
		<text x="-300.441250427021" y="44.583348754011496" font-family="calibri" font-size="4">32</text>
		<text x="-292.441250427021" y="65.36795844483802" font-family="calibri" font-size="4">32</text>
		<text x="-291.7809963891766" y="28.226942293460482" font-family="calibri" font-size="4">20</text>

		<path opacity="0.5" fill="orange" d="M76.84713282184377 37.86057158514987 L80.84713282184377 41.32467320028762 L80.84713282184377 48.25287643056313 L76.84713282184377 44.78877481542537 L76.84713282184377 37.86057158514987"/>
		<path opacity="0.5" fill="orange" d="M21.4215069796397 53.86057158514987 L25.4215069796397 57.32467320028762 L25.4215069796397 64.25287643056313 L21.4215069796397 60.78877481542537 L21.4215069796397 53.86057158514987"/>
		<path opacity="0.5" fill="orange" d="M76.84713282184377 37.86057158514987 L21.4215069796397 53.86057158514987 L21.4215069796397 60.78877481542537 L76.84713282184377 44.78877481542537 L76.84713282184377 37.86057158514987"/>
		<path opacity="0.5" fill="orange" d="M80.84713282184377 41.32467320028762 L25.4215069796397 57.32467320028762 L25.4215069796397 64.25287643056313 L80.84713282184377 48.25287643056313 L80.84713282184377 41.32467320028762"/>
		<path opacity="0.5" fill="orange" d="M76.84713282184377 37.86057158514987 L80.84713282184377 41.32467320028762 L25.4215069796397 57.32467320028762 L21.4215069796397 53.86057158514987 L76.84713282184377 37.86057158514987"/>
		<path opacity="0.5" fill="orange" d="M76.84713282184377 44.78877481542537 L80.84713282184377 48.25287643056313 L25.4215069796397 64.25287643056313 L21.4215069796397 60.78877481542537 L76.84713282184377 44.78877481542537"/>
		<text x="21.4215069796397" y="57.32467320028762" font-family="calibri" font-size="4">8</text>
		<text x="23.4215069796397" y="62.52082562299425" font-family="calibri" font-size="4">8</text>
		<text x="49.13431990074174" y="45.86057158514987" font-family="calibri" font-size="4">64</text>

		<path opacity="0.75" fill="darkturquoise" d="M-183.29131599600822 38.53655465913279 L-180.79131599600822 40.70161816859389 L-180.79131599600822 45.03174518751608 L-183.29131599600822 42.86668167805499 L-183.29131599600822 38.53655465913279"/>
		<path opacity="0.75" fill="darkturquoise" d="M-211.00412891711028 46.53655465913279 L-208.50412891711028 48.70161816859389 L-208.50412891711028 53.03174518751608 L-211.00412891711028 50.86668167805499 L-211.00412891711028 46.53655465913279"/>
		<path opacity="0.75" fill="darkturquoise" d="M-183.29131599600822 38.53655465913279 L-211.00412891711028 46.53655465913279 L-211.00412891711028 50.86668167805499 L-183.29131599600822 42.86668167805499 L-183.29131599600822 38.53655465913279"/>
		<path opacity="0.75" fill="darkturquoise" d="M-180.79131599600822 40.70161816859389 L-208.50412891711028 48.70161816859389 L-208.50412891711028 53.03174518751608 L-180.79131599600822 45.03174518751608 L-180.79131599600822 40.70161816859389"/>
		<path opacity="0.75" fill="darkturquoise" d="M-183.29131599600822 38.53655465913279 L-180.79131599600822 40.70161816859389 L-208.50412891711028 48.70161816859389 L-211.00412891711028 46.53655465913279 L-183.29131599600822 38.53655465913279"/>
		<path opacity="0.75" fill="darkturquoise" d="M-183.29131599600822 42.86668167805499 L-180.79131599600822 45.03174518751608 L-208.50412891711028 53.03174518751608 L-211.00412891711028 50.86668167805499 L-183.29131599600822 42.86668167805499"/>
		<text x="-211.00412891711028" y="48.70161816859389" font-family="calibri" font-size="4">5</text>
		<text x="-209.75412891711028" y="51.949213432785534" font-family="calibri" font-size="4">5</text>
		<text x="-197.14772245655925" y="42.53655465913279" font-family="calibri" font-size="4">32</text>

		<path opacity="0.5" fill="orange" d="M-183.60665924100823 29.908666301316977 L-167.60665924100823 43.76507276186799 L-167.60665924100823 71.47788568297003 L-183.60665924100823 57.62147922241901 L-183.60665924100823 29.908666301316977"/>
		<path opacity="0.5" fill="orange" d="M-211.3194721621103 37.90866630131698 L-195.3194721621103 51.76507276186799 L-195.3194721621103 79.47788568297003 L-211.3194721621103 65.62147922241901 L-211.3194721621103 37.90866630131698"/>
		<path opacity="0.5" fill="orange" d="M-183.60665924100823 29.908666301316977 L-211.3194721621103 37.90866630131698 L-211.3194721621103 65.62147922241901 L-183.60665924100823 57.62147922241901 L-183.60665924100823 29.908666301316977"/>
		<path opacity="0.5" fill="orange" d="M-167.60665924100823 43.76507276186799 L-195.3194721621103 51.76507276186799 L-195.3194721621103 79.47788568297003 L-167.60665924100823 71.47788568297003 L-167.60665924100823 43.76507276186799"/>
		<path opacity="0.5" fill="orange" d="M-183.60665924100823 29.908666301316977 L-167.60665924100823 43.76507276186799 L-195.3194721621103 51.76507276186799 L-211.3194721621103 37.90866630131698 L-183.60665924100823 29.908666301316977"/>
		<path opacity="0.5" fill="orange" d="M-183.60665924100823 57.62147922241901 L-167.60665924100823 71.47788568297003 L-195.3194721621103 79.47788568297003 L-211.3194721621103 65.62147922241901 L-183.60665924100823 57.62147922241901"/>
		<text x="-211.3194721621103" y="51.765072761868" font-family="calibri" font-size="4">32</text>
		<text x="-203.3194721621103" y="72.54968245269453" font-family="calibri" font-size="4">32</text>
		<text x="-197.46306570155926" y="33.90866630131698" font-family="calibri" font-size="4">32</text>

		<path opacity="0.75" fill="darkturquoise" d="M-48.669197376611066 41.87426849142989 L-46.16919737661104 44.03933200089098 L-46.16919737661104 48.36945901981318 L-48.669197376611066 46.20439551035208 L-48.669197376611066 41.87426849142989"/>
		<path opacity="0.75" fill="darkturquoise" d="M-104.09482321881512 57.87426849142989 L-101.5948232188151 60.03933200089098 L-101.5948232188151 64.36945901981318 L-104.09482321881512 62.20439551035208 L-104.09482321881512 57.87426849142989"/>
		<path opacity="0.75" fill="darkturquoise" d="M-48.669197376611066 41.87426849142989 L-104.09482321881512 57.87426849142989 L-104.09482321881512 62.20439551035208 L-48.669197376611066 46.20439551035208 L-48.669197376611066 41.87426849142989"/>
		<path opacity="0.75" fill="darkturquoise" d="M-46.16919737661104 44.03933200089098 L-101.5948232188151 60.03933200089098 L-101.5948232188151 64.36945901981318 L-46.16919737661104 48.36945901981318 L-46.16919737661104 44.03933200089098"/>
		<path opacity="0.75" fill="darkturquoise" d="M-48.669197376611066 41.87426849142989 L-46.16919737661104 44.03933200089098 L-101.5948232188151 60.03933200089098 L-104.09482321881512 57.87426849142989 L-48.669197376611066 41.87426849142989"/>
		<path opacity="0.75" fill="darkturquoise" d="M-48.669197376611066 46.20439551035208 L-46.16919737661104 48.36945901981318 L-101.5948232188151 64.36945901981318 L-104.09482321881512 62.20439551035208 L-48.669197376611066 46.20439551035208"/>
		<text x="-104.09482321881512" y="60.03933200089098" font-family="calibri" font-size="4">5</text>
		<text x="-102.84482321881511" y="63.286927265082625" font-family="calibri" font-size="4">5</text>
		<text x="-76.3820102977131" y="49.87426849142989" font-family="calibri" font-size="4">64</text>

		<path opacity="0.5" fill="orange" d="M-52.37976320958225 36.482695154586736 L-44.37976320958225 43.41089838486224 L-44.37976320958225 57.267304845413264 L-52.37976320958225 50.33910161513776 L-52.37976320958225 36.482695154586736"/>
		<path opacity="0.5" fill="orange" d="M-107.8053890517863 52.482695154586736 L-99.8053890517863 59.41089838486224 L-99.8053890517863 73.26730484541326 L-107.8053890517863 66.33910161513775 L-107.8053890517863 52.482695154586736"/>
		<path opacity="0.5" fill="orange" d="M-52.37976320958225 36.482695154586736 L-107.8053890517863 52.482695154586736 L-107.8053890517863 66.33910161513775 L-52.37976320958225 50.33910161513776 L-52.37976320958225 36.482695154586736"/>
		<path opacity="0.5" fill="orange" d="M-44.37976320958225 43.41089838486224 L-99.8053890517863 59.41089838486224 L-99.8053890517863 73.26730484541326 L-44.37976320958225 57.267304845413264 L-44.37976320958225 43.41089838486224"/>
		<path opacity="0.5" fill="orange" d="M-52.37976320958225 36.482695154586736 L-44.37976320958225 43.41089838486224 L-99.8053890517863 59.41089838486224 L-107.8053890517863 52.482695154586736 L-52.37976320958225 36.482695154586736"/>
		<path opacity="0.5" fill="orange" d="M-52.37976320958225 50.33910161513776 L-44.37976320958225 57.267304845413264 L-99.8053890517863 73.26730484541326 L-107.8053890517863 66.33910161513775 L-52.37976320958225 50.33910161513776"/>
		<text x="-107.8053890517863" y="59.41089838486224" font-family="calibri" font-size="4">16</text>
		<text x="-103.8053890517863" y="69.8032032302755" font-family="calibri" font-size="4">16</text>
		<text x="-80.09257613068428" y="44.482695154586736" font-family="calibri" font-size="4">64</text>

<!-- Arrow -->
		<path opacity="0.5" stroke="black" d="M107.34713282184379 67.738448015713 L123.40802195429913 46.647586011784746"/>
		<circle opacity="0.5" cx="123.40802195429913" cy="46.647586011784746" r="1" fill="black" />
		<path opacity="0.75" fill="pink" d="M-154.39580775071585 74.99768607491247 L-151.89580775071585 77.16274958437357 L-104.02465718475472 68.62997621633534 L-154.39580775071585 74.99768607491247"/>
		<path opacity="0.75" fill="pink" d="M-154.39580775071585 74.99768607491247 L-154.39580775071585 79.32781309383466 L-104.02465718475472 68.62997621633534 L-154.39580775071585 74.99768607491247"/>
		<path opacity="0.75" fill="pink" d="M-151.89580775071585 77.16274958437357 L-151.89580775071585 81.49287660329576 L-104.02465718475472 68.62997621633534 L-151.89580775071585 77.16274958437357"/>
		<path opacity="0.75" fill="pink" d="M-154.39580775071585 79.32781309383466 L-151.89580775071585 81.49287660329576 L-104.02465718475472 68.62997621633534 L-154.39580775071585 79.32781309383466"/>

		<path opacity="0.75" fill="pink" d="M-18.79408611850269 74.11069600026832 L-16.29408611850269 76.27575950972941 L22.65153253694936 56.28027180254308 L-18.79408611850269 74.11069600026832"/>
		<path opacity="0.75" fill="pink" d="M-18.79408611850269 74.11069600026832 L-18.79408611850269 78.4408230191905 L22.65153253694936 56.28027180254308 L-18.79408611850269 74.11069600026832"/>
		<path opacity="0.75" fill="pink" d="M-16.29408611850269 76.27575950972941 L-16.29408611850269 80.60588652865161 L22.65153253694936 56.28027180254308 L-16.29408611850269 76.27575950972941"/>
		<path opacity="0.75" fill="pink" d="M-18.79408611850269 78.4408230191905 L-16.29408611850269 80.60588652865161 L22.65153253694936 56.28027180254308 L-18.79408611850269 78.4408230191905"/>

		<path opacity="0.75" fill="pink" d="M-245.19943182338966 68.33913424234827 L-240.19943182338966 72.66926126127046 L-200.96314741689554 62.2378745443523 L-245.19943182338966 68.33913424234827"/>
		<path opacity="0.75" fill="pink" d="M-245.19943182338966 68.33913424234827 L-245.19943182338966 76.99938828019265 L-200.96314741689554 62.2378745443523 L-245.19943182338966 68.33913424234827"/>
		<path opacity="0.75" fill="pink" d="M-240.19943182338966 72.66926126127046 L-240.19943182338966 81.32951529911485 L-200.96314741689554 62.2378745443523 L-240.19943182338966 72.66926126127046"/>
		<path opacity="0.75" fill="pink" d="M-245.19943182338966 76.99938828019265 L-240.19943182338966 81.32951529911485 L-200.96314741689554 62.2378745443523 L-245.19943182338966 76.99938828019265"/>

		<path opacity="0.75" fill="darkturquoise" d="M-245.19943182338966 68.33913424234827 L-240.19943182338966 72.66926126127046 L-240.19943182338966 81.32951529911485 L-245.19943182338966 76.99938828019265 L-245.19943182338966 68.33913424234827"/>
		<path opacity="0.75" fill="darkturquoise" d="M-262.51993989907845 73.33913424234827 L-257.51993989907845 77.66926126127046 L-257.51993989907845 86.32951529911485 L-262.51993989907845 81.99938828019265 L-262.51993989907845 73.33913424234827"/>
		<path opacity="0.75" fill="darkturquoise" d="M-245.19943182338966 68.33913424234827 L-262.51993989907845 73.33913424234827 L-262.51993989907845 81.99938828019265 L-245.19943182338966 76.99938828019265 L-245.19943182338966 68.33913424234827"/>
		<path opacity="0.75" fill="darkturquoise" d="M-240.19943182338966 72.66926126127046 L-257.51993989907845 77.66926126127046 L-257.51993989907845 86.32951529911485 L-240.19943182338966 81.32951529911485 L-240.19943182338966 72.66926126127046"/>
		<path opacity="0.75" fill="darkturquoise" d="M-245.19943182338966 68.33913424234827 L-240.19943182338966 72.66926126127046 L-257.51993989907845 77.66926126127046 L-262.51993989907845 73.33913424234827 L-245.19943182338966 68.33913424234827"/>
		<path opacity="0.75" fill="darkturquoise" d="M-245.19943182338966 76.99938828019265 L-240.19943182338966 81.32951529911485 L-257.51993989907845 86.32951529911485 L-262.51993989907845 81.99938828019265 L-245.19943182338966 76.99938828019265"/>
		<text x="-262.51993989907845" y="77.66926126127046" font-family="calibri" font-size="4">10</text>
		<text x="-260.01993989907845" y="84.16445178965375" font-family="calibri" font-size="4">10</text>
		<text x="-253.85968586123406" y="70.83913424234827" font-family="calibri" font-size="4">20</text>

		<path opacity="0.5" fill="orange" d="M-254.62074235133218 50.40866630131698 L-238.62074235133218 64.265072761868 L-238.62074235133218 91.97788568297003 L-254.62074235133218 78.12147922241901 L-254.62074235133218 50.40866630131698"/>
		<path opacity="0.5" fill="orange" d="M-271.941250427021 55.40866630131698 L-255.94125042702098 69.265072761868 L-255.94125042702098 96.97788568297003 L-271.941250427021 83.12147922241901 L-271.941250427021 55.40866630131698"/>
		<path opacity="0.5" fill="orange" d="M-254.62074235133218 50.40866630131698 L-271.941250427021 55.40866630131698 L-271.941250427021 83.12147922241901 L-254.62074235133218 78.12147922241901 L-254.62074235133218 50.40866630131698"/>
		<path opacity="0.5" fill="orange" d="M-238.62074235133218 64.265072761868 L-255.94125042702098 69.265072761868 L-255.94125042702098 96.97788568297003 L-238.62074235133218 91.97788568297003 L-238.62074235133218 64.265072761868"/>
		<path opacity="0.5" fill="orange" d="M-254.62074235133218 50.40866630131698 L-238.62074235133218 64.265072761868 L-255.94125042702098 69.265072761868 L-271.941250427021 55.40866630131698 L-254.62074235133218 50.40866630131698"/>
		<path opacity="0.5" fill="orange" d="M-254.62074235133218 78.12147922241901 L-238.62074235133218 91.97788568297003 L-255.94125042702098 96.97788568297003 L-271.941250427021 83.12147922241901 L-254.62074235133218 78.12147922241901"/>
		<text x="-271.941250427021" y="69.265072761868" font-family="calibri" font-size="4">32</text>
		<text x="-263.941250427021" y="90.04968245269453" font-family="calibri" font-size="4">32</text>
		<text x="-263.2809963891766" y="52.90866630131698" font-family="calibri" font-size="4">20</text>

		<path opacity="0.5" fill="orange" d="M105.34713282184379 62.54229559300636 L109.34713282184379 66.00639720814411 L109.34713282184379 72.93460043841964 L105.34713282184379 69.47049882328187 L105.34713282184379 62.54229559300636"/>
		<path opacity="0.5" fill="orange" d="M49.9215069796397 78.54229559300636 L53.9215069796397 82.00639720814411 L53.9215069796397 88.93460043841964 L49.9215069796397 85.47049882328187 L49.9215069796397 78.54229559300636"/>
		<path opacity="0.5" fill="orange" d="M105.34713282184379 62.54229559300636 L49.9215069796397 78.54229559300636 L49.9215069796397 85.47049882328187 L105.34713282184379 69.47049882328187 L105.34713282184379 62.54229559300636"/>
		<path opacity="0.5" fill="orange" d="M109.34713282184379 66.00639720814411 L53.9215069796397 82.00639720814411 L53.9215069796397 88.93460043841964 L109.34713282184379 72.93460043841964 L109.34713282184379 66.00639720814411"/>
		<path opacity="0.5" fill="orange" d="M105.34713282184379 62.54229559300636 L109.34713282184379 66.00639720814411 L53.9215069796397 82.00639720814411 L49.9215069796397 78.54229559300636 L105.34713282184379 62.54229559300636"/>
		<path opacity="0.5" fill="orange" d="M105.34713282184379 69.47049882328187 L109.34713282184379 72.93460043841964 L53.9215069796397 88.93460043841964 L49.9215069796397 85.47049882328187 L105.34713282184379 69.47049882328187"/>
		<text x="49.9215069796397" y="82.00639720814411" font-family="calibri" font-size="4">8</text>
		<text x="51.9215069796397" y="87.20254963085075" font-family="calibri" font-size="4">8</text>
		<text x="77.63431990074174" y="70.54229559300636" font-family="calibri" font-size="4">64</text>

		<path opacity="0.75" fill="darkturquoise" d="M-18.79408611850269 74.11069600026832 L-16.29408611850269 76.27575950972941 L-16.29408611850269 80.60588652865161 L-18.79408611850269 78.4408230191905 L-18.79408611850269 74.11069600026832"/>
		<path opacity="0.75" fill="darkturquoise" d="M-74.21971196070675 90.11069600026832 L-71.71971196070675 92.27575950972941 L-71.71971196070675 96.60588652865161 L-74.21971196070675 94.4408230191905 L-74.21971196070675 90.11069600026832"/>
		<path opacity="0.75" fill="darkturquoise" d="M-18.79408611850269 74.11069600026832 L-74.21971196070675 90.11069600026832 L-74.21971196070675 94.4408230191905 L-18.79408611850269 78.4408230191905 L-18.79408611850269 74.11069600026832"/>
		<path opacity="0.75" fill="darkturquoise" d="M-16.29408611850269 76.27575950972941 L-71.71971196070675 92.27575950972941 L-71.71971196070675 96.60588652865161 L-16.29408611850269 80.60588652865161 L-16.29408611850269 76.27575950972941"/>
		<path opacity="0.75" fill="darkturquoise" d="M-18.79408611850269 74.11069600026832 L-16.29408611850269 76.27575950972941 L-71.71971196070675 92.27575950972941 L-74.21971196070675 90.11069600026832 L-18.79408611850269 74.11069600026832"/>
		<path opacity="0.75" fill="darkturquoise" d="M-18.79408611850269 78.4408230191905 L-16.29408611850269 80.60588652865161 L-71.71971196070675 96.60588652865161 L-74.21971196070675 94.4408230191905 L-18.79408611850269 78.4408230191905"/>
		<text x="-74.21971196070675" y="92.27575950972941" font-family="calibri" font-size="4">5</text>
		<text x="-72.96971196070675" y="95.52335477392106" font-family="calibri" font-size="4">5</text>
		<text x="-46.50689903960472" y="82.11069600026832" font-family="calibri" font-size="4">64</text>

		<path opacity="0.5" fill="orange" d="M-23.87976320958225 61.16441916244323 L-15.87976320958225 68.09262239271874 L-15.87976320958225 81.94902885326977 L-23.87976320958225 75.02082562299425 L-23.87976320958225 61.16441916244323"/>
		<path opacity="0.5" fill="orange" d="M-79.3053890517863 77.16441916244324 L-71.3053890517863 84.09262239271874 L-71.3053890517863 97.94902885326977 L-79.3053890517863 91.02082562299425 L-79.3053890517863 77.16441916244324"/>
		<path opacity="0.5" fill="orange" d="M-23.87976320958225 61.16441916244323 L-79.3053890517863 77.16441916244324 L-79.3053890517863 91.02082562299425 L-23.87976320958225 75.02082562299425 L-23.87976320958225 61.16441916244323"/>
		<path opacity="0.5" fill="orange" d="M-15.87976320958225 68.09262239271874 L-71.3053890517863 84.09262239271874 L-71.3053890517863 97.94902885326977 L-15.87976320958225 81.94902885326977 L-15.87976320958225 68.09262239271874"/>
		<path opacity="0.5" fill="orange" d="M-23.87976320958225 61.16441916244323 L-15.87976320958225 68.09262239271874 L-71.3053890517863 84.09262239271874 L-79.3053890517863 77.16441916244324 L-23.87976320958225 61.16441916244323"/>
		<path opacity="0.5" fill="orange" d="M-23.87976320958225 75.02082562299425 L-15.87976320958225 81.94902885326977 L-71.3053890517863 97.94902885326977 L-79.3053890517863 91.02082562299425 L-23.87976320958225 75.02082562299425"/>
		<text x="-79.3053890517863" y="84.09262239271874" font-family="calibri" font-size="4">16</text>
		<text x="-75.3053890517863" y="94.484927238132" font-family="calibri" font-size="4">16</text>
		<text x="-51.59257613068428" y="69.16441916244324" font-family="calibri" font-size="4">64</text>

		<path opacity="0.75" fill="darkturquoise" d="M-154.39580775071585 74.99768607491247 L-151.89580775071585 77.16274958437357 L-151.89580775071585 81.49287660329576 L-154.39580775071585 79.32781309383466 L-154.39580775071585 74.99768607491247"/>
		<path opacity="0.75" fill="darkturquoise" d="M-182.1086206718179 82.99768607491247 L-179.6086206718179 85.16274958437357 L-179.6086206718179 89.49287660329576 L-182.1086206718179 87.32781309383466 L-182.1086206718179 82.99768607491247"/>
		<path opacity="0.75" fill="darkturquoise" d="M-154.39580775071585 74.99768607491247 L-182.1086206718179 82.99768607491247 L-182.1086206718179 87.32781309383466 L-154.39580775071585 79.32781309383466 L-154.39580775071585 74.99768607491247"/>
		<path opacity="0.75" fill="darkturquoise" d="M-151.89580775071585 77.16274958437357 L-179.6086206718179 85.16274958437357 L-179.6086206718179 89.49287660329576 L-151.89580775071585 81.49287660329576 L-151.89580775071585 77.16274958437357"/>
		<path opacity="0.75" fill="darkturquoise" d="M-154.39580775071585 74.99768607491247 L-151.89580775071585 77.16274958437357 L-179.6086206718179 85.16274958437357 L-182.1086206718179 82.99768607491247 L-154.39580775071585 74.99768607491247"/>
		<path opacity="0.75" fill="darkturquoise" d="M-154.39580775071585 79.32781309383466 L-151.89580775071585 81.49287660329576 L-179.6086206718179 89.49287660329576 L-182.1086206718179 87.32781309383466 L-154.39580775071585 79.32781309383466"/>
		<text x="-182.1086206718179" y="85.16274958437356" font-family="calibri" font-size="4">5</text>
		<text x="-180.8586206718179" y="88.41034484856522" font-family="calibri" font-size="4">5</text>
		<text x="-168.25221421126687" y="78.99768607491247" font-family="calibri" font-size="4">32</text>

		<path opacity="0.5" fill="orange" d="M-155.10665924100823 54.59039030917347 L-139.10665924100823 68.44679676972449 L-139.10665924100823 96.15960969082653 L-155.10665924100823 82.30320323027551 L-155.10665924100823 54.59039030917347"/>
		<path opacity="0.5" fill="orange" d="M-182.8194721621103 62.59039030917347 L-166.8194721621103 76.44679676972449 L-166.8194721621103 104.15960969082653 L-182.8194721621103 90.30320323027551 L-182.8194721621103 62.59039030917347"/>
		<path opacity="0.5" fill="orange" d="M-155.10665924100823 54.59039030917347 L-182.8194721621103 62.59039030917347 L-182.8194721621103 90.30320323027551 L-155.10665924100823 82.30320323027551 L-155.10665924100823 54.59039030917347"/>
		<path opacity="0.5" fill="orange" d="M-139.10665924100823 68.44679676972449 L-166.8194721621103 76.44679676972449 L-166.8194721621103 104.15960969082653 L-139.10665924100823 96.15960969082653 L-139.10665924100823 68.44679676972449"/>
		<path opacity="0.5" fill="orange" d="M-155.10665924100823 54.59039030917347 L-139.10665924100823 68.44679676972449 L-166.8194721621103 76.44679676972449 L-182.8194721621103 62.59039030917347 L-155.10665924100823 54.59039030917347"/>
		<path opacity="0.5" fill="orange" d="M-155.10665924100823 82.30320323027551 L-139.10665924100823 96.15960969082653 L-166.8194721621103 104.15960969082653 L-182.8194721621103 90.30320323027551 L-155.10665924100823 82.30320323027551"/>
		<text x="-182.8194721621103" y="76.4467967697245" font-family="calibri" font-size="4">32</text>
		<text x="-174.8194721621103" y="97.23140646055103" font-family="calibri" font-size="4">32</text>
		<text x="-168.96306570155926" y="58.59039030917347" font-family="calibri" font-size="4">32</text>

		<path opacity="0.75" fill="pink" d="M-123.53535547693721 104.24909632421051 L-121.03535547693721 106.41415983367162 L-73.83599513152961 94.46973671164096 L-123.53535547693721 104.24909632421051"/>
		<path opacity="0.75" fill="pink" d="M-123.53535547693721 104.24909632421051 L-123.53535547693721 108.57922334313271 L-73.83599513152961 94.46973671164096 L-123.53535547693721 104.24909632421051"/>
		<path opacity="0.75" fill="pink" d="M-121.03535547693721 106.41415983367162 L-121.03535547693721 110.7442868525938 L-73.83599513152961 94.46973671164096 L-121.03535547693721 106.41415983367162"/>
		<path opacity="0.75" fill="pink" d="M-123.53535547693721 108.57922334313271 L-121.03535547693721 110.7442868525938 L-73.83599513152961 94.46973671164096 L-123.53535547693721 108.57922334313271"/>

		<path opacity="0.75" fill="pink" d="M8.878538903218654 98.75943421413699 L11.378538903218654 100.92449772359808 L50.56480533142452 84.79878013678888 L8.878538903218654 98.75943421413699"/>
		<path opacity="0.75" fill="pink" d="M8.878538903218654 98.75943421413699 L8.878538903218654 103.08956123305919 L50.56480533142452 84.79878013678888 L8.878538903218654 98.75943421413699"/>
		<path opacity="0.75" fill="pink" d="M11.378538903218654 100.92449772359808 L11.378538903218654 105.25462474252028 L50.56480533142452 84.79878013678888 L11.378538903218654 100.92449772359808"/>
		<path opacity="0.75" fill="pink" d="M8.878538903218654 103.08956123305919 L11.378538903218654 105.25462474252028 L50.56480533142452 84.79878013678888 L8.878538903218654 103.08956123305919"/>

		<path opacity="0.75" fill="pink" d="M-216.8710949551476 95.10396206448269 L-211.8710949551476 99.43408908340488 L-168.60068507806818 79.92210659624787 L-216.8710949551476 95.10396206448269"/>
		<path opacity="0.75" fill="pink" d="M-216.8710949551476 95.10396206448269 L-216.8710949551476 103.76421610232708 L-168.60068507806818 79.92210659624787 L-216.8710949551476 95.10396206448269"/>
		<path opacity="0.75" fill="pink" d="M-211.8710949551476 99.43408908340488 L-211.8710949551476 108.09434312124927 L-168.60068507806818 79.92210659624787 L-211.8710949551476 99.43408908340488"/>
		<path opacity="0.75" fill="pink" d="M-216.8710949551476 103.76421610232708 L-211.8710949551476 108.09434312124927 L-168.60068507806818 79.92210659624787 L-216.8710949551476 103.76421610232708"/>

		<path opacity="0.75" fill="darkturquoise" d="M-216.8710949551476 95.10396206448269 L-211.8710949551476 99.43408908340488 L-211.8710949551476 108.09434312124927 L-216.8710949551476 103.76421610232708 L-216.8710949551476 95.10396206448269"/>
		<path opacity="0.75" fill="darkturquoise" d="M-234.1916030308364 100.10396206448269 L-229.1916030308364 104.43408908340488 L-229.1916030308364 113.09434312124927 L-234.1916030308364 108.76421610232708 L-234.1916030308364 100.10396206448269"/>
		<path opacity="0.75" fill="darkturquoise" d="M-216.8710949551476 95.10396206448269 L-234.1916030308364 100.10396206448269 L-234.1916030308364 108.76421610232708 L-216.8710949551476 103.76421610232708 L-216.8710949551476 95.10396206448269"/>
		<path opacity="0.75" fill="darkturquoise" d="M-211.8710949551476 99.43408908340488 L-229.1916030308364 104.43408908340488 L-229.1916030308364 113.09434312124927 L-211.8710949551476 108.09434312124927 L-211.8710949551476 99.43408908340488"/>
		<path opacity="0.75" fill="darkturquoise" d="M-216.8710949551476 95.10396206448269 L-211.8710949551476 99.43408908340488 L-229.1916030308364 104.43408908340488 L-234.1916030308364 100.10396206448269 L-216.8710949551476 95.10396206448269"/>
		<path opacity="0.75" fill="darkturquoise" d="M-216.8710949551476 103.76421610232708 L-211.8710949551476 108.09434312124927 L-229.1916030308364 113.09434312124927 L-234.1916030308364 108.76421610232708 L-216.8710949551476 103.76421610232708"/>
		<text x="-234.1916030308364" y="104.43408908340488" font-family="calibri" font-size="4">10</text>
		<text x="-231.6916030308364" y="110.92927961178817" font-family="calibri" font-size="4">10</text>
		<text x="-225.531348992992" y="97.60396206448269" font-family="calibri" font-size="4">20</text>

		<path opacity="0.5" fill="orange" d="M-226.12074235133218 75.09039030917347 L-210.12074235133218 88.94679676972449 L-210.12074235133218 116.65960969082653 L-226.12074235133218 102.80320323027551 L-226.12074235133218 75.09039030917347"/>
		<path opacity="0.5" fill="orange" d="M-243.44125042702098 80.09039030917347 L-227.44125042702098 93.94679676972449 L-227.44125042702098 121.65960969082653 L-243.44125042702098 107.80320323027551 L-243.44125042702098 80.09039030917347"/>
		<path opacity="0.5" fill="orange" d="M-226.12074235133218 75.09039030917347 L-243.44125042702098 80.09039030917347 L-243.44125042702098 107.80320323027551 L-226.12074235133218 102.80320323027551 L-226.12074235133218 75.09039030917347"/>
		<path opacity="0.5" fill="orange" d="M-210.12074235133218 88.94679676972449 L-227.44125042702098 93.94679676972449 L-227.44125042702098 121.65960969082653 L-210.12074235133218 116.65960969082653 L-210.12074235133218 88.94679676972449"/>
		<path opacity="0.5" fill="orange" d="M-226.12074235133218 75.09039030917347 L-210.12074235133218 88.94679676972449 L-227.44125042702098 93.94679676972449 L-243.44125042702098 80.09039030917347 L-226.12074235133218 75.09039030917347"/>
		<path opacity="0.5" fill="orange" d="M-226.12074235133218 102.80320323027551 L-210.12074235133218 116.65960969082653 L-227.44125042702098 121.65960969082653 L-243.44125042702098 107.80320323027551 L-226.12074235133218 102.80320323027551"/>
		<text x="-243.44125042702098" y="93.9467967697245" font-family="calibri" font-size="4">32</text>
		<text x="-235.44125042702098" y="114.73140646055103" font-family="calibri" font-size="4">32</text>
		<text x="-234.78099638917658" y="77.59039030917347" font-family="calibri" font-size="4">20</text>

		<path opacity="0.75" fill="darkturquoise" d="M8.878538903218654 98.75943421413699 L11.378538903218654 100.92449772359808 L11.378538903218654 105.25462474252028 L8.878538903218654 103.08956123305919 L8.878538903218654 98.75943421413699"/>
		<path opacity="0.75" fill="darkturquoise" d="M-46.54708693898539 114.75943421413699 L-44.04708693898539 116.92449772359808 L-44.04708693898539 121.25462474252028 L-46.54708693898539 119.08956123305919 L-46.54708693898539 114.75943421413699"/>
		<path opacity="0.75" fill="darkturquoise" d="M8.878538903218654 98.75943421413699 L-46.54708693898539 114.75943421413699 L-46.54708693898539 119.08956123305919 L8.878538903218654 103.08956123305919 L8.878538903218654 98.75943421413699"/>
		<path opacity="0.75" fill="darkturquoise" d="M11.378538903218654 100.92449772359808 L-44.04708693898539 116.92449772359808 L-44.04708693898539 121.25462474252028 L11.378538903218654 105.25462474252028 L11.378538903218654 100.92449772359808"/>
		<path opacity="0.75" fill="darkturquoise" d="M8.878538903218654 98.75943421413699 L11.378538903218654 100.92449772359808 L-44.04708693898539 116.92449772359808 L-46.54708693898539 114.75943421413699 L8.878538903218654 98.75943421413699"/>
		<path opacity="0.75" fill="darkturquoise" d="M8.878538903218654 103.08956123305919 L11.378538903218654 105.25462474252028 L-44.04708693898539 121.25462474252028 L-46.54708693898539 119.08956123305919 L8.878538903218654 103.08956123305919"/>
		<text x="-46.54708693898539" y="116.92449772359808" font-family="calibri" font-size="4">5</text>
		<text x="-45.29708693898539" y="120.17209298778974" font-family="calibri" font-size="4">5</text>
		<text x="-18.834274017883367" y="106.75943421413699" font-family="calibri" font-size="4">64</text>

		<path opacity="0.5" fill="orange" d="M4.6202367904177635 85.84614317029974 L12.620236790417763 92.77434640057524 L12.620236790417763 106.63075286112625 L4.6202367904177635 99.70254963085074 L4.6202367904177635 85.84614317029974"/>
		<path opacity="0.5" fill="orange" d="M-50.80538905178628 101.84614317029974 L-42.80538905178628 108.77434640057524 L-42.80538905178628 122.63075286112625 L-50.80538905178628 115.70254963085074 L-50.80538905178628 101.84614317029974"/>
		<path opacity="0.5" fill="orange" d="M4.6202367904177635 85.84614317029974 L-50.80538905178628 101.84614317029974 L-50.80538905178628 115.70254963085074 L4.6202367904177635 99.70254963085074 L4.6202367904177635 85.84614317029974"/>
		<path opacity="0.5" fill="orange" d="M12.620236790417763 92.77434640057524 L-42.80538905178628 108.77434640057524 L-42.80538905178628 122.63075286112625 L12.620236790417763 106.63075286112625 L12.620236790417763 92.77434640057524"/>
		<path opacity="0.5" fill="orange" d="M4.6202367904177635 85.84614317029974 L12.620236790417763 92.77434640057524 L-42.80538905178628 108.77434640057524 L-50.80538905178628 101.84614317029974 L4.6202367904177635 85.84614317029974"/>
		<path opacity="0.5" fill="orange" d="M4.6202367904177635 99.70254963085074 L12.620236790417763 106.63075286112625 L-42.80538905178628 122.63075286112625 L-50.80538905178628 115.70254963085074 L4.6202367904177635 99.70254963085074"/>
		<text x="-50.80538905178628" y="108.77434640057524" font-family="calibri" font-size="4">16</text>
		<text x="-46.80538905178628" y="119.1666512459885" font-family="calibri" font-size="4">16</text>
		<text x="-23.092576130684257" y="93.84614317029974" font-family="calibri" font-size="4">64</text>

		<path opacity="0.75" fill="darkturquoise" d="M-123.53535547693721 104.24909632421051 L-121.03535547693721 106.41415983367162 L-121.03535547693721 110.7442868525938 L-123.53535547693721 108.57922334313271 L-123.53535547693721 104.24909632421051"/>
		<path opacity="0.75" fill="darkturquoise" d="M-151.2481683980393 112.24909632421051 L-148.7481683980393 114.41415983367162 L-148.7481683980393 118.7442868525938 L-151.2481683980393 116.57922334313271 L-151.2481683980393 112.24909632421051"/>
		<path opacity="0.75" fill="darkturquoise" d="M-123.53535547693721 104.24909632421051 L-151.2481683980393 112.24909632421051 L-151.2481683980393 116.57922334313271 L-123.53535547693721 108.57922334313271 L-123.53535547693721 104.24909632421051"/>
		<path opacity="0.75" fill="darkturquoise" d="M-121.03535547693721 106.41415983367162 L-148.7481683980393 114.41415983367162 L-148.7481683980393 118.7442868525938 L-121.03535547693721 110.7442868525938 L-121.03535547693721 106.41415983367162"/>
		<path opacity="0.75" fill="darkturquoise" d="M-123.53535547693721 104.24909632421051 L-121.03535547693721 106.41415983367162 L-148.7481683980393 114.41415983367162 L-151.2481683980393 112.24909632421051 L-123.53535547693721 104.24909632421051"/>
		<path opacity="0.75" fill="darkturquoise" d="M-123.53535547693721 108.57922334313271 L-121.03535547693721 110.7442868525938 L-148.7481683980393 118.7442868525938 L-151.2481683980393 116.57922334313271 L-123.53535547693721 108.57922334313271"/>
		<text x="-151.2481683980393" y="114.41415983367162" font-family="calibri" font-size="4">5</text>
		<text x="-149.9981683980393" y="117.66175509786325" font-family="calibri" font-size="4">5</text>
		<text x="-137.39176193748824" y="108.24909632421051" font-family="calibri" font-size="4">32</text>

		<path opacity="0.5" fill="orange" d="M-126.60665924100823 79.27211431702997 L-110.60665924100823 93.12852077758099 L-110.60665924100823 120.84133369868303 L-126.60665924100823 106.984927238132 L-126.60665924100823 79.27211431702997"/>
		<path opacity="0.5" fill="orange" d="M-154.3194721621103 87.27211431702997 L-138.3194721621103 101.12852077758099 L-138.3194721621103 128.84133369868303 L-154.3194721621103 114.984927238132 L-154.3194721621103 87.27211431702997"/>
		<path opacity="0.5" fill="orange" d="M-126.60665924100823 79.27211431702997 L-154.3194721621103 87.27211431702997 L-154.3194721621103 114.984927238132 L-126.60665924100823 106.984927238132 L-126.60665924100823 79.27211431702997"/>
		<path opacity="0.5" fill="orange" d="M-110.60665924100823 93.12852077758099 L-138.3194721621103 101.12852077758099 L-138.3194721621103 128.84133369868303 L-110.60665924100823 120.84133369868303 L-110.60665924100823 93.12852077758099"/>
		<path opacity="0.5" fill="orange" d="M-126.60665924100823 79.27211431702997 L-110.60665924100823 93.12852077758099 L-138.3194721621103 101.12852077758099 L-154.3194721621103 87.27211431702997 L-126.60665924100823 79.27211431702997"/>
		<path opacity="0.5" fill="orange" d="M-126.60665924100823 106.984927238132 L-110.60665924100823 120.84133369868303 L-138.3194721621103 128.84133369868303 L-154.3194721621103 114.984927238132 L-126.60665924100823 106.984927238132"/>
		<text x="-154.3194721621103" y="101.12852077758099" font-family="calibri" font-size="4">32</text>
		<text x="-146.3194721621103" y="121.91313046840752" font-family="calibri" font-size="4">32</text>
		<text x="-140.46306570155926" y="83.27211431702997" font-family="calibri" font-size="4">32</text>

		<path opacity="0.75" fill="pink" d="M-191.13774501333796 117.1464881082058 L-186.13774501333796 121.47661512712799 L-142.44492928336484 100.04383398019239 L-191.13774501333796 117.1464881082058"/>
		<path opacity="0.75" fill="pink" d="M-191.13774501333796 117.1464881082058 L-191.13774501333796 125.80674214605018 L-142.44492928336484 100.04383398019239 L-191.13774501333796 117.1464881082058"/>
		<path opacity="0.75" fill="pink" d="M-186.13774501333796 121.47661512712799 L-186.13774501333796 130.13686916497238 L-142.44492928336484 100.04383398019239 L-186.13774501333796 121.47661512712799"/>
		<path opacity="0.75" fill="pink" d="M-191.13774501333796 125.80674214605018 L-186.13774501333796 130.13686916497238 L-142.44492928336484 100.04383398019239 L-191.13774501333796 125.80674214605018"/>

		<path opacity="0.75" fill="pink" d="M-92.95979114178724 114.96757450374437 L-90.45979114178724 117.13263801320548 L-49.90460515617258 105.87218392319915 L-92.95979114178724 114.96757450374437"/>
		<path opacity="0.75" fill="pink" d="M-92.95979114178724 114.96757450374437 L-92.95979114178724 119.29770152266657 L-49.90460515617258 105.87218392319915 L-92.95979114178724 114.96757450374437"/>
		<path opacity="0.75" fill="pink" d="M-90.45979114178724 117.13263801320548 L-90.45979114178724 121.46276503212766 L-49.90460515617258 105.87218392319915 L-90.45979114178724 117.13263801320548"/>
		<path opacity="0.75" fill="pink" d="M-92.95979114178724 119.29770152266657 L-90.45979114178724 121.46276503212766 L-49.90460515617258 105.87218392319915 L-92.95979114178724 119.29770152266657"/>

		<path opacity="0.75" fill="darkturquoise" d="M-191.13774501333796 117.1464881082058 L-186.13774501333796 121.47661512712799 L-186.13774501333796 130.13686916497238 L-191.13774501333796 125.80674214605018 L-191.13774501333796 117.1464881082058"/>
		<path opacity="0.75" fill="darkturquoise" d="M-208.45825308902675 122.1464881082058 L-203.45825308902675 126.47661512712799 L-203.45825308902675 135.13686916497238 L-208.45825308902675 130.80674214605017 L-208.45825308902675 122.1464881082058"/>
		<path opacity="0.75" fill="darkturquoise" d="M-191.13774501333796 117.1464881082058 L-208.45825308902675 122.1464881082058 L-208.45825308902675 130.80674214605017 L-191.13774501333796 125.80674214605018 L-191.13774501333796 117.1464881082058"/>
		<path opacity="0.75" fill="darkturquoise" d="M-186.13774501333796 121.47661512712799 L-203.45825308902675 126.47661512712799 L-203.45825308902675 135.13686916497238 L-186.13774501333796 130.13686916497238 L-186.13774501333796 121.47661512712799"/>
		<path opacity="0.75" fill="darkturquoise" d="M-191.13774501333796 117.1464881082058 L-186.13774501333796 121.47661512712799 L-203.45825308902675 126.47661512712799 L-208.45825308902675 122.1464881082058 L-191.13774501333796 117.1464881082058"/>
		<path opacity="0.75" fill="darkturquoise" d="M-191.13774501333796 125.80674214605018 L-186.13774501333796 130.13686916497238 L-203.45825308902675 135.13686916497238 L-208.45825308902675 130.80674214605017 L-191.13774501333796 125.80674214605018"/>
		<text x="-208.45825308902675" y="126.47661512712799" font-family="calibri" font-size="4">10</text>
		<text x="-205.95825308902675" y="132.97180565551128" font-family="calibri" font-size="4">10</text>
		<text x="-199.79799905118236" y="119.6464881082058" font-family="calibri" font-size="4">20</text>

		<path opacity="0.5" fill="orange" d="M-197.62074235133218 99.77211431702997 L-181.62074235133218 113.62852077758099 L-181.62074235133218 141.34133369868303 L-197.62074235133218 127.484927238132 L-197.62074235133218 99.77211431702997"/>
		<path opacity="0.5" fill="orange" d="M-214.94125042702098 104.77211431702997 L-198.94125042702098 118.62852077758099 L-198.94125042702098 146.34133369868303 L-214.94125042702098 132.484927238132 L-214.94125042702098 104.77211431702997"/>
		<path opacity="0.5" fill="orange" d="M-197.62074235133218 99.77211431702997 L-214.94125042702098 104.77211431702997 L-214.94125042702098 132.484927238132 L-197.62074235133218 127.484927238132 L-197.62074235133218 99.77211431702997"/>
		<path opacity="0.5" fill="orange" d="M-181.62074235133218 113.62852077758099 L-198.94125042702098 118.62852077758099 L-198.94125042702098 146.34133369868303 L-181.62074235133218 141.34133369868303 L-181.62074235133218 113.62852077758099"/>
		<path opacity="0.5" fill="orange" d="M-197.62074235133218 99.77211431702997 L-181.62074235133218 113.62852077758099 L-198.94125042702098 118.62852077758099 L-214.94125042702098 104.77211431702997 L-197.62074235133218 99.77211431702997"/>
		<path opacity="0.5" fill="orange" d="M-197.62074235133218 127.484927238132 L-181.62074235133218 141.34133369868303 L-198.94125042702098 146.34133369868303 L-214.94125042702098 132.484927238132 L-197.62074235133218 127.484927238132"/>
		<text x="-214.94125042702098" y="118.62852077758099" font-family="calibri" font-size="4">32</text>
		<text x="-206.94125042702098" y="139.41313046840753" font-family="calibri" font-size="4">32</text>
		<text x="-206.28099638917658" y="102.27211431702997" font-family="calibri" font-size="4">20</text>

		<path opacity="0.75" fill="darkturquoise" d="M-92.95979114178724 114.96757450374437 L-90.45979114178724 117.13263801320548 L-90.45979114178724 121.46276503212766 L-92.95979114178724 119.29770152266657 L-92.95979114178724 114.96757450374437"/>
		<path opacity="0.75" fill="darkturquoise" d="M-120.67260406288929 122.96757450374437 L-118.17260406288929 125.13263801320548 L-118.17260406288929 129.46276503212766 L-120.67260406288929 127.29770152266657 L-120.67260406288929 122.96757450374437"/>
		<path opacity="0.75" fill="darkturquoise" d="M-92.95979114178724 114.96757450374437 L-120.67260406288929 122.96757450374437 L-120.67260406288929 127.29770152266657 L-92.95979114178724 119.29770152266657 L-92.95979114178724 114.96757450374437"/>
		<path opacity="0.75" fill="darkturquoise" d="M-90.45979114178724 117.13263801320548 L-118.17260406288929 125.13263801320548 L-118.17260406288929 129.46276503212766 L-90.45979114178724 121.46276503212766 L-90.45979114178724 117.13263801320548"/>
		<path opacity="0.75" fill="darkturquoise" d="M-92.95979114178724 114.96757450374437 L-90.45979114178724 117.13263801320548 L-118.17260406288929 125.13263801320548 L-120.67260406288929 122.96757450374437 L-92.95979114178724 114.96757450374437"/>
		<path opacity="0.75" fill="darkturquoise" d="M-92.95979114178724 119.29770152266657 L-90.45979114178724 121.46276503212766 L-118.17260406288929 129.46276503212766 L-120.67260406288929 127.29770152266657 L-92.95979114178724 119.29770152266657"/>
		<text x="-120.67260406288929" y="125.13263801320548" font-family="calibri" font-size="4">5</text>
		<text x="-119.42260406288929" y="128.3802332773971" font-family="calibri" font-size="4">5</text>
		<text x="-106.81619760233826" y="118.96757450374437" font-family="calibri" font-size="4">32</text>

		<path opacity="0.5" fill="orange" d="M-98.10665924100823 103.95383832488646 L-82.10665924100823 117.81024478543748 L-82.10665924100823 145.52305770653953 L-98.10665924100823 131.6666512459885 L-98.10665924100823 103.95383832488646"/>
		<path opacity="0.5" fill="orange" d="M-125.81947216211029 111.95383832488646 L-109.81947216211029 125.81024478543748 L-109.81947216211029 153.52305770653953 L-125.81947216211029 139.6666512459885 L-125.81947216211029 111.95383832488646"/>
		<path opacity="0.5" fill="orange" d="M-98.10665924100823 103.95383832488646 L-125.81947216211029 111.95383832488646 L-125.81947216211029 139.6666512459885 L-98.10665924100823 131.6666512459885 L-98.10665924100823 103.95383832488646"/>
		<path opacity="0.5" fill="orange" d="M-82.10665924100823 117.81024478543748 L-109.81947216211029 125.81024478543748 L-109.81947216211029 153.52305770653953 L-82.10665924100823 145.52305770653953 L-82.10665924100823 117.81024478543748"/>
		<path opacity="0.5" fill="orange" d="M-98.10665924100823 103.95383832488646 L-82.10665924100823 117.81024478543748 L-109.81947216211029 125.81024478543748 L-125.81947216211029 111.95383832488646 L-98.10665924100823 103.95383832488646"/>
		<path opacity="0.5" fill="orange" d="M-98.10665924100823 131.6666512459885 L-82.10665924100823 145.52305770653953 L-109.81947216211029 153.52305770653953 L-125.81947216211029 139.6666512459885 L-98.10665924100823 131.6666512459885"/>
		<text x="-125.81947216211029" y="125.81024478543748" font-family="calibri" font-size="4">32</text>
		<text x="-117.81947216211029" y="146.594854476264" font-family="calibri" font-size="4">32</text>
		<text x="-111.96306570155926" y="107.95383832488646" font-family="calibri" font-size="4">32</text>

		<path opacity="0.75" fill="pink" d="M-168.97523897652547 129.64551761546107 L-163.97523897652547 133.9756446343833 L-121.76805027477769 138.59300119252754 L-168.97523897652547 129.64551761546107"/>
		<path opacity="0.75" fill="pink" d="M-168.97523897652547 129.64551761546107 L-168.97523897652547 138.30577165330547 L-121.76805027477769 138.59300119252754 L-168.97523897652547 129.64551761546107"/>
		<path opacity="0.75" fill="pink" d="M-163.97523897652547 133.9756446343833 L-163.97523897652547 142.63589867222765 L-121.76805027477769 138.59300119252754 L-163.97523897652547 133.9756446343833"/>
		<path opacity="0.75" fill="pink" d="M-168.97523897652547 138.30577165330547 L-163.97523897652547 142.63589867222765 L-121.76805027477769 138.59300119252754 L-168.97523897652547 138.30577165330547"/>

		<path opacity="0.75" fill="darkturquoise" d="M-168.97523897652547 129.64551761546107 L-163.97523897652547 133.9756446343833 L-163.97523897652547 142.63589867222765 L-168.97523897652547 138.30577165330547 L-168.97523897652547 129.64551761546107"/>
		<path opacity="0.75" fill="darkturquoise" d="M-186.29574705221427 134.64551761546107 L-181.29574705221427 138.9756446343833 L-181.29574705221427 147.63589867222765 L-186.29574705221427 143.30577165330547 L-186.29574705221427 134.64551761546107"/>
		<path opacity="0.75" fill="darkturquoise" d="M-168.97523897652547 129.64551761546107 L-186.29574705221427 134.64551761546107 L-186.29574705221427 143.30577165330547 L-168.97523897652547 138.30577165330547 L-168.97523897652547 129.64551761546107"/>
		<path opacity="0.75" fill="darkturquoise" d="M-163.97523897652547 133.9756446343833 L-181.29574705221427 138.9756446343833 L-181.29574705221427 147.63589867222765 L-163.97523897652547 142.63589867222765 L-163.97523897652547 133.9756446343833"/>
		<path opacity="0.75" fill="darkturquoise" d="M-168.97523897652547 129.64551761546107 L-163.97523897652547 133.9756446343833 L-181.29574705221427 138.9756446343833 L-186.29574705221427 134.64551761546107 L-168.97523897652547 129.64551761546107"/>
		<path opacity="0.75" fill="darkturquoise" d="M-168.97523897652547 138.30577165330547 L-163.97523897652547 142.63589867222765 L-181.29574705221427 147.63589867222765 L-186.29574705221427 143.30577165330547 L-168.97523897652547 138.30577165330547"/>
		<text x="-186.29574705221427" y="138.9756446343833" font-family="calibri" font-size="4">10</text>
		<text x="-183.79574705221427" y="145.47083516276655" font-family="calibri" font-size="4">10</text>
		<text x="-177.63549301436987" y="132.14551761546107" font-family="calibri" font-size="4">20</text>

		<path opacity="0.5" fill="orange" d="M-169.12074235133218 124.45383832488646 L-153.12074235133218 138.31024478543748 L-153.12074235133218 166.02305770653953 L-169.12074235133218 152.1666512459885 L-169.12074235133218 124.45383832488646"/>
		<path opacity="0.5" fill="orange" d="M-186.44125042702098 129.45383832488648 L-170.44125042702098 143.31024478543748 L-170.44125042702098 171.02305770653953 L-186.44125042702098 157.1666512459885 L-186.44125042702098 129.45383832488648"/>
		<path opacity="0.5" fill="orange" d="M-169.12074235133218 124.45383832488646 L-186.44125042702098 129.45383832488648 L-186.44125042702098 157.1666512459885 L-169.12074235133218 152.1666512459885 L-169.12074235133218 124.45383832488646"/>
		<path opacity="0.5" fill="orange" d="M-153.12074235133218 138.31024478543748 L-170.44125042702098 143.31024478543748 L-170.44125042702098 171.02305770653953 L-153.12074235133218 166.02305770653953 L-153.12074235133218 138.31024478543748"/>
		<path opacity="0.5" fill="orange" d="M-169.12074235133218 124.45383832488646 L-153.12074235133218 138.31024478543748 L-170.44125042702098 143.31024478543748 L-186.44125042702098 129.45383832488648 L-169.12074235133218 124.45383832488646"/>
		<path opacity="0.5" fill="orange" d="M-169.12074235133218 152.1666512459885 L-153.12074235133218 166.02305770653953 L-170.44125042702098 171.02305770653953 L-186.44125042702098 157.1666512459885 L-169.12074235133218 152.1666512459885"/>
		<text x="-186.44125042702098" y="143.31024478543748" font-family="calibri" font-size="4">32</text>
		<text x="-178.44125042702098" y="164.094854476264" font-family="calibri" font-size="4">32</text>
		<text x="-177.78099638917658" y="126.95383832488648" font-family="calibri" font-size="4">20</text>

	 </g>
</svg>