<svg width="100%" height="100%" viewBox="-101.20061658979718 -77.32883832488648 202.40123317959436 123.97818472546173" xmlns="http://www.w3.org/2000/svg">
	<g stroke="black" stroke-width="0.3">

		<path opacity="0.5" fill="orange" d="M83.20061658979718 -41.22372055837117 L95.20061658979718 -30.83141571295791 L95.20061658979718 -16.975009252406892 L83.20061658979718 -27.367314097820156 L83.20061658979718 -41.22372055837117" stroke-linecap="square"/>
		<path opacity="0.5" fill="orange" d="M27.774990747593108 -25.223720558371173 L39.77499074759311 -14.83141571295791 L39.77499074759311 -0.9750092524068918 L27.774990747593108 -11.367314097820156 L27.774990747593108 -25.223720558371173" stroke-linecap="square"/>
		<path opacity="0.5" fill="orange" d="M83.20061658979718 -41.22372055837117 L27.774990747593108 -25.223720558371173 L27.774990747593108 -11.367314097820156 L83.20061658979718 -27.367314097820156 L83.20061658979718 -41.22372055837117" stroke-linecap="square"/>
		<path opacity="0.5" fill="orange" d="M95.20061658979718 -30.83141571295791 L39.77499074759311 -14.83141571295791 L39.77499074759311 -0.9750092524068918 L95.20061658979718 -16.975009252406892 L95.20061658979718 -30.83141571295791" stroke-linecap="square"/>
		<path opacity="0.5" fill="orange" d="M83.20061658979718 -41.22372055837117 L95.20061658979718 -30.83141571295791 L39.77499074759311 -14.83141571295791 L27.774990747593108 -25.223720558371173 L83.20061658979718 -41.22372055837117" stroke-linecap="square"/>
		<path opacity="0.5" fill="orange" d="M83.20061658979718 -27.367314097820156 L95.20061658979718 -16.975009252406892 L39.77499074759311 -0.9750092524068918 L27.774990747593108 -11.367314097820156 L83.20061658979718 -27.367314097820156" stroke-linecap="square"/>
		<text style="fill:black;font-family:calibri;font-size:6" x="27.774990747593108" y="-18.295517328095663" >16</text>
		<text style="fill:black;font-family:calibri;font-size:6" x="33.77499074759311" y="-6.171161675113524" >24</text>
		<text style="fill:black;font-family:calibri;font-size:6" x="55.48780366869514" y="-33.22372055837117" >64</text>

		<path opacity="0.75" fill="pink" d="M-5.234482712123254 -9.568662572923971 L-2.7344827121232527 -7.403599063462874 L29.506571658082464 -19.684218240883723 L-5.234482712123254 -9.568662572923971"/>
		<path opacity="0.75" fill="pink" d="M-5.234482712123254 -9.568662572923971 L-5.234482712123254 -5.238535554001778 L29.506571658082464 -19.684218240883723 L-5.234482712123254 -9.568662572923971"/>
		<path opacity="0.75" fill="pink" d="M-2.7344827121232527 -7.403599063462874 L-2.7344827121232527 -3.073472044540683 L29.506571658082464 -19.684218240883723 L-2.7344827121232527 -7.403599063462874"/>
		<path opacity="0.75" fill="pink" d="M-5.234482712123254 -5.238535554001778 L-2.7344827121232527 -3.073472044540683 L29.506571658082464 -19.684218240883723 L-5.234482712123254 -5.238535554001778"/>

		<text style="fill:black;font-family:calibri;font-size:6" x="7.17920207794532" y="-19.126440406903846" >[5,5]</text>
		<path opacity="0.75" fill="darkturquoise" d="M-5.234482712123254 -9.568662572923971 L-2.7344827121232527 -7.403599063462874 L-2.7344827121232527 -3.073472044540683 L-5.234482712123254 -5.238535554001778 L-5.234482712123254 -9.568662572923971" stroke-linecap="square"/>
		<path opacity="0.75" fill="darkturquoise" d="M-32.94729563322529 -1.5686625729239694 L-30.447295633225288 0.5964009365371261 L-30.447295633225288 4.926527955459317 L-32.94729563322529 2.7614644459982216 L-32.94729563322529 -1.5686625729239694" stroke-linecap="square"/>
		<path opacity="0.75" fill="darkturquoise" d="M-5.234482712123254 -9.568662572923971 L-32.94729563322529 -1.5686625729239694 L-32.94729563322529 2.7614644459982216 L-5.234482712123254 -5.238535554001778 L-5.234482712123254 -9.568662572923971" stroke-linecap="square"/>
		<path opacity="0.75" fill="darkturquoise" d="M-2.7344827121232527 -7.403599063462874 L-30.447295633225288 0.5964009365371261 L-30.447295633225288 4.926527955459317 L-2.7344827121232527 -3.073472044540683 L-2.7344827121232527 -7.403599063462874" stroke-linecap="square"/>
		<path opacity="0.75" fill="darkturquoise" d="M-5.234482712123254 -9.568662572923971 L-2.7344827121232527 -7.403599063462874 L-30.447295633225288 0.5964009365371261 L-32.94729563322529 -1.5686625729239694 L-5.234482712123254 -9.568662572923971" stroke-linecap="square"/>
		<path opacity="0.75" fill="darkturquoise" d="M-5.234482712123254 -5.238535554001778 L-2.7344827121232527 -3.073472044540683 L-30.447295633225288 4.926527955459317 L-32.94729563322529 2.7614644459982216 L-5.234482712123254 -5.238535554001778" stroke-linecap="square"/>
		<path opacity="0.5" fill="orange" d="M-21.52627944162883 -24.848076211353316 L2.4737205583711788 -4.063466520526788 L2.4737205583711788 23.649346400575254 L-21.52627944162883 2.864736709748726 L-21.52627944162883 -24.848076211353316" stroke-linecap="square"/>
		<path opacity="0.5" fill="orange" d="M-49.23909236273086 -16.848076211353316 L-25.239092362730855 3.936533479473212 L-25.239092362730855 31.649346400575254 L-49.23909236273086 10.864736709748726 L-49.23909236273086 -16.848076211353316" stroke-linecap="square"/>
		<path opacity="0.5" fill="orange" d="M-21.52627944162883 -24.848076211353316 L-49.23909236273086 -16.848076211353316 L-49.23909236273086 10.864736709748726 L-21.52627944162883 2.864736709748726 L-21.52627944162883 -24.848076211353316" stroke-linecap="square"/>
		<path opacity="0.5" fill="orange" d="M2.4737205583711788 -4.063466520526788 L-25.239092362730855 3.936533479473212 L-25.239092362730855 31.649346400575254 L2.4737205583711788 23.649346400575254 L2.4737205583711788 -4.063466520526788" stroke-linecap="square"/>
		<path opacity="0.5" fill="orange" d="M-21.52627944162883 -24.848076211353316 L2.4737205583711788 -4.063466520526788 L-25.239092362730855 3.936533479473212 L-49.23909236273086 -16.848076211353316 L-21.52627944162883 -24.848076211353316" stroke-linecap="square"/>
		<path opacity="0.5" fill="orange" d="M-21.52627944162883 2.864736709748726 L2.4737205583711788 23.649346400575254 L-25.239092362730855 31.649346400575254 L-49.23909236273086 10.864736709748726 L-21.52627944162883 2.864736709748726" stroke-linecap="square"/>
		<text style="fill:black;font-family:calibri;font-size:6" x="-49.23909236273086" y="-2.991669750802295" >32</text>
		<text style="fill:black;font-family:calibri;font-size:6" x="-37.23909236273086" y="21.25704155516199" >48</text>
		<text style="fill:black;font-family:calibri;font-size:6" x="-35.382685902179844" y="-20.848076211353316" >32</text>

		<path opacity="0.75" fill="pink" d="M-79.9231030979161 14.407091017981799 L-74.9231030979161 18.737218036903997 L-45.18828989513196 -11.212139513283446 L-79.9231030979161 14.407091017981799"/>
		<path opacity="0.75" fill="pink" d="M-79.9231030979161 14.407091017981799 L-79.9231030979161 23.067345055826195 L-45.18828989513196 -11.212139513283446 L-79.9231030979161 14.407091017981799"/>
		<path opacity="0.75" fill="pink" d="M-74.9231030979161 18.737218036903997 L-74.9231030979161 27.39747207474838 L-45.18828989513196 -11.212139513283446 L-74.9231030979161 18.737218036903997"/>
		<path opacity="0.75" fill="pink" d="M-79.9231030979161 23.067345055826195 L-74.9231030979161 27.39747207474838 L-45.18828989513196 -11.212139513283446 L-79.9231030979161 23.067345055826195"/>

		<text style="fill:black;font-family:calibri;font-size:6" x="-66.67816536365471" y="-2.902524247650824" >[10,10]</text>
		<path opacity="0.75" fill="darkturquoise" d="M-79.9231030979161 14.407091017981799 L-74.9231030979161 18.737218036903997 L-74.9231030979161 27.39747207474838 L-79.9231030979161 23.067345055826195 L-79.9231030979161 14.407091017981799" stroke-linecap="square"/>
		<path opacity="0.75" fill="darkturquoise" d="M-88.58335713576048 16.9070910179818 L-83.58335713576048 21.237218036903997 L-83.58335713576048 29.89747207474838 L-88.58335713576048 25.567345055826195 L-88.58335713576048 16.9070910179818" stroke-linecap="square"/>
		<path opacity="0.75" fill="darkturquoise" d="M-79.9231030979161 14.407091017981799 L-88.58335713576048 16.9070910179818 L-88.58335713576048 25.567345055826195 L-79.9231030979161 23.067345055826195 L-79.9231030979161 14.407091017981799" stroke-linecap="square"/>
		<path opacity="0.75" fill="darkturquoise" d="M-74.9231030979161 18.737218036903997 L-83.58335713576048 21.237218036903997 L-83.58335713576048 29.89747207474838 L-74.9231030979161 27.39747207474838 L-74.9231030979161 18.737218036903997" stroke-linecap="square"/>
		<path opacity="0.75" fill="darkturquoise" d="M-79.9231030979161 14.407091017981799 L-74.9231030979161 18.737218036903997 L-83.58335713576048 21.237218036903997 L-88.58335713576048 16.9070910179818 L-79.9231030979161 14.407091017981799" stroke-linecap="square"/>
		<path opacity="0.75" fill="darkturquoise" d="M-79.9231030979161 23.067345055826195 L-74.9231030979161 27.39747207474838 L-83.58335713576048 29.89747207474838 L-88.58335713576048 25.567345055826195 L-79.9231030979161 23.067345055826195" stroke-linecap="square"/>
		<path opacity="0.5" fill="lavender" d="M-92.5403625519528 -4.348076211353316 L-68.5403625519528 16.436533479473212 L-68.5403625519528 44.149346400575254 L-92.5403625519528 23.364736709748726 L-92.5403625519528 -4.348076211353316" stroke-linecap="square"/>
		<path opacity="0.5" fill="lavender" d="M-101.20061658979718 -1.848076211353316 L-77.20061658979718 18.936533479473212 L-77.20061658979718 46.649346400575254 L-101.20061658979718 25.864736709748726 L-101.20061658979718 -1.848076211353316" stroke-linecap="square"/>
		<path opacity="0.5" fill="lavender" d="M-92.5403625519528 -4.348076211353316 L-101.20061658979718 -1.848076211353316 L-101.20061658979718 25.864736709748726 L-92.5403625519528 23.364736709748726 L-92.5403625519528 -4.348076211353316" stroke-linecap="square"/>
		<path opacity="0.5" fill="lavender" d="M-68.5403625519528 16.436533479473212 L-77.20061658979718 18.936533479473212 L-77.20061658979718 46.649346400575254 L-68.5403625519528 44.149346400575254 L-68.5403625519528 16.436533479473212" stroke-linecap="square"/>
		<path opacity="0.5" fill="lavender" d="M-92.5403625519528 -4.348076211353316 L-68.5403625519528 16.436533479473212 L-77.20061658979718 18.936533479473212 L-101.20061658979718 -1.848076211353316 L-92.5403625519528 -4.348076211353316" stroke-linecap="square"/>
		<path opacity="0.5" fill="lavender" d="M-92.5403625519528 23.364736709748726 L-68.5403625519528 44.149346400575254 L-77.20061658979718 46.649346400575254 L-101.20061658979718 25.864736709748726 L-92.5403625519528 23.364736709748726" stroke-linecap="square"/>
		<text style="fill:black;font-family:calibri;font-size:6" x="-101.20061658979718" y="12.008330249197705" >32</text>
		<text style="fill:black;font-family:calibri;font-size:6" x="-89.20061658979718" y="36.25704155516199" >48</text>
		<text style="fill:black;font-family:calibri;font-size:6" x="-96.87048957087498" y="-3.098076211353316" >10</text>

	 </g>
</svg>