<svg width="1000.0px" height="500.0px" viewBox="-251.44125042702103 -177.45607040843177 1000.0 500.0" xmlns="http://www.w3.org/2000/svg">
	<g stroke="black" stroke-width="0.3">
		<path opacity="0.5" fill="orange" d="M386.5470588025886 -101.19421938165306 L390.5470588025886 -97.73011776651529 L390.5470588025886 -90.80191453623979 L386.5470588025886 -94.26601615137753 L386.5470588025886 -101.19421938165306"/>
		<path opacity="0.5" fill="orange" d="M331.12143296038454 -85.19421938165306 L335.12143296038454 -81.73011776651529 L335.12143296038454 -74.80191453623979 L331.12143296038454 -78.26601615137753 L331.12143296038454 -85.19421938165306"/>
		<path opacity="0.5" fill="orange" d="M386.5470588025886 -101.19421938165306 L331.12143296038454 -85.19421938165306 L331.12143296038454 -78.26601615137753 L386.5470588025886 -94.26601615137753 L386.5470588025886 -101.19421938165306"/>
		<path opacity="0.5" fill="orange" d="M390.5470588025886 -97.73011776651529 L335.12143296038454 -81.73011776651529 L335.12143296038454 -74.80191453623979 L390.5470588025886 -90.80191453623979 L390.5470588025886 -97.73011776651529"/>
		<path opacity="0.5" fill="orange" d="M386.5470588025886 -101.19421938165306 L390.5470588025886 -97.73011776651529 L335.12143296038454 -81.73011776651529 L331.12143296038454 -85.19421938165306 L386.5470588025886 -101.19421938165306"/>
		<path opacity="0.5" fill="orange" d="M386.5470588025886 -94.26601615137753 L390.5470588025886 -90.80191453623979 L335.12143296038454 -74.80191453623979 L331.12143296038454 -78.26601615137753 L386.5470588025886 -94.26601615137753"/>
		<text x="331.12143296038454" y="-81.73011776651529" font-family="calibri" font-size="6">8</text>
		<text x="333.12143296038454" y="-76.53396534380866" font-family="calibri" font-size="6">8</text>
		<text x="358.8342458814866" y="-93.19421938165306" font-family="calibri" font-size="6">64</text>

		<path opacity="0.75" fill="darkturquoise" d="M591.941250427021 -171.45607040843177 L596.941250427021 -167.1259433895096 L596.941250427021 6.079137367378181 L591.941250427021 1.7490103484559825 L591.941250427021 -171.45607040843177"/>
		<path opacity="0.75" fill="darkturquoise" d="M583.2809963891766 -168.95607040843177 L588.2809963891766 -164.6259433895096 L588.2809963891766 8.57913736737818 L583.2809963891766 4.2490103484559825 L583.2809963891766 -168.95607040843177"/>
		<path opacity="0.75" fill="darkturquoise" d="M591.941250427021 -171.45607040843177 L583.2809963891766 -168.95607040843177 L583.2809963891766 4.2490103484559825 L591.941250427021 1.7490103484559825 L591.941250427021 -171.45607040843177"/>
		<path opacity="0.75" fill="darkturquoise" d="M596.941250427021 -167.1259433895096 L588.2809963891766 -164.6259433895096 L588.2809963891766 8.57913736737818 L596.941250427021 6.079137367378181 L596.941250427021 -167.1259433895096"/>
		<path opacity="0.75" fill="darkturquoise" d="M591.941250427021 -171.45607040843177 L596.941250427021 -167.1259433895096 L588.2809963891766 -164.6259433895096 L583.2809963891766 -168.95607040843177 L591.941250427021 -171.45607040843177"/>
		<path opacity="0.75" fill="darkturquoise" d="M591.941250427021 1.7490103484559825 L596.941250427021 6.079137367378181 L588.2809963891766 8.57913736737818 L583.2809963891766 4.2490103484559825 L591.941250427021 1.7490103484559825"/>
		<text x="583.2809963891766" y="-82.3535300299879" font-family="calibri" font-size="6">200</text>
		<text x="585.7809963891766" y="6.4140738579170815" font-family="calibri" font-size="6">10</text>
		<text x="587.6111234080988" y="-170.20607040843177" font-family="calibri" font-size="6">10</text>

<!-- Arrow -->
		<path opacity="0.5" stroke="black" d="M542.4797261999547 -67.68846652052682 L585.7809963891766 -80.18846652052682"/>
		<circle opacity="0.5" cx="585.7809963891766" cy="-80.18846652052682" r="1" fill="black" />
<!-- Arrow -->
		<path opacity="0.5" stroke="black" d="M388.5470588025886 -95.99806695894642 L481.85794793504397 -50.1884665205268"/>
		<circle opacity="0.5" cx="481.85794793504397" cy="-50.1884665205268" r="1" fill="black" />
		<path opacity="0.5" fill="orange" d="M160.08364779650316 -84.31728634059947 L164.08364779650316 -80.8531847254617 L164.08364779650316 -73.9249814951862 L160.08364779650316 -77.38908311032397 L160.08364779650316 -84.31728634059947"/>
		<path opacity="0.5" fill="orange" d="M104.6580219542991 -68.31728634059947 L108.6580219542991 -64.8531847254617 L108.6580219542991 -57.9249814951862 L104.6580219542991 -61.389083110323966 L104.6580219542991 -68.31728634059947"/>
		<path opacity="0.5" fill="orange" d="M160.08364779650316 -84.31728634059947 L104.6580219542991 -68.31728634059947 L104.6580219542991 -61.389083110323966 L160.08364779650316 -77.38908311032397 L160.08364779650316 -84.31728634059947"/>
		<path opacity="0.5" fill="orange" d="M164.08364779650316 -80.8531847254617 L108.6580219542991 -64.8531847254617 L108.6580219542991 -57.9249814951862 L164.08364779650316 -73.9249814951862 L164.08364779650316 -80.8531847254617"/>
		<path opacity="0.5" fill="orange" d="M160.08364779650316 -84.31728634059947 L164.08364779650316 -80.8531847254617 L108.6580219542991 -64.8531847254617 L104.6580219542991 -68.31728634059947 L160.08364779650316 -84.31728634059947"/>
		<path opacity="0.5" fill="orange" d="M160.08364779650316 -77.38908311032397 L164.08364779650316 -73.9249814951862 L108.6580219542991 -57.9249814951862 L104.6580219542991 -61.389083110323966 L160.08364779650316 -77.38908311032397"/>
		<text x="104.6580219542991" y="-64.85318472546172" font-family="calibri" font-size="6">8</text>
		<text x="106.6580219542991" y="-59.657032302755084" font-family="calibri" font-size="6">8</text>
		<text x="132.37083487540113" y="-76.31728634059947" font-family="calibri" font-size="6">64</text>

		<path opacity="0.75" fill="pink" d="M288.90868003454466 -70.04221050427503 L291.40868003454466 -67.87714699481393 L334.65788255754364 -79.47964291854262 L288.90868003454466 -70.04221050427503"/>
		<path opacity="0.75" fill="pink" d="M288.90868003454466 -70.04221050427503 L288.90868003454466 -65.71208348535284 L334.65788255754364 -79.47964291854262 L288.90868003454466 -70.04221050427503"/>
		<path opacity="0.75" fill="pink" d="M291.40868003454466 -67.87714699481393 L291.40868003454466 -63.547019975891736 L334.65788255754364 -79.47964291854262 L291.40868003454466 -67.87714699481393"/>
		<path opacity="0.75" fill="pink" d="M288.90868003454466 -65.71208348535284 L291.40868003454466 -63.547019975891736 L334.65788255754364 -79.47964291854262 L288.90868003454466 -65.71208348535284"/>

		<path opacity="0.75" fill="darkturquoise" d="M539.9797261999547 -156.45607040843177 L544.9797261999547 -152.1259433895096 L544.9797261999547 21.07913736737818 L539.9797261999547 16.749010348455982 L539.9797261999547 -156.45607040843177"/>
		<path opacity="0.75" fill="darkturquoise" d="M531.3194721621103 -153.95607040843177 L536.3194721621103 -149.6259433895096 L536.3194721621103 23.57913736737818 L531.3194721621103 19.249010348455982 L531.3194721621103 -153.95607040843177"/>
		<path opacity="0.75" fill="darkturquoise" d="M539.9797261999547 -156.45607040843177 L531.3194721621103 -153.95607040843177 L531.3194721621103 19.249010348455982 L539.9797261999547 16.749010348455982 L539.9797261999547 -156.45607040843177"/>
		<path opacity="0.75" fill="darkturquoise" d="M544.9797261999547 -152.1259433895096 L536.3194721621103 -149.6259433895096 L536.3194721621103 23.57913736737818 L544.9797261999547 21.07913736737818 L544.9797261999547 -152.1259433895096"/>
		<path opacity="0.75" fill="darkturquoise" d="M539.9797261999547 -156.45607040843177 L544.9797261999547 -152.1259433895096 L536.3194721621103 -149.6259433895096 L531.3194721621103 -153.95607040843177 L539.9797261999547 -156.45607040843177"/>
		<path opacity="0.75" fill="darkturquoise" d="M539.9797261999547 16.749010348455982 L544.9797261999547 21.07913736737818 L536.3194721621103 23.57913736737818 L531.3194721621103 19.249010348455982 L539.9797261999547 16.749010348455982"/>
		<text x="531.3194721621103" y="-67.3535300299879" font-family="calibri" font-size="6">200</text>
		<text x="533.8194721621103" y="21.41407385791708" font-family="calibri" font-size="6">10</text>
		<text x="535.6495991810325" y="-155.20607040843177" font-family="calibri" font-size="6">10</text>

<!-- Arrow -->
		<path opacity="0.5" stroke="black" d="M162.08364779650316 -79.12113391789283 L234.39453692895853 -51.49806695894642"/>
		<circle opacity="0.5" cx="234.39453692895853" cy="-51.49806695894642" r="1" fill="black" />
<!-- Arrow -->
		<path opacity="0.5" stroke="black" d="M490.51820197288833 -52.6884665205268 L533.8194721621103 -65.18846652052682"/>
		<circle opacity="0.5" cx="533.8194721621103" cy="-65.18846652052682" r="1" fill="black" />
		<path opacity="0.75" fill="darkturquoise" d="M288.90868003454466 -70.04221050427503 L291.40868003454466 -67.87714699481393 L291.40868003454466 -63.547019975891736 L288.90868003454466 -65.71208348535284 L288.90868003454466 -70.04221050427503"/>
		<path opacity="0.75" fill="darkturquoise" d="M233.48305419234057 -54.042210504275026 L235.98305419234057 -51.87714699481393 L235.98305419234057 -47.547019975891736 L233.48305419234057 -49.712083485352835 L233.48305419234057 -54.042210504275026"/>
		<path opacity="0.75" fill="darkturquoise" d="M288.90868003454466 -70.04221050427503 L233.48305419234057 -54.042210504275026 L233.48305419234057 -49.712083485352835 L288.90868003454466 -65.71208348535284 L288.90868003454466 -70.04221050427503"/>
		<path opacity="0.75" fill="darkturquoise" d="M291.40868003454466 -67.87714699481393 L235.98305419234057 -51.87714699481393 L235.98305419234057 -47.547019975891736 L291.40868003454466 -63.547019975891736 L291.40868003454466 -67.87714699481393"/>
		<path opacity="0.75" fill="darkturquoise" d="M288.90868003454466 -70.04221050427503 L291.40868003454466 -67.87714699481393 L235.98305419234057 -51.87714699481393 L233.48305419234057 -54.042210504275026 L288.90868003454466 -70.04221050427503"/>
		<path opacity="0.75" fill="darkturquoise" d="M288.90868003454466 -65.71208348535284 L291.40868003454466 -63.547019975891736 L235.98305419234057 -47.547019975891736 L233.48305419234057 -49.712083485352835 L288.90868003454466 -65.71208348535284"/>
		<text x="233.48305419234057" y="-51.87714699481393" font-family="calibri" font-size="6">5</text>
		<text x="234.73305419234057" y="-48.62955173062228" font-family="calibri" font-size="6">5</text>
		<text x="261.1958671134426" y="-62.04221050427503" font-family="calibri" font-size="6">64</text>

		<path opacity="0.5" fill="orange" d="M287.8201627711626 -72.69421938165306 L291.8201627711626 -69.23011776651529 L291.8201627711626 -62.30191453623979 L287.8201627711626 -65.76601615137753 L287.8201627711626 -72.69421938165306"/>
		<path opacity="0.5" fill="orange" d="M232.39453692895853 -56.69421938165305 L236.39453692895853 -53.2301177665153 L236.39453692895853 -46.30191453623979 L232.39453692895853 -49.766016151377535 L232.39453692895853 -56.69421938165305"/>
		<path opacity="0.5" fill="orange" d="M287.8201627711626 -72.69421938165306 L232.39453692895853 -56.69421938165305 L232.39453692895853 -49.766016151377535 L287.8201627711626 -65.76601615137753 L287.8201627711626 -72.69421938165306"/>
		<path opacity="0.5" fill="orange" d="M291.8201627711626 -69.23011776651529 L236.39453692895853 -53.2301177665153 L236.39453692895853 -46.30191453623979 L291.8201627711626 -62.30191453623979 L291.8201627711626 -69.23011776651529"/>
		<path opacity="0.5" fill="orange" d="M287.8201627711626 -72.69421938165306 L291.8201627711626 -69.23011776651529 L236.39453692895853 -53.2301177665153 L232.39453692895853 -56.69421938165305 L287.8201627711626 -72.69421938165306"/>
		<path opacity="0.5" fill="orange" d="M287.8201627711626 -65.76601615137753 L291.8201627711626 -62.30191453623979 L236.39453692895853 -46.30191453623979 L232.39453692895853 -49.766016151377535 L287.8201627711626 -65.76601615137753"/>
		<text x="232.39453692895853" y="-53.23011776651529" font-family="calibri" font-size="6">8</text>
		<text x="234.39453692895853" y="-48.03396534380866" font-family="calibri" font-size="6">8</text>
		<text x="260.1073498500606" y="-64.69421938165306" font-family="calibri" font-size="6">64</text>

		<path opacity="0.75" fill="darkturquoise" d="M488.01820197288833 -141.45607040843177 L493.01820197288833 -137.1259433895096 L493.01820197288833 36.07913736737818 L488.01820197288833 31.749010348455982 L488.01820197288833 -141.45607040843177"/>
		<path opacity="0.75" fill="darkturquoise" d="M479.35794793504397 -138.95607040843177 L484.35794793504397 -134.6259433895096 L484.35794793504397 38.57913736737818 L479.35794793504397 34.24901034845598 L479.35794793504397 -138.95607040843177"/>
		<path opacity="0.75" fill="darkturquoise" d="M488.01820197288833 -141.45607040843177 L479.35794793504397 -138.95607040843177 L479.35794793504397 34.24901034845598 L488.01820197288833 31.749010348455982 L488.01820197288833 -141.45607040843177"/>
		<path opacity="0.75" fill="darkturquoise" d="M493.01820197288833 -137.1259433895096 L484.35794793504397 -134.6259433895096 L484.35794793504397 38.57913736737818 L493.01820197288833 36.07913736737818 L493.01820197288833 -137.1259433895096"/>
		<path opacity="0.75" fill="darkturquoise" d="M488.01820197288833 -141.45607040843177 L493.01820197288833 -137.1259433895096 L484.35794793504397 -134.6259433895096 L479.35794793504397 -138.95607040843177 L488.01820197288833 -141.45607040843177"/>
		<path opacity="0.75" fill="darkturquoise" d="M488.01820197288833 31.749010348455982 L493.01820197288833 36.07913736737818 L484.35794793504397 38.57913736737818 L479.35794793504397 34.24901034845598 L488.01820197288833 31.749010348455982"/>
		<text x="479.35794793504397" y="-52.353530029987894" font-family="calibri" font-size="6">200</text>
		<text x="481.85794793504397" y="36.41407385791708" font-family="calibri" font-size="6">10</text>
		<text x="483.6880749539662" y="-140.20607040843177" font-family="calibri" font-size="6">10</text>

		<path opacity="0.75" fill="pink" d="M62.12931061065996 -57.80725415925373 L64.62931061065996 -55.64219064979264 L108.10082077593395 -59.337768378693866 L62.12931061065996 -57.80725415925373"/>
		<path opacity="0.75" fill="pink" d="M62.12931061065996 -57.80725415925373 L62.12931061065996 -53.47712714033153 L108.10082077593395 -59.337768378693866 L62.12931061065996 -57.80725415925373"/>
		<path opacity="0.75" fill="pink" d="M64.62931061065996 -55.64219064979264 L64.62931061065996 -51.31206363087044 L108.10082077593395 -59.337768378693866 L64.62931061065996 -55.64219064979264"/>
		<path opacity="0.75" fill="pink" d="M62.12931061065996 -53.47712714033153 L64.62931061065996 -51.31206363087044 L108.10082077593395 -59.337768378693866 L62.12931061065996 -53.47712714033153"/>

<!-- Arrow -->
		<path opacity="0.5" stroke="black" d="M-50.37976320958228 -50.11984522385711 L7.931125922873093 -34.621133917892834"/>
		<circle opacity="0.5" cx="7.931125922873093" cy="-34.621133917892834" r="1" fill="black" />
		<path opacity="0.75" fill="darkturquoise" d="M62.12931061065996 -57.80725415925373 L64.62931061065996 -55.64219064979264 L64.62931061065996 -51.31206363087044 L62.12931061065996 -53.47712714033153 L62.12931061065996 -57.80725415925373"/>
		<path opacity="0.75" fill="darkturquoise" d="M6.703684768455901 -41.80725415925373 L9.2036847684559 -39.64219064979264 L9.2036847684559 -35.31206363087044 L6.703684768455901 -37.47712714033153 L6.703684768455901 -41.80725415925373"/>
		<path opacity="0.75" fill="darkturquoise" d="M62.12931061065996 -57.80725415925373 L6.703684768455901 -41.80725415925373 L6.703684768455901 -37.47712714033153 L62.12931061065996 -53.47712714033153 L62.12931061065996 -57.80725415925373"/>
		<path opacity="0.75" fill="darkturquoise" d="M64.62931061065996 -55.64219064979264 L9.2036847684559 -39.64219064979264 L9.2036847684559 -35.31206363087044 L64.62931061065996 -51.31206363087044 L64.62931061065996 -55.64219064979264"/>
		<path opacity="0.75" fill="darkturquoise" d="M62.12931061065996 -57.80725415925373 L64.62931061065996 -55.64219064979264 L9.2036847684559 -39.64219064979264 L6.703684768455901 -41.80725415925373 L62.12931061065996 -57.80725415925373"/>
		<path opacity="0.75" fill="darkturquoise" d="M62.12931061065996 -53.47712714033153 L64.62931061065996 -51.31206363087044 L9.2036847684559 -35.31206363087044 L6.703684768455901 -37.47712714033153 L62.12931061065996 -53.47712714033153"/>
		<text x="6.703684768455901" y="-39.64219064979263" font-family="calibri" font-size="6">5</text>
		<text x="7.953684768455901" y="-36.39459538560099" font-family="calibri" font-size="6">5</text>
		<text x="34.41649768955793" y="-49.80725415925373" font-family="calibri" font-size="6">64</text>

		<path opacity="0.5" fill="orange" d="M59.35675176507715 -61.0134387633061 L67.35675176507715 -54.0852355330306 L67.35675176507715 -40.22882907247958 L59.35675176507715 -47.15703230275507 L59.35675176507715 -61.0134387633061"/>
		<path opacity="0.5" fill="orange" d="M3.9311259228730933 -45.0134387633061 L11.931125922873093 -38.0852355330306 L11.931125922873093 -24.228829072479577 L3.9311259228730933 -31.15703230275507 L3.9311259228730933 -45.0134387633061"/>
		<path opacity="0.5" fill="orange" d="M59.35675176507715 -61.0134387633061 L3.9311259228730933 -45.0134387633061 L3.9311259228730933 -31.15703230275507 L59.35675176507715 -47.15703230275507 L59.35675176507715 -61.0134387633061"/>
		<path opacity="0.5" fill="orange" d="M67.35675176507715 -54.0852355330306 L11.931125922873093 -38.0852355330306 L11.931125922873093 -24.228829072479577 L67.35675176507715 -40.22882907247958 L67.35675176507715 -54.0852355330306"/>
		<path opacity="0.5" fill="orange" d="M59.35675176507715 -61.0134387633061 L67.35675176507715 -54.0852355330306 L11.931125922873093 -38.0852355330306 L3.9311259228730933 -45.0134387633061 L59.35675176507715 -61.0134387633061"/>
		<path opacity="0.5" fill="orange" d="M59.35675176507715 -47.15703230275507 L67.35675176507715 -40.22882907247958 L11.931125922873093 -24.228829072479577 L3.9311259228730933 -31.15703230275507 L59.35675176507715 -47.15703230275507"/>
		<text x="3.9311259228730933" y="-38.085235533030584" font-family="calibri" font-size="6">16</text>
		<text x="7.931125922873093" y="-27.692930687617324" font-family="calibri" font-size="6">16</text>
		<text x="31.64393884397512" y="-53.0134387633061" font-family="calibri" font-size="6">64</text>

		<path opacity="0.5" fill="orange" d="M-54.37976320958228 -60.512150069270376 L-46.37976320958228 -53.583946838994876 L-46.37976320958228 -39.72754037844385 L-54.37976320958228 -46.65574360871935 L-54.37976320958228 -60.512150069270376"/>
		<path opacity="0.5" fill="orange" d="M-109.80538905178634 -44.512150069270376 L-101.80538905178634 -37.583946838994876 L-101.80538905178634 -23.727540378443848 L-109.80538905178634 -30.655743608719348 L-109.80538905178634 -44.512150069270376"/>
		<path opacity="0.5" fill="orange" d="M-54.37976320958228 -60.512150069270376 L-109.80538905178634 -44.512150069270376 L-109.80538905178634 -30.655743608719348 L-54.37976320958228 -46.65574360871935 L-54.37976320958228 -60.512150069270376"/>
		<path opacity="0.5" fill="orange" d="M-46.37976320958228 -53.583946838994876 L-101.80538905178634 -37.583946838994876 L-101.80538905178634 -23.727540378443848 L-46.37976320958228 -39.72754037844385 L-46.37976320958228 -53.583946838994876"/>
		<path opacity="0.5" fill="orange" d="M-54.37976320958228 -60.512150069270376 L-46.37976320958228 -53.583946838994876 L-101.80538905178634 -37.583946838994876 L-109.80538905178634 -44.512150069270376 L-54.37976320958228 -60.512150069270376"/>
		<path opacity="0.5" fill="orange" d="M-54.37976320958228 -46.65574360871935 L-46.37976320958228 -39.72754037844385 L-101.80538905178634 -23.727540378443848 L-109.80538905178634 -30.655743608719348 L-54.37976320958228 -46.65574360871935"/>
		<text x="-109.80538905178634" y="-37.58394683899486" font-family="calibri" font-size="6">16</text>
		<text x="-105.80538905178634" y="-27.191641993581598" font-family="calibri" font-size="6">16</text>
		<text x="-82.09257613068431" y="-52.512150069270376" font-family="calibri" font-size="6">64</text>

<!-- Arrow -->
		<path opacity="0.5" stroke="black" d="M5.620236790417721 -1.6224226119285525 L234.39453692895853 -51.49806695894642"/>
		<circle opacity="0.5" cx="234.39453692895853" cy="-51.49806695894642" r="1" fill="black" />
<!-- Arrow -->
		<path opacity="0.5" stroke="black" d="M5.620236790417721 -1.6224226119285525 L481.85794793504397 -50.1884665205268"/>
		<circle opacity="0.5" cx="481.85794793504397" cy="-50.1884665205268" r="1" fill="black" />
		<path opacity="0.75" fill="pink" d="M-151.88158435179736 -23.87683199534817 L-149.38158435179736 -21.711768485887077 L-104.58600804441681 -30.596678493399736 L-151.88158435179736 -23.87683199534817"/>
		<path opacity="0.75" fill="pink" d="M-151.88158435179736 -23.87683199534817 L-151.88158435179736 -19.54670497642597 L-104.58600804441681 -30.596678493399736 L-151.88158435179736 -23.87683199534817"/>
		<path opacity="0.75" fill="pink" d="M-149.38158435179736 -21.711768485887077 L-149.38158435179736 -17.38164146696488 L-104.58600804441681 -30.596678493399736 L-149.38158435179736 -21.711768485887077"/>
		<path opacity="0.75" fill="pink" d="M-151.88158435179736 -19.54670497642597 L-149.38158435179736 -17.38164146696488 L-104.58600804441681 -30.596678493399736 L-151.88158435179736 -19.54670497642597"/>

<!-- Arrow -->
		<path opacity="0.5" stroke="black" d="M5.620236790417721 -1.6224226119285525 L7.931125922873093 -34.621133917892834"/>
		<circle opacity="0.5" cx="7.931125922873093" cy="-34.621133917892834" r="1" fill="black" />
		<path opacity="0.75" fill="darkturquoise" d="M-151.88158435179736 -23.87683199534817 L-149.38158435179736 -21.711768485887077 L-149.38158435179736 -17.38164146696488 L-151.88158435179736 -19.54670497642597 L-151.88158435179736 -23.87683199534817"/>
		<path opacity="0.75" fill="darkturquoise" d="M-179.5943972728994 -15.87683199534817 L-177.0943972728994 -13.711768485887077 L-177.0943972728994 -9.38164146696488 L-179.5943972728994 -11.546704976425971 L-179.5943972728994 -15.87683199534817"/>
		<path opacity="0.75" fill="darkturquoise" d="M-151.88158435179736 -23.87683199534817 L-179.5943972728994 -15.87683199534817 L-179.5943972728994 -11.546704976425971 L-151.88158435179736 -19.54670497642597 L-151.88158435179736 -23.87683199534817"/>
		<path opacity="0.75" fill="darkturquoise" d="M-149.38158435179736 -21.711768485887077 L-177.0943972728994 -13.711768485887077 L-177.0943972728994 -9.38164146696488 L-149.38158435179736 -17.38164146696488 L-149.38158435179736 -21.711768485887077"/>
		<path opacity="0.75" fill="darkturquoise" d="M-151.88158435179736 -23.87683199534817 L-149.38158435179736 -21.711768485887077 L-177.0943972728994 -13.711768485887077 L-179.5943972728994 -15.87683199534817 L-151.88158435179736 -23.87683199534817"/>
		<path opacity="0.75" fill="darkturquoise" d="M-151.88158435179736 -19.54670497642597 L-149.38158435179736 -17.38164146696488 L-177.0943972728994 -9.38164146696488 L-179.5943972728994 -11.546704976425971 L-151.88158435179736 -19.54670497642597"/>
		<text x="-179.5943972728994" y="-13.71176848588707" font-family="calibri" font-size="6">5</text>
		<text x="-178.3443972728994" y="-10.464173221695425" font-family="calibri" font-size="6">5</text>
		<text x="-165.7379908123484" y="-19.87683199534817" font-family="calibri" font-size="6">32</text>

		<path opacity="0.5" fill="orange" d="M-157.1066592410083 -42.404454914683626 L-141.1066592410083 -28.548048454132612 L-141.1066592410083 -0.8352355330305841 L-157.1066592410083 -14.691641993581598 L-157.1066592410083 -42.404454914683626"/>
		<path opacity="0.5" fill="orange" d="M-184.8194721621103 -34.404454914683626 L-168.8194721621103 -20.548048454132612 L-168.8194721621103 7.164764466969416 L-184.8194721621103 -6.691641993581598 L-184.8194721621103 -34.404454914683626"/>
		<path opacity="0.5" fill="orange" d="M-157.1066592410083 -42.404454914683626 L-184.8194721621103 -34.404454914683626 L-184.8194721621103 -6.691641993581598 L-157.1066592410083 -14.691641993581598 L-157.1066592410083 -42.404454914683626"/>
		<path opacity="0.5" fill="orange" d="M-141.1066592410083 -28.548048454132612 L-168.8194721621103 -20.548048454132612 L-168.8194721621103 7.164764466969416 L-141.1066592410083 -0.8352355330305841 L-141.1066592410083 -28.548048454132612"/>
		<path opacity="0.5" fill="orange" d="M-157.1066592410083 -42.404454914683626 L-141.1066592410083 -28.548048454132612 L-168.8194721621103 -20.548048454132612 L-184.8194721621103 -34.404454914683626 L-157.1066592410083 -42.404454914683626"/>
		<path opacity="0.5" fill="orange" d="M-157.1066592410083 -14.691641993581598 L-141.1066592410083 -0.8352355330305841 L-168.8194721621103 7.164764466969416 L-184.8194721621103 -6.691641993581598 L-157.1066592410083 -14.691641993581598"/>
		<text x="-184.8194721621103" y="-20.548048454132612" font-family="calibri" font-size="6">32</text>
		<text x="-176.8194721621103" y="0.23656123669390894" font-family="calibri" font-size="6">32</text>
		<text x="-170.9630657015593" y="-38.404454914683626" font-family="calibri" font-size="6">32</text>

<!-- Arrow -->
		<path opacity="0.5" stroke="black" d="M160.34713282184376 18.375 L234.39453692895853 -51.49806695894642"/>
		<circle opacity="0.5" cx="234.39453692895853" cy="-51.49806695894642" r="1" fill="black" />
<!-- Arrow -->
		<path opacity="0.5" stroke="black" d="M160.34713282184376 18.375 L481.85794793504397 -50.1884665205268"/>
		<circle opacity="0.5" cx="481.85794793504397" cy="-50.1884665205268" r="1" fill="black" />
		<path opacity="0.75" fill="pink" d="M-222.3241113911297 -0.013826201313264619 L-217.3241113911297 4.3163008176089335 L-180.48730553975497 -13.32116076345234 L-222.3241113911297 -0.013826201313264619"/>
		<path opacity="0.75" fill="pink" d="M-222.3241113911297 -0.013826201313264619 L-222.3241113911297 8.646427836531117 L-180.48730553975497 -13.32116076345234 L-222.3241113911297 -0.013826201313264619"/>
		<path opacity="0.75" fill="pink" d="M-217.3241113911297 4.3163008176089335 L-217.3241113911297 12.976554855453315 L-180.48730553975497 -13.32116076345234 L-217.3241113911297 4.3163008176089335"/>
		<path opacity="0.75" fill="pink" d="M-222.3241113911297 8.646427836531117 L-217.3241113911297 12.976554855453315 L-180.48730553975497 -13.32116076345234 L-222.3241113911297 8.646427836531117"/>

<!-- Arrow -->
		<path opacity="0.5" stroke="black" d="M428.8105438279292 37.871133917892834 L481.85794793504397 -50.1884665205268"/>
		<circle opacity="0.5" cx="481.85794793504397" cy="-50.1884665205268" r="1" fill="black" />
		<path opacity="0.75" fill="darkturquoise" d="M-222.3241113911297 -0.013826201313264619 L-217.3241113911297 4.3163008176089335 L-217.3241113911297 12.976554855453315 L-222.3241113911297 8.646427836531117 L-222.3241113911297 -0.013826201313264619"/>
		<path opacity="0.75" fill="darkturquoise" d="M-239.64461946681848 4.986173798686735 L-234.64461946681848 9.316300817608933 L-234.64461946681848 17.976554855453315 L-239.64461946681848 13.646427836531117 L-239.64461946681848 4.986173798686735"/>
		<path opacity="0.75" fill="darkturquoise" d="M-222.3241113911297 -0.013826201313264619 L-239.64461946681848 4.986173798686735 L-239.64461946681848 13.646427836531117 L-222.3241113911297 8.646427836531117 L-222.3241113911297 -0.013826201313264619"/>
		<path opacity="0.75" fill="darkturquoise" d="M-217.3241113911297 4.3163008176089335 L-234.64461946681848 9.316300817608933 L-234.64461946681848 17.976554855453315 L-217.3241113911297 12.976554855453315 L-217.3241113911297 4.3163008176089335"/>
		<path opacity="0.75" fill="darkturquoise" d="M-222.3241113911297 -0.013826201313264619 L-217.3241113911297 4.3163008176089335 L-234.64461946681848 9.316300817608933 L-239.64461946681848 4.986173798686735 L-222.3241113911297 -0.013826201313264619"/>
		<path opacity="0.75" fill="darkturquoise" d="M-222.3241113911297 8.646427836531117 L-217.3241113911297 12.976554855453315 L-234.64461946681848 17.976554855453315 L-239.64461946681848 13.646427836531117 L-222.3241113911297 8.646427836531117"/>
		<text x="-239.64461946681848" y="9.316300817608926" font-family="calibri" font-size="6">10</text>
		<text x="-237.14461946681848" y="15.811491345992216" font-family="calibri" font-size="6">10</text>
		<text x="-230.9843654289741" y="2.4861737986867354" font-family="calibri" font-size="6">20</text>

		<path opacity="0.5" fill="orange" d="M-228.12074235133218 -21.904454914683626 L-212.12074235133218 -8.048048454132612 L-212.12074235133218 19.664764466969416 L-228.12074235133218 5.808358006418402 L-228.12074235133218 -21.904454914683626"/>
		<path opacity="0.5" fill="orange" d="M-245.44125042702103 -16.904454914683626 L-229.44125042702103 -3.048048454132612 L-229.44125042702103 24.664764466969416 L-245.44125042702103 10.808358006418402 L-245.44125042702103 -16.904454914683626"/>
		<path opacity="0.5" fill="orange" d="M-228.12074235133218 -21.904454914683626 L-245.44125042702103 -16.904454914683626 L-245.44125042702103 10.808358006418402 L-228.12074235133218 5.808358006418402 L-228.12074235133218 -21.904454914683626"/>
		<path opacity="0.5" fill="orange" d="M-212.12074235133218 -8.048048454132612 L-229.44125042702103 -3.048048454132612 L-229.44125042702103 24.664764466969416 L-212.12074235133218 19.664764466969416 L-212.12074235133218 -8.048048454132612"/>
		<path opacity="0.5" fill="orange" d="M-228.12074235133218 -21.904454914683626 L-212.12074235133218 -8.048048454132612 L-229.44125042702103 -3.048048454132612 L-245.44125042702103 -16.904454914683626 L-228.12074235133218 -21.904454914683626"/>
		<path opacity="0.5" fill="orange" d="M-228.12074235133218 5.808358006418402 L-212.12074235133218 19.664764466969416 L-229.44125042702103 24.664764466969416 L-245.44125042702103 10.808358006418402 L-228.12074235133218 5.808358006418402"/>
		<text x="-245.44125042702103" y="-3.048048454132612" font-family="calibri" font-size="6">32</text>
		<text x="-237.44125042702103" y="17.73656123669391" font-family="calibri" font-size="6">32</text>
		<text x="-236.7809963891766" y="-19.404454914683626" font-family="calibri" font-size="6">20</text>

		<path opacity="0.5" fill="orange" d="M1.6202367904177208 -12.014727457341813 L9.62023679041772 -5.086524227066306 L9.62023679041772 8.769882233484708 L1.6202367904177208 1.841679003209201 L1.6202367904177208 -12.014727457341813"/>
		<path opacity="0.5" fill="orange" d="M-53.805389051786335 3.985272542658187 L-45.805389051786335 10.913475772933694 L-45.805389051786335 24.769882233484708 L-53.805389051786335 17.8416790032092 L-53.805389051786335 3.985272542658187"/>
		<path opacity="0.5" fill="orange" d="M1.6202367904177208 -12.014727457341813 L-53.805389051786335 3.985272542658187 L-53.805389051786335 17.8416790032092 L1.6202367904177208 1.841679003209201 L1.6202367904177208 -12.014727457341813"/>
		<path opacity="0.5" fill="orange" d="M9.62023679041772 -5.086524227066306 L-45.805389051786335 10.913475772933694 L-45.805389051786335 24.769882233484708 L9.62023679041772 8.769882233484708 L9.62023679041772 -5.086524227066306"/>
		<path opacity="0.5" fill="orange" d="M1.6202367904177208 -12.014727457341813 L9.62023679041772 -5.086524227066306 L-45.805389051786335 10.913475772933694 L-53.805389051786335 3.985272542658187 L1.6202367904177208 -12.014727457341813"/>
		<path opacity="0.5" fill="orange" d="M1.6202367904177208 1.841679003209201 L9.62023679041772 8.769882233484708 L-45.805389051786335 24.769882233484708 L-53.805389051786335 17.8416790032092 L1.6202367904177208 1.841679003209201"/>
		<text x="-53.805389051786335" y="10.913475772933694" font-family="calibri" font-size="6">16</text>
		<text x="-49.805389051786335" y="21.305780618346954" font-family="calibri" font-size="6">16</text>
		<text x="-26.092576130684307" y="-4.014727457341813" font-family="calibri" font-size="6">64</text>

		<path opacity="0.75" fill="pink" d="M-99.87817203907701 27.101063259800448 L-97.37817203907701 29.266126769261547 L-47.55186145695404 12.631037926928329 L-99.87817203907701 27.101063259800448"/>
		<path opacity="0.75" fill="pink" d="M-99.87817203907701 27.101063259800448 L-99.87817203907701 31.43119027872264 L-47.55186145695404 12.631037926928329 L-99.87817203907701 27.101063259800448"/>
		<path opacity="0.75" fill="pink" d="M-97.37817203907701 29.266126769261547 L-97.37817203907701 33.596253788183745 L-47.55186145695404 12.631037926928329 L-97.37817203907701 29.266126769261547"/>
		<path opacity="0.75" fill="pink" d="M-99.87817203907701 31.43119027872264 L-97.37817203907701 33.596253788183745 L-47.55186145695404 12.631037926928329 L-99.87817203907701 31.43119027872264"/>

		<path opacity="0.5" fill="orange" d="M158.34713282184376 13.178847577293368 L162.34713282184376 16.64294919243112 L162.34713282184376 23.571152422706632 L158.34713282184376 20.10705080756888 L158.34713282184376 13.178847577293368"/>
		<path opacity="0.5" fill="orange" d="M102.92150697963969 29.178847577293368 L106.92150697963969 32.642949192431125 L106.92150697963969 39.57115242270663 L102.92150697963969 36.107050807568875 L102.92150697963969 29.178847577293368"/>
		<path opacity="0.5" fill="orange" d="M158.34713282184376 13.178847577293368 L102.92150697963969 29.178847577293368 L102.92150697963969 36.107050807568875 L158.34713282184376 20.10705080756888 L158.34713282184376 13.178847577293368"/>
		<path opacity="0.5" fill="orange" d="M162.34713282184376 16.64294919243112 L106.92150697963969 32.642949192431125 L106.92150697963969 39.57115242270663 L162.34713282184376 23.571152422706632 L162.34713282184376 16.64294919243112"/>
		<path opacity="0.5" fill="orange" d="M158.34713282184376 13.178847577293368 L162.34713282184376 16.64294919243112 L106.92150697963969 32.642949192431125 L102.92150697963969 29.178847577293368 L158.34713282184376 13.178847577293368"/>
		<path opacity="0.5" fill="orange" d="M158.34713282184376 20.10705080756888 L162.34713282184376 23.571152422706632 L106.92150697963969 39.57115242270663 L102.92150697963969 36.107050807568875 L158.34713282184376 20.10705080756888"/>
		<text x="102.92150697963969" y="32.64294919243112" font-family="calibri" font-size="6">8</text>
		<text x="104.92150697963969" y="37.83910161513775" font-family="calibri" font-size="6">8</text>
		<text x="130.63431990074173" y="21.178847577293368" font-family="calibri" font-size="6">64</text>

		<path opacity="0.75" fill="darkturquoise" d="M-99.87817203907701 27.101063259800448 L-97.37817203907701 29.266126769261547 L-97.37817203907701 33.596253788183745 L-99.87817203907701 31.43119027872264 L-99.87817203907701 27.101063259800448"/>
		<path opacity="0.75" fill="darkturquoise" d="M-127.59098496017907 35.10106325980045 L-125.09098496017907 37.26612676926155 L-125.09098496017907 41.596253788183745 L-127.59098496017907 39.43119027872264 L-127.59098496017907 35.10106325980045"/>
		<path opacity="0.75" fill="darkturquoise" d="M-99.87817203907701 27.101063259800448 L-127.59098496017907 35.10106325980045 L-127.59098496017907 39.43119027872264 L-99.87817203907701 31.43119027872264 L-99.87817203907701 27.101063259800448"/>
		<path opacity="0.75" fill="darkturquoise" d="M-97.37817203907701 29.266126769261547 L-125.09098496017907 37.26612676926155 L-125.09098496017907 41.596253788183745 L-97.37817203907701 33.596253788183745 L-97.37817203907701 29.266126769261547"/>
		<path opacity="0.75" fill="darkturquoise" d="M-99.87817203907701 27.101063259800448 L-97.37817203907701 29.266126769261547 L-125.09098496017907 37.26612676926155 L-127.59098496017907 35.10106325980045 L-99.87817203907701 27.101063259800448"/>
		<path opacity="0.75" fill="darkturquoise" d="M-99.87817203907701 31.43119027872264 L-97.37817203907701 33.596253788183745 L-125.09098496017907 41.596253788183745 L-127.59098496017907 39.43119027872264 L-99.87817203907701 31.43119027872264"/>
		<text x="-127.59098496017907" y="37.26612676926155" font-family="calibri" font-size="6">5</text>
		<text x="-126.34098496017907" y="40.51372203345319" font-family="calibri" font-size="6">5</text>
		<text x="-113.73457849962804" y="31.101063259800448" font-family="calibri" font-size="6">32</text>

		<path opacity="0.5" fill="orange" d="M-101.10665924100823 6.092967697244916 L-85.10665924100823 19.94937415779593 L-85.10665924100823 47.66218707889797 L-101.10665924100823 33.80578061834696 L-101.10665924100823 6.092967697244916"/>
		<path opacity="0.5" fill="orange" d="M-128.8194721621103 14.092967697244916 L-112.81947216211029 27.94937415779593 L-112.81947216211029 55.66218707889797 L-128.8194721621103 41.80578061834696 L-128.8194721621103 14.092967697244916"/>
		<path opacity="0.5" fill="orange" d="M-101.10665924100823 6.092967697244916 L-128.8194721621103 14.092967697244916 L-128.8194721621103 41.80578061834696 L-101.10665924100823 33.80578061834696 L-101.10665924100823 6.092967697244916"/>
		<path opacity="0.5" fill="orange" d="M-85.10665924100823 19.94937415779593 L-112.81947216211029 27.94937415779593 L-112.81947216211029 55.66218707889797 L-85.10665924100823 47.66218707889797 L-85.10665924100823 19.94937415779593"/>
		<path opacity="0.5" fill="orange" d="M-101.10665924100823 6.092967697244916 L-85.10665924100823 19.94937415779593 L-112.81947216211029 27.94937415779593 L-128.8194721621103 14.092967697244916 L-101.10665924100823 6.092967697244916"/>
		<path opacity="0.5" fill="orange" d="M-101.10665924100823 33.80578061834696 L-85.10665924100823 47.66218707889797 L-112.81947216211029 55.66218707889797 L-128.8194721621103 41.80578061834696 L-101.10665924100823 33.80578061834696"/>
		<text x="-128.8194721621103" y="27.949374157795937" font-family="calibri" font-size="6">32</text>
		<text x="-120.81947216211029" y="48.733983848622465" font-family="calibri" font-size="6">32</text>
		<text x="-114.96306570155926" y="10.092967697244916" font-family="calibri" font-size="6">32</text>

		<path opacity="0.75" fill="pink" d="M58.49634290762492 40.3541182901198 L60.99634290762492 42.5191817995809 L106.86857328314693 33.82066987861755 L58.49634290762492 40.3541182901198"/>
		<path opacity="0.75" fill="pink" d="M58.49634290762492 40.3541182901198 L58.49634290762492 44.68424530904199 L106.86857328314693 33.82066987861755 L58.49634290762492 40.3541182901198"/>
		<path opacity="0.75" fill="pink" d="M60.99634290762492 42.5191817995809 L60.99634290762492 46.84930881850309 L106.86857328314693 33.82066987861755 L60.99634290762492 42.5191817995809"/>
		<path opacity="0.75" fill="pink" d="M58.49634290762492 44.68424530904199 L60.99634290762492 46.84930881850309 L106.86857328314693 33.82066987861755 L58.49634290762492 44.68424530904199"/>

		<path opacity="0.75" fill="pink" d="M-162.4609308648333 50.60508974561639 L-157.4609308648333 54.93521676453858 L-122.34576238141136 41.235525864880714 L-162.4609308648333 50.60508974561639"/>
		<path opacity="0.75" fill="pink" d="M-162.4609308648333 50.60508974561639 L-162.4609308648333 59.26534378346078 L-122.34576238141136 41.235525864880714 L-162.4609308648333 50.60508974561639"/>
		<path opacity="0.75" fill="pink" d="M-157.4609308648333 54.93521676453858 L-157.4609308648333 63.59547080238297 L-122.34576238141136 41.235525864880714 L-157.4609308648333 54.93521676453858"/>
		<path opacity="0.75" fill="pink" d="M-162.4609308648333 59.26534378346078 L-157.4609308648333 63.59547080238297 L-122.34576238141136 41.235525864880714 L-162.4609308648333 59.26534378346078"/>

		<path opacity="0.5" fill="orange" d="M426.8105438279292 32.6749814951862 L430.8105438279292 36.139083110323966 L430.8105438279292 43.067286340599466 L426.8105438279292 39.6031847254617 L426.8105438279292 32.6749814951862"/>
		<path opacity="0.5" fill="orange" d="M371.3849179857251 48.6749814951862 L375.3849179857251 52.139083110323966 L375.3849179857251 59.067286340599466 L371.3849179857251 55.6031847254617 L371.3849179857251 48.6749814951862"/>
		<path opacity="0.5" fill="orange" d="M426.8105438279292 32.6749814951862 L371.3849179857251 48.6749814951862 L371.3849179857251 55.6031847254617 L426.8105438279292 39.6031847254617 L426.8105438279292 32.6749814951862"/>
		<path opacity="0.5" fill="orange" d="M430.8105438279292 36.139083110323966 L375.3849179857251 52.139083110323966 L375.3849179857251 59.067286340599466 L430.8105438279292 43.067286340599466 L430.8105438279292 36.139083110323966"/>
		<path opacity="0.5" fill="orange" d="M426.8105438279292 32.6749814951862 L430.8105438279292 36.139083110323966 L375.3849179857251 52.139083110323966 L371.3849179857251 48.6749814951862 L426.8105438279292 32.6749814951862"/>
		<path opacity="0.5" fill="orange" d="M426.8105438279292 39.6031847254617 L430.8105438279292 43.067286340599466 L375.3849179857251 59.067286340599466 L371.3849179857251 55.6031847254617 L426.8105438279292 39.6031847254617"/>
		<text x="371.3849179857251" y="52.13908311032395" font-family="calibri" font-size="6">8</text>
		<text x="373.3849179857251" y="57.335235533030584" font-family="calibri" font-size="6">8</text>
		<text x="399.09773090682717" y="40.6749814951862" font-family="calibri" font-size="6">64</text>

		<path opacity="0.75" fill="darkturquoise" d="M-162.4609308648333 50.60508974561639 L-157.4609308648333 54.93521676453858 L-157.4609308648333 63.59547080238297 L-162.4609308648333 59.26534378346078 L-162.4609308648333 50.60508974561639"/>
		<path opacity="0.75" fill="darkturquoise" d="M-179.7814389405221 55.60508974561639 L-174.7814389405221 59.93521676453858 L-174.7814389405221 68.59547080238298 L-179.7814389405221 64.26534378346078 L-179.7814389405221 55.60508974561639"/>
		<path opacity="0.75" fill="darkturquoise" d="M-162.4609308648333 50.60508974561639 L-179.7814389405221 55.60508974561639 L-179.7814389405221 64.26534378346078 L-162.4609308648333 59.26534378346078 L-162.4609308648333 50.60508974561639"/>
		<path opacity="0.75" fill="darkturquoise" d="M-157.4609308648333 54.93521676453858 L-174.7814389405221 59.93521676453858 L-174.7814389405221 68.59547080238298 L-157.4609308648333 63.59547080238297 L-157.4609308648333 54.93521676453858"/>
		<path opacity="0.75" fill="darkturquoise" d="M-162.4609308648333 50.60508974561639 L-157.4609308648333 54.93521676453858 L-174.7814389405221 59.93521676453858 L-179.7814389405221 55.60508974561639 L-162.4609308648333 50.60508974561639"/>
		<path opacity="0.75" fill="darkturquoise" d="M-162.4609308648333 59.26534378346078 L-157.4609308648333 63.59547080238297 L-174.7814389405221 68.59547080238298 L-179.7814389405221 64.26534378346078 L-162.4609308648333 59.26534378346078"/>
		<text x="-179.7814389405221" y="59.93521676453858" font-family="calibri" font-size="6">10</text>
		<text x="-177.2814389405221" y="66.43040729292187" font-family="calibri" font-size="6">10</text>
		<text x="-171.1211849026777" y="53.10508974561639" font-family="calibri" font-size="6">20</text>

		<path opacity="0.5" fill="orange" d="M-172.12074235133218 26.592967697244916 L-156.12074235133218 40.44937415779593 L-156.12074235133218 68.16218707889797 L-172.12074235133218 54.30578061834696 L-172.12074235133218 26.592967697244916"/>
		<path opacity="0.5" fill="orange" d="M-189.44125042702098 31.592967697244916 L-173.44125042702098 45.44937415779593 L-173.44125042702098 73.16218707889797 L-189.44125042702098 59.30578061834696 L-189.44125042702098 31.592967697244916"/>
		<path opacity="0.5" fill="orange" d="M-172.12074235133218 26.592967697244916 L-189.44125042702098 31.592967697244916 L-189.44125042702098 59.30578061834696 L-172.12074235133218 54.30578061834696 L-172.12074235133218 26.592967697244916"/>
		<path opacity="0.5" fill="orange" d="M-156.12074235133218 40.44937415779593 L-173.44125042702098 45.44937415779593 L-173.44125042702098 73.16218707889797 L-156.12074235133218 68.16218707889797 L-156.12074235133218 40.44937415779593"/>
		<path opacity="0.5" fill="orange" d="M-172.12074235133218 26.592967697244916 L-156.12074235133218 40.44937415779593 L-173.44125042702098 45.44937415779593 L-189.44125042702098 31.592967697244916 L-172.12074235133218 26.592967697244916"/>
		<path opacity="0.5" fill="orange" d="M-172.12074235133218 54.30578061834696 L-156.12074235133218 68.16218707889797 L-173.44125042702098 73.16218707889797 L-189.44125042702098 59.30578061834696 L-172.12074235133218 54.30578061834696"/>
		<text x="-189.44125042702098" y="45.44937415779594" font-family="calibri" font-size="6">32</text>
		<text x="-181.44125042702098" y="66.23398384862247" font-family="calibri" font-size="6">32</text>
		<text x="-180.78099638917658" y="29.092967697244916" font-family="calibri" font-size="6">20</text>

		<path opacity="0.75" fill="darkturquoise" d="M58.49634290762492 40.3541182901198 L60.99634290762492 42.5191817995809 L60.99634290762492 46.84930881850309 L58.49634290762492 44.68424530904199 L58.49634290762492 40.3541182901198"/>
		<path opacity="0.75" fill="darkturquoise" d="M3.0707170654208653 56.3541182901198 L5.570717065420865 58.5191817995809 L5.570717065420865 62.84930881850309 L3.0707170654208653 60.68424530904199 L3.0707170654208653 56.3541182901198"/>
		<path opacity="0.75" fill="darkturquoise" d="M58.49634290762492 40.3541182901198 L3.0707170654208653 56.3541182901198 L3.0707170654208653 60.68424530904199 L58.49634290762492 44.68424530904199 L58.49634290762492 40.3541182901198"/>
		<path opacity="0.75" fill="darkturquoise" d="M60.99634290762492 42.5191817995809 L5.570717065420865 58.5191817995809 L5.570717065420865 62.84930881850309 L60.99634290762492 46.84930881850309 L60.99634290762492 42.5191817995809"/>
		<path opacity="0.75" fill="darkturquoise" d="M58.49634290762492 40.3541182901198 L60.99634290762492 42.5191817995809 L5.570717065420865 58.5191817995809 L3.0707170654208653 56.3541182901198 L58.49634290762492 40.3541182901198"/>
		<path opacity="0.75" fill="darkturquoise" d="M58.49634290762492 44.68424530904199 L60.99634290762492 46.84930881850309 L5.570717065420865 62.84930881850309 L3.0707170654208653 60.68424530904199 L58.49634290762492 44.68424530904199"/>
		<text x="3.0707170654208653" y="58.51918179958089" font-family="calibri" font-size="6">5</text>
		<text x="4.320717065420865" y="61.76677706377254" font-family="calibri" font-size="6">5</text>
		<text x="30.783529986522893" y="48.3541182901198" font-family="calibri" font-size="6">64</text>

		<path opacity="0.5" fill="orange" d="M57.62023679041775 36.482695154586736 L65.62023679041775 43.41089838486224 L65.62023679041775 57.267304845413264 L57.62023679041775 50.33910161513776 L57.62023679041775 36.482695154586736"/>
		<path opacity="0.5" fill="orange" d="M2.1946109482136933 52.482695154586736 L10.194610948213693 59.41089838486224 L10.194610948213693 73.26730484541326 L2.1946109482136933 66.33910161513775 L2.1946109482136933 52.482695154586736"/>
		<path opacity="0.5" fill="orange" d="M57.62023679041775 36.482695154586736 L2.1946109482136933 52.482695154586736 L2.1946109482136933 66.33910161513775 L57.62023679041775 50.33910161513776 L57.62023679041775 36.482695154586736"/>
		<path opacity="0.5" fill="orange" d="M65.62023679041775 43.41089838486224 L10.194610948213693 59.41089838486224 L10.194610948213693 73.26730484541326 L65.62023679041775 57.267304845413264 L65.62023679041775 43.41089838486224"/>
		<path opacity="0.5" fill="orange" d="M57.62023679041775 36.482695154586736 L65.62023679041775 43.41089838486224 L10.194610948213693 59.41089838486224 L2.1946109482136933 52.482695154586736 L57.62023679041775 36.482695154586736"/>
		<path opacity="0.5" fill="orange" d="M57.62023679041775 50.33910161513776 L65.62023679041775 57.267304845413264 L10.194610948213693 73.26730484541326 L2.1946109482136933 66.33910161513775 L57.62023679041775 50.33910161513776"/>
		<text x="2.1946109482136933" y="59.41089838486224" font-family="calibri" font-size="6">16</text>
		<text x="6.194610948213693" y="69.8032032302755" font-family="calibri" font-size="6">16</text>
		<text x="29.90742386931572" y="44.482695154586736" font-family="calibri" font-size="6">64</text>

		<path opacity="0.75" fill="pink" d="M329.5176591083957 63.66093169553186 L332.0176591083957 65.82599520499296 L371.9410973030759 53.24462824741603 L329.5176591083957 63.66093169553186"/>
		<path opacity="0.75" fill="pink" d="M329.5176591083957 63.66093169553186 L329.5176591083957 67.99105871445406 L371.9410973030759 53.24462824741603 L329.5176591083957 63.66093169553186"/>
		<path opacity="0.75" fill="pink" d="M332.0176591083957 65.82599520499296 L332.0176591083957 70.15612222391516 L371.9410973030759 53.24462824741603 L332.0176591083957 65.82599520499296"/>
		<path opacity="0.75" fill="pink" d="M329.5176591083957 67.99105871445406 L332.0176591083957 70.15612222391516 L371.9410973030759 53.24462824741603 L329.5176591083957 67.99105871445406"/>

<!-- Arrow -->
		<path opacity="0.5" stroke="black" d="M216.3471328218438 66.87242261192856 L274.6580219542991 82.37113391789283"/>
		<circle opacity="0.5" cx="274.6580219542991" cy="82.37113391789283" r="1" fill="black" />
		<path opacity="0.75" fill="darkturquoise" d="M329.5176591083957 63.66093169553186 L332.0176591083957 65.82599520499296 L332.0176591083957 70.15612222391516 L329.5176591083957 67.99105871445406 L329.5176591083957 63.66093169553186"/>
		<path opacity="0.75" fill="darkturquoise" d="M274.0920332661916 79.66093169553186 L276.5920332661916 81.82599520499296 L276.5920332661916 86.15612222391516 L274.0920332661916 83.99105871445406 L274.0920332661916 79.66093169553186"/>
		<path opacity="0.75" fill="darkturquoise" d="M329.5176591083957 63.66093169553186 L274.0920332661916 79.66093169553186 L274.0920332661916 83.99105871445406 L329.5176591083957 67.99105871445406 L329.5176591083957 63.66093169553186"/>
		<path opacity="0.75" fill="darkturquoise" d="M332.0176591083957 65.82599520499296 L276.5920332661916 81.82599520499296 L276.5920332661916 86.15612222391516 L332.0176591083957 70.15612222391516 L332.0176591083957 65.82599520499296"/>
		<path opacity="0.75" fill="darkturquoise" d="M329.5176591083957 63.66093169553186 L332.0176591083957 65.82599520499296 L276.5920332661916 81.82599520499296 L274.0920332661916 79.66093169553186 L329.5176591083957 63.66093169553186"/>
		<path opacity="0.75" fill="darkturquoise" d="M329.5176591083957 67.99105871445406 L332.0176591083957 70.15612222391516 L276.5920332661916 86.15612222391516 L274.0920332661916 83.99105871445406 L329.5176591083957 67.99105871445406"/>
		<text x="274.0920332661916" y="81.82599520499295" font-family="calibri" font-size="6">5</text>
		<text x="275.3420332661916" y="85.07359046918461" font-family="calibri" font-size="6">5</text>
		<text x="301.80484618729366" y="71.66093169553186" font-family="calibri" font-size="6">64</text>

		<path opacity="0.5" fill="orange" d="M328.0836477965032 61.1749814951862 L332.0836477965032 64.63908311032397 L332.0836477965032 71.56728634059947 L328.0836477965032 68.1031847254617 L328.0836477965032 61.1749814951862"/>
		<path opacity="0.5" fill="orange" d="M272.6580219542991 77.1749814951862 L276.6580219542991 80.63908311032397 L276.6580219542991 87.56728634059947 L272.6580219542991 84.1031847254617 L272.6580219542991 77.1749814951862"/>
		<path opacity="0.5" fill="orange" d="M328.0836477965032 61.1749814951862 L272.6580219542991 77.1749814951862 L272.6580219542991 84.1031847254617 L328.0836477965032 68.1031847254617 L328.0836477965032 61.1749814951862"/>
		<path opacity="0.5" fill="orange" d="M332.0836477965032 64.63908311032397 L276.6580219542991 80.63908311032397 L276.6580219542991 87.56728634059947 L332.0836477965032 71.56728634059947 L332.0836477965032 64.63908311032397"/>
		<path opacity="0.5" fill="orange" d="M328.0836477965032 61.1749814951862 L332.0836477965032 64.63908311032397 L276.6580219542991 80.63908311032397 L272.6580219542991 77.1749814951862 L328.0836477965032 61.1749814951862"/>
		<path opacity="0.5" fill="orange" d="M328.0836477965032 68.1031847254617 L332.0836477965032 71.56728634059947 L276.6580219542991 87.56728634059947 L272.6580219542991 84.1031847254617 L328.0836477965032 68.1031847254617"/>
		<text x="272.6580219542991" y="80.63908311032395" font-family="calibri" font-size="6">8</text>
		<text x="274.6580219542991" y="85.83523553303058" font-family="calibri" font-size="6">8</text>
		<text x="300.37083487540116" y="69.1749814951862" font-family="calibri" font-size="6">64</text>

		<path opacity="0.5" fill="orange" d="M214.3471328218438 61.676270189221924 L218.3471328218438 65.14037180435967 L218.3471328218438 72.06857503463519 L214.3471328218438 68.60447341949744 L214.3471328218438 61.676270189221924"/>
		<path opacity="0.5" fill="orange" d="M158.9215069796397 77.67627018922192 L162.9215069796397 81.14037180435967 L162.9215069796397 88.06857503463519 L158.9215069796397 84.60447341949744 L158.9215069796397 77.67627018922192"/>
		<path opacity="0.5" fill="orange" d="M214.3471328218438 61.676270189221924 L158.9215069796397 77.67627018922192 L158.9215069796397 84.60447341949744 L214.3471328218438 68.60447341949744 L214.3471328218438 61.676270189221924"/>
		<path opacity="0.5" fill="orange" d="M218.3471328218438 65.14037180435967 L162.9215069796397 81.14037180435967 L162.9215069796397 88.06857503463519 L218.3471328218438 72.06857503463519 L218.3471328218438 65.14037180435967"/>
		<path opacity="0.5" fill="orange" d="M214.3471328218438 61.676270189221924 L218.3471328218438 65.14037180435967 L162.9215069796397 81.14037180435967 L158.9215069796397 77.67627018922192 L214.3471328218438 61.676270189221924"/>
		<path opacity="0.5" fill="orange" d="M214.3471328218438 68.60447341949744 L218.3471328218438 72.06857503463519 L162.9215069796397 88.06857503463519 L158.9215069796397 84.60447341949744 L214.3471328218438 68.60447341949744"/>
		<text x="158.9215069796397" y="81.14037180435969" font-family="calibri" font-size="6">8</text>
		<text x="160.9215069796397" y="86.33652422706632" font-family="calibri" font-size="6">8</text>
		<text x="186.63431990074173" y="69.67627018922192" font-family="calibri" font-size="6">64</text>

		<path opacity="0.75" fill="pink" d="M-32.13197576016614 81.0325541096091 L-29.631975760166114 83.1976176190702 L3.3119360431770133 55.028589353240335 L-32.13197576016614 81.0325541096091"/>
		<path opacity="0.75" fill="pink" d="M-32.13197576016614 81.0325541096091 L-32.13197576016614 85.36268112853129 L3.3119360431770133 55.028589353240335 L-32.13197576016614 81.0325541096091"/>
		<path opacity="0.75" fill="pink" d="M-29.631975760166114 83.1976176190702 L-29.631975760166114 87.52774463799238 L3.3119360431770133 55.028589353240335 L-29.631975760166114 83.1976176190702"/>
		<path opacity="0.75" fill="pink" d="M-32.13197576016614 85.36268112853129 L-29.631975760166114 87.52774463799238 L3.3119360431770133 55.028589353240335 L-32.13197576016614 85.36268112853129"/>

		<path opacity="0.75" fill="darkturquoise" d="M-32.13197576016614 81.0325541096091 L-29.631975760166114 83.1976176190702 L-29.631975760166114 87.52774463799238 L-32.13197576016614 85.36268112853129 L-32.13197576016614 81.0325541096091"/>
		<path opacity="0.75" fill="darkturquoise" d="M-59.8447886812682 89.0325541096091 L-57.3447886812682 91.1976176190702 L-57.3447886812682 95.52774463799238 L-59.8447886812682 93.36268112853129 L-59.8447886812682 89.0325541096091"/>
		<path opacity="0.75" fill="darkturquoise" d="M-32.13197576016614 81.0325541096091 L-59.8447886812682 89.0325541096091 L-59.8447886812682 93.36268112853129 L-32.13197576016614 85.36268112853129 L-32.13197576016614 81.0325541096091"/>
		<path opacity="0.75" fill="darkturquoise" d="M-29.631975760166114 83.1976176190702 L-57.3447886812682 91.1976176190702 L-57.3447886812682 95.52774463799238 L-29.631975760166114 87.52774463799238 L-29.631975760166114 83.1976176190702"/>
		<path opacity="0.75" fill="darkturquoise" d="M-32.13197576016614 81.0325541096091 L-29.631975760166114 83.1976176190702 L-57.3447886812682 91.1976176190702 L-59.8447886812682 89.0325541096091 L-32.13197576016614 81.0325541096091"/>
		<path opacity="0.75" fill="darkturquoise" d="M-32.13197576016614 85.36268112853129 L-29.631975760166114 87.52774463799238 L-57.3447886812682 95.52774463799238 L-59.8447886812682 93.36268112853129 L-32.13197576016614 85.36268112853129"/>
		<text x="-59.8447886812682" y="91.1976176190702" font-family="calibri" font-size="6">5</text>
		<text x="-58.5947886812682" y="94.44521288326183" font-family="calibri" font-size="6">5</text>
		<text x="-45.98838222071717" y="85.0325541096091" font-family="calibri" font-size="6">32</text>

		<path opacity="0.5" fill="orange" d="M-45.10665924100823 54.59039030917347 L-29.10665924100823 68.44679676972449 L-29.10665924100823 96.15960969082653 L-45.10665924100823 82.30320323027551 L-45.10665924100823 54.59039030917347"/>
		<path opacity="0.5" fill="orange" d="M-72.81947216211029 62.59039030917347 L-56.81947216211029 76.44679676972449 L-56.81947216211029 104.15960969082653 L-72.81947216211029 90.30320323027551 L-72.81947216211029 62.59039030917347"/>
		<path opacity="0.5" fill="orange" d="M-45.10665924100823 54.59039030917347 L-72.81947216211029 62.59039030917347 L-72.81947216211029 90.30320323027551 L-45.10665924100823 82.30320323027551 L-45.10665924100823 54.59039030917347"/>
		<path opacity="0.5" fill="orange" d="M-29.10665924100823 68.44679676972449 L-56.81947216211029 76.44679676972449 L-56.81947216211029 104.15960969082653 L-29.10665924100823 96.15960969082653 L-29.10665924100823 68.44679676972449"/>
		<path opacity="0.5" fill="orange" d="M-45.10665924100823 54.59039030917347 L-29.10665924100823 68.44679676972449 L-56.81947216211029 76.44679676972449 L-72.81947216211029 62.59039030917347 L-45.10665924100823 54.59039030917347"/>
		<path opacity="0.5" fill="orange" d="M-45.10665924100823 82.30320323027551 L-29.10665924100823 96.15960969082653 L-56.81947216211029 104.15960969082653 L-72.81947216211029 90.30320323027551 L-45.10665924100823 82.30320323027551"/>
		<text x="-72.81947216211029" y="76.4467967697245" font-family="calibri" font-size="6">32</text>
		<text x="-64.81947216211029" y="97.23140646055103" font-family="calibri" font-size="6">32</text>
		<text x="-58.96306570155926" y="58.59039030917347" font-family="calibri" font-size="6">32</text>

		<path opacity="0.75" fill="pink" d="M-114.54889700211032 91.06588336367415 L-109.54889700211032 95.39601038259634 L-62.54647172841038 80.90528097614046 L-114.54889700211032 91.06588336367415"/>
		<path opacity="0.75" fill="pink" d="M-114.54889700211032 91.06588336367415 L-114.54889700211032 99.72613740151854 L-62.54647172841038 80.90528097614046 L-114.54889700211032 91.06588336367415"/>
		<path opacity="0.75" fill="pink" d="M-109.54889700211032 95.39601038259634 L-109.54889700211032 104.05626442044073 L-62.54647172841038 80.90528097614046 L-109.54889700211032 95.39601038259634"/>
		<path opacity="0.75" fill="pink" d="M-114.54889700211032 99.72613740151854 L-109.54889700211032 104.05626442044073 L-62.54647172841038 80.90528097614046 L-114.54889700211032 99.72613740151854"/>

		<path opacity="0.75" fill="pink" d="M118.52872803931145 98.06282535884142 L121.02872803931145 100.22788886830253 L159.2774362425969 80.63542841728155 L118.52872803931145 98.06282535884142"/>
		<path opacity="0.75" fill="pink" d="M118.52872803931145 98.06282535884142 L118.52872803931145 102.39295237776362 L159.2774362425969 80.63542841728155 L118.52872803931145 98.06282535884142"/>
		<path opacity="0.75" fill="pink" d="M121.02872803931145 100.22788886830253 L121.02872803931145 104.55801588722471 L159.2774362425969 80.63542841728155 L121.02872803931145 100.22788886830253"/>
		<path opacity="0.75" fill="pink" d="M118.52872803931145 102.39295237776362 L121.02872803931145 104.55801588722471 L159.2774362425969 80.63542841728155 L118.52872803931145 102.39295237776362"/>

		<path opacity="0.75" fill="darkturquoise" d="M-114.54889700211032 91.06588336367415 L-109.54889700211032 95.39601038259634 L-109.54889700211032 104.05626442044073 L-114.54889700211032 99.72613740151854 L-114.54889700211032 91.06588336367415"/>
		<path opacity="0.75" fill="darkturquoise" d="M-131.86940507779912 96.06588336367415 L-126.86940507779912 100.39601038259634 L-126.86940507779912 109.05626442044073 L-131.86940507779912 104.72613740151854 L-131.86940507779912 96.06588336367415"/>
		<path opacity="0.75" fill="darkturquoise" d="M-114.54889700211032 91.06588336367415 L-131.86940507779912 96.06588336367415 L-131.86940507779912 104.72613740151854 L-114.54889700211032 99.72613740151854 L-114.54889700211032 91.06588336367415"/>
		<path opacity="0.75" fill="darkturquoise" d="M-109.54889700211032 95.39601038259634 L-126.86940507779912 100.39601038259634 L-126.86940507779912 109.05626442044073 L-109.54889700211032 104.05626442044073 L-109.54889700211032 95.39601038259634"/>
		<path opacity="0.75" fill="darkturquoise" d="M-114.54889700211032 91.06588336367415 L-109.54889700211032 95.39601038259634 L-126.86940507779912 100.39601038259634 L-131.86940507779912 96.06588336367415 L-114.54889700211032 91.06588336367415"/>
		<path opacity="0.75" fill="darkturquoise" d="M-114.54889700211032 99.72613740151854 L-109.54889700211032 104.05626442044073 L-126.86940507779912 109.05626442044073 L-131.86940507779912 104.72613740151854 L-114.54889700211032 99.72613740151854"/>
		<text x="-131.86940507779912" y="100.39601038259634" font-family="calibri" font-size="6">10</text>
		<text x="-129.36940507779912" y="106.89120091097963" font-family="calibri" font-size="6">10</text>
		<text x="-123.20915103995472" y="93.56588336367415" font-family="calibri" font-size="6">20</text>

		<path opacity="0.5" fill="orange" d="M-116.12074235133218 75.09039030917347 L-100.12074235133218 88.94679676972449 L-100.12074235133218 116.65960969082653 L-116.12074235133218 102.80320323027551 L-116.12074235133218 75.09039030917347"/>
		<path opacity="0.5" fill="orange" d="M-133.44125042702098 80.09039030917347 L-117.44125042702098 93.94679676972449 L-117.44125042702098 121.65960969082653 L-133.44125042702098 107.80320323027551 L-133.44125042702098 80.09039030917347"/>
		<path opacity="0.5" fill="orange" d="M-116.12074235133218 75.09039030917347 L-133.44125042702098 80.09039030917347 L-133.44125042702098 107.80320323027551 L-116.12074235133218 102.80320323027551 L-116.12074235133218 75.09039030917347"/>
		<path opacity="0.5" fill="orange" d="M-100.12074235133218 88.94679676972449 L-117.44125042702098 93.94679676972449 L-117.44125042702098 121.65960969082653 L-100.12074235133218 116.65960969082653 L-100.12074235133218 88.94679676972449"/>
		<path opacity="0.5" fill="orange" d="M-116.12074235133218 75.09039030917347 L-100.12074235133218 88.94679676972449 L-117.44125042702098 93.94679676972449 L-133.44125042702098 80.09039030917347 L-116.12074235133218 75.09039030917347"/>
		<path opacity="0.5" fill="orange" d="M-116.12074235133218 102.80320323027551 L-100.12074235133218 116.65960969082653 L-117.44125042702098 121.65960969082653 L-133.44125042702098 107.80320323027551 L-116.12074235133218 102.80320323027551"/>
		<text x="-133.44125042702098" y="93.9467967697245" font-family="calibri" font-size="6">32</text>
		<text x="-125.44125042702098" y="114.73140646055103" font-family="calibri" font-size="6">32</text>
		<text x="-124.78099638917658" y="77.59039030917347" font-family="calibri" font-size="6">20</text>

<!-- Arrow -->
		<path opacity="0.5" stroke="black" d="M272.3471328218438 115.36984522385711 L274.6580219542991 82.37113391789283"/>
		<circle opacity="0.5" cx="274.6580219542991" cy="82.37113391789283" r="1" fill="black" />
		<path opacity="0.75" fill="darkturquoise" d="M118.52872803931145 98.06282535884142 L121.02872803931145 100.22788886830253 L121.02872803931145 104.55801588722471 L118.52872803931145 102.39295237776362 L118.52872803931145 98.06282535884142"/>
		<path opacity="0.75" fill="darkturquoise" d="M63.103102197107376 114.06282535884142 L65.60310219710738 116.22788886830253 L65.60310219710738 120.55801588722471 L63.103102197107376 118.39295237776362 L63.103102197107376 114.06282535884142"/>
		<path opacity="0.75" fill="darkturquoise" d="M118.52872803931145 98.06282535884142 L63.103102197107376 114.06282535884142 L63.103102197107376 118.39295237776362 L118.52872803931145 102.39295237776362 L118.52872803931145 98.06282535884142"/>
		<path opacity="0.75" fill="darkturquoise" d="M121.02872803931145 100.22788886830253 L65.60310219710738 116.22788886830253 L65.60310219710738 120.55801588722471 L121.02872803931145 104.55801588722471 L121.02872803931145 100.22788886830253"/>
		<path opacity="0.75" fill="darkturquoise" d="M118.52872803931145 98.06282535884142 L121.02872803931145 100.22788886830253 L65.60310219710738 116.22788886830253 L63.103102197107376 114.06282535884142 L118.52872803931145 98.06282535884142"/>
		<path opacity="0.75" fill="darkturquoise" d="M118.52872803931145 102.39295237776362 L121.02872803931145 104.55801588722471 L65.60310219710738 120.55801588722471 L63.103102197107376 118.39295237776362 L118.52872803931145 102.39295237776362"/>
		<text x="63.103102197107376" y="116.22788886830253" font-family="calibri" font-size="6">5</text>
		<text x="64.35310219710738" y="119.47548413249416" font-family="calibri" font-size="6">5</text>
		<text x="90.8159151182094" y="106.06282535884142" font-family="calibri" font-size="6">64</text>

		<path opacity="0.5" fill="orange" d="M113.62023679041776 84.98011776651529 L121.62023679041776 91.90832099679079 L121.62023679041776 105.76472745734182 L113.62023679041776 98.8365242270663 L113.62023679041776 84.98011776651529"/>
		<path opacity="0.5" fill="orange" d="M58.19461094821372 100.98011776651529 L66.19461094821372 107.90832099679079 L66.19461094821372 121.76472745734182 L58.19461094821372 114.8365242270663 L58.19461094821372 100.98011776651529"/>
		<path opacity="0.5" fill="orange" d="M113.62023679041776 84.98011776651529 L58.19461094821372 100.98011776651529 L58.19461094821372 114.8365242270663 L113.62023679041776 98.8365242270663 L113.62023679041776 84.98011776651529"/>
		<path opacity="0.5" fill="orange" d="M121.62023679041776 91.90832099679079 L66.19461094821372 107.90832099679079 L66.19461094821372 121.76472745734182 L121.62023679041776 105.76472745734182 L121.62023679041776 91.90832099679079"/>
		<path opacity="0.5" fill="orange" d="M113.62023679041776 84.98011776651529 L121.62023679041776 91.90832099679079 L66.19461094821372 107.90832099679079 L58.19461094821372 100.98011776651529 L113.62023679041776 84.98011776651529"/>
		<path opacity="0.5" fill="orange" d="M113.62023679041776 98.8365242270663 L121.62023679041776 105.76472745734182 L66.19461094821372 121.76472745734182 L58.19461094821372 114.8365242270663 L113.62023679041776 98.8365242270663"/>
		<text x="58.19461094821372" y="107.90832099679079" font-family="calibri" font-size="6">16</text>
		<text x="62.19461094821372" y="118.30062584220406" font-family="calibri" font-size="6">16</text>
		<text x="85.90742386931575" y="92.98011776651529" font-family="calibri" font-size="6">64</text>

		<path opacity="0.75" fill="pink" d="M15.278981674113822 127.18215042114466 L17.778981674113822 129.34721393060576 L61.31870527047505 111.28100838582895 L15.278981674113822 127.18215042114466"/>
		<path opacity="0.75" fill="pink" d="M15.278981674113822 127.18215042114466 L15.278981674113822 131.51227744006684 L61.31870527047505 111.28100838582895 L15.278981674113822 127.18215042114466"/>
		<path opacity="0.75" fill="pink" d="M17.778981674113822 129.34721393060576 L17.778981674113822 133.67734094952795 L61.31870527047505 111.28100838582895 L17.778981674113822 129.34721393060576"/>
		<path opacity="0.75" fill="pink" d="M15.278981674113822 131.51227744006684 L17.778981674113822 133.67734094952795 L61.31870527047505 111.28100838582895 L15.278981674113822 131.51227744006684"/>

		<path opacity="0.5" fill="orange" d="M270.3471328218438 110.17369280115048 L274.3471328218438 113.63779441628824 L274.3471328218438 120.56599764656374 L270.3471328218438 117.10189603142598 L270.3471328218438 110.17369280115048"/>
		<path opacity="0.5" fill="orange" d="M214.92150697963973 126.17369280115048 L218.92150697963973 129.63779441628824 L218.92150697963973 136.56599764656374 L214.92150697963973 133.10189603142598 L214.92150697963973 126.17369280115048"/>
		<path opacity="0.5" fill="orange" d="M270.3471328218438 110.17369280115048 L214.92150697963973 126.17369280115048 L214.92150697963973 133.10189603142598 L270.3471328218438 117.10189603142598 L270.3471328218438 110.17369280115048"/>
		<path opacity="0.5" fill="orange" d="M274.3471328218438 113.63779441628824 L218.92150697963973 129.63779441628824 L218.92150697963973 136.56599764656374 L274.3471328218438 120.56599764656374 L274.3471328218438 113.63779441628824"/>
		<path opacity="0.5" fill="orange" d="M270.3471328218438 110.17369280115048 L274.3471328218438 113.63779441628824 L218.92150697963973 129.63779441628824 L214.92150697963973 126.17369280115048 L270.3471328218438 110.17369280115048"/>
		<path opacity="0.5" fill="orange" d="M270.3471328218438 117.10189603142598 L274.3471328218438 120.56599764656374 L218.92150697963973 136.56599764656374 L214.92150697963973 133.10189603142598 L270.3471328218438 117.10189603142598"/>
		<text x="214.92150697963973" y="129.63779441628822" font-family="calibri" font-size="6">8</text>
		<text x="216.92150697963973" y="134.83394683899485" font-family="calibri" font-size="6">8</text>
		<text x="242.63431990074176" y="118.17369280115048" font-family="calibri" font-size="6">64</text>

		<path opacity="0.75" fill="darkturquoise" d="M15.278981674113822 127.18215042114466 L17.778981674113822 129.34721393060576 L17.778981674113822 133.67734094952795 L15.278981674113822 131.51227744006684 L15.278981674113822 127.18215042114466"/>
		<path opacity="0.75" fill="darkturquoise" d="M-12.433831246988234 135.18215042114466 L-9.933831246988234 137.34721393060576 L-9.933831246988234 141.67734094952795 L-12.433831246988234 139.51227744006684 L-12.433831246988234 135.18215042114466"/>
		<path opacity="0.75" fill="darkturquoise" d="M15.278981674113822 127.18215042114466 L-12.433831246988234 135.18215042114466 L-12.433831246988234 139.51227744006684 L15.278981674113822 131.51227744006684 L15.278981674113822 127.18215042114466"/>
		<path opacity="0.75" fill="darkturquoise" d="M17.778981674113822 129.34721393060576 L-9.933831246988234 137.34721393060576 L-9.933831246988234 141.67734094952795 L17.778981674113822 133.67734094952795 L17.778981674113822 129.34721393060576"/>
		<path opacity="0.75" fill="darkturquoise" d="M15.278981674113822 127.18215042114466 L17.778981674113822 129.34721393060576 L-9.933831246988234 137.34721393060576 L-12.433831246988234 135.18215042114466 L15.278981674113822 127.18215042114466"/>
		<path opacity="0.75" fill="darkturquoise" d="M15.278981674113822 131.51227744006684 L17.778981674113822 133.67734094952795 L-9.933831246988234 141.67734094952795 L-12.433831246988234 139.51227744006684 L15.278981674113822 131.51227744006684"/>
		<text x="-12.433831246988234" y="137.34721393060573" font-family="calibri" font-size="6">5</text>
		<text x="-11.183831246988234" y="140.5948091947974" font-family="calibri" font-size="6">5</text>
		<text x="1.4225752135627943" y="131.18215042114466" font-family="calibri" font-size="6">32</text>

		<path opacity="0.5" fill="orange" d="M10.89334075899177 103.08781292110203 L26.89334075899177 116.94421938165304 L26.89334075899177 144.65703230275508 L10.89334075899177 130.80062584220406 L10.89334075899177 103.08781292110203"/>
		<path opacity="0.5" fill="orange" d="M-16.819472162110287 111.08781292110203 L-0.8194721621102872 124.94421938165304 L-0.8194721621102872 152.65703230275508 L-16.819472162110287 138.80062584220406 L-16.819472162110287 111.08781292110203"/>
		<path opacity="0.5" fill="orange" d="M10.89334075899177 103.08781292110203 L-16.819472162110287 111.08781292110203 L-16.819472162110287 138.80062584220406 L10.89334075899177 130.80062584220406 L10.89334075899177 103.08781292110203"/>
		<path opacity="0.5" fill="orange" d="M26.89334075899177 116.94421938165304 L-0.8194721621102872 124.94421938165304 L-0.8194721621102872 152.65703230275508 L26.89334075899177 144.65703230275508 L26.89334075899177 116.94421938165304"/>
		<path opacity="0.5" fill="orange" d="M10.89334075899177 103.08781292110203 L26.89334075899177 116.94421938165304 L-0.8194721621102872 124.94421938165304 L-16.819472162110287 111.08781292110203 L10.89334075899177 103.08781292110203"/>
		<path opacity="0.5" fill="orange" d="M10.89334075899177 130.80062584220406 L26.89334075899177 144.65703230275508 L-0.8194721621102872 152.65703230275508 L-16.819472162110287 138.80062584220406 L10.89334075899177 130.80062584220406"/>
		<text x="-16.819472162110287" y="124.94421938165304" font-family="calibri" font-size="6">32</text>
		<text x="-8.819472162110287" y="145.72882907247958" font-family="calibri" font-size="6">32</text>
		<text x="-2.963065701559259" y="107.08781292110203" font-family="calibri" font-size="6">32</text>

		<path opacity="0.75" fill="pink" d="M-57.17403628321364 135.25567791669826 L-52.17403628321364 139.58580493562044 L-13.245676769641875 119.247049396504 L-57.17403628321364 135.25567791669826"/>
		<path opacity="0.75" fill="pink" d="M-57.17403628321364 135.25567791669826 L-57.17403628321364 143.91593195454263 L-13.245676769641875 119.247049396504 L-57.17403628321364 135.25567791669826"/>
		<path opacity="0.75" fill="pink" d="M-52.17403628321364 139.58580493562044 L-52.17403628321364 148.2460589734648 L-13.245676769641875 119.247049396504 L-52.17403628321364 139.58580493562044"/>
		<path opacity="0.75" fill="pink" d="M-57.17403628321364 143.91593195454263 L-52.17403628321364 148.2460589734648 L-13.245676769641875 119.247049396504 L-57.17403628321364 143.91593195454263"/>

		<path opacity="0.75" fill="pink" d="M174.17638790948928 137.70349020156345 L176.67638790948928 139.86855371102453 L217.90648804553007 129.29739119728544 L174.17638790948928 137.70349020156345"/>
		<path opacity="0.75" fill="pink" d="M174.17638790948928 137.70349020156345 L174.17638790948928 142.0336172204856 L217.90648804553007 129.29739119728544 L174.17638790948928 137.70349020156345"/>
		<path opacity="0.75" fill="pink" d="M176.67638790948928 139.86855371102453 L176.67638790948928 144.19868072994672 L217.90648804553007 129.29739119728544 L176.67638790948928 139.86855371102453"/>
		<path opacity="0.75" fill="pink" d="M174.17638790948928 142.0336172204856 L176.67638790948928 144.19868072994672 L217.90648804553007 129.29739119728544 L174.17638790948928 142.0336172204856"/>

		<path opacity="0.75" fill="darkturquoise" d="M-57.17403628321364 135.25567791669826 L-52.17403628321364 139.58580493562044 L-52.17403628321364 148.2460589734648 L-57.17403628321364 143.91593195454263 L-57.17403628321364 135.25567791669826"/>
		<path opacity="0.75" fill="darkturquoise" d="M-74.49454435890243 140.25567791669826 L-69.49454435890243 144.58580493562044 L-69.49454435890243 153.2460589734648 L-74.49454435890243 148.91593195454263 L-74.49454435890243 140.25567791669826"/>
		<path opacity="0.75" fill="darkturquoise" d="M-57.17403628321364 135.25567791669826 L-74.49454435890243 140.25567791669826 L-74.49454435890243 148.91593195454263 L-57.17403628321364 143.91593195454263 L-57.17403628321364 135.25567791669826"/>
		<path opacity="0.75" fill="darkturquoise" d="M-52.17403628321364 139.58580493562044 L-69.49454435890243 144.58580493562044 L-69.49454435890243 153.2460589734648 L-52.17403628321364 148.2460589734648 L-52.17403628321364 139.58580493562044"/>
		<path opacity="0.75" fill="darkturquoise" d="M-57.17403628321364 135.25567791669826 L-52.17403628321364 139.58580493562044 L-69.49454435890243 144.58580493562044 L-74.49454435890243 140.25567791669826 L-57.17403628321364 135.25567791669826"/>
		<path opacity="0.75" fill="darkturquoise" d="M-57.17403628321364 143.91593195454263 L-52.17403628321364 148.2460589734648 L-69.49454435890243 153.2460589734648 L-74.49454435890243 148.91593195454263 L-57.17403628321364 143.91593195454263"/>
		<text x="-74.49454435890243" y="144.58580493562044" font-family="calibri" font-size="6">10</text>
		<text x="-71.99454435890243" y="151.0809954640037" font-family="calibri" font-size="6">10</text>
		<text x="-65.83429032105803" y="137.75567791669826" font-family="calibri" font-size="6">20</text>

		<path opacity="0.5" fill="orange" d="M-60.12074235133218 123.58781292110203 L-44.12074235133218 137.44421938165306 L-44.12074235133218 165.15703230275508 L-60.12074235133218 151.30062584220406 L-60.12074235133218 123.58781292110203"/>
		<path opacity="0.5" fill="orange" d="M-77.44125042702098 128.58781292110203 L-61.441250427020975 142.44421938165306 L-61.441250427020975 170.15703230275508 L-77.44125042702098 156.30062584220406 L-77.44125042702098 128.58781292110203"/>
		<path opacity="0.5" fill="orange" d="M-60.12074235133218 123.58781292110203 L-77.44125042702098 128.58781292110203 L-77.44125042702098 156.30062584220406 L-60.12074235133218 151.30062584220406 L-60.12074235133218 123.58781292110203"/>
		<path opacity="0.5" fill="orange" d="M-44.12074235133218 137.44421938165306 L-61.441250427020975 142.44421938165306 L-61.441250427020975 170.15703230275508 L-44.12074235133218 165.15703230275508 L-44.12074235133218 137.44421938165306"/>
		<path opacity="0.5" fill="orange" d="M-60.12074235133218 123.58781292110203 L-44.12074235133218 137.44421938165306 L-61.441250427020975 142.44421938165306 L-77.44125042702098 128.58781292110203 L-60.12074235133218 123.58781292110203"/>
		<path opacity="0.5" fill="orange" d="M-60.12074235133218 151.30062584220406 L-44.12074235133218 165.15703230275508 L-61.441250427020975 170.15703230275508 L-77.44125042702098 156.30062584220406 L-60.12074235133218 151.30062584220406"/>
		<text x="-77.44125042702098" y="142.44421938165306" font-family="calibri" font-size="6">32</text>
		<text x="-69.44125042702098" y="163.22882907247958" font-family="calibri" font-size="6">32</text>
		<text x="-68.78099638917658" y="126.08781292110203" font-family="calibri" font-size="6">20</text>

		<path opacity="0.75" fill="darkturquoise" d="M174.17638790948928 137.70349020156345 L176.67638790948928 139.86855371102453 L176.67638790948928 144.19868072994672 L174.17638790948928 142.0336172204856 L174.17638790948928 137.70349020156345"/>
		<path opacity="0.75" fill="darkturquoise" d="M118.75076206728522 153.70349020156345 L121.25076206728522 155.86855371102453 L121.25076206728522 160.19868072994672 L118.75076206728522 158.0336172204856 L118.75076206728522 153.70349020156345"/>
		<path opacity="0.75" fill="darkturquoise" d="M174.17638790948928 137.70349020156345 L118.75076206728522 153.70349020156345 L118.75076206728522 158.0336172204856 L174.17638790948928 142.0336172204856 L174.17638790948928 137.70349020156345"/>
		<path opacity="0.75" fill="darkturquoise" d="M176.67638790948928 139.86855371102453 L121.25076206728522 155.86855371102453 L121.25076206728522 160.19868072994672 L176.67638790948928 144.19868072994672 L176.67638790948928 139.86855371102453"/>
		<path opacity="0.75" fill="darkturquoise" d="M174.17638790948928 137.70349020156345 L176.67638790948928 139.86855371102453 L121.25076206728522 155.86855371102453 L118.75076206728522 153.70349020156345 L174.17638790948928 137.70349020156345"/>
		<path opacity="0.75" fill="darkturquoise" d="M174.17638790948928 142.0336172204856 L176.67638790948928 144.19868072994672 L121.25076206728522 160.19868072994672 L118.75076206728522 158.0336172204856 L174.17638790948928 142.0336172204856"/>
		<text x="118.75076206728522" y="155.86855371102453" font-family="calibri" font-size="6">5</text>
		<text x="120.00076206728522" y="159.11614897521616" font-family="calibri" font-size="6">5</text>
		<text x="146.46357498838725" y="145.70349020156345" font-family="calibri" font-size="6">64</text>

		<path opacity="0.5" fill="orange" d="M169.62023679041778 133.47754037844385 L177.62023679041778 140.40574360871935 L177.62023679041778 154.26215006927038 L169.62023679041778 147.33394683899488 L169.62023679041778 133.47754037844385"/>
		<path opacity="0.5" fill="orange" d="M114.19461094821372 149.47754037844385 L122.19461094821372 156.40574360871935 L122.19461094821372 170.26215006927038 L114.19461094821372 163.33394683899488 L114.19461094821372 149.47754037844385"/>
		<path opacity="0.5" fill="orange" d="M169.62023679041778 133.47754037844385 L114.19461094821372 149.47754037844385 L114.19461094821372 163.33394683899488 L169.62023679041778 147.33394683899488 L169.62023679041778 133.47754037844385"/>
		<path opacity="0.5" fill="orange" d="M177.62023679041778 140.40574360871935 L122.19461094821372 156.40574360871935 L122.19461094821372 170.26215006927038 L177.62023679041778 154.26215006927038 L177.62023679041778 140.40574360871935"/>
		<path opacity="0.5" fill="orange" d="M169.62023679041778 133.47754037844385 L177.62023679041778 140.40574360871935 L122.19461094821372 156.40574360871935 L114.19461094821372 149.47754037844385 L169.62023679041778 133.47754037844385"/>
		<path opacity="0.5" fill="orange" d="M169.62023679041778 147.33394683899488 L177.62023679041778 154.26215006927038 L122.19461094821372 170.26215006927038 L114.19461094821372 163.33394683899488 L169.62023679041778 147.33394683899488"/>
		<text x="114.19461094821372" y="156.40574360871938" font-family="calibri" font-size="6">16</text>
		<text x="118.19461094821372" y="166.79804845413264" font-family="calibri" font-size="6">16</text>
		<text x="141.90742386931575" y="141.47754037844385" font-family="calibri" font-size="6">64</text>

		<path opacity="0.75" fill="pink" d="M69.08471696346425 158.31910925316984 L71.58471696346425 160.48417276263092 L115.25777605711133 152.01159948914 L69.08471696346425 158.31910925316984"/>
		<path opacity="0.75" fill="pink" d="M69.08471696346425 158.31910925316984 L69.08471696346425 162.64923627209203 L115.25777605711133 152.01159948914 L69.08471696346425 158.31910925316984"/>
		<path opacity="0.75" fill="pink" d="M71.58471696346425 160.48417276263092 L71.58471696346425 164.81429978155313 L115.25777605711133 152.01159948914 L71.58471696346425 160.48417276263092"/>
		<path opacity="0.75" fill="pink" d="M69.08471696346425 162.64923627209203 L71.58471696346425 164.81429978155313 L115.25777605711133 152.01159948914 L69.08471696346425 162.64923627209203"/>

		<path opacity="0.75" fill="darkturquoise" d="M69.08471696346425 158.31910925316984 L71.58471696346425 160.48417276263092 L71.58471696346425 164.81429978155313 L69.08471696346425 162.64923627209203 L69.08471696346425 158.31910925316984"/>
		<path opacity="0.75" fill="darkturquoise" d="M41.37190404236219 166.31910925316984 L43.87190404236219 168.48417276263092 L43.87190404236219 172.81429978155313 L41.37190404236219 170.64923627209203 L41.37190404236219 166.31910925316984"/>
		<path opacity="0.75" fill="darkturquoise" d="M69.08471696346425 158.31910925316984 L41.37190404236219 166.31910925316984 L41.37190404236219 170.64923627209203 L69.08471696346425 162.64923627209203 L69.08471696346425 158.31910925316984"/>
		<path opacity="0.75" fill="darkturquoise" d="M71.58471696346425 160.48417276263092 L43.87190404236219 168.48417276263092 L43.87190404236219 172.81429978155313 L71.58471696346425 164.81429978155313 L71.58471696346425 160.48417276263092"/>
		<path opacity="0.75" fill="darkturquoise" d="M69.08471696346425 158.31910925316984 L71.58471696346425 160.48417276263092 L43.87190404236219 168.48417276263092 L41.37190404236219 166.31910925316984 L69.08471696346425 158.31910925316984"/>
		<path opacity="0.75" fill="darkturquoise" d="M69.08471696346425 162.64923627209203 L71.58471696346425 164.81429978155313 L43.87190404236219 172.81429978155313 L41.37190404236219 170.64923627209203 L69.08471696346425 162.64923627209203"/>
		<text x="41.37190404236219" y="168.48417276263092" font-family="calibri" font-size="6">5</text>
		<text x="42.62190404236219" y="171.73176802682258" font-family="calibri" font-size="6">5</text>
		<text x="55.22831050291322" y="162.31910925316984" font-family="calibri" font-size="6">32</text>

		<path opacity="0.5" fill="orange" d="M66.8933407589918 151.58523553303058 L82.8933407589918 165.44164199358158 L82.8933407589918 193.15445491468364 L66.8933407589918 179.2980484541326 L66.8933407589918 151.58523553303058"/>
		<path opacity="0.5" fill="orange" d="M39.18052783788974 159.58523553303058 L55.18052783788974 173.44164199358158 L55.18052783788974 201.15445491468364 L39.18052783788974 187.2980484541326 L39.18052783788974 159.58523553303058"/>
		<path opacity="0.5" fill="orange" d="M66.8933407589918 151.58523553303058 L39.18052783788974 159.58523553303058 L39.18052783788974 187.2980484541326 L66.8933407589918 179.2980484541326 L66.8933407589918 151.58523553303058"/>
		<path opacity="0.5" fill="orange" d="M82.8933407589918 165.44164199358158 L55.18052783788974 173.44164199358158 L55.18052783788974 201.15445491468364 L82.8933407589918 193.15445491468364 L82.8933407589918 165.44164199358158"/>
		<path opacity="0.5" fill="orange" d="M66.8933407589918 151.58523553303058 L82.8933407589918 165.44164199358158 L55.18052783788974 173.44164199358158 L39.18052783788974 159.58523553303058 L66.8933407589918 151.58523553303058"/>
		<path opacity="0.5" fill="orange" d="M66.8933407589918 179.2980484541326 L82.8933407589918 193.15445491468364 L55.18052783788974 201.15445491468364 L39.18052783788974 187.2980484541326 L66.8933407589918 179.2980484541326"/>
		<text x="39.18052783788974" y="173.44164199358158" font-family="calibri" font-size="6">32</text>
		<text x="47.18052783788974" y="194.2262516844081" font-family="calibri" font-size="6">32</text>
		<text x="53.03693429844077" y="155.58523553303058" font-family="calibri" font-size="6">32</text>

		<path opacity="0.75" fill="pink" d="M5.6302877049125755 199.33041257629606 L10.630287704912575 203.66053959521827 L50.84655189124993 194.6507504725932 L5.6302877049125755 199.33041257629606"/>
		<path opacity="0.75" fill="pink" d="M5.6302877049125755 199.33041257629606 L5.6302877049125755 207.99066661414045 L50.84655189124993 194.6507504725932 L5.6302877049125755 199.33041257629606"/>
		<path opacity="0.75" fill="pink" d="M10.630287704912575 203.66053959521827 L10.630287704912575 212.32079363306264 L50.84655189124993 194.6507504725932 L10.630287704912575 203.66053959521827"/>
		<path opacity="0.75" fill="pink" d="M5.6302877049125755 207.99066661414045 L10.630287704912575 212.32079363306264 L50.84655189124993 194.6507504725932 L5.6302877049125755 207.99066661414045"/>

		<path opacity="0.75" fill="darkturquoise" d="M5.6302877049125755 199.33041257629606 L10.630287704912575 203.66053959521827 L10.630287704912575 212.32079363306264 L5.6302877049125755 207.99066661414045 L5.6302877049125755 199.33041257629606"/>
		<path opacity="0.75" fill="darkturquoise" d="M-11.690220370776217 204.33041257629606 L-6.690220370776217 208.66053959521827 L-6.690220370776217 217.32079363306264 L-11.690220370776217 212.99066661414045 L-11.690220370776217 204.33041257629606"/>
		<path opacity="0.75" fill="darkturquoise" d="M5.6302877049125755 199.33041257629606 L-11.690220370776217 204.33041257629606 L-11.690220370776217 212.99066661414045 L5.6302877049125755 207.99066661414045 L5.6302877049125755 199.33041257629606"/>
		<path opacity="0.75" fill="darkturquoise" d="M10.630287704912575 203.66053959521827 L-6.690220370776217 208.66053959521827 L-6.690220370776217 217.32079363306264 L10.630287704912575 212.32079363306264 L10.630287704912575 203.66053959521827"/>
		<path opacity="0.75" fill="darkturquoise" d="M5.6302877049125755 199.33041257629606 L10.630287704912575 203.66053959521827 L-6.690220370776217 208.66053959521827 L-11.690220370776217 204.33041257629606 L5.6302877049125755 199.33041257629606"/>
		<path opacity="0.75" fill="darkturquoise" d="M5.6302877049125755 207.99066661414045 L10.630287704912575 212.32079363306264 L-6.690220370776217 217.32079363306264 L-11.690220370776217 212.99066661414045 L5.6302877049125755 207.99066661414045"/>
		<text x="-11.690220370776217" y="208.66053959521827" font-family="calibri" font-size="6">10</text>
		<text x="-9.190220370776217" y="215.15573012360153" font-family="calibri" font-size="6">10</text>
		<text x="-3.0299663329318207" y="201.83041257629606" font-family="calibri" font-size="6">20</text>

		<path opacity="0.5" fill="orange" d="M-4.120742351332154 172.08523553303058 L11.879257648667846 185.94164199358158 L11.879257648667846 213.65445491468364 L-4.120742351332154 199.7980484541326 L-4.120742351332154 172.08523553303058"/>
		<path opacity="0.5" fill="orange" d="M-21.441250427020947 177.08523553303058 L-5.441250427020947 190.94164199358158 L-5.441250427020947 218.65445491468364 L-21.441250427020947 204.7980484541326 L-21.441250427020947 177.08523553303058"/>
		<path opacity="0.5" fill="orange" d="M-4.120742351332154 172.08523553303058 L-21.441250427020947 177.08523553303058 L-21.441250427020947 204.7980484541326 L-4.120742351332154 199.7980484541326 L-4.120742351332154 172.08523553303058"/>
		<path opacity="0.5" fill="orange" d="M11.879257648667846 185.94164199358158 L-5.441250427020947 190.94164199358158 L-5.441250427020947 218.65445491468364 L11.879257648667846 213.65445491468364 L11.879257648667846 185.94164199358158"/>
		<path opacity="0.5" fill="orange" d="M-4.120742351332154 172.08523553303058 L11.879257648667846 185.94164199358158 L-5.441250427020947 190.94164199358158 L-21.441250427020947 177.08523553303058 L-4.120742351332154 172.08523553303058"/>
		<path opacity="0.5" fill="orange" d="M-4.120742351332154 199.7980484541326 L11.879257648667846 213.65445491468364 L-5.441250427020947 218.65445491468364 L-21.441250427020947 204.7980484541326 L-4.120742351332154 199.7980484541326"/>
		<text x="-21.441250427020947" y="190.94164199358158" font-family="calibri" font-size="6">32</text>
		<text x="-13.441250427020947" y="211.7262516844081" font-family="calibri" font-size="6">32</text>
		<text x="-12.78099638917655" y="174.58523553303058" font-family="calibri" font-size="6">20</text>

	 </g>
</svg>