<svg width="549.4024293495611px" height="445.8428289111416px" viewBox="-226.9512146747806 -295.6714144555708 549.4024293495611 445.8428289111416" xmlns="http://www.w3.org/2000/svg">
	<g stroke="black" stroke-width="0.3">

		<path opacity="0.75" fill="darkturquoise" d="M317.45121467478054 -289.6714144555708 L322.45121467478054 -285.3412874366486 L322.45121467478054 147.67141445557078 L317.45121467478054 143.34128743664857 L317.45121467478054 -289.6714144555708"/>
		<path opacity="0.75" fill="darkturquoise" d="M308.7909606369362 -287.1714144555708 L313.7909606369362 -282.8412874366486 L313.7909606369362 150.17141445557078 L308.7909606369362 145.84128743664857 L308.7909606369362 -287.1714144555708"/>
		<path opacity="0.75" fill="darkturquoise" d="M317.45121467478054 -289.6714144555708 L308.7909606369362 -287.1714144555708 L308.7909606369362 145.84128743664857 L317.45121467478054 143.34128743664857 L317.45121467478054 -289.6714144555708"/>
		<path opacity="0.75" fill="darkturquoise" d="M322.45121467478054 -285.3412874366486 L313.7909606369362 -282.8412874366486 L313.7909606369362 150.17141445557078 L322.45121467478054 147.67141445557078 L322.45121467478054 -285.3412874366486"/>
		<path opacity="0.75" fill="darkturquoise" d="M317.45121467478054 -289.6714144555708 L322.45121467478054 -285.3412874366486 L313.7909606369362 -282.8412874366486 L308.7909606369362 -287.1714144555708 L317.45121467478054 -289.6714144555708"/>
		<path opacity="0.75" fill="darkturquoise" d="M317.45121467478054 143.34128743664857 L322.45121467478054 147.67141445557078 L313.7909606369362 150.17141445557078 L308.7909606369362 145.84128743664857 L317.45121467478054 143.34128743664857"/>
		<text style="fill:black;font-family:calibri;font-size:6" x="308.7909606369362" y="-70.66506350946112" >500</text>
		<text style="fill:black;font-family:calibri;font-size:6" x="311.2909606369362" y="148.00635094610968" >10</text>
		<text style="fill:black;font-family:calibri;font-size:6" x="313.12108765585833" y="-288.4214144555708" >10</text>

<!-- Arrow -->
		<path opacity="0.5" stroke="black" d="M267.9896904477142 -56.0 L311.2909606369362 -68.5"/>
		<circle opacity="0.5" cx="311.2909606369362" cy="-68.5" r="1" fill="black" />
		<path opacity="0.75" fill="darkturquoise" d="M265.4896904477142 -231.37014426634886 L270.4896904477142 -227.04001724742665 L270.4896904477142 119.37014426634886 L265.4896904477142 115.04001724742665 L265.4896904477142 -231.37014426634886"/>
		<path opacity="0.75" fill="darkturquoise" d="M256.82943640986986 -228.87014426634886 L261.82943640986986 -224.54001724742665 L261.82943640986986 121.87014426634886 L256.82943640986986 117.54001724742665 L256.82943640986986 -228.87014426634886"/>
		<path opacity="0.75" fill="darkturquoise" d="M265.4896904477142 -231.37014426634886 L256.82943640986986 -228.87014426634886 L256.82943640986986 117.54001724742665 L265.4896904477142 115.04001724742665 L265.4896904477142 -231.37014426634886"/>
		<path opacity="0.75" fill="darkturquoise" d="M270.4896904477142 -227.04001724742665 L261.82943640986986 -224.54001724742665 L261.82943640986986 121.87014426634886 L270.4896904477142 119.37014426634886 L270.4896904477142 -227.04001724742665"/>
		<path opacity="0.75" fill="darkturquoise" d="M265.4896904477142 -231.37014426634886 L270.4896904477142 -227.04001724742665 L261.82943640986986 -224.54001724742665 L256.82943640986986 -228.87014426634886 L265.4896904477142 -231.37014426634886"/>
		<path opacity="0.75" fill="darkturquoise" d="M265.4896904477142 115.04001724742665 L270.4896904477142 119.37014426634886 L261.82943640986986 121.87014426634886 L256.82943640986986 117.54001724742665 L265.4896904477142 115.04001724742665"/>
		<text style="fill:black;font-family:calibri;font-size:6" x="256.82943640986986" y="-55.665063509461106" >400</text>
		<text style="fill:black;font-family:calibri;font-size:6" x="259.32943640986986" y="119.70508075688775" >10</text>
		<text style="fill:black;font-family:calibri;font-size:6" x="261.159563428792" y="-230.12014426634886" >10</text>

		<path opacity="0.75" fill="darkturquoise" d="M265.4896904477142 -231.37014426634886 L270.4896904477142 -227.04001724742665 L270.4896904477142 119.37014426634886 L265.4896904477142 115.04001724742665 L265.4896904477142 -231.37014426634886"/>
		<path opacity="0.75" fill="darkturquoise" d="M256.82943640986986 -228.87014426634886 L261.82943640986986 -224.54001724742665 L261.82943640986986 121.87014426634886 L256.82943640986986 117.54001724742665 L256.82943640986986 -228.87014426634886"/>
		<path opacity="0.75" fill="darkturquoise" d="M265.4896904477142 -231.37014426634886 L256.82943640986986 -228.87014426634886 L256.82943640986986 117.54001724742665 L265.4896904477142 115.04001724742665 L265.4896904477142 -231.37014426634886"/>
		<path opacity="0.75" fill="darkturquoise" d="M270.4896904477142 -227.04001724742665 L261.82943640986986 -224.54001724742665 L261.82943640986986 121.87014426634886 L270.4896904477142 119.37014426634886 L270.4896904477142 -227.04001724742665"/>
		<path opacity="0.75" fill="darkturquoise" d="M265.4896904477142 -231.37014426634886 L270.4896904477142 -227.04001724742665 L261.82943640986986 -224.54001724742665 L256.82943640986986 -228.87014426634886 L265.4896904477142 -231.37014426634886"/>
		<path opacity="0.75" fill="darkturquoise" d="M265.4896904477142 115.04001724742665 L270.4896904477142 119.37014426634886 L261.82943640986986 121.87014426634886 L256.82943640986986 117.54001724742665 L265.4896904477142 115.04001724742665"/>
		<text style="fill:black;font-family:calibri;font-size:6" x="256.82943640986986" y="-55.665063509461106" >400</text>
		<text style="fill:black;font-family:calibri;font-size:6" x="259.32943640986986" y="119.70508075688775" >10</text>
		<text style="fill:black;font-family:calibri;font-size:6" x="261.159563428792" y="-230.12014426634886" >10</text>

<!-- Arrow -->
		<path opacity="0.5" stroke="black" d="M216.02816622064793 -41.0 L259.32943640986986 -53.5"/>
		<circle opacity="0.5" cx="259.32943640986986" cy="-53.5" r="1" fill="black" />
		<path opacity="0.75" fill="darkturquoise" d="M213.52816622064793 -173.0688740771269 L218.52816622064793 -168.7387470582047 L218.52816622064793 91.0688740771269 L213.52816622064793 86.73874705820471 L213.52816622064793 -173.0688740771269"/>
		<path opacity="0.75" fill="darkturquoise" d="M204.86791218280354 -170.5688740771269 L209.86791218280354 -166.2387470582047 L209.86791218280354 93.5688740771269 L204.86791218280354 89.23874705820471 L204.86791218280354 -170.5688740771269"/>
		<path opacity="0.75" fill="darkturquoise" d="M213.52816622064793 -173.0688740771269 L204.86791218280354 -170.5688740771269 L204.86791218280354 89.23874705820471 L213.52816622064793 86.73874705820471 L213.52816622064793 -173.0688740771269"/>
		<path opacity="0.75" fill="darkturquoise" d="M218.52816622064793 -168.7387470582047 L209.86791218280354 -166.2387470582047 L209.86791218280354 93.5688740771269 L218.52816622064793 91.0688740771269 L218.52816622064793 -168.7387470582047"/>
		<path opacity="0.75" fill="darkturquoise" d="M213.52816622064793 -173.0688740771269 L218.52816622064793 -168.7387470582047 L209.86791218280354 -166.2387470582047 L204.86791218280354 -170.5688740771269 L213.52816622064793 -173.0688740771269"/>
		<path opacity="0.75" fill="darkturquoise" d="M213.52816622064793 86.73874705820471 L218.52816622064793 91.0688740771269 L209.86791218280354 93.5688740771269 L204.86791218280354 89.23874705820471 L213.52816622064793 86.73874705820471"/>
		<text style="fill:black;font-family:calibri;font-size:6" x="204.86791218280354" y="-40.6650635094611" >300</text>
		<text style="fill:black;font-family:calibri;font-size:6" x="207.36791218280354" y="91.4038105676658" >10</text>
		<text style="fill:black;font-family:calibri;font-size:6" x="209.19803920172575" y="-171.8188740771269" >10</text>

		<path opacity="0.75" fill="darkturquoise" d="M213.52816622064793 -173.0688740771269 L218.52816622064793 -168.7387470582047 L218.52816622064793 91.0688740771269 L213.52816622064793 86.73874705820471 L213.52816622064793 -173.0688740771269"/>
		<path opacity="0.75" fill="darkturquoise" d="M204.86791218280354 -170.5688740771269 L209.86791218280354 -166.2387470582047 L209.86791218280354 93.5688740771269 L204.86791218280354 89.23874705820471 L204.86791218280354 -170.5688740771269"/>
		<path opacity="0.75" fill="darkturquoise" d="M213.52816622064793 -173.0688740771269 L204.86791218280354 -170.5688740771269 L204.86791218280354 89.23874705820471 L213.52816622064793 86.73874705820471 L213.52816622064793 -173.0688740771269"/>
		<path opacity="0.75" fill="darkturquoise" d="M218.52816622064793 -168.7387470582047 L209.86791218280354 -166.2387470582047 L209.86791218280354 93.5688740771269 L218.52816622064793 91.0688740771269 L218.52816622064793 -168.7387470582047"/>
		<path opacity="0.75" fill="darkturquoise" d="M213.52816622064793 -173.0688740771269 L218.52816622064793 -168.7387470582047 L209.86791218280354 -166.2387470582047 L204.86791218280354 -170.5688740771269 L213.52816622064793 -173.0688740771269"/>
		<path opacity="0.75" fill="darkturquoise" d="M213.52816622064793 86.73874705820471 L218.52816622064793 91.0688740771269 L209.86791218280354 93.5688740771269 L204.86791218280354 89.23874705820471 L213.52816622064793 86.73874705820471"/>
		<text style="fill:black;font-family:calibri;font-size:6" x="204.86791218280354" y="-40.6650635094611" >300</text>
		<text style="fill:black;font-family:calibri;font-size:6" x="207.36791218280354" y="91.4038105676658" >10</text>
		<text style="fill:black;font-family:calibri;font-size:6" x="209.19803920172575" y="-171.8188740771269" >10</text>

<!-- Arrow -->
		<path opacity="0.5" stroke="black" d="M75.10511776651529 -43.042939940024226 L155.40638795573722 -23.499999999999996"/>
		<circle opacity="0.5" cx="155.40638795573722" cy="-23.499999999999996" r="1" fill="black" />
		<path opacity="0.5" fill="orange" d="M72.10511776651529 -49.1051177665153 L78.10511776651529 -43.90896534380867 L78.10511776651529 -36.98076211353316 L72.10511776651529 -42.17691453623979 L72.10511776651529 -49.1051177665153"/>
		<path opacity="0.5" fill="orange" d="M9.751288694035708 -31.1051177665153 L15.751288694035708 -25.908965343808667 L15.751288694035708 -18.980762113533157 L9.751288694035708 -24.17691453623979 L9.751288694035708 -31.1051177665153"/>
		<path opacity="0.5" fill="orange" d="M72.10511776651529 -49.1051177665153 L9.751288694035708 -31.1051177665153 L9.751288694035708 -24.17691453623979 L72.10511776651529 -42.17691453623979 L72.10511776651529 -49.1051177665153"/>
		<path opacity="0.5" fill="orange" d="M78.10511776651529 -43.90896534380867 L15.751288694035708 -25.908965343808667 L15.751288694035708 -18.980762113533157 L78.10511776651529 -36.98076211353316 L78.10511776651529 -43.90896534380867"/>
		<path opacity="0.5" fill="orange" d="M72.10511776651529 -49.1051177665153 L78.10511776651529 -43.90896534380867 L15.751288694035708 -25.908965343808667 L9.751288694035708 -31.1051177665153 L72.10511776651529 -49.1051177665153"/>
		<path opacity="0.5" fill="orange" d="M72.10511776651529 -42.17691453623979 L78.10511776651529 -36.98076211353316 L15.751288694035708 -18.980762113533157 L9.751288694035708 -24.17691453623979 L72.10511776651529 -42.17691453623979"/>
		<text style="fill:black;font-family:calibri;font-size:6" x="9.751288694035708" y="-27.641016151377542" >8</text>
		<text style="fill:black;font-family:calibri;font-size:6" x="12.751288694035708" y="-21.578838324886473" >12</text>
		<text style="fill:black;font-family:calibri;font-size:6" x="40.9282032302755" y="-40.1051177665153" >72</text>

<!-- Arrow -->
		<path opacity="0.5" stroke="black" d="M164.0666419935816 -25.999999999999996 L207.36791218280354 -38.5"/>
		<circle opacity="0.5" cx="207.36791218280354" cy="-38.5" r="1" fill="black" />
		<path opacity="0.75" fill="darkturquoise" d="M161.5666419935816 -114.76760388790497 L166.5666419935816 -110.43747686898278 L166.5666419935816 62.76760388790497 L161.5666419935816 58.437476868982785 L161.5666419935816 -114.76760388790497"/>
		<path opacity="0.75" fill="darkturquoise" d="M152.90638795573722 -112.26760388790497 L157.90638795573722 -107.93747686898278 L157.90638795573722 65.26760388790497 L152.90638795573722 60.937476868982785 L152.90638795573722 -112.26760388790497"/>
		<path opacity="0.75" fill="darkturquoise" d="M161.5666419935816 -114.76760388790497 L152.90638795573722 -112.26760388790497 L152.90638795573722 60.937476868982785 L161.5666419935816 58.437476868982785 L161.5666419935816 -114.76760388790497"/>
		<path opacity="0.75" fill="darkturquoise" d="M166.5666419935816 -110.43747686898278 L157.90638795573722 -107.93747686898278 L157.90638795573722 65.26760388790497 L166.5666419935816 62.76760388790497 L166.5666419935816 -110.43747686898278"/>
		<path opacity="0.75" fill="darkturquoise" d="M161.5666419935816 -114.76760388790497 L166.5666419935816 -110.43747686898278 L157.90638795573722 -107.93747686898278 L152.90638795573722 -112.26760388790497 L161.5666419935816 -114.76760388790497"/>
		<path opacity="0.75" fill="darkturquoise" d="M161.5666419935816 58.437476868982785 L166.5666419935816 62.76760388790497 L157.90638795573722 65.26760388790497 L152.90638795573722 60.937476868982785 L161.5666419935816 58.437476868982785"/>
		<text style="fill:black;font-family:calibri;font-size:6" x="152.90638795573722" y="-25.665063509461092" >200</text>
		<text style="fill:black;font-family:calibri;font-size:6" x="155.40638795573722" y="63.10254037844388" >10</text>
		<text style="fill:black;font-family:calibri;font-size:6" x="157.23651497465943" y="-113.51760388790497" >10</text>

		<path opacity="0.75" fill="darkturquoise" d="M161.5666419935816 -114.76760388790497 L166.5666419935816 -110.43747686898278 L166.5666419935816 62.76760388790497 L161.5666419935816 58.437476868982785 L161.5666419935816 -114.76760388790497"/>
		<path opacity="0.75" fill="darkturquoise" d="M152.90638795573722 -112.26760388790497 L157.90638795573722 -107.93747686898278 L157.90638795573722 65.26760388790497 L152.90638795573722 60.937476868982785 L152.90638795573722 -112.26760388790497"/>
		<path opacity="0.75" fill="darkturquoise" d="M161.5666419935816 -114.76760388790497 L152.90638795573722 -112.26760388790497 L152.90638795573722 60.937476868982785 L161.5666419935816 58.437476868982785 L161.5666419935816 -114.76760388790497"/>
		<path opacity="0.75" fill="darkturquoise" d="M166.5666419935816 -110.43747686898278 L157.90638795573722 -107.93747686898278 L157.90638795573722 65.26760388790497 L166.5666419935816 62.76760388790497 L166.5666419935816 -110.43747686898278"/>
		<path opacity="0.75" fill="darkturquoise" d="M161.5666419935816 -114.76760388790497 L166.5666419935816 -110.43747686898278 L157.90638795573722 -107.93747686898278 L152.90638795573722 -112.26760388790497 L161.5666419935816 -114.76760388790497"/>
		<path opacity="0.75" fill="darkturquoise" d="M161.5666419935816 58.437476868982785 L166.5666419935816 62.76760388790497 L157.90638795573722 65.26760388790497 L152.90638795573722 60.937476868982785 L161.5666419935816 58.437476868982785"/>
		<text style="fill:black;font-family:calibri;font-size:6" x="152.90638795573722" y="-25.665063509461092" >200</text>
		<text style="fill:black;font-family:calibri;font-size:6" x="155.40638795573722" y="63.10254037844388" >10</text>
		<text style="fill:black;font-family:calibri;font-size:6" x="157.23651497465943" y="-113.51760388790497" >10</text>

		<path opacity="0.75" fill="pink" d="M-36.49624107286397 -22.037531622531624 L-31.496241072863967 -17.707404603609433 L11.656388833223403 -29.40909797574823 L-36.49624107286397 -22.037531622531624"/>
		<path opacity="0.75" fill="pink" d="M-36.49624107286397 -22.037531622531624 L-36.49624107286397 -13.377277584687235 L11.656388833223403 -29.40909797574823 L-36.49624107286397 -22.037531622531624"/>
		<path opacity="0.75" fill="pink" d="M-31.496241072863967 -17.707404603609433 L-31.496241072863967 -9.047150565765044 L11.656388833223403 -29.40909797574823 L-31.496241072863967 -17.707404603609433"/>
		<path opacity="0.75" fill="pink" d="M-36.49624107286397 -13.377277584687235 L-31.496241072863967 -9.047150565765044 L11.656388833223403 -29.40909797574823 L-36.49624107286397 -13.377277584687235"/>

		<path opacity="0.75" fill="darkturquoise" d="M-36.49624107286397 -22.037531622531624 L-31.496241072863967 -17.707404603609433 L-31.496241072863967 -9.047150565765044 L-36.49624107286397 -13.377277584687235 L-36.49624107286397 -22.037531622531624"/>
		<path opacity="0.75" fill="darkturquoise" d="M-91.92186691506805 -6.037531622531624 L-86.92186691506805 -1.707404603609433 L-86.92186691506805 6.952849434234956 L-91.92186691506805 2.622722415312765 L-91.92186691506805 -6.037531622531624"/>
		<path opacity="0.75" fill="darkturquoise" d="M-36.49624107286397 -22.037531622531624 L-91.92186691506805 -6.037531622531624 L-91.92186691506805 2.622722415312765 L-36.49624107286397 -13.377277584687235 L-36.49624107286397 -22.037531622531624"/>
		<path opacity="0.75" fill="darkturquoise" d="M-31.496241072863967 -17.707404603609433 L-86.92186691506805 -1.707404603609433 L-86.92186691506805 6.952849434234956 L-31.496241072863967 -9.047150565765044 L-31.496241072863967 -17.707404603609433"/>
		<path opacity="0.75" fill="darkturquoise" d="M-36.49624107286397 -22.037531622531624 L-31.496241072863967 -17.707404603609433 L-86.92186691506805 -1.707404603609433 L-91.92186691506805 -6.037531622531624 L-36.49624107286397 -22.037531622531624"/>
		<path opacity="0.75" fill="darkturquoise" d="M-36.49624107286397 -13.377277584687235 L-31.496241072863967 -9.047150565765044 L-86.92186691506805 6.952849434234956 L-91.92186691506805 2.622722415312765 L-36.49624107286397 -13.377277584687235"/>
		<text style="fill:black;font-family:calibri;font-size:6" x="-91.92186691506805" y="-1.7074046036094295" >10</text>
		<text style="fill:black;font-family:calibri;font-size:6" x="-89.42186691506805" y="4.787785924773861" >10</text>
		<text style="fill:black;font-family:calibri;font-size:6" x="-64.20905399396601" y="-14.037531622531624" >64</text>

		<path opacity="0.5" fill="orange" d="M-36.549981495186216 -24.667295593006365 L-24.549981495186216 -14.274990747593101 L-24.549981495186216 -0.4185842870420835 L-36.549981495186216 -10.810889132455348 L-36.549981495186216 -24.667295593006365"/>
		<path opacity="0.5" fill="orange" d="M-91.9756073373903 -8.667295593006365 L-79.9756073373903 1.725009252406899 L-79.9756073373903 15.581415712957916 L-91.9756073373903 5.1891108675446525 L-91.9756073373903 -8.667295593006365"/>
		<path opacity="0.5" fill="orange" d="M-36.549981495186216 -24.667295593006365 L-91.9756073373903 -8.667295593006365 L-91.9756073373903 5.1891108675446525 L-36.549981495186216 -10.810889132455348 L-36.549981495186216 -24.667295593006365"/>
		<path opacity="0.5" fill="orange" d="M-24.549981495186216 -14.274990747593101 L-79.9756073373903 1.725009252406899 L-79.9756073373903 15.581415712957916 L-24.549981495186216 -0.4185842870420835 L-24.549981495186216 -14.274990747593101"/>
		<path opacity="0.5" fill="orange" d="M-36.549981495186216 -24.667295593006365 L-24.549981495186216 -14.274990747593101 L-79.9756073373903 1.725009252406899 L-91.9756073373903 -8.667295593006365 L-36.549981495186216 -24.667295593006365"/>
		<path opacity="0.5" fill="orange" d="M-36.549981495186216 -10.810889132455348 L-24.549981495186216 -0.4185842870420835 L-79.9756073373903 15.581415712957916 L-91.9756073373903 5.1891108675446525 L-36.549981495186216 -10.810889132455348"/>
		<text style="fill:black;font-family:calibri;font-size:6" x="-91.9756073373903" y="-1.7390923627308563" >16</text>
		<text style="fill:black;font-family:calibri;font-size:6" x="-85.9756073373903" y="10.385263290251284" >24</text>
		<text style="fill:black;font-family:calibri;font-size:6" x="-64.26279441628826" y="-16.667295593006365" >64</text>

<!-- Arrow -->
		<path opacity="0.5" stroke="black" d="M149.10511776651532 21.042939940024226 L155.40638795573722 -23.499999999999996"/>
		<circle opacity="0.5" cx="155.40638795573722" cy="-23.499999999999996" r="1" fill="black" />
		<path opacity="0.75" fill="pink" d="M-136.86803325386572 11.678439658081302 L-134.36803325386572 13.843503167542401 L-81.35844588257646 7.032738535939277 L-136.86803325386572 11.678439658081302"/>
		<path opacity="0.75" fill="pink" d="M-136.86803325386572 11.678439658081302 L-136.86803325386572 16.0085666770035 L-81.35844588257646 7.032738535939277 L-136.86803325386572 11.678439658081302"/>
		<path opacity="0.75" fill="pink" d="M-134.36803325386572 13.843503167542401 L-134.36803325386572 18.1736301864646 L-81.35844588257646 7.032738535939277 L-134.36803325386572 13.843503167542401"/>
		<path opacity="0.75" fill="pink" d="M-136.86803325386572 16.0085666770035 L-134.36803325386572 18.1736301864646 L-81.35844588257646 7.032738535939277 L-136.86803325386572 16.0085666770035"/>

		<path opacity="0.75" fill="darkturquoise" d="M-136.86803325386572 11.678439658081302 L-134.36803325386572 13.843503167542401 L-134.36803325386572 18.1736301864646 L-136.86803325386572 16.0085666770035 L-136.86803325386572 11.678439658081302"/>
		<path opacity="0.75" fill="darkturquoise" d="M-164.58084617496775 19.678439658081302 L-162.08084617496775 21.8435031675424 L-162.08084617496775 26.1736301864646 L-164.58084617496775 24.0085666770035 L-164.58084617496775 19.678439658081302"/>
		<path opacity="0.75" fill="darkturquoise" d="M-136.86803325386572 11.678439658081302 L-164.58084617496775 19.678439658081302 L-164.58084617496775 24.0085666770035 L-136.86803325386572 16.0085666770035 L-136.86803325386572 11.678439658081302"/>
		<path opacity="0.75" fill="darkturquoise" d="M-134.36803325386572 13.843503167542401 L-162.08084617496775 21.8435031675424 L-162.08084617496775 26.1736301864646 L-134.36803325386572 18.1736301864646 L-134.36803325386572 13.843503167542401"/>
		<path opacity="0.75" fill="darkturquoise" d="M-136.86803325386572 11.678439658081302 L-134.36803325386572 13.843503167542401 L-162.08084617496775 21.8435031675424 L-164.58084617496775 19.678439658081302 L-136.86803325386572 11.678439658081302"/>
		<path opacity="0.75" fill="darkturquoise" d="M-136.86803325386572 16.0085666770035 L-134.36803325386572 18.1736301864646 L-162.08084617496775 26.1736301864646 L-164.58084617496775 24.0085666770035 L-136.86803325386572 16.0085666770035"/>
		<text style="fill:black;font-family:calibri;font-size:6" x="-164.58084617496775" y="21.8435031675424" >5</text>
		<text style="fill:black;font-family:calibri;font-size:6" x="-163.33084617496775" y="25.09109843173405" >5</text>
		<text style="fill:black;font-family:calibri;font-size:6" x="-150.72443971441675" y="15.678439658081302" >32</text>

		<path opacity="0.5" fill="orange" d="M-141.27687752661222 -8.291651245988504 L-117.27687752661222 12.492958444838017 L-117.27687752661222 40.20577136594006 L-141.27687752661222 19.421161675113538 L-141.27687752661222 -8.291651245988504"/>
		<path opacity="0.5" fill="orange" d="M-168.98969044771428 -0.2916512459885041 L-144.98969044771425 20.492958444838017 L-144.98969044771425 48.20577136594006 L-168.98969044771428 27.421161675113538 L-168.98969044771428 -0.2916512459885041"/>
		<path opacity="0.5" fill="orange" d="M-141.27687752661222 -8.291651245988504 L-168.98969044771428 -0.2916512459885041 L-168.98969044771428 27.421161675113538 L-141.27687752661222 19.421161675113538 L-141.27687752661222 -8.291651245988504"/>
		<path opacity="0.5" fill="orange" d="M-117.27687752661222 12.492958444838017 L-144.98969044771425 20.492958444838017 L-144.98969044771425 48.20577136594006 L-117.27687752661222 40.20577136594006 L-117.27687752661222 12.492958444838017"/>
		<path opacity="0.5" fill="orange" d="M-141.27687752661222 -8.291651245988504 L-117.27687752661222 12.492958444838017 L-144.98969044771425 20.492958444838017 L-168.98969044771428 -0.2916512459885041 L-141.27687752661222 -8.291651245988504"/>
		<path opacity="0.5" fill="orange" d="M-141.27687752661222 19.421161675113538 L-117.27687752661222 40.20577136594006 L-144.98969044771425 48.20577136594006 L-168.98969044771428 27.421161675113538 L-141.27687752661222 19.421161675113538"/>
		<text style="fill:black;font-family:calibri;font-size:6" x="-168.98969044771428" y="13.564755214562517" >32</text>
		<text style="fill:black;font-family:calibri;font-size:6" x="-156.98969044771428" y="37.8134665205268" >48</text>
		<text style="fill:black;font-family:calibri;font-size:6" x="-155.13328398716325" y="-4.291651245988504" >32</text>

		<path opacity="0.5" fill="orange" d="M146.10511776651532 14.980762113533157 L152.10511776651532 20.17691453623979 L152.10511776651532 27.1051177665153 L146.10511776651532 21.908965343808667 L146.10511776651532 14.980762113533157"/>
		<path opacity="0.5" fill="orange" d="M83.75128869403572 32.98076211353316 L89.75128869403572 38.17691453623979 L89.75128869403572 45.1051177665153 L83.75128869403572 39.90896534380867 L83.75128869403572 32.98076211353316"/>
		<path opacity="0.5" fill="orange" d="M146.10511776651532 14.980762113533157 L83.75128869403572 32.98076211353316 L83.75128869403572 39.90896534380867 L146.10511776651532 21.908965343808667 L146.10511776651532 14.980762113533157"/>
		<path opacity="0.5" fill="orange" d="M152.10511776651532 20.17691453623979 L89.75128869403572 38.17691453623979 L89.75128869403572 45.1051177665153 L152.10511776651532 27.1051177665153 L152.10511776651532 20.17691453623979"/>
		<path opacity="0.5" fill="orange" d="M146.10511776651532 14.980762113533157 L152.10511776651532 20.17691453623979 L89.75128869403572 38.17691453623979 L83.75128869403572 32.98076211353316 L146.10511776651532 14.980762113533157"/>
		<path opacity="0.5" fill="orange" d="M146.10511776651532 21.908965343808667 L152.10511776651532 27.1051177665153 L89.75128869403572 45.1051177665153 L83.75128869403572 39.90896534380867 L146.10511776651532 21.908965343808667"/>
		<text style="fill:black;font-family:calibri;font-size:6" x="83.75128869403572" y="36.44486372867091" >8</text>
		<text style="fill:black;font-family:calibri;font-size:6" x="86.75128869403572" y="42.50704155516198" >12</text>
		<text style="fill:black;font-family:calibri;font-size:6" x="114.92820323027553" y="23.98076211353316" >72</text>

		<path opacity="0.75" fill="darkturquoise" d="M-199.35537602315873 31.903899279980052 L-194.35537602315873 36.23402629890225 L-194.35537602315873 44.89428033674663 L-199.35537602315873 40.56415331782444 L-199.35537602315873 31.903899279980052"/>
		<path opacity="0.75" fill="darkturquoise" d="M-208.01563006100315 34.40389927998005 L-203.01563006100315 38.73402629890225 L-203.01563006100315 47.39428033674663 L-208.01563006100315 43.06415331782444 L-208.01563006100315 34.40389927998005"/>
		<path opacity="0.75" fill="darkturquoise" d="M-199.35537602315873 31.903899279980052 L-208.01563006100315 34.40389927998005 L-208.01563006100315 43.06415331782444 L-199.35537602315873 40.56415331782444 L-199.35537602315873 31.903899279980052"/>
		<path opacity="0.75" fill="darkturquoise" d="M-194.35537602315873 36.23402629890225 L-203.01563006100315 38.73402629890225 L-203.01563006100315 47.39428033674663 L-194.35537602315873 44.89428033674663 L-194.35537602315873 36.23402629890225"/>
		<path opacity="0.75" fill="darkturquoise" d="M-199.35537602315873 31.903899279980052 L-194.35537602315873 36.23402629890225 L-203.01563006100315 38.73402629890225 L-208.01563006100315 34.40389927998005 L-199.35537602315873 31.903899279980052"/>
		<path opacity="0.75" fill="darkturquoise" d="M-199.35537602315873 40.56415331782444 L-194.35537602315873 44.89428033674663 L-203.01563006100315 47.39428033674663 L-208.01563006100315 43.06415331782444 L-199.35537602315873 40.56415331782444"/>
		<text style="fill:black;font-family:calibri;font-size:6" x="-208.01563006100315" y="38.73402629890225" >10</text>
		<text style="fill:black;font-family:calibri;font-size:6" x="-205.51563006100315" y="45.22921682728554" >10</text>
		<text style="fill:black;font-family:calibri;font-size:6" x="-203.68550304208094" y="33.15389927998005" >10</text>

		<path opacity="0.5" fill="orange" d="M-212.29096063693618 12.208348754011496 L-188.29096063693618 32.99295844483802 L-188.29096063693618 60.70577136594006 L-212.29096063693618 39.92116167511354 L-212.29096063693618 12.208348754011496"/>
		<path opacity="0.5" fill="orange" d="M-220.9512146747806 14.708348754011496 L-196.9512146747806 35.49295844483802 L-196.9512146747806 63.20577136594006 L-220.9512146747806 42.42116167511354 L-220.9512146747806 14.708348754011496"/>
		<path opacity="0.5" fill="orange" d="M-212.29096063693618 12.208348754011496 L-220.9512146747806 14.708348754011496 L-220.9512146747806 42.42116167511354 L-212.29096063693618 39.92116167511354 L-212.29096063693618 12.208348754011496"/>
		<path opacity="0.5" fill="orange" d="M-188.29096063693618 32.99295844483802 L-196.9512146747806 35.49295844483802 L-196.9512146747806 63.20577136594006 L-188.29096063693618 60.70577136594006 L-188.29096063693618 32.99295844483802"/>
		<path opacity="0.5" fill="orange" d="M-212.29096063693618 12.208348754011496 L-188.29096063693618 32.99295844483802 L-196.9512146747806 35.49295844483802 L-220.9512146747806 14.708348754011496 L-212.29096063693618 12.208348754011496"/>
		<path opacity="0.5" fill="orange" d="M-212.29096063693618 39.92116167511354 L-188.29096063693618 60.70577136594006 L-196.9512146747806 63.20577136594006 L-220.9512146747806 42.42116167511354 L-212.29096063693618 39.92116167511354"/>
		<text style="fill:black;font-family:calibri;font-size:6" x="-220.9512146747806" y="28.564755214562517" >32</text>
		<text style="fill:black;font-family:calibri;font-size:6" x="-208.9512146747806" y="52.8134665205268" >48</text>
		<text style="fill:black;font-family:calibri;font-size:6" x="-216.6210876558584" y="13.458348754011496" >10</text>

		<path opacity="0.75" fill="pink" d="M-199.35537602315873 31.903899279980052 L-194.35537602315873 36.23402629890225 L-146.76056214196296 26.874591455355276 L-199.35537602315873 31.903899279980052"/>
		<path opacity="0.75" fill="pink" d="M-199.35537602315873 31.903899279980052 L-199.35537602315873 40.56415331782444 L-146.76056214196296 26.874591455355276 L-199.35537602315873 31.903899279980052"/>
		<path opacity="0.75" fill="pink" d="M-194.35537602315873 36.23402629890225 L-194.35537602315873 44.89428033674663 L-146.76056214196296 26.874591455355276 L-194.35537602315873 36.23402629890225"/>
		<path opacity="0.75" fill="pink" d="M-199.35537602315873 40.56415331782444 L-194.35537602315873 44.89428033674663 L-146.76056214196296 26.874591455355276 L-199.35537602315873 40.56415331782444"/>

		<path opacity="0.75" fill="pink" d="M38.688448215708284 43.401103841609114 L43.688448215708284 47.73123086053131 L88.51977834329847 41.04129802063425 L38.688448215708284 43.401103841609114"/>
		<path opacity="0.75" fill="pink" d="M38.688448215708284 43.401103841609114 L38.688448215708284 52.0613578794535 L88.51977834329847 41.04129802063425 L38.688448215708284 43.401103841609114"/>
		<path opacity="0.75" fill="pink" d="M43.688448215708284 47.73123086053131 L43.688448215708284 56.391484898375694 L88.51977834329847 41.04129802063425 L43.688448215708284 47.73123086053131"/>
		<path opacity="0.75" fill="pink" d="M38.688448215708284 52.0613578794535 L43.688448215708284 56.391484898375694 L88.51977834329847 41.04129802063425 L38.688448215708284 52.0613578794535"/>

		<path opacity="0.75" fill="darkturquoise" d="M38.688448215708284 43.401103841609114 L43.688448215708284 47.73123086053131 L43.688448215708284 56.391484898375694 L38.688448215708284 52.0613578794535 L38.688448215708284 43.401103841609114"/>
		<path opacity="0.75" fill="darkturquoise" d="M-16.737177626495793 59.401103841609114 L-11.737177626495793 63.73123086053131 L-11.737177626495793 72.3914848983757 L-16.737177626495793 68.06135787945351 L-16.737177626495793 59.401103841609114"/>
		<path opacity="0.75" fill="darkturquoise" d="M38.688448215708284 43.401103841609114 L-16.737177626495793 59.401103841609114 L-16.737177626495793 68.06135787945351 L38.688448215708284 52.0613578794535 L38.688448215708284 43.401103841609114"/>
		<path opacity="0.75" fill="darkturquoise" d="M43.688448215708284 47.73123086053131 L-11.737177626495793 63.73123086053131 L-11.737177626495793 72.3914848983757 L43.688448215708284 56.391484898375694 L43.688448215708284 47.73123086053131"/>
		<path opacity="0.75" fill="darkturquoise" d="M38.688448215708284 43.401103841609114 L43.688448215708284 47.73123086053131 L-11.737177626495793 63.73123086053131 L-16.737177626495793 59.401103841609114 L38.688448215708284 43.401103841609114"/>
		<path opacity="0.75" fill="darkturquoise" d="M38.688448215708284 52.0613578794535 L43.688448215708284 56.391484898375694 L-11.737177626495793 72.3914848983757 L-16.737177626495793 68.06135787945351 L38.688448215708284 52.0613578794535"/>
		<text style="fill:black;font-family:calibri;font-size:6" x="-16.737177626495793" y="63.73123086053131" >10</text>
		<text style="fill:black;font-family:calibri;font-size:6" x="-14.237177626495793" y="70.2264213889146" >10</text>
		<text style="fill:black;font-family:calibri;font-size:6" x="10.975635294606246" y="51.401103841609114" >64</text>

		<path opacity="0.5" fill="orange" d="M37.45001850481379 39.41858428704208 L49.45001850481379 49.810889132455344 L49.45001850481379 63.667295593006365 L37.45001850481379 53.2749907475931 L37.45001850481379 39.41858428704208"/>
		<path opacity="0.5" fill="orange" d="M-17.975607337390272 55.41858428704208 L-5.975607337390272 65.81088913245534 L-5.975607337390272 79.66729559300637 L-17.975607337390272 69.27499074759311 L-17.975607337390272 55.41858428704208"/>
		<path opacity="0.5" fill="orange" d="M37.45001850481379 39.41858428704208 L-17.975607337390272 55.41858428704208 L-17.975607337390272 69.27499074759311 L37.45001850481379 53.2749907475931 L37.45001850481379 39.41858428704208"/>
		<path opacity="0.5" fill="orange" d="M49.45001850481379 49.810889132455344 L-5.975607337390272 65.81088913245534 L-5.975607337390272 79.66729559300637 L49.45001850481379 63.667295593006365 L49.45001850481379 49.810889132455344"/>
		<path opacity="0.5" fill="orange" d="M37.45001850481379 39.41858428704208 L49.45001850481379 49.810889132455344 L-5.975607337390272 65.81088913245534 L-17.975607337390272 55.41858428704208 L37.45001850481379 39.41858428704208"/>
		<path opacity="0.5" fill="orange" d="M37.45001850481379 53.2749907475931 L49.45001850481379 63.667295593006365 L-5.975607337390272 79.66729559300637 L-17.975607337390272 69.27499074759311 L37.45001850481379 53.2749907475931"/>
		<text style="fill:black;font-family:calibri;font-size:6" x="-17.975607337390272" y="62.346787517317594" >16</text>
		<text style="fill:black;font-family:calibri;font-size:6" x="-11.975607337390272" y="74.47114317029974" >24</text>
		<text style="fill:black;font-family:calibri;font-size:6" x="9.73720558371176" y="47.41858428704208" >64</text>

		<path opacity="0.75" fill="pink" d="M-46.5081806175686 84.87619844384803 L-44.008180617568584 87.04126195330912 L-16.972061746141065 58.42840563190512 L-46.5081806175686 84.87619844384803"/>
		<path opacity="0.75" fill="pink" d="M-46.5081806175686 84.87619844384803 L-46.5081806175686 89.20632546277022 L-16.972061746141065 58.42840563190512 L-46.5081806175686 84.87619844384803"/>
		<path opacity="0.75" fill="pink" d="M-44.008180617568584 87.04126195330912 L-44.008180617568584 91.3713889722313 L-16.972061746141065 58.42840563190512 L-44.008180617568584 87.04126195330912"/>
		<path opacity="0.75" fill="pink" d="M-46.5081806175686 89.20632546277022 L-44.008180617568584 91.3713889722313 L-16.972061746141065 58.42840563190512 L-46.5081806175686 89.20632546277022"/>

		<path opacity="0.75" fill="darkturquoise" d="M-46.5081806175686 84.87619844384803 L-44.008180617568584 87.04126195330912 L-44.008180617568584 91.3713889722313 L-46.5081806175686 89.20632546277022 L-46.5081806175686 84.87619844384803"/>
		<path opacity="0.75" fill="darkturquoise" d="M-74.22099353867063 92.87619844384803 L-71.7209935386706 95.04126195330912 L-71.7209935386706 99.3713889722313 L-74.22099353867063 97.20632546277022 L-74.22099353867063 92.87619844384803"/>
		<path opacity="0.75" fill="darkturquoise" d="M-46.5081806175686 84.87619844384803 L-74.22099353867063 92.87619844384803 L-74.22099353867063 97.20632546277022 L-46.5081806175686 89.20632546277022 L-46.5081806175686 84.87619844384803"/>
		<path opacity="0.75" fill="darkturquoise" d="M-44.008180617568584 87.04126195330912 L-71.7209935386706 95.04126195330912 L-71.7209935386706 99.3713889722313 L-44.008180617568584 91.3713889722313 L-44.008180617568584 87.04126195330912"/>
		<path opacity="0.75" fill="darkturquoise" d="M-46.5081806175686 84.87619844384803 L-44.008180617568584 87.04126195330912 L-71.7209935386706 95.04126195330912 L-74.22099353867063 92.87619844384803 L-46.5081806175686 84.87619844384803"/>
		<path opacity="0.75" fill="darkturquoise" d="M-46.5081806175686 89.20632546277022 L-44.008180617568584 91.3713889722313 L-71.7209935386706 99.3713889722313 L-74.22099353867063 97.20632546277022 L-46.5081806175686 89.20632546277022"/>
		<text style="fill:black;font-family:calibri;font-size:6" x="-74.22099353867063" y="95.04126195330912" >5</text>
		<text style="fill:black;font-family:calibri;font-size:6" x="-72.97099353867061" y="98.28885721750076" >5</text>
		<text style="fill:black;font-family:calibri;font-size:6" x="-60.36458707811961" y="88.87619844384803" >32</text>

		<path opacity="0.5" fill="orange" d="M-67.27687752661222 55.79422863405994 L-43.27687752661221 76.57883832488646 L-43.27687752661221 104.2916512459885 L-67.27687752661222 83.50704155516198 L-67.27687752661222 55.79422863405994"/>
		<path opacity="0.5" fill="orange" d="M-94.98969044771425 63.79422863405994 L-70.98969044771422 84.57883832488646 L-70.98969044771422 112.2916512459885 L-94.98969044771425 91.50704155516198 L-94.98969044771425 63.79422863405994"/>
		<path opacity="0.5" fill="orange" d="M-67.27687752661222 55.79422863405994 L-94.98969044771425 63.79422863405994 L-94.98969044771425 91.50704155516198 L-67.27687752661222 83.50704155516198 L-67.27687752661222 55.79422863405994"/>
		<path opacity="0.5" fill="orange" d="M-43.27687752661221 76.57883832488646 L-70.98969044771422 84.57883832488646 L-70.98969044771422 112.2916512459885 L-43.27687752661221 104.2916512459885 L-43.27687752661221 76.57883832488646"/>
		<path opacity="0.5" fill="orange" d="M-67.27687752661222 55.79422863405994 L-43.27687752661221 76.57883832488646 L-70.98969044771422 84.57883832488646 L-94.98969044771425 63.79422863405994 L-67.27687752661222 55.79422863405994"/>
		<path opacity="0.5" fill="orange" d="M-67.27687752661222 83.50704155516198 L-43.27687752661221 104.2916512459885 L-70.98969044771422 112.2916512459885 L-94.98969044771425 91.50704155516198 L-67.27687752661222 83.50704155516198"/>
		<text style="fill:black;font-family:calibri;font-size:6" x="-94.98969044771425" y="77.65063509461096" >32</text>
		<text style="fill:black;font-family:calibri;font-size:6" x="-82.98969044771424" y="101.89934640057524" >48</text>
		<text style="fill:black;font-family:calibri;font-size:6" x="-81.13328398716324" y="59.79422863405994" >32</text>

		<path opacity="0.75" fill="pink" d="M-128.82847247158736 98.4653980431783 L-123.82847247158736 102.79552506210048 L-83.22959140052907 77.791192266538 L-128.82847247158736 98.4653980431783"/>
		<path opacity="0.75" fill="pink" d="M-128.82847247158736 98.4653980431783 L-128.82847247158736 107.12565208102268 L-83.22959140052907 77.791192266538 L-128.82847247158736 98.4653980431783"/>
		<path opacity="0.75" fill="pink" d="M-123.82847247158736 102.79552506210048 L-123.82847247158736 111.45577909994486 L-83.22959140052907 77.791192266538 L-123.82847247158736 102.79552506210048"/>
		<path opacity="0.75" fill="pink" d="M-128.82847247158736 107.12565208102268 L-123.82847247158736 111.45577909994486 L-83.22959140052907 77.791192266538 L-128.82847247158736 107.12565208102268"/>

		<path opacity="0.75" fill="darkturquoise" d="M-128.82847247158736 98.4653980431783 L-123.82847247158736 102.79552506210048 L-123.82847247158736 111.45577909994486 L-128.82847247158736 107.12565208102268 L-128.82847247158736 98.4653980431783"/>
		<path opacity="0.75" fill="darkturquoise" d="M-137.48872650943176 100.9653980431783 L-132.48872650943176 105.29552506210048 L-132.48872650943176 113.95577909994486 L-137.48872650943176 109.62565208102268 L-137.48872650943176 100.9653980431783"/>
		<path opacity="0.75" fill="darkturquoise" d="M-128.82847247158736 98.4653980431783 L-137.48872650943176 100.9653980431783 L-137.48872650943176 109.62565208102268 L-128.82847247158736 107.12565208102268 L-128.82847247158736 98.4653980431783"/>
		<path opacity="0.75" fill="darkturquoise" d="M-123.82847247158736 102.79552506210048 L-132.48872650943176 105.29552506210048 L-132.48872650943176 113.95577909994486 L-123.82847247158736 111.45577909994486 L-123.82847247158736 102.79552506210048"/>
		<path opacity="0.75" fill="darkturquoise" d="M-128.82847247158736 98.4653980431783 L-123.82847247158736 102.79552506210048 L-132.48872650943176 105.29552506210048 L-137.48872650943176 100.9653980431783 L-128.82847247158736 98.4653980431783"/>
		<path opacity="0.75" fill="darkturquoise" d="M-128.82847247158736 107.12565208102268 L-123.82847247158736 111.45577909994486 L-132.48872650943176 113.95577909994486 L-137.48872650943176 109.62565208102268 L-128.82847247158736 107.12565208102268"/>
		<text style="fill:black;font-family:calibri;font-size:6" x="-137.48872650943176" y="105.2955250621005" >10</text>
		<text style="fill:black;font-family:calibri;font-size:6" x="-134.98872650943176" y="111.79071559048377" >10</text>
		<text style="fill:black;font-family:calibri;font-size:6" x="-133.15859949050957" y="99.7153980431783" >10</text>

		<path opacity="0.5" fill="orange" d="M-138.29096063693618 76.29422863405995 L-114.29096063693618 97.07883832488646 L-114.29096063693618 124.7916512459885 L-138.29096063693618 104.00704155516198 L-138.29096063693618 76.29422863405995"/>
		<path opacity="0.5" fill="orange" d="M-146.95121467478057 78.79422863405995 L-122.95121467478054 99.57883832488646 L-122.95121467478054 127.2916512459885 L-146.95121467478057 106.50704155516198 L-146.95121467478057 78.79422863405995"/>
		<path opacity="0.5" fill="orange" d="M-138.29096063693618 76.29422863405995 L-146.95121467478057 78.79422863405995 L-146.95121467478057 106.50704155516198 L-138.29096063693618 104.00704155516198 L-138.29096063693618 76.29422863405995"/>
		<path opacity="0.5" fill="orange" d="M-114.29096063693618 97.07883832488646 L-122.95121467478054 99.57883832488646 L-122.95121467478054 127.2916512459885 L-114.29096063693618 124.7916512459885 L-114.29096063693618 97.07883832488646"/>
		<path opacity="0.5" fill="orange" d="M-138.29096063693618 76.29422863405995 L-114.29096063693618 97.07883832488646 L-122.95121467478054 99.57883832488646 L-146.95121467478057 78.79422863405995 L-138.29096063693618 76.29422863405995"/>
		<path opacity="0.5" fill="orange" d="M-138.29096063693618 104.00704155516198 L-114.29096063693618 124.7916512459885 L-122.95121467478054 127.2916512459885 L-146.95121467478057 106.50704155516198 L-138.29096063693618 104.00704155516198"/>
		<text style="fill:black;font-family:calibri;font-size:6" x="-146.95121467478057" y="92.65063509461096" >32</text>
		<text style="fill:black;font-family:calibri;font-size:6" x="-134.95121467478054" y="116.89934640057524" >48</text>
		<text style="fill:black;font-family:calibri;font-size:6" x="-142.6210876558584" y="77.54422863405995" >10</text>

	 </g>
</svg>