<svg width="1000.0px" height="1000.0px" viewBox="-100.0 -400.0 1000.0 1000.0" xmlns="http://www.w3.org/2000/svg">
	<g stroke="black" stroke-width="0.3">
		<path opacity="0.75" fill="darkturquoise" d="M755.4097468161975 -229.3985093692458 L760.4097468161975 -225.0683823503236 L760.4097468161975 -51.863301593435835 L755.4097468161975 -56.19342861235805 L755.4097468161975 -229.3985093692458"/>
		<path opacity="0.75" fill="darkturquoise" d="M746.7494927783532 -226.8985093692458 L751.7494927783532 -222.5683823503236 L751.7494927783532 -49.363301593435835 L746.7494927783532 -53.69342861235805 L746.7494927783532 -226.8985093692458"/>
		<path opacity="0.75" fill="darkturquoise" d="M755.4097468161975 -229.3985093692458 L746.7494927783532 -226.8985093692458 L746.7494927783532 -53.69342861235805 L755.4097468161975 -56.19342861235805 L755.4097468161975 -229.3985093692458"/>
		<path opacity="0.75" fill="darkturquoise" d="M760.4097468161975 -225.0683823503236 L751.7494927783532 -222.5683823503236 L751.7494927783532 -49.363301593435835 L760.4097468161975 -51.863301593435835 L760.4097468161975 -225.0683823503236"/>
		<path opacity="0.75" fill="darkturquoise" d="M755.4097468161975 -229.3985093692458 L760.4097468161975 -225.0683823503236 L751.7494927783532 -222.5683823503236 L746.7494927783532 -226.8985093692458 L755.4097468161975 -229.3985093692458"/>
		<path opacity="0.75" fill="darkturquoise" d="M755.4097468161975 -56.19342861235805 L760.4097468161975 -51.863301593435835 L751.7494927783532 -49.363301593435835 L746.7494927783532 -53.69342861235805 L755.4097468161975 -56.19342861235805"/>
		<text x="746.7494927783532" y="-140.29596899080192" font-family="calibri" font-size="4">200</text>
		<text x="749.2494927783532" y="-51.52836510289694" font-family="calibri" font-size="4">10</text>
		<text x="751.0796197972754" y="-228.1485093692458" font-family="calibri" font-size="4">10</text>

<!-- Arrow -->
		<path opacity="0.5" stroke="black" d="M705.9482225891312 -125.63090548134082 L749.2494927783532 -138.13090548134082"/>
		<circle opacity="0.5" cx="749.2494927783532" cy="-138.13090548134082" r="1" fill="black" />
		<path opacity="0.75" fill="darkturquoise" d="M703.4482225891312 -214.3985093692458 L708.4482225891312 -210.0683823503236 L708.4482225891312 -36.863301593435835 L703.4482225891312 -41.19342861235805 L703.4482225891312 -214.3985093692458"/>
		<path opacity="0.75" fill="darkturquoise" d="M694.7879685512869 -211.8985093692458 L699.7879685512869 -207.5683823503236 L699.7879685512869 -34.363301593435835 L694.7879685512869 -38.69342861235805 L694.7879685512869 -211.8985093692458"/>
		<path opacity="0.75" fill="darkturquoise" d="M703.4482225891312 -214.3985093692458 L694.7879685512869 -211.8985093692458 L694.7879685512869 -38.69342861235805 L703.4482225891312 -41.19342861235805 L703.4482225891312 -214.3985093692458"/>
		<path opacity="0.75" fill="darkturquoise" d="M708.4482225891312 -210.0683823503236 L699.7879685512869 -207.5683823503236 L699.7879685512869 -34.363301593435835 L708.4482225891312 -36.863301593435835 L708.4482225891312 -210.0683823503236"/>
		<path opacity="0.75" fill="darkturquoise" d="M703.4482225891312 -214.3985093692458 L708.4482225891312 -210.0683823503236 L699.7879685512869 -207.5683823503236 L694.7879685512869 -211.8985093692458 L703.4482225891312 -214.3985093692458"/>
		<path opacity="0.75" fill="darkturquoise" d="M703.4482225891312 -41.19342861235805 L708.4482225891312 -36.863301593435835 L699.7879685512869 -34.363301593435835 L694.7879685512869 -38.69342861235805 L703.4482225891312 -41.19342861235805"/>
		<text x="694.7879685512869" y="-125.29596899080192" font-family="calibri" font-size="4">200</text>
		<text x="697.2879685512869" y="-36.52836510289694" font-family="calibri" font-size="4">10</text>
		<text x="699.1180955702091" y="-213.1485093692458" font-family="calibri" font-size="4">10</text>

		<path opacity="0.5" fill="orange" d="M580.9530551917652 -132.343997412886 L584.9530551917652 -128.87989579774825 L584.9530551917652 -121.95169256747275 L580.9530551917652 -125.4157941826105 L580.9530551917652 -132.343997412886"/>
		<path opacity="0.5" fill="orange" d="M525.5274293495612 -116.34399741288601 L529.5274293495612 -112.87989579774826 L529.5274293495612 -105.95169256747275 L525.5274293495612 -109.4157941826105 L525.5274293495612 -116.34399741288601"/>
		<path opacity="0.5" fill="orange" d="M580.9530551917652 -132.343997412886 L525.5274293495612 -116.34399741288601 L525.5274293495612 -109.4157941826105 L580.9530551917652 -125.4157941826105 L580.9530551917652 -132.343997412886"/>
		<path opacity="0.5" fill="orange" d="M584.9530551917652 -128.87989579774825 L529.5274293495612 -112.87989579774826 L529.5274293495612 -105.95169256747275 L584.9530551917652 -121.95169256747275 L584.9530551917652 -128.87989579774825"/>
		<path opacity="0.5" fill="orange" d="M580.9530551917652 -132.343997412886 L584.9530551917652 -128.87989579774825 L529.5274293495612 -112.87989579774826 L525.5274293495612 -116.34399741288601 L580.9530551917652 -132.343997412886"/>
		<path opacity="0.5" fill="orange" d="M580.9530551917652 -125.4157941826105 L584.9530551917652 -121.95169256747275 L529.5274293495612 -105.95169256747275 L525.5274293495612 -109.4157941826105 L580.9530551917652 -125.4157941826105"/>
		<text x="525.5274293495612" y="-112.87989579774825" font-family="calibri" font-size="4">8</text>
		<text x="527.5274293495612" y="-107.68374337504162" font-family="calibri" font-size="4">8</text>
		<text x="553.2402422706632" y="-124.34399741288601" font-family="calibri" font-size="4">64</text>

<!-- Arrow -->
		<path opacity="0.5" stroke="black" d="M582.9530551917652 -127.14784499017938 L645.3264443242206 -108.13090548134082"/>
		<circle opacity="0.5" cx="645.3264443242206" cy="-108.13090548134082" r="1" fill="black" />
<!-- Arrow -->
		<path opacity="0.5" stroke="black" d="M653.9866983620649 -110.63090548134082 L697.2879685512869 -123.13090548134082"/>
		<circle opacity="0.5" cx="697.2879685512869" cy="-123.13090548134082" r="1" fill="black" />
		<path opacity="0.75" fill="darkturquoise" d="M651.4866983620649 -199.3985093692458 L656.4866983620649 -195.0683823503236 L656.4866983620649 -21.863301593435835 L651.4866983620649 -26.193428612358048 L651.4866983620649 -199.3985093692458"/>
		<path opacity="0.75" fill="darkturquoise" d="M642.8264443242206 -196.8985093692458 L647.8264443242206 -192.5683823503236 L647.8264443242206 -19.363301593435835 L642.8264443242206 -23.693428612358048 L642.8264443242206 -196.8985093692458"/>
		<path opacity="0.75" fill="darkturquoise" d="M651.4866983620649 -199.3985093692458 L642.8264443242206 -196.8985093692458 L642.8264443242206 -23.693428612358048 L651.4866983620649 -26.193428612358048 L651.4866983620649 -199.3985093692458"/>
		<path opacity="0.75" fill="darkturquoise" d="M656.4866983620649 -195.0683823503236 L647.8264443242206 -192.5683823503236 L647.8264443242206 -19.363301593435835 L656.4866983620649 -21.863301593435835 L656.4866983620649 -195.0683823503236"/>
		<path opacity="0.75" fill="darkturquoise" d="M651.4866983620649 -199.3985093692458 L656.4866983620649 -195.0683823503236 L647.8264443242206 -192.5683823503236 L642.8264443242206 -196.8985093692458 L651.4866983620649 -199.3985093692458"/>
		<path opacity="0.75" fill="darkturquoise" d="M651.4866983620649 -26.193428612358048 L656.4866983620649 -21.863301593435835 L647.8264443242206 -19.363301593435835 L642.8264443242206 -23.693428612358048 L651.4866983620649 -26.193428612358048"/>
		<text x="642.8264443242206" y="-110.29596899080192" font-family="calibri" font-size="4">200</text>
		<text x="645.3264443242206" y="-21.52836510289694" font-family="calibri" font-size="4">10</text>
		<text x="647.1565713431428" y="-198.1485093692458" font-family="calibri" font-size="4">10</text>

		<path opacity="0.75" fill="pink" d="M482.89902979125884 -102.73782944790409 L485.39902979125884 -100.57276593844298 L529.2843406577923 -112.16652742851687 L482.89902979125884 -102.73782944790409"/>
		<path opacity="0.75" fill="pink" d="M482.89902979125884 -102.73782944790409 L482.89902979125884 -98.4077024289819 L529.2843406577923 -112.16652742851687 L482.89902979125884 -102.73782944790409"/>
		<path opacity="0.75" fill="pink" d="M485.39902979125884 -100.57276593844298 L485.39902979125884 -96.2426389195208 L529.2843406577923 -112.16652742851687 L485.39902979125884 -100.57276593844298"/>
		<path opacity="0.75" fill="pink" d="M482.89902979125884 -98.4077024289819 L485.39902979125884 -96.2426389195208 L529.2843406577923 -112.16652742851687 L482.89902979125884 -98.4077024289819"/>

		<path opacity="0.75" fill="darkturquoise" d="M482.89902979125884 -102.73782944790409 L485.39902979125884 -100.57276593844298 L485.39902979125884 -96.2426389195208 L482.89902979125884 -98.4077024289819 L482.89902979125884 -102.73782944790409"/>
		<path opacity="0.75" fill="darkturquoise" d="M427.4734039490548 -86.73782944790409 L429.9734039490548 -84.57276593844298 L429.9734039490548 -80.2426389195208 L427.4734039490548 -82.4077024289819 L427.4734039490548 -86.73782944790409"/>
		<path opacity="0.75" fill="darkturquoise" d="M482.89902979125884 -102.73782944790409 L427.4734039490548 -86.73782944790409 L427.4734039490548 -82.4077024289819 L482.89902979125884 -98.4077024289819 L482.89902979125884 -102.73782944790409"/>
		<path opacity="0.75" fill="darkturquoise" d="M485.39902979125884 -100.57276593844298 L429.9734039490548 -84.57276593844298 L429.9734039490548 -80.2426389195208 L485.39902979125884 -96.2426389195208 L485.39902979125884 -100.57276593844298"/>
		<path opacity="0.75" fill="darkturquoise" d="M482.89902979125884 -102.73782944790409 L485.39902979125884 -100.57276593844298 L429.9734039490548 -84.57276593844298 L427.4734039490548 -86.73782944790409 L482.89902979125884 -102.73782944790409"/>
		<path opacity="0.75" fill="darkturquoise" d="M482.89902979125884 -98.4077024289819 L485.39902979125884 -96.2426389195208 L429.9734039490548 -80.2426389195208 L427.4734039490548 -82.4077024289819 L482.89902979125884 -98.4077024289819"/>
		<text x="427.4734039490548" y="-84.572765938443" font-family="calibri" font-size="4">5</text>
		<text x="428.7234039490548" y="-81.32517067425135" font-family="calibri" font-size="4">5</text>
		<text x="455.18621687015684" y="-94.73782944790409" font-family="calibri" font-size="4">64</text>

		<path opacity="0.5" fill="orange" d="M482.2261591603392 -103.84399741288601 L486.2261591603392 -100.37989579774826 L486.2261591603392 -93.45169256747275 L482.2261591603392 -96.9157941826105 L482.2261591603392 -103.84399741288601"/>
		<path opacity="0.5" fill="orange" d="M426.80053331813514 -87.84399741288601 L430.80053331813514 -84.37989579774826 L430.80053331813514 -77.45169256747275 L426.80053331813514 -80.9157941826105 L426.80053331813514 -87.84399741288601"/>
		<path opacity="0.5" fill="orange" d="M482.2261591603392 -103.84399741288601 L426.80053331813514 -87.84399741288601 L426.80053331813514 -80.9157941826105 L482.2261591603392 -96.9157941826105 L482.2261591603392 -103.84399741288601"/>
		<path opacity="0.5" fill="orange" d="M486.2261591603392 -100.37989579774826 L430.80053331813514 -84.37989579774826 L430.80053331813514 -77.45169256747275 L486.2261591603392 -93.45169256747275 L486.2261591603392 -100.37989579774826"/>
		<path opacity="0.5" fill="orange" d="M482.2261591603392 -103.84399741288601 L486.2261591603392 -100.37989579774826 L430.80053331813514 -84.37989579774826 L426.80053331813514 -87.84399741288601 L482.2261591603392 -103.84399741288601"/>
		<path opacity="0.5" fill="orange" d="M482.2261591603392 -96.9157941826105 L486.2261591603392 -93.45169256747275 L430.80053331813514 -77.45169256747275 L426.80053331813514 -80.9157941826105 L482.2261591603392 -96.9157941826105"/>
		<text x="426.80053331813514" y="-84.37989579774825" font-family="calibri" font-size="4">8</text>
		<text x="428.80053331813514" y="-79.18374337504162" font-family="calibri" font-size="4">8</text>
		<text x="454.5133462392372" y="-95.84399741288601" font-family="calibri" font-size="4">64</text>

<!-- Arrow -->
		<path opacity="0.5" stroke="black" d="M377.11464418567977 -92.40913799607175 L428.80053331813514 -82.64784499017938"/>
		<circle opacity="0.5" cx="428.80053331813514" cy="-82.64784499017938" r="1" fill="black" />
		<path opacity="0.5" fill="orange" d="M375.11464418567977 -97.60529041877838 L379.11464418567977 -94.14118880364063 L379.11464418567977 -87.21298557336512 L375.11464418567977 -90.67708718850287 L375.11464418567977 -97.60529041877838"/>
		<path opacity="0.5" fill="orange" d="M319.6890183434757 -81.60529041877838 L323.6890183434757 -78.14118880364063 L323.6890183434757 -71.21298557336512 L319.6890183434757 -74.67708718850287 L319.6890183434757 -81.60529041877838"/>
		<path opacity="0.5" fill="orange" d="M375.11464418567977 -97.60529041877838 L319.6890183434757 -81.60529041877838 L319.6890183434757 -74.67708718850287 L375.11464418567977 -90.67708718850287 L375.11464418567977 -97.60529041877838"/>
		<path opacity="0.5" fill="orange" d="M379.11464418567977 -94.14118880364063 L323.6890183434757 -78.14118880364063 L323.6890183434757 -71.21298557336512 L379.11464418567977 -87.21298557336512 L379.11464418567977 -94.14118880364063"/>
		<path opacity="0.5" fill="orange" d="M375.11464418567977 -97.60529041877838 L379.11464418567977 -94.14118880364063 L323.6890183434757 -78.14118880364063 L319.6890183434757 -81.60529041877838 L375.11464418567977 -97.60529041877838"/>
		<path opacity="0.5" fill="orange" d="M375.11464418567977 -90.67708718850287 L379.11464418567977 -87.21298557336512 L323.6890183434757 -71.21298557336512 L319.6890183434757 -74.67708718850287 L375.11464418567977 -90.67708718850287"/>
		<text x="319.6890183434757" y="-78.14118880364063" font-family="calibri" font-size="4">8</text>
		<text x="321.6890183434757" y="-72.945036380934" font-family="calibri" font-size="4">8</text>
		<text x="347.4018312645777" y="-89.60529041877838" font-family="calibri" font-size="4">64</text>

<!-- Arrow -->
		<path opacity="0.5" stroke="black" d="M561.3415402171058 -46.86396597250227 L645.3264443242206 -108.13090548134082"/>
		<circle opacity="0.5" cx="645.3264443242206" cy="-108.13090548134082" r="1" fill="black" />
		<path opacity="0.75" fill="pink" d="M275.4218952628775 -67.57486421354167 L277.9218952628775 -65.40980070408058 L321.2326705292147 -74.24855348116579 L275.4218952628775 -67.57486421354167"/>
		<path opacity="0.75" fill="pink" d="M275.4218952628775 -67.57486421354167 L275.4218952628775 -63.24473719461949 L321.2326705292147 -74.24855348116579 L275.4218952628775 -67.57486421354167"/>
		<path opacity="0.75" fill="pink" d="M277.9218952628775 -65.40980070408058 L277.9218952628775 -61.07967368515839 L321.2326705292147 -74.24855348116579 L277.9218952628775 -65.40980070408058"/>
		<path opacity="0.75" fill="pink" d="M275.4218952628775 -63.24473719461949 L277.9218952628775 -61.07967368515839 L321.2326705292147 -74.24855348116579 L275.4218952628775 -63.24473719461949"/>

<!-- Arrow -->
		<path opacity="0.5" stroke="black" d="M334.12812921102034 -30.636551984287003 L428.80053331813514 -82.64784499017938"/>
		<circle opacity="0.5" cx="428.80053331813514" cy="-82.64784499017938" r="1" fill="black" />
		<path opacity="0.75" fill="darkturquoise" d="M275.4218952628775 -67.57486421354167 L277.9218952628775 -65.40980070408058 L277.9218952628775 -61.07967368515839 L275.4218952628775 -63.24473719461949 L275.4218952628775 -67.57486421354167"/>
		<path opacity="0.75" fill="darkturquoise" d="M219.99626942067343 -51.57486421354168 L222.49626942067343 -49.40980070408058 L222.49626942067343 -45.07967368515839 L219.99626942067343 -47.24473719461949 L219.99626942067343 -51.57486421354168"/>
		<path opacity="0.75" fill="darkturquoise" d="M275.4218952628775 -67.57486421354167 L219.99626942067343 -51.57486421354168 L219.99626942067343 -47.24473719461949 L275.4218952628775 -63.24473719461949 L275.4218952628775 -67.57486421354167"/>
		<path opacity="0.75" fill="darkturquoise" d="M277.9218952628775 -65.40980070408058 L222.49626942067343 -49.40980070408058 L222.49626942067343 -45.07967368515839 L277.9218952628775 -61.07967368515839 L277.9218952628775 -65.40980070408058"/>
		<path opacity="0.75" fill="darkturquoise" d="M275.4218952628775 -67.57486421354167 L277.9218952628775 -65.40980070408058 L222.49626942067343 -49.40980070408058 L219.99626942067343 -51.57486421354168 L275.4218952628775 -67.57486421354167"/>
		<path opacity="0.75" fill="darkturquoise" d="M275.4218952628775 -63.24473719461949 L277.9218952628775 -61.07967368515839 L222.49626942067343 -45.07967368515839 L219.99626942067343 -47.24473719461949 L275.4218952628775 -63.24473719461949"/>
		<text x="219.99626942067343" y="-49.40980070408058" font-family="calibri" font-size="4">5</text>
		<text x="221.24626942067343" y="-46.162205439888936" font-family="calibri" font-size="4">5</text>
		<text x="247.70908234177546" y="-59.57486421354167" font-family="calibri" font-size="4">64</text>

		<path opacity="0.5" fill="orange" d="M274.38774815425376 -74.30144284148501 L282.38774815425376 -67.3732396112095 L282.38774815425376 -53.516833150658485 L274.38774815425376 -60.445036380934 L274.38774815425376 -74.30144284148501"/>
		<path opacity="0.5" fill="orange" d="M218.9621223120497 -58.30144284148501 L226.9621223120497 -51.373239611209506 L226.9621223120497 -37.516833150658485 L218.9621223120497 -44.445036380934 L218.9621223120497 -58.30144284148501"/>
		<path opacity="0.5" fill="orange" d="M274.38774815425376 -74.30144284148501 L218.9621223120497 -58.30144284148501 L218.9621223120497 -44.445036380934 L274.38774815425376 -60.445036380934 L274.38774815425376 -74.30144284148501"/>
		<path opacity="0.5" fill="orange" d="M282.38774815425376 -67.3732396112095 L226.9621223120497 -51.373239611209506 L226.9621223120497 -37.516833150658485 L282.38774815425376 -53.516833150658485 L282.38774815425376 -67.3732396112095"/>
		<path opacity="0.5" fill="orange" d="M274.38774815425376 -74.30144284148501 L282.38774815425376 -67.3732396112095 L226.9621223120497 -51.373239611209506 L218.9621223120497 -58.30144284148501 L274.38774815425376 -74.30144284148501"/>
		<path opacity="0.5" fill="orange" d="M274.38774815425376 -60.445036380934 L282.38774815425376 -53.516833150658485 L226.9621223120497 -37.516833150658485 L218.9621223120497 -44.445036380934 L274.38774815425376 -60.445036380934"/>
		<text x="218.9621223120497" y="-51.373239611209506" font-family="calibri" font-size="4">16</text>
		<text x="222.9621223120497" y="-40.98093476579624" font-family="calibri" font-size="4">16</text>
		<text x="246.67493523315173" y="-66.30144284148501" font-family="calibri" font-size="4">64</text>

<!-- Arrow -->
		<path opacity="0.5" stroke="black" d="M178.40123317959436 -51.5 L222.9621223120497 -47.90913799607175"/>
		<circle opacity="0.5" cx="222.9621223120497" cy="-47.90913799607175" r="1" fill="black" />
		<path opacity="0.5" fill="orange" d="M174.40123317959436 -61.892304845413264 L182.40123317959436 -54.96410161513776 L182.40123317959436 -41.107695154586736 L174.40123317959436 -48.03589838486224 L174.40123317959436 -61.892304845413264"/>
		<path opacity="0.5" fill="orange" d="M118.97560733739029 -45.892304845413264 L126.97560733739029 -38.96410161513776 L126.97560733739029 -25.107695154586736 L118.97560733739029 -32.03589838486224 L118.97560733739029 -45.892304845413264"/>
		<path opacity="0.5" fill="orange" d="M174.40123317959436 -61.892304845413264 L118.97560733739029 -45.892304845413264 L118.97560733739029 -32.03589838486224 L174.40123317959436 -48.03589838486224 L174.40123317959436 -61.892304845413264"/>
		<path opacity="0.5" fill="orange" d="M182.40123317959436 -54.96410161513776 L126.97560733739029 -38.96410161513776 L126.97560733739029 -25.107695154586736 L182.40123317959436 -41.107695154586736 L182.40123317959436 -54.96410161513776"/>
		<path opacity="0.5" fill="orange" d="M174.40123317959436 -61.892304845413264 L182.40123317959436 -54.96410161513776 L126.97560733739029 -38.96410161513776 L118.97560733739029 -45.892304845413264 L174.40123317959436 -61.892304845413264"/>
		<path opacity="0.5" fill="orange" d="M174.40123317959436 -48.03589838486224 L182.40123317959436 -41.107695154586736 L126.97560733739029 -25.107695154586736 L118.97560733739029 -32.03589838486224 L174.40123317959436 -48.03589838486224"/>
		<text x="118.97560733739029" y="-38.96410161513775" font-family="calibri" font-size="4">16</text>
		<text x="122.97560733739029" y="-28.57179676972449" font-family="calibri" font-size="4">16</text>
		<text x="146.68842025849233" y="-53.892304845413264" font-family="calibri" font-size="4">64</text>

		<path opacity="0.5" fill="orange" d="M559.3415402171058 -52.06011839520889 L563.3415402171058 -48.59601678007114 L563.3415402171058 -41.66781354979564 L559.3415402171058 -45.13191516493339 L559.3415402171058 -52.06011839520889"/>
		<path opacity="0.5" fill="orange" d="M503.9159143749017 -36.06011839520889 L507.9159143749017 -32.59601678007114 L507.9159143749017 -25.66781354979564 L503.9159143749017 -29.13191516493339 L503.9159143749017 -36.06011839520889"/>
		<path opacity="0.5" fill="orange" d="M559.3415402171058 -52.06011839520889 L503.9159143749017 -36.06011839520889 L503.9159143749017 -29.13191516493339 L559.3415402171058 -45.13191516493339 L559.3415402171058 -52.06011839520889"/>
		<path opacity="0.5" fill="orange" d="M563.3415402171058 -48.59601678007114 L507.9159143749017 -32.59601678007114 L507.9159143749017 -25.66781354979564 L563.3415402171058 -41.66781354979564 L563.3415402171058 -48.59601678007114"/>
		<path opacity="0.5" fill="orange" d="M559.3415402171058 -52.06011839520889 L563.3415402171058 -48.59601678007114 L507.9159143749017 -32.59601678007114 L503.9159143749017 -36.06011839520889 L559.3415402171058 -52.06011839520889"/>
		<path opacity="0.5" fill="orange" d="M559.3415402171058 -45.13191516493339 L563.3415402171058 -41.66781354979564 L507.9159143749017 -25.66781354979564 L503.9159143749017 -29.13191516493339 L559.3415402171058 -45.13191516493339"/>
		<text x="503.9159143749017" y="-32.59601678007114" font-family="calibri" font-size="4">8</text>
		<text x="505.9159143749017" y="-27.399864357364514" font-family="calibri" font-size="4">8</text>
		<text x="531.6287272960037" y="-44.06011839520889" font-family="calibri" font-size="4">64</text>

<!-- Arrow -->
		<path opacity="0.5" stroke="black" d="M206.90123317959436 -26.818275992143505 L222.9621223120497 -47.90913799607175"/>
		<circle opacity="0.5" cx="222.9621223120497" cy="-47.90913799607175" r="1" fill="black" />
		<path opacity="0.75" fill="pink" d="M78.6210080646793 -34.715259336283886 L81.1210080646793 -32.55019582682279 L126.23667228490919 -32.580604432835855 L78.6210080646793 -34.715259336283886"/>
		<path opacity="0.75" fill="pink" d="M78.6210080646793 -34.715259336283886 L78.6210080646793 -30.385132317361695 L126.23667228490919 -32.580604432835855 L78.6210080646793 -34.715259336283886"/>
		<path opacity="0.75" fill="pink" d="M81.1210080646793 -32.55019582682279 L81.1210080646793 -28.220068807900596 L126.23667228490919 -32.580604432835855 L81.1210080646793 -32.55019582682279"/>
		<path opacity="0.75" fill="pink" d="M78.6210080646793 -30.385132317361695 L81.1210080646793 -28.220068807900596 L126.23667228490919 -32.580604432835855 L78.6210080646793 -30.385132317361695"/>

		<path opacity="0.5" fill="orange" d="M332.12812921102034 -35.83270440699364 L336.12812921102034 -32.368602791855885 L336.12812921102034 -25.44039956158037 L332.12812921102034 -28.904501176718128 L332.12812921102034 -35.83270440699364"/>
		<path opacity="0.5" fill="orange" d="M276.7025033688163 -19.832704406993642 L280.7025033688163 -16.368602791855885 L280.7025033688163 -9.44039956158037 L276.7025033688163 -12.904501176718128 L276.7025033688163 -19.832704406993642"/>
		<path opacity="0.5" fill="orange" d="M332.12812921102034 -35.83270440699364 L276.7025033688163 -19.832704406993642 L276.7025033688163 -12.904501176718128 L332.12812921102034 -28.904501176718128 L332.12812921102034 -35.83270440699364"/>
		<path opacity="0.5" fill="orange" d="M336.12812921102034 -32.368602791855885 L280.7025033688163 -16.368602791855885 L280.7025033688163 -9.44039956158037 L336.12812921102034 -25.44039956158037 L336.12812921102034 -32.368602791855885"/>
		<path opacity="0.5" fill="orange" d="M332.12812921102034 -35.83270440699364 L336.12812921102034 -32.368602791855885 L280.7025033688163 -16.368602791855885 L276.7025033688163 -19.832704406993642 L332.12812921102034 -35.83270440699364"/>
		<path opacity="0.5" fill="orange" d="M332.12812921102034 -28.904501176718128 L336.12812921102034 -25.44039956158037 L280.7025033688163 -9.44039956158037 L276.7025033688163 -12.904501176718128 L332.12812921102034 -28.904501176718128"/>
		<text x="276.7025033688163" y="-16.368602791855885" font-family="calibri" font-size="4">8</text>
		<text x="278.7025033688163" y="-11.17245036914925" font-family="calibri" font-size="4">8</text>
		<text x="304.41531628991834" y="-27.832704406993642" font-family="calibri" font-size="4">64</text>

		<path opacity="0.75" fill="pink" d="M461.5045774424745 -20.593477183088496 L464.0045774424745 -18.428413673627404 L506.19891780460216 -31.418183819384282 L461.5045774424745 -20.593477183088496"/>
		<path opacity="0.75" fill="pink" d="M461.5045774424745 -20.593477183088496 L461.5045774424745 -16.26335016416631 L506.19891780460216 -31.418183819384282 L461.5045774424745 -20.593477183088496"/>
		<path opacity="0.75" fill="pink" d="M464.0045774424745 -18.428413673627404 L464.0045774424745 -14.09828665470522 L506.19891780460216 -31.418183819384282 L464.0045774424745 -18.428413673627404"/>
		<path opacity="0.75" fill="pink" d="M461.5045774424745 -16.26335016416631 L464.0045774424745 -14.09828665470522 L506.19891780460216 -31.418183819384282 L461.5045774424745 -16.26335016416631"/>

		<path opacity="0.75" fill="darkturquoise" d="M78.6210080646793 -34.715259336283886 L81.1210080646793 -32.55019582682279 L81.1210080646793 -28.220068807900596 L78.6210080646793 -30.385132317361695 L78.6210080646793 -34.715259336283886"/>
		<path opacity="0.75" fill="darkturquoise" d="M50.90819514357726 -26.715259336283886 L53.40819514357726 -24.550195826822787 L53.40819514357726 -20.220068807900596 L50.90819514357726 -22.385132317361695 L50.90819514357726 -26.715259336283886"/>
		<path opacity="0.75" fill="darkturquoise" d="M78.6210080646793 -34.715259336283886 L50.90819514357726 -26.715259336283886 L50.90819514357726 -22.385132317361695 L78.6210080646793 -30.385132317361695 L78.6210080646793 -34.715259336283886"/>
		<path opacity="0.75" fill="darkturquoise" d="M81.1210080646793 -32.55019582682279 L53.40819514357726 -24.550195826822787 L53.40819514357726 -20.220068807900596 L81.1210080646793 -28.220068807900596 L81.1210080646793 -32.55019582682279"/>
		<path opacity="0.75" fill="darkturquoise" d="M78.6210080646793 -34.715259336283886 L81.1210080646793 -32.55019582682279 L53.40819514357726 -24.550195826822787 L50.90819514357726 -26.715259336283886 L78.6210080646793 -34.715259336283886"/>
		<path opacity="0.75" fill="darkturquoise" d="M78.6210080646793 -30.385132317361695 L81.1210080646793 -28.220068807900596 L53.40819514357726 -20.220068807900596 L50.90819514357726 -22.385132317361695 L78.6210080646793 -30.385132317361695"/>
		<text x="50.90819514357726" y="-24.55019582682279" font-family="calibri" font-size="4">5</text>
		<text x="52.15819514357726" y="-21.302600562631145" font-family="calibri" font-size="4">5</text>
		<text x="64.76460160412827" y="-30.715259336283886" font-family="calibri" font-size="4">32</text>

		<path opacity="0.5" fill="orange" d="M71.67433714816835 -43.78460969082653 L87.67433714816835 -29.92820323027551 L87.67433714816835 -2.215390309173472 L71.67433714816835 -16.07179676972449 L71.67433714816835 -43.78460969082653"/>
		<path opacity="0.5" fill="orange" d="M43.96152422706631 -35.78460969082653 L59.96152422706631 -21.92820323027551 L59.96152422706631 5.784609690826528 L43.96152422706631 -8.07179676972449 L43.96152422706631 -35.78460969082653"/>
		<path opacity="0.5" fill="orange" d="M71.67433714816835 -43.78460969082653 L43.96152422706631 -35.78460969082653 L43.96152422706631 -8.07179676972449 L71.67433714816835 -16.07179676972449 L71.67433714816835 -43.78460969082653"/>
		<path opacity="0.5" fill="orange" d="M87.67433714816835 -29.92820323027551 L59.96152422706631 -21.92820323027551 L59.96152422706631 5.784609690826528 L87.67433714816835 -2.215390309173472 L87.67433714816835 -29.92820323027551"/>
		<path opacity="0.5" fill="orange" d="M71.67433714816835 -43.78460969082653 L87.67433714816835 -29.92820323027551 L59.96152422706631 -21.92820323027551 L43.96152422706631 -35.78460969082653 L71.67433714816835 -43.78460969082653"/>
		<path opacity="0.5" fill="orange" d="M71.67433714816835 -16.07179676972449 L87.67433714816835 -2.215390309173472 L59.96152422706631 5.784609690826528 L43.96152422706631 -8.07179676972449 L71.67433714816835 -16.07179676972449"/>
		<text x="43.96152422706631" y="-21.928203230275507" font-family="calibri" font-size="4">32</text>
		<text x="51.96152422706631" y="-1.1435935394489807" font-family="calibri" font-size="4">32</text>
		<text x="57.817930687617334" y="-39.78460969082653" font-family="calibri" font-size="4">32</text>

		<path opacity="0.5" fill="orange" d="M202.90123317959436 -37.21058083755677 L210.90123317959436 -30.28237760728126 L210.90123317959436 -16.42597114673024 L202.90123317959436 -23.354174377005748 L202.90123317959436 -37.21058083755677"/>
		<path opacity="0.5" fill="orange" d="M147.4756073373903 -21.21058083755677 L155.4756073373903 -14.282377607281258 L155.4756073373903 -0.42597114673024095 L147.4756073373903 -7.354174377005748 L147.4756073373903 -21.21058083755677"/>
		<path opacity="0.5" fill="orange" d="M202.90123317959436 -37.21058083755677 L147.4756073373903 -21.21058083755677 L147.4756073373903 -7.354174377005748 L202.90123317959436 -23.354174377005748 L202.90123317959436 -37.21058083755677"/>
		<path opacity="0.5" fill="orange" d="M210.90123317959436 -30.28237760728126 L155.4756073373903 -14.282377607281258 L155.4756073373903 -0.42597114673024095 L210.90123317959436 -16.42597114673024 L210.90123317959436 -30.28237760728126"/>
		<path opacity="0.5" fill="orange" d="M202.90123317959436 -37.21058083755677 L210.90123317959436 -30.28237760728126 L155.4756073373903 -14.282377607281258 L147.4756073373903 -21.21058083755677 L202.90123317959436 -37.21058083755677"/>
		<path opacity="0.5" fill="orange" d="M202.90123317959436 -23.354174377005748 L210.90123317959436 -16.42597114673024 L155.4756073373903 -0.42597114673024095 L147.4756073373903 -7.354174377005748 L202.90123317959436 -23.354174377005748"/>
		<text x="147.4756073373903" y="-14.282377607281258" font-family="calibri" font-size="4">16</text>
		<text x="151.4756073373903" y="-3.8900727618679944" font-family="calibri" font-size="4">16</text>
		<text x="175.18842025849233" y="-29.21058083755677" font-family="calibri" font-size="4">64</text>

		<path opacity="0.75" fill="darkturquoise" d="M461.5045774424745 -20.593477183088496 L464.0045774424745 -18.428413673627404 L464.0045774424745 -14.09828665470522 L461.5045774424745 -16.26335016416631 L461.5045774424745 -20.593477183088496"/>
		<path opacity="0.75" fill="darkturquoise" d="M406.07895160027044 -4.5934771830884955 L408.57895160027044 -2.4284136736274036 L408.57895160027044 1.9017133452947803 L406.07895160027044 -0.26335016416631163 L406.07895160027044 -4.5934771830884955"/>
		<path opacity="0.75" fill="darkturquoise" d="M461.5045774424745 -20.593477183088496 L406.07895160027044 -4.5934771830884955 L406.07895160027044 -0.26335016416631163 L461.5045774424745 -16.26335016416631 L461.5045774424745 -20.593477183088496"/>
		<path opacity="0.75" fill="darkturquoise" d="M464.0045774424745 -18.428413673627404 L408.57895160027044 -2.4284136736274036 L408.57895160027044 1.9017133452947803 L464.0045774424745 -14.09828665470522 L464.0045774424745 -18.428413673627404"/>
		<path opacity="0.75" fill="darkturquoise" d="M461.5045774424745 -20.593477183088496 L464.0045774424745 -18.428413673627404 L408.57895160027044 -2.4284136736274036 L406.07895160027044 -4.5934771830884955 L461.5045774424745 -20.593477183088496"/>
		<path opacity="0.75" fill="darkturquoise" d="M461.5045774424745 -16.26335016416631 L464.0045774424745 -14.09828665470522 L408.57895160027044 1.9017133452947803 L406.07895160027044 -0.26335016416631163 L461.5045774424745 -16.26335016416631"/>
		<text x="406.07895160027044" y="-2.4284136736274036" font-family="calibri" font-size="4">5</text>
		<text x="407.32895160027044" y="0.8191815905642343" font-family="calibri" font-size="4">5</text>
		<text x="433.79176452137244" y="-12.593477183088496" font-family="calibri" font-size="4">64</text>

		<path opacity="0.5" fill="orange" d="M460.6146441856798 -23.56011839520889 L464.6146441856798 -20.09601678007114 L464.6146441856798 -13.167813549795639 L460.6146441856798 -16.63191516493339 L460.6146441856798 -23.56011839520889"/>
		<path opacity="0.5" fill="orange" d="M405.1890183434757 -7.560118395208889 L409.1890183434757 -4.096016780071139 L409.1890183434757 2.832186450204361 L405.1890183434757 -0.631915164933389 L405.1890183434757 -7.560118395208889"/>
		<path opacity="0.5" fill="orange" d="M460.6146441856798 -23.56011839520889 L405.1890183434757 -7.560118395208889 L405.1890183434757 -0.631915164933389 L460.6146441856798 -16.63191516493339 L460.6146441856798 -23.56011839520889"/>
		<path opacity="0.5" fill="orange" d="M464.6146441856798 -20.09601678007114 L409.1890183434757 -4.096016780071139 L409.1890183434757 2.832186450204361 L464.6146441856798 -13.167813549795639 L464.6146441856798 -20.09601678007114"/>
		<path opacity="0.5" fill="orange" d="M460.6146441856798 -23.56011839520889 L464.6146441856798 -20.09601678007114 L409.1890183434757 -4.096016780071139 L405.1890183434757 -7.560118395208889 L460.6146441856798 -23.56011839520889"/>
		<path opacity="0.5" fill="orange" d="M460.6146441856798 -16.63191516493339 L464.6146441856798 -13.167813549795639 L409.1890183434757 2.832186450204361 L405.1890183434757 -0.631915164933389 L460.6146441856798 -16.63191516493339"/>
		<text x="405.1890183434757" y="-4.096016780071139" font-family="calibri" font-size="4">8</text>
		<text x="407.1890183434757" y="1.100135642635486" font-family="calibri" font-size="4">8</text>
		<text x="432.90183126457777" y="-15.560118395208889" font-family="calibri" font-size="4">64</text>

<!-- Arrow -->
		<path opacity="0.5" stroke="black" d="M362.62812921102034 -5.954827976430508 L407.1890183434757 -2.363965972502264"/>
		<circle opacity="0.5" cx="407.1890183434757" cy="-2.363965972502264" r="1" fill="black" />
		<path opacity="0.75" fill="pink" d="M236.5942949786785 -2.529031280247942 L239.0942949786785 -0.36396777078684295 L279.4981193830622 -12.171454467789658 L236.5942949786785 -2.529031280247942"/>
		<path opacity="0.75" fill="pink" d="M236.5942949786785 -2.529031280247942 L236.5942949786785 1.801095738674249 L279.4981193830622 -12.171454467789658 L236.5942949786785 -2.529031280247942"/>
		<path opacity="0.75" fill="pink" d="M239.0942949786785 -0.36396777078684295 L239.0942949786785 3.966159248135348 L279.4981193830622 -12.171454467789658 L239.0942949786785 -0.36396777078684295"/>
		<path opacity="0.75" fill="pink" d="M236.5942949786785 1.801095738674249 L239.0942949786785 3.966159248135348 L279.4981193830622 -12.171454467789658 L236.5942949786785 1.801095738674249"/>

		<path opacity="0.75" fill="pink" d="M10.280654855111072 -7.5540662738341675 L15.280654855111074 -3.2239392549119747 L51.43256900508677 -18.290297509282045 L10.280654855111072 -7.5540662738341675"/>
		<path opacity="0.75" fill="pink" d="M10.280654855111072 -7.5540662738341675 L10.280654855111072 1.1061877640102198 L51.43256900508677 -18.290297509282045 L10.280654855111072 -7.5540662738341675"/>
		<path opacity="0.75" fill="pink" d="M15.280654855111074 -3.2239392549119747 L15.280654855111074 5.4363147829324125 L51.43256900508677 -18.290297509282045 L15.280654855111074 -3.2239392549119747"/>
		<path opacity="0.75" fill="pink" d="M10.280654855111072 1.1061877640102198 L15.280654855111074 5.4363147829324125 L51.43256900508677 -18.290297509282045 L10.280654855111072 1.1061877640102198"/>

		<path opacity="0.75" fill="pink" d="M105.70692850296187 -3.083407188074318 L108.20692850296187 -0.9183436786132226 L153.65398632729153 -14.93415308986457 L105.70692850296187 -3.083407188074318"/>
		<path opacity="0.75" fill="pink" d="M105.70692850296187 -3.083407188074318 L105.70692850296187 1.2467198308478729 L153.65398632729153 -14.93415308986457 L105.70692850296187 -3.083407188074318"/>
		<path opacity="0.75" fill="pink" d="M108.20692850296187 -0.9183436786132226 L108.20692850296187 3.4117833403089683 L153.65398632729153 -14.93415308986457 L108.20692850296187 -0.9183436786132226"/>
		<path opacity="0.75" fill="pink" d="M105.70692850296187 1.2467198308478729 L108.20692850296187 3.4117833403089683 L153.65398632729153 -14.93415308986457 L105.70692850296187 1.2467198308478729"/>

		<path opacity="0.75" fill="darkturquoise" d="M10.280654855111072 -7.5540662738341675 L15.280654855111074 -3.2239392549119747 L15.280654855111074 5.4363147829324125 L10.280654855111072 1.1061877640102198 L10.280654855111072 -7.5540662738341675"/>
		<path opacity="0.75" fill="darkturquoise" d="M-7.039853220577699 -2.5540662738341675 L-2.0398532205776974 1.7760607450880253 L-2.0398532205776974 10.436314782932413 L-7.039853220577699 6.10618776401022 L-7.039853220577699 -2.5540662738341675"/>
		<path opacity="0.75" fill="darkturquoise" d="M10.280654855111072 -7.5540662738341675 L-7.039853220577699 -2.5540662738341675 L-7.039853220577699 6.10618776401022 L10.280654855111072 1.1061877640102198 L10.280654855111072 -7.5540662738341675"/>
		<path opacity="0.75" fill="darkturquoise" d="M15.280654855111074 -3.2239392549119747 L-2.0398532205776974 1.7760607450880253 L-2.0398532205776974 10.436314782932413 L15.280654855111074 5.4363147829324125 L15.280654855111074 -3.2239392549119747"/>
		<path opacity="0.75" fill="darkturquoise" d="M10.280654855111072 -7.5540662738341675 L15.280654855111074 -3.2239392549119747 L-2.0398532205776974 1.7760607450880253 L-7.039853220577699 -2.5540662738341675 L10.280654855111072 -7.5540662738341675"/>
		<path opacity="0.75" fill="darkturquoise" d="M10.280654855111072 1.1061877640102198 L15.280654855111074 5.4363147829324125 L-2.0398532205776974 10.436314782932413 L-7.039853220577699 6.10618776401022 L10.280654855111072 1.1061877640102198"/>
		<text x="-7.039853220577699" y="1.7760607450880261" font-family="calibri" font-size="4">10</text>
		<text x="-4.539853220577698" y="8.271251273471316" font-family="calibri" font-size="4">10</text>
		<text x="1.6204008172666864" y="-5.0540662738341675" font-family="calibri" font-size="4">20</text>

		<path opacity="0.5" fill="orange" d="M0.6602540378443837 -23.284609690826528 L16.66025403784439 -9.42820323027551 L16.66025403784439 18.284609690826528 L0.6602540378443837 4.428203230275511 L0.6602540378443837 -23.284609690826528"/>
		<path opacity="0.5" fill="orange" d="M-16.66025403784439 -18.284609690826528 L-0.6602540378443837 -4.428203230275511 L-0.6602540378443837 23.284609690826528 L-16.66025403784439 9.42820323027551 L-16.66025403784439 -18.284609690826528"/>
		<path opacity="0.5" fill="orange" d="M0.6602540378443837 -23.284609690826528 L-16.66025403784439 -18.284609690826528 L-16.66025403784439 9.42820323027551 L0.6602540378443837 4.428203230275511 L0.6602540378443837 -23.284609690826528"/>
		<path opacity="0.5" fill="orange" d="M16.66025403784439 -9.42820323027551 L-0.6602540378443837 -4.428203230275511 L-0.6602540378443837 23.284609690826528 L16.66025403784439 18.284609690826528 L16.66025403784439 -9.42820323027551"/>
		<path opacity="0.5" fill="orange" d="M0.6602540378443837 -23.284609690826528 L16.66025403784439 -9.42820323027551 L-0.6602540378443837 -4.428203230275511 L-16.66025403784439 -18.284609690826528 L0.6602540378443837 -23.284609690826528"/>
		<path opacity="0.5" fill="orange" d="M0.6602540378443837 4.428203230275511 L16.66025403784439 18.284609690826528 L-0.6602540378443837 23.284609690826528 L-16.66025403784439 9.42820323027551 L0.6602540378443837 4.428203230275511"/>
		<text x="-16.66025403784439" y="-4.428203230275509" font-family="calibri" font-size="4">32</text>
		<text x="-8.660254037844386" y="16.35640646055102" font-family="calibri" font-size="4">32</text>
		<text x="-8.000000000000004" y="-20.784609690826528" font-family="calibri" font-size="4">20</text>

		<path opacity="0.5" fill="orange" d="M360.62812921102034 -11.15098039913714 L364.62812921102034 -7.686878783999376 L364.62812921102034 -0.7586755537238759 L360.62812921102034 -4.22277716886164 L360.62812921102034 -11.15098039913714"/>
		<path opacity="0.5" fill="orange" d="M305.2025033688163 4.84901960086286 L309.2025033688163 8.313121216000624 L309.2025033688163 15.241324446276124 L305.2025033688163 11.77722283113836 L305.2025033688163 4.84901960086286"/>
		<path opacity="0.5" fill="orange" d="M360.62812921102034 -11.15098039913714 L305.2025033688163 4.84901960086286 L305.2025033688163 11.77722283113836 L360.62812921102034 -4.22277716886164 L360.62812921102034 -11.15098039913714"/>
		<path opacity="0.5" fill="orange" d="M364.62812921102034 -7.686878783999376 L309.2025033688163 8.313121216000624 L309.2025033688163 15.241324446276124 L364.62812921102034 -0.7586755537238759 L364.62812921102034 -7.686878783999376"/>
		<path opacity="0.5" fill="orange" d="M360.62812921102034 -11.15098039913714 L364.62812921102034 -7.686878783999376 L309.2025033688163 8.313121216000624 L305.2025033688163 4.84901960086286 L360.62812921102034 -11.15098039913714"/>
		<path opacity="0.5" fill="orange" d="M360.62812921102034 -4.22277716886164 L364.62812921102034 -0.7586755537238759 L309.2025033688163 15.241324446276124 L305.2025033688163 11.77722283113836 L360.62812921102034 -4.22277716886164"/>
		<text x="305.2025033688163" y="8.31312121600061" font-family="calibri" font-size="4">8</text>
		<text x="307.2025033688163" y="13.509273638707242" font-family="calibri" font-size="4">8</text>
		<text x="332.91531628991834" y="-3.15098039913714" font-family="calibri" font-size="4">64</text>

		<path opacity="0.75" fill="darkturquoise" d="M236.5942949786785 -2.529031280247942 L239.0942949786785 -0.36396777078684295 L239.0942949786785 3.966159248135348 L236.5942949786785 1.801095738674249 L236.5942949786785 -2.529031280247942"/>
		<path opacity="0.75" fill="darkturquoise" d="M181.16866913647442 13.470968719752058 L183.66866913647442 15.636032229213157 L183.66866913647442 19.966159248135348 L181.16866913647442 17.80109573867425 L181.16866913647442 13.470968719752058"/>
		<path opacity="0.75" fill="darkturquoise" d="M236.5942949786785 -2.529031280247942 L181.16866913647442 13.470968719752058 L181.16866913647442 17.80109573867425 L236.5942949786785 1.801095738674249 L236.5942949786785 -2.529031280247942"/>
		<path opacity="0.75" fill="darkturquoise" d="M239.0942949786785 -0.36396777078684295 L183.66866913647442 15.636032229213157 L183.66866913647442 19.966159248135348 L239.0942949786785 3.966159248135348 L239.0942949786785 -0.36396777078684295"/>
		<path opacity="0.75" fill="darkturquoise" d="M236.5942949786785 -2.529031280247942 L239.0942949786785 -0.36396777078684295 L183.66866913647442 15.636032229213157 L181.16866913647442 13.470968719752058 L236.5942949786785 -2.529031280247942"/>
		<path opacity="0.75" fill="darkturquoise" d="M236.5942949786785 1.801095738674249 L239.0942949786785 3.966159248135348 L183.66866913647442 19.966159248135348 L181.16866913647442 17.80109573867425 L236.5942949786785 1.801095738674249"/>
		<text x="181.16866913647442" y="15.636032229213153" font-family="calibri" font-size="4">5</text>
		<text x="182.41866913647442" y="18.8836274934048" font-family="calibri" font-size="4">5</text>
		<text x="208.88148205757648" y="5.470968719752058" font-family="calibri" font-size="4">64</text>

		<path opacity="0.5" fill="orange" d="M231.40123317959439 -12.528856829700267 L239.40123317959439 -5.60065359942476 L239.40123317959439 8.255752861126254 L231.40123317959439 1.327549630850747 L231.40123317959439 -12.528856829700267"/>
		<path opacity="0.5" fill="orange" d="M175.9756073373903 3.471143170299733 L183.9756073373903 10.39934640057524 L183.9756073373903 24.255752861126254 L175.9756073373903 17.327549630850747 L175.9756073373903 3.471143170299733"/>
		<path opacity="0.5" fill="orange" d="M231.40123317959439 -12.528856829700267 L175.9756073373903 3.471143170299733 L175.9756073373903 17.327549630850747 L231.40123317959439 1.327549630850747 L231.40123317959439 -12.528856829700267"/>
		<path opacity="0.5" fill="orange" d="M239.40123317959439 -5.60065359942476 L183.9756073373903 10.39934640057524 L183.9756073373903 24.255752861126254 L239.40123317959439 8.255752861126254 L239.40123317959439 -5.60065359942476"/>
		<path opacity="0.5" fill="orange" d="M231.40123317959439 -12.528856829700267 L239.40123317959439 -5.60065359942476 L183.9756073373903 10.39934640057524 L175.9756073373903 3.471143170299733 L231.40123317959439 -12.528856829700267"/>
		<path opacity="0.5" fill="orange" d="M231.40123317959439 1.327549630850747 L239.40123317959439 8.255752861126254 L183.9756073373903 24.255752861126254 L175.9756073373903 17.327549630850747 L231.40123317959439 1.327549630850747"/>
		<text x="175.9756073373903" y="10.39934640057524" font-family="calibri" font-size="4">16</text>
		<text x="179.9756073373903" y="20.7916512459885" font-family="calibri" font-size="4">16</text>
		<text x="203.68842025849233" y="-4.528856829700267" font-family="calibri" font-size="4">64</text>

		<path opacity="0.75" fill="darkturquoise" d="M105.70692850296187 -3.083407188074318 L108.20692850296187 -0.9183436786132226 L108.20692850296187 3.4117833403089683 L105.70692850296187 1.2467198308478729 L105.70692850296187 -3.083407188074318"/>
		<path opacity="0.75" fill="darkturquoise" d="M77.99411558185983 4.916592811925682 L80.49411558185983 7.081656321386777 L80.49411558185983 11.411783340308968 L77.99411558185983 9.246719830847873 L77.99411558185983 4.916592811925682"/>
		<path opacity="0.75" fill="darkturquoise" d="M105.70692850296187 -3.083407188074318 L77.99411558185983 4.916592811925682 L77.99411558185983 9.246719830847873 L105.70692850296187 1.2467198308478729 L105.70692850296187 -3.083407188074318"/>
		<path opacity="0.75" fill="darkturquoise" d="M108.20692850296187 -0.9183436786132226 L80.49411558185983 7.081656321386777 L80.49411558185983 11.411783340308968 L108.20692850296187 3.4117833403089683 L108.20692850296187 -0.9183436786132226"/>
		<path opacity="0.75" fill="darkturquoise" d="M105.70692850296187 -3.083407188074318 L108.20692850296187 -0.9183436786132226 L80.49411558185983 7.081656321386777 L77.99411558185983 4.916592811925682 L105.70692850296187 -3.083407188074318"/>
		<path opacity="0.75" fill="darkturquoise" d="M105.70692850296187 1.2467198308478729 L108.20692850296187 3.4117833403089683 L80.49411558185983 11.411783340308968 L77.99411558185983 9.246719830847873 L105.70692850296187 1.2467198308478729"/>
		<text x="77.99411558185983" y="7.081656321386777" font-family="calibri" font-size="4">5</text>
		<text x="79.24411558185983" y="10.32925158557842" font-family="calibri" font-size="4">5</text>
		<text x="91.85052204241086" y="0.9165928119256819" font-family="calibri" font-size="4">32</text>

		<path opacity="0.5" fill="orange" d="M100.17433714816835 -19.102885682970033 L116.17433714816835 -5.246479222419012 L116.17433714816835 22.466333698683023 L100.17433714816835 8.609927238132009 L100.17433714816835 -19.102885682970033"/>
		<path opacity="0.5" fill="orange" d="M72.46152422706632 -11.102885682970031 L88.46152422706632 2.753520777580988 L88.46152422706632 30.466333698683023 L72.46152422706632 16.60992723813201 L72.46152422706632 -11.102885682970031"/>
		<path opacity="0.5" fill="orange" d="M100.17433714816835 -19.102885682970033 L72.46152422706632 -11.102885682970031 L72.46152422706632 16.60992723813201 L100.17433714816835 8.609927238132009 L100.17433714816835 -19.102885682970033"/>
		<path opacity="0.5" fill="orange" d="M116.17433714816835 -5.246479222419012 L88.46152422706632 2.753520777580988 L88.46152422706632 30.466333698683023 L116.17433714816835 22.466333698683023 L116.17433714816835 -5.246479222419012"/>
		<path opacity="0.5" fill="orange" d="M100.17433714816835 -19.102885682970033 L116.17433714816835 -5.246479222419012 L88.46152422706632 2.753520777580988 L72.46152422706632 -11.102885682970031 L100.17433714816835 -19.102885682970033"/>
		<path opacity="0.5" fill="orange" d="M100.17433714816835 8.609927238132009 L116.17433714816835 22.466333698683023 L88.46152422706632 30.466333698683023 L72.46152422706632 16.60992723813201 L100.17433714816835 8.609927238132009"/>
		<text x="72.46152422706632" y="2.753520777580989" font-family="calibri" font-size="4">32</text>
		<text x="80.46152422706632" y="23.538130468407516" font-family="calibri" font-size="4">32</text>
		<text x="86.31793068761733" y="-15.102885682970033" font-family="calibri" font-size="4">32</text>

<!-- Arrow -->
		<path opacity="0.5" stroke="black" d="M391.12812921102034 18.726896031425987 L407.1890183434757 -2.363965972502264"/>
		<circle opacity="0.5" cx="407.1890183434757" cy="-2.363965972502264" r="1" fill="black" />
		<path opacity="0.75" fill="pink" d="M32.16847273738561 21.840388218349005 L37.16847273738561 26.1705152372712 L87.03668144071159 13.680671827183023 L32.16847273738561 21.840388218349005"/>
		<path opacity="0.75" fill="pink" d="M32.16847273738561 21.840388218349005 L32.16847273738561 30.500642256193395 L87.03668144071159 13.680671827183023 L32.16847273738561 21.840388218349005"/>
		<path opacity="0.75" fill="pink" d="M37.16847273738561 26.1705152372712 L37.16847273738561 34.830769275115586 L87.03668144071159 13.680671827183023 L37.16847273738561 26.1705152372712"/>
		<path opacity="0.75" fill="pink" d="M32.16847273738561 30.500642256193395 L37.16847273738561 34.830769275115586 L87.03668144071159 13.680671827183023 L32.16847273738561 30.500642256193395"/>

		<path opacity="0.75" fill="pink" d="M262.4830046742534 19.117313878677933 L264.9830046742534 21.282377388139025 L308.664814257742 11.116473253563598 L262.4830046742534 19.117313878677933"/>
		<path opacity="0.75" fill="pink" d="M262.4830046742534 19.117313878677933 L262.4830046742534 23.44744089760013 L308.664814257742 11.116473253563598 L262.4830046742534 19.117313878677933"/>
		<path opacity="0.75" fill="pink" d="M264.9830046742534 21.282377388139025 L264.9830046742534 25.612504407061223 L308.664814257742 11.116473253563598 L264.9830046742534 21.282377388139025"/>
		<path opacity="0.75" fill="pink" d="M262.4830046742534 23.44744089760013 L264.9830046742534 25.612504407061223 L308.664814257742 11.116473253563598 L262.4830046742534 23.44744089760013"/>

		<path opacity="0.75" fill="pink" d="M133.6117728033486 28.847454173453592 L136.1117728033486 31.012517682914684 L178.97785108340162 12.766145323483634 L133.6117728033486 28.847454173453592"/>
		<path opacity="0.75" fill="pink" d="M133.6117728033486 28.847454173453592 L133.6117728033486 33.17758119237579 L178.97785108340162 12.766145323483634 L133.6117728033486 28.847454173453592"/>
		<path opacity="0.75" fill="pink" d="M136.1117728033486 31.012517682914684 L136.1117728033486 35.34264470183688 L178.97785108340162 12.766145323483634 L136.1117728033486 31.012517682914684"/>
		<path opacity="0.75" fill="pink" d="M133.6117728033486 33.17758119237579 L136.1117728033486 35.34264470183688 L178.97785108340162 12.766145323483634 L133.6117728033486 33.17758119237579"/>

		<path opacity="0.75" fill="darkturquoise" d="M32.16847273738561 21.840388218349005 L37.16847273738561 26.1705152372712 L37.16847273738561 34.830769275115586 L32.16847273738561 30.500642256193395 L32.16847273738561 21.840388218349005"/>
		<path opacity="0.75" fill="darkturquoise" d="M14.847964661696842 26.840388218349005 L19.847964661696846 31.1705152372712 L19.847964661696846 39.830769275115586 L14.847964661696842 35.500642256193395 L14.847964661696842 26.840388218349005"/>
		<path opacity="0.75" fill="darkturquoise" d="M32.16847273738561 21.840388218349005 L14.847964661696842 26.840388218349005 L14.847964661696842 35.500642256193395 L32.16847273738561 30.500642256193395 L32.16847273738561 21.840388218349005"/>
		<path opacity="0.75" fill="darkturquoise" d="M37.16847273738561 26.1705152372712 L19.847964661696846 31.1705152372712 L19.847964661696846 39.830769275115586 L37.16847273738561 34.830769275115586 L37.16847273738561 26.1705152372712"/>
		<path opacity="0.75" fill="darkturquoise" d="M32.16847273738561 21.840388218349005 L37.16847273738561 26.1705152372712 L19.847964661696846 31.1705152372712 L14.847964661696842 26.840388218349005 L32.16847273738561 21.840388218349005"/>
		<path opacity="0.75" fill="darkturquoise" d="M32.16847273738561 30.500642256193395 L37.16847273738561 34.830769275115586 L19.847964661696846 39.830769275115586 L14.847964661696842 35.500642256193395 L32.16847273738561 30.500642256193395"/>
		<text x="14.847964661696842" y="31.1705152372712" font-family="calibri" font-size="4">10</text>
		<text x="17.347964661696842" y="37.665705765654494" font-family="calibri" font-size="4">10</text>
		<text x="23.508218699541228" y="24.340388218349005" font-family="calibri" font-size="4">20</text>

		<path opacity="0.5" fill="orange" d="M29.16025403784439 1.3971143170299687 L45.160254037844396 15.253520777580988 L45.160254037844396 42.96633369868302 L29.16025403784439 29.10992723813201 L29.16025403784439 1.3971143170299687"/>
		<path opacity="0.5" fill="orange" d="M11.839745962155618 6.397114317029969 L27.83974596215562 20.253520777580988 L27.83974596215562 47.96633369868302 L11.839745962155618 34.10992723813201 L11.839745962155618 6.397114317029969"/>
		<path opacity="0.5" fill="orange" d="M29.16025403784439 1.3971143170299687 L11.839745962155618 6.397114317029969 L11.839745962155618 34.10992723813201 L29.16025403784439 29.10992723813201 L29.16025403784439 1.3971143170299687"/>
		<path opacity="0.5" fill="orange" d="M45.160254037844396 15.253520777580988 L27.83974596215562 20.253520777580988 L27.83974596215562 47.96633369868302 L45.160254037844396 42.96633369868302 L45.160254037844396 15.253520777580988"/>
		<path opacity="0.5" fill="orange" d="M29.16025403784439 1.3971143170299687 L45.160254037844396 15.253520777580988 L27.83974596215562 20.253520777580988 L11.839745962155618 6.397114317029969 L29.16025403784439 1.3971143170299687"/>
		<path opacity="0.5" fill="orange" d="M29.16025403784439 29.10992723813201 L45.160254037844396 42.96633369868302 L27.83974596215562 47.96633369868302 L11.839745962155618 34.10992723813201 L29.16025403784439 29.10992723813201"/>
		<text x="11.839745962155618" y="20.253520777580988" font-family="calibri" font-size="4">32</text>
		<text x="19.839745962155618" y="41.038130468407516" font-family="calibri" font-size="4">32</text>
		<text x="20.500000000000004" y="3.8971143170299687" font-family="calibri" font-size="4">20</text>

		<path opacity="0.5" fill="orange" d="M389.12812921102034 13.530743608719362 L393.12812921102034 16.994845223857112 L393.12812921102034 23.923048454132612 L389.12812921102034 20.458946838994862 L389.12812921102034 13.530743608719362"/>
		<path opacity="0.5" fill="orange" d="M333.70250336881634 29.530743608719362 L337.70250336881634 32.99484522385711 L337.70250336881634 39.92304845413261 L333.70250336881634 36.45894683899486 L333.70250336881634 29.530743608719362"/>
		<path opacity="0.5" fill="orange" d="M389.12812921102034 13.530743608719362 L333.70250336881634 29.530743608719362 L333.70250336881634 36.45894683899486 L389.12812921102034 20.458946838994862 L389.12812921102034 13.530743608719362"/>
		<path opacity="0.5" fill="orange" d="M393.12812921102034 16.994845223857112 L337.70250336881634 32.99484522385711 L337.70250336881634 39.92304845413261 L393.12812921102034 23.923048454132612 L393.12812921102034 16.994845223857112"/>
		<path opacity="0.5" fill="orange" d="M389.12812921102034 13.530743608719362 L393.12812921102034 16.994845223857112 L337.70250336881634 32.99484522385711 L333.70250336881634 29.530743608719362 L389.12812921102034 13.530743608719362"/>
		<path opacity="0.5" fill="orange" d="M389.12812921102034 20.458946838994862 L393.12812921102034 23.923048454132612 L337.70250336881634 39.92304845413261 L333.70250336881634 36.45894683899486 L389.12812921102034 20.458946838994862"/>
		<text x="333.70250336881634" y="32.99484522385711" font-family="calibri" font-size="4">8</text>
		<text x="335.70250336881634" y="38.19099764656374" font-family="calibri" font-size="4">8</text>
		<text x="361.41531628991834" y="21.530743608719362" font-family="calibri" font-size="4">64</text>

		<path opacity="0.75" fill="darkturquoise" d="M133.6117728033486 28.847454173453592 L136.1117728033486 31.012517682914684 L136.1117728033486 35.34264470183688 L133.6117728033486 33.17758119237579 L133.6117728033486 28.847454173453592"/>
		<path opacity="0.75" fill="darkturquoise" d="M105.89895988224657 36.84745417345359 L108.39895988224657 39.012517682914684 L108.39895988224657 43.34264470183688 L105.89895988224657 41.17758119237579 L105.89895988224657 36.84745417345359"/>
		<path opacity="0.75" fill="darkturquoise" d="M133.6117728033486 28.847454173453592 L105.89895988224657 36.84745417345359 L105.89895988224657 41.17758119237579 L133.6117728033486 33.17758119237579 L133.6117728033486 28.847454173453592"/>
		<path opacity="0.75" fill="darkturquoise" d="M136.1117728033486 31.012517682914684 L108.39895988224657 39.012517682914684 L108.39895988224657 43.34264470183688 L136.1117728033486 35.34264470183688 L136.1117728033486 31.012517682914684"/>
		<path opacity="0.75" fill="darkturquoise" d="M133.6117728033486 28.847454173453592 L136.1117728033486 31.012517682914684 L108.39895988224657 39.012517682914684 L105.89895988224657 36.84745417345359 L133.6117728033486 28.847454173453592"/>
		<path opacity="0.75" fill="darkturquoise" d="M133.6117728033486 33.17758119237579 L136.1117728033486 35.34264470183688 L108.39895988224657 43.34264470183688 L105.89895988224657 41.17758119237579 L133.6117728033486 33.17758119237579"/>
		<text x="105.89895988224657" y="39.01251768291469" font-family="calibri" font-size="4">5</text>
		<text x="107.14895988224657" y="42.260112947106336" font-family="calibri" font-size="4">5</text>
		<text x="119.75536634279759" y="32.84745417345359" font-family="calibri" font-size="4">32</text>

		<path opacity="0.5" fill="orange" d="M128.67433714816838 5.578838324886462 L144.67433714816838 19.435244785437483 L144.67433714816838 47.14805770653952 L128.67433714816838 33.291651245988504 L128.67433714816838 5.578838324886462"/>
		<path opacity="0.5" fill="orange" d="M100.96152422706632 13.578838324886462 L116.96152422706632 27.435244785437483 L116.96152422706632 55.14805770653952 L100.96152422706632 41.291651245988504 L100.96152422706632 13.578838324886462"/>
		<path opacity="0.5" fill="orange" d="M128.67433714816838 5.578838324886462 L100.96152422706632 13.578838324886462 L100.96152422706632 41.291651245988504 L128.67433714816838 33.291651245988504 L128.67433714816838 5.578838324886462"/>
		<path opacity="0.5" fill="orange" d="M144.67433714816838 19.435244785437483 L116.96152422706632 27.435244785437483 L116.96152422706632 55.14805770653952 L144.67433714816838 47.14805770653952 L144.67433714816838 19.435244785437483"/>
		<path opacity="0.5" fill="orange" d="M128.67433714816838 5.578838324886462 L144.67433714816838 19.435244785437483 L116.96152422706632 27.435244785437483 L100.96152422706632 13.578838324886462 L128.67433714816838 5.578838324886462"/>
		<path opacity="0.5" fill="orange" d="M128.67433714816838 33.291651245988504 L144.67433714816838 47.14805770653952 L116.96152422706632 55.14805770653952 L100.96152422706632 41.291651245988504 L128.67433714816838 33.291651245988504"/>
		<text x="100.96152422706632" y="27.435244785437483" font-family="calibri" font-size="4">32</text>
		<text x="108.96152422706632" y="48.21985447626401" font-family="calibri" font-size="4">32</text>
		<text x="114.81793068761735" y="9.578838324886462" font-family="calibri" font-size="4">32</text>

		<path opacity="0.75" fill="darkturquoise" d="M262.4830046742534 19.117313878677933 L264.9830046742534 21.282377388139025 L264.9830046742534 25.612504407061223 L262.4830046742534 23.44744089760013 L262.4830046742534 19.117313878677933"/>
		<path opacity="0.75" fill="darkturquoise" d="M207.0573788320493 35.11731387867793 L209.5573788320493 37.282377388139025 L209.5573788320493 41.61250440706122 L207.0573788320493 39.44744089760013 L207.0573788320493 35.11731387867793"/>
		<path opacity="0.75" fill="darkturquoise" d="M262.4830046742534 19.117313878677933 L207.0573788320493 35.11731387867793 L207.0573788320493 39.44744089760013 L262.4830046742534 23.44744089760013 L262.4830046742534 19.117313878677933"/>
		<path opacity="0.75" fill="darkturquoise" d="M264.9830046742534 21.282377388139025 L209.5573788320493 37.282377388139025 L209.5573788320493 41.61250440706122 L264.9830046742534 25.612504407061223 L264.9830046742534 21.282377388139025"/>
		<path opacity="0.75" fill="darkturquoise" d="M262.4830046742534 19.117313878677933 L264.9830046742534 21.282377388139025 L209.5573788320493 37.282377388139025 L207.0573788320493 35.11731387867793 L262.4830046742534 19.117313878677933"/>
		<path opacity="0.75" fill="darkturquoise" d="M262.4830046742534 23.44744089760013 L264.9830046742534 25.612504407061223 L209.5573788320493 41.61250440706122 L207.0573788320493 39.44744089760013 L262.4830046742534 23.44744089760013"/>
		<text x="207.0573788320493" y="37.28237738813903" font-family="calibri" font-size="4">5</text>
		<text x="208.3073788320493" y="40.52997265233068" font-family="calibri" font-size="4">5</text>
		<text x="234.77019175315132" y="27.117313878677933" font-family="calibri" font-size="4">64</text>

		<path opacity="0.5" fill="orange" d="M259.9012331795944 12.152867178156235 L267.9012331795944 19.081070408431728 L267.9012331795944 32.937476868982756 L259.9012331795944 26.009273638707256 L259.9012331795944 12.152867178156235"/>
		<path opacity="0.5" fill="orange" d="M204.4756073373903 28.152867178156235 L212.4756073373903 35.08107040843173 L212.4756073373903 48.937476868982756 L204.4756073373903 42.009273638707256 L204.4756073373903 28.152867178156235"/>
		<path opacity="0.5" fill="orange" d="M259.9012331795944 12.152867178156235 L204.4756073373903 28.152867178156235 L204.4756073373903 42.009273638707256 L259.9012331795944 26.009273638707256 L259.9012331795944 12.152867178156235"/>
		<path opacity="0.5" fill="orange" d="M267.9012331795944 19.081070408431728 L212.4756073373903 35.08107040843173 L212.4756073373903 48.937476868982756 L267.9012331795944 32.937476868982756 L267.9012331795944 19.081070408431728"/>
		<path opacity="0.5" fill="orange" d="M259.9012331795944 12.152867178156235 L267.9012331795944 19.081070408431728 L212.4756073373903 35.08107040843173 L204.4756073373903 28.152867178156235 L259.9012331795944 12.152867178156235"/>
		<path opacity="0.5" fill="orange" d="M259.9012331795944 26.009273638707256 L267.9012331795944 32.937476868982756 L212.4756073373903 48.937476868982756 L204.4756073373903 42.009273638707256 L259.9012331795944 26.009273638707256"/>
		<text x="204.4756073373903" y="35.08107040843174" font-family="calibri" font-size="4">16</text>
		<text x="208.4756073373903" y="45.473375253845006" font-family="calibri" font-size="4">16</text>
		<text x="232.18842025849233" y="20.152867178156235" font-family="calibri" font-size="4">64</text>

		<path opacity="0.75" fill="pink" d="M57.770824354838325 36.06773047082178 L62.770824354838325 40.39785748974397 L108.36332646673887 45.26342921121184 L57.770824354838325 36.06773047082178"/>
		<path opacity="0.75" fill="pink" d="M57.770824354838325 36.06773047082178 L57.770824354838325 44.72798450866617 L108.36332646673887 45.26342921121184 L57.770824354838325 36.06773047082178"/>
		<path opacity="0.75" fill="pink" d="M62.770824354838325 40.39785748974397 L62.770824354838325 49.05811152758836 L108.36332646673887 45.26342921121184 L62.770824354838325 40.39785748974397"/>
		<path opacity="0.75" fill="pink" d="M57.770824354838325 44.72798450866617 L62.770824354838325 49.05811152758836 L108.36332646673887 45.26342921121184 L57.770824354838325 44.72798450866617"/>

		<path opacity="0.75" fill="pink" d="M290.359344069475 41.15355788934254 L292.859344069475 43.31862139880363 L336.61990619506133 33.995620765632864 L290.359344069475 41.15355788934254"/>
		<path opacity="0.75" fill="pink" d="M290.359344069475 41.15355788934254 L290.359344069475 45.483684908264735 L336.61990619506133 33.995620765632864 L290.359344069475 41.15355788934254"/>
		<path opacity="0.75" fill="pink" d="M292.859344069475 43.31862139880363 L292.859344069475 47.64874841772583 L336.61990619506133 33.995620765632864 L292.859344069475 43.31862139880363"/>
		<path opacity="0.75" fill="pink" d="M290.359344069475 45.483684908264735 L292.859344069475 47.64874841772583 L336.61990619506133 33.995620765632864 L290.359344069475 45.483684908264735"/>

		<path opacity="0.75" fill="pink" d="M162.15814535277485 51.880101805131105 L164.65814535277485 54.0451653145922 L210.91528295830068 46.3278393161188 L162.15814535277485 51.880101805131105"/>
		<path opacity="0.75" fill="pink" d="M162.15814535277485 51.880101805131105 L162.15814535277485 56.2102288240533 L210.91528295830068 46.3278393161188 L162.15814535277485 51.880101805131105"/>
		<path opacity="0.75" fill="pink" d="M164.65814535277485 54.0451653145922 L164.65814535277485 58.375292333514395 L210.91528295830068 46.3278393161188 L164.65814535277485 54.0451653145922"/>
		<path opacity="0.75" fill="pink" d="M162.15814535277485 56.2102288240533 L164.65814535277485 58.375292333514395 L210.91528295830068 46.3278393161188 L162.15814535277485 56.2102288240533"/>

		<path opacity="0.75" fill="darkturquoise" d="M57.770824354838325 36.06773047082178 L62.770824354838325 40.39785748974397 L62.770824354838325 49.05811152758836 L57.770824354838325 44.72798450866617 L57.770824354838325 36.06773047082178"/>
		<path opacity="0.75" fill="darkturquoise" d="M40.45031627914955 41.06773047082178 L45.45031627914955 45.39785748974397 L45.45031627914955 54.05811152758836 L40.45031627914955 49.72798450866617 L40.45031627914955 41.06773047082178"/>
		<path opacity="0.75" fill="darkturquoise" d="M57.770824354838325 36.06773047082178 L40.45031627914955 41.06773047082178 L40.45031627914955 49.72798450866617 L57.770824354838325 44.72798450866617 L57.770824354838325 36.06773047082178"/>
		<path opacity="0.75" fill="darkturquoise" d="M62.770824354838325 40.39785748974397 L45.45031627914955 45.39785748974397 L45.45031627914955 54.05811152758836 L62.770824354838325 49.05811152758836 L62.770824354838325 40.39785748974397"/>
		<path opacity="0.75" fill="darkturquoise" d="M57.770824354838325 36.06773047082178 L62.770824354838325 40.39785748974397 L45.45031627914955 45.39785748974397 L40.45031627914955 41.06773047082178 L57.770824354838325 36.06773047082178"/>
		<path opacity="0.75" fill="darkturquoise" d="M57.770824354838325 44.72798450866617 L62.770824354838325 49.05811152758836 L45.45031627914955 54.05811152758836 L40.45031627914955 49.72798450866617 L57.770824354838325 44.72798450866617"/>
		<text x="40.45031627914955" y="45.39785748974397" font-family="calibri" font-size="4">10</text>
		<text x="42.95031627914955" y="51.89304801812726" font-family="calibri" font-size="4">10</text>
		<text x="49.110570316993936" y="38.56773047082178" font-family="calibri" font-size="4">20</text>

		<path opacity="0.5" fill="orange" d="M57.660254037844396 26.078838324886462 L73.6602540378444 39.93524478543748 L73.6602540378444 67.64805770653952 L57.660254037844396 53.791651245988504 L57.660254037844396 26.078838324886462"/>
		<path opacity="0.5" fill="orange" d="M40.33974596215563 31.078838324886462 L56.33974596215563 44.93524478543748 L56.33974596215563 72.64805770653952 L40.33974596215563 58.791651245988504 L40.33974596215563 31.078838324886462"/>
		<path opacity="0.5" fill="orange" d="M57.660254037844396 26.078838324886462 L40.33974596215563 31.078838324886462 L40.33974596215563 58.791651245988504 L57.660254037844396 53.791651245988504 L57.660254037844396 26.078838324886462"/>
		<path opacity="0.5" fill="orange" d="M73.6602540378444 39.93524478543748 L56.33974596215563 44.93524478543748 L56.33974596215563 72.64805770653952 L73.6602540378444 67.64805770653952 L73.6602540378444 39.93524478543748"/>
		<path opacity="0.5" fill="orange" d="M57.660254037844396 26.078838324886462 L73.6602540378444 39.93524478543748 L56.33974596215563 44.93524478543748 L40.33974596215563 31.078838324886462 L57.660254037844396 26.078838324886462"/>
		<path opacity="0.5" fill="orange" d="M57.660254037844396 53.791651245988504 L73.6602540378444 67.64805770653952 L56.33974596215563 72.64805770653952 L40.33974596215563 58.791651245988504 L57.660254037844396 53.791651245988504"/>
		<text x="40.33974596215563" y="44.93524478543748" font-family="calibri" font-size="4">32</text>
		<text x="48.33974596215563" y="65.719854476264" font-family="calibri" font-size="4">32</text>
		<text x="49.000000000000014" y="28.578838324886462" font-family="calibri" font-size="4">20</text>

		<path opacity="0.75" fill="darkturquoise" d="M162.15814535277485 51.880101805131105 L164.65814535277485 54.0451653145922 L164.65814535277485 58.375292333514395 L162.15814535277485 56.2102288240533 L162.15814535277485 51.880101805131105"/>
		<path opacity="0.75" fill="darkturquoise" d="M134.4453324316728 59.880101805131105 L136.9453324316728 62.0451653145922 L136.9453324316728 66.3752923335144 L134.4453324316728 64.2102288240533 L134.4453324316728 59.880101805131105"/>
		<path opacity="0.75" fill="darkturquoise" d="M162.15814535277485 51.880101805131105 L134.4453324316728 59.880101805131105 L134.4453324316728 64.2102288240533 L162.15814535277485 56.2102288240533 L162.15814535277485 51.880101805131105"/>
		<path opacity="0.75" fill="darkturquoise" d="M164.65814535277485 54.0451653145922 L136.9453324316728 62.0451653145922 L136.9453324316728 66.3752923335144 L164.65814535277485 58.375292333514395 L164.65814535277485 54.0451653145922"/>
		<path opacity="0.75" fill="darkturquoise" d="M162.15814535277485 51.880101805131105 L164.65814535277485 54.0451653145922 L136.9453324316728 62.0451653145922 L134.4453324316728 59.880101805131105 L162.15814535277485 51.880101805131105"/>
		<path opacity="0.75" fill="darkturquoise" d="M162.15814535277485 56.2102288240533 L164.65814535277485 58.375292333514395 L136.9453324316728 66.3752923335144 L134.4453324316728 64.2102288240533 L162.15814535277485 56.2102288240533"/>
		<text x="134.4453324316728" y="62.045165314592204" font-family="calibri" font-size="4">5</text>
		<text x="135.6953324316728" y="65.29276057878386" font-family="calibri" font-size="4">5</text>
		<text x="148.30173889222382" y="55.880101805131105" font-family="calibri" font-size="4">32</text>

		<path opacity="0.5" fill="orange" d="M157.17433714816838 30.260562332742957 L173.17433714816838 44.11696879329398 L173.17433714816838 71.829781714396 L157.17433714816838 57.97337525384499 L157.17433714816838 30.260562332742957"/>
		<path opacity="0.5" fill="orange" d="M129.46152422706632 38.26056233274296 L145.46152422706632 52.11696879329398 L145.46152422706632 79.829781714396 L129.46152422706632 65.97337525384499 L129.46152422706632 38.26056233274296"/>
		<path opacity="0.5" fill="orange" d="M157.17433714816838 30.260562332742957 L129.46152422706632 38.26056233274296 L129.46152422706632 65.97337525384499 L157.17433714816838 57.97337525384499 L157.17433714816838 30.260562332742957"/>
		<path opacity="0.5" fill="orange" d="M173.17433714816838 44.11696879329398 L145.46152422706632 52.11696879329398 L145.46152422706632 79.829781714396 L173.17433714816838 71.829781714396 L173.17433714816838 44.11696879329398"/>
		<path opacity="0.5" fill="orange" d="M157.17433714816838 30.260562332742957 L173.17433714816838 44.11696879329398 L145.46152422706632 52.11696879329398 L129.46152422706632 38.26056233274296 L157.17433714816838 30.260562332742957"/>
		<path opacity="0.5" fill="orange" d="M157.17433714816838 57.97337525384499 L173.17433714816838 71.829781714396 L145.46152422706632 79.829781714396 L129.46152422706632 65.97337525384499 L157.17433714816838 57.97337525384499"/>
		<text x="129.46152422706632" y="52.11696879329398" font-family="calibri" font-size="4">32</text>
		<text x="137.46152422706632" y="72.9015784841205" font-family="calibri" font-size="4">32</text>
		<text x="143.31793068761735" y="34.26056233274296" font-family="calibri" font-size="4">32</text>

		<path opacity="0.75" fill="darkturquoise" d="M290.359344069475 41.15355788934254 L292.859344069475 43.31862139880363 L292.859344069475 47.64874841772583 L290.359344069475 45.483684908264735 L290.359344069475 41.15355788934254"/>
		<path opacity="0.75" fill="darkturquoise" d="M234.93371822727096 57.15355788934254 L237.43371822727096 59.31862139880363 L237.43371822727096 63.64874841772583 L234.93371822727096 61.483684908264735 L234.93371822727096 57.15355788934254"/>
		<path opacity="0.75" fill="darkturquoise" d="M290.359344069475 41.15355788934254 L234.93371822727096 57.15355788934254 L234.93371822727096 61.483684908264735 L290.359344069475 45.483684908264735 L290.359344069475 41.15355788934254"/>
		<path opacity="0.75" fill="darkturquoise" d="M292.859344069475 43.31862139880363 L237.43371822727096 59.31862139880363 L237.43371822727096 63.64874841772583 L292.859344069475 47.64874841772583 L292.859344069475 43.31862139880363"/>
		<path opacity="0.75" fill="darkturquoise" d="M290.359344069475 41.15355788934254 L292.859344069475 43.31862139880363 L237.43371822727096 59.31862139880363 L234.93371822727096 57.15355788934254 L290.359344069475 41.15355788934254"/>
		<path opacity="0.75" fill="darkturquoise" d="M290.359344069475 45.483684908264735 L292.859344069475 47.64874841772583 L237.43371822727096 63.64874841772583 L234.93371822727096 61.483684908264735 L290.359344069475 45.483684908264735"/>
		<text x="234.93371822727096" y="59.318621398803636" font-family="calibri" font-size="4">5</text>
		<text x="236.18371822727096" y="62.56621666299528" font-family="calibri" font-size="4">5</text>
		<text x="262.646531148373" y="49.15355788934254" font-family="calibri" font-size="4">64</text>

		<path opacity="0.5" fill="orange" d="M288.4012331795944 36.834591186012716 L296.4012331795944 43.76279441628823 L296.4012331795944 57.61920087683926 L288.4012331795944 50.690997646563744 L288.4012331795944 36.834591186012716"/>
		<path opacity="0.5" fill="orange" d="M232.97560733739033 52.834591186012716 L240.97560733739033 59.76279441628823 L240.97560733739033 73.61920087683926 L232.97560733739033 66.69099764656374 L232.97560733739033 52.834591186012716"/>
		<path opacity="0.5" fill="orange" d="M288.4012331795944 36.834591186012716 L232.97560733739033 52.834591186012716 L232.97560733739033 66.69099764656374 L288.4012331795944 50.690997646563744 L288.4012331795944 36.834591186012716"/>
		<path opacity="0.5" fill="orange" d="M296.4012331795944 43.76279441628823 L240.97560733739033 59.76279441628823 L240.97560733739033 73.61920087683926 L296.4012331795944 57.61920087683926 L296.4012331795944 43.76279441628823"/>
		<path opacity="0.5" fill="orange" d="M288.4012331795944 36.834591186012716 L296.4012331795944 43.76279441628823 L240.97560733739033 59.76279441628823 L232.97560733739033 52.834591186012716 L288.4012331795944 36.834591186012716"/>
		<path opacity="0.5" fill="orange" d="M288.4012331795944 50.690997646563744 L296.4012331795944 57.61920087683926 L240.97560733739033 73.61920087683926 L232.97560733739033 66.69099764656374 L288.4012331795944 50.690997646563744"/>
		<text x="232.97560733739033" y="59.76279441628823" font-family="calibri" font-size="4">16</text>
		<text x="236.97560733739033" y="70.15509926170151" font-family="calibri" font-size="4">16</text>
		<text x="260.68842025849233" y="44.834591186012716" font-family="calibri" font-size="4">64</text>

		<path opacity="0.75" fill="pink" d="M91.99029124928134 74.37818809604448 L96.99029124928134 78.70831511496667 L132.80868021818924 54.986511815647134 L91.99029124928134 74.37818809604448"/>
		<path opacity="0.75" fill="pink" d="M91.99029124928134 74.37818809604448 L91.99029124928134 83.03844213388886 L132.80868021818924 54.986511815647134 L91.99029124928134 74.37818809604448"/>
		<path opacity="0.75" fill="pink" d="M96.99029124928134 78.70831511496667 L96.99029124928134 87.36856915281105 L132.80868021818924 54.986511815647134 L96.99029124928134 78.70831511496667"/>
		<path opacity="0.75" fill="pink" d="M91.99029124928134 83.03844213388886 L96.99029124928134 87.36856915281105 L132.80868021818924 54.986511815647134 L91.99029124928134 83.03844213388886"/>

		<path opacity="0.75" fill="pink" d="M188.35787246812853 65.9495861827457 L190.85787246812853 68.11464969220681 L237.76276317870014 60.269028163035784 L188.35787246812853 65.9495861827457"/>
		<path opacity="0.75" fill="pink" d="M188.35787246812853 65.9495861827457 L188.35787246812853 70.2797132016679 L237.76276317870014 60.269028163035784 L188.35787246812853 65.9495861827457"/>
		<path opacity="0.75" fill="pink" d="M190.85787246812853 68.11464969220681 L190.85787246812853 72.44477671112901 L237.76276317870014 60.269028163035784 L190.85787246812853 68.11464969220681"/>
		<path opacity="0.75" fill="pink" d="M188.35787246812853 70.2797132016679 L190.85787246812853 72.44477671112901 L237.76276317870014 60.269028163035784 L188.35787246812853 70.2797132016679"/>

		<path opacity="0.75" fill="darkturquoise" d="M91.99029124928134 74.37818809604448 L96.99029124928134 78.70831511496667 L96.99029124928134 87.36856915281105 L91.99029124928134 83.03844213388886 L91.99029124928134 74.37818809604448"/>
		<path opacity="0.75" fill="darkturquoise" d="M74.66978317359258 79.37818809604448 L79.66978317359258 83.70831511496667 L79.66978317359258 92.36856915281105 L74.66978317359258 88.03844213388886 L74.66978317359258 79.37818809604448"/>
		<path opacity="0.75" fill="darkturquoise" d="M91.99029124928134 74.37818809604448 L74.66978317359258 79.37818809604448 L74.66978317359258 88.03844213388886 L91.99029124928134 83.03844213388886 L91.99029124928134 74.37818809604448"/>
		<path opacity="0.75" fill="darkturquoise" d="M96.99029124928134 78.70831511496667 L79.66978317359258 83.70831511496667 L79.66978317359258 92.36856915281105 L96.99029124928134 87.36856915281105 L96.99029124928134 78.70831511496667"/>
		<path opacity="0.75" fill="darkturquoise" d="M91.99029124928134 74.37818809604448 L96.99029124928134 78.70831511496667 L79.66978317359258 83.70831511496667 L74.66978317359258 79.37818809604448 L91.99029124928134 74.37818809604448"/>
		<path opacity="0.75" fill="darkturquoise" d="M91.99029124928134 83.03844213388886 L96.99029124928134 87.36856915281105 L79.66978317359258 92.36856915281105 L74.66978317359258 88.03844213388886 L91.99029124928134 83.03844213388886"/>
		<text x="74.66978317359258" y="83.70831511496667" font-family="calibri" font-size="4">10</text>
		<text x="77.16978317359258" y="90.20350564334996" font-family="calibri" font-size="4">10</text>
		<text x="83.33003721143696" y="76.87818809604448" font-family="calibri" font-size="4">20</text>

		<path opacity="0.5" fill="orange" d="M86.1602540378444 50.76056233274296 L102.1602540378444 64.61696879329398 L102.1602540378444 92.329781714396 L86.1602540378444 78.47337525384499 L86.1602540378444 50.76056233274296"/>
		<path opacity="0.5" fill="orange" d="M68.83974596215563 55.76056233274296 L84.83974596215563 69.61696879329398 L84.83974596215563 97.329781714396 L68.83974596215563 83.47337525384499 L68.83974596215563 55.76056233274296"/>
		<path opacity="0.5" fill="orange" d="M86.1602540378444 50.76056233274296 L68.83974596215563 55.76056233274296 L68.83974596215563 83.47337525384499 L86.1602540378444 78.47337525384499 L86.1602540378444 50.76056233274296"/>
		<path opacity="0.5" fill="orange" d="M102.1602540378444 64.61696879329398 L84.83974596215563 69.61696879329398 L84.83974596215563 97.329781714396 L102.1602540378444 92.329781714396 L102.1602540378444 64.61696879329398"/>
		<path opacity="0.5" fill="orange" d="M86.1602540378444 50.76056233274296 L102.1602540378444 64.61696879329398 L84.83974596215563 69.61696879329398 L68.83974596215563 55.76056233274296 L86.1602540378444 50.76056233274296"/>
		<path opacity="0.5" fill="orange" d="M86.1602540378444 78.47337525384499 L102.1602540378444 92.329781714396 L84.83974596215563 97.329781714396 L68.83974596215563 83.47337525384499 L86.1602540378444 78.47337525384499"/>
		<text x="68.83974596215563" y="69.61696879329398" font-family="calibri" font-size="4">32</text>
		<text x="76.83974596215563" y="90.4015784841205" font-family="calibri" font-size="4">32</text>
		<text x="77.50000000000001" y="53.26056233274296" font-family="calibri" font-size="4">20</text>

		<path opacity="0.75" fill="darkturquoise" d="M188.35787246812853 65.9495861827457 L190.85787246812853 68.11464969220681 L190.85787246812853 72.44477671112901 L188.35787246812853 70.2797132016679 L188.35787246812853 65.9495861827457"/>
		<path opacity="0.75" fill="darkturquoise" d="M160.6450595470265 73.9495861827457 L163.1450595470265 76.11464969220681 L163.1450595470265 80.44477671112901 L160.6450595470265 78.2797132016679 L160.6450595470265 73.9495861827457"/>
		<path opacity="0.75" fill="darkturquoise" d="M188.35787246812853 65.9495861827457 L160.6450595470265 73.9495861827457 L160.6450595470265 78.2797132016679 L188.35787246812853 70.2797132016679 L188.35787246812853 65.9495861827457"/>
		<path opacity="0.75" fill="darkturquoise" d="M190.85787246812853 68.11464969220681 L163.1450595470265 76.11464969220681 L163.1450595470265 80.44477671112901 L190.85787246812853 72.44477671112901 L190.85787246812853 68.11464969220681"/>
		<path opacity="0.75" fill="darkturquoise" d="M188.35787246812853 65.9495861827457 L190.85787246812853 68.11464969220681 L163.1450595470265 76.11464969220681 L160.6450595470265 73.9495861827457 L188.35787246812853 65.9495861827457"/>
		<path opacity="0.75" fill="darkturquoise" d="M188.35787246812853 70.2797132016679 L190.85787246812853 72.44477671112901 L163.1450595470265 80.44477671112901 L160.6450595470265 78.2797132016679 L188.35787246812853 70.2797132016679"/>
		<text x="160.6450595470265" y="76.1146496922068" font-family="calibri" font-size="4">5</text>
		<text x="161.8950595470265" y="79.36224495639846" font-family="calibri" font-size="4">5</text>
		<text x="174.5014660075775" y="69.9495861827457" font-family="calibri" font-size="4">32</text>

		<path opacity="0.5" fill="orange" d="M185.67433714816838 54.942286340599466 L201.67433714816838 68.79869280115048 L201.67433714816838 96.51150572225251 L185.67433714816838 82.6550992617015 L185.67433714816838 54.942286340599466"/>
		<path opacity="0.5" fill="orange" d="M157.96152422706635 62.942286340599466 L173.96152422706635 76.79869280115048 L173.96152422706635 104.51150572225251 L157.96152422706635 90.6550992617015 L157.96152422706635 62.942286340599466"/>
		<path opacity="0.5" fill="orange" d="M185.67433714816838 54.942286340599466 L157.96152422706635 62.942286340599466 L157.96152422706635 90.6550992617015 L185.67433714816838 82.6550992617015 L185.67433714816838 54.942286340599466"/>
		<path opacity="0.5" fill="orange" d="M201.67433714816838 68.79869280115048 L173.96152422706635 76.79869280115048 L173.96152422706635 104.51150572225251 L201.67433714816838 96.51150572225251 L201.67433714816838 68.79869280115048"/>
		<path opacity="0.5" fill="orange" d="M185.67433714816838 54.942286340599466 L201.67433714816838 68.79869280115048 L173.96152422706635 76.79869280115048 L157.96152422706635 62.942286340599466 L185.67433714816838 54.942286340599466"/>
		<path opacity="0.5" fill="orange" d="M185.67433714816838 82.6550992617015 L201.67433714816838 96.51150572225251 L173.96152422706635 104.51150572225251 L157.96152422706635 90.6550992617015 L185.67433714816838 82.6550992617015"/>
		<text x="157.96152422706635" y="76.79869280115048" font-family="calibri" font-size="4">32</text>
		<text x="165.96152422706635" y="97.58330249197701" font-family="calibri" font-size="4">32</text>
		<text x="171.81793068761738" y="58.942286340599466" font-family="calibri" font-size="4">32</text>

		<path opacity="0.75" fill="pink" d="M124.69988102170613 99.08989447749602 L129.69988102170615 103.42002149641822 L171.29653012838574 89.40331021881275 L124.69988102170613 99.08989447749602"/>
		<path opacity="0.75" fill="pink" d="M124.69988102170613 99.08989447749602 L124.69988102170613 107.75014851534041 L171.29653012838574 89.40331021881275 L124.69988102170613 99.08989447749602"/>
		<path opacity="0.75" fill="pink" d="M129.69988102170615 103.42002149641822 L129.69988102170615 112.08027553426261 L171.29653012838574 89.40331021881275 L129.69988102170615 103.42002149641822"/>
		<path opacity="0.75" fill="pink" d="M124.69988102170613 107.75014851534041 L129.69988102170615 112.08027553426261 L171.29653012838574 89.40331021881275 L124.69988102170613 107.75014851534041"/>

		<path opacity="0.75" fill="darkturquoise" d="M124.69988102170613 99.08989447749602 L129.69988102170615 103.42002149641822 L129.69988102170615 112.08027553426261 L124.69988102170613 107.75014851534041 L124.69988102170613 99.08989447749602"/>
		<path opacity="0.75" fill="darkturquoise" d="M107.37937294601737 104.08989447749602 L112.37937294601737 108.42002149641822 L112.37937294601737 117.08027553426261 L107.37937294601737 112.75014851534041 L107.37937294601737 104.08989447749602"/>
		<path opacity="0.75" fill="darkturquoise" d="M124.69988102170613 99.08989447749602 L107.37937294601737 104.08989447749602 L107.37937294601737 112.75014851534041 L124.69988102170613 107.75014851534041 L124.69988102170613 99.08989447749602"/>
		<path opacity="0.75" fill="darkturquoise" d="M129.69988102170615 103.42002149641822 L112.37937294601737 108.42002149641822 L112.37937294601737 117.08027553426261 L129.69988102170615 112.08027553426261 L129.69988102170615 103.42002149641822"/>
		<path opacity="0.75" fill="darkturquoise" d="M124.69988102170613 99.08989447749602 L129.69988102170615 103.42002149641822 L112.37937294601737 108.42002149641822 L107.37937294601737 104.08989447749602 L124.69988102170613 99.08989447749602"/>
		<path opacity="0.75" fill="darkturquoise" d="M124.69988102170613 107.75014851534041 L129.69988102170615 112.08027553426261 L112.37937294601737 117.08027553426261 L107.37937294601737 112.75014851534041 L124.69988102170613 107.75014851534041"/>
		<text x="107.37937294601737" y="108.42002149641822" font-family="calibri" font-size="4">10</text>
		<text x="109.87937294601737" y="114.91521202480152" font-family="calibri" font-size="4">10</text>
		<text x="116.03962698386175" y="101.58989447749602" font-family="calibri" font-size="4">20</text>

		<path opacity="0.5" fill="orange" d="M114.66025403784441 75.44228634059947 L130.66025403784442 89.29869280115048 L130.66025403784442 117.01150572225251 L114.66025403784441 103.1550992617015 L114.66025403784441 75.44228634059947"/>
		<path opacity="0.5" fill="orange" d="M97.33974596215565 80.44228634059947 L113.33974596215565 94.29869280115048 L113.33974596215565 122.01150572225251 L97.33974596215565 108.1550992617015 L97.33974596215565 80.44228634059947"/>
		<path opacity="0.5" fill="orange" d="M114.66025403784441 75.44228634059947 L97.33974596215565 80.44228634059947 L97.33974596215565 108.1550992617015 L114.66025403784441 103.1550992617015 L114.66025403784441 75.44228634059947"/>
		<path opacity="0.5" fill="orange" d="M130.66025403784442 89.29869280115048 L113.33974596215565 94.29869280115048 L113.33974596215565 122.01150572225251 L130.66025403784442 117.01150572225251 L130.66025403784442 89.29869280115048"/>
		<path opacity="0.5" fill="orange" d="M114.66025403784441 75.44228634059947 L130.66025403784442 89.29869280115048 L113.33974596215565 94.29869280115048 L97.33974596215565 80.44228634059947 L114.66025403784441 75.44228634059947"/>
		<path opacity="0.5" fill="orange" d="M114.66025403784441 103.1550992617015 L130.66025403784442 117.01150572225251 L113.33974596215565 122.01150572225251 L97.33974596215565 108.1550992617015 L114.66025403784441 103.1550992617015"/>
		<text x="97.33974596215565" y="94.29869280115048" font-family="calibri" font-size="4">32</text>
		<text x="105.33974596215565" y="115.08330249197701" font-family="calibri" font-size="4">32</text>
		<text x="106.00000000000003" y="77.94228634059947" font-family="calibri" font-size="4">20</text>

	 </g>
</svg>