<svg width="1000.0px" height="1000.0px" viewBox="-500.0 -500.0 1000.0 1000.0" xmlns="http://www.w3.org/2000/svg">
	<g stroke="black" stroke-width="0.3">
		<path opacity="0.75" fill="darkturquoise" d="M471.628750427021 -180.3869573849588 L476.628750427021 -176.0568303660366 L476.628750427021 -2.8517496091488397 L471.628750427021 -7.181876628071038 L471.628750427021 -180.3869573849588"/>
		<path opacity="0.75" fill="darkturquoise" d="M462.9684963891766 -177.8869573849588 L467.9684963891766 -173.5568303660366 L467.9684963891766 -0.3517496091488397 L462.9684963891766 -4.681876628071038 L462.9684963891766 -177.8869573849588"/>
		<path opacity="0.75" fill="darkturquoise" d="M471.628750427021 -180.3869573849588 L462.9684963891766 -177.8869573849588 L462.9684963891766 -4.681876628071038 L471.628750427021 -7.181876628071038 L471.628750427021 -180.3869573849588"/>
		<path opacity="0.75" fill="darkturquoise" d="M476.628750427021 -176.0568303660366 L467.9684963891766 -173.5568303660366 L467.9684963891766 -0.3517496091488397 L476.628750427021 -2.8517496091488397 L476.628750427021 -176.0568303660366"/>
		<path opacity="0.75" fill="darkturquoise" d="M471.628750427021 -180.3869573849588 L476.628750427021 -176.0568303660366 L467.9684963891766 -173.5568303660366 L462.9684963891766 -177.8869573849588 L471.628750427021 -180.3869573849588"/>
		<path opacity="0.75" fill="darkturquoise" d="M471.628750427021 -7.181876628071038 L476.628750427021 -2.8517496091488397 L467.9684963891766 -0.3517496091488397 L462.9684963891766 -4.681876628071038 L471.628750427021 -7.181876628071038"/>
		<text x="462.9684963891766" y="-91.28441700651493" font-family="calibri" font-size="4">200</text>
		<text x="465.4684963891766" y="-2.5168131186099387" font-family="calibri" font-size="4">10</text>
		<text x="467.2986234080988" y="-179.1369573849588" font-family="calibri" font-size="4">10</text>

<!-- Arrow -->
		<path opacity="0.5" stroke="black" d="M422.16722619995465 -76.61935349705382 L465.4684963891766 -89.11935349705382"/>
		<circle opacity="0.5" cx="465.4684963891766" cy="-89.11935349705382" r="1" fill="black" />
		<path opacity="0.75" fill="darkturquoise" d="M419.66722619995465 -165.3869573849588 L424.66722619995465 -161.0568303660366 L424.66722619995465 12.14825039085116 L419.66722619995465 7.818123371928962 L419.66722619995465 -165.3869573849588"/>
		<path opacity="0.75" fill="darkturquoise" d="M411.0069721621103 -162.8869573849588 L416.0069721621103 -158.5568303660366 L416.0069721621103 14.64825039085116 L411.0069721621103 10.318123371928962 L411.0069721621103 -162.8869573849588"/>
		<path opacity="0.75" fill="darkturquoise" d="M419.66722619995465 -165.3869573849588 L411.0069721621103 -162.8869573849588 L411.0069721621103 10.318123371928962 L419.66722619995465 7.818123371928962 L419.66722619995465 -165.3869573849588"/>
		<path opacity="0.75" fill="darkturquoise" d="M424.66722619995465 -161.0568303660366 L416.0069721621103 -158.5568303660366 L416.0069721621103 14.64825039085116 L424.66722619995465 12.14825039085116 L424.66722619995465 -161.0568303660366"/>
		<path opacity="0.75" fill="darkturquoise" d="M419.66722619995465 -165.3869573849588 L424.66722619995465 -161.0568303660366 L416.0069721621103 -158.5568303660366 L411.0069721621103 -162.8869573849588 L419.66722619995465 -165.3869573849588"/>
		<path opacity="0.75" fill="darkturquoise" d="M419.66722619995465 7.818123371928962 L424.66722619995465 12.14825039085116 L416.0069721621103 14.64825039085116 L411.0069721621103 10.318123371928962 L419.66722619995465 7.818123371928962"/>
		<text x="411.0069721621103" y="-76.28441700651493" font-family="calibri" font-size="4">200</text>
		<text x="413.5069721621103" y="12.483186881390061" font-family="calibri" font-size="4">10</text>
		<text x="415.3370991810325" y="-164.1369573849588" font-family="calibri" font-size="4">10</text>

		<path opacity="0.5" fill="orange" d="M297.1720588025886 -83.332445428599 L301.1720588025886 -79.86834381346125 L301.1720588025886 -72.94014058318574 L297.1720588025886 -76.40424219832349 L297.1720588025886 -83.332445428599"/>
		<path opacity="0.5" fill="orange" d="M241.74643296038454 -67.332445428599 L245.74643296038454 -63.86834381346125 L245.74643296038454 -56.94014058318574 L241.74643296038454 -60.404242198323495 L241.74643296038454 -67.332445428599"/>
		<path opacity="0.5" fill="orange" d="M297.1720588025886 -83.332445428599 L241.74643296038454 -67.332445428599 L241.74643296038454 -60.404242198323495 L297.1720588025886 -76.40424219832349 L297.1720588025886 -83.332445428599"/>
		<path opacity="0.5" fill="orange" d="M301.1720588025886 -79.86834381346125 L245.74643296038454 -63.86834381346125 L245.74643296038454 -56.94014058318574 L301.1720588025886 -72.94014058318574 L301.1720588025886 -79.86834381346125"/>
		<path opacity="0.5" fill="orange" d="M297.1720588025886 -83.332445428599 L301.1720588025886 -79.86834381346125 L245.74643296038454 -63.86834381346125 L241.74643296038454 -67.332445428599 L297.1720588025886 -83.332445428599"/>
		<path opacity="0.5" fill="orange" d="M297.1720588025886 -76.40424219832349 L301.1720588025886 -72.94014058318574 L245.74643296038454 -56.94014058318574 L241.74643296038454 -60.404242198323495 L297.1720588025886 -76.40424219832349"/>
		<text x="241.74643296038454" y="-63.86834381346125" font-family="calibri" font-size="4">8</text>
		<text x="243.74643296038454" y="-58.67219139075462" font-family="calibri" font-size="4">8</text>
		<text x="269.4592458814866" y="-75.332445428599" font-family="calibri" font-size="4">64</text>

<!-- Arrow -->
		<path opacity="0.5" stroke="black" d="M299.1720588025886 -78.13629300589237 L361.54544793504397 -59.11935349705382"/>
		<circle opacity="0.5" cx="361.54544793504397" cy="-59.11935349705382" r="1" fill="black" />
<!-- Arrow -->
		<path opacity="0.5" stroke="black" d="M370.20570197288833 -61.61935349705382 L413.5069721621103 -74.11935349705382"/>
		<circle opacity="0.5" cx="413.5069721621103" cy="-74.11935349705382" r="1" fill="black" />
		<path opacity="0.75" fill="darkturquoise" d="M367.70570197288833 -150.3869573849588 L372.70570197288833 -146.0568303660366 L372.70570197288833 27.14825039085116 L367.70570197288833 22.818123371928962 L367.70570197288833 -150.3869573849588"/>
		<path opacity="0.75" fill="darkturquoise" d="M359.04544793504397 -147.8869573849588 L364.04544793504397 -143.5568303660366 L364.04544793504397 29.64825039085116 L359.04544793504397 25.318123371928962 L359.04544793504397 -147.8869573849588"/>
		<path opacity="0.75" fill="darkturquoise" d="M367.70570197288833 -150.3869573849588 L359.04544793504397 -147.8869573849588 L359.04544793504397 25.318123371928962 L367.70570197288833 22.818123371928962 L367.70570197288833 -150.3869573849588"/>
		<path opacity="0.75" fill="darkturquoise" d="M372.70570197288833 -146.0568303660366 L364.04544793504397 -143.5568303660366 L364.04544793504397 29.64825039085116 L372.70570197288833 27.14825039085116 L372.70570197288833 -146.0568303660366"/>
		<path opacity="0.75" fill="darkturquoise" d="M367.70570197288833 -150.3869573849588 L372.70570197288833 -146.0568303660366 L364.04544793504397 -143.5568303660366 L359.04544793504397 -147.8869573849588 L367.70570197288833 -150.3869573849588"/>
		<path opacity="0.75" fill="darkturquoise" d="M367.70570197288833 22.818123371928962 L372.70570197288833 27.14825039085116 L364.04544793504397 29.64825039085116 L359.04544793504397 25.318123371928962 L367.70570197288833 22.818123371928962"/>
		<text x="359.04544793504397" y="-61.28441700651492" font-family="calibri" font-size="4">200</text>
		<text x="361.54544793504397" y="27.48318688139006" font-family="calibri" font-size="4">10</text>
		<text x="363.3755749539662" y="-149.1369573849588" font-family="calibri" font-size="4">10</text>

		<path opacity="0.75" fill="pink" d="M198.51708983555 -53.35037722612911 L201.01708983555 -51.18531371666802 L242.29655104810257 -59.9595337282864 L198.51708983555 -53.35037722612911"/>
		<path opacity="0.75" fill="pink" d="M198.51708983555 -53.35037722612911 L198.51708983555 -49.02025020720692 L242.29655104810257 -59.9595337282864 L198.51708983555 -53.35037722612911"/>
		<path opacity="0.75" fill="pink" d="M201.01708983555 -51.18531371666802 L201.01708983555 -46.85518669774582 L242.29655104810257 -59.9595337282864 L201.01708983555 -51.18531371666802"/>
		<path opacity="0.75" fill="pink" d="M198.51708983555 -49.02025020720692 L201.01708983555 -46.85518669774582 L242.29655104810257 -59.9595337282864 L198.51708983555 -49.02025020720692"/>

		<path opacity="0.75" fill="darkturquoise" d="M198.51708983555 -53.35037722612911 L201.01708983555 -51.18531371666802 L201.01708983555 -46.85518669774582 L198.51708983555 -49.02025020720692 L198.51708983555 -53.35037722612911"/>
		<path opacity="0.75" fill="darkturquoise" d="M143.09146399334594 -37.35037722612911 L145.59146399334594 -35.18531371666802 L145.59146399334594 -30.855186697745822 L143.09146399334594 -33.02025020720692 L143.09146399334594 -37.35037722612911"/>
		<path opacity="0.75" fill="darkturquoise" d="M198.51708983555 -53.35037722612911 L143.09146399334594 -37.35037722612911 L143.09146399334594 -33.02025020720692 L198.51708983555 -49.02025020720692 L198.51708983555 -53.35037722612911"/>
		<path opacity="0.75" fill="darkturquoise" d="M201.01708983555 -51.18531371666802 L145.59146399334594 -35.18531371666802 L145.59146399334594 -30.855186697745822 L201.01708983555 -46.85518669774582 L201.01708983555 -51.18531371666802"/>
		<path opacity="0.75" fill="darkturquoise" d="M198.51708983555 -53.35037722612911 L201.01708983555 -51.18531371666802 L145.59146399334594 -35.18531371666802 L143.09146399334594 -37.35037722612911 L198.51708983555 -53.35037722612911"/>
		<path opacity="0.75" fill="darkturquoise" d="M198.51708983555 -49.02025020720692 L201.01708983555 -46.85518669774582 L145.59146399334594 -30.855186697745822 L143.09146399334594 -33.02025020720692 L198.51708983555 -49.02025020720692"/>
		<text x="143.09146399334594" y="-35.18531371666802" font-family="calibri" font-size="4">5</text>
		<text x="144.34146399334594" y="-31.93771845247637" font-family="calibri" font-size="4">5</text>
		<text x="170.80427691444797" y="-45.35037722612911" font-family="calibri" font-size="4">64</text>

		<path opacity="0.5" fill="orange" d="M198.4451627711626 -54.832445428599 L202.4451627711626 -51.36834381346125 L202.4451627711626 -44.44014058318574 L198.4451627711626 -47.904242198323495 L198.4451627711626 -54.832445428599"/>
		<path opacity="0.5" fill="orange" d="M143.01953692895853 -38.832445428599 L147.01953692895853 -35.36834381346125 L147.01953692895853 -28.440140583185737 L143.01953692895853 -31.904242198323495 L143.01953692895853 -38.832445428599"/>
		<path opacity="0.5" fill="orange" d="M198.4451627711626 -54.832445428599 L143.01953692895853 -38.832445428599 L143.01953692895853 -31.904242198323495 L198.4451627711626 -47.904242198323495 L198.4451627711626 -54.832445428599"/>
		<path opacity="0.5" fill="orange" d="M202.4451627711626 -51.36834381346125 L147.01953692895853 -35.36834381346125 L147.01953692895853 -28.440140583185737 L202.4451627711626 -44.44014058318574 L202.4451627711626 -51.36834381346125"/>
		<path opacity="0.5" fill="orange" d="M198.4451627711626 -54.832445428599 L202.4451627711626 -51.36834381346125 L147.01953692895853 -35.36834381346125 L143.01953692895853 -38.832445428599 L198.4451627711626 -54.832445428599"/>
		<path opacity="0.5" fill="orange" d="M198.4451627711626 -47.904242198323495 L202.4451627711626 -44.44014058318574 L147.01953692895853 -28.440140583185737 L143.01953692895853 -31.904242198323495 L198.4451627711626 -47.904242198323495"/>
		<text x="143.01953692895853" y="-35.36834381346125" font-family="calibri" font-size="4">8</text>
		<text x="145.01953692895853" y="-30.172191390754616" font-family="calibri" font-size="4">8</text>
		<text x="170.73234985006056" y="-46.832445428599" font-family="calibri" font-size="4">64</text>

<!-- Arrow -->
		<path opacity="0.5" stroke="black" d="M93.33364779650317 -43.39758601178475 L145.01953692895853 -33.63629300589237"/>
		<circle opacity="0.5" cx="145.01953692895853" cy="-33.63629300589237" r="1" fill="black" />
		<path opacity="0.5" fill="orange" d="M91.33364779650317 -48.59373843449138 L95.33364779650317 -45.12963681935363 L95.33364779650317 -38.20143358907812 L91.33364779650317 -41.665535204215864 L91.33364779650317 -48.59373843449138"/>
		<path opacity="0.5" fill="orange" d="M35.9080219542991 -32.59373843449138 L39.9080219542991 -29.129636819353628 L39.9080219542991 -22.201433589078118 L35.9080219542991 -25.665535204215864 L35.9080219542991 -32.59373843449138"/>
		<path opacity="0.5" fill="orange" d="M91.33364779650317 -48.59373843449138 L35.9080219542991 -32.59373843449138 L35.9080219542991 -25.665535204215864 L91.33364779650317 -41.665535204215864 L91.33364779650317 -48.59373843449138"/>
		<path opacity="0.5" fill="orange" d="M95.33364779650317 -45.12963681935363 L39.9080219542991 -29.129636819353628 L39.9080219542991 -22.201433589078118 L95.33364779650317 -38.20143358907812 L95.33364779650317 -45.12963681935363"/>
		<path opacity="0.5" fill="orange" d="M91.33364779650317 -48.59373843449138 L95.33364779650317 -45.12963681935363 L39.9080219542991 -29.129636819353628 L35.9080219542991 -32.59373843449138 L91.33364779650317 -48.59373843449138"/>
		<path opacity="0.5" fill="orange" d="M91.33364779650317 -41.665535204215864 L95.33364779650317 -38.20143358907812 L39.9080219542991 -22.201433589078118 L35.9080219542991 -25.665535204215864 L91.33364779650317 -41.665535204215864"/>
		<text x="35.9080219542991" y="-29.12963681935362" font-family="calibri" font-size="4">8</text>
		<text x="37.9080219542991" y="-23.93348439664699" font-family="calibri" font-size="4">8</text>
		<text x="63.62083487540114" y="-40.59373843449138" font-family="calibri" font-size="4">64</text>

<!-- Arrow -->
		<path opacity="0.5" stroke="black" d="M277.5605438279292 2.147586011784747 L361.54544793504397 -59.11935349705382"/>
		<circle opacity="0.5" cx="361.54544793504397" cy="-59.11935349705382" r="1" fill="black" />
		<path opacity="0.75" fill="pink" d="M-8.874863004267866 -23.401215387276963 L-6.374863004267866 -21.23615187781587 L36.553944319606856 -27.312092353347325 L-8.874863004267866 -23.401215387276963"/>
		<path opacity="0.75" fill="pink" d="M-8.874863004267866 -23.401215387276963 L-8.874863004267866 -19.071088368354765 L36.553944319606856 -27.312092353347325 L-8.874863004267866 -23.401215387276963"/>
		<path opacity="0.75" fill="pink" d="M-6.374863004267866 -21.23615187781587 L-6.374863004267866 -16.906024858893673 L36.553944319606856 -27.312092353347325 L-6.374863004267866 -21.23615187781587"/>
		<path opacity="0.75" fill="pink" d="M-8.874863004267866 -19.071088368354765 L-6.374863004267866 -16.906024858893673 L36.553944319606856 -27.312092353347325 L-8.874863004267866 -19.071088368354765"/>

<!-- Arrow -->
		<path opacity="0.5" stroke="black" d="M50.34713282184376 18.375 L145.01953692895853 -33.63629300589237"/>
		<circle opacity="0.5" cx="145.01953692895853" cy="-33.63629300589237" r="1" fill="black" />
		<path opacity="0.75" fill="darkturquoise" d="M-8.874863004267866 -23.401215387276963 L-6.374863004267866 -21.23615187781587 L-6.374863004267866 -16.906024858893673 L-8.874863004267866 -19.071088368354765 L-8.874863004267866 -23.401215387276963"/>
		<path opacity="0.75" fill="darkturquoise" d="M-64.30048884647192 -7.401215387276963 L-61.80048884647192 -5.236151877815871 L-61.80048884647192 -0.906024858893673 L-64.30048884647192 -3.071088368354765 L-64.30048884647192 -7.401215387276963"/>
		<path opacity="0.75" fill="darkturquoise" d="M-8.874863004267866 -23.401215387276963 L-64.30048884647192 -7.401215387276963 L-64.30048884647192 -3.071088368354765 L-8.874863004267866 -19.071088368354765 L-8.874863004267866 -23.401215387276963"/>
		<path opacity="0.75" fill="darkturquoise" d="M-6.374863004267866 -21.23615187781587 L-61.80048884647192 -5.236151877815871 L-61.80048884647192 -0.906024858893673 L-6.374863004267866 -16.906024858893673 L-6.374863004267866 -21.23615187781587"/>
		<path opacity="0.75" fill="darkturquoise" d="M-8.874863004267866 -23.401215387276963 L-6.374863004267866 -21.23615187781587 L-61.80048884647192 -5.236151877815871 L-64.30048884647192 -7.401215387276963 L-8.874863004267866 -23.401215387276963"/>
		<path opacity="0.75" fill="darkturquoise" d="M-8.874863004267866 -19.071088368354765 L-6.374863004267866 -16.906024858893673 L-61.80048884647192 -0.906024858893673 L-64.30048884647192 -3.071088368354765 L-8.874863004267866 -19.071088368354765"/>
		<text x="-64.30048884647192" y="-5.236151877815864" font-family="calibri" font-size="4">5</text>
		<text x="-63.05048884647192" y="-1.988556613624219" font-family="calibri" font-size="4">5</text>
		<text x="-36.58767592536989" y="-15.401215387276963" font-family="calibri" font-size="4">64</text>

		<path opacity="0.5" fill="orange" d="M-9.393248234922822 -25.289890857198003 L-1.3932482349228223 -18.361687626922496 L-1.3932482349228223 -4.5052811663714785 L-9.393248234922822 -11.433484396646989 L-9.393248234922822 -25.289890857198003"/>
		<path opacity="0.5" fill="orange" d="M-64.81887407712688 -9.289890857198003 L-56.81887407712688 -2.361687626922496 L-56.81887407712688 11.494718833628522 L-64.81887407712688 4.566515603353011 L-64.81887407712688 -9.289890857198003"/>
		<path opacity="0.5" fill="orange" d="M-9.393248234922822 -25.289890857198003 L-64.81887407712688 -9.289890857198003 L-64.81887407712688 4.566515603353011 L-9.393248234922822 -11.433484396646989 L-9.393248234922822 -25.289890857198003"/>
		<path opacity="0.5" fill="orange" d="M-1.3932482349228223 -18.361687626922496 L-56.81887407712688 -2.361687626922496 L-56.81887407712688 11.494718833628522 L-1.3932482349228223 -4.5052811663714785 L-1.3932482349228223 -18.361687626922496"/>
		<path opacity="0.5" fill="orange" d="M-9.393248234922822 -25.289890857198003 L-1.3932482349228223 -18.361687626922496 L-56.81887407712688 -2.361687626922496 L-64.81887407712688 -9.289890857198003 L-9.393248234922822 -25.289890857198003"/>
		<path opacity="0.5" fill="orange" d="M-9.393248234922822 -11.433484396646989 L-1.3932482349228223 -4.5052811663714785 L-56.81887407712688 11.494718833628522 L-64.81887407712688 4.566515603353011 L-9.393248234922822 -11.433484396646989"/>
		<text x="-64.81887407712688" y="-2.361687626922496" font-family="calibri" font-size="4">16</text>
		<text x="-60.81887407712688" y="8.030617218490766" font-family="calibri" font-size="4">16</text>
		<text x="-37.10606115602485" y="-17.289890857198003" font-family="calibri" font-size="4">64</text>

<!-- Arrow -->
		<path opacity="0.5" stroke="black" d="M-105.37976320958228 -2.4884480157129936 L-60.81887407712688 1.1024139882152584"/>
		<circle opacity="0.5" cx="-60.81887407712688" cy="1.1024139882152584" r="1" fill="black" />
		<path opacity="0.5" fill="orange" d="M-109.37976320958228 -12.880752861126254 L-101.37976320958228 -5.952549630850747 L-101.37976320958228 7.903856829700267 L-109.37976320958228 0.9756535994247599 L-109.37976320958228 -12.880752861126254"/>
		<path opacity="0.5" fill="orange" d="M-164.80538905178634 3.119247138873746 L-156.80538905178634 10.047450369149253 L-156.80538905178634 23.903856829700267 L-164.80538905178634 16.97565359942476 L-164.80538905178634 3.119247138873746"/>
		<path opacity="0.5" fill="orange" d="M-109.37976320958228 -12.880752861126254 L-164.80538905178634 3.119247138873746 L-164.80538905178634 16.97565359942476 L-109.37976320958228 0.9756535994247599 L-109.37976320958228 -12.880752861126254"/>
		<path opacity="0.5" fill="orange" d="M-101.37976320958228 -5.952549630850747 L-156.80538905178634 10.047450369149253 L-156.80538905178634 23.903856829700267 L-101.37976320958228 7.903856829700267 L-101.37976320958228 -5.952549630850747"/>
		<path opacity="0.5" fill="orange" d="M-109.37976320958228 -12.880752861126254 L-101.37976320958228 -5.952549630850747 L-156.80538905178634 10.047450369149253 L-164.80538905178634 3.119247138873746 L-109.37976320958228 -12.880752861126254"/>
		<path opacity="0.5" fill="orange" d="M-109.37976320958228 0.9756535994247599 L-101.37976320958228 7.903856829700267 L-156.80538905178634 23.903856829700267 L-164.80538905178634 16.97565359942476 L-109.37976320958228 0.9756535994247599"/>
		<text x="-164.80538905178634" y="10.047450369149253" font-family="calibri" font-size="4">16</text>
		<text x="-160.80538905178634" y="20.439755214562513" font-family="calibri" font-size="4">16</text>
		<text x="-137.0925761306843" y="-4.880752861126254" font-family="calibri" font-size="4">64</text>

		<path opacity="0.5" fill="orange" d="M275.5605438279292 -3.0485664109218824 L279.5605438279292 0.415535204215864 L279.5605438279292 7.343738434491378 L275.5605438279292 3.879636819353628 L275.5605438279292 -3.0485664109218824"/>
		<path opacity="0.5" fill="orange" d="M220.1349179857251 12.951433589078118 L224.1349179857251 16.415535204215864 L224.1349179857251 23.343738434491378 L220.1349179857251 19.879636819353628 L220.1349179857251 12.951433589078118"/>
		<path opacity="0.5" fill="orange" d="M275.5605438279292 -3.0485664109218824 L220.1349179857251 12.951433589078118 L220.1349179857251 19.879636819353628 L275.5605438279292 3.879636819353628 L275.5605438279292 -3.0485664109218824"/>
		<path opacity="0.5" fill="orange" d="M279.5605438279292 0.415535204215864 L224.1349179857251 16.415535204215864 L224.1349179857251 23.343738434491378 L279.5605438279292 7.343738434491378 L279.5605438279292 0.415535204215864"/>
		<path opacity="0.5" fill="orange" d="M275.5605438279292 -3.0485664109218824 L279.5605438279292 0.415535204215864 L224.1349179857251 16.415535204215864 L220.1349179857251 12.951433589078118 L275.5605438279292 -3.0485664109218824"/>
		<path opacity="0.5" fill="orange" d="M275.5605438279292 3.879636819353628 L279.5605438279292 7.343738434491378 L224.1349179857251 23.343738434491378 L220.1349179857251 19.879636819353628 L275.5605438279292 3.879636819353628"/>
		<text x="220.1349179857251" y="16.41553520421587" font-family="calibri" font-size="4">8</text>
		<text x="222.1349179857251" y="21.611687626922503" font-family="calibri" font-size="4">8</text>
		<text x="247.84773090682717" y="4.951433589078118" font-family="calibri" font-size="4">64</text>

<!-- Arrow -->
		<path opacity="0.5" stroke="black" d="M-76.87976320958225 22.193275992143505 L-60.81887407712688 1.1024139882152584"/>
		<circle opacity="0.5" cx="-60.81887407712688" cy="1.1024139882152584" r="1" fill="black" />
		<path opacity="0.5" fill="orange" d="M48.34713282184376 13.178847577293368 L52.347132821843765 16.64294919243112 L52.347132821843765 23.571152422706632 L48.34713282184376 20.10705080756888 L48.34713282184376 13.178847577293368"/>
		<path opacity="0.5" fill="orange" d="M-7.0784930203603125 29.178847577293368 L-3.0784930203603125 32.642949192431125 L-3.0784930203603125 39.57115242270663 L-7.0784930203603125 36.107050807568875 L-7.0784930203603125 29.178847577293368"/>
		<path opacity="0.5" fill="orange" d="M48.34713282184376 13.178847577293368 L-7.0784930203603125 29.178847577293368 L-7.0784930203603125 36.107050807568875 L48.34713282184376 20.10705080756888 L48.34713282184376 13.178847577293368"/>
		<path opacity="0.5" fill="orange" d="M52.347132821843765 16.64294919243112 L-3.0784930203603125 32.642949192431125 L-3.0784930203603125 39.57115242270663 L52.347132821843765 23.571152422706632 L52.347132821843765 16.64294919243112"/>
		<path opacity="0.5" fill="orange" d="M48.34713282184376 13.178847577293368 L52.347132821843765 16.64294919243112 L-3.0784930203603125 32.642949192431125 L-7.0784930203603125 29.178847577293368 L48.34713282184376 13.178847577293368"/>
		<path opacity="0.5" fill="orange" d="M48.34713282184376 20.10705080756888 L52.347132821843765 23.571152422706632 L-3.0784930203603125 39.57115242270663 L-7.0784930203603125 36.107050807568875 L48.34713282184376 20.10705080756888"/>
		<text x="-7.0784930203603125" y="32.64294919243112" font-family="calibri" font-size="4">8</text>
		<text x="-5.0784930203603125" y="37.83910161513775" font-family="calibri" font-size="4">8</text>
		<text x="20.634319900741723" y="21.178847577293368" font-family="calibri" font-size="4">64</text>

		<path opacity="0.75" fill="pink" d="M177.14916577433445 26.352592714379142 L179.64916577433445 28.517656223840234 L221.01542193191702 17.571399862436074 L177.14916577433445 26.352592714379142"/>
		<path opacity="0.75" fill="pink" d="M177.14916577433445 26.352592714379142 L177.14916577433445 30.682719733301333 L221.01542193191702 17.571399862436074 L177.14916577433445 26.352592714379142"/>
		<path opacity="0.75" fill="pink" d="M179.64916577433445 28.517656223840234 L179.64916577433445 32.847783242762425 L221.01542193191702 17.571399862436074 L179.64916577433445 28.517656223840234"/>
		<path opacity="0.75" fill="pink" d="M177.14916577433445 30.682719733301333 L179.64916577433445 32.847783242762425 L221.01542193191702 17.571399862436074 L177.14916577433445 30.682719733301333"/>

		<path opacity="0.75" fill="pink" d="M-202.3752408417282 16.311491086811202 L-199.8752408417282 18.476554596272294 L-157.55069558814415 10.35135297375841 L-202.3752408417282 16.311491086811202"/>
		<path opacity="0.75" fill="pink" d="M-202.3752408417282 16.311491086811202 L-202.3752408417282 20.641618105733393 L-157.55069558814415 10.35135297375841 L-202.3752408417282 16.311491086811202"/>
		<path opacity="0.75" fill="pink" d="M-199.8752408417282 18.476554596272294 L-199.8752408417282 22.806681615194485 L-157.55069558814415 10.35135297375841 L-199.8752408417282 18.476554596272294"/>
		<path opacity="0.75" fill="pink" d="M-202.3752408417282 20.641618105733393 L-199.8752408417282 22.806681615194485 L-157.55069558814415 10.35135297375841 L-202.3752408417282 20.641618105733393"/>

		<path opacity="0.75" fill="darkturquoise" d="M-202.3752408417282 16.311491086811202 L-199.8752408417282 18.476554596272294 L-199.8752408417282 22.806681615194485 L-202.3752408417282 20.641618105733393 L-202.3752408417282 16.311491086811202"/>
		<path opacity="0.75" fill="darkturquoise" d="M-230.08805376283027 24.311491086811202 L-227.58805376283027 26.476554596272294 L-227.58805376283027 30.806681615194485 L-230.08805376283027 28.641618105733393 L-230.08805376283027 24.311491086811202"/>
		<path opacity="0.75" fill="darkturquoise" d="M-202.3752408417282 16.311491086811202 L-230.08805376283027 24.311491086811202 L-230.08805376283027 28.641618105733393 L-202.3752408417282 20.641618105733393 L-202.3752408417282 16.311491086811202"/>
		<path opacity="0.75" fill="darkturquoise" d="M-199.8752408417282 18.476554596272294 L-227.58805376283027 26.476554596272294 L-227.58805376283027 30.806681615194485 L-199.8752408417282 22.806681615194485 L-199.8752408417282 18.476554596272294"/>
		<path opacity="0.75" fill="darkturquoise" d="M-202.3752408417282 16.311491086811202 L-199.8752408417282 18.476554596272294 L-227.58805376283027 26.476554596272294 L-230.08805376283027 24.311491086811202 L-202.3752408417282 16.311491086811202"/>
		<path opacity="0.75" fill="darkturquoise" d="M-202.3752408417282 20.641618105733393 L-199.8752408417282 22.806681615194485 L-227.58805376283027 30.806681615194485 L-230.08805376283027 28.641618105733393 L-202.3752408417282 20.641618105733393"/>
		<text x="-230.08805376283027" y="26.476554596272297" font-family="calibri" font-size="4">5</text>
		<text x="-228.83805376283027" y="29.72414986046394" font-family="calibri" font-size="4">5</text>
		<text x="-216.23164730227924" y="20.311491086811202" font-family="calibri" font-size="4">32</text>

		<path opacity="0.5" fill="orange" d="M-212.10665924100823 5.226942293460482 L-196.10665924100823 19.083348754011496 L-196.10665924100823 46.79616167511354 L-212.10665924100823 32.93975521456252 L-212.10665924100823 5.226942293460482"/>
		<path opacity="0.5" fill="orange" d="M-239.8194721621103 13.226942293460482 L-223.8194721621103 27.083348754011496 L-223.8194721621103 54.79616167511354 L-239.8194721621103 40.93975521456252 L-239.8194721621103 13.226942293460482"/>
		<path opacity="0.5" fill="orange" d="M-212.10665924100823 5.226942293460482 L-239.8194721621103 13.226942293460482 L-239.8194721621103 40.93975521456252 L-212.10665924100823 32.93975521456252 L-212.10665924100823 5.226942293460482"/>
		<path opacity="0.5" fill="orange" d="M-196.10665924100823 19.083348754011496 L-223.8194721621103 27.083348754011496 L-223.8194721621103 54.79616167511354 L-196.10665924100823 46.79616167511354 L-196.10665924100823 19.083348754011496"/>
		<path opacity="0.5" fill="orange" d="M-212.10665924100823 5.226942293460482 L-196.10665924100823 19.083348754011496 L-223.8194721621103 27.083348754011496 L-239.8194721621103 13.226942293460482 L-212.10665924100823 5.226942293460482"/>
		<path opacity="0.5" fill="orange" d="M-212.10665924100823 32.93975521456252 L-196.10665924100823 46.79616167511354 L-223.8194721621103 54.79616167511354 L-239.8194721621103 40.93975521456252 L-212.10665924100823 32.93975521456252"/>
		<text x="-239.8194721621103" y="27.0833487540115" font-family="calibri" font-size="4">32</text>
		<text x="-231.8194721621103" y="47.867958444838024" font-family="calibri" font-size="4">32</text>
		<text x="-225.96306570155926" y="9.226942293460482" font-family="calibri" font-size="4">32</text>

		<path opacity="0.5" fill="orange" d="M-80.87976320958225 11.800971146730241 L-72.87976320958225 18.729174377005748 L-72.87976320958225 32.58558083755677 L-80.87976320958225 25.65737760728126 L-80.87976320958225 11.800971146730241"/>
		<path opacity="0.5" fill="orange" d="M-136.3053890517863 27.80097114673024 L-128.3053890517863 34.72917437700575 L-128.3053890517863 48.58558083755677 L-136.3053890517863 41.65737760728126 L-136.3053890517863 27.80097114673024"/>
		<path opacity="0.5" fill="orange" d="M-80.87976320958225 11.800971146730241 L-136.3053890517863 27.80097114673024 L-136.3053890517863 41.65737760728126 L-80.87976320958225 25.65737760728126 L-80.87976320958225 11.800971146730241"/>
		<path opacity="0.5" fill="orange" d="M-72.87976320958225 18.729174377005748 L-128.3053890517863 34.72917437700575 L-128.3053890517863 48.58558083755677 L-72.87976320958225 32.58558083755677 L-72.87976320958225 18.729174377005748"/>
		<path opacity="0.5" fill="orange" d="M-80.87976320958225 11.800971146730241 L-72.87976320958225 18.729174377005748 L-128.3053890517863 34.72917437700575 L-136.3053890517863 27.80097114673024 L-80.87976320958225 11.800971146730241"/>
		<path opacity="0.5" fill="orange" d="M-80.87976320958225 25.65737760728126 L-72.87976320958225 32.58558083755677 L-128.3053890517863 48.58558083755677 L-136.3053890517863 41.65737760728126 L-80.87976320958225 25.65737760728126"/>
		<text x="-136.3053890517863" y="34.72917437700575" font-family="calibri" font-size="4">16</text>
		<text x="-132.3053890517863" y="45.12147922241901" font-family="calibri" font-size="4">16</text>
		<text x="-108.59257613068428" y="19.80097114673024" font-family="calibri" font-size="4">64</text>

		<path opacity="0.75" fill="darkturquoise" d="M177.14916577433445 26.352592714379142 L179.64916577433445 28.517656223840234 L179.64916577433445 32.847783242762425 L177.14916577433445 30.682719733301333 L177.14916577433445 26.352592714379142"/>
		<path opacity="0.75" fill="darkturquoise" d="M121.7235399321304 42.35259271437914 L124.2235399321304 44.517656223840234 L124.2235399321304 48.847783242762425 L121.7235399321304 46.68271973330133 L121.7235399321304 42.35259271437914"/>
		<path opacity="0.75" fill="darkturquoise" d="M177.14916577433445 26.352592714379142 L121.7235399321304 42.35259271437914 L121.7235399321304 46.68271973330133 L177.14916577433445 30.682719733301333 L177.14916577433445 26.352592714379142"/>
		<path opacity="0.75" fill="darkturquoise" d="M179.64916577433445 28.517656223840234 L124.2235399321304 44.517656223840234 L124.2235399321304 48.847783242762425 L179.64916577433445 32.847783242762425 L179.64916577433445 28.517656223840234"/>
		<path opacity="0.75" fill="darkturquoise" d="M177.14916577433445 26.352592714379142 L179.64916577433445 28.517656223840234 L124.2235399321304 44.517656223840234 L121.7235399321304 42.35259271437914 L177.14916577433445 26.352592714379142"/>
		<path opacity="0.75" fill="darkturquoise" d="M177.14916577433445 30.682719733301333 L179.64916577433445 32.847783242762425 L124.2235399321304 48.847783242762425 L121.7235399321304 46.68271973330133 L177.14916577433445 30.682719733301333"/>
		<text x="121.7235399321304" y="44.517656223840234" font-family="calibri" font-size="4">5</text>
		<text x="122.9735399321304" y="47.76525148803188" font-family="calibri" font-size="4">5</text>
		<text x="149.43635285323242" y="34.35259271437914" font-family="calibri" font-size="4">64</text>

		<path opacity="0.5" fill="orange" d="M176.8336477965032 25.451433589078118 L180.8336477965032 28.915535204215864 L180.8336477965032 35.84373843449138 L176.8336477965032 32.37963681935363 L176.8336477965032 25.451433589078118"/>
		<path opacity="0.5" fill="orange" d="M121.40802195429913 41.45143358907812 L125.40802195429913 44.915535204215864 L125.40802195429913 51.84373843449138 L121.40802195429913 48.37963681935363 L121.40802195429913 41.45143358907812"/>
		<path opacity="0.5" fill="orange" d="M176.8336477965032 25.451433589078118 L121.40802195429913 41.45143358907812 L121.40802195429913 48.37963681935363 L176.8336477965032 32.37963681935363 L176.8336477965032 25.451433589078118"/>
		<path opacity="0.5" fill="orange" d="M180.8336477965032 28.915535204215864 L125.40802195429913 44.915535204215864 L125.40802195429913 51.84373843449138 L180.8336477965032 35.84373843449138 L180.8336477965032 28.915535204215864"/>
		<path opacity="0.5" fill="orange" d="M176.8336477965032 25.451433589078118 L180.8336477965032 28.915535204215864 L125.40802195429913 44.915535204215864 L121.40802195429913 41.45143358907812 L176.8336477965032 25.451433589078118"/>
		<path opacity="0.5" fill="orange" d="M176.8336477965032 32.37963681935363 L180.8336477965032 35.84373843449138 L125.40802195429913 51.84373843449138 L121.40802195429913 48.37963681935363 L176.8336477965032 32.37963681935363"/>
		<text x="121.40802195429913" y="44.91553520421587" font-family="calibri" font-size="4">8</text>
		<text x="123.40802195429913" y="50.1116876269225" font-family="calibri" font-size="4">8</text>
		<text x="149.12083487540116" y="33.45143358907812" font-family="calibri" font-size="4">64</text>

		<path opacity="0.75" fill="pink" d="M-49.71606189439143 41.81541796711206 L-47.21606189439143 43.98048147657316 L-4.633333479671137 37.85868957420818 L-49.71606189439143 41.81541796711206"/>
		<path opacity="0.75" fill="pink" d="M-49.71606189439143 41.81541796711206 L-49.71606189439143 46.14554498603426 L-4.633333479671137 37.85868957420818 L-49.71606189439143 41.81541796711206"/>
		<path opacity="0.75" fill="pink" d="M-47.21606189439143 43.98048147657316 L-47.21606189439143 48.31060849549535 L-4.633333479671137 37.85868957420818 L-47.21606189439143 43.98048147657316"/>
		<path opacity="0.75" fill="pink" d="M-49.71606189439143 46.14554498603426 L-47.21606189439143 48.31060849549535 L-4.633333479671137 37.85868957420818 L-49.71606189439143 46.14554498603426"/>

		<path opacity="0.75" fill="pink" d="M-179.3780826657125 51.59284496691804 L-176.8780826657125 53.757908476379136 L-132.02596421581805 38.61358282108873 L-179.3780826657125 51.59284496691804"/>
		<path opacity="0.75" fill="pink" d="M-179.3780826657125 51.59284496691804 L-179.3780826657125 55.922971985840235 L-132.02596421581805 38.61358282108873 L-179.3780826657125 51.59284496691804"/>
		<path opacity="0.75" fill="pink" d="M-176.8780826657125 53.757908476379136 L-176.8780826657125 58.08803549530133 L-132.02596421581805 38.61358282108873 L-176.8780826657125 53.757908476379136"/>
		<path opacity="0.75" fill="pink" d="M-179.3780826657125 55.922971985840235 L-176.8780826657125 58.08803549530133 L-132.02596421581805 38.61358282108873 L-179.3780826657125 55.922971985840235"/>

<!-- Arrow -->
		<path opacity="0.5" stroke="black" d="M78.84713282184377 43.056724007856495 L123.40802195429913 46.647586011784746"/>
		<circle opacity="0.5" cx="123.40802195429913" cy="46.647586011784746" r="1" fill="black" />
		<path opacity="0.75" fill="darkturquoise" d="M-272.9301832059546 35.92715259537282 L-267.9301832059546 40.257279614295015 L-267.9301832059546 48.9175336521394 L-272.9301832059546 44.587406633217206 L-272.9301832059546 35.92715259537282"/>
		<path opacity="0.75" fill="darkturquoise" d="M-290.2506912816434 40.92715259537282 L-285.2506912816434 45.257279614295015 L-285.2506912816434 53.9175336521394 L-290.2506912816434 49.587406633217206 L-290.2506912816434 40.92715259537282"/>
		<path opacity="0.75" fill="darkturquoise" d="M-272.9301832059546 35.92715259537282 L-290.2506912816434 40.92715259537282 L-290.2506912816434 49.587406633217206 L-272.9301832059546 44.587406633217206 L-272.9301832059546 35.92715259537282"/>
		<path opacity="0.75" fill="darkturquoise" d="M-267.9301832059546 40.257279614295015 L-285.2506912816434 45.257279614295015 L-285.2506912816434 53.9175336521394 L-267.9301832059546 48.9175336521394 L-267.9301832059546 40.257279614295015"/>
		<path opacity="0.75" fill="darkturquoise" d="M-272.9301832059546 35.92715259537282 L-267.9301832059546 40.257279614295015 L-285.2506912816434 45.257279614295015 L-290.2506912816434 40.92715259537282 L-272.9301832059546 35.92715259537282"/>
		<path opacity="0.75" fill="darkturquoise" d="M-272.9301832059546 44.587406633217206 L-267.9301832059546 48.9175336521394 L-285.2506912816434 53.9175336521394 L-290.2506912816434 49.587406633217206 L-272.9301832059546 44.587406633217206"/>
		<text x="-290.2506912816434" y="45.257279614295015" font-family="calibri" font-size="4">10</text>
		<text x="-287.7506912816434" y="51.752470142678305" font-family="calibri" font-size="4">10</text>
		<text x="-281.590437243799" y="38.42715259537282" font-family="calibri" font-size="4">20</text>

		<path opacity="0.5" fill="orange" d="M-283.1207423513322 25.726942293460482 L-267.1207423513322 39.583348754011496 L-267.1207423513322 67.29616167511354 L-283.1207423513322 53.43975521456252 L-283.1207423513322 25.726942293460482"/>
		<path opacity="0.5" fill="orange" d="M-300.441250427021 30.726942293460482 L-284.441250427021 44.583348754011496 L-284.441250427021 72.29616167511354 L-300.441250427021 58.43975521456252 L-300.441250427021 30.726942293460482"/>
		<path opacity="0.5" fill="orange" d="M-283.1207423513322 25.726942293460482 L-300.441250427021 30.726942293460482 L-300.441250427021 58.43975521456252 L-283.1207423513322 53.43975521456252 L-283.1207423513322 25.726942293460482"/>
		<path opacity="0.5" fill="orange" d="M-267.1207423513322 39.583348754011496 L-284.441250427021 44.583348754011496 L-284.441250427021 72.29616167511354 L-267.1207423513322 67.29616167511354 L-267.1207423513322 39.583348754011496"/>
		<path opacity="0.5" fill="orange" d="M-283.1207423513322 25.726942293460482 L-267.1207423513322 39.583348754011496 L-284.441250427021 44.583348754011496 L-300.441250427021 30.726942293460482 L-283.1207423513322 25.726942293460482"/>
		<path opacity="0.5" fill="orange" d="M-283.1207423513322 53.43975521456252 L-267.1207423513322 67.29616167511354 L-284.441250427021 72.29616167511354 L-300.441250427021 58.43975521456252 L-283.1207423513322 53.43975521456252"/>
		<text x="-300.441250427021" y="44.583348754011496" font-family="calibri" font-size="4">32</text>
		<text x="-292.441250427021" y="65.36795844483802" font-family="calibri" font-size="4">32</text>
		<text x="-291.7809963891766" y="28.226942293460482" font-family="calibri" font-size="4">20</text>

		<path opacity="0.75" fill="pink" d="M-272.9301832059546 35.92715259537282 L-267.9301832059546 40.257279614295015 L-230.0583280772168 29.74353698310869 L-272.9301832059546 35.92715259537282"/>
		<path opacity="0.75" fill="pink" d="M-272.9301832059546 35.92715259537282 L-272.9301832059546 44.587406633217206 L-230.0583280772168 29.74353698310869 L-272.9301832059546 35.92715259537282"/>
		<path opacity="0.75" fill="pink" d="M-267.9301832059546 40.257279614295015 L-267.9301832059546 48.9175336521394 L-230.0583280772168 29.74353698310869 L-267.9301832059546 40.257279614295015"/>
		<path opacity="0.75" fill="pink" d="M-272.9301832059546 44.587406633217206 L-267.9301832059546 48.9175336521394 L-230.0583280772168 29.74353698310869 L-272.9301832059546 44.587406633217206"/>

		<path opacity="0.5" fill="orange" d="M76.84713282184377 37.86057158514987 L80.84713282184377 41.32467320028762 L80.84713282184377 48.25287643056313 L76.84713282184377 44.78877481542537 L76.84713282184377 37.86057158514987"/>
		<path opacity="0.5" fill="orange" d="M21.4215069796397 53.86057158514987 L25.4215069796397 57.32467320028762 L25.4215069796397 64.25287643056313 L21.4215069796397 60.78877481542537 L21.4215069796397 53.86057158514987"/>
		<path opacity="0.5" fill="orange" d="M76.84713282184377 37.86057158514987 L21.4215069796397 53.86057158514987 L21.4215069796397 60.78877481542537 L76.84713282184377 44.78877481542537 L76.84713282184377 37.86057158514987"/>
		<path opacity="0.5" fill="orange" d="M80.84713282184377 41.32467320028762 L25.4215069796397 57.32467320028762 L25.4215069796397 64.25287643056313 L80.84713282184377 48.25287643056313 L80.84713282184377 41.32467320028762"/>
		<path opacity="0.5" fill="orange" d="M76.84713282184377 37.86057158514987 L80.84713282184377 41.32467320028762 L25.4215069796397 57.32467320028762 L21.4215069796397 53.86057158514987 L76.84713282184377 37.86057158514987"/>
		<path opacity="0.5" fill="orange" d="M76.84713282184377 44.78877481542537 L80.84713282184377 48.25287643056313 L25.4215069796397 64.25287643056313 L21.4215069796397 60.78877481542537 L76.84713282184377 44.78877481542537"/>
		<text x="21.4215069796397" y="57.32467320028762" font-family="calibri" font-size="4">8</text>
		<text x="23.4215069796397" y="62.52082562299425" font-family="calibri" font-size="4">8</text>
		<text x="49.13431990074174" y="45.86057158514987" font-family="calibri" font-size="4">64</text>

		<path opacity="0.75" fill="darkturquoise" d="M-179.3780826657125 51.59284496691804 L-176.8780826657125 53.757908476379136 L-176.8780826657125 58.08803549530133 L-179.3780826657125 55.922971985840235 L-179.3780826657125 51.59284496691804"/>
		<path opacity="0.75" fill="darkturquoise" d="M-207.09089558681455 59.59284496691804 L-204.59089558681455 61.757908476379136 L-204.59089558681455 66.08803549530133 L-207.09089558681455 63.922971985840235 L-207.09089558681455 59.59284496691804"/>
		<path opacity="0.75" fill="darkturquoise" d="M-179.3780826657125 51.59284496691804 L-207.09089558681455 59.59284496691804 L-207.09089558681455 63.922971985840235 L-179.3780826657125 55.922971985840235 L-179.3780826657125 51.59284496691804"/>
		<path opacity="0.75" fill="darkturquoise" d="M-176.8780826657125 53.757908476379136 L-204.59089558681455 61.757908476379136 L-204.59089558681455 66.08803549530133 L-176.8780826657125 58.08803549530133 L-176.8780826657125 53.757908476379136"/>
		<path opacity="0.75" fill="darkturquoise" d="M-179.3780826657125 51.59284496691804 L-176.8780826657125 53.757908476379136 L-204.59089558681455 61.757908476379136 L-207.09089558681455 59.59284496691804 L-179.3780826657125 51.59284496691804"/>
		<path opacity="0.75" fill="darkturquoise" d="M-179.3780826657125 55.922971985840235 L-176.8780826657125 58.08803549530133 L-204.59089558681455 66.08803549530133 L-207.09089558681455 63.922971985840235 L-179.3780826657125 55.922971985840235"/>
		<text x="-207.09089558681455" y="61.757908476379136" font-family="calibri" font-size="4">5</text>
		<text x="-205.84089558681455" y="65.00550374057079" font-family="calibri" font-size="4">5</text>
		<text x="-193.23448912626353" y="55.59284496691804" font-family="calibri" font-size="4">32</text>

		<path opacity="0.5" fill="orange" d="M-183.60665924100823 29.908666301316977 L-167.60665924100823 43.76507276186799 L-167.60665924100823 71.47788568297003 L-183.60665924100823 57.62147922241901 L-183.60665924100823 29.908666301316977"/>
		<path opacity="0.5" fill="orange" d="M-211.3194721621103 37.90866630131698 L-195.3194721621103 51.76507276186799 L-195.3194721621103 79.47788568297003 L-211.3194721621103 65.62147922241901 L-211.3194721621103 37.90866630131698"/>
		<path opacity="0.5" fill="orange" d="M-183.60665924100823 29.908666301316977 L-211.3194721621103 37.90866630131698 L-211.3194721621103 65.62147922241901 L-183.60665924100823 57.62147922241901 L-183.60665924100823 29.908666301316977"/>
		<path opacity="0.5" fill="orange" d="M-167.60665924100823 43.76507276186799 L-195.3194721621103 51.76507276186799 L-195.3194721621103 79.47788568297003 L-167.60665924100823 71.47788568297003 L-167.60665924100823 43.76507276186799"/>
		<path opacity="0.5" fill="orange" d="M-183.60665924100823 29.908666301316977 L-167.60665924100823 43.76507276186799 L-195.3194721621103 51.76507276186799 L-211.3194721621103 37.90866630131698 L-183.60665924100823 29.908666301316977"/>
		<path opacity="0.5" fill="orange" d="M-183.60665924100823 57.62147922241901 L-167.60665924100823 71.47788568297003 L-195.3194721621103 79.47788568297003 L-211.3194721621103 65.62147922241901 L-183.60665924100823 57.62147922241901"/>
		<text x="-211.3194721621103" y="51.765072761868" font-family="calibri" font-size="4">32</text>
		<text x="-203.3194721621103" y="72.54968245269453" font-family="calibri" font-size="4">32</text>
		<text x="-197.46306570155926" y="33.90866630131698" font-family="calibri" font-size="4">32</text>

		<path opacity="0.75" fill="darkturquoise" d="M-49.71606189439143 41.81541796711206 L-47.21606189439143 43.98048147657316 L-47.21606189439143 48.31060849549535 L-49.71606189439143 46.14554498603426 L-49.71606189439143 41.81541796711206"/>
		<path opacity="0.75" fill="darkturquoise" d="M-105.14168773659549 57.81541796711206 L-102.64168773659549 59.98048147657316 L-102.64168773659549 64.31060849549536 L-105.14168773659549 62.14554498603426 L-105.14168773659549 57.81541796711206"/>
		<path opacity="0.75" fill="darkturquoise" d="M-49.71606189439143 41.81541796711206 L-105.14168773659549 57.81541796711206 L-105.14168773659549 62.14554498603426 L-49.71606189439143 46.14554498603426 L-49.71606189439143 41.81541796711206"/>
		<path opacity="0.75" fill="darkturquoise" d="M-47.21606189439143 43.98048147657316 L-102.64168773659549 59.98048147657316 L-102.64168773659549 64.31060849549536 L-47.21606189439143 48.31060849549535 L-47.21606189439143 43.98048147657316"/>
		<path opacity="0.75" fill="darkturquoise" d="M-49.71606189439143 41.81541796711206 L-47.21606189439143 43.98048147657316 L-102.64168773659549 59.98048147657316 L-105.14168773659549 57.81541796711206 L-49.71606189439143 41.81541796711206"/>
		<path opacity="0.75" fill="darkturquoise" d="M-49.71606189439143 46.14554498603426 L-47.21606189439143 48.31060849549535 L-102.64168773659549 64.31060849549536 L-105.14168773659549 62.14554498603426 L-49.71606189439143 46.14554498603426"/>
		<text x="-105.14168773659549" y="59.98048147657316" font-family="calibri" font-size="4">5</text>
		<text x="-103.89168773659549" y="63.228076740764806" font-family="calibri" font-size="4">5</text>
		<text x="-77.42887481549346" y="49.81541796711206" font-family="calibri" font-size="4">64</text>

		<path opacity="0.5" fill="orange" d="M-52.37976320958225 36.482695154586736 L-44.37976320958225 43.41089838486224 L-44.37976320958225 57.267304845413264 L-52.37976320958225 50.33910161513776 L-52.37976320958225 36.482695154586736"/>
		<path opacity="0.5" fill="orange" d="M-107.8053890517863 52.482695154586736 L-99.8053890517863 59.41089838486224 L-99.8053890517863 73.26730484541326 L-107.8053890517863 66.33910161513775 L-107.8053890517863 52.482695154586736"/>
		<path opacity="0.5" fill="orange" d="M-52.37976320958225 36.482695154586736 L-107.8053890517863 52.482695154586736 L-107.8053890517863 66.33910161513775 L-52.37976320958225 50.33910161513776 L-52.37976320958225 36.482695154586736"/>
		<path opacity="0.5" fill="orange" d="M-44.37976320958225 43.41089838486224 L-99.8053890517863 59.41089838486224 L-99.8053890517863 73.26730484541326 L-44.37976320958225 57.267304845413264 L-44.37976320958225 43.41089838486224"/>
		<path opacity="0.5" fill="orange" d="M-52.37976320958225 36.482695154586736 L-44.37976320958225 43.41089838486224 L-99.8053890517863 59.41089838486224 L-107.8053890517863 52.482695154586736 L-52.37976320958225 36.482695154586736"/>
		<path opacity="0.5" fill="orange" d="M-52.37976320958225 50.33910161513776 L-44.37976320958225 57.267304845413264 L-99.8053890517863 73.26730484541326 L-107.8053890517863 66.33910161513775 L-52.37976320958225 50.33910161513776"/>
		<text x="-107.8053890517863" y="59.41089838486224" font-family="calibri" font-size="4">16</text>
		<text x="-103.8053890517863" y="69.8032032302755" font-family="calibri" font-size="4">16</text>
		<text x="-80.09257613068428" y="44.482695154586736" font-family="calibri" font-size="4">64</text>

<!-- Arrow -->
		<path opacity="0.5" stroke="black" d="M107.34713282184379 67.738448015713 L123.40802195429913 46.647586011784746"/>
		<circle opacity="0.5" cx="123.40802195429913" cy="46.647586011784746" r="1" fill="black" />
		<path opacity="0.75" fill="pink" d="M-252.80597185359238 52.66304264211725 L-247.80597185359238 56.993169661039445 L-201.8711388215682 66.99337577629285 L-252.80597185359238 52.66304264211725"/>
		<path opacity="0.75" fill="pink" d="M-252.80597185359238 52.66304264211725 L-252.80597185359238 61.323296679961636 L-201.8711388215682 66.99337577629285 L-252.80597185359238 52.66304264211725"/>
		<path opacity="0.75" fill="pink" d="M-247.80597185359238 56.993169661039445 L-247.80597185359238 65.65342369888383 L-201.8711388215682 66.99337577629285 L-247.80597185359238 56.993169661039445"/>
		<path opacity="0.75" fill="pink" d="M-252.80597185359238 61.323296679961636 L-247.80597185359238 65.65342369888383 L-201.8711388215682 66.99337577629285 L-252.80597185359238 61.323296679961636"/>

		<path opacity="0.75" fill="pink" d="M-19.042742919663425 69.49915642783137 L-16.542742919663425 71.66421993729247 L22.221208912731953 60.204546593659714 L-19.042742919663425 69.49915642783137"/>
		<path opacity="0.75" fill="pink" d="M-19.042742919663425 69.49915642783137 L-19.042742919663425 73.82928344675356 L22.221208912731953 60.204546593659714 L-19.042742919663425 69.49915642783137"/>
		<path opacity="0.75" fill="pink" d="M-16.542742919663425 71.66421993729247 L-16.542742919663425 75.99434695621466 L22.221208912731953 60.204546593659714 L-16.542742919663425 71.66421993729247"/>
		<path opacity="0.75" fill="pink" d="M-19.042742919663425 73.82928344675356 L-16.542742919663425 75.99434695621466 L22.221208912731953 60.204546593659714 L-19.042742919663425 73.82928344675356"/>

		<path opacity="0.75" fill="darkturquoise" d="M-252.80597185359238 52.66304264211725 L-247.80597185359238 56.993169661039445 L-247.80597185359238 65.65342369888383 L-252.80597185359238 61.323296679961636 L-252.80597185359238 52.66304264211725"/>
		<path opacity="0.75" fill="darkturquoise" d="M-270.1264799292811 57.66304264211725 L-265.1264799292811 61.993169661039445 L-265.1264799292811 70.65342369888383 L-270.1264799292811 66.32329667996163 L-270.1264799292811 57.66304264211725"/>
		<path opacity="0.75" fill="darkturquoise" d="M-252.80597185359238 52.66304264211725 L-270.1264799292811 57.66304264211725 L-270.1264799292811 66.32329667996163 L-252.80597185359238 61.323296679961636 L-252.80597185359238 52.66304264211725"/>
		<path opacity="0.75" fill="darkturquoise" d="M-247.80597185359238 56.993169661039445 L-265.1264799292811 61.993169661039445 L-265.1264799292811 70.65342369888383 L-247.80597185359238 65.65342369888383 L-247.80597185359238 56.993169661039445"/>
		<path opacity="0.75" fill="darkturquoise" d="M-252.80597185359238 52.66304264211725 L-247.80597185359238 56.993169661039445 L-265.1264799292811 61.993169661039445 L-270.1264799292811 57.66304264211725 L-252.80597185359238 52.66304264211725"/>
		<path opacity="0.75" fill="darkturquoise" d="M-252.80597185359238 61.323296679961636 L-247.80597185359238 65.65342369888383 L-265.1264799292811 70.65342369888383 L-270.1264799292811 66.32329667996163 L-252.80597185359238 61.323296679961636"/>
		<text x="-270.1264799292811" y="61.99316966103944" font-family="calibri" font-size="4">10</text>
		<text x="-267.6264799292811" y="68.48836018942274" font-family="calibri" font-size="4">10</text>
		<text x="-261.46622589143675" y="55.16304264211725" font-family="calibri" font-size="4">20</text>

		<path opacity="0.5" fill="orange" d="M-254.62074235133218 50.40866630131698 L-238.62074235133218 64.265072761868 L-238.62074235133218 91.97788568297003 L-254.62074235133218 78.12147922241901 L-254.62074235133218 50.40866630131698"/>
		<path opacity="0.5" fill="orange" d="M-271.941250427021 55.40866630131698 L-255.94125042702098 69.265072761868 L-255.94125042702098 96.97788568297003 L-271.941250427021 83.12147922241901 L-271.941250427021 55.40866630131698"/>
		<path opacity="0.5" fill="orange" d="M-254.62074235133218 50.40866630131698 L-271.941250427021 55.40866630131698 L-271.941250427021 83.12147922241901 L-254.62074235133218 78.12147922241901 L-254.62074235133218 50.40866630131698"/>
		<path opacity="0.5" fill="orange" d="M-238.62074235133218 64.265072761868 L-255.94125042702098 69.265072761868 L-255.94125042702098 96.97788568297003 L-238.62074235133218 91.97788568297003 L-238.62074235133218 64.265072761868"/>
		<path opacity="0.5" fill="orange" d="M-254.62074235133218 50.40866630131698 L-238.62074235133218 64.265072761868 L-255.94125042702098 69.265072761868 L-271.941250427021 55.40866630131698 L-254.62074235133218 50.40866630131698"/>
		<path opacity="0.5" fill="orange" d="M-254.62074235133218 78.12147922241901 L-238.62074235133218 91.97788568297003 L-255.94125042702098 96.97788568297003 L-271.941250427021 83.12147922241901 L-254.62074235133218 78.12147922241901"/>
		<text x="-271.941250427021" y="69.265072761868" font-family="calibri" font-size="4">32</text>
		<text x="-263.941250427021" y="90.04968245269453" font-family="calibri" font-size="4">32</text>
		<text x="-263.2809963891766" y="52.90866630131698" font-family="calibri" font-size="4">20</text>

		<path opacity="0.5" fill="orange" d="M105.34713282184379 62.54229559300636 L109.34713282184379 66.00639720814411 L109.34713282184379 72.93460043841964 L105.34713282184379 69.47049882328187 L105.34713282184379 62.54229559300636"/>
		<path opacity="0.5" fill="orange" d="M49.9215069796397 78.54229559300636 L53.9215069796397 82.00639720814411 L53.9215069796397 88.93460043841964 L49.9215069796397 85.47049882328187 L49.9215069796397 78.54229559300636"/>
		<path opacity="0.5" fill="orange" d="M105.34713282184379 62.54229559300636 L49.9215069796397 78.54229559300636 L49.9215069796397 85.47049882328187 L105.34713282184379 69.47049882328187 L105.34713282184379 62.54229559300636"/>
		<path opacity="0.5" fill="orange" d="M109.34713282184379 66.00639720814411 L53.9215069796397 82.00639720814411 L53.9215069796397 88.93460043841964 L109.34713282184379 72.93460043841964 L109.34713282184379 66.00639720814411"/>
		<path opacity="0.5" fill="orange" d="M105.34713282184379 62.54229559300636 L109.34713282184379 66.00639720814411 L53.9215069796397 82.00639720814411 L49.9215069796397 78.54229559300636 L105.34713282184379 62.54229559300636"/>
		<path opacity="0.5" fill="orange" d="M105.34713282184379 69.47049882328187 L109.34713282184379 72.93460043841964 L53.9215069796397 88.93460043841964 L49.9215069796397 85.47049882328187 L105.34713282184379 69.47049882328187"/>
		<text x="49.9215069796397" y="82.00639720814411" font-family="calibri" font-size="4">8</text>
		<text x="51.9215069796397" y="87.20254963085075" font-family="calibri" font-size="4">8</text>
		<text x="77.63431990074174" y="70.54229559300636" font-family="calibri" font-size="4">64</text>

		<path opacity="0.75" fill="pink" d="M-141.8048746732028 77.57433849569013 L-139.3048746732028 79.73940200515123 L-99.83841629094039 68.16801319423045 L-141.8048746732028 77.57433849569013"/>
		<path opacity="0.75" fill="pink" d="M-141.8048746732028 77.57433849569013 L-141.8048746732028 81.90446551461233 L-99.83841629094039 68.16801319423045 L-141.8048746732028 77.57433849569013"/>
		<path opacity="0.75" fill="pink" d="M-139.3048746732028 79.73940200515123 L-139.3048746732028 84.06952902407342 L-99.83841629094039 68.16801319423045 L-139.3048746732028 79.73940200515123"/>
		<path opacity="0.75" fill="pink" d="M-141.8048746732028 81.90446551461233 L-139.3048746732028 84.06952902407342 L-99.83841629094039 68.16801319423045 L-141.8048746732028 81.90446551461233"/>

		<path opacity="0.75" fill="darkturquoise" d="M-141.8048746732028 77.57433849569013 L-139.3048746732028 79.73940200515123 L-139.3048746732028 84.06952902407342 L-141.8048746732028 81.90446551461233 L-141.8048746732028 77.57433849569013"/>
		<path opacity="0.75" fill="darkturquoise" d="M-169.51768759430485 85.57433849569013 L-167.01768759430485 87.73940200515123 L-167.01768759430485 92.06952902407342 L-169.51768759430485 89.90446551461233 L-169.51768759430485 85.57433849569013"/>
		<path opacity="0.75" fill="darkturquoise" d="M-141.8048746732028 77.57433849569013 L-169.51768759430485 85.57433849569013 L-169.51768759430485 89.90446551461233 L-141.8048746732028 81.90446551461233 L-141.8048746732028 77.57433849569013"/>
		<path opacity="0.75" fill="darkturquoise" d="M-139.3048746732028 79.73940200515123 L-167.01768759430485 87.73940200515123 L-167.01768759430485 92.06952902407342 L-139.3048746732028 84.06952902407342 L-139.3048746732028 79.73940200515123"/>
		<path opacity="0.75" fill="darkturquoise" d="M-141.8048746732028 77.57433849569013 L-139.3048746732028 79.73940200515123 L-167.01768759430485 87.73940200515123 L-169.51768759430485 85.57433849569013 L-141.8048746732028 77.57433849569013"/>
		<path opacity="0.75" fill="darkturquoise" d="M-141.8048746732028 81.90446551461233 L-139.3048746732028 84.06952902407342 L-167.01768759430485 92.06952902407342 L-169.51768759430485 89.90446551461233 L-141.8048746732028 81.90446551461233"/>
		<text x="-169.51768759430485" y="87.73940200515122" font-family="calibri" font-size="4">5</text>
		<text x="-168.26768759430485" y="90.98699726934288" font-family="calibri" font-size="4">5</text>
		<text x="-155.66128113375382" y="81.57433849569013" font-family="calibri" font-size="4">32</text>

		<path opacity="0.5" fill="orange" d="M-155.10665924100823 54.59039030917347 L-139.10665924100823 68.44679676972449 L-139.10665924100823 96.15960969082653 L-155.10665924100823 82.30320323027551 L-155.10665924100823 54.59039030917347"/>
		<path opacity="0.5" fill="orange" d="M-182.8194721621103 62.59039030917347 L-166.8194721621103 76.44679676972449 L-166.8194721621103 104.15960969082653 L-182.8194721621103 90.30320323027551 L-182.8194721621103 62.59039030917347"/>
		<path opacity="0.5" fill="orange" d="M-155.10665924100823 54.59039030917347 L-182.8194721621103 62.59039030917347 L-182.8194721621103 90.30320323027551 L-155.10665924100823 82.30320323027551 L-155.10665924100823 54.59039030917347"/>
		<path opacity="0.5" fill="orange" d="M-139.10665924100823 68.44679676972449 L-166.8194721621103 76.44679676972449 L-166.8194721621103 104.15960969082653 L-139.10665924100823 96.15960969082653 L-139.10665924100823 68.44679676972449"/>
		<path opacity="0.5" fill="orange" d="M-155.10665924100823 54.59039030917347 L-139.10665924100823 68.44679676972449 L-166.8194721621103 76.44679676972449 L-182.8194721621103 62.59039030917347 L-155.10665924100823 54.59039030917347"/>
		<path opacity="0.5" fill="orange" d="M-155.10665924100823 82.30320323027551 L-139.10665924100823 96.15960969082653 L-166.8194721621103 104.15960969082653 L-182.8194721621103 90.30320323027551 L-155.10665924100823 82.30320323027551"/>
		<text x="-182.8194721621103" y="76.4467967697245" font-family="calibri" font-size="4">32</text>
		<text x="-174.8194721621103" y="97.23140646055103" font-family="calibri" font-size="4">32</text>
		<text x="-168.96306570155926" y="58.59039030917347" font-family="calibri" font-size="4">32</text>

		<path opacity="0.75" fill="darkturquoise" d="M-19.042742919663425 69.49915642783137 L-16.542742919663425 71.66421993729247 L-16.542742919663425 75.99434695621466 L-19.042742919663425 73.82928344675356 L-19.042742919663425 69.49915642783137"/>
		<path opacity="0.75" fill="darkturquoise" d="M-74.46836876186748 85.49915642783137 L-71.96836876186748 87.66421993729247 L-71.96836876186748 91.99434695621466 L-74.46836876186748 89.82928344675356 L-74.46836876186748 85.49915642783137"/>
		<path opacity="0.75" fill="darkturquoise" d="M-19.042742919663425 69.49915642783137 L-74.46836876186748 85.49915642783137 L-74.46836876186748 89.82928344675356 L-19.042742919663425 73.82928344675356 L-19.042742919663425 69.49915642783137"/>
		<path opacity="0.75" fill="darkturquoise" d="M-16.542742919663425 71.66421993729247 L-71.96836876186748 87.66421993729247 L-71.96836876186748 91.99434695621466 L-16.542742919663425 75.99434695621466 L-16.542742919663425 71.66421993729247"/>
		<path opacity="0.75" fill="darkturquoise" d="M-19.042742919663425 69.49915642783137 L-16.542742919663425 71.66421993729247 L-71.96836876186748 87.66421993729247 L-74.46836876186748 85.49915642783137 L-19.042742919663425 69.49915642783137"/>
		<path opacity="0.75" fill="darkturquoise" d="M-19.042742919663425 73.82928344675356 L-16.542742919663425 75.99434695621466 L-71.96836876186748 91.99434695621466 L-74.46836876186748 89.82928344675356 L-19.042742919663425 73.82928344675356"/>
		<text x="-74.46836876186748" y="87.66421993729247" font-family="calibri" font-size="4">5</text>
		<text x="-73.21836876186748" y="90.9118152014841" font-family="calibri" font-size="4">5</text>
		<text x="-46.75555584076545" y="77.49915642783137" font-family="calibri" font-size="4">64</text>

		<path opacity="0.5" fill="orange" d="M-23.87976320958225 61.16441916244323 L-15.87976320958225 68.09262239271874 L-15.87976320958225 81.94902885326977 L-23.87976320958225 75.02082562299425 L-23.87976320958225 61.16441916244323"/>
		<path opacity="0.5" fill="orange" d="M-79.3053890517863 77.16441916244324 L-71.3053890517863 84.09262239271874 L-71.3053890517863 97.94902885326977 L-79.3053890517863 91.02082562299425 L-79.3053890517863 77.16441916244324"/>
		<path opacity="0.5" fill="orange" d="M-23.87976320958225 61.16441916244323 L-79.3053890517863 77.16441916244324 L-79.3053890517863 91.02082562299425 L-23.87976320958225 75.02082562299425 L-23.87976320958225 61.16441916244323"/>
		<path opacity="0.5" fill="orange" d="M-15.87976320958225 68.09262239271874 L-71.3053890517863 84.09262239271874 L-71.3053890517863 97.94902885326977 L-15.87976320958225 81.94902885326977 L-15.87976320958225 68.09262239271874"/>
		<path opacity="0.5" fill="orange" d="M-23.87976320958225 61.16441916244323 L-15.87976320958225 68.09262239271874 L-71.3053890517863 84.09262239271874 L-79.3053890517863 77.16441916244324 L-23.87976320958225 61.16441916244323"/>
		<path opacity="0.5" fill="orange" d="M-23.87976320958225 75.02082562299425 L-15.87976320958225 81.94902885326977 L-71.3053890517863 97.94902885326977 L-79.3053890517863 91.02082562299425 L-23.87976320958225 75.02082562299425"/>
		<text x="-79.3053890517863" y="84.09262239271874" font-family="calibri" font-size="4">16</text>
		<text x="-75.3053890517863" y="94.484927238132" font-family="calibri" font-size="4">16</text>
		<text x="-51.59257613068428" y="69.16441916244324" font-family="calibri" font-size="4">64</text>

		<path opacity="0.75" fill="pink" d="M8.426621227432179 94.8821912737851 L10.926621227432179 97.04725478324619 L52.07646186002725 85.2503218355098 L8.426621227432179 94.8821912737851"/>
		<path opacity="0.75" fill="pink" d="M8.426621227432179 94.8821912737851 L8.426621227432179 99.2123182927073 L52.07646186002725 85.2503218355098 L8.426621227432179 94.8821912737851"/>
		<path opacity="0.75" fill="pink" d="M10.926621227432179 97.04725478324619 L10.926621227432179 101.37738180216837 L52.07646186002725 85.2503218355098 L10.926621227432179 97.04725478324619"/>
		<path opacity="0.75" fill="pink" d="M8.426621227432179 99.2123182927073 L10.926621227432179 101.37738180216837 L52.07646186002725 85.2503218355098 L8.426621227432179 99.2123182927073"/>

		<path opacity="0.75" fill="pink" d="M-217.20139358200765 94.1853252903677 L-212.20139358200765 98.5154523092899 L-178.74995331679474 71.1557848394882 L-217.20139358200765 94.1853252903677"/>
		<path opacity="0.75" fill="pink" d="M-217.20139358200765 94.1853252903677 L-217.20139358200765 102.8455793282121 L-178.74995331679474 71.1557848394882 L-217.20139358200765 94.1853252903677"/>
		<path opacity="0.75" fill="pink" d="M-212.20139358200765 98.5154523092899 L-212.20139358200765 107.17570634713428 L-178.74995331679474 71.1557848394882 L-212.20139358200765 98.5154523092899"/>
		<path opacity="0.75" fill="pink" d="M-217.20139358200765 102.8455793282121 L-212.20139358200765 107.17570634713428 L-178.74995331679474 71.1557848394882 L-217.20139358200765 102.8455793282121"/>

		<path opacity="0.75" fill="pink" d="M-115.21004888544331 109.86830792118113 L-112.71004888544331 112.03337143064222 L-75.87290180944848 91.17431866108538 L-115.21004888544331 109.86830792118113"/>
		<path opacity="0.75" fill="pink" d="M-115.21004888544331 109.86830792118113 L-115.21004888544331 114.19843494010331 L-75.87290180944848 91.17431866108538 L-115.21004888544331 109.86830792118113"/>
		<path opacity="0.75" fill="pink" d="M-112.71004888544331 112.03337143064222 L-112.71004888544331 116.36349844956442 L-75.87290180944848 91.17431866108538 L-112.71004888544331 112.03337143064222"/>
		<path opacity="0.75" fill="pink" d="M-115.21004888544331 114.19843494010331 L-112.71004888544331 116.36349844956442 L-75.87290180944848 91.17431866108538 L-115.21004888544331 114.19843494010331"/>

		<path opacity="0.75" fill="darkturquoise" d="M-217.20139358200765 94.1853252903677 L-212.20139358200765 98.5154523092899 L-212.20139358200765 107.17570634713428 L-217.20139358200765 102.8455793282121 L-217.20139358200765 94.1853252903677"/>
		<path opacity="0.75" fill="darkturquoise" d="M-234.52190165769645 99.1853252903677 L-229.52190165769645 103.5154523092899 L-229.52190165769645 112.17570634713428 L-234.52190165769645 107.8455793282121 L-234.52190165769645 99.1853252903677"/>
		<path opacity="0.75" fill="darkturquoise" d="M-217.20139358200765 94.1853252903677 L-234.52190165769645 99.1853252903677 L-234.52190165769645 107.8455793282121 L-217.20139358200765 102.8455793282121 L-217.20139358200765 94.1853252903677"/>
		<path opacity="0.75" fill="darkturquoise" d="M-212.20139358200765 98.5154523092899 L-229.52190165769645 103.5154523092899 L-229.52190165769645 112.17570634713428 L-212.20139358200765 107.17570634713428 L-212.20139358200765 98.5154523092899"/>
		<path opacity="0.75" fill="darkturquoise" d="M-217.20139358200765 94.1853252903677 L-212.20139358200765 98.5154523092899 L-229.52190165769645 103.5154523092899 L-234.52190165769645 99.1853252903677 L-217.20139358200765 94.1853252903677"/>
		<path opacity="0.75" fill="darkturquoise" d="M-217.20139358200765 102.8455793282121 L-212.20139358200765 107.17570634713428 L-229.52190165769645 112.17570634713428 L-234.52190165769645 107.8455793282121 L-217.20139358200765 102.8455793282121"/>
		<text x="-234.52190165769645" y="103.5154523092899" font-family="calibri" font-size="4">10</text>
		<text x="-232.02190165769645" y="110.01064283767319" font-family="calibri" font-size="4">10</text>
		<text x="-225.86164761985205" y="96.6853252903677" font-family="calibri" font-size="4">20</text>

		<path opacity="0.5" fill="orange" d="M-226.12074235133218 75.09039030917347 L-210.12074235133218 88.94679676972449 L-210.12074235133218 116.65960969082653 L-226.12074235133218 102.80320323027551 L-226.12074235133218 75.09039030917347"/>
		<path opacity="0.5" fill="orange" d="M-243.44125042702098 80.09039030917347 L-227.44125042702098 93.94679676972449 L-227.44125042702098 121.65960969082653 L-243.44125042702098 107.80320323027551 L-243.44125042702098 80.09039030917347"/>
		<path opacity="0.5" fill="orange" d="M-226.12074235133218 75.09039030917347 L-243.44125042702098 80.09039030917347 L-243.44125042702098 107.80320323027551 L-226.12074235133218 102.80320323027551 L-226.12074235133218 75.09039030917347"/>
		<path opacity="0.5" fill="orange" d="M-210.12074235133218 88.94679676972449 L-227.44125042702098 93.94679676972449 L-227.44125042702098 121.65960969082653 L-210.12074235133218 116.65960969082653 L-210.12074235133218 88.94679676972449"/>
		<path opacity="0.5" fill="orange" d="M-226.12074235133218 75.09039030917347 L-210.12074235133218 88.94679676972449 L-227.44125042702098 93.94679676972449 L-243.44125042702098 80.09039030917347 L-226.12074235133218 75.09039030917347"/>
		<path opacity="0.5" fill="orange" d="M-226.12074235133218 102.80320323027551 L-210.12074235133218 116.65960969082653 L-227.44125042702098 121.65960969082653 L-243.44125042702098 107.80320323027551 L-226.12074235133218 102.80320323027551"/>
		<text x="-243.44125042702098" y="93.9467967697245" font-family="calibri" font-size="4">32</text>
		<text x="-235.44125042702098" y="114.73140646055103" font-family="calibri" font-size="4">32</text>
		<text x="-234.78099638917658" y="77.59039030917347" font-family="calibri" font-size="4">20</text>

		<path opacity="0.75" fill="darkturquoise" d="M-115.21004888544331 109.86830792118113 L-112.71004888544331 112.03337143064222 L-112.71004888544331 116.36349844956442 L-115.21004888544331 114.19843494010331 L-115.21004888544331 109.86830792118113"/>
		<path opacity="0.75" fill="darkturquoise" d="M-142.92286180654537 117.86830792118113 L-140.42286180654537 120.03337143064222 L-140.42286180654537 124.36349844956442 L-142.92286180654537 122.19843494010331 L-142.92286180654537 117.86830792118113"/>
		<path opacity="0.75" fill="darkturquoise" d="M-115.21004888544331 109.86830792118113 L-142.92286180654537 117.86830792118113 L-142.92286180654537 122.19843494010331 L-115.21004888544331 114.19843494010331 L-115.21004888544331 109.86830792118113"/>
		<path opacity="0.75" fill="darkturquoise" d="M-112.71004888544331 112.03337143064222 L-140.42286180654537 120.03337143064222 L-140.42286180654537 124.36349844956442 L-112.71004888544331 116.36349844956442 L-112.71004888544331 112.03337143064222"/>
		<path opacity="0.75" fill="darkturquoise" d="M-115.21004888544331 109.86830792118113 L-112.71004888544331 112.03337143064222 L-140.42286180654537 120.03337143064222 L-142.92286180654537 117.86830792118113 L-115.21004888544331 109.86830792118113"/>
		<path opacity="0.75" fill="darkturquoise" d="M-115.21004888544331 114.19843494010331 L-112.71004888544331 116.36349844956442 L-140.42286180654537 124.36349844956442 L-142.92286180654537 122.19843494010331 L-115.21004888544331 114.19843494010331"/>
		<text x="-142.92286180654537" y="120.03337143064222" font-family="calibri" font-size="4">5</text>
		<text x="-141.67286180654537" y="123.28096669483386" font-family="calibri" font-size="4">5</text>
		<text x="-129.06645534599434" y="113.86830792118113" font-family="calibri" font-size="4">32</text>

		<path opacity="0.5" fill="orange" d="M-126.60665924100823 79.27211431702997 L-110.60665924100823 93.12852077758099 L-110.60665924100823 120.84133369868303 L-126.60665924100823 106.984927238132 L-126.60665924100823 79.27211431702997"/>
		<path opacity="0.5" fill="orange" d="M-154.3194721621103 87.27211431702997 L-138.3194721621103 101.12852077758099 L-138.3194721621103 128.84133369868303 L-154.3194721621103 114.984927238132 L-154.3194721621103 87.27211431702997"/>
		<path opacity="0.5" fill="orange" d="M-126.60665924100823 79.27211431702997 L-154.3194721621103 87.27211431702997 L-154.3194721621103 114.984927238132 L-126.60665924100823 106.984927238132 L-126.60665924100823 79.27211431702997"/>
		<path opacity="0.5" fill="orange" d="M-110.60665924100823 93.12852077758099 L-138.3194721621103 101.12852077758099 L-138.3194721621103 128.84133369868303 L-110.60665924100823 120.84133369868303 L-110.60665924100823 93.12852077758099"/>
		<path opacity="0.5" fill="orange" d="M-126.60665924100823 79.27211431702997 L-110.60665924100823 93.12852077758099 L-138.3194721621103 101.12852077758099 L-154.3194721621103 87.27211431702997 L-126.60665924100823 79.27211431702997"/>
		<path opacity="0.5" fill="orange" d="M-126.60665924100823 106.984927238132 L-110.60665924100823 120.84133369868303 L-138.3194721621103 128.84133369868303 L-154.3194721621103 114.984927238132 L-126.60665924100823 106.984927238132"/>
		<text x="-154.3194721621103" y="101.12852077758099" font-family="calibri" font-size="4">32</text>
		<text x="-146.3194721621103" y="121.91313046840752" font-family="calibri" font-size="4">32</text>
		<text x="-140.46306570155926" y="83.27211431702997" font-family="calibri" font-size="4">32</text>

		<path opacity="0.75" fill="darkturquoise" d="M8.426621227432179 94.8821912737851 L10.926621227432179 97.04725478324619 L10.926621227432179 101.37738180216837 L8.426621227432179 99.2123182927073 L8.426621227432179 94.8821912737851"/>
		<path opacity="0.75" fill="darkturquoise" d="M-46.99900461477188 110.8821912737851 L-44.49900461477188 113.04725478324619 L-44.49900461477188 117.37738180216837 L-46.99900461477188 115.2123182927073 L-46.99900461477188 110.8821912737851"/>
		<path opacity="0.75" fill="darkturquoise" d="M8.426621227432179 94.8821912737851 L-46.99900461477188 110.8821912737851 L-46.99900461477188 115.2123182927073 L8.426621227432179 99.2123182927073 L8.426621227432179 94.8821912737851"/>
		<path opacity="0.75" fill="darkturquoise" d="M10.926621227432179 97.04725478324619 L-44.49900461477188 113.04725478324619 L-44.49900461477188 117.37738180216837 L10.926621227432179 101.37738180216837 L10.926621227432179 97.04725478324619"/>
		<path opacity="0.75" fill="darkturquoise" d="M8.426621227432179 94.8821912737851 L10.926621227432179 97.04725478324619 L-44.49900461477188 113.04725478324619 L-46.99900461477188 110.8821912737851 L8.426621227432179 94.8821912737851"/>
		<path opacity="0.75" fill="darkturquoise" d="M8.426621227432179 99.2123182927073 L10.926621227432179 101.37738180216837 L-44.49900461477188 117.37738180216837 L-46.99900461477188 115.2123182927073 L8.426621227432179 99.2123182927073"/>
		<text x="-46.99900461477188" y="113.04725478324619" font-family="calibri" font-size="4">5</text>
		<text x="-45.74900461477188" y="116.29485004743783" font-family="calibri" font-size="4">5</text>
		<text x="-19.28619169366985" y="102.8821912737851" font-family="calibri" font-size="4">64</text>

		<path opacity="0.5" fill="orange" d="M4.6202367904177635 85.84614317029974 L12.620236790417763 92.77434640057524 L12.620236790417763 106.63075286112625 L4.6202367904177635 99.70254963085074 L4.6202367904177635 85.84614317029974"/>
		<path opacity="0.5" fill="orange" d="M-50.80538905178628 101.84614317029974 L-42.80538905178628 108.77434640057524 L-42.80538905178628 122.63075286112625 L-50.80538905178628 115.70254963085074 L-50.80538905178628 101.84614317029974"/>
		<path opacity="0.5" fill="orange" d="M4.6202367904177635 85.84614317029974 L-50.80538905178628 101.84614317029974 L-50.80538905178628 115.70254963085074 L4.6202367904177635 99.70254963085074 L4.6202367904177635 85.84614317029974"/>
		<path opacity="0.5" fill="orange" d="M12.620236790417763 92.77434640057524 L-42.80538905178628 108.77434640057524 L-42.80538905178628 122.63075286112625 L12.620236790417763 106.63075286112625 L12.620236790417763 92.77434640057524"/>
		<path opacity="0.5" fill="orange" d="M4.6202367904177635 85.84614317029974 L12.620236790417763 92.77434640057524 L-42.80538905178628 108.77434640057524 L-50.80538905178628 101.84614317029974 L4.6202367904177635 85.84614317029974"/>
		<path opacity="0.5" fill="orange" d="M4.6202367904177635 99.70254963085074 L12.620236790417763 106.63075286112625 L-42.80538905178628 122.63075286112625 L-50.80538905178628 115.70254963085074 L4.6202367904177635 99.70254963085074"/>
		<text x="-50.80538905178628" y="108.77434640057524" font-family="calibri" font-size="4">16</text>
		<text x="-46.80538905178628" y="119.1666512459885" font-family="calibri" font-size="4">16</text>
		<text x="-23.092576130684257" y="93.84614317029974" font-family="calibri" font-size="4">64</text>

		<path opacity="0.75" fill="pink" d="M-189.73628899190982 121.6485834032083 L-184.73628899190982 125.9787104221305 L-146.57660980681288 121.35367973866258 L-189.73628899190982 121.6485834032083"/>
		<path opacity="0.75" fill="pink" d="M-189.73628899190982 121.6485834032083 L-189.73628899190982 130.3088374410527 L-146.57660980681288 121.35367973866258 L-189.73628899190982 121.6485834032083"/>
		<path opacity="0.75" fill="pink" d="M-184.73628899190982 125.9787104221305 L-184.73628899190982 134.6389644599749 L-146.57660980681288 121.35367973866258 L-184.73628899190982 125.9787104221305"/>
		<path opacity="0.75" fill="pink" d="M-189.73628899190982 130.3088374410527 L-184.73628899190982 134.6389644599749 L-146.57660980681288 121.35367973866258 L-189.73628899190982 130.3088374410527"/>

		<path opacity="0.75" fill="darkturquoise" d="M-189.73628899190982 121.6485834032083 L-184.73628899190982 125.9787104221305 L-184.73628899190982 134.6389644599749 L-189.73628899190982 130.3088374410527 L-189.73628899190982 121.6485834032083"/>
		<path opacity="0.75" fill="darkturquoise" d="M-207.0567970675986 126.6485834032083 L-202.0567970675986 130.9787104221305 L-202.0567970675986 139.6389644599749 L-207.0567970675986 135.3088374410527 L-207.0567970675986 126.6485834032083"/>
		<path opacity="0.75" fill="darkturquoise" d="M-189.73628899190982 121.6485834032083 L-207.0567970675986 126.6485834032083 L-207.0567970675986 135.3088374410527 L-189.73628899190982 130.3088374410527 L-189.73628899190982 121.6485834032083"/>
		<path opacity="0.75" fill="darkturquoise" d="M-184.73628899190982 125.9787104221305 L-202.0567970675986 130.9787104221305 L-202.0567970675986 139.6389644599749 L-184.73628899190982 134.6389644599749 L-184.73628899190982 125.9787104221305"/>
		<path opacity="0.75" fill="darkturquoise" d="M-189.73628899190982 121.6485834032083 L-184.73628899190982 125.9787104221305 L-202.0567970675986 130.9787104221305 L-207.0567970675986 126.6485834032083 L-189.73628899190982 121.6485834032083"/>
		<path opacity="0.75" fill="darkturquoise" d="M-189.73628899190982 130.3088374410527 L-184.73628899190982 134.6389644599749 L-202.0567970675986 139.6389644599749 L-207.0567970675986 135.3088374410527 L-189.73628899190982 130.3088374410527"/>
		<text x="-207.0567970675986" y="130.97871042213052" font-family="calibri" font-size="4">10</text>
		<text x="-204.5567970675986" y="137.47390095051378" font-family="calibri" font-size="4">10</text>
		<text x="-198.3965430297542" y="124.1485834032083" font-family="calibri" font-size="4">20</text>

		<path opacity="0.5" fill="orange" d="M-197.62074235133218 99.77211431702997 L-181.62074235133218 113.62852077758099 L-181.62074235133218 141.34133369868303 L-197.62074235133218 127.484927238132 L-197.62074235133218 99.77211431702997"/>
		<path opacity="0.5" fill="orange" d="M-214.94125042702098 104.77211431702997 L-198.94125042702098 118.62852077758099 L-198.94125042702098 146.34133369868303 L-214.94125042702098 132.484927238132 L-214.94125042702098 104.77211431702997"/>
		<path opacity="0.5" fill="orange" d="M-197.62074235133218 99.77211431702997 L-214.94125042702098 104.77211431702997 L-214.94125042702098 132.484927238132 L-197.62074235133218 127.484927238132 L-197.62074235133218 99.77211431702997"/>
		<path opacity="0.5" fill="orange" d="M-181.62074235133218 113.62852077758099 L-198.94125042702098 118.62852077758099 L-198.94125042702098 146.34133369868303 L-181.62074235133218 141.34133369868303 L-181.62074235133218 113.62852077758099"/>
		<path opacity="0.5" fill="orange" d="M-197.62074235133218 99.77211431702997 L-181.62074235133218 113.62852077758099 L-198.94125042702098 118.62852077758099 L-214.94125042702098 104.77211431702997 L-197.62074235133218 99.77211431702997"/>
		<path opacity="0.5" fill="orange" d="M-197.62074235133218 127.484927238132 L-181.62074235133218 141.34133369868303 L-198.94125042702098 146.34133369868303 L-214.94125042702098 132.484927238132 L-197.62074235133218 127.484927238132"/>
		<text x="-214.94125042702098" y="118.62852077758099" font-family="calibri" font-size="4">32</text>
		<text x="-206.94125042702098" y="139.41313046840753" font-family="calibri" font-size="4">32</text>
		<text x="-206.28099638917658" y="102.27211431702997" font-family="calibri" font-size="4">20</text>

		<path opacity="0.75" fill="pink" d="M-86.9213346729486 120.48050573111605 L-84.4213346729486 122.64556924057715 L-48.60878517362465 114.39269459690226 L-86.9213346729486 120.48050573111605"/>
		<path opacity="0.75" fill="pink" d="M-86.9213346729486 120.48050573111605 L-86.9213346729486 124.81063275003825 L-48.60878517362465 114.39269459690226 L-86.9213346729486 120.48050573111605"/>
		<path opacity="0.75" fill="pink" d="M-84.4213346729486 122.64556924057715 L-84.4213346729486 126.97569625949934 L-48.60878517362465 114.39269459690226 L-84.4213346729486 122.64556924057715"/>
		<path opacity="0.75" fill="pink" d="M-86.9213346729486 124.81063275003825 L-84.4213346729486 126.97569625949934 L-48.60878517362465 114.39269459690226 L-86.9213346729486 124.81063275003825"/>

		<path opacity="0.75" fill="darkturquoise" d="M-86.9213346729486 120.48050573111605 L-84.4213346729486 122.64556924057715 L-84.4213346729486 126.97569625949934 L-86.9213346729486 124.81063275003825 L-86.9213346729486 120.48050573111605"/>
		<path opacity="0.75" fill="darkturquoise" d="M-114.63414759405066 128.48050573111607 L-112.13414759405066 130.64556924057715 L-112.13414759405066 134.97569625949933 L-114.63414759405066 132.81063275003825 L-114.63414759405066 128.48050573111607"/>
		<path opacity="0.75" fill="darkturquoise" d="M-86.9213346729486 120.48050573111605 L-114.63414759405066 128.48050573111607 L-114.63414759405066 132.81063275003825 L-86.9213346729486 124.81063275003825 L-86.9213346729486 120.48050573111605"/>
		<path opacity="0.75" fill="darkturquoise" d="M-84.4213346729486 122.64556924057715 L-112.13414759405066 130.64556924057715 L-112.13414759405066 134.97569625949933 L-84.4213346729486 126.97569625949934 L-84.4213346729486 122.64556924057715"/>
		<path opacity="0.75" fill="darkturquoise" d="M-86.9213346729486 120.48050573111605 L-84.4213346729486 122.64556924057715 L-112.13414759405066 130.64556924057715 L-114.63414759405066 128.48050573111607 L-86.9213346729486 120.48050573111605"/>
		<path opacity="0.75" fill="darkturquoise" d="M-86.9213346729486 124.81063275003825 L-84.4213346729486 126.97569625949934 L-112.13414759405066 134.97569625949933 L-114.63414759405066 132.81063275003825 L-86.9213346729486 124.81063275003825"/>
		<text x="-114.63414759405066" y="130.64556924057717" font-family="calibri" font-size="4">5</text>
		<text x="-113.38414759405066" y="133.89316450476878" font-family="calibri" font-size="4">5</text>
		<text x="-100.77774113349963" y="124.48050573111607" font-family="calibri" font-size="4">32</text>

		<path opacity="0.5" fill="orange" d="M-98.10665924100823 103.95383832488646 L-82.10665924100823 117.81024478543748 L-82.10665924100823 145.52305770653953 L-98.10665924100823 131.6666512459885 L-98.10665924100823 103.95383832488646"/>
		<path opacity="0.5" fill="orange" d="M-125.81947216211029 111.95383832488646 L-109.81947216211029 125.81024478543748 L-109.81947216211029 153.52305770653953 L-125.81947216211029 139.6666512459885 L-125.81947216211029 111.95383832488646"/>
		<path opacity="0.5" fill="orange" d="M-98.10665924100823 103.95383832488646 L-125.81947216211029 111.95383832488646 L-125.81947216211029 139.6666512459885 L-98.10665924100823 131.6666512459885 L-98.10665924100823 103.95383832488646"/>
		<path opacity="0.5" fill="orange" d="M-82.10665924100823 117.81024478543748 L-109.81947216211029 125.81024478543748 L-109.81947216211029 153.52305770653953 L-82.10665924100823 145.52305770653953 L-82.10665924100823 117.81024478543748"/>
		<path opacity="0.5" fill="orange" d="M-98.10665924100823 103.95383832488646 L-82.10665924100823 117.81024478543748 L-109.81947216211029 125.81024478543748 L-125.81947216211029 111.95383832488646 L-98.10665924100823 103.95383832488646"/>
		<path opacity="0.5" fill="orange" d="M-98.10665924100823 131.6666512459885 L-82.10665924100823 145.52305770653953 L-109.81947216211029 153.52305770653953 L-125.81947216211029 139.6666512459885 L-98.10665924100823 131.6666512459885"/>
		<text x="-125.81947216211029" y="125.81024478543748" font-family="calibri" font-size="4">32</text>
		<text x="-117.81947216211029" y="146.594854476264" font-family="calibri" font-size="4">32</text>
		<text x="-111.96306570155926" y="107.95383832488646" font-family="calibri" font-size="4">32</text>

		<path opacity="0.75" fill="pink" d="M-164.44902933987748 145.6950192624488 L-159.44902933987748 150.025146281371 L-123.43018901219196 116.04898778595324 L-164.44902933987748 145.6950192624488"/>
		<path opacity="0.75" fill="pink" d="M-164.44902933987748 145.6950192624488 L-164.44902933987748 154.3552733002932 L-123.43018901219196 116.04898778595324 L-164.44902933987748 145.6950192624488"/>
		<path opacity="0.75" fill="pink" d="M-159.44902933987748 150.025146281371 L-159.44902933987748 158.68540031921538 L-123.43018901219196 116.04898778595324 L-159.44902933987748 150.025146281371"/>
		<path opacity="0.75" fill="pink" d="M-164.44902933987748 154.3552733002932 L-159.44902933987748 158.68540031921538 L-123.43018901219196 116.04898778595324 L-164.44902933987748 154.3552733002932"/>

		<path opacity="0.75" fill="darkturquoise" d="M-164.44902933987748 145.6950192624488 L-159.44902933987748 150.025146281371 L-159.44902933987748 158.68540031921538 L-164.44902933987748 154.3552733002932 L-164.44902933987748 145.6950192624488"/>
		<path opacity="0.75" fill="darkturquoise" d="M-181.76953741556628 150.6950192624488 L-176.76953741556628 155.025146281371 L-176.76953741556628 163.68540031921538 L-181.76953741556628 159.3552733002932 L-181.76953741556628 150.6950192624488"/>
		<path opacity="0.75" fill="darkturquoise" d="M-164.44902933987748 145.6950192624488 L-181.76953741556628 150.6950192624488 L-181.76953741556628 159.3552733002932 L-164.44902933987748 154.3552733002932 L-164.44902933987748 145.6950192624488"/>
		<path opacity="0.75" fill="darkturquoise" d="M-159.44902933987748 150.025146281371 L-176.76953741556628 155.025146281371 L-176.76953741556628 163.68540031921538 L-159.44902933987748 158.68540031921538 L-159.44902933987748 150.025146281371"/>
		<path opacity="0.75" fill="darkturquoise" d="M-164.44902933987748 145.6950192624488 L-159.44902933987748 150.025146281371 L-176.76953741556628 155.025146281371 L-181.76953741556628 150.6950192624488 L-164.44902933987748 145.6950192624488"/>
		<path opacity="0.75" fill="darkturquoise" d="M-164.44902933987748 154.3552733002932 L-159.44902933987748 158.68540031921538 L-176.76953741556628 163.68540031921538 L-181.76953741556628 159.3552733002932 L-164.44902933987748 154.3552733002932"/>
		<text x="-181.76953741556628" y="155.025146281371" font-family="calibri" font-size="4">10</text>
		<text x="-179.26953741556628" y="161.52033680975427" font-family="calibri" font-size="4">10</text>
		<text x="-173.10928337772188" y="148.1950192624488" font-family="calibri" font-size="4">20</text>

		<path opacity="0.5" fill="orange" d="M-169.12074235133218 124.45383832488646 L-153.12074235133218 138.31024478543748 L-153.12074235133218 166.02305770653953 L-169.12074235133218 152.1666512459885 L-169.12074235133218 124.45383832488646"/>
		<path opacity="0.5" fill="orange" d="M-186.44125042702098 129.45383832488648 L-170.44125042702098 143.31024478543748 L-170.44125042702098 171.02305770653953 L-186.44125042702098 157.1666512459885 L-186.44125042702098 129.45383832488648"/>
		<path opacity="0.5" fill="orange" d="M-169.12074235133218 124.45383832488646 L-186.44125042702098 129.45383832488648 L-186.44125042702098 157.1666512459885 L-169.12074235133218 152.1666512459885 L-169.12074235133218 124.45383832488646"/>
		<path opacity="0.5" fill="orange" d="M-153.12074235133218 138.31024478543748 L-170.44125042702098 143.31024478543748 L-170.44125042702098 171.02305770653953 L-153.12074235133218 166.02305770653953 L-153.12074235133218 138.31024478543748"/>
		<path opacity="0.5" fill="orange" d="M-169.12074235133218 124.45383832488646 L-153.12074235133218 138.31024478543748 L-170.44125042702098 143.31024478543748 L-186.44125042702098 129.45383832488648 L-169.12074235133218 124.45383832488646"/>
		<path opacity="0.5" fill="orange" d="M-169.12074235133218 152.1666512459885 L-153.12074235133218 166.02305770653953 L-170.44125042702098 171.02305770653953 L-186.44125042702098 157.1666512459885 L-169.12074235133218 152.1666512459885"/>
		<text x="-186.44125042702098" y="143.31024478543748" font-family="calibri" font-size="4">32</text>
		<text x="-178.44125042702098" y="164.094854476264" font-family="calibri" font-size="4">32</text>
		<text x="-177.78099638917658" y="126.95383832488648" font-family="calibri" font-size="4">20</text>

	 </g>
</svg>