<svg width="100%" height="100%" viewBox="-108.45894683899488 -68.84678751731761 222.91789367798975 116.62177826491072" xmlns="http://www.w3.org/2000/svg">
	<g stroke="black" stroke-width="0.3">

		<path opacity="0.5" fill="orange" d="M92.45894683899488 -51.79422863405995 L108.45894683899488 -37.937822173508934 L108.45894683899488 -10.225009252406892 L92.45894683899488 -24.081415712957906 L92.45894683899488 -51.79422863405995" stroke-linecap="square"/>
		<path opacity="0.5" fill="orange" d="M37.033320996790806 -35.79422863405995 L53.033320996790806 -21.93782217350893 L53.033320996790806 5.774990747593108 L37.033320996790806 -8.081415712957906 L37.033320996790806 -35.79422863405995" stroke-linecap="square"/>
		<path opacity="0.5" fill="orange" d="M92.45894683899488 -51.79422863405995 L37.033320996790806 -35.79422863405995 L37.033320996790806 -8.081415712957906 L92.45894683899488 -24.081415712957906 L92.45894683899488 -51.79422863405995" stroke-linecap="square"/>
		<path opacity="0.5" fill="orange" d="M108.45894683899488 -37.937822173508934 L53.033320996790806 -21.93782217350893 L53.033320996790806 5.774990747593108 L108.45894683899488 -10.225009252406892 L108.45894683899488 -37.937822173508934" stroke-linecap="square"/>
		<path opacity="0.5" fill="orange" d="M92.45894683899488 -51.79422863405995 L108.45894683899488 -37.937822173508934 L53.033320996790806 -21.93782217350893 L37.033320996790806 -35.79422863405995 L92.45894683899488 -51.79422863405995" stroke-linecap="square"/>
		<path opacity="0.5" fill="orange" d="M92.45894683899488 -24.081415712957906 L108.45894683899488 -10.225009252406892 L53.033320996790806 5.774990747593108 L37.033320996790806 -8.081415712957906 L92.45894683899488 -24.081415712957906" stroke-linecap="square"/>
		<text style="fill:black;font-family:calibri;font-size:6" x="37.033320996790806" y="-21.937822173508927" >32</text>
		<text style="fill:black;font-family:calibri;font-size:6" x="45.033320996790806" y="-1.1532124826823988" >32</text>
		<text style="fill:black;font-family:calibri;font-size:6" x="64.74613391789285" y="-43.79422863405995" >64</text>

<!-- Arrow -->
		<path opacity="0.5" stroke="black" d="M72.74613391789285 -36.866025403784434 L72.74613391789285 -62.8467875173176" stroke-linecap="square"/>
		<circle opacity="0.5" cx="72.74613391789285" cy="-62.8467875173176" r="1" fill="black" />
		<path opacity="0.75" fill="pink" d="M-4.075419779779452 -9.791752411991265 L-1.5754197797794522 -7.626688902530169 L47.244715240743915 -5.836887760439641 L-4.075419779779452 -9.791752411991265"/>
		<path opacity="0.75" fill="pink" d="M-4.075419779779452 -9.791752411991265 L-4.075419779779452 -5.46162539306907 L47.244715240743915 -5.836887760439641 L-4.075419779779452 -9.791752411991265"/>
		<path opacity="0.75" fill="pink" d="M-1.5754197797794522 -7.626688902530169 L-1.5754197797794522 -3.296561883607975 L47.244715240743915 -5.836887760439641 L-1.5754197797794522 -7.626688902530169"/>
		<path opacity="0.75" fill="pink" d="M-4.075419779779452 -5.46162539306907 L-1.5754197797794522 -3.296561883607975 L47.244715240743915 -5.836887760439641 L-4.075419779779452 -5.46162539306907"/>

		<text style="fill:black;font-family:calibri;font-size:6" x="13.864625227061671" y="-12.314320086215453" >[5,5]</text>
		<path opacity="0.75" fill="darkturquoise" d="M-4.075419779779452 -9.791752411991265 L-1.5754197797794522 -7.626688902530169 L-1.5754197797794522 -3.296561883607975 L-4.075419779779452 -5.46162539306907 L-4.075419779779452 -9.791752411991265" stroke-linecap="square"/>
		<path opacity="0.75" fill="darkturquoise" d="M-45.6446391614325 2.208247588008735 L-43.1446391614325 4.373311097469831 L-43.1446391614325 8.703438116392025 L-45.6446391614325 6.53837460693093 L-45.6446391614325 2.208247588008735" stroke-linecap="square"/>
		<path opacity="0.75" fill="darkturquoise" d="M-4.075419779779452 -9.791752411991265 L-45.6446391614325 2.208247588008735 L-45.6446391614325 6.53837460693093 L-4.075419779779452 -5.46162539306907 L-4.075419779779452 -9.791752411991265" stroke-linecap="square"/>
		<path opacity="0.75" fill="darkturquoise" d="M-1.5754197797794522 -7.626688902530169 L-43.1446391614325 4.373311097469831 L-43.1446391614325 8.703438116392025 L-1.5754197797794522 -3.296561883607975 L-1.5754197797794522 -7.626688902530169" stroke-linecap="square"/>
		<path opacity="0.75" fill="darkturquoise" d="M-4.075419779779452 -9.791752411991265 L-1.5754197797794522 -7.626688902530169 L-43.1446391614325 4.373311097469831 L-45.6446391614325 2.208247588008735 L-4.075419779779452 -9.791752411991265" stroke-linecap="square"/>
		<path opacity="0.75" fill="darkturquoise" d="M-4.075419779779452 -5.46162539306907 L-1.5754197797794522 -3.296561883607975 L-43.1446391614325 8.703438116392025 L-45.6446391614325 6.53837460693093 L-4.075419779779452 -5.46162539306907" stroke-linecap="square"/>
		<path opacity="0.5" fill="orange" d="M-6.267949192431125 -23.294228634059948 L9.732050807568879 -9.43782217350893 L9.732050807568879 18.274990747593108 L-6.267949192431125 4.418584287042094 L-6.267949192431125 -23.294228634059948" stroke-linecap="square"/>
		<path opacity="0.5" fill="orange" d="M-47.837168574084174 -11.294228634059946 L-31.837168574084174 2.5621778264910695 L-31.837168574084174 30.274990747593108 L-47.837168574084174 16.418584287042094 L-47.837168574084174 -11.294228634059946" stroke-linecap="square"/>
		<path opacity="0.5" fill="orange" d="M-6.267949192431125 -23.294228634059948 L-47.837168574084174 -11.294228634059946 L-47.837168574084174 16.418584287042094 L-6.267949192431125 4.418584287042094 L-6.267949192431125 -23.294228634059948" stroke-linecap="square"/>
		<path opacity="0.5" fill="orange" d="M9.732050807568879 -9.43782217350893 L-31.837168574084174 2.5621778264910695 L-31.837168574084174 30.274990747593108 L9.732050807568879 18.274990747593108 L9.732050807568879 -9.43782217350893" stroke-linecap="square"/>
		<path opacity="0.5" fill="orange" d="M-6.267949192431125 -23.294228634059948 L9.732050807568879 -9.43782217350893 L-31.837168574084174 2.5621778264910695 L-47.837168574084174 -11.294228634059946 L-6.267949192431125 -23.294228634059948" stroke-linecap="square"/>
		<path opacity="0.5" fill="orange" d="M-6.267949192431125 4.418584287042094 L9.732050807568879 18.274990747593108 L-31.837168574084174 30.274990747593108 L-47.837168574084174 16.418584287042094 L-6.267949192431125 4.418584287042094" stroke-linecap="square"/>
		<text style="fill:black;font-family:calibri;font-size:6" x="-47.837168574084174" y="2.562177826491074" >32</text>
		<text style="fill:black;font-family:calibri;font-size:6" x="-39.837168574084174" y="23.3467875173176" >32</text>
		<text style="fill:black;font-family:calibri;font-size:6" x="-27.05255888325765" y="-17.294228634059948" >48</text>

<!-- Arrow -->
		<path opacity="0.5" stroke="black" d="M-91.7986928011505 -15.346787517317601 L72.74613391789285 -62.8467875173176" stroke-linecap="square"/>
		<circle opacity="0.5" cx="72.74613391789285" cy="-62.8467875173176" r="1" fill="black" />
		<path opacity="0.75" fill="pink" d="M-83.1981690610983 13.983184544666301 L-78.1981690610983 18.3133115635885 L-37.81932827315677 9.467453579891792 L-83.1981690610983 13.983184544666301"/>
		<path opacity="0.75" fill="pink" d="M-83.1981690610983 13.983184544666301 L-83.1981690610983 22.64343858251069 L-37.81932827315677 9.467453579891792 L-83.1981690610983 13.983184544666301"/>
		<path opacity="0.75" fill="pink" d="M-78.1981690610983 18.3133115635885 L-78.1981690610983 26.97356560143288 L-37.81932827315677 9.467453579891792 L-78.1981690610983 18.3133115635885"/>
		<path opacity="0.75" fill="pink" d="M-83.1981690610983 22.64343858251069 L-78.1981690610983 26.97356560143288 L-37.81932827315677 9.467453579891792 L-83.1981690610983 22.64343858251069"/>

		<text style="fill:black;font-family:calibri;font-size:6" x="-66.40522213178446" y="7.225319062279047" >[10,10]</text>
		<path opacity="0.75" fill="darkturquoise" d="M-83.1981690610983 13.983184544666301 L-78.1981690610983 18.3133115635885 L-78.1981690610983 26.97356560143288 L-83.1981690610983 22.64343858251069 L-83.1981690610983 13.983184544666301" stroke-linecap="square"/>
		<path opacity="0.75" fill="darkturquoise" d="M-100.51867713678706 18.9831845446663 L-95.51867713678706 23.3133115635885 L-95.51867713678706 31.97356560143288 L-100.51867713678706 27.64343858251069 L-100.51867713678706 18.9831845446663" stroke-linecap="square"/>
		<path opacity="0.75" fill="darkturquoise" d="M-83.1981690610983 13.983184544666301 L-100.51867713678706 18.9831845446663 L-100.51867713678706 27.64343858251069 L-83.1981690610983 22.64343858251069 L-83.1981690610983 13.983184544666301" stroke-linecap="square"/>
		<path opacity="0.75" fill="darkturquoise" d="M-78.1981690610983 18.3133115635885 L-95.51867713678706 23.3133115635885 L-95.51867713678706 31.97356560143288 L-78.1981690610983 26.97356560143288 L-78.1981690610983 18.3133115635885" stroke-linecap="square"/>
		<path opacity="0.75" fill="darkturquoise" d="M-83.1981690610983 13.983184544666301 L-78.1981690610983 18.3133115635885 L-95.51867713678706 23.3133115635885 L-100.51867713678706 18.9831845446663 L-83.1981690610983 13.983184544666301" stroke-linecap="square"/>
		<path opacity="0.75" fill="darkturquoise" d="M-83.1981690610983 22.64343858251069 L-78.1981690610983 26.97356560143288 L-95.51867713678706 31.97356560143288 L-100.51867713678706 27.64343858251069 L-83.1981690610983 22.64343858251069" stroke-linecap="square"/>
		<path opacity="0.5" fill="lavender" d="M-91.13843876330611 1.205771365940052 L-75.13843876330611 15.06217782649107 L-75.13843876330611 42.77499074759311 L-91.13843876330611 28.918584287042094 L-91.13843876330611 1.205771365940052" stroke-linecap="square"/>
		<path opacity="0.5" fill="lavender" d="M-108.45894683899488 6.205771365940052 L-92.45894683899488 20.062177826491066 L-92.45894683899488 47.77499074759311 L-108.45894683899488 33.918584287042094 L-108.45894683899488 6.205771365940052" stroke-linecap="square"/>
		<path opacity="0.5" fill="lavender" d="M-91.13843876330611 1.205771365940052 L-108.45894683899488 6.205771365940052 L-108.45894683899488 33.918584287042094 L-91.13843876330611 28.918584287042094 L-91.13843876330611 1.205771365940052" stroke-linecap="square"/>
		<path opacity="0.5" fill="lavender" d="M-75.13843876330611 15.06217782649107 L-92.45894683899488 20.062177826491066 L-92.45894683899488 47.77499074759311 L-75.13843876330611 42.77499074759311 L-75.13843876330611 15.06217782649107" stroke-linecap="square"/>
		<path opacity="0.5" fill="lavender" d="M-91.13843876330611 1.205771365940052 L-75.13843876330611 15.06217782649107 L-92.45894683899488 20.062177826491066 L-108.45894683899488 6.205771365940052 L-91.13843876330611 1.205771365940052" stroke-linecap="square"/>
		<path opacity="0.5" fill="lavender" d="M-91.13843876330611 28.918584287042094 L-75.13843876330611 42.77499074759311 L-92.45894683899488 47.77499074759311 L-108.45894683899488 33.918584287042094 L-91.13843876330611 28.918584287042094" stroke-linecap="square"/>
		<text style="fill:black;font-family:calibri;font-size:6" x="-108.45894683899488" y="20.062177826491073" >32</text>
		<text style="fill:black;font-family:calibri;font-size:6" x="-100.45894683899488" y="40.8467875173176" >32</text>
		<text style="fill:black;font-family:calibri;font-size:6" x="-99.7986928011505" y="3.705771365940052" >20</text>

<!-- Arrow -->
		<path opacity="0.5" stroke="black" d="M-91.7986928011505 10.633974596215563 L-91.7986928011505 -15.346787517317601" stroke-linecap="square"/>
		<circle opacity="0.5" cx="-91.7986928011505" cy="-15.346787517317601" r="1" fill="black" />
	 </g>
</svg>