<svg width="100%" height="100%" viewBox="-320.8409421321224 -226.0688740771269 634.1818842642448 355.63809345877996" xmlns="http://www.w3.org/2000/svg">
	<g stroke="black" stroke-width="0.3">

		<path opacity="0.75" fill="darkturquoise" d="M302.3409421321224 -220.0688740771269 L307.3409421321224 -215.7387470582047 L307.3409421321224 44.06887407712691 L302.3409421321224 39.73874705820471 L302.3409421321224 -220.0688740771269"/>
		<path opacity="0.75" fill="darkturquoise" d="M293.680688094278 -217.5688740771269 L298.680688094278 -213.2387470582047 L298.680688094278 46.56887407712691 L293.680688094278 42.23874705820471 L293.680688094278 -217.5688740771269"/>
		<path opacity="0.75" fill="darkturquoise" d="M302.3409421321224 -220.0688740771269 L293.680688094278 -217.5688740771269 L293.680688094278 42.23874705820471 L302.3409421321224 39.73874705820471 L302.3409421321224 -220.0688740771269"/>
		<path opacity="0.75" fill="darkturquoise" d="M307.3409421321224 -215.7387470582047 L298.680688094278 -213.2387470582047 L298.680688094278 46.56887407712691 L307.3409421321224 44.06887407712691 L307.3409421321224 -215.7387470582047"/>
		<path opacity="0.75" fill="darkturquoise" d="M302.3409421321224 -220.0688740771269 L307.3409421321224 -215.7387470582047 L298.680688094278 -213.2387470582047 L293.680688094278 -217.5688740771269 L302.3409421321224 -220.0688740771269"/>
		<path opacity="0.75" fill="darkturquoise" d="M302.3409421321224 39.73874705820471 L307.3409421321224 44.06887407712691 L298.680688094278 46.56887407712691 L293.680688094278 42.23874705820471 L302.3409421321224 39.73874705820471"/>
		<text style="fill:black;font-family:calibri;font-size:6" x="293.680688094278" y="-87.6650635094611" >300</text>
		<text style="fill:black;font-family:calibri;font-size:6" x="296.180688094278" y="44.40381056766581" >10</text>
		<text style="fill:black;font-family:calibri;font-size:6" x="298.01081511320024" y="-218.8188740771269" >10</text>

<!-- Arrow -->
		<path opacity="0.5" stroke="black" d="M252.87941790505607 -73.0 L296.180688094278 -85.5"/>
		<circle opacity="0.5" cx="296.180688094278" cy="-85.5" r="1" fill="black" />
		<path opacity="0.75" fill="darkturquoise" d="M250.37941790505607 -161.76760388790495 L255.37941790505607 -157.4374768689828 L255.37941790505607 15.767603887904968 L250.37941790505607 11.437476868982785 L250.37941790505607 -161.76760388790495"/>
		<path opacity="0.75" fill="darkturquoise" d="M241.71916386721168 -159.26760388790495 L246.71916386721168 -154.9374768689828 L246.71916386721168 18.26760388790497 L241.71916386721168 13.937476868982785 L241.71916386721168 -159.26760388790495"/>
		<path opacity="0.75" fill="darkturquoise" d="M250.37941790505607 -161.76760388790495 L241.71916386721168 -159.26760388790495 L241.71916386721168 13.937476868982785 L250.37941790505607 11.437476868982785 L250.37941790505607 -161.76760388790495"/>
		<path opacity="0.75" fill="darkturquoise" d="M255.37941790505607 -157.4374768689828 L246.71916386721168 -154.9374768689828 L246.71916386721168 18.26760388790497 L255.37941790505607 15.767603887904968 L255.37941790505607 -157.4374768689828"/>
		<path opacity="0.75" fill="darkturquoise" d="M250.37941790505607 -161.76760388790495 L255.37941790505607 -157.4374768689828 L246.71916386721168 -154.9374768689828 L241.71916386721168 -159.26760388790495 L250.37941790505607 -161.76760388790495"/>
		<path opacity="0.75" fill="darkturquoise" d="M250.37941790505607 11.437476868982785 L255.37941790505607 15.767603887904968 L246.71916386721168 18.26760388790497 L241.71916386721168 13.937476868982785 L250.37941790505607 11.437476868982785"/>
		<text style="fill:black;font-family:calibri;font-size:6" x="241.71916386721168" y="-72.66506350946108" >200</text>
		<text style="fill:black;font-family:calibri;font-size:6" x="244.21916386721168" y="16.102540378443877" >10</text>
		<text style="fill:black;font-family:calibri;font-size:6" x="246.04929088613386" y="-160.51760388790495" >10</text>

		<path opacity="0.75" fill="darkturquoise" d="M250.37941790505607 -161.76760388790495 L255.37941790505607 -157.4374768689828 L255.37941790505607 15.767603887904968 L250.37941790505607 11.437476868982785 L250.37941790505607 -161.76760388790495"/>
		<path opacity="0.75" fill="darkturquoise" d="M241.71916386721168 -159.26760388790495 L246.71916386721168 -154.9374768689828 L246.71916386721168 18.26760388790497 L241.71916386721168 13.937476868982785 L241.71916386721168 -159.26760388790495"/>
		<path opacity="0.75" fill="darkturquoise" d="M250.37941790505607 -161.76760388790495 L241.71916386721168 -159.26760388790495 L241.71916386721168 13.937476868982785 L250.37941790505607 11.437476868982785 L250.37941790505607 -161.76760388790495"/>
		<path opacity="0.75" fill="darkturquoise" d="M255.37941790505607 -157.4374768689828 L246.71916386721168 -154.9374768689828 L246.71916386721168 18.26760388790497 L255.37941790505607 15.767603887904968 L255.37941790505607 -157.4374768689828"/>
		<path opacity="0.75" fill="darkturquoise" d="M250.37941790505607 -161.76760388790495 L255.37941790505607 -157.4374768689828 L246.71916386721168 -154.9374768689828 L241.71916386721168 -159.26760388790495 L250.37941790505607 -161.76760388790495"/>
		<path opacity="0.75" fill="darkturquoise" d="M250.37941790505607 11.437476868982785 L255.37941790505607 15.767603887904968 L246.71916386721168 18.26760388790497 L241.71916386721168 13.937476868982785 L250.37941790505607 11.437476868982785"/>
		<text style="fill:black;font-family:calibri;font-size:6" x="241.71916386721168" y="-72.66506350946108" >200</text>
		<text style="fill:black;font-family:calibri;font-size:6" x="244.21916386721168" y="16.102540378443877" >10</text>
		<text style="fill:black;font-family:calibri;font-size:6" x="246.04929088613386" y="-160.51760388790495" >10</text>

<!-- Arrow -->
		<path opacity="0.5" stroke="black" d="M200.91789367798975 -58.0 L244.21916386721168 -70.5"/>
		<circle opacity="0.5" cx="244.21916386721168" cy="-70.5" r="1" fill="black" />
		<path opacity="0.5" fill="orange" d="M184.91789367798975 -99.56921938165306 L216.91789367798975 -71.85640646055103 L216.91789367798975 -16.430780618346944 L184.91789367798975 -44.14359353944898 L184.91789367798975 -99.56921938165306"/>
		<path opacity="0.5" fill="orange" d="M127.7602170282168 -83.06921938165306 L159.7602170282168 -55.35640646055102 L159.7602170282168 0.06921938165305619 L127.7602170282168 -27.64359353944898 L127.7602170282168 -83.06921938165306"/>
		<path opacity="0.5" fill="orange" d="M184.91789367798975 -99.56921938165306 L127.7602170282168 -83.06921938165306 L127.7602170282168 -27.64359353944898 L184.91789367798975 -44.14359353944898 L184.91789367798975 -99.56921938165306"/>
		<path opacity="0.5" fill="orange" d="M216.91789367798975 -71.85640646055103 L159.7602170282168 -55.35640646055102 L159.7602170282168 0.06921938165305619 L216.91789367798975 -16.430780618346944 L216.91789367798975 -71.85640646055103"/>
		<path opacity="0.5" fill="orange" d="M184.91789367798975 -99.56921938165306 L216.91789367798975 -71.85640646055103 L159.7602170282168 -55.35640646055102 L127.7602170282168 -83.06921938165306 L184.91789367798975 -99.56921938165306"/>
		<path opacity="0.5" fill="orange" d="M184.91789367798975 -44.14359353944898 L216.91789367798975 -16.430780618346944 L159.7602170282168 0.06921938165305619 L127.7602170282168 -27.64359353944898 L184.91789367798975 -44.14359353944898"/>
		<text style="fill:black;font-family:calibri;font-size:6" x="127.7602170282168" y="-55.356406460551014" >64</text>
		<text style="fill:black;font-family:calibri;font-size:6" x="143.7602170282168" y="-13.787187078897961" >64</text>
		<text style="fill:black;font-family:calibri;font-size:6" x="156.33905535310328" y="-91.31921938165306" >66</text>

		<path opacity="0.75" fill="pink" d="M105.43460340185746 -20.063447050218233 L107.93460340185746 -17.898383540757138 L153.76726779148592 -14.727451412091217 L105.43460340185746 -20.063447050218233"/>
		<path opacity="0.75" fill="pink" d="M105.43460340185746 -20.063447050218233 L105.43460340185746 -15.73332003129604 L153.76726779148592 -14.727451412091217 L105.43460340185746 -20.063447050218233"/>
		<path opacity="0.75" fill="pink" d="M107.93460340185746 -17.898383540757138 L107.93460340185746 -13.568256521834943 L153.76726779148592 -14.727451412091217 L107.93460340185746 -17.898383540757138"/>
		<path opacity="0.75" fill="pink" d="M105.43460340185746 -15.73332003129604 L107.93460340185746 -13.568256521834943 L153.76726779148592 -14.727451412091217 L105.43460340185746 -15.73332003129604"/>

		<text style="fill:black;font-family:calibri;font-size:6" x="122.37882486506696" y="-21.895449231154725" >[5,5]</text>
		<path opacity="0.75" fill="darkturquoise" d="M105.43460340185746 -20.063447050218233 L107.93460340185746 -17.898383540757138 L107.93460340185746 -13.568256521834943 L105.43460340185746 -15.73332003129604 L105.43460340185746 -20.063447050218233"/>
		<path opacity="0.75" fill="darkturquoise" d="M56.9371807899289 -6.063447050218233 L59.4371807899289 -3.8983835407571377 L59.4371807899289 0.43174347816505687 L56.9371807899289 -1.7333200312960404 L56.9371807899289 -6.063447050218233"/>
		<path opacity="0.75" fill="darkturquoise" d="M105.43460340185746 -20.063447050218233 L56.9371807899289 -6.063447050218233 L56.9371807899289 -1.7333200312960404 L105.43460340185746 -15.73332003129604 L105.43460340185746 -20.063447050218233"/>
		<path opacity="0.75" fill="darkturquoise" d="M107.93460340185746 -17.898383540757138 L59.4371807899289 -3.8983835407571377 L59.4371807899289 0.43174347816505687 L107.93460340185746 -13.568256521834943 L107.93460340185746 -17.898383540757138"/>
		<path opacity="0.75" fill="darkturquoise" d="M105.43460340185746 -20.063447050218233 L107.93460340185746 -17.898383540757138 L59.4371807899289 -3.8983835407571377 L56.9371807899289 -6.063447050218233 L105.43460340185746 -20.063447050218233"/>
		<path opacity="0.75" fill="darkturquoise" d="M105.43460340185746 -15.73332003129604 L107.93460340185746 -13.568256521834943 L59.4371807899289 0.43174347816505687 L56.9371807899289 -1.7333200312960404 L105.43460340185746 -15.73332003129604"/>
		<path opacity="0.5" fill="orange" d="M92.45894683899488 -49.78460969082653 L108.45894683899488 -35.928203230275514 L108.45894683899488 -8.215390309173472 L92.45894683899488 -22.07179676972449 L92.45894683899488 -49.78460969082653"/>
		<path opacity="0.5" fill="orange" d="M43.96152422706631 -35.78460969082653 L59.96152422706631 -21.92820323027551 L59.96152422706631 5.784609690826528 L43.96152422706631 -8.07179676972449 L43.96152422706631 -35.78460969082653"/>
		<path opacity="0.5" fill="orange" d="M92.45894683899488 -49.78460969082653 L43.96152422706631 -35.78460969082653 L43.96152422706631 -8.07179676972449 L92.45894683899488 -22.07179676972449 L92.45894683899488 -49.78460969082653"/>
		<path opacity="0.5" fill="orange" d="M108.45894683899488 -35.928203230275514 L59.96152422706631 -21.92820323027551 L59.96152422706631 5.784609690826528 L108.45894683899488 -8.215390309173472 L108.45894683899488 -35.928203230275514"/>
		<path opacity="0.5" fill="orange" d="M92.45894683899488 -49.78460969082653 L108.45894683899488 -35.928203230275514 L59.96152422706631 -21.92820323027551 L43.96152422706631 -35.78460969082653 L92.45894683899488 -49.78460969082653"/>
		<path opacity="0.5" fill="orange" d="M92.45894683899488 -22.07179676972449 L108.45894683899488 -8.215390309173472 L59.96152422706631 5.784609690826528 L43.96152422706631 -8.07179676972449 L92.45894683899488 -22.07179676972449"/>
		<text style="fill:black;font-family:calibri;font-size:6" x="43.96152422706631" y="-21.928203230275507" >32</text>
		<text style="fill:black;font-family:calibri;font-size:6" x="51.96152422706631" y="-1.1435935394489807" >32</text>
		<text style="fill:black;font-family:calibri;font-size:6" x="68.2102355330306" y="-42.78460969082653" >56</text>

		<path opacity="0.75" fill="pink" d="M7.116527998670254 -10.078916382117777 L9.616527998670255 -7.9138528726566815 L54.14370982213519 -26.4154107052448 L7.116527998670254 -10.078916382117777"/>
		<path opacity="0.75" fill="pink" d="M7.116527998670254 -10.078916382117777 L7.116527998670254 -5.748789363195584 L54.14370982213519 -26.4154107052448 L7.116527998670254 -10.078916382117777"/>
		<path opacity="0.75" fill="pink" d="M9.616527998670255 -7.9138528726566815 L9.616527998670255 -3.583725853734488 L54.14370982213519 -26.4154107052448 L9.616527998670255 -7.9138528726566815"/>
		<path opacity="0.75" fill="pink" d="M7.116527998670254 -5.748789363195584 L9.616527998670255 -3.583725853734488 L54.14370982213519 -26.4154107052448 L7.116527998670254 -5.748789363195584"/>

		<text style="fill:black;font-family:calibri;font-size:6" x="23.625588606491903" y="-22.747163543681285" >[5,5]</text>
		<path opacity="0.75" fill="darkturquoise" d="M7.116527998670254 -10.078916382117777 L9.616527998670255 -7.9138528726566815 L9.616527998670255 -3.583725853734488 L7.116527998670254 -5.748789363195584 L7.116527998670254 -10.078916382117777"/>
		<path opacity="0.75" fill="darkturquoise" d="M-34.4526913829828 1.921083617882223 L-31.9526913829828 4.0861471273433185 L-31.9526913829828 8.416274146265511 L-34.4526913829828 6.251210636804416 L-34.4526913829828 1.921083617882223"/>
		<path opacity="0.75" fill="darkturquoise" d="M7.116527998670254 -10.078916382117777 L-34.4526913829828 1.921083617882223 L-34.4526913829828 6.251210636804416 L7.116527998670254 -5.748789363195584 L7.116527998670254 -10.078916382117777"/>
		<path opacity="0.75" fill="darkturquoise" d="M9.616527998670255 -7.9138528726566815 L-31.9526913829828 4.0861471273433185 L-31.9526913829828 8.416274146265511 L9.616527998670255 -3.583725853734488 L9.616527998670255 -7.9138528726566815"/>
		<path opacity="0.75" fill="darkturquoise" d="M7.116527998670254 -10.078916382117777 L9.616527998670255 -7.9138528726566815 L-31.9526913829828 4.0861471273433185 L-34.4526913829828 1.921083617882223 L7.116527998670254 -10.078916382117777"/>
		<path opacity="0.75" fill="darkturquoise" d="M7.116527998670254 -5.748789363195584 L9.616527998670255 -3.583725853734488 L-31.9526913829828 8.416274146265511 L-34.4526913829828 6.251210636804416 L7.116527998670254 -5.748789363195584"/>
		<path opacity="0.5" fill="orange" d="M4.660254037844385 -12.892304845413264 L12.660254037844386 -5.964101615137755 L12.660254037844386 7.892304845413264 L4.660254037844385 0.9641016151377557 L4.660254037844385 -12.892304845413264"/>
		<path opacity="0.5" fill="orange" d="M-36.90896534380867 -0.892304845413264 L-28.908965343808667 6.035898384862245 L-28.908965343808667 19.892304845413264 L-36.90896534380867 12.964101615137755 L-36.90896534380867 -0.892304845413264"/>
		<path opacity="0.5" fill="orange" d="M4.660254037844385 -12.892304845413264 L-36.90896534380867 -0.892304845413264 L-36.90896534380867 12.964101615137755 L4.660254037844385 0.9641016151377557 L4.660254037844385 -12.892304845413264"/>
		<path opacity="0.5" fill="orange" d="M12.660254037844386 -5.964101615137755 L-28.908965343808667 6.035898384862245 L-28.908965343808667 19.892304845413264 L12.660254037844386 7.892304845413264 L12.660254037844386 -5.964101615137755"/>
		<path opacity="0.5" fill="orange" d="M4.660254037844385 -12.892304845413264 L12.660254037844386 -5.964101615137755 L-28.908965343808667 6.035898384862245 L-36.90896534380867 -0.892304845413264 L4.660254037844385 -12.892304845413264"/>
		<path opacity="0.5" fill="orange" d="M4.660254037844385 0.9641016151377557 L12.660254037844386 7.892304845413264 L-28.908965343808667 19.892304845413264 L-36.90896534380867 12.964101615137755 L4.660254037844385 0.9641016151377557"/>
		<text style="fill:black;font-family:calibri;font-size:6" x="-36.90896534380867" y="6.035898384862246" >16</text>
		<text style="fill:black;font-family:calibri;font-size:6" x="-32.90896534380867" y="16.42820323027551" >16</text>
		<text style="fill:black;font-family:calibri;font-size:6" x="-16.124355652982143" y="-6.892304845413264" >48</text>

		<path opacity="0.75" fill="pink" d="M-77.07792002183189 20.006900645104015 L-74.57792002183189 22.17196415456511 L-30.08779759579765 11.676755779181196 L-77.07792002183189 20.006900645104015"/>
		<path opacity="0.75" fill="pink" d="M-77.07792002183189 20.006900645104015 L-77.07792002183189 24.33702766402621 L-30.08779759579765 11.676755779181196 L-77.07792002183189 20.006900645104015"/>
		<path opacity="0.75" fill="pink" d="M-74.57792002183189 22.17196415456511 L-74.57792002183189 26.5020911734873 L-30.08779759579765 11.676755779181196 L-74.57792002183189 22.17196415456511"/>
		<path opacity="0.75" fill="pink" d="M-77.07792002183189 24.33702766402621 L-74.57792002183189 26.5020911734873 L-30.08779759579765 11.676755779181196 L-77.07792002183189 24.33702766402621"/>

		<text style="fill:black;font-family:calibri;font-size:6" x="-60.58121254648714" y="11.341828212142605" >[5,5]</text>
		<path opacity="0.75" fill="darkturquoise" d="M-77.07792002183189 20.006900645104015 L-74.57792002183189 22.17196415456511 L-74.57792002183189 26.5020911734873 L-77.07792002183189 24.33702766402621 L-77.07792002183189 20.006900645104015"/>
		<path opacity="0.75" fill="darkturquoise" d="M-118.64713940348494 32.00690064510401 L-116.14713940348494 34.17196415456511 L-116.14713940348494 38.5020911734873 L-118.64713940348494 36.33702766402621 L-118.64713940348494 32.00690064510401"/>
		<path opacity="0.75" fill="darkturquoise" d="M-77.07792002183189 20.006900645104015 L-118.64713940348494 32.00690064510401 L-118.64713940348494 36.33702766402621 L-77.07792002183189 24.33702766402621 L-77.07792002183189 20.006900645104015"/>
		<path opacity="0.75" fill="darkturquoise" d="M-74.57792002183189 22.17196415456511 L-116.14713940348494 34.17196415456511 L-116.14713940348494 38.5020911734873 L-74.57792002183189 26.5020911734873 L-74.57792002183189 22.17196415456511"/>
		<path opacity="0.75" fill="darkturquoise" d="M-77.07792002183189 20.006900645104015 L-74.57792002183189 22.17196415456511 L-116.14713940348494 34.17196415456511 L-118.64713940348494 32.00690064510401 L-77.07792002183189 20.006900645104015"/>
		<path opacity="0.75" fill="darkturquoise" d="M-77.07792002183189 24.33702766402621 L-74.57792002183189 26.5020911734873 L-116.14713940348494 38.5020911734873 L-118.64713940348494 36.33702766402621 L-77.07792002183189 24.33702766402621"/>
		<path opacity="0.5" fill="orange" d="M-78.2102355330306 16.803847577293368 L-74.2102355330306 20.26794919243112 L-74.2102355330306 27.196152422706632 L-78.2102355330306 23.73205080756888 L-78.2102355330306 16.803847577293368"/>
		<path opacity="0.5" fill="orange" d="M-119.77945491468365 28.803847577293368 L-115.77945491468365 32.267949192431125 L-115.77945491468365 39.19615242270663 L-119.77945491468365 35.732050807568875 L-119.77945491468365 28.803847577293368"/>
		<path opacity="0.5" fill="orange" d="M-78.2102355330306 16.803847577293368 L-119.77945491468365 28.803847577293368 L-119.77945491468365 35.732050807568875 L-78.2102355330306 23.73205080756888 L-78.2102355330306 16.803847577293368"/>
		<path opacity="0.5" fill="orange" d="M-74.2102355330306 20.26794919243112 L-115.77945491468365 32.267949192431125 L-115.77945491468365 39.19615242270663 L-74.2102355330306 27.196152422706632 L-74.2102355330306 20.26794919243112"/>
		<path opacity="0.5" fill="orange" d="M-78.2102355330306 16.803847577293368 L-74.2102355330306 20.26794919243112 L-115.77945491468365 32.267949192431125 L-119.77945491468365 28.803847577293368 L-78.2102355330306 16.803847577293368"/>
		<path opacity="0.5" fill="orange" d="M-78.2102355330306 23.73205080756888 L-74.2102355330306 27.196152422706632 L-115.77945491468365 39.19615242270663 L-119.77945491468365 35.732050807568875 L-78.2102355330306 23.73205080756888"/>
		<text style="fill:black;font-family:calibri;font-size:6" x="-119.77945491468365" y="32.26794919243112" >8</text>
		<text style="fill:black;font-family:calibri;font-size:6" x="-117.77945491468365" y="37.46410161513775" >8</text>
		<text style="fill:black;font-family:calibri;font-size:6" x="-98.99484522385713" y="22.803847577293368" >48</text>

		<path opacity="0.75" fill="pink" d="M-159.5836007907352 46.75639499733315 L-157.0836007907352 48.921458506794245 L-115.93689027260878 35.346545488605244 L-159.5836007907352 46.75639499733315"/>
		<path opacity="0.75" fill="pink" d="M-159.5836007907352 46.75639499733315 L-159.5836007907352 51.086522016255344 L-115.93689027260878 35.346545488605244 L-159.5836007907352 46.75639499733315"/>
		<path opacity="0.75" fill="pink" d="M-157.0836007907352 48.921458506794245 L-157.0836007907352 53.251585525716436 L-115.93689027260878 35.346545488605244 L-157.0836007907352 48.921458506794245"/>
		<path opacity="0.75" fill="pink" d="M-159.5836007907352 51.086522016255344 L-157.0836007907352 53.251585525716436 L-115.93689027260878 35.346545488605244 L-159.5836007907352 51.086522016255344"/>

		<text style="fill:black;font-family:calibri;font-size:6" x="-144.20136395135972" y="36.5514702429692" >[5,5]</text>
		<path opacity="0.75" fill="darkturquoise" d="M-159.5836007907352 46.75639499733315 L-157.0836007907352 48.921458506794245 L-157.0836007907352 53.251585525716436 L-159.5836007907352 51.086522016255344 L-159.5836007907352 46.75639499733315"/>
		<path opacity="0.75" fill="darkturquoise" d="M-187.29641371183723 54.75639499733315 L-184.79641371183723 56.921458506794245 L-184.79641371183723 61.251585525716436 L-187.29641371183723 59.086522016255344 L-187.29641371183723 54.75639499733315"/>
		<path opacity="0.75" fill="darkturquoise" d="M-159.5836007907352 46.75639499733315 L-187.29641371183723 54.75639499733315 L-187.29641371183723 59.086522016255344 L-159.5836007907352 51.086522016255344 L-159.5836007907352 46.75639499733315"/>
		<path opacity="0.75" fill="darkturquoise" d="M-157.0836007907352 48.921458506794245 L-184.79641371183723 56.921458506794245 L-184.79641371183723 61.251585525716436 L-157.0836007907352 53.251585525716436 L-157.0836007907352 48.921458506794245"/>
		<path opacity="0.75" fill="darkturquoise" d="M-159.5836007907352 46.75639499733315 L-157.0836007907352 48.921458506794245 L-184.79641371183723 56.921458506794245 L-187.29641371183723 54.75639499733315 L-159.5836007907352 46.75639499733315"/>
		<path opacity="0.75" fill="darkturquoise" d="M-159.5836007907352 51.086522016255344 L-157.0836007907352 53.251585525716436 L-184.79641371183723 61.251585525716436 L-187.29641371183723 59.086522016255344 L-159.5836007907352 51.086522016255344"/>
		<path opacity="0.5" fill="orange" d="M-165.0807251039056 36.107695154586736 L-157.0807251039056 43.03589838486224 L-157.0807251039056 56.892304845413264 L-165.0807251039056 49.96410161513776 L-165.0807251039056 36.107695154586736"/>
		<path opacity="0.5" fill="orange" d="M-192.79353802500762 44.107695154586736 L-184.79353802500762 51.03589838486224 L-184.79353802500762 64.89230484541326 L-192.79353802500762 57.96410161513776 L-192.79353802500762 44.107695154586736"/>
		<path opacity="0.5" fill="orange" d="M-165.0807251039056 36.107695154586736 L-192.79353802500762 44.107695154586736 L-192.79353802500762 57.96410161513776 L-165.0807251039056 49.96410161513776 L-165.0807251039056 36.107695154586736"/>
		<path opacity="0.5" fill="orange" d="M-157.0807251039056 43.03589838486224 L-184.79353802500762 51.03589838486224 L-184.79353802500762 64.89230484541326 L-157.0807251039056 56.892304845413264 L-157.0807251039056 43.03589838486224"/>
		<path opacity="0.5" fill="orange" d="M-165.0807251039056 36.107695154586736 L-157.0807251039056 43.03589838486224 L-184.79353802500762 51.03589838486224 L-192.79353802500762 44.107695154586736 L-165.0807251039056 36.107695154586736"/>
		<path opacity="0.5" fill="orange" d="M-165.0807251039056 49.96410161513776 L-157.0807251039056 56.892304845413264 L-184.79353802500762 64.89230484541326 L-192.79353802500762 57.96410161513776 L-165.0807251039056 49.96410161513776"/>
		<text style="fill:black;font-family:calibri;font-size:6" x="-192.79353802500762" y="51.03589838486225" >16</text>
		<text style="fill:black;font-family:calibri;font-size:6" x="-188.79353802500762" y="61.428203230275514" >16</text>
		<text style="fill:black;font-family:calibri;font-size:6" x="-178.9371315644566" y="40.107695154586736" >32</text>

		<path opacity="0.75" fill="pink" d="M-233.11544042884 66.37462061686188 L-230.61544042884 68.53968412632297 L-192.09685415302425 49.29624971894533 L-233.11544042884 66.37462061686188"/>
		<path opacity="0.75" fill="pink" d="M-233.11544042884 66.37462061686188 L-233.11544042884 70.70474763578406 L-192.09685415302425 49.29624971894533 L-233.11544042884 66.37462061686188"/>
		<path opacity="0.75" fill="pink" d="M-230.61544042884 68.53968412632297 L-230.61544042884 72.86981114524517 L-192.09685415302425 49.29624971894533 L-230.61544042884 68.53968412632297"/>
		<path opacity="0.75" fill="pink" d="M-233.11544042884 70.70474763578406 L-230.61544042884 72.86981114524517 L-192.09685415302425 49.29624971894533 L-233.11544042884 70.70474763578406"/>

		<text style="fill:black;font-family:calibri;font-size:6" x="-218.60924500356808" y="53.335435167903604" >[5,5]</text>
		<path opacity="0.75" fill="darkturquoise" d="M-233.11544042884 66.37462061686188 L-230.61544042884 68.53968412632297 L-230.61544042884 72.86981114524517 L-233.11544042884 70.70474763578406 L-233.11544042884 66.37462061686188"/>
		<path opacity="0.75" fill="darkturquoise" d="M-253.90005011966653 72.37462061686188 L-251.40005011966653 74.53968412632297 L-251.40005011966653 78.86981114524517 L-253.90005011966653 76.70474763578406 L-253.90005011966653 72.37462061686188"/>
		<path opacity="0.75" fill="darkturquoise" d="M-233.11544042884 66.37462061686188 L-253.90005011966653 72.37462061686188 L-253.90005011966653 76.70474763578406 L-233.11544042884 70.70474763578406 L-233.11544042884 66.37462061686188"/>
		<path opacity="0.75" fill="darkturquoise" d="M-230.61544042884 68.53968412632297 L-251.40005011966653 74.53968412632297 L-251.40005011966653 78.86981114524517 L-230.61544042884 72.86981114524517 L-230.61544042884 68.53968412632297"/>
		<path opacity="0.75" fill="darkturquoise" d="M-233.11544042884 66.37462061686188 L-230.61544042884 68.53968412632297 L-251.40005011966653 74.53968412632297 L-253.90005011966653 72.37462061686188 L-233.11544042884 66.37462061686188"/>
		<path opacity="0.75" fill="darkturquoise" d="M-233.11544042884 70.70474763578406 L-230.61544042884 72.86981114524517 L-251.40005011966653 78.86981114524517 L-253.90005011966653 76.70474763578406 L-233.11544042884 70.70474763578406"/>
		<path opacity="0.5" fill="orange" d="M-240.09480821422954 46.21539030917347 L-224.09480821422954 60.071796769724486 L-224.09480821422954 87.78460969082653 L-240.09480821422954 73.92820323027551 L-240.09480821422954 46.21539030917347"/>
		<path opacity="0.5" fill="orange" d="M-260.8794179050561 52.21539030917347 L-244.87941790505607 66.07179676972449 L-244.87941790505607 93.78460969082653 L-260.8794179050561 79.92820323027551 L-260.8794179050561 52.21539030917347"/>
		<path opacity="0.5" fill="orange" d="M-240.09480821422954 46.21539030917347 L-260.8794179050561 52.21539030917347 L-260.8794179050561 79.92820323027551 L-240.09480821422954 73.92820323027551 L-240.09480821422954 46.21539030917347"/>
		<path opacity="0.5" fill="orange" d="M-224.09480821422954 60.071796769724486 L-244.87941790505607 66.07179676972449 L-244.87941790505607 93.78460969082653 L-224.09480821422954 87.78460969082653 L-224.09480821422954 60.071796769724486"/>
		<path opacity="0.5" fill="orange" d="M-240.09480821422954 46.21539030917347 L-224.09480821422954 60.071796769724486 L-244.87941790505607 66.07179676972449 L-260.8794179050561 52.21539030917347 L-240.09480821422954 46.21539030917347"/>
		<path opacity="0.5" fill="orange" d="M-240.09480821422954 73.92820323027551 L-224.09480821422954 87.78460969082653 L-244.87941790505607 93.78460969082653 L-260.8794179050561 79.92820323027551 L-240.09480821422954 73.92820323027551"/>
		<text style="fill:black;font-family:calibri;font-size:6" x="-260.8794179050561" y="66.0717967697245" >32</text>
		<text style="fill:black;font-family:calibri;font-size:6" x="-252.87941790505607" y="86.85640646055103" >32</text>
		<text style="fill:black;font-family:calibri;font-size:6" x="-250.4871130596428" y="49.21539030917347" >24</text>

		<path opacity="0.75" fill="pink" d="M-309.5036376814346 52.534159613569045 L-307.0036376814346 54.69922312303014 L-254.97784026058335 69.86917711066572 L-309.5036376814346 52.534159613569045"/>
		<path opacity="0.75" fill="pink" d="M-309.5036376814346 52.534159613569045 L-309.5036376814346 56.864286632491236 L-254.97784026058335 69.86917711066572 L-309.5036376814346 52.534159613569045"/>
		<path opacity="0.75" fill="pink" d="M-307.0036376814346 54.69922312303014 L-307.0036376814346 59.029350141952335 L-254.97784026058335 69.86917711066572 L-307.0036376814346 54.69922312303014"/>
		<path opacity="0.75" fill="pink" d="M-309.5036376814346 56.864286632491236 L-307.0036376814346 59.029350141952335 L-254.97784026058335 69.86917711066572 L-309.5036376814346 56.864286632491236"/>

		<text style="fill:black;font-family:calibri;font-size:6" x="-290.49503854115085" y="56.70166836211738" >[5,5]</text>
		<path opacity="0.75" fill="darkturquoise" d="M-309.5036376814346 52.534159613569045 L-307.0036376814346 54.69922312303014 L-307.0036376814346 59.029350141952335 L-309.5036376814346 56.864286632491236 L-309.5036376814346 52.534159613569045"/>
		<path opacity="0.75" fill="darkturquoise" d="M-318.163891719279 55.034159613569045 L-315.663891719279 57.19922312303014 L-315.663891719279 61.529350141952335 L-318.163891719279 59.364286632491236 L-318.163891719279 55.034159613569045"/>
		<path opacity="0.75" fill="darkturquoise" d="M-309.5036376814346 52.534159613569045 L-318.163891719279 55.034159613569045 L-318.163891719279 59.364286632491236 L-309.5036376814346 56.864286632491236 L-309.5036376814346 52.534159613569045"/>
		<path opacity="0.75" fill="darkturquoise" d="M-307.0036376814346 54.69922312303014 L-315.663891719279 57.19922312303014 L-315.663891719279 61.529350141952335 L-307.0036376814346 59.029350141952335 L-307.0036376814346 54.69922312303014"/>
		<path opacity="0.75" fill="darkturquoise" d="M-309.5036376814346 52.534159613569045 L-307.0036376814346 54.69922312303014 L-315.663891719279 57.19922312303014 L-318.163891719279 55.034159613569045 L-309.5036376814346 52.534159613569045"/>
		<path opacity="0.75" fill="darkturquoise" d="M-309.5036376814346 56.864286632491236 L-307.0036376814346 59.029350141952335 L-315.663891719279 61.529350141952335 L-318.163891719279 59.364286632491236 L-309.5036376814346 56.864286632491236"/>
		<path opacity="0.5" fill="lavender" d="M-312.180688094278 43.930780618346944 L-280.180688094278 71.64359353944897 L-280.180688094278 127.06921938165306 L-312.180688094278 99.35640646055103 L-312.180688094278 43.930780618346944"/>
		<path opacity="0.5" fill="lavender" d="M-320.8409421321224 46.430780618346944 L-288.8409421321224 74.14359353944897 L-288.8409421321224 129.56921938165306 L-320.8409421321224 101.85640646055103 L-320.8409421321224 46.430780618346944"/>
		<path opacity="0.5" fill="lavender" d="M-312.180688094278 43.930780618346944 L-320.8409421321224 46.430780618346944 L-320.8409421321224 101.85640646055103 L-312.180688094278 99.35640646055103 L-312.180688094278 43.930780618346944"/>
		<path opacity="0.5" fill="lavender" d="M-280.180688094278 71.64359353944897 L-288.8409421321224 74.14359353944897 L-288.8409421321224 129.56921938165306 L-280.180688094278 127.06921938165306 L-280.180688094278 71.64359353944897"/>
		<path opacity="0.5" fill="lavender" d="M-312.180688094278 43.930780618346944 L-280.180688094278 71.64359353944897 L-288.8409421321224 74.14359353944897 L-320.8409421321224 46.430780618346944 L-312.180688094278 43.930780618346944"/>
		<path opacity="0.5" fill="lavender" d="M-312.180688094278 99.35640646055103 L-280.180688094278 127.06921938165306 L-288.8409421321224 129.56921938165306 L-320.8409421321224 101.85640646055103 L-312.180688094278 99.35640646055103"/>
		<text style="fill:black;font-family:calibri;font-size:6" x="-320.8409421321224" y="74.14359353944899" >64</text>
		<text style="fill:black;font-family:calibri;font-size:6" x="-304.8409421321224" y="115.71281292110204" >64</text>
		<text style="fill:black;font-family:calibri;font-size:6" x="-316.51081511320024" y="45.180780618346944" >10</text>

	 </g>
</svg>