<svg width="100%" height="100%" viewBox="-108.45894683899488 -68.84678751731761 222.91789367798975 116.62177826491072" xmlns="http://www.w3.org/2000/svg">
	<g stroke="black" stroke-width="0.3">

		<path opacity="0.5" fill="orange" d="M92.45894683899488 -51.79422863405995 L108.45894683899488 -37.937822173508934 L108.45894683899488 -10.225009252406892 L92.45894683899488 -24.081415712957906 L92.45894683899488 -51.79422863405995" stroke-linecap="square"/>
		<path opacity="0.5" fill="orange" d="M37.033320996790806 -35.79422863405995 L53.033320996790806 -21.93782217350893 L53.033320996790806 5.774990747593108 L37.033320996790806 -8.081415712957906 L37.033320996790806 -35.79422863405995" stroke-linecap="square"/>
		<path opacity="0.5" fill="orange" d="M92.45894683899488 -51.79422863405995 L37.033320996790806 -35.79422863405995 L37.033320996790806 -8.081415712957906 L92.45894683899488 -24.081415712957906 L92.45894683899488 -51.79422863405995" stroke-linecap="square"/>
		<path opacity="0.5" fill="orange" d="M108.45894683899488 -37.937822173508934 L53.033320996790806 -21.93782217350893 L53.033320996790806 5.774990747593108 L108.45894683899488 -10.225009252406892 L108.45894683899488 -37.937822173508934" stroke-linecap="square"/>
		<path opacity="0.5" fill="orange" d="M92.45894683899488 -51.79422863405995 L108.45894683899488 -37.937822173508934 L53.033320996790806 -21.93782217350893 L37.033320996790806 -35.79422863405995 L92.45894683899488 -51.79422863405995" stroke-linecap="square"/>
		<path opacity="0.5" fill="orange" d="M92.45894683899488 -24.081415712957906 L108.45894683899488 -10.225009252406892 L53.033320996790806 5.774990747593108 L37.033320996790806 -8.081415712957906 L92.45894683899488 -24.081415712957906" stroke-linecap="square"/>
		<text style="fill:black;font-family:calibri;font-size:6" x="37.033320996790806" y="-21.937822173508927" >32</text>
		<text style="fill:black;font-family:calibri;font-size:6" x="45.033320996790806" y="-1.1532124826823988" >32</text>
		<text style="fill:black;font-family:calibri;font-size:6" x="64.74613391789285" y="-43.79422863405995" >64</text>

<!-- Arrow -->
		<path opacity="0.5" stroke="black" d="M72.74613391789285 -36.866025403784434 L72.74613391789285 -62.8467875173176" stroke-linecap="square"/>
		<circle opacity="0.5" cx="72.74613391789285" cy="-62.8467875173176" r="1" fill="black" />
		<path opacity="0.75" fill="pink" d="M3.9811761497194817 -9.11869284041613 L6.481176149719483 -6.953629330955035 L51.33073214976612 -2.2674501545124492 L3.9811761497194817 -9.11869284041613"/>
		<path opacity="0.75" fill="pink" d="M3.9811761497194817 -9.11869284041613 L3.9811761497194817 -4.78856582149394 L51.33073214976612 -2.2674501545124492 L3.9811761497194817 -9.11869284041613"/>
		<path opacity="0.75" fill="pink" d="M6.481176149719483 -6.953629330955035 L6.481176149719483 -2.6235023120328442 L51.33073214976612 -2.2674501545124492 L6.481176149719483 -6.953629330955035"/>
		<path opacity="0.75" fill="pink" d="M3.9811761497194817 -4.78856582149394 L6.481176149719483 -2.6235023120328442 L51.33073214976612 -2.2674501545124492 L3.9811761497194817 -4.78856582149394"/>

		<text style="fill:black;font-family:calibri;font-size:6" x="20.597694816401695" y="-10.19307149746429" >[5,5]</text>
		<path opacity="0.75" fill="darkturquoise" d="M3.9811761497194817 -9.11869284041613 L6.481176149719483 -6.953629330955035 L6.481176149719483 -2.6235023120328442 L3.9811761497194817 -4.78856582149394 L3.9811761497194817 -9.11869284041613" stroke-linecap="square"/>
		<path opacity="0.75" fill="darkturquoise" d="M-37.58804323193357 2.8813071595838693 L-35.08804323193357 5.046370669044965 L-35.08804323193357 9.376497687967156 L-37.58804323193357 7.21143417850606 L-37.58804323193357 2.8813071595838693" stroke-linecap="square"/>
		<path opacity="0.75" fill="darkturquoise" d="M3.9811761497194817 -9.11869284041613 L-37.58804323193357 2.8813071595838693 L-37.58804323193357 7.21143417850606 L3.9811761497194817 -4.78856582149394 L3.9811761497194817 -9.11869284041613" stroke-linecap="square"/>
		<path opacity="0.75" fill="darkturquoise" d="M6.481176149719483 -6.953629330955035 L-35.08804323193357 5.046370669044965 L-35.08804323193357 9.376497687967156 L6.481176149719483 -2.6235023120328442 L6.481176149719483 -6.953629330955035" stroke-linecap="square"/>
		<path opacity="0.75" fill="darkturquoise" d="M3.9811761497194817 -9.11869284041613 L6.481176149719483 -6.953629330955035 L-35.08804323193357 5.046370669044965 L-37.58804323193357 2.8813071595838693 L3.9811761497194817 -9.11869284041613" stroke-linecap="square"/>
		<path opacity="0.75" fill="darkturquoise" d="M3.9811761497194817 -4.78856582149394 L6.481176149719483 -2.6235023120328442 L-35.08804323193357 9.376497687967156 L-37.58804323193357 7.21143417850606 L3.9811761497194817 -4.78856582149394" stroke-linecap="square"/>
		<path opacity="0.5" fill="orange" d="M-6.267949192431125 -23.294228634059948 L9.732050807568879 -9.43782217350893 L9.732050807568879 18.274990747593108 L-6.267949192431125 4.418584287042094 L-6.267949192431125 -23.294228634059948" stroke-linecap="square"/>
		<path opacity="0.5" fill="orange" d="M-47.837168574084174 -11.294228634059946 L-31.837168574084174 2.5621778264910695 L-31.837168574084174 30.274990747593108 L-47.837168574084174 16.418584287042094 L-47.837168574084174 -11.294228634059946" stroke-linecap="square"/>
		<path opacity="0.5" fill="orange" d="M-6.267949192431125 -23.294228634059948 L-47.837168574084174 -11.294228634059946 L-47.837168574084174 16.418584287042094 L-6.267949192431125 4.418584287042094 L-6.267949192431125 -23.294228634059948" stroke-linecap="square"/>
		<path opacity="0.5" fill="orange" d="M9.732050807568879 -9.43782217350893 L-31.837168574084174 2.5621778264910695 L-31.837168574084174 30.274990747593108 L9.732050807568879 18.274990747593108 L9.732050807568879 -9.43782217350893" stroke-linecap="square"/>
		<path opacity="0.5" fill="orange" d="M-6.267949192431125 -23.294228634059948 L9.732050807568879 -9.43782217350893 L-31.837168574084174 2.5621778264910695 L-47.837168574084174 -11.294228634059946 L-6.267949192431125 -23.294228634059948" stroke-linecap="square"/>
		<path opacity="0.5" fill="orange" d="M-6.267949192431125 4.418584287042094 L9.732050807568879 18.274990747593108 L-31.837168574084174 30.274990747593108 L-47.837168574084174 16.418584287042094 L-6.267949192431125 4.418584287042094" stroke-linecap="square"/>
		<text style="fill:black;font-family:calibri;font-size:6" x="-47.837168574084174" y="2.562177826491074" >32</text>
		<text style="fill:black;font-family:calibri;font-size:6" x="-39.837168574084174" y="23.3467875173176" >32</text>
		<text style="fill:black;font-family:calibri;font-size:6" x="-27.05255888325765" y="-17.294228634059948" >48</text>

<!-- Arrow -->
		<path opacity="0.5" stroke="black" d="M-91.7986928011505 -15.346787517317601 L72.74613391789285 -62.8467875173176" stroke-linecap="square"/>
		<circle opacity="0.5" cx="72.74613391789285" cy="-62.8467875173176" r="1" fill="black" />
		<path opacity="0.75" fill="pink" d="M-90.39499926676577 5.282665859399721 L-85.39499926676577 9.612792878321915 L-44.88655791613152 18.55996447206573 L-90.39499926676577 5.282665859399721"/>
		<path opacity="0.75" fill="pink" d="M-90.39499926676577 5.282665859399721 L-90.39499926676577 13.94291989724411 L-44.88655791613152 18.55996447206573 L-90.39499926676577 5.282665859399721"/>
		<path opacity="0.75" fill="pink" d="M-85.39499926676577 9.612792878321915 L-85.39499926676577 18.2730469161663 L-44.88655791613152 18.55996447206573 L-85.39499926676577 9.612792878321915"/>
		<path opacity="0.75" fill="pink" d="M-90.39499926676577 13.94291989724411 L-85.39499926676577 18.2730469161663 L-44.88655791613152 18.55996447206573 L-90.39499926676577 13.94291989724411"/>

		<text style="fill:black;font-family:calibri;font-size:6" x="-73.55885214988768" y="7.421315165732725" >[10,10]</text>
		<path opacity="0.75" fill="darkturquoise" d="M-90.39499926676577 5.282665859399721 L-85.39499926676577 9.612792878321915 L-85.39499926676577 18.2730469161663 L-90.39499926676577 13.94291989724411 L-90.39499926676577 5.282665859399721" stroke-linecap="square"/>
		<path opacity="0.75" fill="darkturquoise" d="M-107.71550734245453 10.28266585939972 L-102.71550734245453 14.612792878321915 L-102.71550734245453 23.2730469161663 L-107.71550734245453 18.94291989724411 L-107.71550734245453 10.28266585939972" stroke-linecap="square"/>
		<path opacity="0.75" fill="darkturquoise" d="M-90.39499926676577 5.282665859399721 L-107.71550734245453 10.28266585939972 L-107.71550734245453 18.94291989724411 L-90.39499926676577 13.94291989724411 L-90.39499926676577 5.282665859399721" stroke-linecap="square"/>
		<path opacity="0.75" fill="darkturquoise" d="M-85.39499926676577 9.612792878321915 L-102.71550734245453 14.612792878321915 L-102.71550734245453 23.2730469161663 L-85.39499926676577 18.2730469161663 L-85.39499926676577 9.612792878321915" stroke-linecap="square"/>
		<path opacity="0.75" fill="darkturquoise" d="M-90.39499926676577 5.282665859399721 L-85.39499926676577 9.612792878321915 L-102.71550734245453 14.612792878321915 L-107.71550734245453 10.28266585939972 L-90.39499926676577 5.282665859399721" stroke-linecap="square"/>
		<path opacity="0.75" fill="darkturquoise" d="M-90.39499926676577 13.94291989724411 L-85.39499926676577 18.2730469161663 L-102.71550734245453 23.2730469161663 L-107.71550734245453 18.94291989724411 L-90.39499926676577 13.94291989724411" stroke-linecap="square"/>
		<path opacity="0.5" fill="lavender" d="M-91.13843876330611 1.205771365940052 L-75.13843876330611 15.06217782649107 L-75.13843876330611 42.77499074759311 L-91.13843876330611 28.918584287042094 L-91.13843876330611 1.205771365940052" stroke-linecap="square"/>
		<path opacity="0.5" fill="lavender" d="M-108.45894683899488 6.205771365940052 L-92.45894683899488 20.062177826491066 L-92.45894683899488 47.77499074759311 L-108.45894683899488 33.918584287042094 L-108.45894683899488 6.205771365940052" stroke-linecap="square"/>
		<path opacity="0.5" fill="lavender" d="M-91.13843876330611 1.205771365940052 L-108.45894683899488 6.205771365940052 L-108.45894683899488 33.918584287042094 L-91.13843876330611 28.918584287042094 L-91.13843876330611 1.205771365940052" stroke-linecap="square"/>
		<path opacity="0.5" fill="lavender" d="M-75.13843876330611 15.06217782649107 L-92.45894683899488 20.062177826491066 L-92.45894683899488 47.77499074759311 L-75.13843876330611 42.77499074759311 L-75.13843876330611 15.06217782649107" stroke-linecap="square"/>
		<path opacity="0.5" fill="lavender" d="M-91.13843876330611 1.205771365940052 L-75.13843876330611 15.06217782649107 L-92.45894683899488 20.062177826491066 L-108.45894683899488 6.205771365940052 L-91.13843876330611 1.205771365940052" stroke-linecap="square"/>
		<path opacity="0.5" fill="lavender" d="M-91.13843876330611 28.918584287042094 L-75.13843876330611 42.77499074759311 L-92.45894683899488 47.77499074759311 L-108.45894683899488 33.918584287042094 L-91.13843876330611 28.918584287042094" stroke-linecap="square"/>
		<text style="fill:black;font-family:calibri;font-size:6" x="-108.45894683899488" y="20.062177826491073" >32</text>
		<text style="fill:black;font-family:calibri;font-size:6" x="-100.45894683899488" y="40.8467875173176" >32</text>
		<text style="fill:black;font-family:calibri;font-size:6" x="-99.7986928011505" y="3.705771365940052" >20</text>

<!-- Arrow -->
		<path opacity="0.5" stroke="black" d="M-91.7986928011505 10.633974596215563 L-91.7986928011505 -15.346787517317601" stroke-linecap="square"/>
		<circle opacity="0.5" cx="-91.7986928011505" cy="-15.346787517317601" r="1" fill="black" />
	 </g>
</svg>