<svg width="100%" height="100%" viewBox="-220.9512146747806 -338.90698604072065 549.4024293495611 485.7290355909024" xmlns="http://www.w3.org/2000/svg">
	<g stroke="black" stroke-width="0.3">

<!-- Arrow -->
		<path opacity="0.5" stroke="black" d="M267.9896904477142 -59.34936490538904 L311.2909606369362 -71.84936490538902" stroke-linecap="square"/>
		<circle opacity="0.5" cx="311.2909606369362" cy="-71.84936490538902" r="1" fill="black" />
		<path opacity="0.75" fill="darkturquoise" d="M317.45121467478054 -293.0207793609598 L322.45121467478054 -288.6906523420376 L322.45121467478054 144.32204955018176 L317.45121467478054 139.99192253125955 L317.45121467478054 -293.0207793609598" stroke-linecap="square"/>
		<path opacity="0.75" fill="darkturquoise" d="M308.7909606369362 -290.5207793609598 L313.7909606369362 -286.1906523420376 L313.7909606369362 146.82204955018176 L308.7909606369362 142.49192253125955 L308.7909606369362 -290.5207793609598" stroke-linecap="square"/>
		<path opacity="0.75" fill="darkturquoise" d="M317.45121467478054 -293.0207793609598 L308.7909606369362 -290.5207793609598 L308.7909606369362 142.49192253125955 L317.45121467478054 139.99192253125955 L317.45121467478054 -293.0207793609598" stroke-linecap="square"/>
		<path opacity="0.75" fill="darkturquoise" d="M322.45121467478054 -288.6906523420376 L313.7909606369362 -286.1906523420376 L313.7909606369362 146.82204955018176 L322.45121467478054 144.32204955018176 L322.45121467478054 -288.6906523420376" stroke-linecap="square"/>
		<path opacity="0.75" fill="darkturquoise" d="M317.45121467478054 -293.0207793609598 L322.45121467478054 -288.6906523420376 L313.7909606369362 -286.1906523420376 L308.7909606369362 -290.5207793609598 L317.45121467478054 -293.0207793609598" stroke-linecap="square"/>
		<path opacity="0.75" fill="darkturquoise" d="M317.45121467478054 139.99192253125955 L322.45121467478054 144.32204955018176 L313.7909606369362 146.82204955018176 L308.7909606369362 142.49192253125955 L317.45121467478054 139.99192253125955" stroke-linecap="square"/>
		<text style="fill:black;font-family:calibri;font-size:6" x="308.7909606369362" y="-74.01442841485013" >500</text>
		<text style="fill:black;font-family:calibri;font-size:6" x="311.2909606369362" y="144.65698604072065" >10</text>
		<text style="fill:black;font-family:calibri;font-size:6" x="313.12108765585833" y="-291.7707793609598" >10</text>

<!-- Arrow -->
		<path opacity="0.5" stroke="black" d="M216.02816622064793 -44.349364905389045 L259.32943640986986 -56.84936490538904" stroke-linecap="square"/>
		<circle opacity="0.5" cx="259.32943640986986" cy="-56.84936490538904" r="1" fill="black" />
		<path opacity="0.75" fill="darkturquoise" d="M265.4896904477142 -234.71950917173788 L270.4896904477142 -230.38938215281567 L270.4896904477142 116.0207793609598 L265.4896904477142 111.6906523420376 L265.4896904477142 -234.71950917173788" stroke-linecap="square"/>
		<path opacity="0.75" fill="darkturquoise" d="M256.82943640986986 -232.21950917173788 L261.82943640986986 -227.88938215281567 L261.82943640986986 118.5207793609598 L256.82943640986986 114.1906523420376 L256.82943640986986 -232.21950917173788" stroke-linecap="square"/>
		<path opacity="0.75" fill="darkturquoise" d="M265.4896904477142 -234.71950917173788 L256.82943640986986 -232.21950917173788 L256.82943640986986 114.1906523420376 L265.4896904477142 111.6906523420376 L265.4896904477142 -234.71950917173788" stroke-linecap="square"/>
		<path opacity="0.75" fill="darkturquoise" d="M270.4896904477142 -230.38938215281567 L261.82943640986986 -227.88938215281567 L261.82943640986986 118.5207793609598 L270.4896904477142 116.0207793609598 L270.4896904477142 -230.38938215281567" stroke-linecap="square"/>
		<path opacity="0.75" fill="darkturquoise" d="M265.4896904477142 -234.71950917173788 L270.4896904477142 -230.38938215281567 L261.82943640986986 -227.88938215281567 L256.82943640986986 -232.21950917173788 L265.4896904477142 -234.71950917173788" stroke-linecap="square"/>
		<path opacity="0.75" fill="darkturquoise" d="M265.4896904477142 111.6906523420376 L270.4896904477142 116.0207793609598 L261.82943640986986 118.5207793609598 L256.82943640986986 114.1906523420376 L265.4896904477142 111.6906523420376" stroke-linecap="square"/>
		<text style="fill:black;font-family:calibri;font-size:6" x="256.82943640986986" y="-59.014428414850144" >400</text>
		<text style="fill:black;font-family:calibri;font-size:6" x="259.32943640986986" y="116.3557158514987" >10</text>
		<text style="fill:black;font-family:calibri;font-size:6" x="261.159563428792" y="-233.46950917173788" >10</text>

<!-- Arrow -->
		<path opacity="0.5" stroke="black" d="M75.10511776651529 -46.39230484541326 L155.40638795573722 -26.84936490538903" stroke-linecap="square"/>
		<circle opacity="0.5" cx="155.40638795573722" cy="-26.84936490538903" r="1" fill="black" />
<!-- Arrow -->
		<path opacity="0.5" stroke="black" d="M164.0666419935816 -29.34936490538903 L207.36791218280354 -41.849364905389045" stroke-linecap="square"/>
		<circle opacity="0.5" cx="207.36791218280354" cy="-41.849364905389045" r="1" fill="black" />
		<path opacity="0.5" fill="orange" d="M72.10511776651529 -52.45448267190433 L78.10511776651529 -47.2583302491977 L78.10511776651529 -40.330127018922184 L72.10511776651529 -45.526279441628816 L72.10511776651529 -52.45448267190433" stroke-linecap="square"/>
		<path opacity="0.5" fill="orange" d="M9.751288694035708 -34.45448267190433 L15.751288694035708 -29.258330249197698 L15.751288694035708 -22.330127018922187 L9.751288694035708 -27.52627944162882 L9.751288694035708 -34.45448267190433" stroke-linecap="square"/>
		<path opacity="0.5" fill="orange" d="M72.10511776651529 -52.45448267190433 L9.751288694035708 -34.45448267190433 L9.751288694035708 -27.52627944162882 L72.10511776651529 -45.526279441628816 L72.10511776651529 -52.45448267190433" stroke-linecap="square"/>
		<path opacity="0.5" fill="orange" d="M78.10511776651529 -47.2583302491977 L15.751288694035708 -29.258330249197698 L15.751288694035708 -22.330127018922187 L78.10511776651529 -40.330127018922184 L78.10511776651529 -47.2583302491977" stroke-linecap="square"/>
		<path opacity="0.5" fill="orange" d="M72.10511776651529 -52.45448267190433 L78.10511776651529 -47.2583302491977 L15.751288694035708 -29.258330249197698 L9.751288694035708 -34.45448267190433 L72.10511776651529 -52.45448267190433" stroke-linecap="square"/>
		<path opacity="0.5" fill="orange" d="M72.10511776651529 -45.526279441628816 L78.10511776651529 -40.330127018922184 L15.751288694035708 -22.330127018922187 L9.751288694035708 -27.52627944162882 L72.10511776651529 -45.526279441628816" stroke-linecap="square"/>
		<text style="fill:black;font-family:calibri;font-size:6" x="9.751288694035708" y="-30.990381056766573" >8</text>
		<text style="fill:black;font-family:calibri;font-size:6" x="12.751288694035708" y="-24.928203230275503" >12</text>
		<text style="fill:black;font-family:calibri;font-size:6" x="40.9282032302755" y="-43.45448267190433" >72</text>

		<path opacity="0.75" fill="darkturquoise" d="M213.52816622064793 -176.41823898251593 L218.52816622064793 -172.08811196359375 L218.52816622064793 87.71950917173788 L213.52816622064793 83.38938215281567 L213.52816622064793 -176.41823898251593" stroke-linecap="square"/>
		<path opacity="0.75" fill="darkturquoise" d="M204.86791218280354 -173.91823898251593 L209.86791218280354 -169.58811196359375 L209.86791218280354 90.21950917173788 L204.86791218280354 85.88938215281567 L204.86791218280354 -173.91823898251593" stroke-linecap="square"/>
		<path opacity="0.75" fill="darkturquoise" d="M213.52816622064793 -176.41823898251593 L204.86791218280354 -173.91823898251593 L204.86791218280354 85.88938215281567 L213.52816622064793 83.38938215281567 L213.52816622064793 -176.41823898251593" stroke-linecap="square"/>
		<path opacity="0.75" fill="darkturquoise" d="M218.52816622064793 -172.08811196359375 L209.86791218280354 -169.58811196359375 L209.86791218280354 90.21950917173788 L218.52816622064793 87.71950917173788 L218.52816622064793 -172.08811196359375" stroke-linecap="square"/>
		<path opacity="0.75" fill="darkturquoise" d="M213.52816622064793 -176.41823898251593 L218.52816622064793 -172.08811196359375 L209.86791218280354 -169.58811196359375 L204.86791218280354 -173.91823898251593 L213.52816622064793 -176.41823898251593" stroke-linecap="square"/>
		<path opacity="0.75" fill="darkturquoise" d="M213.52816622064793 83.38938215281567 L218.52816622064793 87.71950917173788 L209.86791218280354 90.21950917173788 L204.86791218280354 85.88938215281567 L213.52816622064793 83.38938215281567" stroke-linecap="square"/>
		<text style="fill:black;font-family:calibri;font-size:6" x="204.86791218280354" y="-44.01442841485013" >300</text>
		<text style="fill:black;font-family:calibri;font-size:6" x="207.36791218280354" y="88.05444566227678" >10</text>
		<text style="fill:black;font-family:calibri;font-size:6" x="209.19803920172575" y="-175.16823898251593" >10</text>

		<path opacity="0.75" fill="darkturquoise" d="M161.5666419935816 -118.11696879329399 L166.5666419935816 -113.7868417743718 L166.5666419935816 59.41823898251593 L161.5666419935816 55.08811196359375 L161.5666419935816 -118.11696879329399" stroke-linecap="square"/>
		<path opacity="0.75" fill="darkturquoise" d="M152.90638795573722 -115.61696879329399 L157.90638795573722 -111.2868417743718 L157.90638795573722 61.91823898251593 L152.90638795573722 57.58811196359375 L152.90638795573722 -115.61696879329399" stroke-linecap="square"/>
		<path opacity="0.75" fill="darkturquoise" d="M161.5666419935816 -118.11696879329399 L152.90638795573722 -115.61696879329399 L152.90638795573722 57.58811196359375 L161.5666419935816 55.08811196359375 L161.5666419935816 -118.11696879329399" stroke-linecap="square"/>
		<path opacity="0.75" fill="darkturquoise" d="M166.5666419935816 -113.7868417743718 L157.90638795573722 -111.2868417743718 L157.90638795573722 61.91823898251593 L166.5666419935816 59.41823898251593 L166.5666419935816 -113.7868417743718" stroke-linecap="square"/>
		<path opacity="0.75" fill="darkturquoise" d="M161.5666419935816 -118.11696879329399 L166.5666419935816 -113.7868417743718 L157.90638795573722 -111.2868417743718 L152.90638795573722 -115.61696879329399 L161.5666419935816 -118.11696879329399" stroke-linecap="square"/>
		<path opacity="0.75" fill="darkturquoise" d="M161.5666419935816 55.08811196359375 L166.5666419935816 59.41823898251593 L157.90638795573722 61.91823898251593 L152.90638795573722 57.58811196359375 L161.5666419935816 55.08811196359375" stroke-linecap="square"/>
		<text style="fill:black;font-family:calibri;font-size:6" x="152.90638795573722" y="-29.014428414850123" >200</text>
		<text style="fill:black;font-family:calibri;font-size:6" x="155.40638795573722" y="59.75317547305484" >10</text>
		<text style="fill:black;font-family:calibri;font-size:6" x="157.23651497465943" y="-116.86696879329399" >10</text>

		<path opacity="0.75" fill="pink" d="M-30.162328610491628 -21.388716355277303 L-25.162328610491628 -17.05858933635511 L13.511988681898487 -24.466639141077394 L-30.162328610491628 -21.388716355277303"/>
		<path opacity="0.75" fill="pink" d="M-30.162328610491628 -21.388716355277303 L-30.162328610491628 -12.728462317432914 L13.511988681898487 -24.466639141077394 L-30.162328610491628 -21.388716355277303"/>
		<path opacity="0.75" fill="pink" d="M-25.162328610491628 -17.05858933635511 L-25.162328610491628 -8.39833529851072 L13.511988681898487 -24.466639141077394 L-25.162328610491628 -17.05858933635511"/>
		<path opacity="0.75" fill="pink" d="M-30.162328610491628 -12.728462317432914 L-25.162328610491628 -8.39833529851072 L13.511988681898487 -24.466639141077394 L-30.162328610491628 -12.728462317432914"/>

		<text style="fill:black;font-family:calibri;font-size:6" x="-13.937556179694923" y="-27.42767774817735" >[10,10]</text>
		<path opacity="0.75" fill="darkturquoise" d="M-30.162328610491628 -21.388716355277303 L-25.162328610491628 -17.05858933635511 L-25.162328610491628 -8.39833529851072 L-30.162328610491628 -12.728462317432914 L-30.162328610491628 -21.388716355277303" stroke-linecap="square"/>
		<path opacity="0.75" fill="darkturquoise" d="M-85.5879544526957 -5.388716355277303 L-80.5879544526957 -1.0585893363551087 L-80.5879544526957 7.601664701489284 L-85.5879544526957 3.271537682567086 L-85.5879544526957 -5.388716355277303" stroke-linecap="square"/>
		<path opacity="0.75" fill="darkturquoise" d="M-30.162328610491628 -21.388716355277303 L-85.5879544526957 -5.388716355277303 L-85.5879544526957 3.271537682567086 L-30.162328610491628 -12.728462317432914 L-30.162328610491628 -21.388716355277303" stroke-linecap="square"/>
		<path opacity="0.75" fill="darkturquoise" d="M-25.162328610491628 -17.05858933635511 L-80.5879544526957 -1.0585893363551087 L-80.5879544526957 7.601664701489284 L-25.162328610491628 -8.39833529851072 L-25.162328610491628 -17.05858933635511" stroke-linecap="square"/>
		<path opacity="0.75" fill="darkturquoise" d="M-30.162328610491628 -21.388716355277303 L-25.162328610491628 -17.05858933635511 L-80.5879544526957 -1.0585893363551087 L-85.5879544526957 -5.388716355277303 L-30.162328610491628 -21.388716355277303" stroke-linecap="square"/>
		<path opacity="0.75" fill="darkturquoise" d="M-30.162328610491628 -12.728462317432914 L-25.162328610491628 -8.39833529851072 L-80.5879544526957 7.601664701489284 L-85.5879544526957 3.271537682567086 L-30.162328610491628 -12.728462317432914" stroke-linecap="square"/>
		<path opacity="0.5" fill="orange" d="M-36.549981495186216 -28.0166604983954 L-24.549981495186216 -17.624355652982135 L-24.549981495186216 -3.767949192431118 L-36.549981495186216 -14.160254037844382 L-36.549981495186216 -28.0166604983954" stroke-linecap="square"/>
		<path opacity="0.5" fill="orange" d="M-91.9756073373903 -12.0166604983954 L-79.9756073373903 -1.6243556529821355 L-79.9756073373903 12.232050807568882 L-91.9756073373903 1.839745962155618 L-91.9756073373903 -12.0166604983954" stroke-linecap="square"/>
		<path opacity="0.5" fill="orange" d="M-36.549981495186216 -28.0166604983954 L-91.9756073373903 -12.0166604983954 L-91.9756073373903 1.839745962155618 L-36.549981495186216 -14.160254037844382 L-36.549981495186216 -28.0166604983954" stroke-linecap="square"/>
		<path opacity="0.5" fill="orange" d="M-24.549981495186216 -17.624355652982135 L-79.9756073373903 -1.6243556529821355 L-79.9756073373903 12.232050807568882 L-24.549981495186216 -3.767949192431118 L-24.549981495186216 -17.624355652982135" stroke-linecap="square"/>
		<path opacity="0.5" fill="orange" d="M-36.549981495186216 -28.0166604983954 L-24.549981495186216 -17.624355652982135 L-79.9756073373903 -1.6243556529821355 L-91.9756073373903 -12.0166604983954 L-36.549981495186216 -28.0166604983954" stroke-linecap="square"/>
		<path opacity="0.5" fill="orange" d="M-36.549981495186216 -14.160254037844382 L-24.549981495186216 -3.767949192431118 L-79.9756073373903 12.232050807568882 L-91.9756073373903 1.839745962155618 L-36.549981495186216 -14.160254037844382" stroke-linecap="square"/>
		<text style="fill:black;font-family:calibri;font-size:6" x="-91.9756073373903" y="-5.088457268119891" >16</text>
		<text style="fill:black;font-family:calibri;font-size:6" x="-85.9756073373903" y="7.03589838486225" >24</text>
		<text style="fill:black;font-family:calibri;font-size:6" x="-64.26279441628826" y="-20.0166604983954" >64</text>

<!-- Arrow -->
		<path opacity="0.5" stroke="black" d="M149.10511776651532 17.693575034635195 L155.40638795573722 -26.84936490538903" stroke-linecap="square"/>
		<circle opacity="0.5" cx="155.40638795573722" cy="-26.84936490538903" r="1" fill="black" />
		<path opacity="0.75" fill="pink" d="M-139.52435040285704 2.575838088434285 L-137.02435040285704 4.740901597895377 L-86.06960287807482 2.504734589815193 L-139.52435040285704 2.575838088434285"/>
		<path opacity="0.75" fill="pink" d="M-139.52435040285704 2.575838088434285 L-139.52435040285704 6.905965107356476 L-86.06960287807482 2.504734589815193 L-139.52435040285704 2.575838088434285"/>
		<path opacity="0.75" fill="pink" d="M-137.02435040285704 4.740901597895377 L-137.02435040285704 9.071028616817571 L-86.06960287807482 2.504734589815193 L-137.02435040285704 4.740901597895377"/>
		<path opacity="0.75" fill="pink" d="M-139.52435040285704 6.905965107356476 L-137.02435040285704 9.071028616817571 L-86.06960287807482 2.504734589815193 L-139.52435040285704 6.905965107356476"/>

		<text style="fill:black;font-family:calibri;font-size:6" x="-120.8727678945963" y="-1.959713660875261" >[5,5]</text>
		<path opacity="0.75" fill="darkturquoise" d="M-139.52435040285704 2.575838088434285 L-137.02435040285704 4.740901597895377 L-137.02435040285704 9.071028616817571 L-139.52435040285704 6.905965107356476 L-139.52435040285704 2.575838088434285" stroke-linecap="square"/>
		<path opacity="0.75" fill="darkturquoise" d="M-167.23716332395907 10.575838088434281 L-164.73716332395907 12.740901597895373 L-164.73716332395907 17.07102861681757 L-167.23716332395907 14.90596510735648 L-167.23716332395907 10.575838088434281" stroke-linecap="square"/>
		<path opacity="0.75" fill="darkturquoise" d="M-139.52435040285704 2.575838088434285 L-167.23716332395907 10.575838088434281 L-167.23716332395907 14.90596510735648 L-139.52435040285704 6.905965107356476 L-139.52435040285704 2.575838088434285" stroke-linecap="square"/>
		<path opacity="0.75" fill="darkturquoise" d="M-137.02435040285704 4.740901597895377 L-164.73716332395907 12.740901597895373 L-164.73716332395907 17.07102861681757 L-137.02435040285704 9.071028616817571 L-137.02435040285704 4.740901597895377" stroke-linecap="square"/>
		<path opacity="0.75" fill="darkturquoise" d="M-139.52435040285704 2.575838088434285 L-137.02435040285704 4.740901597895377 L-164.73716332395907 12.740901597895373 L-167.23716332395907 10.575838088434281 L-139.52435040285704 2.575838088434285" stroke-linecap="square"/>
		<path opacity="0.75" fill="darkturquoise" d="M-139.52435040285704 6.905965107356476 L-137.02435040285704 9.071028616817571 L-164.73716332395907 17.07102861681757 L-167.23716332395907 14.90596510735648 L-139.52435040285704 6.905965107356476" stroke-linecap="square"/>
		<path opacity="0.5" fill="orange" d="M-141.27687752661222 -11.641016151377535 L-117.27687752661222 9.143593539448986 L-117.27687752661222 36.85640646055103 L-141.27687752661222 16.071796769724507 L-141.27687752661222 -11.641016151377535" stroke-linecap="square"/>
		<path opacity="0.5" fill="orange" d="M-168.98969044771428 -3.641016151377535 L-144.98969044771425 17.143593539448986 L-144.98969044771425 44.85640646055103 L-168.98969044771428 24.071796769724507 L-168.98969044771428 -3.641016151377535" stroke-linecap="square"/>
		<path opacity="0.5" fill="orange" d="M-141.27687752661222 -11.641016151377535 L-168.98969044771428 -3.641016151377535 L-168.98969044771428 24.071796769724507 L-141.27687752661222 16.071796769724507 L-141.27687752661222 -11.641016151377535" stroke-linecap="square"/>
		<path opacity="0.5" fill="orange" d="M-117.27687752661222 9.143593539448986 L-144.98969044771425 17.143593539448986 L-144.98969044771425 44.85640646055103 L-117.27687752661222 36.85640646055103 L-117.27687752661222 9.143593539448986" stroke-linecap="square"/>
		<path opacity="0.5" fill="orange" d="M-141.27687752661222 -11.641016151377535 L-117.27687752661222 9.143593539448986 L-144.98969044771425 17.143593539448986 L-168.98969044771428 -3.641016151377535 L-141.27687752661222 -11.641016151377535" stroke-linecap="square"/>
		<path opacity="0.5" fill="orange" d="M-141.27687752661222 16.071796769724507 L-117.27687752661222 36.85640646055103 L-144.98969044771425 44.85640646055103 L-168.98969044771428 24.071796769724507 L-141.27687752661222 16.071796769724507" stroke-linecap="square"/>
		<text style="fill:black;font-family:calibri;font-size:6" x="-168.98969044771428" y="10.215390309173486" >32</text>
		<text style="fill:black;font-family:calibri;font-size:6" x="-156.98969044771428" y="34.464101615137764" >48</text>
		<text style="fill:black;font-family:calibri;font-size:6" x="-155.13328398716325" y="-7.641016151377535" >32</text>

		<path opacity="0.75" fill="pink" d="M-202.80832680092612 33.43397172755071 L-197.80832680092612 37.76409874647291 L-158.22374190187054 26.328341678477358 L-202.80832680092612 33.43397172755071"/>
		<path opacity="0.75" fill="pink" d="M-202.80832680092612 33.43397172755071 L-202.80832680092612 42.094225765395095 L-158.22374190187054 26.328341678477358 L-202.80832680092612 33.43397172755071"/>
		<path opacity="0.75" fill="pink" d="M-197.80832680092612 37.76409874647291 L-197.80832680092612 46.42435278431729 L-158.22374190187054 26.328341678477358 L-197.80832680092612 37.76409874647291"/>
		<path opacity="0.75" fill="pink" d="M-202.80832680092612 42.094225765395095 L-197.80832680092612 46.42435278431729 L-158.22374190187054 26.328341678477358 L-202.80832680092612 42.094225765395095"/>

		<text style="fill:black;font-family:calibri;font-size:6" x="-186.28013183457426" y="25.381156703014035" >[10,10]</text>
		<path opacity="0.5" fill="orange" d="M146.10511776651532 11.631397208144122 L152.10511776651532 16.827549630850754 L152.10511776651532 23.75575286112627 L146.10511776651532 18.559600438419636 L146.10511776651532 11.631397208144122" stroke-linecap="square"/>
		<path opacity="0.5" fill="orange" d="M83.75128869403572 29.631397208144122 L89.75128869403572 34.827549630850754 L89.75128869403572 41.75575286112627 L83.75128869403572 36.559600438419636 L83.75128869403572 29.631397208144122" stroke-linecap="square"/>
		<path opacity="0.5" fill="orange" d="M146.10511776651532 11.631397208144122 L83.75128869403572 29.631397208144122 L83.75128869403572 36.559600438419636 L146.10511776651532 18.559600438419636 L146.10511776651532 11.631397208144122" stroke-linecap="square"/>
		<path opacity="0.5" fill="orange" d="M152.10511776651532 16.827549630850754 L89.75128869403572 34.827549630850754 L89.75128869403572 41.75575286112627 L152.10511776651532 23.75575286112627 L152.10511776651532 16.827549630850754" stroke-linecap="square"/>
		<path opacity="0.5" fill="orange" d="M146.10511776651532 11.631397208144122 L152.10511776651532 16.827549630850754 L89.75128869403572 34.827549630850754 L83.75128869403572 29.631397208144122 L146.10511776651532 11.631397208144122" stroke-linecap="square"/>
		<path opacity="0.5" fill="orange" d="M146.10511776651532 18.559600438419636 L152.10511776651532 23.75575286112627 L89.75128869403572 41.75575286112627 L83.75128869403572 36.559600438419636 L146.10511776651532 18.559600438419636" stroke-linecap="square"/>
		<text style="fill:black;font-family:calibri;font-size:6" x="83.75128869403572" y="33.09549882328188" >8</text>
		<text style="fill:black;font-family:calibri;font-size:6" x="86.75128869403572" y="39.15767664977295" >12</text>
		<text style="fill:black;font-family:calibri;font-size:6" x="114.92820323027553" y="20.631397208144122" >72</text>

		<path opacity="0.75" fill="darkturquoise" d="M-202.80832680092612 33.43397172755071 L-197.80832680092612 37.76409874647291 L-197.80832680092612 46.42435278431729 L-202.80832680092612 42.094225765395095 L-202.80832680092612 33.43397172755071" stroke-linecap="square"/>
		<path opacity="0.75" fill="darkturquoise" d="M-211.46858083877055 35.93397172755071 L-206.46858083877055 40.26409874647291 L-206.46858083877055 48.92435278431729 L-211.46858083877055 44.594225765395095 L-211.46858083877055 35.93397172755071" stroke-linecap="square"/>
		<path opacity="0.75" fill="darkturquoise" d="M-202.80832680092612 33.43397172755071 L-211.46858083877055 35.93397172755071 L-211.46858083877055 44.594225765395095 L-202.80832680092612 42.094225765395095 L-202.80832680092612 33.43397172755071" stroke-linecap="square"/>
		<path opacity="0.75" fill="darkturquoise" d="M-197.80832680092612 37.76409874647291 L-206.46858083877055 40.26409874647291 L-206.46858083877055 48.92435278431729 L-197.80832680092612 46.42435278431729 L-197.80832680092612 37.76409874647291" stroke-linecap="square"/>
		<path opacity="0.75" fill="darkturquoise" d="M-202.80832680092612 33.43397172755071 L-197.80832680092612 37.76409874647291 L-206.46858083877055 40.26409874647291 L-211.46858083877055 35.93397172755071 L-202.80832680092612 33.43397172755071" stroke-linecap="square"/>
		<path opacity="0.75" fill="darkturquoise" d="M-202.80832680092612 42.094225765395095 L-197.80832680092612 46.42435278431729 L-206.46858083877055 48.92435278431729 L-211.46858083877055 44.594225765395095 L-202.80832680092612 42.094225765395095" stroke-linecap="square"/>
		<path opacity="0.5" fill="lavender" d="M-212.29096063693618 8.858983848622465 L-188.29096063693618 29.643593539448986 L-188.29096063693618 57.35640646055103 L-212.29096063693618 36.57179676972451 L-212.29096063693618 8.858983848622465" stroke-linecap="square"/>
		<path opacity="0.5" fill="lavender" d="M-220.9512146747806 11.358983848622465 L-196.9512146747806 32.143593539448986 L-196.9512146747806 59.85640646055103 L-220.9512146747806 39.0717967697245 L-220.9512146747806 11.358983848622465" stroke-linecap="square"/>
		<path opacity="0.5" fill="lavender" d="M-212.29096063693618 8.858983848622465 L-220.9512146747806 11.358983848622465 L-220.9512146747806 39.0717967697245 L-212.29096063693618 36.57179676972451 L-212.29096063693618 8.858983848622465" stroke-linecap="square"/>
		<path opacity="0.5" fill="lavender" d="M-188.29096063693618 29.643593539448986 L-196.9512146747806 32.143593539448986 L-196.9512146747806 59.85640646055103 L-188.29096063693618 57.35640646055103 L-188.29096063693618 29.643593539448986" stroke-linecap="square"/>
		<path opacity="0.5" fill="lavender" d="M-212.29096063693618 8.858983848622465 L-188.29096063693618 29.643593539448986 L-196.9512146747806 32.143593539448986 L-220.9512146747806 11.358983848622465 L-212.29096063693618 8.858983848622465" stroke-linecap="square"/>
		<path opacity="0.5" fill="lavender" d="M-212.29096063693618 36.57179676972451 L-188.29096063693618 57.35640646055103 L-196.9512146747806 59.85640646055103 L-220.9512146747806 39.0717967697245 L-212.29096063693618 36.57179676972451" stroke-linecap="square"/>
		<text style="fill:black;font-family:calibri;font-size:6" x="-220.9512146747806" y="25.215390309173483" >32</text>
		<text style="fill:black;font-family:calibri;font-size:6" x="-208.9512146747806" y="49.464101615137764" >48</text>
		<text style="fill:black;font-family:calibri;font-size:6" x="-216.6210876558584" y="10.108983848622465" >10</text>

		<path opacity="0.75" fill="pink" d="M40.47385005614543 42.73859412818865 L45.47385005614543 47.06872114711085 L86.99942771020383 35.07985987375288 L40.47385005614543 42.73859412818865"/>
		<path opacity="0.75" fill="pink" d="M40.47385005614543 42.73859412818865 L40.47385005614543 51.39884816603305 L86.99942771020383 35.07985987375288 L40.47385005614543 42.73859412818865"/>
		<path opacity="0.75" fill="pink" d="M45.47385005614543 47.06872114711085 L45.47385005614543 55.72897518495523 L86.99942771020383 35.07985987375288 L45.47385005614543 47.06872114711085"/>
		<path opacity="0.75" fill="pink" d="M40.47385005614543 51.39884816603305 L45.47385005614543 55.72897518495523 L86.99942771020383 35.07985987375288 L40.47385005614543 51.39884816603305"/>

		<text style="fill:black;font-family:calibri;font-size:6" x="57.649042607498224" y="34.409227000970766" >[10,10]</text>
		<path opacity="0.75" fill="darkturquoise" d="M40.47385005614543 42.73859412818865 L45.47385005614543 47.06872114711085 L45.47385005614543 55.72897518495523 L40.47385005614543 51.39884816603305 L40.47385005614543 42.73859412818865" stroke-linecap="square"/>
		<path opacity="0.75" fill="darkturquoise" d="M-14.951775786058647 58.73859412818865 L-9.951775786058647 63.06872114711085 L-9.951775786058647 71.72897518495523 L-14.951775786058647 67.39884816603305 L-14.951775786058647 58.73859412818865" stroke-linecap="square"/>
		<path opacity="0.75" fill="darkturquoise" d="M40.47385005614543 42.73859412818865 L-14.951775786058647 58.73859412818865 L-14.951775786058647 67.39884816603305 L40.47385005614543 51.39884816603305 L40.47385005614543 42.73859412818865" stroke-linecap="square"/>
		<path opacity="0.75" fill="darkturquoise" d="M45.47385005614543 47.06872114711085 L-9.951775786058647 63.06872114711085 L-9.951775786058647 71.72897518495523 L45.47385005614543 55.72897518495523 L45.47385005614543 47.06872114711085" stroke-linecap="square"/>
		<path opacity="0.75" fill="darkturquoise" d="M40.47385005614543 42.73859412818865 L45.47385005614543 47.06872114711085 L-9.951775786058647 63.06872114711085 L-14.951775786058647 58.73859412818865 L40.47385005614543 42.73859412818865" stroke-linecap="square"/>
		<path opacity="0.75" fill="darkturquoise" d="M40.47385005614543 51.39884816603305 L45.47385005614543 55.72897518495523 L-9.951775786058647 71.72897518495523 L-14.951775786058647 67.39884816603305 L40.47385005614543 51.39884816603305" stroke-linecap="square"/>
		<path opacity="0.5" fill="orange" d="M37.45001850481379 36.069219381653056 L49.45001850481379 46.46152422706632 L49.45001850481379 60.317930687617334 L37.45001850481379 49.92562584220407 L37.45001850481379 36.069219381653056" stroke-linecap="square"/>
		<path opacity="0.5" fill="orange" d="M-17.975607337390272 52.069219381653056 L-5.975607337390272 62.46152422706632 L-5.975607337390272 76.31793068761733 L-17.975607337390272 65.92562584220407 L-17.975607337390272 52.069219381653056" stroke-linecap="square"/>
		<path opacity="0.5" fill="orange" d="M37.45001850481379 36.069219381653056 L-17.975607337390272 52.069219381653056 L-17.975607337390272 65.92562584220407 L37.45001850481379 49.92562584220407 L37.45001850481379 36.069219381653056" stroke-linecap="square"/>
		<path opacity="0.5" fill="orange" d="M49.45001850481379 46.46152422706632 L-5.975607337390272 62.46152422706632 L-5.975607337390272 76.31793068761733 L49.45001850481379 60.317930687617334 L49.45001850481379 46.46152422706632" stroke-linecap="square"/>
		<path opacity="0.5" fill="orange" d="M37.45001850481379 36.069219381653056 L49.45001850481379 46.46152422706632 L-5.975607337390272 62.46152422706632 L-17.975607337390272 52.069219381653056 L37.45001850481379 36.069219381653056" stroke-linecap="square"/>
		<path opacity="0.5" fill="orange" d="M37.45001850481379 49.92562584220407 L49.45001850481379 60.317930687617334 L-5.975607337390272 76.31793068761733 L-17.975607337390272 65.92562584220407 L37.45001850481379 49.92562584220407" stroke-linecap="square"/>
		<text style="fill:black;font-family:calibri;font-size:6" x="-17.975607337390272" y="58.99742261192856" >16</text>
		<text style="fill:black;font-family:calibri;font-size:6" x="-11.975607337390272" y="71.1217782649107" >24</text>
		<text style="fill:black;font-family:calibri;font-size:6" x="9.73720558371176" y="44.069219381653056" >64</text>

		<path opacity="0.75" fill="pink" d="M-53.38344530384583 72.29525653187964 L-50.88344530384583 74.46032004134074 L-14.434416342613957 60.28048295778697 L-53.38344530384583 72.29525653187964"/>
		<path opacity="0.75" fill="pink" d="M-53.38344530384583 72.29525653187964 L-53.38344530384583 76.62538355080184 L-14.434416342613957 60.28048295778697 L-53.38344530384583 72.29525653187964"/>
		<path opacity="0.75" fill="pink" d="M-50.88344530384583 74.46032004134074 L-50.88344530384583 78.79044706026293 L-14.434416342613957 60.28048295778697 L-50.88344530384583 74.46032004134074"/>
		<path opacity="0.75" fill="pink" d="M-53.38344530384583 76.62538355080184 L-50.88344530384583 78.79044706026293 L-14.434416342613957 60.28048295778697 L-53.38344530384583 76.62538355080184"/>

		<text style="fill:black;font-family:calibri;font-size:6" x="-39.56710231676854" y="61.78786974483331" >[5,5]</text>
		<path opacity="0.75" fill="darkturquoise" d="M-53.38344530384583 72.29525653187964 L-50.88344530384583 74.46032004134074 L-50.88344530384583 78.79044706026293 L-53.38344530384583 76.62538355080184 L-53.38344530384583 72.29525653187964" stroke-linecap="square"/>
		<path opacity="0.75" fill="darkturquoise" d="M-81.09625822494786 80.29525653187964 L-78.59625822494786 82.46032004134074 L-78.59625822494786 86.79044706026293 L-81.09625822494786 84.62538355080184 L-81.09625822494786 80.29525653187964" stroke-linecap="square"/>
		<path opacity="0.75" fill="darkturquoise" d="M-53.38344530384583 72.29525653187964 L-81.09625822494786 80.29525653187964 L-81.09625822494786 84.62538355080184 L-53.38344530384583 76.62538355080184 L-53.38344530384583 72.29525653187964" stroke-linecap="square"/>
		<path opacity="0.75" fill="darkturquoise" d="M-50.88344530384583 74.46032004134074 L-78.59625822494786 82.46032004134074 L-78.59625822494786 86.79044706026293 L-50.88344530384583 78.79044706026293 L-50.88344530384583 74.46032004134074" stroke-linecap="square"/>
		<path opacity="0.75" fill="darkturquoise" d="M-53.38344530384583 72.29525653187964 L-50.88344530384583 74.46032004134074 L-78.59625822494786 82.46032004134074 L-81.09625822494786 80.29525653187964 L-53.38344530384583 72.29525653187964" stroke-linecap="square"/>
		<path opacity="0.75" fill="darkturquoise" d="M-53.38344530384583 76.62538355080184 L-50.88344530384583 78.79044706026293 L-78.59625822494786 86.79044706026293 L-81.09625822494786 84.62538355080184 L-53.38344530384583 76.62538355080184" stroke-linecap="square"/>
		<path opacity="0.5" fill="orange" d="M-67.27687752661222 52.44486372867091 L-43.27687752661221 73.22947341949742 L-43.27687752661221 100.94228634059948 L-67.27687752661222 80.15767664977295 L-67.27687752661222 52.44486372867091" stroke-linecap="square"/>
		<path opacity="0.5" fill="orange" d="M-94.98969044771425 60.44486372867091 L-70.98969044771422 81.22947341949742 L-70.98969044771422 108.94228634059948 L-94.98969044771425 88.15767664977295 L-94.98969044771425 60.44486372867091" stroke-linecap="square"/>
		<path opacity="0.5" fill="orange" d="M-67.27687752661222 52.44486372867091 L-94.98969044771425 60.44486372867091 L-94.98969044771425 88.15767664977295 L-67.27687752661222 80.15767664977295 L-67.27687752661222 52.44486372867091" stroke-linecap="square"/>
		<path opacity="0.5" fill="orange" d="M-43.27687752661221 73.22947341949742 L-70.98969044771422 81.22947341949742 L-70.98969044771422 108.94228634059948 L-43.27687752661221 100.94228634059948 L-43.27687752661221 73.22947341949742" stroke-linecap="square"/>
		<path opacity="0.5" fill="orange" d="M-67.27687752661222 52.44486372867091 L-43.27687752661221 73.22947341949742 L-70.98969044771422 81.22947341949742 L-94.98969044771425 60.44486372867091 L-67.27687752661222 52.44486372867091" stroke-linecap="square"/>
		<path opacity="0.5" fill="orange" d="M-67.27687752661222 80.15767664977295 L-43.27687752661221 100.94228634059948 L-70.98969044771422 108.94228634059948 L-94.98969044771425 88.15767664977295 L-67.27687752661222 80.15767664977295" stroke-linecap="square"/>
		<text style="fill:black;font-family:calibri;font-size:6" x="-94.98969044771425" y="74.30127018922192" >32</text>
		<text style="fill:black;font-family:calibri;font-size:6" x="-82.98969044771424" y="98.54998149518622" >48</text>
		<text style="fill:black;font-family:calibri;font-size:6" x="-81.13328398716324" y="56.44486372867091" >32</text>

		<path opacity="0.75" fill="pink" d="M-130.2012117764846 96.90948731230041 L-125.2012117764846 101.23961433122261 L-90.13071746363323 78.09096654271872 L-130.2012117764846 96.90948731230041"/>
		<path opacity="0.75" fill="pink" d="M-130.2012117764846 96.90948731230041 L-130.2012117764846 105.5697413501448 L-90.13071746363323 78.09096654271872 L-130.2012117764846 96.90948731230041"/>
		<path opacity="0.75" fill="pink" d="M-125.2012117764846 101.23961433122261 L-125.2012117764846 109.89986836906701 L-90.13071746363323 78.09096654271872 L-125.2012117764846 101.23961433122261"/>
		<path opacity="0.75" fill="pink" d="M-130.2012117764846 105.5697413501448 L-125.2012117764846 109.89986836906701 L-90.13071746363323 78.09096654271872 L-130.2012117764846 105.5697413501448"/>

		<text style="fill:black;font-family:calibri;font-size:6" x="-115.17771367220081" y="83.00022692750957" >[10,10]</text>
		<path opacity="0.75" fill="darkturquoise" d="M-130.2012117764846 96.90948731230041 L-125.2012117764846 101.23961433122261 L-125.2012117764846 109.89986836906701 L-130.2012117764846 105.5697413501448 L-130.2012117764846 96.90948731230041" stroke-linecap="square"/>
		<path opacity="0.75" fill="darkturquoise" d="M-138.861465814329 99.40948731230041 L-133.861465814329 103.73961433122261 L-133.861465814329 112.39986836906701 L-138.861465814329 108.0697413501448 L-138.861465814329 99.40948731230041" stroke-linecap="square"/>
		<path opacity="0.75" fill="darkturquoise" d="M-130.2012117764846 96.90948731230041 L-138.861465814329 99.40948731230041 L-138.861465814329 108.0697413501448 L-130.2012117764846 105.5697413501448 L-130.2012117764846 96.90948731230041" stroke-linecap="square"/>
		<path opacity="0.75" fill="darkturquoise" d="M-125.2012117764846 101.23961433122261 L-133.861465814329 103.73961433122261 L-133.861465814329 112.39986836906701 L-125.2012117764846 109.89986836906701 L-125.2012117764846 101.23961433122261" stroke-linecap="square"/>
		<path opacity="0.75" fill="darkturquoise" d="M-130.2012117764846 96.90948731230041 L-125.2012117764846 101.23961433122261 L-133.861465814329 103.73961433122261 L-138.861465814329 99.40948731230041 L-130.2012117764846 96.90948731230041" stroke-linecap="square"/>
		<path opacity="0.75" fill="darkturquoise" d="M-130.2012117764846 105.5697413501448 L-125.2012117764846 109.89986836906701 L-133.861465814329 112.39986836906701 L-138.861465814329 108.0697413501448 L-130.2012117764846 105.5697413501448" stroke-linecap="square"/>
		<path opacity="0.5" fill="lavender" d="M-138.29096063693618 72.94486372867091 L-114.29096063693618 93.72947341949742 L-114.29096063693618 121.44228634059948 L-138.29096063693618 100.65767664977295 L-138.29096063693618 72.94486372867091" stroke-linecap="square"/>
		<path opacity="0.5" fill="lavender" d="M-146.95121467478057 75.44486372867091 L-122.95121467478054 96.22947341949742 L-122.95121467478054 123.94228634059948 L-146.95121467478057 103.15767664977295 L-146.95121467478057 75.44486372867091" stroke-linecap="square"/>
		<path opacity="0.5" fill="lavender" d="M-138.29096063693618 72.94486372867091 L-146.95121467478057 75.44486372867091 L-146.95121467478057 103.15767664977295 L-138.29096063693618 100.65767664977295 L-138.29096063693618 72.94486372867091" stroke-linecap="square"/>
		<path opacity="0.5" fill="lavender" d="M-114.29096063693618 93.72947341949742 L-122.95121467478054 96.22947341949742 L-122.95121467478054 123.94228634059948 L-114.29096063693618 121.44228634059948 L-114.29096063693618 93.72947341949742" stroke-linecap="square"/>
		<path opacity="0.5" fill="lavender" d="M-138.29096063693618 72.94486372867091 L-114.29096063693618 93.72947341949742 L-122.95121467478054 96.22947341949742 L-146.95121467478057 75.44486372867091 L-138.29096063693618 72.94486372867091" stroke-linecap="square"/>
		<path opacity="0.5" fill="lavender" d="M-138.29096063693618 100.65767664977295 L-114.29096063693618 121.44228634059948 L-122.95121467478054 123.94228634059948 L-146.95121467478057 103.15767664977295 L-138.29096063693618 100.65767664977295" stroke-linecap="square"/>
		<text style="fill:black;font-family:calibri;font-size:6" x="-146.95121467478057" y="89.30127018922192" >32</text>
		<text style="fill:black;font-family:calibri;font-size:6" x="-134.95121467478054" y="113.54998149518622" >48</text>
		<text style="fill:black;font-family:calibri;font-size:6" x="-142.6210876558584" y="74.19486372867091" >10</text>

	 </g>
</svg>