<svg width="100%" height="100%" viewBox="-300.352447854375 -239.06904672938998 1021.95489570875 493.31964481437336" xmlns="http://www.w3.org/2000/svg">
	<g stroke="black" stroke-width="0.3">

		<path opacity="0.5" fill="orange" d="M476.96787517317597 -139.30607966083863 L488.96787517317597 -128.91377481542537 L488.96787517317597 -108.12916512459884 L476.96787517317597 -118.5214699700121 L476.96787517317597 -139.30607966083863" stroke-linecap="square"/>
		<path opacity="0.5" fill="orange" d="M421.54224933097186 -123.30607966083863 L433.5422493309719 -112.91377481542537 L433.5422493309719 -92.12916512459884 L421.54224933097186 -102.5214699700121 L421.54224933097186 -123.30607966083863" stroke-linecap="square"/>
		<path opacity="0.5" fill="orange" d="M476.96787517317597 -139.30607966083863 L421.54224933097186 -123.30607966083863 L421.54224933097186 -102.5214699700121 L476.96787517317597 -118.5214699700121 L476.96787517317597 -139.30607966083863" stroke-linecap="square"/>
		<path opacity="0.5" fill="orange" d="M488.96787517317597 -128.91377481542537 L433.5422493309719 -112.91377481542537 L433.5422493309719 -92.12916512459884 L488.96787517317597 -108.12916512459884 L488.96787517317597 -128.91377481542537" stroke-linecap="square"/>
		<path opacity="0.5" fill="orange" d="M476.96787517317597 -139.30607966083863 L488.96787517317597 -128.91377481542537 L433.5422493309719 -112.91377481542537 L421.54224933097186 -123.30607966083863 L476.96787517317597 -139.30607966083863" stroke-linecap="square"/>
		<path opacity="0.5" fill="orange" d="M476.96787517317597 -118.5214699700121 L488.96787517317597 -108.12916512459884 L433.5422493309719 -92.12916512459884 L421.54224933097186 -102.5214699700121 L476.96787517317597 -118.5214699700121" stroke-linecap="square"/>
		<text style="fill:black;font-family:calibri;font-size:6" x="421.54224933097186" y="-112.91377481542537" >24</text>
		<text style="fill:black;font-family:calibri;font-size:6" x="427.5422493309719" y="-97.32531754730547" >24</text>
		<text style="fill:black;font-family:calibri;font-size:6" x="449.2550622520739" y="-131.30607966083863" >64</text>

<!-- Arrow -->
		<path opacity="0.5" stroke="black" d="M482.96787517317597 -123.71762239271874 L600.5191453623979 -71.91523616172418" stroke-linecap="square"/>
		<circle opacity="0.5" cx="600.5191453623979" cy="-71.91523616172418" r="1" fill="black" />
		<path opacity="0.75" fill="darkturquoise" d="M710.602447854375 -193.18284004962914 L715.602447854375 -188.85271303070695 L715.602447854375 -15.647632273819227 L710.602447854375 -19.97775929274141 L710.602447854375 -193.18284004962914" stroke-linecap="square"/>
		<path opacity="0.75" fill="darkturquoise" d="M701.9421938165306 -190.68284004962914 L706.9421938165306 -186.35271303070695 L706.9421938165306 -13.147632273819227 L701.9421938165306 -17.47775929274141 L701.9421938165306 -190.68284004962914" stroke-linecap="square"/>
		<path opacity="0.75" fill="darkturquoise" d="M710.602447854375 -193.18284004962914 L701.9421938165306 -190.68284004962914 L701.9421938165306 -17.47775929274141 L710.602447854375 -19.97775929274141 L710.602447854375 -193.18284004962914" stroke-linecap="square"/>
		<path opacity="0.75" fill="darkturquoise" d="M715.602447854375 -188.85271303070695 L706.9421938165306 -186.35271303070695 L706.9421938165306 -13.147632273819227 L715.602447854375 -15.647632273819227 L715.602447854375 -188.85271303070695" stroke-linecap="square"/>
		<path opacity="0.75" fill="darkturquoise" d="M710.602447854375 -193.18284004962914 L715.602447854375 -188.85271303070695 L706.9421938165306 -186.35271303070695 L701.9421938165306 -190.68284004962914 L710.602447854375 -193.18284004962914" stroke-linecap="square"/>
		<path opacity="0.75" fill="darkturquoise" d="M710.602447854375 -19.97775929274141 L715.602447854375 -15.647632273819227 L706.9421938165306 -13.147632273819227 L701.9421938165306 -17.47775929274141 L710.602447854375 -19.97775929274141" stroke-linecap="square"/>
		<text style="fill:black;font-family:calibri;font-size:6" x="701.9421938165306" y="-104.08029967118527" >200</text>
		<text style="fill:black;font-family:calibri;font-size:6" x="704.4421938165306" y="-15.312695783280319" >10</text>
		<text style="fill:black;font-family:calibri;font-size:6" x="706.2723208354528" y="-191.93284004962914" >10</text>

<!-- Arrow -->
		<path opacity="0.5" stroke="black" d="M661.1409236273087 -89.41523616172418 L704.4421938165306 -101.91523616172418" stroke-linecap="square"/>
		<circle opacity="0.5" cx="704.4421938165306" cy="-101.91523616172418" r="1" fill="black" />
		<path opacity="0.75" fill="pink" d="M385.99224725341173 -100.4822281079003 L388.49224725341173 -98.31716459843919 L431.1299577394271 -112.66790678922641 L385.99224725341173 -100.4822281079003"/>
		<path opacity="0.75" fill="pink" d="M385.99224725341173 -100.4822281079003 L385.99224725341173 -96.1521010889781 L431.1299577394271 -112.66790678922641 L385.99224725341173 -100.4822281079003"/>
		<path opacity="0.75" fill="pink" d="M388.49224725341173 -98.31716459843919 L388.49224725341173 -93.987037579517 L431.1299577394271 -112.66790678922641 L388.49224725341173 -98.31716459843919"/>
		<path opacity="0.75" fill="pink" d="M385.99224725341173 -96.1521010889781 L388.49224725341173 -93.987037579517 L431.1299577394271 -112.66790678922641 L385.99224725341173 -96.1521010889781"/>

		<text style="fill:black;font-family:calibri;font-size:6" x="401.8714840820835" y="-111.07506744856335" >[5,5]</text>
		<path opacity="0.5" fill="orange" d="M176.58845726811987 -103.9781847254617 L184.5884572681199 -97.04998149518619 L184.5884572681199 -83.19357503463517 L176.58845726811987 -90.12177826491069 L176.58845726811987 -103.9781847254617" stroke-linecap="square"/>
		<path opacity="0.5" fill="orange" d="M121.16283142591578 -87.9781847254617 L129.1628314259158 -81.04998149518619 L129.1628314259158 -67.19357503463517 L121.16283142591578 -74.12177826491069 L121.16283142591578 -87.9781847254617" stroke-linecap="square"/>
		<path opacity="0.5" fill="orange" d="M176.58845726811987 -103.9781847254617 L121.16283142591578 -87.9781847254617 L121.16283142591578 -74.12177826491069 L176.58845726811987 -90.12177826491069 L176.58845726811987 -103.9781847254617" stroke-linecap="square"/>
		<path opacity="0.5" fill="orange" d="M184.5884572681199 -97.04998149518619 L129.1628314259158 -81.04998149518619 L129.1628314259158 -67.19357503463517 L184.5884572681199 -83.19357503463517 L184.5884572681199 -97.04998149518619" stroke-linecap="square"/>
		<path opacity="0.5" fill="orange" d="M176.58845726811987 -103.9781847254617 L184.5884572681199 -97.04998149518619 L129.1628314259158 -81.04998149518619 L121.16283142591578 -87.9781847254617 L176.58845726811987 -103.9781847254617" stroke-linecap="square"/>
		<path opacity="0.5" fill="orange" d="M176.58845726811987 -90.12177826491069 L184.5884572681199 -83.19357503463517 L129.1628314259158 -67.19357503463517 L121.16283142591578 -74.12177826491069 L176.58845726811987 -90.12177826491069" stroke-linecap="square"/>
		<text style="fill:black;font-family:calibri;font-size:6" x="121.16283142591578" y="-81.04998149518619" >16</text>
		<text style="fill:black;font-family:calibri;font-size:6" x="125.1628314259158" y="-70.65767664977292" >16</text>
		<text style="fill:black;font-family:calibri;font-size:6" x="148.87564434701784" y="-95.9781847254617" >64</text>

<!-- Arrow -->
		<path opacity="0.5" stroke="black" d="M609.1793994002423 -74.41523616172418 L652.4806695894642 -86.91523616172418" stroke-linecap="square"/>
		<circle opacity="0.5" cx="652.4806695894642" cy="-86.91523616172418" r="1" fill="black" />
		<path opacity="0.75" fill="darkturquoise" d="M658.6409236273087 -178.18284004962914 L663.6409236273087 -173.85271303070695 L663.6409236273087 -0.6476322738192266 L658.6409236273087 -4.9777592927414105 L658.6409236273087 -178.18284004962914" stroke-linecap="square"/>
		<path opacity="0.75" fill="darkturquoise" d="M649.9806695894642 -175.68284004962914 L654.9806695894642 -171.35271303070695 L654.9806695894642 1.8523677261807734 L649.9806695894642 -2.4777592927414105 L649.9806695894642 -175.68284004962914" stroke-linecap="square"/>
		<path opacity="0.75" fill="darkturquoise" d="M658.6409236273087 -178.18284004962914 L649.9806695894642 -175.68284004962914 L649.9806695894642 -2.4777592927414105 L658.6409236273087 -4.9777592927414105 L658.6409236273087 -178.18284004962914" stroke-linecap="square"/>
		<path opacity="0.75" fill="darkturquoise" d="M663.6409236273087 -173.85271303070695 L654.9806695894642 -171.35271303070695 L654.9806695894642 1.8523677261807734 L663.6409236273087 -0.6476322738192266 L663.6409236273087 -173.85271303070695" stroke-linecap="square"/>
		<path opacity="0.75" fill="darkturquoise" d="M658.6409236273087 -178.18284004962914 L663.6409236273087 -173.85271303070695 L654.9806695894642 -171.35271303070695 L649.9806695894642 -175.68284004962914 L658.6409236273087 -178.18284004962914" stroke-linecap="square"/>
		<path opacity="0.75" fill="darkturquoise" d="M658.6409236273087 -4.9777592927414105 L663.6409236273087 -0.6476322738192266 L654.9806695894642 1.8523677261807734 L649.9806695894642 -2.4777592927414105 L658.6409236273087 -4.9777592927414105" stroke-linecap="square"/>
		<text style="fill:black;font-family:calibri;font-size:6" x="649.9806695894642" y="-89.08029967118527" >200</text>
		<text style="fill:black;font-family:calibri;font-size:6" x="652.4806695894642" y="-0.31269578328031855" >10</text>
		<text style="fill:black;font-family:calibri;font-size:6" x="654.3107966083865" y="-176.93284004962914" >10</text>

<!-- Arrow -->
		<path opacity="0.5" stroke="black" d="M180.5884572681199 -93.58587988004844 L273.3897274573418 -63.21762239271874" stroke-linecap="square"/>
		<circle opacity="0.5" cx="273.3897274573418" cy="-63.21762239271874" r="1" fill="black" />
		<path opacity="0.75" fill="darkturquoise" d="M385.99224725341173 -100.4822281079003 L388.49224725341173 -98.31716459843919 L388.49224725341173 -93.987037579517 L385.99224725341173 -96.1521010889781 L385.99224725341173 -100.4822281079003" stroke-linecap="square"/>
		<path opacity="0.75" fill="darkturquoise" d="M275.1409955690036 -68.4822281079003 L277.6409955690036 -66.31716459843919 L277.6409955690036 -61.987037579517 L275.1409955690036 -64.1521010889781 L275.1409955690036 -68.4822281079003" stroke-linecap="square"/>
		<path opacity="0.75" fill="darkturquoise" d="M385.99224725341173 -100.4822281079003 L275.1409955690036 -68.4822281079003 L275.1409955690036 -64.1521010889781 L385.99224725341173 -96.1521010889781 L385.99224725341173 -100.4822281079003" stroke-linecap="square"/>
		<path opacity="0.75" fill="darkturquoise" d="M388.49224725341173 -98.31716459843919 L277.6409955690036 -66.31716459843919 L277.6409955690036 -61.987037579517 L388.49224725341173 -93.987037579517 L388.49224725341173 -98.31716459843919" stroke-linecap="square"/>
		<path opacity="0.75" fill="darkturquoise" d="M385.99224725341173 -100.4822281079003 L388.49224725341173 -98.31716459843919 L277.6409955690036 -66.31716459843919 L275.1409955690036 -68.4822281079003 L385.99224725341173 -100.4822281079003" stroke-linecap="square"/>
		<path opacity="0.75" fill="darkturquoise" d="M385.99224725341173 -96.1521010889781 L388.49224725341173 -93.987037579517 L277.6409955690036 -61.987037579517 L275.1409955690036 -64.1521010889781 L385.99224725341173 -96.1521010889781" stroke-linecap="square"/>
		<path opacity="0.5" fill="orange" d="M378.24097914174996 -110.80607966083863 L390.24097914174996 -100.41377481542537 L390.24097914174996 -79.62916512459884 L378.24097914174996 -90.0214699700121 L378.24097914174996 -110.80607966083863" stroke-linecap="square"/>
		<path opacity="0.5" fill="orange" d="M267.3897274573418 -78.80607966083863 L279.3897274573418 -68.41377481542537 L279.3897274573418 -47.62916512459884 L267.3897274573418 -58.021469970012106 L267.3897274573418 -78.80607966083863" stroke-linecap="square"/>
		<path opacity="0.5" fill="orange" d="M378.24097914174996 -110.80607966083863 L267.3897274573418 -78.80607966083863 L267.3897274573418 -58.021469970012106 L378.24097914174996 -90.0214699700121 L378.24097914174996 -110.80607966083863" stroke-linecap="square"/>
		<path opacity="0.5" fill="orange" d="M390.24097914174996 -100.41377481542537 L279.3897274573418 -68.41377481542537 L279.3897274573418 -47.62916512459884 L390.24097914174996 -79.62916512459884 L390.24097914174996 -100.41377481542537" stroke-linecap="square"/>
		<path opacity="0.5" fill="orange" d="M378.24097914174996 -110.80607966083863 L390.24097914174996 -100.41377481542537 L279.3897274573418 -68.41377481542537 L267.3897274573418 -78.80607966083863 L378.24097914174996 -110.80607966083863" stroke-linecap="square"/>
		<path opacity="0.5" fill="orange" d="M378.24097914174996 -90.0214699700121 L390.24097914174996 -79.62916512459884 L279.3897274573418 -47.62916512459884 L267.3897274573418 -58.021469970012106 L378.24097914174996 -90.0214699700121" stroke-linecap="square"/>
		<text style="fill:black;font-family:calibri;font-size:6" x="267.3897274573418" y="-68.41377481542537" >24</text>
		<text style="fill:black;font-family:calibri;font-size:6" x="273.3897274573418" y="-52.825317547305474" >24</text>
		<text style="fill:black;font-family:calibri;font-size:6" x="322.8153532995459" y="-94.80607966083863" >128</text>

		<path opacity="0.75" fill="pink" d="M74.46644904273617 -81.53386541560153 L76.96644904273617 -79.36880190614042 L123.80847673713484 -83.75359212641658 L74.46644904273617 -81.53386541560153"/>
		<path opacity="0.75" fill="pink" d="M74.46644904273617 -81.53386541560153 L74.46644904273617 -77.20373839667933 L123.80847673713484 -83.75359212641658 L74.46644904273617 -81.53386541560153"/>
		<path opacity="0.75" fill="pink" d="M76.96644904273617 -79.36880190614042 L76.96644904273617 -75.03867488721822 L123.80847673713484 -83.75359212641658 L76.96644904273617 -79.36880190614042"/>
		<path opacity="0.75" fill="pink" d="M74.46644904273617 -77.20373839667933 L76.96644904273617 -75.03867488721822 L123.80847673713484 -83.75359212641658 L74.46644904273617 -77.20373839667933"/>

		<text style="fill:black;font-family:calibri;font-size:6" x="91.74712494086907" y="-87.14372877100905" >[5,5]</text>
<!-- Arrow -->
		<path opacity="0.5" stroke="black" d="M328.8153532995459 -89.609927238132 L328.8153532995459 -132.91119742735395" stroke-linecap="square"/>
		<circle opacity="0.5" cx="328.8153532995459" cy="-132.91119742735395" r="1" fill="black" />
		<path opacity="0.75" fill="darkturquoise" d="M606.6793994002423 -163.18284004962914 L611.6793994002423 -158.85271303070695 L611.6793994002423 14.352367726180773 L606.6793994002423 10.02224070725859 L606.6793994002423 -163.18284004962914" stroke-linecap="square"/>
		<path opacity="0.75" fill="darkturquoise" d="M598.0191453623979 -160.68284004962914 L603.0191453623979 -156.35271303070695 L603.0191453623979 16.852367726180773 L598.0191453623979 12.52224070725859 L598.0191453623979 -160.68284004962914" stroke-linecap="square"/>
		<path opacity="0.75" fill="darkturquoise" d="M606.6793994002423 -163.18284004962914 L598.0191453623979 -160.68284004962914 L598.0191453623979 12.52224070725859 L606.6793994002423 10.02224070725859 L606.6793994002423 -163.18284004962914" stroke-linecap="square"/>
		<path opacity="0.75" fill="darkturquoise" d="M611.6793994002423 -158.85271303070695 L603.0191453623979 -156.35271303070695 L603.0191453623979 16.852367726180773 L611.6793994002423 14.352367726180773 L611.6793994002423 -158.85271303070695" stroke-linecap="square"/>
		<path opacity="0.75" fill="darkturquoise" d="M606.6793994002423 -163.18284004962914 L611.6793994002423 -158.85271303070695 L603.0191453623979 -156.35271303070695 L598.0191453623979 -160.68284004962914 L606.6793994002423 -163.18284004962914" stroke-linecap="square"/>
		<path opacity="0.75" fill="darkturquoise" d="M606.6793994002423 10.02224070725859 L611.6793994002423 14.352367726180773 L603.0191453623979 16.852367726180773 L598.0191453623979 12.52224070725859 L606.6793994002423 10.02224070725859" stroke-linecap="square"/>
		<text style="fill:black;font-family:calibri;font-size:6" x="598.0191453623979" y="-74.08029967118527" >200</text>
		<text style="fill:black;font-family:calibri;font-size:6" x="600.5191453623979" y="14.687304216719681" >10</text>
		<text style="fill:black;font-family:calibri;font-size:6" x="602.3492723813201" y="-161.93284004962914" >10</text>

		<path opacity="0.75" fill="darkturquoise" d="M74.46644904273617 -81.53386541560153 L76.96644904273617 -79.36880190614042 L76.96644904273617 -75.03867488721822 L74.46644904273617 -77.20373839667933 L74.46644904273617 -81.53386541560153" stroke-linecap="square"/>
		<path opacity="0.75" fill="darkturquoise" d="M-36.38480264167197 -49.533865415601525 L-33.88480264167197 -47.36880190614042 L-33.88480264167197 -43.03867488721822 L-36.38480264167197 -45.20373839667933 L-36.38480264167197 -49.533865415601525" stroke-linecap="square"/>
		<path opacity="0.75" fill="darkturquoise" d="M74.46644904273617 -81.53386541560153 L-36.38480264167197 -49.533865415601525 L-36.38480264167197 -45.20373839667933 L74.46644904273617 -77.20373839667933 L74.46644904273617 -81.53386541560153" stroke-linecap="square"/>
		<path opacity="0.75" fill="darkturquoise" d="M76.96644904273617 -79.36880190614042 L-33.88480264167197 -47.36880190614042 L-33.88480264167197 -43.03867488721822 L76.96644904273617 -75.03867488721822 L76.96644904273617 -79.36880190614042" stroke-linecap="square"/>
		<path opacity="0.75" fill="darkturquoise" d="M74.46644904273617 -81.53386541560153 L76.96644904273617 -79.36880190614042 L-33.88480264167197 -47.36880190614042 L-36.38480264167197 -49.533865415601525 L74.46644904273617 -81.53386541560153" stroke-linecap="square"/>
		<path opacity="0.75" fill="darkturquoise" d="M74.46644904273617 -77.20373839667933 L76.96644904273617 -75.03867488721822 L-33.88480264167197 -43.03867488721822 L-36.38480264167197 -45.20373839667933 L74.46644904273617 -77.20373839667933" stroke-linecap="square"/>
		<path opacity="0.5" fill="orange" d="M73.86156123669386 -85.87048957087497 L89.86156123669389 -72.01408311032395 L89.86156123669389 -44.30127018922191 L73.86156123669386 -58.157676649772924 L73.86156123669386 -85.87048957087497" stroke-linecap="square"/>
		<path opacity="0.5" fill="orange" d="M-36.98969044771428 -53.870489570874966 L-20.98969044771428 -40.01408311032395 L-20.98969044771428 -12.30127018922191 L-36.98969044771428 -26.157676649772924 L-36.98969044771428 -53.870489570874966" stroke-linecap="square"/>
		<path opacity="0.5" fill="orange" d="M73.86156123669386 -85.87048957087497 L-36.98969044771428 -53.870489570874966 L-36.98969044771428 -26.157676649772924 L73.86156123669386 -58.157676649772924 L73.86156123669386 -85.87048957087497" stroke-linecap="square"/>
		<path opacity="0.5" fill="orange" d="M89.86156123669389 -72.01408311032395 L-20.98969044771428 -40.01408311032395 L-20.98969044771428 -12.30127018922191 L89.86156123669389 -44.30127018922191 L89.86156123669389 -72.01408311032395" stroke-linecap="square"/>
		<path opacity="0.5" fill="orange" d="M73.86156123669386 -85.87048957087497 L89.86156123669389 -72.01408311032395 L-20.98969044771428 -40.01408311032395 L-36.98969044771428 -53.870489570874966 L73.86156123669386 -85.87048957087497" stroke-linecap="square"/>
		<path opacity="0.5" fill="orange" d="M73.86156123669386 -58.157676649772924 L89.86156123669389 -44.30127018922191 L-20.98969044771428 -12.30127018922191 L-36.98969044771428 -26.157676649772924 L73.86156123669386 -58.157676649772924" stroke-linecap="square"/>
		<text style="fill:black;font-family:calibri;font-size:6" x="-36.98969044771428" y="-40.014083110323945" >32</text>
		<text style="fill:black;font-family:calibri;font-size:6" x="-28.98969044771428" y="-19.229473419497417" >32</text>
		<text style="fill:black;font-family:calibri;font-size:6" x="18.43593539448979" y="-69.87048957087497" >128</text>

<!-- Arrow -->
		<path opacity="0.5" stroke="black" d="M26.435935394489803 -106.2435565298214 L328.8153532995459 -132.91119742735395" stroke-linecap="square"/>
		<circle opacity="0.5" cx="328.8153532995459" cy="-132.91119742735395" r="1" fill="black" />
<!-- Arrow -->
		<path opacity="0.5" stroke="black" d="M-105.29096063693623 -49.164718204934914 L-28.98969044771428 -33.08587988004844" stroke-linecap="square"/>
		<circle opacity="0.5" cx="-28.98969044771428" cy="-33.08587988004844" r="1" fill="black" />
		<path opacity="0.5" fill="orange" d="M-109.29096063693623 -59.55702305034818 L-101.29096063693623 -52.628819820072664 L-101.29096063693623 -38.77241335952165 L-109.29096063693623 -45.700616589797164 L-109.29096063693623 -59.55702305034818" stroke-linecap="square"/>
		<path opacity="0.5" fill="orange" d="M-164.71658647914023 -43.55702305034818 L-156.71658647914023 -36.628819820072664 L-156.71658647914023 -22.77241335952165 L-164.71658647914023 -29.700616589797164 L-164.71658647914023 -43.55702305034818" stroke-linecap="square"/>
		<path opacity="0.5" fill="orange" d="M-109.29096063693623 -59.55702305034818 L-164.71658647914023 -43.55702305034818 L-164.71658647914023 -29.700616589797164 L-109.29096063693623 -45.700616589797164 L-109.29096063693623 -59.55702305034818" stroke-linecap="square"/>
		<path opacity="0.5" fill="orange" d="M-101.29096063693623 -52.628819820072664 L-156.71658647914023 -36.628819820072664 L-156.71658647914023 -22.77241335952165 L-101.29096063693623 -38.77241335952165 L-101.29096063693623 -52.628819820072664" stroke-linecap="square"/>
		<path opacity="0.5" fill="orange" d="M-109.29096063693623 -59.55702305034818 L-101.29096063693623 -52.628819820072664 L-156.71658647914023 -36.628819820072664 L-164.71658647914023 -43.55702305034818 L-109.29096063693623 -59.55702305034818" stroke-linecap="square"/>
		<path opacity="0.5" fill="orange" d="M-109.29096063693623 -45.700616589797164 L-101.29096063693623 -38.77241335952165 L-156.71658647914023 -22.77241335952165 L-164.71658647914023 -29.700616589797164 L-109.29096063693623 -45.700616589797164" stroke-linecap="square"/>
		<text style="fill:black;font-family:calibri;font-size:6" x="-164.71658647914023" y="-36.62881982007267" >16</text>
		<text style="fill:black;font-family:calibri;font-size:6" x="-160.71658647914023" y="-26.236514974659407" >16</text>
		<text style="fill:black;font-family:calibri;font-size:6" x="-137.00377355803823" y="-51.55702305034818" >64</text>

<!-- Arrow -->
		<path opacity="0.5" stroke="black" d="M26.435935394489803 -62.942286340599466 L26.435935394489803 -106.2435565298214" stroke-linecap="square"/>
		<circle opacity="0.5" cx="26.435935394489803" cy="-106.2435565298214" r="1" fill="black" />
		<path opacity="0.75" fill="pink" d="M-204.82931284837548 -21.800884465909988 L-202.32931284837548 -19.635820956448896 L-158.27611571414303 -31.020972335367844 L-204.82931284837548 -21.800884465909988"/>
		<path opacity="0.75" fill="pink" d="M-204.82931284837548 -21.800884465909988 L-204.82931284837548 -17.47075744698779 L-158.27611571414303 -31.020972335367844 L-204.82931284837548 -21.800884465909988"/>
		<path opacity="0.75" fill="pink" d="M-202.32931284837548 -19.635820956448896 L-202.32931284837548 -15.305693937526712 L-158.27611571414303 -31.020972335367844 L-202.32931284837548 -19.635820956448896"/>
		<path opacity="0.75" fill="pink" d="M-204.82931284837548 -17.47075744698779 L-202.32931284837548 -15.305693937526712 L-158.27611571414303 -31.020972335367844 L-204.82931284837548 -17.47075744698779"/>

		<text style="fill:black;font-family:calibri;font-size:6" x="-188.47824713696468" y="-30.910928400638916" >[5,5]</text>
		<path opacity="0.75" fill="darkturquoise" d="M-204.82931284837548 -21.800884465909988 L-202.32931284837548 -19.635820956448896 L-202.32931284837548 -15.305693937526712 L-204.82931284837548 -17.47075744698779 L-204.82931284837548 -21.800884465909988" stroke-linecap="square"/>
		<path opacity="0.75" fill="darkturquoise" d="M-232.54212576947748 -13.800884465909988 L-230.04212576947748 -11.635820956448896 L-230.04212576947748 -7.305693937526712 L-232.54212576947748 -9.47075744698779 L-232.54212576947748 -13.800884465909988" stroke-linecap="square"/>
		<path opacity="0.75" fill="darkturquoise" d="M-204.82931284837548 -21.800884465909988 L-232.54212576947748 -13.800884465909988 L-232.54212576947748 -9.47075744698779 L-204.82931284837548 -17.47075744698779 L-204.82931284837548 -21.800884465909988" stroke-linecap="square"/>
		<path opacity="0.75" fill="darkturquoise" d="M-202.32931284837548 -19.635820956448896 L-230.04212576947748 -11.635820956448896 L-230.04212576947748 -7.305693937526712 L-202.32931284837548 -15.305693937526712 L-202.32931284837548 -19.635820956448896" stroke-linecap="square"/>
		<path opacity="0.75" fill="darkturquoise" d="M-204.82931284837548 -21.800884465909988 L-202.32931284837548 -19.635820956448896 L-230.04212576947748 -11.635820956448896 L-232.54212576947748 -13.800884465909988 L-204.82931284837548 -21.800884465909988" stroke-linecap="square"/>
		<path opacity="0.75" fill="darkturquoise" d="M-204.82931284837548 -17.47075744698779 L-202.32931284837548 -15.305693937526712 L-230.04212576947748 -7.305693937526712 L-232.54212576947748 -9.47075744698779 L-204.82931284837548 -17.47075744698779" stroke-linecap="square"/>
		<path opacity="0.5" fill="orange" d="M-212.01785666836224 -41.44932789576144 L-196.01785666836224 -27.592921435210428 L-196.01785666836224 0.11989148589161402 L-212.01785666836224 -13.7365149746594 L-212.01785666836224 -41.44932789576144" stroke-linecap="square"/>
		<path opacity="0.5" fill="orange" d="M-239.73066958946424 -33.44932789576144 L-223.73066958946424 -19.592921435210428 L-223.73066958946424 8.119891485891614 L-239.73066958946424 -5.7365149746594 L-239.73066958946424 -33.44932789576144" stroke-linecap="square"/>
		<path opacity="0.5" fill="orange" d="M-212.01785666836224 -41.44932789576144 L-239.73066958946424 -33.44932789576144 L-239.73066958946424 -5.7365149746594 L-212.01785666836224 -13.7365149746594 L-212.01785666836224 -41.44932789576144" stroke-linecap="square"/>
		<path opacity="0.5" fill="orange" d="M-196.01785666836224 -27.592921435210428 L-223.73066958946424 -19.592921435210428 L-223.73066958946424 8.119891485891614 L-196.01785666836224 0.11989148589161402 L-196.01785666836224 -27.592921435210428" stroke-linecap="square"/>
		<path opacity="0.5" fill="orange" d="M-212.01785666836224 -41.44932789576144 L-196.01785666836224 -27.592921435210428 L-223.73066958946424 -19.592921435210428 L-239.73066958946424 -33.44932789576144 L-212.01785666836224 -41.44932789576144" stroke-linecap="square"/>
		<path opacity="0.5" fill="orange" d="M-212.01785666836224 -13.7365149746594 L-196.01785666836224 0.11989148589161402 L-223.73066958946424 8.119891485891614 L-239.73066958946424 -5.7365149746594 L-212.01785666836224 -13.7365149746594" stroke-linecap="square"/>
		<text style="fill:black;font-family:calibri;font-size:6" x="-239.73066958946424" y="-19.59292143521042" >32</text>
		<text style="fill:black;font-family:calibri;font-size:6" x="-231.73066958946424" y="1.191688255616107" >32</text>
		<text style="fill:black;font-family:calibri;font-size:6" x="-225.87426312891324" y="-37.44932789576144" >32</text>

<!-- Arrow -->
		<path opacity="0.5" stroke="black" d="M125.43593539448983 36.65063509461097 L273.3897274573418 -63.21762239271874" stroke-linecap="square"/>
		<circle opacity="0.5" cx="273.3897274573418" cy="-63.21762239271874" r="1" fill="black" />
<!-- Arrow -->
		<path opacity="0.5" stroke="black" d="M-39.29096063693618 7.992958444838026 L-28.98969044771428 -33.08587988004844" stroke-linecap="square"/>
		<circle opacity="0.5" cx="-28.98969044771428" cy="-33.08587988004844" r="1" fill="black" />
<!-- Arrow -->
		<path opacity="0.5" stroke="black" d="M477.3153532995459 49.387150069270376 L600.5191453623979 -71.91523616172418" stroke-linecap="square"/>
		<circle opacity="0.5" cx="600.5191453623979" cy="-71.91523616172418" r="1" fill="black" />
		<path opacity="0.75" fill="pink" d="M-278.4659224618365 -5.958155105656772 L-273.4659224618365 -1.6280280867345738 L-225.0610637035021 -10.53065502230288 L-278.4659224618365 -5.958155105656772"/>
		<path opacity="0.75" fill="pink" d="M-278.4659224618365 -5.958155105656772 L-278.4659224618365 2.7020989321876243 L-225.0610637035021 -10.53065502230288 L-278.4659224618365 -5.958155105656772"/>
		<path opacity="0.75" fill="pink" d="M-273.4659224618365 -1.6280280867345738 L-273.4659224618365 7.032225951109808 L-225.0610637035021 -10.53065502230288 L-273.4659224618365 -1.6280280867345738"/>
		<path opacity="0.75" fill="pink" d="M-278.4659224618365 2.7020989321876243 L-273.4659224618365 7.032225951109808 L-225.0610637035021 -10.53065502230288 L-278.4659224618365 2.7020989321876243"/>

		<text style="fill:black;font-family:calibri;font-size:6" x="-258.9976362090584" y="-12.744405063979826" >[10,10]</text>
		<path opacity="0.75" fill="darkturquoise" d="M-278.4659224618365 -5.958155105656772 L-273.4659224618365 -1.6280280867345738 L-273.4659224618365 7.032225951109808 L-278.4659224618365 2.7020989321876243 L-278.4659224618365 -5.958155105656772" stroke-linecap="square"/>
		<path opacity="0.75" fill="darkturquoise" d="M-295.78643053752535 -0.9581551056567719 L-290.78643053752535 3.3719719132654262 L-290.78643053752535 12.032225951109808 L-295.78643053752535 7.702098932187624 L-295.78643053752535 -0.9581551056567719" stroke-linecap="square"/>
		<path opacity="0.75" fill="darkturquoise" d="M-278.4659224618365 -5.958155105656772 L-295.78643053752535 -0.9581551056567719 L-295.78643053752535 7.702098932187624 L-278.4659224618365 2.7020989321876243 L-278.4659224618365 -5.958155105656772" stroke-linecap="square"/>
		<path opacity="0.75" fill="darkturquoise" d="M-273.4659224618365 -1.6280280867345738 L-290.78643053752535 3.3719719132654262 L-290.78643053752535 12.032225951109808 L-273.4659224618365 7.032225951109808 L-273.4659224618365 -1.6280280867345738" stroke-linecap="square"/>
		<path opacity="0.75" fill="darkturquoise" d="M-278.4659224618365 -5.958155105656772 L-273.4659224618365 -1.6280280867345738 L-290.78643053752535 3.3719719132654262 L-295.78643053752535 -0.9581551056567719 L-278.4659224618365 -5.958155105656772" stroke-linecap="square"/>
		<path opacity="0.75" fill="darkturquoise" d="M-278.4659224618365 2.7020989321876243 L-273.4659224618365 7.032225951109808 L-290.78643053752535 12.032225951109808 L-295.78643053752535 7.702098932187624 L-278.4659224618365 2.7020989321876243" stroke-linecap="square"/>
		<path opacity="0.5" fill="lavender" d="M-283.03193977868614 -20.949327895761442 L-267.03193977868614 -7.092921435210428 L-267.03193977868614 20.619891485891614 L-283.03193977868614 6.7634850253406 L-283.03193977868614 -20.949327895761442" stroke-linecap="square"/>
		<path opacity="0.5" fill="lavender" d="M-300.352447854375 -15.949327895761442 L-284.352447854375 -2.092921435210428 L-284.352447854375 25.619891485891614 L-300.352447854375 11.7634850253406 L-300.352447854375 -15.949327895761442" stroke-linecap="square"/>
		<path opacity="0.5" fill="lavender" d="M-283.03193977868614 -20.949327895761442 L-300.352447854375 -15.949327895761442 L-300.352447854375 11.7634850253406 L-283.03193977868614 6.7634850253406 L-283.03193977868614 -20.949327895761442" stroke-linecap="square"/>
		<path opacity="0.5" fill="lavender" d="M-267.03193977868614 -7.092921435210428 L-284.352447854375 -2.092921435210428 L-284.352447854375 25.619891485891614 L-267.03193977868614 20.619891485891614 L-267.03193977868614 -7.092921435210428" stroke-linecap="square"/>
		<path opacity="0.5" fill="lavender" d="M-283.03193977868614 -20.949327895761442 L-267.03193977868614 -7.092921435210428 L-284.352447854375 -2.092921435210428 L-300.352447854375 -15.949327895761442 L-283.03193977868614 -20.949327895761442" stroke-linecap="square"/>
		<path opacity="0.5" fill="lavender" d="M-283.03193977868614 6.7634850253406 L-267.03193977868614 20.619891485891614 L-284.352447854375 25.619891485891614 L-300.352447854375 11.7634850253406 L-283.03193977868614 6.7634850253406" stroke-linecap="square"/>
		<text style="fill:black;font-family:calibri;font-size:6" x="-300.352447854375" y="-2.092921435210421" >32</text>
		<text style="fill:black;font-family:calibri;font-size:6" x="-292.352447854375" y="18.691688255616107" >32</text>
		<text style="fill:black;font-family:calibri;font-size:6" x="-291.69219381653056" y="-18.449327895761442" >20</text>

		<path opacity="0.5" fill="orange" d="M-43.29096063693618 -2.39934640057524 L-35.29096063693618 4.528856829700274 L-35.29096063693618 18.385263290251288 L-43.29096063693618 11.457060059975781 L-43.29096063693618 -2.39934640057524" stroke-linecap="square"/>
		<path opacity="0.5" fill="orange" d="M-98.71658647914023 13.60065359942476 L-90.71658647914023 20.528856829700274 L-90.71658647914023 34.38526329025129 L-98.71658647914023 27.45706005997578 L-98.71658647914023 13.60065359942476" stroke-linecap="square"/>
		<path opacity="0.5" fill="orange" d="M-43.29096063693618 -2.39934640057524 L-98.71658647914023 13.60065359942476 L-98.71658647914023 27.45706005997578 L-43.29096063693618 11.457060059975781 L-43.29096063693618 -2.39934640057524" stroke-linecap="square"/>
		<path opacity="0.5" fill="orange" d="M-35.29096063693618 4.528856829700274 L-90.71658647914023 20.528856829700274 L-90.71658647914023 34.38526329025129 L-35.29096063693618 18.385263290251288 L-35.29096063693618 4.528856829700274" stroke-linecap="square"/>
		<path opacity="0.5" fill="orange" d="M-43.29096063693618 -2.39934640057524 L-35.29096063693618 4.528856829700274 L-90.71658647914023 20.528856829700274 L-98.71658647914023 13.60065359942476 L-43.29096063693618 -2.39934640057524" stroke-linecap="square"/>
		<path opacity="0.5" fill="orange" d="M-43.29096063693618 11.457060059975781 L-35.29096063693618 18.385263290251288 L-90.71658647914023 34.38526329025129 L-98.71658647914023 27.45706005997578 L-43.29096063693618 11.457060059975781" stroke-linecap="square"/>
		<text style="fill:black;font-family:calibri;font-size:6" x="-98.71658647914023" y="20.52885682970027" >16</text>
		<text style="fill:black;font-family:calibri;font-size:6" x="-94.71658647914023" y="30.921161675113535" >16</text>
		<text style="fill:black;font-family:calibri;font-size:6" x="-71.0037735580382" y="5.60065359942476" >64</text>

		<path opacity="0.75" fill="pink" d="M-139.9768326281802 23.126602763957457 L-137.4768326281802 25.291666273418556 L-91.99088613795914 24.85019331020697 L-139.9768326281802 23.126602763957457"/>
		<path opacity="0.75" fill="pink" d="M-139.9768326281802 23.126602763957457 L-139.9768326281802 27.45672978287965 L-91.99088613795914 24.85019331020697 L-139.9768326281802 23.126602763957457"/>
		<path opacity="0.75" fill="pink" d="M-137.4768326281802 25.291666273418556 L-137.4768326281802 29.621793292340747 L-91.99088613795914 24.85019331020697 L-137.4768326281802 25.291666273418556"/>
		<path opacity="0.75" fill="pink" d="M-139.9768326281802 27.45672978287965 L-137.4768326281802 29.621793292340747 L-91.99088613795914 24.85019331020697 L-139.9768326281802 27.45672978287965"/>

		<text style="fill:black;font-family:calibri;font-size:6" x="-123.14818379810652" y="19.488398037082213" >[5,5]</text>
		<path opacity="0.75" fill="darkturquoise" d="M-139.9768326281802 23.126602763957457 L-137.4768326281802 25.291666273418556 L-137.4768326281802 29.621793292340747 L-139.9768326281802 27.45672978287965 L-139.9768326281802 23.126602763957457" stroke-linecap="square"/>
		<path opacity="0.75" fill="darkturquoise" d="M-167.6896455492822 31.126602763957457 L-165.1896455492822 33.291666273418556 L-165.1896455492822 37.62179329234075 L-167.6896455492822 35.45672978287965 L-167.6896455492822 31.126602763957457" stroke-linecap="square"/>
		<path opacity="0.75" fill="darkturquoise" d="M-139.9768326281802 23.126602763957457 L-167.6896455492822 31.126602763957457 L-167.6896455492822 35.45672978287965 L-139.9768326281802 27.45672978287965 L-139.9768326281802 23.126602763957457" stroke-linecap="square"/>
		<path opacity="0.75" fill="darkturquoise" d="M-137.4768326281802 25.291666273418556 L-165.1896455492822 33.291666273418556 L-165.1896455492822 37.62179329234075 L-137.4768326281802 29.621793292340747 L-137.4768326281802 25.291666273418556" stroke-linecap="square"/>
		<path opacity="0.75" fill="darkturquoise" d="M-139.9768326281802 23.126602763957457 L-137.4768326281802 25.291666273418556 L-165.1896455492822 33.291666273418556 L-167.6896455492822 31.126602763957457 L-139.9768326281802 23.126602763957457" stroke-linecap="square"/>
		<path opacity="0.75" fill="darkturquoise" d="M-139.9768326281802 27.45672978287965 L-137.4768326281802 29.621793292340747 L-165.1896455492822 37.62179329234075 L-167.6896455492822 35.45672978287965 L-139.9768326281802 27.45672978287965" stroke-linecap="square"/>
		<path opacity="0.5" fill="orange" d="M-146.01785666836219 15.708348754011496 L-130.01785666836219 29.564755214562517 L-130.01785666836219 57.27756813566455 L-146.01785666836219 43.42116167511354 L-146.01785666836219 15.708348754011496" stroke-linecap="square"/>
		<path opacity="0.5" fill="orange" d="M-173.73066958946418 23.708348754011496 L-157.73066958946418 37.56475521456252 L-157.73066958946418 65.27756813566455 L-173.73066958946418 51.42116167511354 L-173.73066958946418 23.708348754011496" stroke-linecap="square"/>
		<path opacity="0.5" fill="orange" d="M-146.01785666836219 15.708348754011496 L-173.73066958946418 23.708348754011496 L-173.73066958946418 51.42116167511354 L-146.01785666836219 43.42116167511354 L-146.01785666836219 15.708348754011496" stroke-linecap="square"/>
		<path opacity="0.5" fill="orange" d="M-130.01785666836219 29.564755214562517 L-157.73066958946418 37.56475521456252 L-157.73066958946418 65.27756813566455 L-130.01785666836219 57.27756813566455 L-130.01785666836219 29.564755214562517" stroke-linecap="square"/>
		<path opacity="0.5" fill="orange" d="M-146.01785666836219 15.708348754011496 L-130.01785666836219 29.564755214562517 L-157.73066958946418 37.56475521456252 L-173.73066958946418 23.708348754011496 L-146.01785666836219 15.708348754011496" stroke-linecap="square"/>
		<path opacity="0.5" fill="orange" d="M-146.01785666836219 43.42116167511354 L-130.01785666836219 57.27756813566455 L-157.73066958946418 65.27756813566455 L-173.73066958946418 51.42116167511354 L-146.01785666836219 43.42116167511354" stroke-linecap="square"/>
		<text style="fill:black;font-family:calibri;font-size:6" x="-173.73066958946418" y="37.56475521456252" >32</text>
		<text style="fill:black;font-family:calibri;font-size:6" x="-165.73066958946418" y="58.349364905389045" >32</text>
		<text style="fill:black;font-family:calibri;font-size:6" x="-159.87426312891319" y="19.708348754011496" >32</text>

		<path opacity="0.5" fill="orange" d="M123.43593539448983 31.45448267190433 L127.43593539448983 34.918584287042094 L127.43593539448983 41.84678751731761 L123.43593539448983 38.382685902179844 L123.43593539448983 31.45448267190433" stroke-linecap="square"/>
		<path opacity="0.5" fill="orange" d="M68.01030955228575 47.45448267190433 L72.01030955228575 50.918584287042094 L72.01030955228575 57.84678751731761 L68.01030955228575 54.382685902179844 L68.01030955228575 47.45448267190433" stroke-linecap="square"/>
		<path opacity="0.5" fill="orange" d="M123.43593539448983 31.45448267190433 L68.01030955228575 47.45448267190433 L68.01030955228575 54.382685902179844 L123.43593539448983 38.382685902179844 L123.43593539448983 31.45448267190433" stroke-linecap="square"/>
		<path opacity="0.5" fill="orange" d="M127.43593539448983 34.918584287042094 L72.01030955228575 50.918584287042094 L72.01030955228575 57.84678751731761 L127.43593539448983 41.84678751731761 L127.43593539448983 34.918584287042094" stroke-linecap="square"/>
		<path opacity="0.5" fill="orange" d="M123.43593539448983 31.45448267190433 L127.43593539448983 34.918584287042094 L72.01030955228575 50.918584287042094 L68.01030955228575 47.45448267190433 L123.43593539448983 31.45448267190433" stroke-linecap="square"/>
		<path opacity="0.5" fill="orange" d="M123.43593539448983 38.382685902179844 L127.43593539448983 41.84678751731761 L72.01030955228575 57.84678751731761 L68.01030955228575 54.382685902179844 L123.43593539448983 38.382685902179844" stroke-linecap="square"/>
		<text style="fill:black;font-family:calibri;font-size:6" x="68.01030955228575" y="50.91858428704209" >8</text>
		<text style="fill:black;font-family:calibri;font-size:6" x="70.01030955228575" y="56.114736709748726" >8</text>
		<text style="fill:black;font-family:calibri;font-size:6" x="95.72312247338779" y="39.45448267190433" >64</text>

		<path opacity="0.75" fill="pink" d="M-215.19416726492454 43.82488229943267 L-210.19416726492454 48.15500931835487 L-164.82197780706605 44.631262476258016 L-215.19416726492454 43.82488229943267"/>
		<path opacity="0.75" fill="pink" d="M-215.19416726492454 43.82488229943267 L-215.19416726492454 52.485136337277055 L-164.82197780706605 44.631262476258016 L-215.19416726492454 43.82488229943267"/>
		<path opacity="0.75" fill="pink" d="M-210.19416726492454 48.15500931835487 L-210.19416726492454 56.81526335619925 L-164.82197780706605 44.631262476258016 L-210.19416726492454 48.15500931835487"/>
		<path opacity="0.75" fill="pink" d="M-215.19416726492454 52.485136337277055 L-210.19416726492454 56.81526335619925 L-164.82197780706605 44.631262476258016 L-215.19416726492454 52.485136337277055"/>

		<text style="fill:black;font-family:calibri;font-size:6" x="-196.73677077897173" y="39.728072387845344" >[10,10]</text>
		<path opacity="0.5" fill="orange" d="M473.3153532995459 38.99484522385711 L481.3153532995459 45.923048454132626 L481.3153532995459 59.77945491468364 L473.3153532995459 52.851251684408126 L473.3153532995459 38.99484522385711" stroke-linecap="square"/>
		<path opacity="0.5" fill="orange" d="M417.88972745734185 54.99484522385711 L425.88972745734185 61.923048454132626 L425.88972745734185 75.77945491468364 L417.88972745734185 68.85125168440813 L417.88972745734185 54.99484522385711" stroke-linecap="square"/>
		<path opacity="0.5" fill="orange" d="M473.3153532995459 38.99484522385711 L417.88972745734185 54.99484522385711 L417.88972745734185 68.85125168440813 L473.3153532995459 52.851251684408126 L473.3153532995459 38.99484522385711" stroke-linecap="square"/>
		<path opacity="0.5" fill="orange" d="M481.3153532995459 45.923048454132626 L425.88972745734185 61.923048454132626 L425.88972745734185 75.77945491468364 L481.3153532995459 59.77945491468364 L481.3153532995459 45.923048454132626" stroke-linecap="square"/>
		<path opacity="0.5" fill="orange" d="M473.3153532995459 38.99484522385711 L481.3153532995459 45.923048454132626 L425.88972745734185 61.923048454132626 L417.88972745734185 54.99484522385711 L473.3153532995459 38.99484522385711" stroke-linecap="square"/>
		<path opacity="0.5" fill="orange" d="M473.3153532995459 52.851251684408126 L481.3153532995459 59.77945491468364 L425.88972745734185 75.77945491468364 L417.88972745734185 68.85125168440813 L473.3153532995459 52.851251684408126" stroke-linecap="square"/>
		<text style="fill:black;font-family:calibri;font-size:6" x="417.88972745734185" y="61.92304845413262" >16</text>
		<text style="fill:black;font-family:calibri;font-size:6" x="421.88972745734185" y="72.31535329954588" >16</text>
		<text style="fill:black;font-family:calibri;font-size:6" x="445.6025403784439" y="46.99484522385711" >64</text>

		<path opacity="0.75" fill="pink" d="M23.179940723484407 58.278281654798434 L25.679940723484407 60.443345164259526 L68.30052833289429 49.57349288997233 L23.179940723484407 58.278281654798434"/>
		<path opacity="0.75" fill="pink" d="M23.179940723484407 58.278281654798434 L23.179940723484407 62.60840867372062 L68.30052833289429 49.57349288997233 L23.179940723484407 58.278281654798434"/>
		<path opacity="0.75" fill="pink" d="M25.679940723484407 60.443345164259526 L25.679940723484407 64.77347218318172 L68.30052833289429 49.57349288997233 L25.679940723484407 60.443345164259526"/>
		<path opacity="0.75" fill="pink" d="M23.179940723484407 62.60840867372062 L25.679940723484407 64.77347218318172 L68.30052833289429 49.57349288997233 L23.179940723484407 62.60840867372062"/>

		<text style="fill:black;font-family:calibri;font-size:6" x="39.053469926621034" y="49.42588727238538" >[5,5]</text>
		<path opacity="0.75" fill="darkturquoise" d="M-215.19416726492454 43.82488229943267 L-210.19416726492454 48.15500931835487 L-210.19416726492454 56.81526335619925 L-215.19416726492454 52.485136337277055 L-215.19416726492454 43.82488229943267" stroke-linecap="square"/>
		<path opacity="0.75" fill="darkturquoise" d="M-232.51467534061334 48.82488229943267 L-227.51467534061334 53.15500931835487 L-227.51467534061334 61.81526335619925 L-232.51467534061334 57.485136337277055 L-232.51467534061334 48.82488229943267" stroke-linecap="square"/>
		<path opacity="0.75" fill="darkturquoise" d="M-215.19416726492454 43.82488229943267 L-232.51467534061334 48.82488229943267 L-232.51467534061334 57.485136337277055 L-215.19416726492454 52.485136337277055 L-215.19416726492454 43.82488229943267" stroke-linecap="square"/>
		<path opacity="0.75" fill="darkturquoise" d="M-210.19416726492454 48.15500931835487 L-227.51467534061334 53.15500931835487 L-227.51467534061334 61.81526335619925 L-210.19416726492454 56.81526335619925 L-210.19416726492454 48.15500931835487" stroke-linecap="square"/>
		<path opacity="0.75" fill="darkturquoise" d="M-215.19416726492454 43.82488229943267 L-210.19416726492454 48.15500931835487 L-227.51467534061334 53.15500931835487 L-232.51467534061334 48.82488229943267 L-215.19416726492454 43.82488229943267" stroke-linecap="square"/>
		<path opacity="0.75" fill="darkturquoise" d="M-215.19416726492454 52.485136337277055 L-210.19416726492454 56.81526335619925 L-227.51467534061334 61.81526335619925 L-232.51467534061334 57.485136337277055 L-215.19416726492454 52.485136337277055" stroke-linecap="square"/>
		<path opacity="0.5" fill="lavender" d="M-217.03193977868614 36.208348754011496 L-201.03193977868614 50.064755214562524 L-201.03193977868614 77.77756813566455 L-217.03193977868614 63.92116167511354 L-217.03193977868614 36.208348754011496" stroke-linecap="square"/>
		<path opacity="0.5" fill="lavender" d="M-234.35244785437493 41.208348754011496 L-218.35244785437493 55.064755214562524 L-218.35244785437493 82.77756813566455 L-234.35244785437493 68.92116167511354 L-234.35244785437493 41.208348754011496" stroke-linecap="square"/>
		<path opacity="0.5" fill="lavender" d="M-217.03193977868614 36.208348754011496 L-234.35244785437493 41.208348754011496 L-234.35244785437493 68.92116167511354 L-217.03193977868614 63.92116167511354 L-217.03193977868614 36.208348754011496" stroke-linecap="square"/>
		<path opacity="0.5" fill="lavender" d="M-201.03193977868614 50.064755214562524 L-218.35244785437493 55.064755214562524 L-218.35244785437493 82.77756813566455 L-201.03193977868614 77.77756813566455 L-201.03193977868614 50.064755214562524" stroke-linecap="square"/>
		<path opacity="0.5" fill="lavender" d="M-217.03193977868614 36.208348754011496 L-201.03193977868614 50.064755214562524 L-218.35244785437493 55.064755214562524 L-234.35244785437493 41.208348754011496 L-217.03193977868614 36.208348754011496" stroke-linecap="square"/>
		<path opacity="0.5" fill="lavender" d="M-217.03193977868614 63.92116167511354 L-201.03193977868614 77.77756813566455 L-218.35244785437493 82.77756813566455 L-234.35244785437493 68.92116167511354 L-217.03193977868614 63.92116167511354" stroke-linecap="square"/>
		<text style="fill:black;font-family:calibri;font-size:6" x="-234.35244785437493" y="55.06475521456252" >32</text>
		<text style="fill:black;font-family:calibri;font-size:6" x="-226.35244785437493" y="75.84936490538905" >32</text>
		<text style="fill:black;font-family:calibri;font-size:6" x="-225.69219381653053" y="38.708348754011496" >20</text>

		<path opacity="0.75" fill="pink" d="M376.9848326830748 78.59808528411689 L379.4848326830748 80.76314879357798 L422.64602344433473 72.06730633252141 L376.9848326830748 78.59808528411689"/>
		<path opacity="0.75" fill="pink" d="M376.9848326830748 78.59808528411689 L376.9848326830748 82.92821230303907 L422.64602344433473 72.06730633252141 L376.9848326830748 78.59808528411689"/>
		<path opacity="0.75" fill="pink" d="M379.4848326830748 80.76314879357798 L379.4848326830748 85.09327581250017 L422.64602344433473 72.06730633252141 L379.4848326830748 80.76314879357798"/>
		<path opacity="0.75" fill="pink" d="M376.9848326830748 82.92821230303907 L379.4848326830748 85.09327581250017 L422.64602344433473 72.06730633252141 L376.9848326830748 82.92821230303907"/>

		<text style="fill:black;font-family:calibri;font-size:6" x="393.0385629368281" y="70.83269580831916" >[5,5]</text>
		<path opacity="0.75" fill="darkturquoise" d="M23.179940723484407 58.278281654798434 L25.679940723484407 60.443345164259526 L25.679940723484407 64.77347218318172 L23.179940723484407 62.60840867372062 L23.179940723484407 58.278281654798434" stroke-linecap="square"/>
		<path opacity="0.75" fill="darkturquoise" d="M-32.24568511871968 74.27828165479843 L-29.745685118719678 76.44334516425953 L-29.745685118719678 80.77347218318172 L-32.24568511871968 78.60840867372062 L-32.24568511871968 74.27828165479843" stroke-linecap="square"/>
		<path opacity="0.75" fill="darkturquoise" d="M23.179940723484407 58.278281654798434 L-32.24568511871968 74.27828165479843 L-32.24568511871968 78.60840867372062 L23.179940723484407 62.60840867372062 L23.179940723484407 58.278281654798434" stroke-linecap="square"/>
		<path opacity="0.75" fill="darkturquoise" d="M25.679940723484407 60.443345164259526 L-29.745685118719678 76.44334516425953 L-29.745685118719678 80.77347218318172 L25.679940723484407 64.77347218318172 L25.679940723484407 60.443345164259526" stroke-linecap="square"/>
		<path opacity="0.75" fill="darkturquoise" d="M23.179940723484407 58.278281654798434 L25.679940723484407 60.443345164259526 L-29.745685118719678 76.44334516425953 L-32.24568511871968 74.27828165479843 L23.179940723484407 58.278281654798434" stroke-linecap="square"/>
		<path opacity="0.75" fill="darkturquoise" d="M23.179940723484407 62.60840867372062 L25.679940723484407 64.77347218318172 L-29.745685118719678 80.77347218318172 L-32.24568511871968 78.60840867372062 L23.179940723484407 62.60840867372062" stroke-linecap="square"/>
		<path opacity="0.5" fill="orange" d="M22.709039363063823 54.75833024919771 L30.709039363063823 61.68653347947321 L30.709039363063823 75.54293994002424 L22.709039363063823 68.61473670974873 L22.709039363063823 54.75833024919771" stroke-linecap="square"/>
		<path opacity="0.5" fill="orange" d="M-32.71658647914023 70.75833024919771 L-24.716586479140233 77.68653347947321 L-24.716586479140233 91.54293994002424 L-32.71658647914023 84.61473670974873 L-32.71658647914023 70.75833024919771" stroke-linecap="square"/>
		<path opacity="0.5" fill="orange" d="M22.709039363063823 54.75833024919771 L-32.71658647914023 70.75833024919771 L-32.71658647914023 84.61473670974873 L22.709039363063823 68.61473670974873 L22.709039363063823 54.75833024919771" stroke-linecap="square"/>
		<path opacity="0.5" fill="orange" d="M30.709039363063823 61.68653347947321 L-24.716586479140233 77.68653347947321 L-24.716586479140233 91.54293994002424 L30.709039363063823 75.54293994002424 L30.709039363063823 61.68653347947321" stroke-linecap="square"/>
		<path opacity="0.5" fill="orange" d="M22.709039363063823 54.75833024919771 L30.709039363063823 61.68653347947321 L-24.716586479140233 77.68653347947321 L-32.71658647914023 70.75833024919771 L22.709039363063823 54.75833024919771" stroke-linecap="square"/>
		<path opacity="0.5" fill="orange" d="M22.709039363063823 68.61473670974873 L30.709039363063823 75.54293994002424 L-24.716586479140233 91.54293994002424 L-32.71658647914023 84.61473670974873 L22.709039363063823 68.61473670974873" stroke-linecap="square"/>
		<text style="fill:black;font-family:calibri;font-size:6" x="-32.71658647914023" y="77.68653347947321" >16</text>
		<text style="fill:black;font-family:calibri;font-size:6" x="-28.716586479140233" y="88.07883832488648" >16</text>
		<text style="fill:black;font-family:calibri;font-size:6" x="-5.003773558038205" y="62.75833024919771" >64</text>

		<path opacity="0.75" fill="darkturquoise" d="M376.9848326830748 78.59808528411689 L379.4848326830748 80.76314879357798 L379.4848326830748 85.09327581250017 L376.9848326830748 82.92821230303907 L376.9848326830748 78.59808528411689" stroke-linecap="square"/>
		<path opacity="0.75" fill="darkturquoise" d="M266.1335809986666 110.5980852841169 L268.6335809986666 112.76314879357798 L268.6335809986666 117.09327581250017 L266.1335809986666 114.92821230303906 L266.1335809986666 110.5980852841169" stroke-linecap="square"/>
		<path opacity="0.75" fill="darkturquoise" d="M376.9848326830748 78.59808528411689 L266.1335809986666 110.5980852841169 L266.1335809986666 114.92821230303906 L376.9848326830748 82.92821230303907 L376.9848326830748 78.59808528411689" stroke-linecap="square"/>
		<path opacity="0.75" fill="darkturquoise" d="M379.4848326830748 80.76314879357798 L268.6335809986666 112.76314879357798 L268.6335809986666 117.09327581250017 L379.4848326830748 85.09327581250017 L379.4848326830748 80.76314879357798" stroke-linecap="square"/>
		<path opacity="0.75" fill="darkturquoise" d="M376.9848326830748 78.59808528411689 L379.4848326830748 80.76314879357798 L268.6335809986666 112.76314879357798 L266.1335809986666 110.5980852841169 L376.9848326830748 78.59808528411689" stroke-linecap="square"/>
		<path opacity="0.75" fill="darkturquoise" d="M376.9848326830748 82.92821230303907 L379.4848326830748 85.09327581250017 L268.6335809986666 117.09327581250017 L266.1335809986666 114.92821230303906 L376.9848326830748 82.92821230303907" stroke-linecap="square"/>
		<path opacity="0.5" fill="orange" d="M374.5884572681199 67.49484522385711 L382.5884572681199 74.42304845413263 L382.5884572681199 88.27945491468364 L374.5884572681199 81.35125168440813 L374.5884572681199 67.49484522385711" stroke-linecap="square"/>
		<path opacity="0.5" fill="orange" d="M263.7372055837118 99.49484522385711 L271.7372055837118 106.42304845413264 L271.7372055837118 120.27945491468364 L263.7372055837118 113.35125168440811 L263.7372055837118 99.49484522385711" stroke-linecap="square"/>
		<path opacity="0.5" fill="orange" d="M374.5884572681199 67.49484522385711 L263.7372055837118 99.49484522385711 L263.7372055837118 113.35125168440811 L374.5884572681199 81.35125168440813 L374.5884572681199 67.49484522385711" stroke-linecap="square"/>
		<path opacity="0.5" fill="orange" d="M382.5884572681199 74.42304845413263 L271.7372055837118 106.42304845413264 L271.7372055837118 120.27945491468364 L382.5884572681199 88.27945491468364 L382.5884572681199 74.42304845413263" stroke-linecap="square"/>
		<path opacity="0.5" fill="orange" d="M374.5884572681199 67.49484522385711 L382.5884572681199 74.42304845413263 L271.7372055837118 106.42304845413264 L263.7372055837118 99.49484522385711 L374.5884572681199 67.49484522385711" stroke-linecap="square"/>
		<path opacity="0.5" fill="orange" d="M374.5884572681199 81.35125168440813 L382.5884572681199 88.27945491468364 L271.7372055837118 120.27945491468364 L263.7372055837118 113.35125168440811 L374.5884572681199 81.35125168440813" stroke-linecap="square"/>
		<text style="fill:black;font-family:calibri;font-size:6" x="263.7372055837118" y="106.42304845413261" >16</text>
		<text style="fill:black;font-family:calibri;font-size:6" x="267.7372055837118" y="116.81535329954588" >16</text>
		<text style="fill:black;font-family:calibri;font-size:6" x="319.16283142591584" y="83.49484522385711" >128</text>

		<path opacity="0.75" fill="pink" d="M-68.58174196857874 85.65283247911357 L-66.08174196857874 87.81789598857466 L-24.942805082892562 78.65182229620054 L-68.58174196857874 85.65283247911357"/>
		<path opacity="0.75" fill="pink" d="M-68.58174196857874 85.65283247911357 L-68.58174196857874 89.98295949803577 L-24.942805082892562 78.65182229620054 L-68.58174196857874 85.65283247911357"/>
		<path opacity="0.75" fill="pink" d="M-66.08174196857874 87.81789598857466 L-66.08174196857874 92.14802300749686 L-24.942805082892562 78.65182229620054 L-66.08174196857874 87.81789598857466"/>
		<path opacity="0.75" fill="pink" d="M-68.58174196857874 89.98295949803577 L-66.08174196857874 92.14802300749686 L-24.942805082892562 78.65182229620054 L-68.58174196857874 89.98295949803577"/>

		<text style="fill:black;font-family:calibri;font-size:6" x="-53.20209634001668" y="77.65232738765705" >[5,5]</text>
		<path opacity="0.75" fill="darkturquoise" d="M-68.58174196857874 85.65283247911357 L-66.08174196857874 87.81789598857466 L-66.08174196857874 92.14802300749686 L-68.58174196857874 89.98295949803577 L-68.58174196857874 85.65283247911357" stroke-linecap="square"/>
		<path opacity="0.75" fill="darkturquoise" d="M-96.29455488968074 93.65283247911357 L-93.79455488968074 95.81789598857466 L-93.79455488968074 100.14802300749686 L-96.29455488968074 97.98295949803577 L-96.29455488968074 93.65283247911357" stroke-linecap="square"/>
		<path opacity="0.75" fill="darkturquoise" d="M-68.58174196857874 85.65283247911357 L-96.29455488968074 93.65283247911357 L-96.29455488968074 97.98295949803577 L-68.58174196857874 89.98295949803577 L-68.58174196857874 85.65283247911357" stroke-linecap="square"/>
		<path opacity="0.75" fill="darkturquoise" d="M-66.08174196857874 87.81789598857466 L-93.79455488968074 95.81789598857466 L-93.79455488968074 100.14802300749686 L-66.08174196857874 92.14802300749686 L-66.08174196857874 87.81789598857466" stroke-linecap="square"/>
		<path opacity="0.75" fill="darkturquoise" d="M-68.58174196857874 85.65283247911357 L-66.08174196857874 87.81789598857466 L-93.79455488968074 95.81789598857466 L-96.29455488968074 93.65283247911357 L-68.58174196857874 85.65283247911357" stroke-linecap="square"/>
		<path opacity="0.75" fill="darkturquoise" d="M-68.58174196857874 89.98295949803577 L-66.08174196857874 92.14802300749686 L-93.79455488968074 100.14802300749686 L-96.29455488968074 97.98295949803577 L-68.58174196857874 89.98295949803577" stroke-linecap="square"/>
		<path opacity="0.5" fill="orange" d="M-80.01785666836219 72.86602540378443 L-64.01785666836219 86.72243186433545 L-64.01785666836219 114.4352447854375 L-80.01785666836219 100.57883832488648 L-80.01785666836219 72.86602540378443" stroke-linecap="square"/>
		<path opacity="0.5" fill="orange" d="M-107.73066958946418 80.86602540378443 L-91.73066958946418 94.72243186433545 L-91.73066958946418 122.4352447854375 L-107.73066958946418 108.57883832488648 L-107.73066958946418 80.86602540378443" stroke-linecap="square"/>
		<path opacity="0.5" fill="orange" d="M-80.01785666836219 72.86602540378443 L-107.73066958946418 80.86602540378443 L-107.73066958946418 108.57883832488648 L-80.01785666836219 100.57883832488648 L-80.01785666836219 72.86602540378443" stroke-linecap="square"/>
		<path opacity="0.5" fill="orange" d="M-64.01785666836219 86.72243186433545 L-91.73066958946418 94.72243186433545 L-91.73066958946418 122.4352447854375 L-64.01785666836219 114.4352447854375 L-64.01785666836219 86.72243186433545" stroke-linecap="square"/>
		<path opacity="0.5" fill="orange" d="M-80.01785666836219 72.86602540378443 L-64.01785666836219 86.72243186433545 L-91.73066958946418 94.72243186433545 L-107.73066958946418 80.86602540378443 L-80.01785666836219 72.86602540378443" stroke-linecap="square"/>
		<path opacity="0.5" fill="orange" d="M-80.01785666836219 100.57883832488648 L-64.01785666836219 114.4352447854375 L-91.73066958946418 122.4352447854375 L-107.73066958946418 108.57883832488648 L-80.01785666836219 100.57883832488648" stroke-linecap="square"/>
		<text style="fill:black;font-family:calibri;font-size:6" x="-107.73066958946418" y="94.72243186433545" >32</text>
		<text style="fill:black;font-family:calibri;font-size:6" x="-99.73066958946418" y="115.50704155516199" >32</text>
		<text style="fill:black;font-family:calibri;font-size:6" x="-93.87426312891319" y="76.86602540378443" >32</text>

<!-- Arrow -->
		<path opacity="0.5" stroke="black" d="M191.43593539448983 93.8083117443839 L267.7372055837118 109.88715006927038" stroke-linecap="square"/>
		<circle opacity="0.5" cx="267.7372055837118" cy="109.88715006927038" r="1" fill="black" />
<!-- Arrow -->
		<path opacity="0.5" stroke="black" d="M323.16283142591584 86.95894683899488 L323.16283142591584 43.65767664977294" stroke-linecap="square"/>
		<circle opacity="0.5" cx="323.16283142591584" cy="43.65767664977294" r="1" fill="black" />
		<path opacity="0.5" fill="orange" d="M189.43593539448983 88.61215932167727 L193.43593539448983 92.07626093681503 L193.43593539448983 99.00446416709055 L189.43593539448983 95.54036255195278 L189.43593539448983 88.61215932167727" stroke-linecap="square"/>
		<path opacity="0.5" fill="orange" d="M134.01030955228578 104.61215932167727 L138.01030955228578 108.07626093681503 L138.01030955228578 115.00446416709053 L134.01030955228578 111.5403625519528 L134.01030955228578 104.61215932167727" stroke-linecap="square"/>
		<path opacity="0.5" fill="orange" d="M189.43593539448983 88.61215932167727 L134.01030955228578 104.61215932167727 L134.01030955228578 111.5403625519528 L189.43593539448983 95.54036255195278 L189.43593539448983 88.61215932167727" stroke-linecap="square"/>
		<path opacity="0.5" fill="orange" d="M193.43593539448983 92.07626093681503 L138.01030955228578 108.07626093681503 L138.01030955228578 115.00446416709053 L193.43593539448983 99.00446416709055 L193.43593539448983 92.07626093681503" stroke-linecap="square"/>
		<path opacity="0.5" fill="orange" d="M189.43593539448983 88.61215932167727 L193.43593539448983 92.07626093681503 L138.01030955228578 108.07626093681503 L134.01030955228578 104.61215932167727 L189.43593539448983 88.61215932167727" stroke-linecap="square"/>
		<path opacity="0.5" fill="orange" d="M189.43593539448983 95.54036255195278 L193.43593539448983 99.00446416709055 L138.01030955228578 115.00446416709053 L134.01030955228578 111.5403625519528 L189.43593539448983 95.54036255195278" stroke-linecap="square"/>
		<text style="fill:black;font-family:calibri;font-size:6" x="134.01030955228578" y="108.07626093681503" >8</text>
		<text style="fill:black;font-family:calibri;font-size:6" x="136.01030955228578" y="113.27241335952166" >8</text>
		<text style="fill:black;font-family:calibri;font-size:6" x="161.7231224733878" y="96.61215932167727" >64</text>

<!-- Arrow -->
		<path opacity="0.5" stroke="black" d="M163.72312247338778 98.34421012924615 L163.72312247338778 55.04293994002421" stroke-linecap="square"/>
		<circle opacity="0.5" cx="163.72312247338778" cy="55.04293994002421" r="1" fill="black" />
		<path opacity="0.75" fill="pink" d="M-145.61135191609128 110.38480539349288 L-140.61135191609122 114.71493241241507 L-95.96700264824733 95.76263474568005 L-145.61135191609128 110.38480539349288"/>
		<path opacity="0.75" fill="pink" d="M-145.61135191609128 110.38480539349288 L-145.61135191609128 119.04505943133728 L-95.96700264824733 95.76263474568005 L-145.61135191609128 110.38480539349288"/>
		<path opacity="0.75" fill="pink" d="M-140.61135191609122 114.71493241241507 L-140.61135191609122 123.37518645025946 L-95.96700264824733 95.76263474568005 L-140.61135191609122 114.71493241241507"/>
		<path opacity="0.75" fill="pink" d="M-145.61135191609128 119.04505943133728 L-140.61135191609122 123.37518645025946 L-95.96700264824733 95.76263474568005 L-145.61135191609128 119.04505943133728"/>

		<text style="fill:black;font-family:calibri;font-size:6" x="-127.39656882680994" y="98.57372006958647" >[10,10]</text>
<!-- Arrow -->
		<path opacity="0.5" stroke="black" d="M323.16283142591584 43.65767664977294 L163.72312247338778 55.04293994002421" stroke-linecap="square"/>
		<circle opacity="0.5" cx="163.72312247338778" cy="55.04293994002421" r="1" fill="black" />
		<path opacity="0.75" fill="darkturquoise" d="M-145.61135191609128 110.38480539349288 L-140.61135191609122 114.71493241241507 L-140.61135191609122 123.37518645025946 L-145.61135191609128 119.04505943133728 L-145.61135191609128 110.38480539349288" stroke-linecap="square"/>
		<path opacity="0.75" fill="darkturquoise" d="M-162.93185999178007 115.38480539349288 L-157.93185999178002 119.71493241241507 L-157.93185999178002 128.37518645025946 L-162.93185999178007 124.04505943133728 L-162.93185999178007 115.38480539349288" stroke-linecap="square"/>
		<path opacity="0.75" fill="darkturquoise" d="M-145.61135191609128 110.38480539349288 L-162.93185999178007 115.38480539349288 L-162.93185999178007 124.04505943133728 L-145.61135191609128 119.04505943133728 L-145.61135191609128 110.38480539349288" stroke-linecap="square"/>
		<path opacity="0.75" fill="darkturquoise" d="M-140.61135191609122 114.71493241241507 L-157.93185999178002 119.71493241241507 L-157.93185999178002 128.37518645025946 L-140.61135191609122 123.37518645025946 L-140.61135191609122 114.71493241241507" stroke-linecap="square"/>
		<path opacity="0.75" fill="darkturquoise" d="M-145.61135191609128 110.38480539349288 L-140.61135191609122 114.71493241241507 L-157.93185999178002 119.71493241241507 L-162.93185999178007 115.38480539349288 L-145.61135191609128 110.38480539349288" stroke-linecap="square"/>
		<path opacity="0.75" fill="darkturquoise" d="M-145.61135191609128 119.04505943133728 L-140.61135191609122 123.37518645025946 L-157.93185999178002 128.37518645025946 L-162.93185999178007 124.04505943133728 L-145.61135191609128 119.04505943133728" stroke-linecap="square"/>
		<path opacity="0.5" fill="lavender" d="M-151.03193977868614 93.36602540378443 L-135.03193977868614 107.22243186433545 L-135.03193977868614 134.9352447854375 L-151.03193977868614 121.07883832488648 L-151.03193977868614 93.36602540378443" stroke-linecap="square"/>
		<path opacity="0.5" fill="lavender" d="M-168.35244785437493 98.36602540378443 L-152.35244785437493 112.22243186433545 L-152.35244785437493 139.9352447854375 L-168.35244785437493 126.07883832488648 L-168.35244785437493 98.36602540378443" stroke-linecap="square"/>
		<path opacity="0.5" fill="lavender" d="M-151.03193977868614 93.36602540378443 L-168.35244785437493 98.36602540378443 L-168.35244785437493 126.07883832488648 L-151.03193977868614 121.07883832488648 L-151.03193977868614 93.36602540378443" stroke-linecap="square"/>
		<path opacity="0.5" fill="lavender" d="M-135.03193977868614 107.22243186433545 L-152.35244785437493 112.22243186433545 L-152.35244785437493 139.9352447854375 L-135.03193977868614 134.9352447854375 L-135.03193977868614 107.22243186433545" stroke-linecap="square"/>
		<path opacity="0.5" fill="lavender" d="M-151.03193977868614 93.36602540378443 L-135.03193977868614 107.22243186433545 L-152.35244785437493 112.22243186433545 L-168.35244785437493 98.36602540378443 L-151.03193977868614 93.36602540378443" stroke-linecap="square"/>
		<path opacity="0.5" fill="lavender" d="M-151.03193977868614 121.07883832488648 L-135.03193977868614 134.9352447854375 L-152.35244785437493 139.9352447854375 L-168.35244785437493 126.07883832488648 L-151.03193977868614 121.07883832488648" stroke-linecap="square"/>
		<text style="fill:black;font-family:calibri;font-size:6" x="-168.35244785437493" y="112.22243186433545" >32</text>
		<text style="fill:black;font-family:calibri;font-size:6" x="-160.35244785437493" y="133.007041555162" >32</text>
		<text style="fill:black;font-family:calibri;font-size:6" x="-159.69219381653053" y="95.86602540378443" >20</text>

		<path opacity="0.75" fill="pink" d="M91.21353676088245 117.25963326092327 L93.71353676088245 119.42469677038434 L137.92032799629538 111.69654169612201 L91.21353676088245 117.25963326092327"/>
		<path opacity="0.75" fill="pink" d="M91.21353676088245 117.25963326092327 L91.21353676088245 121.58976027984545 L137.92032799629538 111.69654169612201 L91.21353676088245 117.25963326092327"/>
		<path opacity="0.75" fill="pink" d="M93.71353676088245 119.42469677038434 L93.71353676088245 123.75482378930656 L137.92032799629538 111.69654169612201 L93.71353676088245 119.42469677038434"/>
		<path opacity="0.75" fill="pink" d="M91.21353676088245 121.58976027984545 L93.71353676088245 123.75482378930656 L137.92032799629538 111.69654169612201 L91.21353676088245 121.58976027984545"/>

		<text style="fill:black;font-family:calibri;font-size:6" x="107.6158005060201" y="109.97808747852264" >[5,5]</text>
<!-- Arrow -->
		<path opacity="0.5" stroke="black" d="M257.4359353944899 150.96598839415685 L267.7372055837118 109.88715006927038" stroke-linecap="square"/>
		<circle opacity="0.5" cx="267.7372055837118" cy="109.88715006927038" r="1" fill="black" />
		<path opacity="0.75" fill="darkturquoise" d="M91.21353676088245 117.25963326092327 L93.71353676088245 119.42469677038434 L93.71353676088245 123.75482378930656 L91.21353676088245 121.58976027984545 L91.21353676088245 117.25963326092327" stroke-linecap="square"/>
		<path opacity="0.75" fill="darkturquoise" d="M35.78791091867839 133.25963326092327 L38.28791091867839 135.42469677038434 L38.28791091867839 139.75482378930656 L35.78791091867839 137.58976027984545 L35.78791091867839 133.25963326092327" stroke-linecap="square"/>
		<path opacity="0.75" fill="darkturquoise" d="M91.21353676088245 117.25963326092327 L35.78791091867839 133.25963326092327 L35.78791091867839 137.58976027984545 L91.21353676088245 121.58976027984545 L91.21353676088245 117.25963326092327" stroke-linecap="square"/>
		<path opacity="0.75" fill="darkturquoise" d="M93.71353676088245 119.42469677038434 L38.28791091867839 135.42469677038434 L38.28791091867839 139.75482378930656 L93.71353676088245 123.75482378930656 L93.71353676088245 119.42469677038434" stroke-linecap="square"/>
		<path opacity="0.75" fill="darkturquoise" d="M91.21353676088245 117.25963326092327 L93.71353676088245 119.42469677038434 L38.28791091867839 135.42469677038434 L35.78791091867839 133.25963326092327 L91.21353676088245 117.25963326092327" stroke-linecap="square"/>
		<path opacity="0.75" fill="darkturquoise" d="M91.21353676088245 121.58976027984545 L93.71353676088245 123.75482378930656 L38.28791091867839 139.75482378930656 L35.78791091867839 137.58976027984545 L91.21353676088245 121.58976027984545" stroke-linecap="square"/>
		<path opacity="0.5" fill="orange" d="M88.70903936306382 111.91600689897064 L96.70903936306382 118.84421012924616 L96.70903936306382 132.70061658979716 L88.70903936306382 125.77241335952166 L88.70903936306382 111.91600689897064" stroke-linecap="square"/>
		<path opacity="0.5" fill="orange" d="M33.28341352085977 127.91600689897064 L41.28341352085977 134.84421012924616 L41.28341352085977 148.70061658979716 L33.28341352085977 141.77241335952166 L33.28341352085977 127.91600689897064" stroke-linecap="square"/>
		<path opacity="0.5" fill="orange" d="M88.70903936306382 111.91600689897064 L33.28341352085977 127.91600689897064 L33.28341352085977 141.77241335952166 L88.70903936306382 125.77241335952166 L88.70903936306382 111.91600689897064" stroke-linecap="square"/>
		<path opacity="0.5" fill="orange" d="M96.70903936306382 118.84421012924616 L41.28341352085977 134.84421012924616 L41.28341352085977 148.70061658979716 L96.70903936306382 132.70061658979716 L96.70903936306382 118.84421012924616" stroke-linecap="square"/>
		<path opacity="0.5" fill="orange" d="M88.70903936306382 111.91600689897064 L96.70903936306382 118.84421012924616 L41.28341352085977 134.84421012924616 L33.28341352085977 127.91600689897064 L88.70903936306382 111.91600689897064" stroke-linecap="square"/>
		<path opacity="0.5" fill="orange" d="M88.70903936306382 125.77241335952166 L96.70903936306382 132.70061658979716 L41.28341352085977 148.70061658979716 L33.28341352085977 141.77241335952166 L88.70903936306382 125.77241335952166" stroke-linecap="square"/>
		<text style="fill:black;font-family:calibri;font-size:6" x="33.28341352085977" y="134.84421012924616" >16</text>
		<text style="fill:black;font-family:calibri;font-size:6" x="37.28341352085977" y="145.23651497465943" >16</text>
		<text style="fill:black;font-family:calibri;font-size:6" x="60.996226441961795" y="119.91600689897064" >64</text>

		<path opacity="0.75" fill="pink" d="M-2.338579227347225 160.697768559091 L0.1614207726527752 162.8628320685521 L35.87539124837906 130.44881143725885 L-2.338579227347225 160.697768559091"/>
		<path opacity="0.75" fill="pink" d="M-2.338579227347225 160.697768559091 L-2.338579227347225 165.02789557801322 L35.87539124837906 130.44881143725885 L-2.338579227347225 160.697768559091"/>
		<path opacity="0.75" fill="pink" d="M0.1614207726527752 162.8628320685521 L0.1614207726527752 167.1929590874743 L35.87539124837906 130.44881143725885 L0.1614207726527752 162.8628320685521"/>
		<path opacity="0.75" fill="pink" d="M-2.338579227347225 165.02789557801322 L0.1614207726527752 167.1929590874743 L35.87539124837906 130.44881143725885 L-2.338579227347225 165.02789557801322"/>

		<text style="fill:black;font-family:calibri;font-size:6" x="11.232744264561537" y="141.07328999817491" >[5,5]</text>
		<path opacity="0.75" fill="darkturquoise" d="M-2.338579227347225 160.697768559091 L0.1614207726527752 162.8628320685521 L0.1614207726527752 167.1929590874743 L-2.338579227347225 165.02789557801322 L-2.338579227347225 160.697768559091" stroke-linecap="square"/>
		<path opacity="0.75" fill="darkturquoise" d="M-30.051392148449224 168.697768559091 L-27.551392148449224 170.8628320685521 L-27.551392148449224 175.1929590874743 L-30.051392148449224 173.02789557801322 L-30.051392148449224 168.697768559091" stroke-linecap="square"/>
		<path opacity="0.75" fill="darkturquoise" d="M-2.338579227347225 160.697768559091 L-30.051392148449224 168.697768559091 L-30.051392148449224 173.02789557801322 L-2.338579227347225 165.02789557801322 L-2.338579227347225 160.697768559091" stroke-linecap="square"/>
		<path opacity="0.75" fill="darkturquoise" d="M0.1614207726527752 162.8628320685521 L-27.551392148449224 170.8628320685521 L-27.551392148449224 175.1929590874743 L0.1614207726527752 167.1929590874743 L0.1614207726527752 162.8628320685521" stroke-linecap="square"/>
		<path opacity="0.75" fill="darkturquoise" d="M-2.338579227347225 160.697768559091 L0.1614207726527752 162.8628320685521 L-27.551392148449224 170.8628320685521 L-30.051392148449224 168.697768559091 L-2.338579227347225 160.697768559091" stroke-linecap="square"/>
		<path opacity="0.75" fill="darkturquoise" d="M-2.338579227347225 165.02789557801322 L0.1614207726527752 167.1929590874743 L-27.551392148449224 175.1929590874743 L-30.051392148449224 173.02789557801322 L-2.338579227347225 165.02789557801322" stroke-linecap="square"/>
		<path opacity="0.5" fill="orange" d="M-14.017856668362185 130.02370205355737 L1.9821433316378148 143.8801085141084 L1.9821433316378148 171.59292143521043 L-14.017856668362185 157.73651497465943 L-14.017856668362185 130.02370205355737" stroke-linecap="square"/>
		<path opacity="0.5" fill="orange" d="M-41.730669589464185 138.02370205355737 L-25.730669589464185 151.8801085141084 L-25.730669589464185 179.59292143521043 L-41.730669589464185 165.73651497465943 L-41.730669589464185 138.02370205355737" stroke-linecap="square"/>
		<path opacity="0.5" fill="orange" d="M-14.017856668362185 130.02370205355737 L-41.730669589464185 138.02370205355737 L-41.730669589464185 165.73651497465943 L-14.017856668362185 157.73651497465943 L-14.017856668362185 130.02370205355737" stroke-linecap="square"/>
		<path opacity="0.5" fill="orange" d="M1.9821433316378148 143.8801085141084 L-25.730669589464185 151.8801085141084 L-25.730669589464185 179.59292143521043 L1.9821433316378148 171.59292143521043 L1.9821433316378148 143.8801085141084" stroke-linecap="square"/>
		<path opacity="0.5" fill="orange" d="M-14.017856668362185 130.02370205355737 L1.9821433316378148 143.8801085141084 L-25.730669589464185 151.8801085141084 L-41.730669589464185 138.02370205355737 L-14.017856668362185 130.02370205355737" stroke-linecap="square"/>
		<path opacity="0.5" fill="orange" d="M-14.017856668362185 157.73651497465943 L1.9821433316378148 171.59292143521043 L-25.730669589464185 179.59292143521043 L-41.730669589464185 165.73651497465943 L-14.017856668362185 157.73651497465943" stroke-linecap="square"/>
		<text style="fill:black;font-family:calibri;font-size:6" x="-41.730669589464185" y="151.8801085141084" >32</text>
		<text style="fill:black;font-family:calibri;font-size:6" x="-33.730669589464185" y="172.66471820493493" >32</text>
		<text style="fill:black;font-family:calibri;font-size:6" x="-27.874263128913185" y="134.02370205355737" >32</text>

		<path opacity="0.5" fill="orange" d="M255.43593539448986 145.76983597145022 L259.4359353944899 149.23393758658796 L259.4359353944899 156.16214081686348 L255.43593539448986 152.69803920172572 L255.43593539448986 145.76983597145022" stroke-linecap="square"/>
		<path opacity="0.5" fill="orange" d="M200.01030955228578 161.76983597145022 L204.01030955228578 165.23393758658796 L204.01030955228578 172.16214081686348 L200.01030955228578 168.69803920172572 L200.01030955228578 161.76983597145022" stroke-linecap="square"/>
		<path opacity="0.5" fill="orange" d="M255.43593539448986 145.76983597145022 L200.01030955228578 161.76983597145022 L200.01030955228578 168.69803920172572 L255.43593539448986 152.69803920172572 L255.43593539448986 145.76983597145022" stroke-linecap="square"/>
		<path opacity="0.5" fill="orange" d="M259.4359353944899 149.23393758658796 L204.01030955228578 165.23393758658796 L204.01030955228578 172.16214081686348 L259.4359353944899 156.16214081686348 L259.4359353944899 149.23393758658796" stroke-linecap="square"/>
		<path opacity="0.5" fill="orange" d="M255.43593539448986 145.76983597145022 L259.4359353944899 149.23393758658796 L204.01030955228578 165.23393758658796 L200.01030955228578 161.76983597145022 L255.43593539448986 145.76983597145022" stroke-linecap="square"/>
		<path opacity="0.5" fill="orange" d="M255.43593539448986 152.69803920172572 L259.4359353944899 156.16214081686348 L204.01030955228578 172.16214081686348 L200.01030955228578 168.69803920172572 L255.43593539448986 152.69803920172572" stroke-linecap="square"/>
		<text style="fill:black;font-family:calibri;font-size:6" x="200.01030955228578" y="165.23393758658796" >8</text>
		<text style="fill:black;font-family:calibri;font-size:6" x="202.01030955228578" y="170.4300900092946" >8</text>
		<text style="fill:black;font-family:calibri;font-size:6" x="227.72312247338783" y="153.76983597145022" >64</text>

		<path opacity="0.75" fill="pink" d="M-78.88860623273615 156.67318911482985 L-73.88860623273615 161.00331613375204 L-32.25105185079616 163.59304919692224 L-78.88860623273615 156.67318911482985"/>
		<path opacity="0.75" fill="pink" d="M-78.88860623273615 156.67318911482985 L-78.88860623273615 165.33344315267425 L-32.25105185079616 163.59304919692224 L-78.88860623273615 156.67318911482985"/>
		<path opacity="0.75" fill="pink" d="M-73.88860623273615 161.00331613375204 L-73.88860623273615 169.66357017159643 L-32.25105185079616 163.59304919692224 L-73.88860623273615 161.00331613375204"/>
		<path opacity="0.75" fill="pink" d="M-78.88860623273615 165.33344315267425 L-73.88860623273615 169.66357017159643 L-32.25105185079616 163.59304919692224 L-78.88860623273615 165.33344315267425"/>

		<text style="fill:black;font-family:calibri;font-size:6" x="-61.67608810542282" y="155.63311915587605" >[10,10]</text>
		<path opacity="0.75" fill="darkturquoise" d="M-78.88860623273615 156.67318911482985 L-73.88860623273615 161.00331613375204 L-73.88860623273615 169.66357017159643 L-78.88860623273615 165.33344315267425 L-78.88860623273615 156.67318911482985" stroke-linecap="square"/>
		<path opacity="0.75" fill="darkturquoise" d="M-96.20911430842494 161.67318911482985 L-91.20911430842494 166.00331613375204 L-91.20911430842494 174.66357017159643 L-96.20911430842494 170.33344315267425 L-96.20911430842494 161.67318911482985" stroke-linecap="square"/>
		<path opacity="0.75" fill="darkturquoise" d="M-78.88860623273615 156.67318911482985 L-96.20911430842494 161.67318911482985 L-96.20911430842494 170.33344315267425 L-78.88860623273615 165.33344315267425 L-78.88860623273615 156.67318911482985" stroke-linecap="square"/>
		<path opacity="0.75" fill="darkturquoise" d="M-73.88860623273615 161.00331613375204 L-91.20911430842494 166.00331613375204 L-91.20911430842494 174.66357017159643 L-73.88860623273615 169.66357017159643 L-73.88860623273615 161.00331613375204" stroke-linecap="square"/>
		<path opacity="0.75" fill="darkturquoise" d="M-78.88860623273615 156.67318911482985 L-73.88860623273615 161.00331613375204 L-91.20911430842494 166.00331613375204 L-96.20911430842494 161.67318911482985 L-78.88860623273615 156.67318911482985" stroke-linecap="square"/>
		<path opacity="0.75" fill="darkturquoise" d="M-78.88860623273615 165.33344315267425 L-73.88860623273615 169.66357017159643 L-91.20911430842494 174.66357017159643 L-96.20911430842494 170.33344315267425 L-78.88860623273615 165.33344315267425" stroke-linecap="square"/>
		<path opacity="0.5" fill="lavender" d="M-85.03193977868614 150.52370205355737 L-69.03193977868614 164.3801085141084 L-69.03193977868614 192.09292143521043 L-85.03193977868614 178.23651497465943 L-85.03193977868614 150.52370205355737" stroke-linecap="square"/>
		<path opacity="0.5" fill="lavender" d="M-102.35244785437493 155.52370205355737 L-86.35244785437493 169.3801085141084 L-86.35244785437493 197.09292143521043 L-102.35244785437493 183.23651497465943 L-102.35244785437493 155.52370205355737" stroke-linecap="square"/>
		<path opacity="0.5" fill="lavender" d="M-85.03193977868614 150.52370205355737 L-102.35244785437493 155.52370205355737 L-102.35244785437493 183.23651497465943 L-85.03193977868614 178.23651497465943 L-85.03193977868614 150.52370205355737" stroke-linecap="square"/>
		<path opacity="0.5" fill="lavender" d="M-69.03193977868614 164.3801085141084 L-86.35244785437493 169.3801085141084 L-86.35244785437493 197.09292143521043 L-69.03193977868614 192.09292143521043 L-69.03193977868614 164.3801085141084" stroke-linecap="square"/>
		<path opacity="0.5" fill="lavender" d="M-85.03193977868614 150.52370205355737 L-69.03193977868614 164.3801085141084 L-86.35244785437493 169.3801085141084 L-102.35244785437493 155.52370205355737 L-85.03193977868614 150.52370205355737" stroke-linecap="square"/>
		<path opacity="0.5" fill="lavender" d="M-85.03193977868614 178.23651497465943 L-69.03193977868614 192.09292143521043 L-86.35244785437493 197.09292143521043 L-102.35244785437493 183.23651497465943 L-85.03193977868614 178.23651497465943" stroke-linecap="square"/>
		<text style="fill:black;font-family:calibri;font-size:6" x="-102.35244785437493" y="169.3801085141084" >32</text>
		<text style="fill:black;font-family:calibri;font-size:6" x="-94.35244785437493" y="190.16471820493493" >32</text>
		<text style="fill:black;font-family:calibri;font-size:6" x="-93.69219381653053" y="153.02370205355737" >20</text>

		<path opacity="0.75" fill="pink" d="M157.96812884949557 172.885886326201 L160.46812884949557 175.05094983566207 L202.70120790876348 166.94857860230357 L157.96812884949557 172.885886326201"/>
		<path opacity="0.75" fill="pink" d="M157.96812884949557 172.885886326201 L157.96812884949557 177.21601334512317 L202.70120790876348 166.94857860230357 L157.96812884949557 172.885886326201"/>
		<path opacity="0.75" fill="pink" d="M160.46812884949557 175.05094983566207 L160.46812884949557 179.38107685458425 L202.70120790876348 166.94857860230357 L160.46812884949557 175.05094983566207"/>
		<path opacity="0.75" fill="pink" d="M157.96812884949557 177.21601334512317 L160.46812884949557 179.38107685458425 L202.70120790876348 166.94857860230357 L157.96812884949557 177.21601334512317"/>

		<text style="fill:black;font-family:calibri;font-size:6" x="173.7124885359182" y="165.41723246425227" >[5,5]</text>
		<path opacity="0.75" fill="darkturquoise" d="M157.96812884949557 172.885886326201 L160.46812884949557 175.05094983566207 L160.46812884949557 179.38107685458425 L157.96812884949557 177.21601334512317 L157.96812884949557 172.885886326201" stroke-linecap="square"/>
		<path opacity="0.75" fill="darkturquoise" d="M102.54250300729151 188.885886326201 L105.04250300729151 191.05094983566207 L105.04250300729151 195.38107685458425 L102.54250300729151 193.21601334512317 L102.54250300729151 188.885886326201" stroke-linecap="square"/>
		<path opacity="0.75" fill="darkturquoise" d="M157.96812884949557 172.885886326201 L102.54250300729151 188.885886326201 L102.54250300729151 193.21601334512317 L157.96812884949557 177.21601334512317 L157.96812884949557 172.885886326201" stroke-linecap="square"/>
		<path opacity="0.75" fill="darkturquoise" d="M160.46812884949557 175.05094983566207 L105.04250300729151 191.05094983566207 L105.04250300729151 195.38107685458425 L160.46812884949557 179.38107685458425 L160.46812884949557 175.05094983566207" stroke-linecap="square"/>
		<path opacity="0.75" fill="darkturquoise" d="M157.96812884949557 172.885886326201 L160.46812884949557 175.05094983566207 L105.04250300729151 191.05094983566207 L102.54250300729151 188.885886326201 L157.96812884949557 172.885886326201" stroke-linecap="square"/>
		<path opacity="0.75" fill="darkturquoise" d="M157.96812884949557 177.21601334512317 L160.46812884949557 179.38107685458425 L105.04250300729151 195.38107685458425 L102.54250300729151 193.21601334512317 L157.96812884949557 177.21601334512317" stroke-linecap="square"/>
		<path opacity="0.5" fill="orange" d="M154.70903936306385 169.0736835487436 L162.70903936306385 176.0018867790191 L162.70903936306385 189.85829323957012 L154.70903936306385 182.9300900092946 L154.70903936306385 169.0736835487436" stroke-linecap="square"/>
		<path opacity="0.5" fill="orange" d="M99.2834135208598 185.0736835487436 L107.2834135208598 192.0018867790191 L107.2834135208598 205.85829323957012 L99.2834135208598 198.9300900092946 L99.2834135208598 185.0736835487436" stroke-linecap="square"/>
		<path opacity="0.5" fill="orange" d="M154.70903936306385 169.0736835487436 L99.2834135208598 185.0736835487436 L99.2834135208598 198.9300900092946 L154.70903936306385 182.9300900092946 L154.70903936306385 169.0736835487436" stroke-linecap="square"/>
		<path opacity="0.5" fill="orange" d="M162.70903936306385 176.0018867790191 L107.2834135208598 192.0018867790191 L107.2834135208598 205.85829323957012 L162.70903936306385 189.85829323957012 L162.70903936306385 176.0018867790191" stroke-linecap="square"/>
		<path opacity="0.5" fill="orange" d="M154.70903936306385 169.0736835487436 L162.70903936306385 176.0018867790191 L107.2834135208598 192.0018867790191 L99.2834135208598 185.0736835487436 L154.70903936306385 169.0736835487436" stroke-linecap="square"/>
		<path opacity="0.5" fill="orange" d="M154.70903936306385 182.9300900092946 L162.70903936306385 189.85829323957012 L107.2834135208598 205.85829323957012 L99.2834135208598 198.9300900092946 L154.70903936306385 182.9300900092946" stroke-linecap="square"/>
		<text style="fill:black;font-family:calibri;font-size:6" x="99.2834135208598" y="192.0018867790191" >16</text>
		<text style="fill:black;font-family:calibri;font-size:6" x="103.2834135208598" y="202.39419162443235" >16</text>
		<text style="fill:black;font-family:calibri;font-size:6" x="126.99622644196182" y="177.0736835487436" >64</text>

		<path opacity="0.75" fill="pink" d="M57.62414080516547 211.77722983733042 L60.12414080516547 213.9422933467915 L99.62821345501524 193.05236490757676 L57.62414080516547 211.77722983733042"/>
		<path opacity="0.75" fill="pink" d="M57.62414080516547 211.77722983733042 L57.62414080516547 216.1073568562526 L99.62821345501524 193.05236490757676 L57.62414080516547 211.77722983733042"/>
		<path opacity="0.75" fill="pink" d="M60.12414080516547 213.9422933467915 L60.12414080516547 218.27242036571369 L99.62821345501524 193.05236490757676 L60.12414080516547 213.9422933467915"/>
		<path opacity="0.75" fill="pink" d="M57.62414080516547 216.1073568562526 L60.12414080516547 218.27242036571369 L99.62821345501524 193.05236490757676 L57.62414080516547 216.1073568562526"/>

		<text style="fill:black;font-family:calibri;font-size:6" x="72.45883168844873" y="197.9147973724536" >[5,5]</text>
		<path opacity="0.75" fill="darkturquoise" d="M57.62414080516547 211.77722983733042 L60.12414080516547 213.9422933467915 L60.12414080516547 218.27242036571369 L57.62414080516547 216.1073568562526 L57.62414080516547 211.77722983733042" stroke-linecap="square"/>
		<path opacity="0.75" fill="darkturquoise" d="M29.911327884063468 219.77722983733042 L32.41132788406347 221.9422933467915 L32.41132788406347 226.27242036571369 L29.911327884063468 224.1073568562526 L29.911327884063468 219.77722983733042" stroke-linecap="square"/>
		<path opacity="0.75" fill="darkturquoise" d="M57.62414080516547 211.77722983733042 L29.911327884063468 219.77722983733042 L29.911327884063468 224.1073568562526 L57.62414080516547 216.1073568562526 L57.62414080516547 211.77722983733042" stroke-linecap="square"/>
		<path opacity="0.75" fill="darkturquoise" d="M60.12414080516547 213.9422933467915 L32.41132788406347 221.9422933467915 L32.41132788406347 226.27242036571369 L60.12414080516547 218.27242036571369 L60.12414080516547 213.9422933467915" stroke-linecap="square"/>
		<path opacity="0.75" fill="darkturquoise" d="M57.62414080516547 211.77722983733042 L60.12414080516547 213.9422933467915 L32.41132788406347 221.9422933467915 L29.911327884063468 219.77722983733042 L57.62414080516547 211.77722983733042" stroke-linecap="square"/>
		<path opacity="0.75" fill="darkturquoise" d="M57.62414080516547 216.1073568562526 L60.12414080516547 218.27242036571369 L32.41132788406347 226.27242036571369 L29.911327884063468 224.1073568562526 L57.62414080516547 216.1073568562526" stroke-linecap="square"/>
		<path opacity="0.5" fill="orange" d="M51.98214333163784 187.18137870333032 L67.98214333163784 201.03778516388132 L67.98214333163784 228.75059808498338 L51.98214333163784 214.89419162443238 L51.98214333163784 187.18137870333032" stroke-linecap="square"/>
		<path opacity="0.5" fill="orange" d="M24.269330410535844 195.18137870333032 L40.269330410535844 209.03778516388132 L40.269330410535844 236.75059808498338 L24.269330410535844 222.89419162443238 L24.269330410535844 195.18137870333032" stroke-linecap="square"/>
		<path opacity="0.5" fill="orange" d="M51.98214333163784 187.18137870333032 L24.269330410535844 195.18137870333032 L24.269330410535844 222.89419162443238 L51.98214333163784 214.89419162443238 L51.98214333163784 187.18137870333032" stroke-linecap="square"/>
		<path opacity="0.5" fill="orange" d="M67.98214333163784 201.03778516388132 L40.269330410535844 209.03778516388132 L40.269330410535844 236.75059808498338 L67.98214333163784 228.75059808498338 L67.98214333163784 201.03778516388132" stroke-linecap="square"/>
		<path opacity="0.5" fill="orange" d="M51.98214333163784 187.18137870333032 L67.98214333163784 201.03778516388132 L40.269330410535844 209.03778516388132 L24.269330410535844 195.18137870333032 L51.98214333163784 187.18137870333032" stroke-linecap="square"/>
		<path opacity="0.5" fill="orange" d="M51.98214333163784 214.89419162443238 L67.98214333163784 228.75059808498338 L40.269330410535844 236.75059808498338 L24.269330410535844 222.89419162443238 L51.98214333163784 214.89419162443238" stroke-linecap="square"/>
		<text style="fill:black;font-family:calibri;font-size:6" x="24.269330410535844" y="209.03778516388135" >32</text>
		<text style="fill:black;font-family:calibri;font-size:6" x="32.269330410535844" y="229.82239485470788" >32</text>
		<text style="fill:black;font-family:calibri;font-size:6" x="38.12573687108684" y="191.18137870333032" >32</text>

		<path opacity="0.75" fill="pink" d="M-9.497345639743457 225.29417657190444 L-4.4973456397434575 229.62430359082666 L26.835527457103552 222.70712465390665 L-9.497345639743457 225.29417657190444"/>
		<path opacity="0.75" fill="pink" d="M-9.497345639743457 225.29417657190444 L-9.497345639743457 233.95443060974884 L26.835527457103552 222.70712465390665 L-9.497345639743457 225.29417657190444"/>
		<path opacity="0.75" fill="pink" d="M-4.4973456397434575 229.62430359082666 L-4.4973456397434575 238.284557628671 L26.835527457103552 222.70712465390665 L-4.4973456397434575 229.62430359082666"/>
		<path opacity="0.75" fill="pink" d="M-9.497345639743457 233.95443060974884 L-4.4973456397434575 238.284557628671 L26.835527457103552 222.70712465390665 L-9.497345639743457 233.95443060974884"/>

		<text style="fill:black;font-family:calibri;font-size:6" x="4.280278725872212" y="219.50065061290553" >[10,10]</text>
		<path opacity="0.75" fill="darkturquoise" d="M-9.497345639743457 225.29417657190444 L-4.4973456397434575 229.62430359082666 L-4.4973456397434575 238.284557628671 L-9.497345639743457 233.95443060974884 L-9.497345639743457 225.29417657190444" stroke-linecap="square"/>
		<path opacity="0.75" fill="darkturquoise" d="M-26.817853715432307 230.29417657190444 L-21.817853715432307 234.62430359082668 L-21.817853715432307 243.284557628671 L-26.817853715432307 238.95443060974884 L-26.817853715432307 230.29417657190444" stroke-linecap="square"/>
		<path opacity="0.75" fill="darkturquoise" d="M-9.497345639743457 225.29417657190444 L-26.817853715432307 230.29417657190444 L-26.817853715432307 238.95443060974884 L-9.497345639743457 233.95443060974884 L-9.497345639743457 225.29417657190444" stroke-linecap="square"/>
		<path opacity="0.75" fill="darkturquoise" d="M-4.4973456397434575 229.62430359082666 L-21.817853715432307 234.62430359082668 L-21.817853715432307 243.284557628671 L-4.4973456397434575 238.284557628671 L-4.4973456397434575 229.62430359082666" stroke-linecap="square"/>
		<path opacity="0.75" fill="darkturquoise" d="M-9.497345639743457 225.29417657190444 L-4.4973456397434575 229.62430359082666 L-21.817853715432307 234.62430359082668 L-26.817853715432307 230.29417657190444 L-9.497345639743457 225.29417657190444" stroke-linecap="square"/>
		<path opacity="0.75" fill="darkturquoise" d="M-9.497345639743457 233.95443060974884 L-4.4973456397434575 238.284557628671 L-21.817853715432307 243.284557628671 L-26.817853715432307 238.95443060974884 L-9.497345639743457 233.95443060974884" stroke-linecap="square"/>
		<path opacity="0.5" fill="lavender" d="M-19.031939778686137 207.68137870333032 L-3.0319397786861373 221.53778516388132 L-3.0319397786861373 249.25059808498338 L-19.031939778686137 235.39419162443238 L-19.031939778686137 207.68137870333032" stroke-linecap="square"/>
		<path opacity="0.5" fill="lavender" d="M-36.35244785437487 212.68137870333032 L-20.352447854374873 226.53778516388132 L-20.352447854374873 254.25059808498338 L-36.35244785437487 240.39419162443238 L-36.35244785437487 212.68137870333032" stroke-linecap="square"/>
		<path opacity="0.5" fill="lavender" d="M-19.031939778686137 207.68137870333032 L-36.35244785437487 212.68137870333032 L-36.35244785437487 240.39419162443238 L-19.031939778686137 235.39419162443238 L-19.031939778686137 207.68137870333032" stroke-linecap="square"/>
		<path opacity="0.5" fill="lavender" d="M-3.0319397786861373 221.53778516388132 L-20.352447854374873 226.53778516388132 L-20.352447854374873 254.25059808498338 L-3.0319397786861373 249.25059808498338 L-3.0319397786861373 221.53778516388132" stroke-linecap="square"/>
		<path opacity="0.5" fill="lavender" d="M-19.031939778686137 207.68137870333032 L-3.0319397786861373 221.53778516388132 L-20.352447854374873 226.53778516388132 L-36.35244785437487 212.68137870333032 L-19.031939778686137 207.68137870333032" stroke-linecap="square"/>
		<path opacity="0.5" fill="lavender" d="M-19.031939778686137 235.39419162443238 L-3.0319397786861373 249.25059808498338 L-20.352447854374873 254.25059808498338 L-36.35244785437487 240.39419162443238 L-19.031939778686137 235.39419162443238" stroke-linecap="square"/>
		<text style="fill:black;font-family:calibri;font-size:6" x="-36.35244785437487" y="226.53778516388135" >32</text>
		<text style="fill:black;font-family:calibri;font-size:6" x="-28.352447854374873" y="247.32239485470788" >32</text>
		<text style="fill:black;font-family:calibri;font-size:6" x="-27.692193816530505" y="210.18137870333032" >20</text>

	 </g>
</svg>