<svg width="2000.0px" height="1000.0px" viewBox="-500.0 -500.0 1000.0 1000.0" xmlns="http://www.w3.org/2000/svg">
	<g stroke="black" stroke-width="0.3">
		<path opacity="0.5" fill="orange" d="M386.5470588025886 -101.19421938165306 L390.5470588025886 -97.73011776651529 L390.5470588025886 -90.80191453623979 L386.5470588025886 -94.26601615137753 L386.5470588025886 -101.19421938165306"/>
		<path opacity="0.5" fill="orange" d="M331.12143296038454 -85.19421938165306 L335.12143296038454 -81.73011776651529 L335.12143296038454 -74.80191453623979 L331.12143296038454 -78.26601615137753 L331.12143296038454 -85.19421938165306"/>
		<path opacity="0.5" fill="orange" d="M386.5470588025886 -101.19421938165306 L331.12143296038454 -85.19421938165306 L331.12143296038454 -78.26601615137753 L386.5470588025886 -94.26601615137753 L386.5470588025886 -101.19421938165306"/>
		<path opacity="0.5" fill="orange" d="M390.5470588025886 -97.73011776651529 L335.12143296038454 -81.73011776651529 L335.12143296038454 -74.80191453623979 L390.5470588025886 -90.80191453623979 L390.5470588025886 -97.73011776651529"/>
		<path opacity="0.5" fill="orange" d="M386.5470588025886 -101.19421938165306 L390.5470588025886 -97.73011776651529 L335.12143296038454 -81.73011776651529 L331.12143296038454 -85.19421938165306 L386.5470588025886 -101.19421938165306"/>
		<path opacity="0.5" fill="orange" d="M386.5470588025886 -94.26601615137753 L390.5470588025886 -90.80191453623979 L335.12143296038454 -74.80191453623979 L331.12143296038454 -78.26601615137753 L386.5470588025886 -94.26601615137753"/>
		<text x="331.12143296038454" y="-81.73011776651529" font-family="calibri" font-size="4">8</text>
		<text x="333.12143296038454" y="-76.53396534380866" font-family="calibri" font-size="4">8</text>
		<text x="358.8342458814866" y="-93.19421938165306" font-family="calibri" font-size="4">64</text>

		<path opacity="0.75" fill="darkturquoise" d="M591.941250427021 -171.45607040843177 L596.941250427021 -167.1259433895096 L596.941250427021 6.079137367378181 L591.941250427021 1.7490103484559825 L591.941250427021 -171.45607040843177"/>
		<path opacity="0.75" fill="darkturquoise" d="M583.2809963891766 -168.95607040843177 L588.2809963891766 -164.6259433895096 L588.2809963891766 8.57913736737818 L583.2809963891766 4.2490103484559825 L583.2809963891766 -168.95607040843177"/>
		<path opacity="0.75" fill="darkturquoise" d="M591.941250427021 -171.45607040843177 L583.2809963891766 -168.95607040843177 L583.2809963891766 4.2490103484559825 L591.941250427021 1.7490103484559825 L591.941250427021 -171.45607040843177"/>
		<path opacity="0.75" fill="darkturquoise" d="M596.941250427021 -167.1259433895096 L588.2809963891766 -164.6259433895096 L588.2809963891766 8.57913736737818 L596.941250427021 6.079137367378181 L596.941250427021 -167.1259433895096"/>
		<path opacity="0.75" fill="darkturquoise" d="M591.941250427021 -171.45607040843177 L596.941250427021 -167.1259433895096 L588.2809963891766 -164.6259433895096 L583.2809963891766 -168.95607040843177 L591.941250427021 -171.45607040843177"/>
		<path opacity="0.75" fill="darkturquoise" d="M591.941250427021 1.7490103484559825 L596.941250427021 6.079137367378181 L588.2809963891766 8.57913736737818 L583.2809963891766 4.2490103484559825 L591.941250427021 1.7490103484559825"/>
		<text x="583.2809963891766" y="-82.3535300299879" font-family="calibri" font-size="4">200</text>
		<text x="585.7809963891766" y="6.4140738579170815" font-family="calibri" font-size="4">10</text>
		<text x="587.6111234080988" y="-170.20607040843177" font-family="calibri" font-size="4">10</text>

<!-- Arrow -->
		<path opacity="0.5" stroke="black" d="M542.4797261999547 -67.68846652052682 L585.7809963891766 -80.18846652052682"/>
		<circle opacity="0.5" cx="585.7809963891766" cy="-80.18846652052682" r="1" fill="black" />
<!-- Arrow -->
		<path opacity="0.5" stroke="black" d="M388.5470588025886 -95.99806695894642 L481.85794793504397 -50.1884665205268"/>
		<circle opacity="0.5" cx="481.85794793504397" cy="-50.1884665205268" r="1" fill="black" />
		<path opacity="0.5" fill="orange" d="M160.08364779650316 -84.31728634059947 L164.08364779650316 -80.8531847254617 L164.08364779650316 -73.9249814951862 L160.08364779650316 -77.38908311032397 L160.08364779650316 -84.31728634059947"/>
		<path opacity="0.5" fill="orange" d="M104.6580219542991 -68.31728634059947 L108.6580219542991 -64.8531847254617 L108.6580219542991 -57.9249814951862 L104.6580219542991 -61.389083110323966 L104.6580219542991 -68.31728634059947"/>
		<path opacity="0.5" fill="orange" d="M160.08364779650316 -84.31728634059947 L104.6580219542991 -68.31728634059947 L104.6580219542991 -61.389083110323966 L160.08364779650316 -77.38908311032397 L160.08364779650316 -84.31728634059947"/>
		<path opacity="0.5" fill="orange" d="M164.08364779650316 -80.8531847254617 L108.6580219542991 -64.8531847254617 L108.6580219542991 -57.9249814951862 L164.08364779650316 -73.9249814951862 L164.08364779650316 -80.8531847254617"/>
		<path opacity="0.5" fill="orange" d="M160.08364779650316 -84.31728634059947 L164.08364779650316 -80.8531847254617 L108.6580219542991 -64.8531847254617 L104.6580219542991 -68.31728634059947 L160.08364779650316 -84.31728634059947"/>
		<path opacity="0.5" fill="orange" d="M160.08364779650316 -77.38908311032397 L164.08364779650316 -73.9249814951862 L108.6580219542991 -57.9249814951862 L104.6580219542991 -61.389083110323966 L160.08364779650316 -77.38908311032397"/>
		<text x="104.6580219542991" y="-64.85318472546172" font-family="calibri" font-size="4">8</text>
		<text x="106.6580219542991" y="-59.657032302755084" font-family="calibri" font-size="4">8</text>
		<text x="132.37083487540113" y="-76.31728634059947" font-family="calibri" font-size="4">64</text>

		<path opacity="0.75" fill="pink" d="M289.17093603333603 -69.50255066466443 L291.67093603333603 -67.33748715520333 L333.7114167803644 -82.32880188151594 L289.17093603333603 -69.50255066466443"/>
		<path opacity="0.75" fill="pink" d="M289.17093603333603 -69.50255066466443 L289.17093603333603 -65.17242364574223 L333.7114167803644 -82.32880188151594 L289.17093603333603 -69.50255066466443"/>
		<path opacity="0.75" fill="pink" d="M291.67093603333603 -67.33748715520333 L291.67093603333603 -63.007360136281136 L333.7114167803644 -82.32880188151594 L291.67093603333603 -67.33748715520333"/>
		<path opacity="0.75" fill="pink" d="M289.17093603333603 -65.17242364574223 L291.67093603333603 -63.007360136281136 L333.7114167803644 -82.32880188151594 L289.17093603333603 -65.17242364574223"/>

		<path opacity="0.75" fill="darkturquoise" d="M539.9797261999547 -156.45607040843177 L544.9797261999547 -152.1259433895096 L544.9797261999547 21.07913736737818 L539.9797261999547 16.749010348455982 L539.9797261999547 -156.45607040843177"/>
		<path opacity="0.75" fill="darkturquoise" d="M531.3194721621103 -153.95607040843177 L536.3194721621103 -149.6259433895096 L536.3194721621103 23.57913736737818 L531.3194721621103 19.249010348455982 L531.3194721621103 -153.95607040843177"/>
		<path opacity="0.75" fill="darkturquoise" d="M539.9797261999547 -156.45607040843177 L531.3194721621103 -153.95607040843177 L531.3194721621103 19.249010348455982 L539.9797261999547 16.749010348455982 L539.9797261999547 -156.45607040843177"/>
		<path opacity="0.75" fill="darkturquoise" d="M544.9797261999547 -152.1259433895096 L536.3194721621103 -149.6259433895096 L536.3194721621103 23.57913736737818 L544.9797261999547 21.07913736737818 L544.9797261999547 -152.1259433895096"/>
		<path opacity="0.75" fill="darkturquoise" d="M539.9797261999547 -156.45607040843177 L544.9797261999547 -152.1259433895096 L536.3194721621103 -149.6259433895096 L531.3194721621103 -153.95607040843177 L539.9797261999547 -156.45607040843177"/>
		<path opacity="0.75" fill="darkturquoise" d="M539.9797261999547 16.749010348455982 L544.9797261999547 21.07913736737818 L536.3194721621103 23.57913736737818 L531.3194721621103 19.249010348455982 L539.9797261999547 16.749010348455982"/>
		<text x="531.3194721621103" y="-67.3535300299879" font-family="calibri" font-size="4">200</text>
		<text x="533.8194721621103" y="21.41407385791708" font-family="calibri" font-size="4">10</text>
		<text x="535.6495991810325" y="-155.20607040843177" font-family="calibri" font-size="4">10</text>

<!-- Arrow -->
		<path opacity="0.5" stroke="black" d="M162.08364779650316 -79.12113391789283 L234.39453692895853 -51.49806695894642"/>
		<circle opacity="0.5" cx="234.39453692895853" cy="-51.49806695894642" r="1" fill="black" />
<!-- Arrow -->
		<path opacity="0.5" stroke="black" d="M490.51820197288833 -52.6884665205268 L533.8194721621103 -65.18846652052682"/>
		<circle opacity="0.5" cx="533.8194721621103" cy="-65.18846652052682" r="1" fill="black" />
		<path opacity="0.75" fill="darkturquoise" d="M289.17093603333603 -69.50255066466443 L291.67093603333603 -67.33748715520333 L291.67093603333603 -63.007360136281136 L289.17093603333603 -65.17242364574223 L289.17093603333603 -69.50255066466443"/>
		<path opacity="0.75" fill="darkturquoise" d="M233.74531019113198 -53.502550664664426 L236.24531019113198 -51.337487155203334 L236.24531019113198 -47.007360136281136 L233.74531019113198 -49.17242364574223 L233.74531019113198 -53.502550664664426"/>
		<path opacity="0.75" fill="darkturquoise" d="M289.17093603333603 -69.50255066466443 L233.74531019113198 -53.502550664664426 L233.74531019113198 -49.17242364574223 L289.17093603333603 -65.17242364574223 L289.17093603333603 -69.50255066466443"/>
		<path opacity="0.75" fill="darkturquoise" d="M291.67093603333603 -67.33748715520333 L236.24531019113198 -51.337487155203334 L236.24531019113198 -47.007360136281136 L291.67093603333603 -63.007360136281136 L291.67093603333603 -67.33748715520333"/>
		<path opacity="0.75" fill="darkturquoise" d="M289.17093603333603 -69.50255066466443 L291.67093603333603 -67.33748715520333 L236.24531019113198 -51.337487155203334 L233.74531019113198 -53.502550664664426 L289.17093603333603 -69.50255066466443"/>
		<path opacity="0.75" fill="darkturquoise" d="M289.17093603333603 -65.17242364574223 L291.67093603333603 -63.007360136281136 L236.24531019113198 -47.007360136281136 L233.74531019113198 -49.17242364574223 L289.17093603333603 -65.17242364574223"/>
		<text x="233.74531019113198" y="-51.33748715520333" font-family="calibri" font-size="4">5</text>
		<text x="234.99531019113198" y="-48.08989189101168" font-family="calibri" font-size="4">5</text>
		<text x="261.45812311223403" y="-61.502550664664426" font-family="calibri" font-size="4">64</text>

		<path opacity="0.5" fill="orange" d="M287.8201627711626 -72.69421938165306 L291.8201627711626 -69.23011776651529 L291.8201627711626 -62.30191453623979 L287.8201627711626 -65.76601615137753 L287.8201627711626 -72.69421938165306"/>
		<path opacity="0.5" fill="orange" d="M232.39453692895853 -56.69421938165305 L236.39453692895853 -53.2301177665153 L236.39453692895853 -46.30191453623979 L232.39453692895853 -49.766016151377535 L232.39453692895853 -56.69421938165305"/>
		<path opacity="0.5" fill="orange" d="M287.8201627711626 -72.69421938165306 L232.39453692895853 -56.69421938165305 L232.39453692895853 -49.766016151377535 L287.8201627711626 -65.76601615137753 L287.8201627711626 -72.69421938165306"/>
		<path opacity="0.5" fill="orange" d="M291.8201627711626 -69.23011776651529 L236.39453692895853 -53.2301177665153 L236.39453692895853 -46.30191453623979 L291.8201627711626 -62.30191453623979 L291.8201627711626 -69.23011776651529"/>
		<path opacity="0.5" fill="orange" d="M287.8201627711626 -72.69421938165306 L291.8201627711626 -69.23011776651529 L236.39453692895853 -53.2301177665153 L232.39453692895853 -56.69421938165305 L287.8201627711626 -72.69421938165306"/>
		<path opacity="0.5" fill="orange" d="M287.8201627711626 -65.76601615137753 L291.8201627711626 -62.30191453623979 L236.39453692895853 -46.30191453623979 L232.39453692895853 -49.766016151377535 L287.8201627711626 -65.76601615137753"/>
		<text x="232.39453692895853" y="-53.23011776651529" font-family="calibri" font-size="4">8</text>
		<text x="234.39453692895853" y="-48.03396534380866" font-family="calibri" font-size="4">8</text>
		<text x="260.1073498500606" y="-64.69421938165306" font-family="calibri" font-size="4">64</text>

		<path opacity="0.75" fill="pink" d="M61.806304510316465 -51.17039373581618 L64.30630451031647 -49.005330226355085 L106.33567957417758 -61.237722661142385 L61.806304510316465 -51.17039373581618"/>
		<path opacity="0.75" fill="pink" d="M61.806304510316465 -51.17039373581618 L61.806304510316465 -46.84026671689398 L106.33567957417758 -61.237722661142385 L61.806304510316465 -51.17039373581618"/>
		<path opacity="0.75" fill="pink" d="M64.30630451031647 -49.005330226355085 L64.30630451031647 -44.67520320743289 L106.33567957417758 -61.237722661142385 L64.30630451031647 -49.005330226355085"/>
		<path opacity="0.75" fill="pink" d="M61.806304510316465 -46.84026671689398 L64.30630451031647 -44.67520320743289 L106.33567957417758 -61.237722661142385 L61.806304510316465 -46.84026671689398"/>

		<path opacity="0.75" fill="darkturquoise" d="M488.01820197288833 -141.45607040843177 L493.01820197288833 -137.1259433895096 L493.01820197288833 36.07913736737818 L488.01820197288833 31.749010348455982 L488.01820197288833 -141.45607040843177"/>
		<path opacity="0.75" fill="darkturquoise" d="M479.35794793504397 -138.95607040843177 L484.35794793504397 -134.6259433895096 L484.35794793504397 38.57913736737818 L479.35794793504397 34.24901034845598 L479.35794793504397 -138.95607040843177"/>
		<path opacity="0.75" fill="darkturquoise" d="M488.01820197288833 -141.45607040843177 L479.35794793504397 -138.95607040843177 L479.35794793504397 34.24901034845598 L488.01820197288833 31.749010348455982 L488.01820197288833 -141.45607040843177"/>
		<path opacity="0.75" fill="darkturquoise" d="M493.01820197288833 -137.1259433895096 L484.35794793504397 -134.6259433895096 L484.35794793504397 38.57913736737818 L493.01820197288833 36.07913736737818 L493.01820197288833 -137.1259433895096"/>
		<path opacity="0.75" fill="darkturquoise" d="M488.01820197288833 -141.45607040843177 L493.01820197288833 -137.1259433895096 L484.35794793504397 -134.6259433895096 L479.35794793504397 -138.95607040843177 L488.01820197288833 -141.45607040843177"/>
		<path opacity="0.75" fill="darkturquoise" d="M488.01820197288833 31.749010348455982 L493.01820197288833 36.07913736737818 L484.35794793504397 38.57913736737818 L479.35794793504397 34.24901034845598 L488.01820197288833 31.749010348455982"/>
		<text x="479.35794793504397" y="-52.353530029987894" font-family="calibri" font-size="4">200</text>
		<text x="481.85794793504397" y="36.41407385791708" font-family="calibri" font-size="4">10</text>
		<text x="483.6880749539662" y="-140.20607040843177" font-family="calibri" font-size="4">10</text>

<!-- Arrow -->
		<path opacity="0.5" stroke="black" d="M-50.37976320958228 -50.11984522385711 L7.931125922873093 -34.621133917892834"/>
		<circle opacity="0.5" cx="7.931125922873093" cy="-34.621133917892834" r="1" fill="black" />
		<path opacity="0.75" fill="darkturquoise" d="M61.806304510316465 -51.17039373581618 L64.30630451031647 -49.005330226355085 L64.30630451031647 -44.67520320743289 L61.806304510316465 -46.84026671689398 L61.806304510316465 -51.17039373581618"/>
		<path opacity="0.75" fill="darkturquoise" d="M6.3806786681124095 -35.17039373581618 L8.88067866811241 -33.005330226355085 L8.88067866811241 -28.675203207432887 L6.3806786681124095 -30.84026671689398 L6.3806786681124095 -35.17039373581618"/>
		<path opacity="0.75" fill="darkturquoise" d="M61.806304510316465 -51.17039373581618 L6.3806786681124095 -35.17039373581618 L6.3806786681124095 -30.84026671689398 L61.806304510316465 -46.84026671689398 L61.806304510316465 -51.17039373581618"/>
		<path opacity="0.75" fill="darkturquoise" d="M64.30630451031647 -49.005330226355085 L8.88067866811241 -33.005330226355085 L8.88067866811241 -28.675203207432887 L64.30630451031647 -44.67520320743289 L64.30630451031647 -49.005330226355085"/>
		<path opacity="0.75" fill="darkturquoise" d="M61.806304510316465 -51.17039373581618 L64.30630451031647 -49.005330226355085 L8.88067866811241 -33.005330226355085 L6.3806786681124095 -35.17039373581618 L61.806304510316465 -51.17039373581618"/>
		<path opacity="0.75" fill="darkturquoise" d="M61.806304510316465 -46.84026671689398 L64.30630451031647 -44.67520320743289 L8.88067866811241 -28.675203207432887 L6.3806786681124095 -30.84026671689398 L61.806304510316465 -46.84026671689398"/>
		<text x="6.3806786681124095" y="-33.00533022635508" font-family="calibri" font-size="4">5</text>
		<text x="7.6306786681124095" y="-29.757734962163433" font-family="calibri" font-size="4">5</text>
		<text x="34.09349158921444" y="-43.17039373581618" font-family="calibri" font-size="4">64</text>

		<path opacity="0.5" fill="orange" d="M59.35675176507715 -61.0134387633061 L67.35675176507715 -54.0852355330306 L67.35675176507715 -40.22882907247958 L59.35675176507715 -47.15703230275507 L59.35675176507715 -61.0134387633061"/>
		<path opacity="0.5" fill="orange" d="M3.9311259228730933 -45.0134387633061 L11.931125922873093 -38.0852355330306 L11.931125922873093 -24.228829072479577 L3.9311259228730933 -31.15703230275507 L3.9311259228730933 -45.0134387633061"/>
		<path opacity="0.5" fill="orange" d="M59.35675176507715 -61.0134387633061 L3.9311259228730933 -45.0134387633061 L3.9311259228730933 -31.15703230275507 L59.35675176507715 -47.15703230275507 L59.35675176507715 -61.0134387633061"/>
		<path opacity="0.5" fill="orange" d="M67.35675176507715 -54.0852355330306 L11.931125922873093 -38.0852355330306 L11.931125922873093 -24.228829072479577 L67.35675176507715 -40.22882907247958 L67.35675176507715 -54.0852355330306"/>
		<path opacity="0.5" fill="orange" d="M59.35675176507715 -61.0134387633061 L67.35675176507715 -54.0852355330306 L11.931125922873093 -38.0852355330306 L3.9311259228730933 -45.0134387633061 L59.35675176507715 -61.0134387633061"/>
		<path opacity="0.5" fill="orange" d="M59.35675176507715 -47.15703230275507 L67.35675176507715 -40.22882907247958 L11.931125922873093 -24.228829072479577 L3.9311259228730933 -31.15703230275507 L59.35675176507715 -47.15703230275507"/>
		<text x="3.9311259228730933" y="-38.085235533030584" font-family="calibri" font-size="4">16</text>
		<text x="7.931125922873093" y="-27.692930687617324" font-family="calibri" font-size="4">16</text>
		<text x="31.64393884397512" y="-53.0134387633061" font-family="calibri" font-size="4">64</text>

		<path opacity="0.5" fill="orange" d="M-54.37976320958228 -60.512150069270376 L-46.37976320958228 -53.583946838994876 L-46.37976320958228 -39.72754037844385 L-54.37976320958228 -46.65574360871935 L-54.37976320958228 -60.512150069270376"/>
		<path opacity="0.5" fill="orange" d="M-109.80538905178634 -44.512150069270376 L-101.80538905178634 -37.583946838994876 L-101.80538905178634 -23.727540378443848 L-109.80538905178634 -30.655743608719348 L-109.80538905178634 -44.512150069270376"/>
		<path opacity="0.5" fill="orange" d="M-54.37976320958228 -60.512150069270376 L-109.80538905178634 -44.512150069270376 L-109.80538905178634 -30.655743608719348 L-54.37976320958228 -46.65574360871935 L-54.37976320958228 -60.512150069270376"/>
		<path opacity="0.5" fill="orange" d="M-46.37976320958228 -53.583946838994876 L-101.80538905178634 -37.583946838994876 L-101.80538905178634 -23.727540378443848 L-46.37976320958228 -39.72754037844385 L-46.37976320958228 -53.583946838994876"/>
		<path opacity="0.5" fill="orange" d="M-54.37976320958228 -60.512150069270376 L-46.37976320958228 -53.583946838994876 L-101.80538905178634 -37.583946838994876 L-109.80538905178634 -44.512150069270376 L-54.37976320958228 -60.512150069270376"/>
		<path opacity="0.5" fill="orange" d="M-54.37976320958228 -46.65574360871935 L-46.37976320958228 -39.72754037844385 L-101.80538905178634 -23.727540378443848 L-109.80538905178634 -30.655743608719348 L-54.37976320958228 -46.65574360871935"/>
		<text x="-109.80538905178634" y="-37.58394683899486" font-family="calibri" font-size="4">16</text>
		<text x="-105.80538905178634" y="-27.191641993581598" font-family="calibri" font-size="4">16</text>
		<text x="-82.09257613068431" y="-52.512150069270376" font-family="calibri" font-size="4">64</text>

		<path opacity="0.75" fill="pink" d="M-155.7481442467094 -20.18009254007366 L-153.2481442467094 -18.015029030612553 L-105.04021135661287 -30.647682428914663 L-155.7481442467094 -20.18009254007366"/>
		<path opacity="0.75" fill="pink" d="M-155.7481442467094 -20.18009254007366 L-155.7481442467094 -15.84996552115146 L-105.04021135661287 -30.647682428914663 L-155.7481442467094 -20.18009254007366"/>
		<path opacity="0.75" fill="pink" d="M-153.2481442467094 -18.015029030612553 L-153.2481442467094 -13.684902011690355 L-105.04021135661287 -30.647682428914663 L-153.2481442467094 -18.015029030612553"/>
		<path opacity="0.75" fill="pink" d="M-155.7481442467094 -15.84996552115146 L-153.2481442467094 -13.684902011690355 L-105.04021135661287 -30.647682428914663 L-155.7481442467094 -15.84996552115146"/>

<!-- Arrow -->
		<path opacity="0.5" stroke="black" d="M5.620236790417721 -1.6224226119285525 L234.39453692895853 -51.49806695894642"/>
		<circle opacity="0.5" cx="234.39453692895853" cy="-51.49806695894642" r="1" fill="black" />
<!-- Arrow -->
		<path opacity="0.5" stroke="black" d="M5.620236790417721 -1.6224226119285525 L481.85794793504397 -50.1884665205268"/>
		<circle opacity="0.5" cx="481.85794793504397" cy="-50.1884665205268" r="1" fill="black" />
<!-- Arrow -->
		<path opacity="0.5" stroke="black" d="M5.620236790417721 -1.6224226119285525 L7.931125922873093 -34.621133917892834"/>
		<circle opacity="0.5" cx="7.931125922873093" cy="-34.621133917892834" r="1" fill="black" />
<!-- Arrow -->
		<path opacity="0.5" stroke="black" d="M160.34713282184376 18.375 L234.39453692895853 -51.49806695894642"/>
		<circle opacity="0.5" cx="234.39453692895853" cy="-51.49806695894642" r="1" fill="black" />
		<path opacity="0.75" fill="darkturquoise" d="M-155.7481442467094 -20.18009254007366 L-153.2481442467094 -18.015029030612553 L-153.2481442467094 -13.684902011690355 L-155.7481442467094 -15.84996552115146 L-155.7481442467094 -20.18009254007366"/>
		<path opacity="0.75" fill="darkturquoise" d="M-183.46095716781144 -12.180092540073659 L-180.96095716781144 -10.015029030612553 L-180.96095716781144 -5.684902011690355 L-183.46095716781144 -7.849965521151461 L-183.46095716781144 -12.180092540073659"/>
		<path opacity="0.75" fill="darkturquoise" d="M-155.7481442467094 -20.18009254007366 L-183.46095716781144 -12.180092540073659 L-183.46095716781144 -7.849965521151461 L-155.7481442467094 -15.84996552115146 L-155.7481442467094 -20.18009254007366"/>
		<path opacity="0.75" fill="darkturquoise" d="M-153.2481442467094 -18.015029030612553 L-180.96095716781144 -10.015029030612553 L-180.96095716781144 -5.684902011690355 L-153.2481442467094 -13.684902011690355 L-153.2481442467094 -18.015029030612553"/>
		<path opacity="0.75" fill="darkturquoise" d="M-155.7481442467094 -20.18009254007366 L-153.2481442467094 -18.015029030612553 L-180.96095716781144 -10.015029030612553 L-183.46095716781144 -12.180092540073659 L-155.7481442467094 -20.18009254007366"/>
		<path opacity="0.75" fill="darkturquoise" d="M-155.7481442467094 -15.84996552115146 L-153.2481442467094 -13.684902011690355 L-180.96095716781144 -5.684902011690355 L-183.46095716781144 -7.849965521151461 L-155.7481442467094 -15.84996552115146"/>
		<text x="-183.46095716781144" y="-10.01502903061256" font-family="calibri" font-size="4">5</text>
		<text x="-182.21095716781144" y="-6.767433766420908" font-family="calibri" font-size="4">5</text>
		<text x="-169.60455070726042" y="-16.18009254007366" font-family="calibri" font-size="4">32</text>

		<path opacity="0.5" fill="orange" d="M-157.1066592410083 -42.404454914683626 L-141.1066592410083 -28.548048454132612 L-141.1066592410083 -0.8352355330305841 L-157.1066592410083 -14.691641993581598 L-157.1066592410083 -42.404454914683626"/>
		<path opacity="0.5" fill="orange" d="M-184.8194721621103 -34.404454914683626 L-168.8194721621103 -20.548048454132612 L-168.8194721621103 7.164764466969416 L-184.8194721621103 -6.691641993581598 L-184.8194721621103 -34.404454914683626"/>
		<path opacity="0.5" fill="orange" d="M-157.1066592410083 -42.404454914683626 L-184.8194721621103 -34.404454914683626 L-184.8194721621103 -6.691641993581598 L-157.1066592410083 -14.691641993581598 L-157.1066592410083 -42.404454914683626"/>
		<path opacity="0.5" fill="orange" d="M-141.1066592410083 -28.548048454132612 L-168.8194721621103 -20.548048454132612 L-168.8194721621103 7.164764466969416 L-141.1066592410083 -0.8352355330305841 L-141.1066592410083 -28.548048454132612"/>
		<path opacity="0.5" fill="orange" d="M-157.1066592410083 -42.404454914683626 L-141.1066592410083 -28.548048454132612 L-168.8194721621103 -20.548048454132612 L-184.8194721621103 -34.404454914683626 L-157.1066592410083 -42.404454914683626"/>
		<path opacity="0.5" fill="orange" d="M-157.1066592410083 -14.691641993581598 L-141.1066592410083 -0.8352355330305841 L-168.8194721621103 7.164764466969416 L-184.8194721621103 -6.691641993581598 L-157.1066592410083 -14.691641993581598"/>
		<text x="-184.8194721621103" y="-20.548048454132612" font-family="calibri" font-size="4">32</text>
		<text x="-176.8194721621103" y="0.23656123669390894" font-family="calibri" font-size="4">32</text>
		<text x="-170.9630657015593" y="-38.404454914683626" font-family="calibri" font-size="4">32</text>

<!-- Arrow -->
		<path opacity="0.5" stroke="black" d="M428.8105438279292 37.871133917892834 L481.85794793504397 -50.1884665205268"/>
		<circle opacity="0.5" cx="481.85794793504397" cy="-50.1884665205268" r="1" fill="black" />
		<path opacity="0.75" fill="pink" d="M-226.940652062617 -10.197169327742898 L-221.940652062617 -5.867042308820714 L-169.1930443524435 -15.660164588612929 L-226.940652062617 -10.197169327742898"/>
		<path opacity="0.75" fill="pink" d="M-226.940652062617 -10.197169327742898 L-226.940652062617 -1.5369152898985163 L-169.1930443524435 -15.660164588612929 L-226.940652062617 -10.197169327742898"/>
		<path opacity="0.75" fill="pink" d="M-221.940652062617 -5.867042308820714 L-221.940652062617 2.7932117290236675 L-169.1930443524435 -15.660164588612929 L-221.940652062617 -5.867042308820714"/>
		<path opacity="0.75" fill="pink" d="M-226.940652062617 -1.5369152898985163 L-221.940652062617 2.7932117290236675 L-169.1930443524435 -15.660164588612929 L-226.940652062617 -1.5369152898985163"/>

		<path opacity="0.75" fill="darkturquoise" d="M-226.940652062617 -10.197169327742898 L-221.940652062617 -5.867042308820714 L-221.940652062617 2.7932117290236675 L-226.940652062617 -1.5369152898985163 L-226.940652062617 -10.197169327742898"/>
		<path opacity="0.75" fill="darkturquoise" d="M-244.2611601383058 -5.197169327742898 L-239.2611601383058 -0.8670423088207144 L-239.2611601383058 7.7932117290236675 L-244.2611601383058 3.4630847101014837 L-244.2611601383058 -5.197169327742898"/>
		<path opacity="0.75" fill="darkturquoise" d="M-226.940652062617 -10.197169327742898 L-244.2611601383058 -5.197169327742898 L-244.2611601383058 3.4630847101014837 L-226.940652062617 -1.5369152898985163 L-226.940652062617 -10.197169327742898"/>
		<path opacity="0.75" fill="darkturquoise" d="M-221.940652062617 -5.867042308820714 L-239.2611601383058 -0.8670423088207144 L-239.2611601383058 7.7932117290236675 L-221.940652062617 2.7932117290236675 L-221.940652062617 -5.867042308820714"/>
		<path opacity="0.75" fill="darkturquoise" d="M-226.940652062617 -10.197169327742898 L-221.940652062617 -5.867042308820714 L-239.2611601383058 -0.8670423088207144 L-244.2611601383058 -5.197169327742898 L-226.940652062617 -10.197169327742898"/>
		<path opacity="0.75" fill="darkturquoise" d="M-226.940652062617 -1.5369152898985163 L-221.940652062617 2.7932117290236675 L-239.2611601383058 7.7932117290236675 L-244.2611601383058 3.4630847101014837 L-226.940652062617 -1.5369152898985163"/>
		<text x="-244.2611601383058" y="-0.8670423088207073" font-family="calibri" font-size="4">10</text>
		<text x="-241.7611601383058" y="5.628148219562576" font-family="calibri" font-size="4">10</text>
		<text x="-235.6009061004614" y="-7.697169327742898" font-family="calibri" font-size="4">20</text>

		<path opacity="0.5" fill="orange" d="M-228.12074235133218 -21.904454914683626 L-212.12074235133218 -8.048048454132612 L-212.12074235133218 19.664764466969416 L-228.12074235133218 5.808358006418402 L-228.12074235133218 -21.904454914683626"/>
		<path opacity="0.5" fill="orange" d="M-245.44125042702103 -16.904454914683626 L-229.44125042702103 -3.048048454132612 L-229.44125042702103 24.664764466969416 L-245.44125042702103 10.808358006418402 L-245.44125042702103 -16.904454914683626"/>
		<path opacity="0.5" fill="orange" d="M-228.12074235133218 -21.904454914683626 L-245.44125042702103 -16.904454914683626 L-245.44125042702103 10.808358006418402 L-228.12074235133218 5.808358006418402 L-228.12074235133218 -21.904454914683626"/>
		<path opacity="0.5" fill="orange" d="M-212.12074235133218 -8.048048454132612 L-229.44125042702103 -3.048048454132612 L-229.44125042702103 24.664764466969416 L-212.12074235133218 19.664764466969416 L-212.12074235133218 -8.048048454132612"/>
		<path opacity="0.5" fill="orange" d="M-228.12074235133218 -21.904454914683626 L-212.12074235133218 -8.048048454132612 L-229.44125042702103 -3.048048454132612 L-245.44125042702103 -16.904454914683626 L-228.12074235133218 -21.904454914683626"/>
		<path opacity="0.5" fill="orange" d="M-228.12074235133218 5.808358006418402 L-212.12074235133218 19.664764466969416 L-229.44125042702103 24.664764466969416 L-245.44125042702103 10.808358006418402 L-228.12074235133218 5.808358006418402"/>
		<text x="-245.44125042702103" y="-3.048048454132612" font-family="calibri" font-size="4">32</text>
		<text x="-237.44125042702103" y="17.73656123669391" font-family="calibri" font-size="4">32</text>
		<text x="-236.7809963891766" y="-19.404454914683626" font-family="calibri" font-size="4">20</text>

		<path opacity="0.5" fill="orange" d="M1.6202367904177208 -12.014727457341813 L9.62023679041772 -5.086524227066306 L9.62023679041772 8.769882233484708 L1.6202367904177208 1.841679003209201 L1.6202367904177208 -12.014727457341813"/>
		<path opacity="0.5" fill="orange" d="M-53.805389051786335 3.985272542658187 L-45.805389051786335 10.913475772933694 L-45.805389051786335 24.769882233484708 L-53.805389051786335 17.8416790032092 L-53.805389051786335 3.985272542658187"/>
		<path opacity="0.5" fill="orange" d="M1.6202367904177208 -12.014727457341813 L-53.805389051786335 3.985272542658187 L-53.805389051786335 17.8416790032092 L1.6202367904177208 1.841679003209201 L1.6202367904177208 -12.014727457341813"/>
		<path opacity="0.5" fill="orange" d="M9.62023679041772 -5.086524227066306 L-45.805389051786335 10.913475772933694 L-45.805389051786335 24.769882233484708 L9.62023679041772 8.769882233484708 L9.62023679041772 -5.086524227066306"/>
		<path opacity="0.5" fill="orange" d="M1.6202367904177208 -12.014727457341813 L9.62023679041772 -5.086524227066306 L-45.805389051786335 10.913475772933694 L-53.805389051786335 3.985272542658187 L1.6202367904177208 -12.014727457341813"/>
		<path opacity="0.5" fill="orange" d="M1.6202367904177208 1.841679003209201 L9.62023679041772 8.769882233484708 L-45.805389051786335 24.769882233484708 L-53.805389051786335 17.8416790032092 L1.6202367904177208 1.841679003209201"/>
		<text x="-53.805389051786335" y="10.913475772933694" font-family="calibri" font-size="4">16</text>
		<text x="-49.805389051786335" y="21.305780618346954" font-family="calibri" font-size="4">16</text>
		<text x="-26.092576130684307" y="-4.014727457341813" font-family="calibri" font-size="4">64</text>

		<path opacity="0.5" fill="orange" d="M158.34713282184376 13.178847577293368 L162.34713282184376 16.64294919243112 L162.34713282184376 23.571152422706632 L158.34713282184376 20.10705080756888 L158.34713282184376 13.178847577293368"/>
		<path opacity="0.5" fill="orange" d="M102.92150697963969 29.178847577293368 L106.92150697963969 32.642949192431125 L106.92150697963969 39.57115242270663 L102.92150697963969 36.107050807568875 L102.92150697963969 29.178847577293368"/>
		<path opacity="0.5" fill="orange" d="M158.34713282184376 13.178847577293368 L102.92150697963969 29.178847577293368 L102.92150697963969 36.107050807568875 L158.34713282184376 20.10705080756888 L158.34713282184376 13.178847577293368"/>
		<path opacity="0.5" fill="orange" d="M162.34713282184376 16.64294919243112 L106.92150697963969 32.642949192431125 L106.92150697963969 39.57115242270663 L162.34713282184376 23.571152422706632 L162.34713282184376 16.64294919243112"/>
		<path opacity="0.5" fill="orange" d="M158.34713282184376 13.178847577293368 L162.34713282184376 16.64294919243112 L106.92150697963969 32.642949192431125 L102.92150697963969 29.178847577293368 L158.34713282184376 13.178847577293368"/>
		<path opacity="0.5" fill="orange" d="M158.34713282184376 20.10705080756888 L162.34713282184376 23.571152422706632 L106.92150697963969 39.57115242270663 L102.92150697963969 36.107050807568875 L158.34713282184376 20.10705080756888"/>
		<text x="102.92150697963969" y="32.64294919243112" font-family="calibri" font-size="4">8</text>
		<text x="104.92150697963969" y="37.83910161513775" font-family="calibri" font-size="4">8</text>
		<text x="130.63431990074173" y="21.178847577293368" font-family="calibri" font-size="4">64</text>

		<path opacity="0.75" fill="pink" d="M-90.27779518077648 23.363721307409143 L-87.77779518077648 25.528784816870235 L-53.165302196166806 7.344271630371608 L-90.27779518077648 23.363721307409143"/>
		<path opacity="0.75" fill="pink" d="M-90.27779518077648 23.363721307409143 L-90.27779518077648 27.693848326331334 L-53.165302196166806 7.344271630371608 L-90.27779518077648 23.363721307409143"/>
		<path opacity="0.75" fill="pink" d="M-87.77779518077648 25.528784816870235 L-87.77779518077648 29.858911835792426 L-53.165302196166806 7.344271630371608 L-87.77779518077648 25.528784816870235"/>
		<path opacity="0.75" fill="pink" d="M-90.27779518077648 27.693848326331334 L-87.77779518077648 29.858911835792426 L-53.165302196166806 7.344271630371608 L-90.27779518077648 27.693848326331334"/>

		<path opacity="0.75" fill="darkturquoise" d="M-90.27779518077648 23.363721307409143 L-87.77779518077648 25.528784816870235 L-87.77779518077648 29.858911835792426 L-90.27779518077648 27.693848326331334 L-90.27779518077648 23.363721307409143"/>
		<path opacity="0.75" fill="darkturquoise" d="M-117.99060810187859 31.363721307409143 L-115.49060810187859 33.528784816870235 L-115.49060810187859 37.858911835792426 L-117.99060810187859 35.693848326331334 L-117.99060810187859 31.363721307409143"/>
		<path opacity="0.75" fill="darkturquoise" d="M-90.27779518077648 23.363721307409143 L-117.99060810187859 31.363721307409143 L-117.99060810187859 35.693848326331334 L-90.27779518077648 27.693848326331334 L-90.27779518077648 23.363721307409143"/>
		<path opacity="0.75" fill="darkturquoise" d="M-87.77779518077648 25.528784816870235 L-115.49060810187859 33.528784816870235 L-115.49060810187859 37.858911835792426 L-87.77779518077648 29.858911835792426 L-87.77779518077648 25.528784816870235"/>
		<path opacity="0.75" fill="darkturquoise" d="M-90.27779518077648 23.363721307409143 L-87.77779518077648 25.528784816870235 L-115.49060810187859 33.528784816870235 L-117.99060810187859 31.363721307409143 L-90.27779518077648 23.363721307409143"/>
		<path opacity="0.75" fill="darkturquoise" d="M-90.27779518077648 27.693848326331334 L-87.77779518077648 29.858911835792426 L-115.49060810187859 37.858911835792426 L-117.99060810187859 35.693848326331334 L-90.27779518077648 27.693848326331334"/>
		<text x="-117.99060810187859" y="33.52878481687024" font-family="calibri" font-size="4">5</text>
		<text x="-116.74060810187859" y="36.77638008106188" font-family="calibri" font-size="4">5</text>
		<text x="-104.13420164132754" y="27.363721307409143" font-family="calibri" font-size="4">32</text>

		<path opacity="0.5" fill="orange" d="M-101.10665924100823 6.092967697244916 L-85.10665924100823 19.94937415779593 L-85.10665924100823 47.66218707889797 L-101.10665924100823 33.80578061834696 L-101.10665924100823 6.092967697244916"/>
		<path opacity="0.5" fill="orange" d="M-128.8194721621103 14.092967697244916 L-112.81947216211029 27.94937415779593 L-112.81947216211029 55.66218707889797 L-128.8194721621103 41.80578061834696 L-128.8194721621103 14.092967697244916"/>
		<path opacity="0.5" fill="orange" d="M-101.10665924100823 6.092967697244916 L-128.8194721621103 14.092967697244916 L-128.8194721621103 41.80578061834696 L-101.10665924100823 33.80578061834696 L-101.10665924100823 6.092967697244916"/>
		<path opacity="0.5" fill="orange" d="M-85.10665924100823 19.94937415779593 L-112.81947216211029 27.94937415779593 L-112.81947216211029 55.66218707889797 L-85.10665924100823 47.66218707889797 L-85.10665924100823 19.94937415779593"/>
		<path opacity="0.5" fill="orange" d="M-101.10665924100823 6.092967697244916 L-85.10665924100823 19.94937415779593 L-112.81947216211029 27.94937415779593 L-128.8194721621103 14.092967697244916 L-101.10665924100823 6.092967697244916"/>
		<path opacity="0.5" fill="orange" d="M-101.10665924100823 33.80578061834696 L-85.10665924100823 47.66218707889797 L-112.81947216211029 55.66218707889797 L-128.8194721621103 41.80578061834696 L-101.10665924100823 33.80578061834696"/>
		<text x="-128.8194721621103" y="27.949374157795937" font-family="calibri" font-size="4">32</text>
		<text x="-120.81947216211029" y="48.733983848622465" font-family="calibri" font-size="4">32</text>
		<text x="-114.96306570155926" y="10.092967697244916" font-family="calibri" font-size="4">32</text>

		<path opacity="0.75" fill="pink" d="M-167.68695149657066 39.482951636415294 L-162.68695149657066 43.81307865533749 L-123.09712234503047 29.163242385717027 L-167.68695149657066 39.482951636415294"/>
		<path opacity="0.75" fill="pink" d="M-167.68695149657066 39.482951636415294 L-167.68695149657066 48.14320567425968 L-123.09712234503047 29.163242385717027 L-167.68695149657066 39.482951636415294"/>
		<path opacity="0.75" fill="pink" d="M-162.68695149657066 43.81307865533749 L-162.68695149657066 52.47333269318188 L-123.09712234503047 29.163242385717027 L-162.68695149657066 43.81307865533749"/>
		<path opacity="0.75" fill="pink" d="M-167.68695149657066 48.14320567425968 L-162.68695149657066 52.47333269318188 L-123.09712234503047 29.163242385717027 L-167.68695149657066 48.14320567425968"/>

		<path opacity="0.75" fill="pink" d="M60.26714649105932 40.13668494335218 L62.76714649105932 42.30174845281328 L105.05552673596092 35.67804556332756 L60.26714649105932 40.13668494335218"/>
		<path opacity="0.75" fill="pink" d="M60.26714649105932 40.13668494335218 L60.26714649105932 44.46681196227438 L105.05552673596092 35.67804556332756 L60.26714649105932 40.13668494335218"/>
		<path opacity="0.75" fill="pink" d="M62.76714649105932 42.30174845281328 L62.76714649105932 46.63187547173547 L105.05552673596092 35.67804556332756 L62.76714649105932 42.30174845281328"/>
		<path opacity="0.75" fill="pink" d="M60.26714649105932 44.46681196227438 L62.76714649105932 46.63187547173547 L105.05552673596092 35.67804556332756 L60.26714649105932 44.46681196227438"/>

		<path opacity="0.5" fill="orange" d="M426.8105438279292 32.6749814951862 L430.8105438279292 36.139083110323966 L430.8105438279292 43.067286340599466 L426.8105438279292 39.6031847254617 L426.8105438279292 32.6749814951862"/>
		<path opacity="0.5" fill="orange" d="M371.3849179857251 48.6749814951862 L375.3849179857251 52.139083110323966 L375.3849179857251 59.067286340599466 L371.3849179857251 55.6031847254617 L371.3849179857251 48.6749814951862"/>
		<path opacity="0.5" fill="orange" d="M426.8105438279292 32.6749814951862 L371.3849179857251 48.6749814951862 L371.3849179857251 55.6031847254617 L426.8105438279292 39.6031847254617 L426.8105438279292 32.6749814951862"/>
		<path opacity="0.5" fill="orange" d="M430.8105438279292 36.139083110323966 L375.3849179857251 52.139083110323966 L375.3849179857251 59.067286340599466 L430.8105438279292 43.067286340599466 L430.8105438279292 36.139083110323966"/>
		<path opacity="0.5" fill="orange" d="M426.8105438279292 32.6749814951862 L430.8105438279292 36.139083110323966 L375.3849179857251 52.139083110323966 L371.3849179857251 48.6749814951862 L426.8105438279292 32.6749814951862"/>
		<path opacity="0.5" fill="orange" d="M426.8105438279292 39.6031847254617 L430.8105438279292 43.067286340599466 L375.3849179857251 59.067286340599466 L371.3849179857251 55.6031847254617 L426.8105438279292 39.6031847254617"/>
		<text x="371.3849179857251" y="52.13908311032395" font-family="calibri" font-size="4">8</text>
		<text x="373.3849179857251" y="57.335235533030584" font-family="calibri" font-size="4">8</text>
		<text x="399.09773090682717" y="40.6749814951862" font-family="calibri" font-size="4">64</text>

		<path opacity="0.75" fill="darkturquoise" d="M-167.68695149657066 39.482951636415294 L-162.68695149657066 43.81307865533749 L-162.68695149657066 52.47333269318188 L-167.68695149657066 48.14320567425968 L-167.68695149657066 39.482951636415294"/>
		<path opacity="0.75" fill="darkturquoise" d="M-185.00745957225945 44.482951636415294 L-180.00745957225945 48.81307865533749 L-180.00745957225945 57.47333269318188 L-185.00745957225945 53.14320567425968 L-185.00745957225945 44.482951636415294"/>
		<path opacity="0.75" fill="darkturquoise" d="M-167.68695149657066 39.482951636415294 L-185.00745957225945 44.482951636415294 L-185.00745957225945 53.14320567425968 L-167.68695149657066 48.14320567425968 L-167.68695149657066 39.482951636415294"/>
		<path opacity="0.75" fill="darkturquoise" d="M-162.68695149657066 43.81307865533749 L-180.00745957225945 48.81307865533749 L-180.00745957225945 57.47333269318188 L-162.68695149657066 52.47333269318188 L-162.68695149657066 43.81307865533749"/>
		<path opacity="0.75" fill="darkturquoise" d="M-167.68695149657066 39.482951636415294 L-162.68695149657066 43.81307865533749 L-180.00745957225945 48.81307865533749 L-185.00745957225945 44.482951636415294 L-167.68695149657066 39.482951636415294"/>
		<path opacity="0.75" fill="darkturquoise" d="M-167.68695149657066 48.14320567425968 L-162.68695149657066 52.47333269318188 L-180.00745957225945 57.47333269318188 L-185.00745957225945 53.14320567425968 L-167.68695149657066 48.14320567425968"/>
		<text x="-185.00745957225945" y="48.81307865533749" font-family="calibri" font-size="4">10</text>
		<text x="-182.50745957225945" y="55.30826918372078" font-family="calibri" font-size="4">10</text>
		<text x="-176.34720553441505" y="41.982951636415294" font-family="calibri" font-size="4">20</text>

		<path opacity="0.5" fill="orange" d="M-172.12074235133218 26.592967697244916 L-156.12074235133218 40.44937415779593 L-156.12074235133218 68.16218707889797 L-172.12074235133218 54.30578061834696 L-172.12074235133218 26.592967697244916"/>
		<path opacity="0.5" fill="orange" d="M-189.44125042702098 31.592967697244916 L-173.44125042702098 45.44937415779593 L-173.44125042702098 73.16218707889797 L-189.44125042702098 59.30578061834696 L-189.44125042702098 31.592967697244916"/>
		<path opacity="0.5" fill="orange" d="M-172.12074235133218 26.592967697244916 L-189.44125042702098 31.592967697244916 L-189.44125042702098 59.30578061834696 L-172.12074235133218 54.30578061834696 L-172.12074235133218 26.592967697244916"/>
		<path opacity="0.5" fill="orange" d="M-156.12074235133218 40.44937415779593 L-173.44125042702098 45.44937415779593 L-173.44125042702098 73.16218707889797 L-156.12074235133218 68.16218707889797 L-156.12074235133218 40.44937415779593"/>
		<path opacity="0.5" fill="orange" d="M-172.12074235133218 26.592967697244916 L-156.12074235133218 40.44937415779593 L-173.44125042702098 45.44937415779593 L-189.44125042702098 31.592967697244916 L-172.12074235133218 26.592967697244916"/>
		<path opacity="0.5" fill="orange" d="M-172.12074235133218 54.30578061834696 L-156.12074235133218 68.16218707889797 L-173.44125042702098 73.16218707889797 L-189.44125042702098 59.30578061834696 L-172.12074235133218 54.30578061834696"/>
		<text x="-189.44125042702098" y="45.44937415779594" font-family="calibri" font-size="4">32</text>
		<text x="-181.44125042702098" y="66.23398384862247" font-family="calibri" font-size="4">32</text>
		<text x="-180.78099638917658" y="29.092967697244916" font-family="calibri" font-size="4">20</text>

		<path opacity="0.75" fill="darkturquoise" d="M60.26714649105932 40.13668494335218 L62.76714649105932 42.30174845281328 L62.76714649105932 46.63187547173547 L60.26714649105932 44.46681196227438 L60.26714649105932 40.13668494335218"/>
		<path opacity="0.75" fill="darkturquoise" d="M4.841520648855266 56.13668494335218 L7.341520648855266 58.30174845281328 L7.341520648855266 62.63187547173547 L4.841520648855266 60.46681196227438 L4.841520648855266 56.13668494335218"/>
		<path opacity="0.75" fill="darkturquoise" d="M60.26714649105932 40.13668494335218 L4.841520648855266 56.13668494335218 L4.841520648855266 60.46681196227438 L60.26714649105932 44.46681196227438 L60.26714649105932 40.13668494335218"/>
		<path opacity="0.75" fill="darkturquoise" d="M62.76714649105932 42.30174845281328 L7.341520648855266 58.30174845281328 L7.341520648855266 62.63187547173547 L62.76714649105932 46.63187547173547 L62.76714649105932 42.30174845281328"/>
		<path opacity="0.75" fill="darkturquoise" d="M60.26714649105932 40.13668494335218 L62.76714649105932 42.30174845281328 L7.341520648855266 58.30174845281328 L4.841520648855266 56.13668494335218 L60.26714649105932 40.13668494335218"/>
		<path opacity="0.75" fill="darkturquoise" d="M60.26714649105932 44.46681196227438 L62.76714649105932 46.63187547173547 L7.341520648855266 62.63187547173547 L4.841520648855266 60.46681196227438 L60.26714649105932 44.46681196227438"/>
		<text x="4.841520648855266" y="58.30174845281328" font-family="calibri" font-size="4">5</text>
		<text x="6.091520648855266" y="61.54934371700492" font-family="calibri" font-size="4">5</text>
		<text x="32.55433356995729" y="48.13668494335218" font-family="calibri" font-size="4">64</text>

		<path opacity="0.5" fill="orange" d="M57.62023679041775 36.482695154586736 L65.62023679041775 43.41089838486224 L65.62023679041775 57.267304845413264 L57.62023679041775 50.33910161513776 L57.62023679041775 36.482695154586736"/>
		<path opacity="0.5" fill="orange" d="M2.1946109482136933 52.482695154586736 L10.194610948213693 59.41089838486224 L10.194610948213693 73.26730484541326 L2.1946109482136933 66.33910161513775 L2.1946109482136933 52.482695154586736"/>
		<path opacity="0.5" fill="orange" d="M57.62023679041775 36.482695154586736 L2.1946109482136933 52.482695154586736 L2.1946109482136933 66.33910161513775 L57.62023679041775 50.33910161513776 L57.62023679041775 36.482695154586736"/>
		<path opacity="0.5" fill="orange" d="M65.62023679041775 43.41089838486224 L10.194610948213693 59.41089838486224 L10.194610948213693 73.26730484541326 L65.62023679041775 57.267304845413264 L65.62023679041775 43.41089838486224"/>
		<path opacity="0.5" fill="orange" d="M57.62023679041775 36.482695154586736 L65.62023679041775 43.41089838486224 L10.194610948213693 59.41089838486224 L2.1946109482136933 52.482695154586736 L57.62023679041775 36.482695154586736"/>
		<path opacity="0.5" fill="orange" d="M57.62023679041775 50.33910161513776 L65.62023679041775 57.267304845413264 L10.194610948213693 73.26730484541326 L2.1946109482136933 66.33910161513775 L57.62023679041775 50.33910161513776"/>
		<text x="2.1946109482136933" y="59.41089838486224" font-family="calibri" font-size="4">16</text>
		<text x="6.194610948213693" y="69.8032032302755" font-family="calibri" font-size="4">16</text>
		<text x="29.90742386931572" y="44.482695154586736" font-family="calibri" font-size="4">64</text>

		<path opacity="0.75" fill="pink" d="M328.4322116899579 63.78273990026359 L330.9322116899579 65.9478034097247 L372.11034099478087 53.85193081215657 L328.4322116899579 63.78273990026359"/>
		<path opacity="0.75" fill="pink" d="M328.4322116899579 63.78273990026359 L328.4322116899579 68.11286691918579 L372.11034099478087 53.85193081215657 L328.4322116899579 63.78273990026359"/>
		<path opacity="0.75" fill="pink" d="M330.9322116899579 65.9478034097247 L330.9322116899579 70.2779304286469 L372.11034099478087 53.85193081215657 L330.9322116899579 65.9478034097247"/>
		<path opacity="0.75" fill="pink" d="M328.4322116899579 68.11286691918579 L330.9322116899579 70.2779304286469 L372.11034099478087 53.85193081215657 L328.4322116899579 68.11286691918579"/>

<!-- Arrow -->
		<path opacity="0.5" stroke="black" d="M216.3471328218438 66.87242261192856 L274.6580219542991 82.37113391789283"/>
		<circle opacity="0.5" cx="274.6580219542991" cy="82.37113391789283" r="1" fill="black" />
		<path opacity="0.75" fill="darkturquoise" d="M328.4322116899579 63.78273990026359 L330.9322116899579 65.9478034097247 L330.9322116899579 70.2779304286469 L328.4322116899579 68.11286691918579 L328.4322116899579 63.78273990026359"/>
		<path opacity="0.75" fill="darkturquoise" d="M273.00658584775385 79.78273990026359 L275.50658584775385 81.9478034097247 L275.50658584775385 86.2779304286469 L273.00658584775385 84.11286691918579 L273.00658584775385 79.78273990026359"/>
		<path opacity="0.75" fill="darkturquoise" d="M328.4322116899579 63.78273990026359 L273.00658584775385 79.78273990026359 L273.00658584775385 84.11286691918579 L328.4322116899579 68.11286691918579 L328.4322116899579 63.78273990026359"/>
		<path opacity="0.75" fill="darkturquoise" d="M330.9322116899579 65.9478034097247 L275.50658584775385 81.9478034097247 L275.50658584775385 86.2779304286469 L330.9322116899579 70.2779304286469 L330.9322116899579 65.9478034097247"/>
		<path opacity="0.75" fill="darkturquoise" d="M328.4322116899579 63.78273990026359 L330.9322116899579 65.9478034097247 L275.50658584775385 81.9478034097247 L273.00658584775385 79.78273990026359 L328.4322116899579 63.78273990026359"/>
		<path opacity="0.75" fill="darkturquoise" d="M328.4322116899579 68.11286691918579 L330.9322116899579 70.2779304286469 L275.50658584775385 86.2779304286469 L273.00658584775385 84.11286691918579 L328.4322116899579 68.11286691918579"/>
		<text x="273.00658584775385" y="81.94780340972468" font-family="calibri" font-size="4">5</text>
		<text x="274.25658584775385" y="85.19539867391634" font-family="calibri" font-size="4">5</text>
		<text x="300.71939876885585" y="71.78273990026359" font-family="calibri" font-size="4">64</text>

		<path opacity="0.5" fill="orange" d="M328.0836477965032 61.1749814951862 L332.0836477965032 64.63908311032397 L332.0836477965032 71.56728634059947 L328.0836477965032 68.1031847254617 L328.0836477965032 61.1749814951862"/>
		<path opacity="0.5" fill="orange" d="M272.6580219542991 77.1749814951862 L276.6580219542991 80.63908311032397 L276.6580219542991 87.56728634059947 L272.6580219542991 84.1031847254617 L272.6580219542991 77.1749814951862"/>
		<path opacity="0.5" fill="orange" d="M328.0836477965032 61.1749814951862 L272.6580219542991 77.1749814951862 L272.6580219542991 84.1031847254617 L328.0836477965032 68.1031847254617 L328.0836477965032 61.1749814951862"/>
		<path opacity="0.5" fill="orange" d="M332.0836477965032 64.63908311032397 L276.6580219542991 80.63908311032397 L276.6580219542991 87.56728634059947 L332.0836477965032 71.56728634059947 L332.0836477965032 64.63908311032397"/>
		<path opacity="0.5" fill="orange" d="M328.0836477965032 61.1749814951862 L332.0836477965032 64.63908311032397 L276.6580219542991 80.63908311032397 L272.6580219542991 77.1749814951862 L328.0836477965032 61.1749814951862"/>
		<path opacity="0.5" fill="orange" d="M328.0836477965032 68.1031847254617 L332.0836477965032 71.56728634059947 L276.6580219542991 87.56728634059947 L272.6580219542991 84.1031847254617 L328.0836477965032 68.1031847254617"/>
		<text x="272.6580219542991" y="80.63908311032395" font-family="calibri" font-size="4">8</text>
		<text x="274.6580219542991" y="85.83523553303058" font-family="calibri" font-size="4">8</text>
		<text x="300.37083487540116" y="69.1749814951862" font-family="calibri" font-size="4">64</text>

		<path opacity="0.5" fill="orange" d="M214.3471328218438 61.676270189221924 L218.3471328218438 65.14037180435967 L218.3471328218438 72.06857503463519 L214.3471328218438 68.60447341949744 L214.3471328218438 61.676270189221924"/>
		<path opacity="0.5" fill="orange" d="M158.9215069796397 77.67627018922192 L162.9215069796397 81.14037180435967 L162.9215069796397 88.06857503463519 L158.9215069796397 84.60447341949744 L158.9215069796397 77.67627018922192"/>
		<path opacity="0.5" fill="orange" d="M214.3471328218438 61.676270189221924 L158.9215069796397 77.67627018922192 L158.9215069796397 84.60447341949744 L214.3471328218438 68.60447341949744 L214.3471328218438 61.676270189221924"/>
		<path opacity="0.5" fill="orange" d="M218.3471328218438 65.14037180435967 L162.9215069796397 81.14037180435967 L162.9215069796397 88.06857503463519 L218.3471328218438 72.06857503463519 L218.3471328218438 65.14037180435967"/>
		<path opacity="0.5" fill="orange" d="M214.3471328218438 61.676270189221924 L218.3471328218438 65.14037180435967 L162.9215069796397 81.14037180435967 L158.9215069796397 77.67627018922192 L214.3471328218438 61.676270189221924"/>
		<path opacity="0.5" fill="orange" d="M214.3471328218438 68.60447341949744 L218.3471328218438 72.06857503463519 L162.9215069796397 88.06857503463519 L158.9215069796397 84.60447341949744 L214.3471328218438 68.60447341949744"/>
		<text x="158.9215069796397" y="81.14037180435969" font-family="calibri" font-size="4">8</text>
		<text x="160.9215069796397" y="86.33652422706632" font-family="calibri" font-size="4">8</text>
		<text x="186.63431990074173" y="69.67627018922192" font-family="calibri" font-size="4">64</text>

		<path opacity="0.75" fill="pink" d="M-31.88595853231152 71.82498977236143 L-29.38595853231152 73.99005328182253 L4.100154273816031 63.355854884599964 L-31.88595853231152 71.82498977236143"/>
		<path opacity="0.75" fill="pink" d="M-31.88595853231152 71.82498977236143 L-31.88595853231152 76.15511679128362 L4.100154273816031 63.355854884599964 L-31.88595853231152 71.82498977236143"/>
		<path opacity="0.75" fill="pink" d="M-29.38595853231152 73.99005328182253 L-29.38595853231152 78.32018030074472 L4.100154273816031 63.355854884599964 L-29.38595853231152 73.99005328182253"/>
		<path opacity="0.75" fill="pink" d="M-31.88595853231152 76.15511679128362 L-29.38595853231152 78.32018030074472 L4.100154273816031 63.355854884599964 L-31.88595853231152 76.15511679128362"/>

		<path opacity="0.75" fill="darkturquoise" d="M-31.88595853231152 71.82498977236143 L-29.38595853231152 73.99005328182253 L-29.38595853231152 78.32018030074472 L-31.88595853231152 76.15511679128362 L-31.88595853231152 71.82498977236143"/>
		<path opacity="0.75" fill="darkturquoise" d="M-59.598771453413576 79.82498977236143 L-57.098771453413576 81.99005328182253 L-57.098771453413576 86.32018030074472 L-59.598771453413576 84.15511679128362 L-59.598771453413576 79.82498977236143"/>
		<path opacity="0.75" fill="darkturquoise" d="M-31.88595853231152 71.82498977236143 L-59.598771453413576 79.82498977236143 L-59.598771453413576 84.15511679128362 L-31.88595853231152 76.15511679128362 L-31.88595853231152 71.82498977236143"/>
		<path opacity="0.75" fill="darkturquoise" d="M-29.38595853231152 73.99005328182253 L-57.098771453413576 81.99005328182253 L-57.098771453413576 86.32018030074472 L-29.38595853231152 78.32018030074472 L-29.38595853231152 73.99005328182253"/>
		<path opacity="0.75" fill="darkturquoise" d="M-31.88595853231152 71.82498977236143 L-29.38595853231152 73.99005328182253 L-57.098771453413576 81.99005328182253 L-59.598771453413576 79.82498977236143 L-31.88595853231152 71.82498977236143"/>
		<path opacity="0.75" fill="darkturquoise" d="M-31.88595853231152 76.15511679128362 L-29.38595853231152 78.32018030074472 L-57.098771453413576 86.32018030074472 L-59.598771453413576 84.15511679128362 L-31.88595853231152 76.15511679128362"/>
		<text x="-59.598771453413576" y="81.99005328182253" font-family="calibri" font-size="4">5</text>
		<text x="-58.348771453413576" y="85.23764854601417" font-family="calibri" font-size="4">5</text>
		<text x="-45.74236499286255" y="75.82498977236143" font-family="calibri" font-size="4">32</text>

		<path opacity="0.5" fill="orange" d="M-45.10665924100823 54.59039030917347 L-29.10665924100823 68.44679676972449 L-29.10665924100823 96.15960969082653 L-45.10665924100823 82.30320323027551 L-45.10665924100823 54.59039030917347"/>
		<path opacity="0.5" fill="orange" d="M-72.81947216211029 62.59039030917347 L-56.81947216211029 76.44679676972449 L-56.81947216211029 104.15960969082653 L-72.81947216211029 90.30320323027551 L-72.81947216211029 62.59039030917347"/>
		<path opacity="0.5" fill="orange" d="M-45.10665924100823 54.59039030917347 L-72.81947216211029 62.59039030917347 L-72.81947216211029 90.30320323027551 L-45.10665924100823 82.30320323027551 L-45.10665924100823 54.59039030917347"/>
		<path opacity="0.5" fill="orange" d="M-29.10665924100823 68.44679676972449 L-56.81947216211029 76.44679676972449 L-56.81947216211029 104.15960969082653 L-29.10665924100823 96.15960969082653 L-29.10665924100823 68.44679676972449"/>
		<path opacity="0.5" fill="orange" d="M-45.10665924100823 54.59039030917347 L-29.10665924100823 68.44679676972449 L-56.81947216211029 76.44679676972449 L-72.81947216211029 62.59039030917347 L-45.10665924100823 54.59039030917347"/>
		<path opacity="0.5" fill="orange" d="M-45.10665924100823 82.30320323027551 L-29.10665924100823 96.15960969082653 L-56.81947216211029 104.15960969082653 L-72.81947216211029 90.30320323027551 L-45.10665924100823 82.30320323027551"/>
		<text x="-72.81947216211029" y="76.4467967697245" font-family="calibri" font-size="4">32</text>
		<text x="-64.81947216211029" y="97.23140646055103" font-family="calibri" font-size="4">32</text>
		<text x="-58.96306570155926" y="58.59039030917347" font-family="calibri" font-size="4">32</text>

		<path opacity="0.75" fill="pink" d="M118.88011613201802 95.1483050650992 L121.38011613201802 97.31336857456029 L161.37429568658067 80.76626690993129 L118.88011613201802 95.1483050650992"/>
		<path opacity="0.75" fill="pink" d="M118.88011613201802 95.1483050650992 L118.88011613201802 99.47843208402139 L161.37429568658067 80.76626690993129 L118.88011613201802 95.1483050650992"/>
		<path opacity="0.75" fill="pink" d="M121.38011613201802 97.31336857456029 L121.38011613201802 101.64349559348248 L161.37429568658067 80.76626690993129 L121.38011613201802 97.31336857456029"/>
		<path opacity="0.75" fill="pink" d="M118.88011613201802 99.47843208402139 L121.38011613201802 101.64349559348248 L161.37429568658067 80.76626690993129 L118.88011613201802 99.47843208402139"/>

		<path opacity="0.75" fill="pink" d="M-106.69493189096943 87.9195066496884 L-101.69493189096943 92.2496336686106 L-69.0860372279339 70.14878943771595 L-106.69493189096943 87.9195066496884"/>
		<path opacity="0.75" fill="pink" d="M-106.69493189096943 87.9195066496884 L-106.69493189096943 96.5797606875328 L-69.0860372279339 70.14878943771595 L-106.69493189096943 87.9195066496884"/>
		<path opacity="0.75" fill="pink" d="M-101.69493189096943 92.2496336686106 L-101.69493189096943 100.90988770645498 L-69.0860372279339 70.14878943771595 L-101.69493189096943 92.2496336686106"/>
		<path opacity="0.75" fill="pink" d="M-106.69493189096943 96.5797606875328 L-101.69493189096943 100.90988770645498 L-69.0860372279339 70.14878943771595 L-106.69493189096943 96.5797606875328"/>

<!-- Arrow -->
		<path opacity="0.5" stroke="black" d="M272.3471328218438 115.36984522385711 L274.6580219542991 82.37113391789283"/>
		<circle opacity="0.5" cx="274.6580219542991" cy="82.37113391789283" r="1" fill="black" />
		<path opacity="0.75" fill="darkturquoise" d="M-106.69493189096943 87.9195066496884 L-101.69493189096943 92.2496336686106 L-101.69493189096943 100.90988770645498 L-106.69493189096943 96.5797606875328 L-106.69493189096943 87.9195066496884"/>
		<path opacity="0.75" fill="darkturquoise" d="M-124.01543996665822 92.9195066496884 L-119.01543996665822 97.2496336686106 L-119.01543996665822 105.90988770645498 L-124.01543996665822 101.5797606875328 L-124.01543996665822 92.9195066496884"/>
		<path opacity="0.75" fill="darkturquoise" d="M-106.69493189096943 87.9195066496884 L-124.01543996665822 92.9195066496884 L-124.01543996665822 101.5797606875328 L-106.69493189096943 96.5797606875328 L-106.69493189096943 87.9195066496884"/>
		<path opacity="0.75" fill="darkturquoise" d="M-101.69493189096943 92.2496336686106 L-119.01543996665822 97.2496336686106 L-119.01543996665822 105.90988770645498 L-101.69493189096943 100.90988770645498 L-101.69493189096943 92.2496336686106"/>
		<path opacity="0.75" fill="darkturquoise" d="M-106.69493189096943 87.9195066496884 L-101.69493189096943 92.2496336686106 L-119.01543996665822 97.2496336686106 L-124.01543996665822 92.9195066496884 L-106.69493189096943 87.9195066496884"/>
		<path opacity="0.75" fill="darkturquoise" d="M-106.69493189096943 96.5797606875328 L-101.69493189096943 100.90988770645498 L-119.01543996665822 105.90988770645498 L-124.01543996665822 101.5797606875328 L-106.69493189096943 96.5797606875328"/>
		<text x="-124.01543996665822" y="97.2496336686106" font-family="calibri" font-size="4">10</text>
		<text x="-121.51543996665822" y="103.74482419699389" font-family="calibri" font-size="4">10</text>
		<text x="-115.35518592881382" y="90.4195066496884" font-family="calibri" font-size="4">20</text>

		<path opacity="0.5" fill="orange" d="M-116.12074235133218 75.09039030917347 L-100.12074235133218 88.94679676972449 L-100.12074235133218 116.65960969082653 L-116.12074235133218 102.80320323027551 L-116.12074235133218 75.09039030917347"/>
		<path opacity="0.5" fill="orange" d="M-133.44125042702098 80.09039030917347 L-117.44125042702098 93.94679676972449 L-117.44125042702098 121.65960969082653 L-133.44125042702098 107.80320323027551 L-133.44125042702098 80.09039030917347"/>
		<path opacity="0.5" fill="orange" d="M-116.12074235133218 75.09039030917347 L-133.44125042702098 80.09039030917347 L-133.44125042702098 107.80320323027551 L-116.12074235133218 102.80320323027551 L-116.12074235133218 75.09039030917347"/>
		<path opacity="0.5" fill="orange" d="M-100.12074235133218 88.94679676972449 L-117.44125042702098 93.94679676972449 L-117.44125042702098 121.65960969082653 L-100.12074235133218 116.65960969082653 L-100.12074235133218 88.94679676972449"/>
		<path opacity="0.5" fill="orange" d="M-116.12074235133218 75.09039030917347 L-100.12074235133218 88.94679676972449 L-117.44125042702098 93.94679676972449 L-133.44125042702098 80.09039030917347 L-116.12074235133218 75.09039030917347"/>
		<path opacity="0.5" fill="orange" d="M-116.12074235133218 102.80320323027551 L-100.12074235133218 116.65960969082653 L-117.44125042702098 121.65960969082653 L-133.44125042702098 107.80320323027551 L-116.12074235133218 102.80320323027551"/>
		<text x="-133.44125042702098" y="93.9467967697245" font-family="calibri" font-size="4">32</text>
		<text x="-125.44125042702098" y="114.73140646055103" font-family="calibri" font-size="4">32</text>
		<text x="-124.78099638917658" y="77.59039030917347" font-family="calibri" font-size="4">20</text>

		<path opacity="0.75" fill="darkturquoise" d="M118.88011613201802 95.1483050650992 L121.38011613201802 97.31336857456029 L121.38011613201802 101.64349559348248 L118.88011613201802 99.47843208402139 L118.88011613201802 95.1483050650992"/>
		<path opacity="0.75" fill="darkturquoise" d="M63.454490289813975 111.1483050650992 L65.95449028981398 113.31336857456029 L65.95449028981398 117.64349559348248 L63.454490289813975 115.47843208402139 L63.454490289813975 111.1483050650992"/>
		<path opacity="0.75" fill="darkturquoise" d="M118.88011613201802 95.1483050650992 L63.454490289813975 111.1483050650992 L63.454490289813975 115.47843208402139 L118.88011613201802 99.47843208402139 L118.88011613201802 95.1483050650992"/>
		<path opacity="0.75" fill="darkturquoise" d="M121.38011613201802 97.31336857456029 L65.95449028981398 113.31336857456029 L65.95449028981398 117.64349559348248 L121.38011613201802 101.64349559348248 L121.38011613201802 97.31336857456029"/>
		<path opacity="0.75" fill="darkturquoise" d="M118.88011613201802 95.1483050650992 L121.38011613201802 97.31336857456029 L65.95449028981398 113.31336857456029 L63.454490289813975 111.1483050650992 L118.88011613201802 95.1483050650992"/>
		<path opacity="0.75" fill="darkturquoise" d="M118.88011613201802 99.47843208402139 L121.38011613201802 101.64349559348248 L65.95449028981398 117.64349559348248 L63.454490289813975 115.47843208402139 L118.88011613201802 99.47843208402139"/>
		<text x="63.454490289813975" y="113.31336857456029" font-family="calibri" font-size="4">5</text>
		<text x="64.70449028981398" y="116.56096383875195" font-family="calibri" font-size="4">5</text>
		<text x="91.167303210916" y="103.1483050650992" font-family="calibri" font-size="4">64</text>

		<path opacity="0.5" fill="orange" d="M113.62023679041776 84.98011776651529 L121.62023679041776 91.90832099679079 L121.62023679041776 105.76472745734182 L113.62023679041776 98.8365242270663 L113.62023679041776 84.98011776651529"/>
		<path opacity="0.5" fill="orange" d="M58.19461094821372 100.98011776651529 L66.19461094821372 107.90832099679079 L66.19461094821372 121.76472745734182 L58.19461094821372 114.8365242270663 L58.19461094821372 100.98011776651529"/>
		<path opacity="0.5" fill="orange" d="M113.62023679041776 84.98011776651529 L58.19461094821372 100.98011776651529 L58.19461094821372 114.8365242270663 L113.62023679041776 98.8365242270663 L113.62023679041776 84.98011776651529"/>
		<path opacity="0.5" fill="orange" d="M121.62023679041776 91.90832099679079 L66.19461094821372 107.90832099679079 L66.19461094821372 121.76472745734182 L121.62023679041776 105.76472745734182 L121.62023679041776 91.90832099679079"/>
		<path opacity="0.5" fill="orange" d="M113.62023679041776 84.98011776651529 L121.62023679041776 91.90832099679079 L66.19461094821372 107.90832099679079 L58.19461094821372 100.98011776651529 L113.62023679041776 84.98011776651529"/>
		<path opacity="0.5" fill="orange" d="M113.62023679041776 98.8365242270663 L121.62023679041776 105.76472745734182 L66.19461094821372 121.76472745734182 L58.19461094821372 114.8365242270663 L113.62023679041776 98.8365242270663"/>
		<text x="58.19461094821372" y="107.90832099679079" font-family="calibri" font-size="4">16</text>
		<text x="62.19461094821372" y="118.30062584220406" font-family="calibri" font-size="4">16</text>
		<text x="85.90742386931575" y="92.98011776651529" font-family="calibri" font-size="4">64</text>

		<path opacity="0.75" fill="pink" d="M16.89781989277577 112.04374988073174 L19.39781989277577 114.20881339019283 L65.20608594826285 109.46910006169561 L16.89781989277577 112.04374988073174"/>
		<path opacity="0.75" fill="pink" d="M16.89781989277577 112.04374988073174 L16.89781989277577 116.37387689965394 L65.20608594826285 109.46910006169561 L16.89781989277577 112.04374988073174"/>
		<path opacity="0.75" fill="pink" d="M19.39781989277577 114.20881339019283 L19.39781989277577 118.53894040911501 L65.20608594826285 109.46910006169561 L19.39781989277577 114.20881339019283"/>
		<path opacity="0.75" fill="pink" d="M16.89781989277577 116.37387689965394 L19.39781989277577 118.53894040911501 L65.20608594826285 109.46910006169561 L16.89781989277577 116.37387689965394"/>

		<path opacity="0.5" fill="orange" d="M270.3471328218438 110.17369280115048 L274.3471328218438 113.63779441628824 L274.3471328218438 120.56599764656374 L270.3471328218438 117.10189603142598 L270.3471328218438 110.17369280115048"/>
		<path opacity="0.5" fill="orange" d="M214.92150697963973 126.17369280115048 L218.92150697963973 129.63779441628824 L218.92150697963973 136.56599764656374 L214.92150697963973 133.10189603142598 L214.92150697963973 126.17369280115048"/>
		<path opacity="0.5" fill="orange" d="M270.3471328218438 110.17369280115048 L214.92150697963973 126.17369280115048 L214.92150697963973 133.10189603142598 L270.3471328218438 117.10189603142598 L270.3471328218438 110.17369280115048"/>
		<path opacity="0.5" fill="orange" d="M274.3471328218438 113.63779441628824 L218.92150697963973 129.63779441628824 L218.92150697963973 136.56599764656374 L274.3471328218438 120.56599764656374 L274.3471328218438 113.63779441628824"/>
		<path opacity="0.5" fill="orange" d="M270.3471328218438 110.17369280115048 L274.3471328218438 113.63779441628824 L218.92150697963973 129.63779441628824 L214.92150697963973 126.17369280115048 L270.3471328218438 110.17369280115048"/>
		<path opacity="0.5" fill="orange" d="M270.3471328218438 117.10189603142598 L274.3471328218438 120.56599764656374 L218.92150697963973 136.56599764656374 L214.92150697963973 133.10189603142598 L270.3471328218438 117.10189603142598"/>
		<text x="214.92150697963973" y="129.63779441628822" font-family="calibri" font-size="4">8</text>
		<text x="216.92150697963973" y="134.83394683899485" font-family="calibri" font-size="4">8</text>
		<text x="242.63431990074176" y="118.17369280115048" font-family="calibri" font-size="4">64</text>

		<path opacity="0.75" fill="darkturquoise" d="M16.89781989277577 112.04374988073174 L19.39781989277577 114.20881339019283 L19.39781989277577 118.53894040911501 L16.89781989277577 116.37387689965394 L16.89781989277577 112.04374988073174"/>
		<path opacity="0.75" fill="darkturquoise" d="M-10.814993028326285 120.04374988073174 L-8.314993028326285 122.20881339019283 L-8.314993028326285 126.53894040911501 L-10.814993028326285 124.37387689965394 L-10.814993028326285 120.04374988073174"/>
		<path opacity="0.75" fill="darkturquoise" d="M16.89781989277577 112.04374988073174 L-10.814993028326285 120.04374988073174 L-10.814993028326285 124.37387689965394 L16.89781989277577 116.37387689965394 L16.89781989277577 112.04374988073174"/>
		<path opacity="0.75" fill="darkturquoise" d="M19.39781989277577 114.20881339019283 L-8.314993028326285 122.20881339019283 L-8.314993028326285 126.53894040911501 L19.39781989277577 118.53894040911501 L19.39781989277577 114.20881339019283"/>
		<path opacity="0.75" fill="darkturquoise" d="M16.89781989277577 112.04374988073174 L19.39781989277577 114.20881339019283 L-8.314993028326285 122.20881339019283 L-10.814993028326285 120.04374988073174 L16.89781989277577 112.04374988073174"/>
		<path opacity="0.75" fill="darkturquoise" d="M16.89781989277577 116.37387689965394 L19.39781989277577 118.53894040911501 L-8.314993028326285 126.53894040911501 L-10.814993028326285 124.37387689965394 L16.89781989277577 116.37387689965394"/>
		<text x="-10.814993028326285" y="122.20881339019283" font-family="calibri" font-size="4">5</text>
		<text x="-9.564993028326285" y="125.45640865438448" font-family="calibri" font-size="4">5</text>
		<text x="3.0414134322247435" y="116.04374988073174" font-family="calibri" font-size="4">32</text>

		<path opacity="0.5" fill="orange" d="M10.89334075899177 103.08781292110203 L26.89334075899177 116.94421938165304 L26.89334075899177 144.65703230275508 L10.89334075899177 130.80062584220406 L10.89334075899177 103.08781292110203"/>
		<path opacity="0.5" fill="orange" d="M-16.819472162110287 111.08781292110203 L-0.8194721621102872 124.94421938165304 L-0.8194721621102872 152.65703230275508 L-16.819472162110287 138.80062584220406 L-16.819472162110287 111.08781292110203"/>
		<path opacity="0.5" fill="orange" d="M10.89334075899177 103.08781292110203 L-16.819472162110287 111.08781292110203 L-16.819472162110287 138.80062584220406 L10.89334075899177 130.80062584220406 L10.89334075899177 103.08781292110203"/>
		<path opacity="0.5" fill="orange" d="M26.89334075899177 116.94421938165304 L-0.8194721621102872 124.94421938165304 L-0.8194721621102872 152.65703230275508 L26.89334075899177 144.65703230275508 L26.89334075899177 116.94421938165304"/>
		<path opacity="0.5" fill="orange" d="M10.89334075899177 103.08781292110203 L26.89334075899177 116.94421938165304 L-0.8194721621102872 124.94421938165304 L-16.819472162110287 111.08781292110203 L10.89334075899177 103.08781292110203"/>
		<path opacity="0.5" fill="orange" d="M10.89334075899177 130.80062584220406 L26.89334075899177 144.65703230275508 L-0.8194721621102872 152.65703230275508 L-16.819472162110287 138.80062584220406 L10.89334075899177 130.80062584220406"/>
		<text x="-16.819472162110287" y="124.94421938165304" font-family="calibri" font-size="4">32</text>
		<text x="-8.819472162110287" y="145.72882907247958" font-family="calibri" font-size="4">32</text>
		<text x="-2.963065701559259" y="107.08781292110203" font-family="calibri" font-size="4">32</text>

		<path opacity="0.75" fill="pink" d="M173.880859983894 145.77735408658228 L176.380859983894 147.94241759604336 L218.40100053388358 133.79083537592632 L173.880859983894 145.77735408658228"/>
		<path opacity="0.75" fill="pink" d="M173.880859983894 145.77735408658228 L173.880859983894 150.10748110550446 L218.40100053388358 133.79083537592632 L173.880859983894 145.77735408658228"/>
		<path opacity="0.75" fill="pink" d="M176.380859983894 147.94241759604336 L176.380859983894 152.27254461496557 L218.40100053388358 133.79083537592632 L176.380859983894 147.94241759604336"/>
		<path opacity="0.75" fill="pink" d="M173.880859983894 150.10748110550446 L176.380859983894 152.27254461496557 L218.40100053388358 133.79083537592632 L173.880859983894 150.10748110550446"/>

		<path opacity="0.75" fill="pink" d="M-51.15784368189338 138.22745262825674 L-46.15784368189338 142.55757964717895 L-4.31211128335633 129.94969822984547 L-51.15784368189338 138.22745262825674"/>
		<path opacity="0.75" fill="pink" d="M-51.15784368189338 138.22745262825674 L-51.15784368189338 146.88770666610114 L-4.31211128335633 129.94969822984547 L-51.15784368189338 138.22745262825674"/>
		<path opacity="0.75" fill="pink" d="M-46.15784368189338 142.55757964717895 L-46.15784368189338 151.21783368502332 L-4.31211128335633 129.94969822984547 L-46.15784368189338 142.55757964717895"/>
		<path opacity="0.75" fill="pink" d="M-51.15784368189338 146.88770666610114 L-46.15784368189338 151.21783368502332 L-4.31211128335633 129.94969822984547 L-51.15784368189338 146.88770666610114"/>

		<path opacity="0.75" fill="darkturquoise" d="M-51.15784368189338 138.22745262825674 L-46.15784368189338 142.55757964717895 L-46.15784368189338 151.21783368502332 L-51.15784368189338 146.88770666610114 L-51.15784368189338 138.22745262825674"/>
		<path opacity="0.75" fill="darkturquoise" d="M-68.47835175758217 143.22745262825674 L-63.478351757582175 147.55757964717895 L-63.478351757582175 156.21783368502332 L-68.47835175758217 151.88770666610114 L-68.47835175758217 143.22745262825674"/>
		<path opacity="0.75" fill="darkturquoise" d="M-51.15784368189338 138.22745262825674 L-68.47835175758217 143.22745262825674 L-68.47835175758217 151.88770666610114 L-51.15784368189338 146.88770666610114 L-51.15784368189338 138.22745262825674"/>
		<path opacity="0.75" fill="darkturquoise" d="M-46.15784368189338 142.55757964717895 L-63.478351757582175 147.55757964717895 L-63.478351757582175 156.21783368502332 L-46.15784368189338 151.21783368502332 L-46.15784368189338 142.55757964717895"/>
		<path opacity="0.75" fill="darkturquoise" d="M-51.15784368189338 138.22745262825674 L-46.15784368189338 142.55757964717895 L-63.478351757582175 147.55757964717895 L-68.47835175758217 143.22745262825674 L-51.15784368189338 138.22745262825674"/>
		<path opacity="0.75" fill="darkturquoise" d="M-51.15784368189338 146.88770666610114 L-46.15784368189338 151.21783368502332 L-63.478351757582175 156.21783368502332 L-68.47835175758217 151.88770666610114 L-51.15784368189338 146.88770666610114"/>
		<text x="-68.47835175758217" y="147.55757964717895" font-family="calibri" font-size="4">10</text>
		<text x="-65.97835175758217" y="154.05277017556222" font-family="calibri" font-size="4">10</text>
		<text x="-59.81809771973778" y="140.72745262825674" font-family="calibri" font-size="4">20</text>

		<path opacity="0.5" fill="orange" d="M-60.12074235133218 123.58781292110203 L-44.12074235133218 137.44421938165306 L-44.12074235133218 165.15703230275508 L-60.12074235133218 151.30062584220406 L-60.12074235133218 123.58781292110203"/>
		<path opacity="0.5" fill="orange" d="M-77.44125042702098 128.58781292110203 L-61.441250427020975 142.44421938165306 L-61.441250427020975 170.15703230275508 L-77.44125042702098 156.30062584220406 L-77.44125042702098 128.58781292110203"/>
		<path opacity="0.5" fill="orange" d="M-60.12074235133218 123.58781292110203 L-77.44125042702098 128.58781292110203 L-77.44125042702098 156.30062584220406 L-60.12074235133218 151.30062584220406 L-60.12074235133218 123.58781292110203"/>
		<path opacity="0.5" fill="orange" d="M-44.12074235133218 137.44421938165306 L-61.441250427020975 142.44421938165306 L-61.441250427020975 170.15703230275508 L-44.12074235133218 165.15703230275508 L-44.12074235133218 137.44421938165306"/>
		<path opacity="0.5" fill="orange" d="M-60.12074235133218 123.58781292110203 L-44.12074235133218 137.44421938165306 L-61.441250427020975 142.44421938165306 L-77.44125042702098 128.58781292110203 L-60.12074235133218 123.58781292110203"/>
		<path opacity="0.5" fill="orange" d="M-60.12074235133218 151.30062584220406 L-44.12074235133218 165.15703230275508 L-61.441250427020975 170.15703230275508 L-77.44125042702098 156.30062584220406 L-60.12074235133218 151.30062584220406"/>
		<text x="-77.44125042702098" y="142.44421938165306" font-family="calibri" font-size="4">32</text>
		<text x="-69.44125042702098" y="163.22882907247958" font-family="calibri" font-size="4">32</text>
		<text x="-68.78099638917658" y="126.08781292110203" font-family="calibri" font-size="4">20</text>

		<path opacity="0.75" fill="darkturquoise" d="M173.880859983894 145.77735408658228 L176.380859983894 147.94241759604336 L176.380859983894 152.27254461496557 L173.880859983894 150.10748110550446 L173.880859983894 145.77735408658228"/>
		<path opacity="0.75" fill="darkturquoise" d="M118.45523414168994 161.77735408658228 L120.95523414168994 163.94241759604336 L120.95523414168994 168.27254461496557 L118.45523414168994 166.10748110550446 L118.45523414168994 161.77735408658228"/>
		<path opacity="0.75" fill="darkturquoise" d="M173.880859983894 145.77735408658228 L118.45523414168994 161.77735408658228 L118.45523414168994 166.10748110550446 L173.880859983894 150.10748110550446 L173.880859983894 145.77735408658228"/>
		<path opacity="0.75" fill="darkturquoise" d="M176.380859983894 147.94241759604336 L120.95523414168994 163.94241759604336 L120.95523414168994 168.27254461496557 L176.380859983894 152.27254461496557 L176.380859983894 147.94241759604336"/>
		<path opacity="0.75" fill="darkturquoise" d="M173.880859983894 145.77735408658228 L176.380859983894 147.94241759604336 L120.95523414168994 163.94241759604336 L118.45523414168994 161.77735408658228 L173.880859983894 145.77735408658228"/>
		<path opacity="0.75" fill="darkturquoise" d="M173.880859983894 150.10748110550446 L176.380859983894 152.27254461496557 L120.95523414168994 168.27254461496557 L118.45523414168994 166.10748110550446 L173.880859983894 150.10748110550446"/>
		<text x="118.45523414168994" y="163.94241759604336" font-family="calibri" font-size="4">5</text>
		<text x="119.70523414168994" y="167.19001286023502" font-family="calibri" font-size="4">5</text>
		<text x="146.16804706279197" y="153.77735408658228" font-family="calibri" font-size="4">64</text>

		<path opacity="0.5" fill="orange" d="M169.62023679041778 133.47754037844385 L177.62023679041778 140.40574360871935 L177.62023679041778 154.26215006927038 L169.62023679041778 147.33394683899488 L169.62023679041778 133.47754037844385"/>
		<path opacity="0.5" fill="orange" d="M114.19461094821372 149.47754037844385 L122.19461094821372 156.40574360871935 L122.19461094821372 170.26215006927038 L114.19461094821372 163.33394683899488 L114.19461094821372 149.47754037844385"/>
		<path opacity="0.5" fill="orange" d="M169.62023679041778 133.47754037844385 L114.19461094821372 149.47754037844385 L114.19461094821372 163.33394683899488 L169.62023679041778 147.33394683899488 L169.62023679041778 133.47754037844385"/>
		<path opacity="0.5" fill="orange" d="M177.62023679041778 140.40574360871935 L122.19461094821372 156.40574360871935 L122.19461094821372 170.26215006927038 L177.62023679041778 154.26215006927038 L177.62023679041778 140.40574360871935"/>
		<path opacity="0.5" fill="orange" d="M169.62023679041778 133.47754037844385 L177.62023679041778 140.40574360871935 L122.19461094821372 156.40574360871935 L114.19461094821372 149.47754037844385 L169.62023679041778 133.47754037844385"/>
		<path opacity="0.5" fill="orange" d="M169.62023679041778 147.33394683899488 L177.62023679041778 154.26215006927038 L122.19461094821372 170.26215006927038 L114.19461094821372 163.33394683899488 L169.62023679041778 147.33394683899488"/>
		<text x="114.19461094821372" y="156.40574360871938" font-family="calibri" font-size="4">16</text>
		<text x="118.19461094821372" y="166.79804845413264" font-family="calibri" font-size="4">16</text>
		<text x="141.90742386931575" y="141.47754037844385" font-family="calibri" font-size="4">64</text>

		<path opacity="0.75" fill="pink" d="M70.89909616657715 167.8877437208111 L73.39909616657715 170.0528072302722 L116.25260020644166 156.81211895823793 L70.89909616657715 167.8877437208111"/>
		<path opacity="0.75" fill="pink" d="M70.89909616657715 167.8877437208111 L70.89909616657715 172.21787073973329 L116.25260020644166 156.81211895823793 L70.89909616657715 167.8877437208111"/>
		<path opacity="0.75" fill="pink" d="M73.39909616657715 170.0528072302722 L73.39909616657715 174.38293424919436 L116.25260020644166 156.81211895823793 L73.39909616657715 170.0528072302722"/>
		<path opacity="0.75" fill="pink" d="M70.89909616657715 172.21787073973329 L73.39909616657715 174.38293424919436 L116.25260020644166 156.81211895823793 L70.89909616657715 172.21787073973329"/>

		<path opacity="0.75" fill="darkturquoise" d="M70.89909616657715 167.8877437208111 L73.39909616657715 170.0528072302722 L73.39909616657715 174.38293424919436 L70.89909616657715 172.21787073973329 L70.89909616657715 167.8877437208111"/>
		<path opacity="0.75" fill="darkturquoise" d="M43.186283245475096 175.8877437208111 L45.686283245475096 178.0528072302722 L45.686283245475096 182.38293424919436 L43.186283245475096 180.21787073973329 L43.186283245475096 175.8877437208111"/>
		<path opacity="0.75" fill="darkturquoise" d="M70.89909616657715 167.8877437208111 L43.186283245475096 175.8877437208111 L43.186283245475096 180.21787073973329 L70.89909616657715 172.21787073973329 L70.89909616657715 167.8877437208111"/>
		<path opacity="0.75" fill="darkturquoise" d="M73.39909616657715 170.0528072302722 L45.686283245475096 178.0528072302722 L45.686283245475096 182.38293424919436 L73.39909616657715 174.38293424919436 L73.39909616657715 170.0528072302722"/>
		<path opacity="0.75" fill="darkturquoise" d="M70.89909616657715 167.8877437208111 L73.39909616657715 170.0528072302722 L45.686283245475096 178.0528072302722 L43.186283245475096 175.8877437208111 L70.89909616657715 167.8877437208111"/>
		<path opacity="0.75" fill="darkturquoise" d="M70.89909616657715 172.21787073973329 L73.39909616657715 174.38293424919436 L45.686283245475096 182.38293424919436 L43.186283245475096 180.21787073973329 L70.89909616657715 172.21787073973329"/>
		<text x="43.186283245475096" y="178.0528072302722" font-family="calibri" font-size="4">5</text>
		<text x="44.436283245475096" y="181.3004024944638" font-family="calibri" font-size="4">5</text>
		<text x="57.042689706026124" y="171.8877437208111" font-family="calibri" font-size="4">32</text>

		<path opacity="0.5" fill="orange" d="M66.8933407589918 151.58523553303058 L82.8933407589918 165.44164199358158 L82.8933407589918 193.15445491468364 L66.8933407589918 179.2980484541326 L66.8933407589918 151.58523553303058"/>
		<path opacity="0.5" fill="orange" d="M39.18052783788974 159.58523553303058 L55.18052783788974 173.44164199358158 L55.18052783788974 201.15445491468364 L39.18052783788974 187.2980484541326 L39.18052783788974 159.58523553303058"/>
		<path opacity="0.5" fill="orange" d="M66.8933407589918 151.58523553303058 L39.18052783788974 159.58523553303058 L39.18052783788974 187.2980484541326 L66.8933407589918 179.2980484541326 L66.8933407589918 151.58523553303058"/>
		<path opacity="0.5" fill="orange" d="M82.8933407589918 165.44164199358158 L55.18052783788974 173.44164199358158 L55.18052783788974 201.15445491468364 L82.8933407589918 193.15445491468364 L82.8933407589918 165.44164199358158"/>
		<path opacity="0.5" fill="orange" d="M66.8933407589918 151.58523553303058 L82.8933407589918 165.44164199358158 L55.18052783788974 173.44164199358158 L39.18052783788974 159.58523553303058 L66.8933407589918 151.58523553303058"/>
		<path opacity="0.5" fill="orange" d="M66.8933407589918 179.2980484541326 L82.8933407589918 193.15445491468364 L55.18052783788974 201.15445491468364 L39.18052783788974 187.2980484541326 L66.8933407589918 179.2980484541326"/>
		<text x="39.18052783788974" y="173.44164199358158" font-family="calibri" font-size="4">32</text>
		<text x="47.18052783788974" y="194.2262516844081" font-family="calibri" font-size="4">32</text>
		<text x="53.03693429844077" y="155.58523553303058" font-family="calibri" font-size="4">32</text>

		<path opacity="0.75" fill="pink" d="M5.2685435368311175 183.3153601665573 L10.268543536831118 187.64548718547948 L49.121305089688974 187.30094336637973 L5.2685435368311175 183.3153601665573"/>
		<path opacity="0.75" fill="pink" d="M5.2685435368311175 183.3153601665573 L5.2685435368311175 191.9756142044017 L49.121305089688974 187.30094336637973 L5.2685435368311175 183.3153601665573"/>
		<path opacity="0.75" fill="pink" d="M10.268543536831118 187.64548718547948 L10.268543536831118 196.30574122332388 L49.121305089688974 187.30094336637973 L10.268543536831118 187.64548718547948"/>
		<path opacity="0.75" fill="pink" d="M5.2685435368311175 191.9756142044017 L10.268543536831118 196.30574122332388 L49.121305089688974 187.30094336637973 L5.2685435368311175 191.9756142044017"/>

		<path opacity="0.75" fill="darkturquoise" d="M5.2685435368311175 183.3153601665573 L10.268543536831118 187.64548718547948 L10.268543536831118 196.30574122332388 L5.2685435368311175 191.9756142044017 L5.2685435368311175 183.3153601665573"/>
		<path opacity="0.75" fill="darkturquoise" d="M-12.051964538857675 188.3153601665573 L-7.051964538857675 192.64548718547948 L-7.051964538857675 201.30574122332388 L-12.051964538857675 196.9756142044017 L-12.051964538857675 188.3153601665573"/>
		<path opacity="0.75" fill="darkturquoise" d="M5.2685435368311175 183.3153601665573 L-12.051964538857675 188.3153601665573 L-12.051964538857675 196.9756142044017 L5.2685435368311175 191.9756142044017 L5.2685435368311175 183.3153601665573"/>
		<path opacity="0.75" fill="darkturquoise" d="M10.268543536831118 187.64548718547948 L-7.051964538857675 192.64548718547948 L-7.051964538857675 201.30574122332388 L10.268543536831118 196.30574122332388 L10.268543536831118 187.64548718547948"/>
		<path opacity="0.75" fill="darkturquoise" d="M5.2685435368311175 183.3153601665573 L10.268543536831118 187.64548718547948 L-7.051964538857675 192.64548718547948 L-12.051964538857675 188.3153601665573 L5.2685435368311175 183.3153601665573"/>
		<path opacity="0.75" fill="darkturquoise" d="M5.2685435368311175 191.9756142044017 L10.268543536831118 196.30574122332388 L-7.051964538857675 201.30574122332388 L-12.051964538857675 196.9756142044017 L5.2685435368311175 191.9756142044017"/>
		<text x="-12.051964538857675" y="192.6454871854795" font-family="calibri" font-size="4">10</text>
		<text x="-9.551964538857675" y="199.14067771386277" font-family="calibri" font-size="4">10</text>
		<text x="-3.3917105010132786" y="185.8153601665573" font-family="calibri" font-size="4">20</text>

		<path opacity="0.5" fill="orange" d="M-4.120742351332154 172.08523553303058 L11.879257648667846 185.94164199358158 L11.879257648667846 213.65445491468364 L-4.120742351332154 199.7980484541326 L-4.120742351332154 172.08523553303058"/>
		<path opacity="0.5" fill="orange" d="M-21.441250427020947 177.08523553303058 L-5.441250427020947 190.94164199358158 L-5.441250427020947 218.65445491468364 L-21.441250427020947 204.7980484541326 L-21.441250427020947 177.08523553303058"/>
		<path opacity="0.5" fill="orange" d="M-4.120742351332154 172.08523553303058 L-21.441250427020947 177.08523553303058 L-21.441250427020947 204.7980484541326 L-4.120742351332154 199.7980484541326 L-4.120742351332154 172.08523553303058"/>
		<path opacity="0.5" fill="orange" d="M11.879257648667846 185.94164199358158 L-5.441250427020947 190.94164199358158 L-5.441250427020947 218.65445491468364 L11.879257648667846 213.65445491468364 L11.879257648667846 185.94164199358158"/>
		<path opacity="0.5" fill="orange" d="M-4.120742351332154 172.08523553303058 L11.879257648667846 185.94164199358158 L-5.441250427020947 190.94164199358158 L-21.441250427020947 177.08523553303058 L-4.120742351332154 172.08523553303058"/>
		<path opacity="0.5" fill="orange" d="M-4.120742351332154 199.7980484541326 L11.879257648667846 213.65445491468364 L-5.441250427020947 218.65445491468364 L-21.441250427020947 204.7980484541326 L-4.120742351332154 199.7980484541326"/>
		<text x="-21.441250427020947" y="190.94164199358158" font-family="calibri" font-size="4">32</text>
		<text x="-13.441250427020947" y="211.7262516844081" font-family="calibri" font-size="4">32</text>
		<text x="-12.78099638917655" y="174.58523553303058" font-family="calibri" font-size="4">20</text>

	 </g>
</svg>